<svg width="106" height="105" viewBox="0 0 106 105" fill="none" xmlns="http://www.w3.org/2000/svg">
<path d="M96.4188 94.5846L86.7927 57.1176C86.4798 55.8709 85.2835 55 83.903 55H64.3195L53.4786 72.3161L42.6561 55H22.7597C21.3793 55 20.1645 55.888 19.8516 57.1517L10.5752 94.6187C10.1519 96.3435 11.5691 98 13.4833 98H93.5292C95.4433 98 96.8606 96.3265 96.4188 94.5846Z" fill="#DAF1DE"/>
<path d="M21.9331 93.8096C21.7859 93.8096 21.5834 93.7544 21.4545 93.6992C20.9944 93.4783 20.8103 92.9261 21.0496 92.466C21.1416 92.3003 21.2705 92.1715 21.4177 92.0795C21.4914 91.877 21.565 91.6009 21.6386 91.3432C21.8043 90.7726 22.0067 90.0548 22.3012 89.2449C22.4853 88.7663 23.0007 88.5271 23.4792 88.6927C23.9578 88.8768 24.1971 89.3922 24.0314 89.8707C23.7553 90.6254 23.5713 91.3064 23.4056 91.8402C23.0743 92.9814 22.835 93.8096 21.9331 93.8096ZM24.7861 87.1834C24.6204 87.1834 24.4364 87.1282 24.2707 87.0362C23.8474 86.7601 23.7369 86.1895 24.013 85.7661C24.7309 84.6802 25.5959 83.6862 26.5715 82.8211C26.958 82.4898 27.5286 82.5082 27.8783 82.8948C28.2096 83.2813 28.1912 83.8519 27.8047 84.2016C26.9396 84.9747 26.1849 85.8398 25.5591 86.7969C25.3935 87.0362 25.099 87.1834 24.7861 87.1834ZM30.1975 82.3242C29.8662 82.3242 29.5533 82.1585 29.3876 81.8456C29.1483 81.4039 29.314 80.8333 29.7558 80.594C30.8417 80.005 32.0381 79.508 33.2898 79.1031C33.7683 78.9558 34.2837 79.2135 34.4493 79.7105C34.5966 80.189 34.3389 80.7044 33.8419 80.8701C32.6823 81.2382 31.5964 81.6984 30.6208 82.2321C30.5104 82.2874 30.3448 82.3242 30.1975 82.3242ZM37.1551 80.0418C36.7133 80.0418 36.3268 79.7289 36.2532 79.2687C36.1611 78.7718 36.5108 78.2932 37.0078 78.2012C38.1858 77.9987 39.4558 77.8515 40.7627 77.7778C41.2781 77.7226 41.7014 78.1275 41.7382 78.6429C41.775 79.1583 41.3885 79.5816 40.8731 79.6184C39.6399 79.6921 38.4435 79.8393 37.3207 80.0234C37.2655 80.0418 37.2103 80.0418 37.1551 80.0418ZM44.6648 79.4344C44.1678 79.4344 43.6893 79.0479 43.6525 78.5693C43.634 78.0539 43.9285 77.6306 44.4439 77.6122L48.1252 77.4281C48.6037 77.3729 49.0639 77.7962 49.1007 78.2932C49.1191 78.8086 48.7326 79.2319 48.2356 79.2687L44.72 79.4528C44.7016 79.4344 44.6832 79.4344 44.6648 79.4344ZM51.8432 79.0479C51.3647 79.0479 50.9597 78.6613 50.9229 78.1828C50.8861 77.6674 51.2726 77.244 51.788 77.2072C53.0212 77.1336 54.236 77.06 55.4508 76.968C55.9662 76.9311 56.408 77.3177 56.4448 77.8146C56.4816 78.3116 56.0951 78.7718 55.5981 78.8086C54.3833 78.9006 53.1501 78.9742 51.9169 79.0479C51.88 79.0479 51.8616 79.0479 51.8432 79.0479ZM59.1873 78.4957C58.7272 78.4957 58.3222 78.1459 58.267 77.6674C58.2118 77.1704 58.5983 76.7103 59.0953 76.6735C60.3285 76.563 61.5433 76.4342 62.7397 76.2869C63.2367 76.2133 63.6968 76.5814 63.7705 77.0968C63.8257 77.5938 63.476 78.0539 62.9606 78.1275C61.7642 78.2748 60.531 78.4036 59.2793 78.5141C59.2609 78.4957 59.2241 78.4957 59.1873 78.4957ZM66.513 77.5938C66.0712 77.5938 65.6847 77.2809 65.6111 76.8207C65.5375 76.3237 65.8688 75.8452 66.3842 75.7715C67.6174 75.5691 68.8138 75.3482 69.955 75.1089C70.4703 74.9985 70.9489 75.3114 71.0593 75.8084C71.1698 76.3053 70.8569 76.8023 70.3599 76.9127C69.1819 77.1704 67.9671 77.3913 66.6786 77.6122C66.605 77.5938 66.5498 77.5938 66.513 77.5938ZM73.6914 75.9924C73.3049 75.9924 72.9368 75.7347 72.8079 75.3482C72.6607 74.8696 72.9184 74.3543 73.4153 74.1886C74.6485 73.8021 75.7529 73.3603 76.71 72.9002C77.1702 72.6793 77.7224 72.8634 77.9433 73.3235C78.1641 73.7837 77.9801 74.3359 77.5199 74.5567C76.4892 75.0721 75.2928 75.5323 73.9675 75.9556C73.8755 75.974 73.7835 75.9924 73.6914 75.9924ZM80.1704 72.6241C79.9127 72.6241 79.6734 72.5321 79.4894 72.3296C79.1397 71.9431 79.1765 71.3725 79.5446 71.0227C80.4097 70.2313 81.0171 69.3662 81.3484 68.4091C81.5141 67.9305 82.0478 67.6728 82.5264 67.8569C83.005 68.0225 83.2627 68.5563 83.0786 69.0349C82.6369 70.2681 81.8638 71.4093 80.7778 72.4032C80.6122 72.5505 80.3913 72.6241 80.1704 72.6241Z" fill="#235347"/>
<path d="M98.3636 94.5335L88.7046 57.4018C88.1875 55.4047 86.2483 54 83.9952 54H65.4345L63.2922 57.3848H84.0137C84.5493 57.3848 85.011 57.7233 85.1218 58.1803L94.7807 95.312C94.8915 95.7351 94.6884 96.0567 94.5591 96.209C94.4298 96.3613 94.1528 96.6152 93.6542 96.6152H13.3353C12.8551 96.6152 12.5781 96.3613 12.4488 96.2259C12.3195 96.0905 12.1164 95.769 12.2272 95.3458L21.5352 58.2141C21.646 57.7403 22.1077 57.4018 22.6433 57.4018H43.6234L41.4811 54.0169H22.6618C20.3902 54.0169 18.451 55.4386 17.9524 57.4525L8.62584 94.5673C8.29341 95.8874 8.62584 97.2583 9.54926 98.3245C10.4727 99.3907 11.8578 100 13.3353 100H93.6542C95.1501 100 96.5167 99.3907 97.4402 98.3076C98.382 97.2414 98.7145 95.8705 98.3636 94.5335Z" fill="#235347"/>
<path d="M53.9704 79L31.1132 39.6504C26.3136 31.4024 26.2921 21.522 31.0701 13.2526C35.8267 4.98315 44.3928 0.0214791 53.9489 0C53.9704 0 53.9919 0 53.9919 0C63.5696 0 72.1141 4.94019 76.9137 13.2096C81.7133 21.5005 81.6918 31.3809 76.8707 39.6718L53.9704 79ZM53.9919 4.29581C53.9704 4.29581 53.9704 4.29581 53.9489 4.29581C45.9424 4.31729 38.7753 8.46275 34.7936 15.379C30.8119 22.2953 30.8119 30.5647 34.8366 37.481L53.9704 70.4513L73.1472 37.5239C77.172 30.5862 77.1935 22.3168 73.1903 15.379C69.1655 8.44127 61.9984 4.29581 53.9919 4.29581Z" fill="#235347"/>
<path d="M55.7561 29.4272V32.8079C55.7561 32.8079 54.4401 33.7173 54.3546 34.1506C54.269 34.5839 54.3813 36.3598 54.9002 36.5043C55.4137 36.6487 55.7614 37.0124 55.7614 37.0124V40.5162C55.7614 40.5162 66.0212 40.5429 66.278 40.5162C66.5348 40.4894 67.1392 40.3718 67.0804 38.8847C67.0216 37.3922 66.9092 29.4272 66.9092 29.4272L63.352 29.1705C63.352 29.1705 62.7582 28.1595 62.357 27.8492C61.9558 27.5389 60.5864 27.8492 60.5864 27.8492L59.6343 29.1116L55.7561 29.4272Z" fill="#DAF1DE"/>
<path d="M51.9367 36.1459C51.2734 36.0817 50.7545 35.5147 50.7598 34.8567C50.7652 34.0008 51.605 33.3375 52.5518 33.6531C52.5518 32.0484 52.5518 30.4436 52.5518 28.8388C51.359 28.8388 50.1661 28.8335 48.9732 28.8388C48.8288 28.8388 48.7592 28.8121 48.7111 28.657C48.4008 27.6834 47.5075 27.0308 46.5179 27.0415C45.5176 27.0522 44.6564 27.6834 44.3461 28.6516C44.298 28.8014 44.2338 28.8388 44.084 28.8388C43.1158 28.8335 42.1529 28.8335 41.1847 28.8335C40.6658 28.8335 40.5 28.9993 40.5 29.5075C40.5 32.8775 40.5 36.2422 40.5 39.6122C40.5 40.3076 41.067 40.88 41.7624 40.88C43.6454 40.8853 45.5336 40.8853 47.4166 40.8853C49.123 40.8853 50.8347 40.8853 52.5411 40.8853C52.5411 39.5266 52.5411 38.1732 52.5411 36.8145C52.5572 36.3492 52.4128 36.194 51.9367 36.1459ZM47.1759 39.8797C45.3892 39.8797 43.6026 39.8797 41.8106 39.8797C41.6447 39.8797 41.5164 39.7459 41.5164 39.5854C41.511 36.4294 41.5164 33.2787 41.511 30.1226C41.511 29.914 41.5431 29.8391 41.7785 29.8445C42.9607 29.8659 44.1482 29.8445 45.3304 29.8552C44.8329 28.4644 46.566 27.2555 47.7857 28.7372C47.8178 29.6466 47.8766 29.8498 48.5239 29.8498C49.4653 29.8498 50.4068 29.8552 51.3483 29.8445C51.5141 29.8445 51.5569 29.8926 51.5515 30.0531C51.5408 30.909 51.5462 31.7702 51.5515 32.6261C50.4763 32.8829 49.7595 33.7922 49.7488 34.8567C49.7381 35.9105 50.4656 36.8306 51.5515 37.0981C51.5408 38.0235 51.5408 38.9542 51.5515 39.8797C50.0965 39.8797 48.6362 39.8797 47.1759 39.8797Z" fill="#235347"/>
<path d="M48.9198 36.0121C48.8824 35.3595 48.5454 34.8888 47.9677 34.6053C47.8286 34.5357 47.7858 34.509 47.8874 34.3485C48.2351 33.7815 48.2244 33.1931 47.866 32.6421C47.4969 32.0804 46.9406 31.8397 46.2827 31.952C45.6514 32.059 45.2235 32.4388 45.0256 33.054C44.8598 33.5836 44.9721 34.0703 45.293 34.5143C45.261 34.5304 45.2342 34.5464 45.2075 34.5571C44.5656 34.8406 44.2018 35.3221 44.1537 36.0175C44.1269 36.3598 44.1376 36.7022 44.1376 37.0445C44.1376 37.5153 44.3623 37.7399 44.8384 37.7399C45.598 37.7399 46.3629 37.7399 47.1225 37.7399C47.5183 37.7399 47.9142 37.7453 48.31 37.7399C48.7059 37.7346 48.9305 37.5046 48.9305 37.1087C48.9305 36.745 48.9412 36.3812 48.9198 36.0121ZM46.5341 32.6047C47.0369 32.6047 47.4434 33.0058 47.4488 33.5087C47.4541 34.0169 47.0315 34.4448 46.5287 34.4341C46.0312 34.4234 45.6194 34.0062 45.6194 33.514C45.6247 33.0165 46.0366 32.61 46.5341 32.6047ZM48.0853 37.0659C47.973 37.0659 47.8874 37.0713 47.8928 36.9054C47.9088 36.6433 47.8981 36.3812 47.8928 36.1191C47.8874 35.8784 47.7537 35.734 47.5504 35.7393C47.3579 35.7447 47.2241 35.8837 47.2188 36.1138C47.2134 36.3759 47.2134 36.638 47.2188 36.9001C47.2241 37.0178 47.2027 37.0713 47.0636 37.0659C46.7106 37.0552 46.3629 37.0552 46.0098 37.0659C45.8761 37.0713 45.8494 37.0231 45.8494 36.9001C45.8601 36.654 45.8547 36.408 45.8494 36.1619C45.844 35.8891 45.7263 35.75 45.5177 35.7447C45.2984 35.7393 45.1754 35.8837 45.17 36.1672C45.1647 36.4187 45.1593 36.6754 45.17 36.9268C45.1754 37.0606 45.1058 37.0713 45.0042 37.0606C44.9133 37.0552 44.8063 37.098 44.8116 36.9322C44.8223 36.6273 44.8063 36.317 44.833 36.0175C44.8758 35.5146 45.277 35.1455 45.7852 35.1241C46.0366 35.1134 46.2934 35.1241 46.5448 35.1241C46.7908 35.1241 47.0369 35.1134 47.283 35.1241C47.8125 35.1455 48.2244 35.5574 48.2405 36.087C48.2512 36.3652 48.2351 36.638 48.2458 36.9161C48.2619 37.0606 48.1923 37.0659 48.0853 37.0659Z" fill="#235347"/>
<path d="M52.7391 19.4937L52.8033 19.8253L51.7281 20.6544L51.6318 22.5213L53.8571 22.5855H55.6919V20.74L54.7825 19.9109L54.8574 18.6966L54.6863 17.7819L53.5469 17.4716L52.6428 17.7819L52.3968 18.472L52.7391 19.4937Z" fill="#8EB69B"/>
<path d="M64.0099 36.0121C63.9725 35.3595 63.6355 34.8888 63.0578 34.6053C62.9187 34.5357 62.8759 34.509 62.9775 34.3485C63.3252 33.7815 63.3145 33.1931 62.9561 32.6421C62.587 32.0804 62.0307 31.8397 61.3728 31.952C60.7416 32.059 60.3136 32.4388 60.1157 33.054C59.9499 33.5836 60.0622 34.0703 60.3832 34.5143C60.3511 34.5304 60.3243 34.5464 60.2976 34.5571C59.661 34.8353 59.2973 35.3167 59.2491 36.0175C59.2224 36.3598 59.2331 36.7022 59.2331 37.0445C59.2331 37.5153 59.4577 37.7399 59.9338 37.7399C60.6934 37.7399 61.4584 37.7399 62.2179 37.7399C62.6138 37.7399 63.0096 37.7453 63.4055 37.7399C63.8013 37.7346 64.026 37.5046 64.026 37.1087C64.0206 36.745 64.0313 36.3812 64.0099 36.0121ZM61.6242 32.6047C62.127 32.6047 62.5336 33.0058 62.5389 33.5087C62.5442 34.0169 62.1217 34.4448 61.6188 34.4341C61.1214 34.4234 60.7095 34.0062 60.7095 33.514C60.7148 33.0165 61.1267 32.61 61.6242 32.6047ZM63.1755 37.0659C63.0631 37.0659 62.9775 37.0713 62.9829 36.9054C62.9989 36.6433 62.9882 36.3812 62.9829 36.1191C62.9775 35.8784 62.8438 35.734 62.6405 35.7393C62.448 35.7447 62.3142 35.8837 62.3089 36.1138C62.3035 36.3759 62.3035 36.638 62.3089 36.9001C62.3142 37.0178 62.2928 37.0713 62.1538 37.0659C61.8007 37.0552 61.453 37.0552 61.1 37.0659C60.9662 37.0713 60.9395 37.0231 60.9395 36.9001C60.9502 36.654 60.9448 36.408 60.9395 36.1619C60.9341 35.8891 60.8164 35.75 60.6078 35.7447C60.3885 35.7393 60.2655 35.8837 60.2601 36.1672C60.2548 36.4187 60.2494 36.6754 60.2601 36.9268C60.2655 37.0606 60.1959 37.0713 60.0943 37.0606C60.0034 37.0552 59.8964 37.098 59.9017 36.9322C59.9124 36.6273 59.8964 36.317 59.9231 36.0175C59.9659 35.5146 60.3671 35.1455 60.8753 35.1241C61.1267 35.1134 61.3835 35.1241 61.6349 35.1241C61.8809 35.1241 62.127 35.1134 62.3731 35.1241C62.9026 35.1455 63.3145 35.5574 63.3306 36.087C63.3413 36.3652 63.3252 36.638 63.3359 36.9161C63.352 37.0606 63.2824 37.0659 63.1755 37.0659Z" fill="#235347"/>
<path d="M66.8184 28.8442C65.8502 28.8442 64.8873 28.8388 63.9191 28.8495C63.7693 28.8495 63.7051 28.8121 63.657 28.6623C63.3467 27.6994 62.4855 27.0682 61.4852 27.0522C60.4956 27.0415 59.6023 27.6941 59.292 28.6676C59.2439 28.8228 59.169 28.8495 59.0299 28.8495C57.837 28.8442 56.6441 28.8495 55.4513 28.8495C55.4513 30.0638 55.4513 31.1443 55.4513 32.2891C55.4513 32.2891 55.4513 32.2891 55.4459 32.2891C55.4459 32.3586 55.4459 32.4281 55.4459 32.4977C55.4459 32.6635 55.4138 32.7384 55.2426 32.7972C54.2958 33.0968 53.6379 34.0062 53.6486 34.9797C53.6593 35.9747 54.3012 36.852 55.2587 37.1515C55.4299 37.205 55.4513 37.2853 55.4513 37.435C55.4513 37.5902 55.4513 37.7399 55.4513 37.8951H55.4566C55.4566 38.8954 55.4566 39.8957 55.4566 40.896C57.163 40.896 58.8748 40.896 60.5812 40.896C62.4641 40.896 64.3524 40.896 66.2353 40.8906C66.9307 40.8906 67.4977 40.3236 67.4977 39.6229C67.5031 36.2529 67.4977 32.8882 67.4977 29.5182C67.5031 29.0046 67.3373 28.8442 66.8184 28.8442ZM66.4974 39.5854C66.4974 39.7513 66.3637 39.8796 66.2032 39.8796C64.4166 39.8796 62.6299 39.8796 60.8379 39.8796C59.3776 39.8796 57.9173 39.8743 56.4569 39.885C56.473 38.9596 56.4676 38.0288 56.4569 37.1034C56.4569 37.0392 56.4569 36.975 56.4569 36.9108C56.4569 36.4561 56.3071 36.2956 55.8471 36.2529C55.3015 36.1994 54.8628 35.841 54.7131 35.3221C54.5686 34.8139 54.7452 34.279 55.1678 33.9527C55.371 33.7922 55.6064 33.712 55.8632 33.6852C56.2964 33.6478 56.4569 33.4766 56.4569 33.038C56.4569 32.9042 56.4569 32.7705 56.4569 32.6368C56.4676 31.7809 56.4676 30.9197 56.4569 30.0638C56.4569 29.9033 56.4944 29.8498 56.6655 29.8552C57.607 29.8659 58.5485 29.8605 59.4899 29.8605C60.1372 29.8605 60.196 29.6572 60.2281 28.7479C61.4478 27.2661 63.1809 28.4751 62.6834 29.8659C63.8656 29.8605 65.0531 29.8766 66.2353 29.8552C66.4707 29.8498 66.5028 29.9247 66.5028 30.1333C66.4921 33.2787 66.4974 36.4294 66.4974 39.5854Z" fill="#235347"/>
<path d="M59.9069 25.3778C59.9069 22.0078 59.9069 18.6431 59.9069 15.2731C59.9069 14.5777 59.3399 14.0053 58.6445 14.0053C56.7616 14 54.8733 14 52.9904 14C51.284 14 49.5722 14 47.8658 14C47.8658 15.0003 47.8658 16.0006 47.8658 17.0009H47.8604C47.8604 17.1561 47.8604 17.3058 47.8604 17.461C47.8604 17.6107 47.839 17.691 47.6679 17.7445C46.7104 18.044 46.0684 18.9213 46.0577 19.9163C46.047 20.8898 46.705 21.8045 47.6518 22.0987C47.8283 22.1522 47.8604 22.2325 47.8551 22.3983C47.8551 22.4678 47.8551 22.5374 47.8551 22.6069C47.8551 22.6069 47.8551 22.6069 47.8604 22.6069C47.8604 23.757 47.8604 24.8322 47.8604 26.0465C49.0533 26.0465 50.2462 26.0518 51.4391 26.0465C51.5835 26.0465 51.6531 26.0732 51.7012 26.2284C52.0114 27.2019 52.9048 27.8545 53.8944 27.8438C54.8947 27.8331 55.7559 27.2019 56.0662 26.2337C56.1143 26.0839 56.1785 26.0465 56.3283 26.0465C57.2965 26.0518 58.2594 26.0518 59.2276 26.0518C59.7411 26.0572 59.9069 25.8914 59.9069 25.3778ZM58.9013 24.7734C58.9013 24.982 58.8692 25.0569 58.6338 25.0515C57.4516 25.0301 56.2641 25.0515 55.0819 25.0408C55.5794 26.4316 53.8462 27.6406 52.6266 26.1588C52.5945 25.2494 52.5357 25.0462 51.8884 25.0462C50.9469 25.0462 50.0055 25.0408 49.064 25.0515C48.8982 25.0515 48.8554 25.0034 48.8554 24.8429C48.8661 23.987 48.8607 23.1258 48.8554 22.2699C48.8554 22.1362 48.8554 22.0025 48.8554 21.8687C48.8554 21.4301 48.7003 21.2589 48.2616 21.2215C48.0049 21.2001 47.7695 21.1145 47.5662 20.954C47.1436 20.6277 46.9671 20.0874 47.1115 19.5846C47.2613 19.0657 47.7 18.7073 48.2456 18.6538C48.7056 18.611 48.85 18.4506 48.8554 17.9959C48.8554 17.9317 48.8554 17.8675 48.8554 17.8033C48.8661 16.8779 48.8661 15.9471 48.8554 15.0217C50.3157 15.0324 51.7761 15.0271 53.2364 15.0271C55.0231 15.0271 56.8097 15.0271 58.6017 15.0271C58.7675 15.0271 58.8959 15.1608 58.8959 15.3213C58.9013 18.4666 58.8959 21.6227 58.9013 24.7734Z" fill="#235347"/>
<path d="M56.0341 21.1894C55.9967 20.5368 55.6597 20.0661 55.0819 19.7825C54.9429 19.713 54.9001 19.6863 55.0017 19.5258C55.3494 18.9588 55.3387 18.3703 54.9803 17.8194C54.6112 17.2577 54.0549 17.017 53.3969 17.1293C52.7657 17.2363 52.3378 17.6161 52.1399 18.2313C51.974 18.7608 52.0864 19.2476 52.4073 19.6916C52.3752 19.7077 52.3485 19.7237 52.3217 19.7344C51.6852 20.0126 51.3214 20.494 51.2733 21.1947C51.2465 21.5371 51.2572 21.8794 51.2572 22.2218C51.2572 22.6925 51.4819 22.9172 51.958 22.9172C52.7176 22.9172 53.4825 22.9172 54.2421 22.9172C54.638 22.9172 55.0338 22.9225 55.4296 22.9172C55.8255 22.9119 56.0502 22.6818 56.0502 22.286C56.0502 21.9222 56.0609 21.5531 56.0341 21.1894ZM53.6537 17.7819C54.1565 17.7819 54.5631 18.1831 54.5684 18.686C54.5738 19.1941 54.1512 19.6221 53.6484 19.6114C53.1509 19.6007 52.739 19.1834 52.739 18.6913C52.739 18.1938 53.1509 17.7819 53.6537 17.7819ZM55.1996 22.2378C55.0873 22.2378 55.0017 22.2432 55.0071 22.0774C55.0231 21.8153 55.0124 21.5531 55.0071 21.291C55.0017 21.0503 54.868 20.9059 54.6647 20.9112C54.4721 20.9166 54.3384 21.0557 54.3331 21.2857C54.3277 21.5478 54.3277 21.8099 54.3331 22.072C54.3384 22.1897 54.317 22.2432 54.1779 22.2378C53.8249 22.2271 53.4772 22.2271 53.1241 22.2378C52.9904 22.2432 52.9636 22.1951 52.9636 22.072C52.9743 21.826 52.969 21.5799 52.9636 21.3338C52.9583 21.061 52.8406 20.9219 52.632 20.9166C52.4127 20.9112 52.2896 21.0557 52.2843 21.3392C52.2789 21.5906 52.2736 21.8474 52.2843 22.0988C52.2896 22.2325 52.2201 22.2432 52.1185 22.2325C52.0275 22.2271 51.9205 22.2699 51.9259 22.1041C51.9366 21.7992 51.9205 21.489 51.9473 21.1894C51.9901 20.6866 52.3913 20.3175 52.8995 20.2961C53.1509 20.2854 53.4076 20.2961 53.659 20.2961C53.9051 20.2961 54.1512 20.2854 54.3972 20.2961C54.9268 20.3175 55.3387 20.7294 55.3548 21.2589C55.3655 21.5371 55.3494 21.8099 55.3601 22.0881C55.3762 22.2378 55.312 22.2432 55.1996 22.2378Z" fill="#235347"/>
</svg>
