<svg width="184" height="120" viewBox="0 0 184 120" fill="none" xmlns="http://www.w3.org/2000/svg">
<g opacity="0.7">
<path d="M156.567 73.5C152.494 84.4083 144.164 96.225 132.446 99.7167C114.741 105.008 112.625 119.275 80.9096 117.95C76.278 117.777 71.679 117.104 67.1932 115.942C65.0011 115.362 62.8475 114.647 60.7449 113.8C42.2194 106.292 32.5594 89.7833 31.7816 72.5C30.6943 49.7833 46.5518 38.95 56.8725 32.6083C67.1932 26.2667 79.5881 1.66666 110.776 2.75C115.538 2.88745 120.268 3.57823 124.869 4.80833C135.365 7.64166 146.037 13.925 152.235 23.1417C152.695 23.8333 153.146 24.5333 153.565 25.2583C161.861 39.2917 162.129 58.6167 156.567 73.5Z" fill="#DAF1DE"/>
<path opacity="0.7" d="M156.567 73.5C152.494 84.4083 144.164 96.225 132.446 99.7167C114.741 105.008 112.625 119.275 80.9096 117.95C76.278 117.777 71.679 117.104 67.1932 115.942C65.0011 115.362 62.8475 114.647 60.7449 113.8C42.2194 106.292 32.5594 89.7833 31.7816 72.5C30.6943 49.7833 46.5518 38.95 56.8725 32.6083C67.1932 26.2667 79.5881 1.66666 110.776 2.75C115.538 2.88745 120.268 3.57823 124.869 4.80833C135.365 7.64166 146.037 13.925 152.235 23.1417C152.695 23.8333 153.146 24.5333 153.565 25.2583C161.861 39.2917 162.129 58.6167 156.567 73.5Z" fill="#E4F2E6"/>
</g>
<path d="M54.4639 50.1167H140.434V106.667C140.434 107.004 140.367 107.337 140.238 107.649C140.108 107.96 139.918 108.243 139.679 108.482C139.44 108.72 139.156 108.909 138.843 109.038C138.531 109.167 138.196 109.233 137.858 109.233H57.0399C56.3567 109.233 55.7015 108.963 55.2184 108.482C54.7353 108 54.4639 107.347 54.4639 106.667V50.1167Z" fill="#D6E5D8"/>
<path d="M53.8284 42.25L83.4106 17.35C86.3594 14.8696 90.0939 13.5089 93.953 13.5089C97.812 13.5089 101.547 14.8696 104.495 17.35L134.73 42.7833C134.8 42.8431 134.85 42.9228 134.873 43.0117C134.896 43.1006 134.892 43.1944 134.86 43.2806C134.828 43.3668 134.77 43.4412 134.695 43.4938C134.619 43.5464 134.529 43.5748 134.437 43.575L54.3637 43.6833C54.2008 43.6748 54.044 43.619 53.9125 43.5228C53.781 43.4265 53.6807 43.2941 53.6238 43.1418C53.5669 42.9894 53.556 42.8239 53.5923 42.6654C53.6287 42.507 53.7108 42.3626 53.8284 42.25Z" fill="#DAF1DE" stroke="#235347" stroke-miterlimit="10"/>
<path d="M136.938 46.5083V101.75C136.933 102.821 136.504 103.846 135.745 104.603C134.985 105.36 133.956 105.787 132.881 105.792H55.0242C54.4868 105.791 53.9549 105.684 53.4595 105.477C52.9641 105.269 52.5151 104.965 52.1387 104.583C51.7655 104.211 51.4699 103.77 51.2689 103.283C51.0679 102.797 50.9656 102.276 50.9678 101.75V46.5083C50.9788 45.4429 51.4108 44.4247 52.1701 43.6744C52.9293 42.9241 53.9548 42.5021 55.0242 42.5H132.881C133.956 42.5022 134.987 42.9287 135.747 43.6862C136.507 44.4437 136.935 45.4704 136.938 46.5417V46.5083Z" fill="#DAF1DE" stroke="#235347" stroke-miterlimit="10"/>
<path d="M135.566 43.4833L101.083 68.875L98.4486 66.1667C97.8652 65.5661 97.1667 65.0886 96.3944 64.7625C95.6221 64.4363 94.7919 64.2683 93.9531 64.2683C93.1143 64.2683 92.2841 64.4363 91.5118 64.7625C90.7396 65.0886 90.041 65.5661 89.4577 66.1667L86.8231 68.875L52.3398 43.4833C53.0844 42.8403 54.0392 42.4906 55.0246 42.5H132.882C133.867 42.489 134.823 42.8389 135.566 43.4833Z" fill="#DAF1DE" stroke="#235347" stroke-miterlimit="10"/>
<path d="M136.503 99.05V101.7C136.499 102.222 136.391 102.739 136.186 103.219C135.98 103.7 135.682 104.135 135.307 104.5L100.648 68.7917L136.503 99.05Z" fill="#BAD3BD"/>
<path d="M87.2578 68.7917L52.5738 104.5C52.2006 104.128 51.9049 103.686 51.704 103.2C51.503 102.714 51.4007 102.193 51.4029 101.667V99.05L87.2578 68.7917Z" fill="#BAD3BD"/>
<path d="M135.767 104.583L131.418 100.133L127.077 95.675L118.396 86.7583L109.739 77.825L105.407 73.3583L101.083 68.875L105.432 73.325L109.773 77.7833L118.454 86.7L127.119 95.6417L131.451 100.108L135.767 104.583Z" stroke="#235347" stroke-miterlimit="10"/>
<path d="M52.1387 104.583L56.4543 100.108L60.7867 95.6417L69.4514 86.7L78.1329 77.7833L82.4736 73.325L86.8227 68.875L82.507 73.3583L78.1747 77.825L69.5099 86.7583L60.8285 95.675L56.4878 100.133L52.1387 104.583Z" stroke="#235347" stroke-miterlimit="10"/>
<path d="M99.5272 80.9583C100.646 81.5127 101.576 82.382 102.204 83.4583C102.839 84.5841 103.159 85.8589 103.132 87.15C103.136 88.2406 102.95 89.3235 102.58 90.35C102.262 91.3017 101.713 92.1604 100.982 92.85C100.318 93.4679 99.4408 93.8079 98.5319 93.8C97.9272 93.8475 97.3275 93.6593 96.8592 93.275C96.4642 92.8948 96.2281 92.3798 96.1985 91.8333C95.7614 92.4373 95.1885 92.931 94.5258 93.275C93.8689 93.6219 93.1364 93.8022 92.393 93.8C91.9288 93.8227 91.4649 93.7468 91.0323 93.5772C90.5998 93.4077 90.2083 93.1484 89.884 92.8167C89.2375 92.0856 88.9042 91.1313 88.9556 90.1583C88.9497 89.1343 89.1785 88.1225 89.6247 87.2C90.0414 86.3162 90.6811 85.5553 91.4814 84.9917C92.2707 84.4361 93.2166 84.1443 94.1829 84.1583C94.7386 84.1013 95.2984 84.2173 95.7852 84.4904C96.272 84.7635 96.6618 85.1803 96.901 85.6833L97.1352 84.375H98.8079L97.7458 90.4833C97.7074 90.7287 97.6878 90.9767 97.6872 91.225C97.6872 92.0583 98.0552 92.5 98.8079 92.5C99.1027 92.4901 99.3905 92.409 99.6469 92.2639C99.9033 92.1188 100.121 91.9138 100.28 91.6667C100.731 91.0664 101.053 90.3798 101.225 89.65C101.438 88.8675 101.548 88.0607 101.551 87.25C101.599 86.4556 101.474 85.6604 101.185 84.9184C100.896 84.1764 100.451 83.5051 99.8785 82.95C98.5645 81.8625 96.8829 81.3169 95.1781 81.425C93.594 81.3986 92.0334 81.8098 90.6694 82.6129C89.3054 83.416 88.1911 84.5797 87.4501 85.975C86.6821 87.4135 86.2882 89.0208 86.3043 90.65C86.2471 91.4466 86.3674 92.2459 86.6566 92.9908C86.9458 93.7356 87.3967 94.4075 87.977 94.9583C89.3055 96.0299 90.988 96.5679 92.6941 96.4667C93.907 96.4945 95.1105 96.2495 96.2152 95.75L96.4745 97.0583C95.1471 97.5954 93.7252 97.8618 92.2927 97.8417C90.9133 97.8756 89.5449 97.5903 88.2949 97.0083C87.1785 96.4705 86.2471 95.615 85.6185 94.55C84.9732 93.4216 84.6466 92.1401 84.6734 90.8417C84.6516 88.9365 85.1271 87.0585 86.0534 85.3917C86.9521 83.7743 88.2765 82.4317 89.884 81.5083C91.5614 80.5546 93.4644 80.0654 95.3956 80.0917C96.8227 80.0458 98.2398 80.3431 99.5272 80.9583ZM94.7683 91.7083C95.3196 91.3218 95.7605 90.7992 96.0479 90.1917C96.3601 89.5329 96.5175 88.8118 96.5079 88.0833C96.5369 87.4349 96.3222 86.7991 95.9058 86.3C95.6943 86.0704 95.435 85.8895 95.1461 85.7701C94.8572 85.6506 94.5456 85.5954 94.233 85.6083C93.5824 85.5975 92.9477 85.8092 92.4349 86.2083C91.9073 86.6294 91.4958 87.1771 91.2389 87.8C90.9568 88.444 90.8116 89.1391 90.8123 89.8417C90.7777 90.4827 90.98 91.1142 91.381 91.6167C91.5924 91.8445 91.8525 92.0219 92.1421 92.1359C92.4316 92.2498 92.7432 92.2974 93.0538 92.275C93.6817 92.2734 94.2931 92.0752 94.8018 91.7083H94.7683Z" fill="#235347"/>
<path d="M52.1221 43.6917L72.1195 26.825L82.1559 18.3917L83.4104 17.3417L83.7199 17.075L84.0377 16.8167C84.2468 16.6417 84.4726 16.4833 84.6901 16.325L84.8573 16.2L85.0246 16.0917L85.309 15.8333L86.0115 15.4083L86.3712 15.2167C86.4882 15.15 86.6053 15.0833 86.7308 15.025C86.8563 14.9667 87.2242 14.775 87.4752 14.675C88.4735 14.2281 89.5164 13.8873 90.5864 13.6583C91.6593 13.4336 92.752 13.3163 93.8483 13.3083C94.9436 13.3009 96.0368 13.4071 97.1101 13.625L97.3108 13.6667L97.5115 13.7167L97.913 13.8083L98.3061 13.9167L98.6992 14.0333C99.2224 14.1965 99.7361 14.3885 100.238 14.6083C101.243 15.0414 102.201 15.5747 103.098 16.2L103.425 16.4417C103.533 16.525 103.65 16.6 103.751 16.6917C103.851 16.7833 104.177 17.0333 104.386 17.2083L105.641 18.2583L115.677 26.6833L135.675 43.55L115.602 26.7333L105.566 18.3167L104.32 17.2583L103.684 16.75C103.575 16.6583 103.466 16.5833 103.358 16.5L103.032 16.2583C102.137 15.6358 101.182 15.1053 100.18 14.675C99.692 14.4812 99.1951 14.3116 98.6908 14.1667L98.2977 14.05L97.9046 13.9417L97.5115 13.85L97.3108 13.8H97.1101C96.0423 13.5825 94.9548 13.4764 93.865 13.4833C92.7743 13.4917 91.6871 13.609 90.6199 13.8333C89.5571 14.0618 88.5203 14.3968 87.5253 14.8333C87.2661 14.9333 87.0319 15.0667 86.781 15.1833L86.4213 15.375L86.0617 15.5667C85.8275 15.7083 85.5933 15.8417 85.3675 15.9917L85.0246 16.2167L84.8573 16.3333L84.6901 16.45C84.4726 16.6083 84.2552 16.7667 84.0461 16.9417L83.7283 17.2L83.4104 17.4583L82.1642 18.5167L72.1279 26.9333L52.1221 43.6917Z" fill="#1F4168"/>
<path d="M122.686 52.425L65.3955 51.2917V16.975H128.499V48.1667L122.686 52.425Z" fill="#8EB69B"/>
<path d="M65.4372 51.2917H65.3535V16.9333H128.541V48.4917H128.457V17.025H65.4372V51.2917Z" stroke="#235347" stroke-linecap="round" stroke-linejoin="round"/>
<path d="M125.505 31.325L125.555 50.3333L101.083 68.3333L98.4067 65.5C97.1343 64.4119 95.5022 63.8327 93.826 63.8742C92.1498 63.9158 90.5486 64.5752 89.3321 65.725L86.823 68.3333L62.3594 50.35V19.9H113.746L125.505 31.325Z" fill="white"/>
<path d="M125.505 31.65H113.712V19.9L125.505 31.65Z" fill="#C3DDCA"/>
<path d="M125.555 50.8417H125.463V31.6667L113.695 19.9417H62.443V50.8583H62.3594V19.8583H113.729L125.555 31.6333V50.8417Z" stroke="#235347" stroke-linecap="round" stroke-linejoin="round"/>
<path d="M75.4317 33.1167H68.0132C67.7166 33.1059 67.4358 32.9808 67.2299 32.7679C67.0239 32.555 66.909 32.2707 66.9092 31.975V24.5833C66.9092 24.2805 67.0299 23.9902 67.2448 23.7761C67.4597 23.5619 67.7511 23.4417 68.055 23.4417H75.4735C75.7774 23.4417 76.0689 23.5619 76.2838 23.7761C76.4986 23.9902 76.6194 24.2805 76.6194 24.5833V31.975C76.6195 32.1285 76.5885 32.2804 76.5283 32.4217C76.4681 32.563 76.38 32.6908 76.2691 32.7974C76.1582 32.904 76.0269 32.9872 75.8831 33.042C75.7392 33.0969 75.5857 33.1223 75.4317 33.1167Z" fill="#235347"/>
<path d="M70.6726 30.8667L68.3057 28.5083L69.0249 27.7917L70.6726 29.425L74.4111 25.6917L75.1388 26.4167L70.6726 30.8667Z" fill="white"/>
<path d="M107.213 25.3833H78.9609V27.4583H107.213V25.3833Z" fill="#C3DDCA"/>
<path d="M98.8998 29.1H78.9609V31.175H98.8998V29.1Z" fill="#C3DDCA"/>
<path d="M75.4317 45H68.0132C67.7209 44.9894 67.4437 44.8679 67.2385 44.6603C67.0332 44.4527 66.9154 44.1747 66.9092 43.8833V36.4917C66.9092 36.1889 67.0299 35.8985 67.2448 35.6844C67.4597 35.4703 67.7511 35.35 68.055 35.35H75.4735C75.7774 35.35 76.0689 35.4703 76.2838 35.6844C76.4986 35.8985 76.6194 36.1889 76.6194 36.4917V43.8833C76.6161 44.0347 76.5827 44.184 76.5211 44.3223C76.4594 44.4607 76.3707 44.5855 76.2602 44.6894C76.1497 44.7934 76.0195 44.8743 75.8773 44.9277C75.735 44.981 75.5836 45.0056 75.4317 45Z" fill="#235347"/>
<path d="M70.6726 42.775L68.3057 40.4167L69.0249 39.6917L70.6726 41.3333L74.4111 37.6L75.1388 38.325L70.6726 42.775Z" fill="white"/>
<path d="M107.213 37.2917H78.9609V39.3667H107.213V37.2917Z" fill="#C3DDCA"/>
<path d="M98.8998 41.0083H78.9609V43.0833H98.8998V41.0083Z" fill="#C3DDCA"/>
<path d="M112.399 58.3333H111.746C111.739 58.3377 111.73 58.34 111.721 58.34C111.713 58.34 111.704 58.3377 111.696 58.3333C111.704 58.3289 111.713 58.3266 111.721 58.3266C111.73 58.3266 111.739 58.3289 111.746 58.3333H112.298V57.8667C112.306 57.8623 112.315 57.86 112.324 57.86C112.332 57.86 112.341 57.8623 112.349 57.8667H112.399V58.3333Z" fill="#235347"/>
<path d="M110.492 58.3333H109.238C109.23 58.3377 109.221 58.34 109.212 58.34C109.204 58.34 109.195 58.3377 109.187 58.3333C109.195 58.3289 109.204 58.3266 109.212 58.3266C109.221 58.3266 109.23 58.3289 109.238 58.3333H110.492H110.542C110.535 58.3377 110.526 58.34 110.517 58.34C110.508 58.34 110.5 58.3377 110.492 58.3333ZM107.983 58.3333H106.728C106.721 58.3377 106.712 58.34 106.703 58.34C106.695 58.34 106.686 58.3377 106.678 58.3333C106.686 58.3289 106.695 58.3266 106.703 58.3266C106.712 58.3266 106.721 58.3289 106.728 58.3333H107.983C107.991 58.3289 107.999 58.3266 108.008 58.3266C108.017 58.3266 108.026 58.3289 108.033 58.3333C108.027 58.3363 108.02 58.3379 108.012 58.3379C108.005 58.3379 107.998 58.3363 107.991 58.3333H107.983ZM105.474 58.3333H104.228C104.22 58.3377 104.211 58.34 104.203 58.34C104.194 58.34 104.185 58.3377 104.178 58.3333C104.178 58.3333 104.178 58.3333 104.228 58.3333H105.474H105.524C105.518 58.3363 105.51 58.3379 105.503 58.3379C105.496 58.3379 105.489 58.3363 105.482 58.3333H105.474ZM102.965 58.3333H101.71C101.703 58.3377 101.694 58.34 101.685 58.34C101.676 58.34 101.668 58.3377 101.66 58.3333C101.668 58.3289 101.676 58.3266 101.685 58.3266C101.694 58.3266 101.703 58.3289 101.71 58.3333H102.965C102.972 58.3289 102.981 58.3266 102.99 58.3266C102.999 58.3266 103.007 58.3289 103.015 58.3333C103.004 58.3371 102.992 58.3371 102.982 58.3333H102.965ZM100.456 58.3333H99.2096C99.202 58.3377 99.1933 58.34 99.1845 58.34C99.1757 58.34 99.167 58.3377 99.1594 58.3333C99.1594 58.3333 99.1594 58.3333 99.2096 58.3333H100.456H100.506C100.495 58.3371 100.483 58.3371 100.472 58.3333H100.456ZM97.9467 58.3333H96.6921C96.6845 58.3377 96.6758 58.34 96.667 58.34C96.6582 58.34 96.6496 58.3377 96.6419 58.3333C96.6496 58.3289 96.6582 58.3266 96.667 58.3266C96.6758 58.3266 96.6845 58.3289 96.6921 58.3333H97.9467C97.9543 58.3289 97.963 58.3266 97.9718 58.3266C97.9806 58.3266 97.9892 58.3289 97.9969 58.3333C97.9886 58.3354 97.98 58.3354 97.9718 58.3333H97.9467ZM95.4376 58.3333H94.1914C94.1838 58.3377 94.1751 58.34 94.1663 58.34C94.1575 58.34 94.1488 58.3377 94.1412 58.3333C94.1412 58.3333 94.1412 58.3333 94.1914 58.3333H95.4376H95.4878C95.4795 58.3354 95.4709 58.3354 95.4627 58.3333H95.4376ZM92.9285 58.3333H91.6739C91.6663 58.3377 91.6577 58.34 91.6489 58.34C91.64 58.34 91.6314 58.3377 91.6238 58.3333C91.6314 58.3289 91.64 58.3266 91.6489 58.3266C91.6577 58.3266 91.6663 58.3289 91.6739 58.3333H92.9285C92.9361 58.3289 92.9448 58.3266 92.9536 58.3266C92.9624 58.3266 92.971 58.3289 92.9787 58.3333C92.9731 58.3343 92.9675 58.3343 92.9619 58.3333H92.9285ZM90.4194 58.3333H89.1732C89.1656 58.3377 89.1569 58.34 89.1481 58.34C89.1393 58.34 89.1307 58.3377 89.123 58.3333C89.123 58.3333 89.123 58.3333 89.1732 58.3333H90.4194H90.4779C90.4697 58.3351 90.4611 58.3351 90.4529 58.3333H90.4194ZM87.9103 58.3333H86.6558C86.6481 58.3377 86.6395 58.34 86.6307 58.34C86.6219 58.34 86.6132 58.3377 86.6056 58.3333C86.6132 58.3289 86.6219 58.3266 86.6307 58.3266C86.6395 58.3266 86.6481 58.3289 86.6558 58.3333H87.9103C87.9179 58.3289 87.9266 58.3266 87.9354 58.3266C87.9442 58.3266 87.9529 58.3289 87.9605 58.3333C87.9577 58.3336 87.9549 58.3336 87.9521 58.3333H87.9103ZM85.4012 58.3333H84.1467C84.139 58.3377 84.1304 58.34 84.1216 58.34C84.1128 58.34 84.1041 58.3377 84.0965 58.3333C84.1041 58.3289 84.1128 58.3266 84.1216 58.3266C84.1304 58.3266 84.139 58.3289 84.1467 58.3333H85.4012C85.4088 58.3289 85.4175 58.3266 85.4263 58.3266C85.4351 58.3266 85.4438 58.3289 85.4514 58.3333H85.4012ZM82.8921 58.3333H81.6376C81.63 58.3377 81.6213 58.34 81.6125 58.34C81.6037 58.34 81.595 58.3377 81.5874 58.3333C81.595 58.3289 81.6037 58.3266 81.6125 58.3266C81.6213 58.3266 81.63 58.3289 81.6376 58.3333H82.8921C82.8998 58.3289 82.9084 58.3266 82.9172 58.3266C82.926 58.3266 82.9347 58.3289 82.9423 58.3333H82.8921Z" fill="#235347"/>
<path d="M80.4415 58.3333H79.7808V57.7833C79.7884 57.7789 79.797 57.7766 79.8059 57.7766C79.8147 57.7766 79.8233 57.7789 79.8309 57.7833H79.8811V58.25H80.4415C80.4491 58.2456 80.4578 58.2433 80.4666 58.2433C80.4754 58.2433 80.484 58.2456 80.4917 58.25C80.4997 58.2579 80.5048 58.2682 80.5062 58.2793C80.5076 58.2904 80.5053 58.3017 80.4995 58.3113C80.4937 58.3209 80.4848 58.3283 80.4743 58.3323C80.4638 58.3363 80.4522 58.3367 80.4415 58.3333Z" fill="#235347"/>
<path d="M79.8308 56.9083C79.8188 56.9085 79.8072 56.9044 79.7981 56.8968C79.7889 56.8891 79.7828 56.8784 79.7808 56.8667V55.9417C79.7808 55.9284 79.786 55.9157 79.7954 55.9063C79.8048 55.8969 79.8175 55.8917 79.8308 55.8917C79.844 55.8917 79.8567 55.8969 79.8661 55.9063C79.8755 55.9157 79.8808 55.9284 79.8808 55.9417V56.8667C79.8808 56.8667 79.8641 56.9083 79.8308 56.9083ZM79.8308 55.05C79.8232 55.0544 79.8145 55.0567 79.8058 55.0567C79.797 55.0567 79.7884 55.0544 79.7808 55.05V54.075C79.7884 54.0706 79.797 54.0683 79.8058 54.0683C79.8145 54.0683 79.8232 54.0706 79.8308 54.075C79.8384 54.0706 79.847 54.0683 79.8558 54.0683C79.8645 54.0683 79.8732 54.0706 79.8808 54.075V55C79.8808 55 79.8641 55.05 79.8308 55.05ZM79.8308 53.1917C79.8232 53.1961 79.8145 53.1984 79.8058 53.1984C79.797 53.1984 79.7884 53.1961 79.7808 53.1917V52.2167C79.7884 52.2123 79.797 52.21 79.8058 52.21C79.8145 52.21 79.8232 52.2123 79.8308 52.2167H79.8808V53.15C79.8808 53.15 79.8641 53.1917 79.8308 53.1917ZM79.8308 51.3333C79.8188 51.3335 79.8072 51.3294 79.7981 51.3218C79.7889 51.3141 79.7828 51.3034 79.7808 51.2917V50.3583C79.7884 50.3539 79.797 50.3516 79.8058 50.3516C79.8145 50.3516 79.8232 50.3539 79.8308 50.3583H79.8808V51.2917C79.8788 51.3034 79.8726 51.3141 79.8635 51.3218C79.8543 51.3294 79.8427 51.3335 79.8308 51.3333Z" fill="#235347"/>
<path d="M79.8309 49.475C79.8233 49.4794 79.8147 49.4817 79.8059 49.4817C79.797 49.4817 79.7884 49.4794 79.7808 49.475V48.9167H80.4415C80.4491 48.9134 80.4575 48.912 80.4658 48.9127C80.4741 48.9134 80.4821 48.9161 80.489 48.9207C80.496 48.9252 80.5017 48.9314 80.5057 48.9387C80.5097 48.946 80.5117 48.9542 80.5117 48.9625C80.5117 48.9708 80.5097 48.979 80.5057 48.9863C80.5017 48.9936 80.496 48.9998 80.489 49.0043C80.4821 49.0089 80.4741 49.0116 80.4658 49.0123C80.4575 49.013 80.4491 49.0117 80.4415 49.0083H79.8811V49.475C79.8735 49.4794 79.8648 49.4817 79.856 49.4817C79.8472 49.4817 79.8386 49.4794 79.8309 49.475Z" fill="#235347"/>
<path d="M110.492 48.9667H109.238C109.23 48.97 109.222 48.9714 109.213 48.9707C109.205 48.97 109.197 48.9672 109.19 48.9627C109.183 48.9581 109.177 48.9519 109.173 48.9446C109.169 48.9373 109.167 48.9291 109.167 48.9208C109.167 48.9125 109.169 48.9044 109.173 48.8971C109.177 48.8898 109.183 48.8836 109.19 48.879C109.197 48.8745 109.205 48.8717 109.213 48.871C109.222 48.8703 109.23 48.8717 109.238 48.875H110.492C110.499 48.875 110.505 48.8763 110.511 48.8788C110.517 48.8813 110.523 48.885 110.528 48.8896C110.532 48.8943 110.536 48.8998 110.539 48.9059C110.541 48.9119 110.542 48.9184 110.542 48.925C110.54 48.9368 110.534 48.9474 110.525 48.9551C110.516 48.9627 110.504 48.9668 110.492 48.9667ZM107.983 48.9667H106.729C106.721 48.97 106.713 48.9714 106.704 48.9707C106.696 48.97 106.688 48.9672 106.681 48.9627C106.674 48.9581 106.668 48.9519 106.664 48.9446C106.66 48.9373 106.658 48.9291 106.658 48.9208C106.658 48.9125 106.66 48.9044 106.664 48.8971C106.668 48.8898 106.674 48.8836 106.681 48.879C106.688 48.8745 106.696 48.8717 106.704 48.871C106.713 48.8703 106.721 48.8717 106.729 48.875H107.983C107.991 48.8717 107.999 48.8703 108.007 48.871C108.016 48.8717 108.024 48.8745 108.031 48.879C108.038 48.8836 108.043 48.8898 108.047 48.8971C108.051 48.9044 108.053 48.9125 108.053 48.9208C108.053 48.9291 108.051 48.9373 108.047 48.9446C108.043 48.9519 108.038 48.9581 108.031 48.9627C108.024 48.9672 108.016 48.97 108.007 48.9707C107.999 48.9714 107.991 48.97 107.983 48.9667ZM105.474 48.9667H104.228C104.22 48.9711 104.212 48.9734 104.203 48.9734C104.194 48.9734 104.185 48.9711 104.178 48.9667C104.178 48.9534 104.183 48.9407 104.192 48.9313C104.202 48.9219 104.214 48.9167 104.228 48.9167H105.474C105.481 48.9167 105.487 48.918 105.493 48.9205C105.499 48.923 105.505 48.9267 105.509 48.9313C105.514 48.936 105.518 48.9415 105.52 48.9475C105.523 48.9536 105.524 48.9601 105.524 48.9667C105.518 48.9697 105.51 48.9712 105.503 48.9712C105.496 48.9712 105.489 48.9697 105.482 48.9667H105.474ZM102.965 48.9667H101.71C101.703 48.97 101.694 48.9714 101.686 48.9707C101.678 48.97 101.67 48.9672 101.663 48.9627C101.656 48.9581 101.65 48.9519 101.646 48.9446C101.642 48.9373 101.64 48.9291 101.64 48.9208C101.64 48.9125 101.642 48.9044 101.646 48.8971C101.65 48.8898 101.656 48.8836 101.663 48.879C101.67 48.8745 101.678 48.8717 101.686 48.871C101.694 48.8703 101.703 48.8717 101.71 48.875H102.965C102.973 48.8717 102.981 48.8703 102.989 48.871C102.997 48.8717 103.005 48.8745 103.012 48.879C103.019 48.8836 103.025 48.8898 103.029 48.8971C103.033 48.9044 103.035 48.9125 103.035 48.9208C103.035 48.9291 103.033 48.9373 103.029 48.9446C103.025 48.9519 103.019 48.9581 103.012 48.9627C103.005 48.9672 102.997 48.97 102.989 48.9707C102.981 48.9714 102.973 48.97 102.965 48.9667ZM100.456 48.9667H99.2096C99.202 48.9711 99.1933 48.9734 99.1845 48.9734C99.1757 48.9734 99.1671 48.9711 99.1594 48.9667C99.1594 48.9534 99.1647 48.9407 99.1741 48.9313C99.1835 48.9219 99.1963 48.9167 99.2096 48.9167H100.456C100.469 48.9167 100.482 48.9219 100.491 48.9313C100.501 48.9407 100.506 48.9534 100.506 48.9667C100.495 48.9705 100.483 48.9705 100.473 48.9667H100.456ZM97.9467 48.9667H96.6922C96.6845 48.97 96.6762 48.9714 96.6679 48.9707C96.6596 48.97 96.6516 48.9672 96.6446 48.9627C96.6376 48.9581 96.6319 48.9519 96.628 48.9446C96.624 48.9373 96.6219 48.9291 96.6219 48.9208C96.6219 48.9125 96.624 48.9044 96.628 48.8971C96.6319 48.8898 96.6376 48.8836 96.6446 48.879C96.6516 48.8745 96.6596 48.8717 96.6679 48.871C96.6762 48.8703 96.6845 48.8717 96.6922 48.875H97.9467C97.9543 48.8717 97.9627 48.8703 97.971 48.871C97.9793 48.8717 97.9873 48.8745 97.9943 48.879C98.0012 48.8836 98.0069 48.8898 98.0109 48.8971C98.0149 48.9044 98.0169 48.9125 98.0169 48.9208C98.0169 48.9291 98.0149 48.9373 98.0109 48.9446C98.0069 48.9519 98.0012 48.9581 97.9943 48.9627C97.9873 48.9672 97.9793 48.97 97.971 48.9707C97.9627 48.9714 97.9543 48.97 97.9467 48.9667ZM95.4376 48.9667H94.1914C94.1838 48.9711 94.1751 48.9734 94.1663 48.9734C94.1575 48.9734 94.1489 48.9711 94.1413 48.9667C94.1413 48.9534 94.1465 48.9407 94.156 48.9313C94.1654 48.9219 94.1781 48.9167 94.1914 48.9167H95.4376C95.4509 48.9167 95.4637 48.9219 95.4731 48.9313C95.4825 48.9407 95.4878 48.9534 95.4878 48.9667C95.4796 48.9688 95.4709 48.9688 95.4627 48.9667H95.4376ZM92.9285 48.9667H91.674C91.6663 48.97 91.658 48.9714 91.6497 48.9707C91.6414 48.97 91.6334 48.9672 91.6264 48.9627C91.6195 48.9581 91.6137 48.9519 91.6098 48.9446C91.6058 48.9373 91.6037 48.9291 91.6037 48.9208C91.6037 48.9125 91.6058 48.9044 91.6098 48.8971C91.6137 48.8898 91.6195 48.8836 91.6264 48.879C91.6334 48.8745 91.6414 48.8717 91.6497 48.871C91.658 48.8703 91.6663 48.8717 91.674 48.875H92.9285C92.9362 48.8717 92.9445 48.8703 92.9528 48.871C92.9611 48.8717 92.9691 48.8745 92.9761 48.879C92.983 48.8836 92.9888 48.8898 92.9927 48.8971C92.9967 48.9044 92.9988 48.9125 92.9988 48.9208C92.9988 48.9291 92.9967 48.9373 92.9927 48.9446C92.9888 48.9519 92.983 48.9581 92.9761 48.9627C92.9691 48.9672 92.9611 48.97 92.9528 48.9707C92.9445 48.9714 92.9362 48.97 92.9285 48.9667ZM90.4194 48.9667H89.1733C89.1656 48.9711 89.157 48.9734 89.1482 48.9734C89.1394 48.9734 89.1307 48.9711 89.1231 48.9667C89.1231 48.9534 89.1284 48.9407 89.1378 48.9313C89.1472 48.9219 89.1599 48.9167 89.1733 48.9167H90.4194C90.4336 48.9165 90.4474 48.9215 90.4581 48.9307C90.4689 48.9399 90.476 48.9527 90.478 48.9667C90.4697 48.9685 90.4612 48.9685 90.4529 48.9667H90.4194ZM87.9103 48.9667H86.6558C86.6482 48.97 86.6398 48.9714 86.6315 48.9707C86.6232 48.97 86.6152 48.9672 86.6082 48.9627C86.6013 48.9581 86.5956 48.9519 86.5916 48.9446C86.5876 48.9373 86.5856 48.9291 86.5856 48.9208C86.5856 48.9125 86.5876 48.9044 86.5916 48.8971C86.5956 48.8898 86.6013 48.8836 86.6082 48.879C86.6152 48.8745 86.6232 48.8717 86.6315 48.871C86.6398 48.8703 86.6482 48.8717 86.6558 48.875H87.9103C87.918 48.8717 87.9263 48.8703 87.9346 48.871C87.9429 48.8717 87.9509 48.8745 87.9579 48.879C87.9649 48.8836 87.9706 48.8898 87.9745 48.8971C87.9785 48.9044 87.9806 48.9125 87.9806 48.9208C87.9806 48.9291 87.9785 48.9373 87.9745 48.9446C87.9706 48.9519 87.9649 48.9581 87.9579 48.9627C87.9509 48.9672 87.9429 48.97 87.9346 48.9707C87.9263 48.9714 87.918 48.97 87.9103 48.9667ZM85.4013 48.9667H84.1467C84.1391 48.97 84.1307 48.9714 84.1224 48.9707C84.1141 48.97 84.1061 48.9672 84.0992 48.9627C84.0922 48.9581 84.0865 48.9519 84.0825 48.9446C84.0785 48.9373 84.0765 48.9291 84.0765 48.9208C84.0765 48.9125 84.0785 48.9044 84.0825 48.8971C84.0865 48.8898 84.0922 48.8836 84.0992 48.879C84.1061 48.8745 84.1141 48.8717 84.1224 48.871C84.1307 48.8703 84.1391 48.8717 84.1467 48.875H85.4013C85.4089 48.8717 85.4172 48.8703 85.4255 48.871C85.4338 48.8717 85.4418 48.8745 85.4488 48.879C85.4558 48.8836 85.4615 48.8898 85.4655 48.8971C85.4694 48.9044 85.4715 48.9125 85.4715 48.9208C85.4715 48.9291 85.4694 48.9373 85.4655 48.9446C85.4615 48.9519 85.4558 48.9581 85.4488 48.9627C85.4418 48.9672 85.4338 48.97 85.4255 48.9707C85.4172 48.9714 85.4089 48.97 85.4013 48.9667ZM82.8922 48.9667H81.6376C81.63 48.97 81.6216 48.9714 81.6133 48.9707C81.605 48.97 81.597 48.9672 81.5901 48.9627C81.5831 48.9581 81.5774 48.9519 81.5734 48.9446C81.5695 48.9373 81.5674 48.9291 81.5674 48.9208C81.5674 48.9125 81.5695 48.9044 81.5734 48.8971C81.5774 48.8898 81.5831 48.8836 81.5901 48.879C81.597 48.8745 81.605 48.8717 81.6133 48.871C81.6216 48.8703 81.63 48.8717 81.6376 48.875H82.8922C82.8998 48.8717 82.9081 48.8703 82.9164 48.871C82.9247 48.8717 82.9327 48.8745 82.9397 48.879C82.9467 48.8836 82.9524 48.8898 82.9564 48.8971C82.9603 48.9044 82.9624 48.9125 82.9624 48.9208C82.9624 48.9291 82.9603 48.9373 82.9564 48.9446C82.9524 48.9519 82.9467 48.9581 82.9397 48.9627C82.9327 48.9672 82.9247 48.97 82.9164 48.9707C82.9081 48.9714 82.8998 48.97 82.8922 48.9667Z" fill="#235347"/>
<path d="M112.349 49.475C112.341 49.4794 112.332 49.4817 112.324 49.4817C112.315 49.4817 112.306 49.4794 112.299 49.475V49.0083H111.747C111.739 49.0117 111.731 49.013 111.722 49.0123C111.714 49.0116 111.706 49.0089 111.699 49.0043C111.692 48.9998 111.686 48.9936 111.682 48.9863C111.678 48.979 111.676 48.9708 111.676 48.9625C111.676 48.9542 111.678 48.946 111.682 48.9387C111.686 48.9314 111.692 48.9252 111.699 48.9207C111.706 48.9161 111.714 48.9134 111.722 48.9127C111.731 48.912 111.739 48.9134 111.747 48.9167H112.399V49.475C112.391 49.4794 112.383 49.4817 112.374 49.4817C112.365 49.4817 112.356 49.4794 112.349 49.475Z" fill="#235347"/>
<path d="M112.348 56.9083C112.336 56.9085 112.325 56.9044 112.316 56.8968C112.306 56.8891 112.3 56.8784 112.298 56.8667V55.9417C112.298 55.9284 112.304 55.9157 112.313 55.9063C112.322 55.8969 112.335 55.8917 112.348 55.8917C112.355 55.8917 112.361 55.893 112.367 55.8955C112.374 55.898 112.379 55.9017 112.384 55.9063C112.388 55.911 112.392 55.9165 112.395 55.9225C112.397 55.9286 112.398 55.9351 112.398 55.9417V56.8667C112.398 56.8667 112.382 56.9083 112.348 56.9083ZM112.348 55.05C112.341 55.0544 112.332 55.0567 112.323 55.0567C112.315 55.0567 112.306 55.0544 112.298 55.05V54.075C112.306 54.0706 112.315 54.0683 112.323 54.0683C112.332 54.0683 112.341 54.0706 112.348 54.075C112.356 54.0706 112.365 54.0683 112.373 54.0683C112.382 54.0683 112.391 54.0706 112.398 54.075V55C112.398 55 112.382 55.05 112.348 55.05ZM112.348 53.1917C112.341 53.1961 112.332 53.1984 112.323 53.1984C112.315 53.1984 112.306 53.1961 112.298 53.1917V52.2167C112.306 52.2123 112.315 52.21 112.323 52.21C112.332 52.21 112.341 52.2123 112.348 52.2167H112.398V53.15C112.398 53.15 112.382 53.1917 112.348 53.1917ZM112.348 51.3333C112.336 51.3335 112.325 51.3294 112.316 51.3218C112.306 51.3141 112.3 51.3034 112.298 51.2917V50.3583C112.306 50.3539 112.315 50.3516 112.323 50.3516C112.332 50.3516 112.341 50.3539 112.348 50.3583H112.398V51.2917C112.396 51.3034 112.39 51.3141 112.381 51.3218C112.372 51.3294 112.36 51.3335 112.348 51.3333Z" fill="#235347"/>
<path d="M36.4321 51.0583L34.0569 45.0083L27.9849 42.4667L54.4976 31.675L44.319 49.5333L39.4012 47.525L36.4321 51.0583Z" fill="#235347"/>
<path d="M54.4974 31.675L34.0566 45.0083L36.4319 51.0583L37.0341 46.5417L54.4974 31.675Z" fill="#163832"/>
<path d="M39.4012 47.525L37.0343 46.5417L36.4321 51.0583L39.4012 47.525Z" fill="#051F20"/>
<path d="M29.7663 84.4317C29.7752 84.4317 29.7838 84.4294 29.7914 84.425L29.8249 84.4833C29.831 84.4748 29.8343 84.4646 29.8343 84.4542C29.8343 84.4437 29.831 84.4335 29.8249 84.425C29.6994 84.1167 29.5823 83.7917 29.482 83.4667C29.482 83.4556 29.4776 83.445 29.4697 83.4372C29.4619 83.4294 29.4513 83.425 29.4402 83.425C29.4291 83.425 29.4184 83.4294 29.4106 83.4372C29.4028 83.445 29.3983 83.4556 29.3983 83.4667C29.5071 83.7833 29.6158 84.1083 29.7413 84.425C29.7489 84.4294 29.7575 84.4317 29.7663 84.4317Z" fill="#235347"/>
<path d="M28.9467 81.5083C29.0053 81.8333 29.0805 82.175 29.1642 82.5H29.206V82.45C29.1307 82.1167 29.0554 81.7833 28.9969 81.4583H28.9467V81.5083Z" fill="#235347"/>
<path d="M28.7069 79.5195C28.7311 79.8413 28.7559 80.1707 28.7962 80.5V80.4917C28.8007 80.4985 28.807 80.5042 28.8143 80.5081C28.8215 80.512 28.8297 80.514 28.838 80.514C28.8463 80.514 28.8544 80.512 28.8617 80.5081C28.869 80.5042 28.8752 80.4985 28.8798 80.4917C28.7962 80.1583 28.7962 79.825 28.7962 79.4833V79.4833C28.7923 79.4744 28.7858 79.4668 28.7777 79.4615C28.7695 79.4562 28.7599 79.4533 28.7502 79.4533C28.7404 79.4533 28.7308 79.4562 28.7227 79.4615C28.7145 79.4668 28.7081 79.4744 28.7042 79.4833L28.7069 79.5195Z" fill="#235347"/>
<path d="M28.6958 77.45V78.4667C28.7093 78.4718 28.7242 78.4718 28.7376 78.4667V77.45H28.6958Z" fill="#235347"/>
<path d="M28.838 76.4V76.4417C28.8631 76.4333 28.8798 76.425 28.8882 76.4417C28.93 76.1083 28.9885 75.775 29.0554 75.4417C29.0973 75.3917 29.0554 75.3917 29.0554 75.3917C29.0393 75.3852 29.0213 75.3852 29.0053 75.3917C28.9383 75.725 28.838 76.0667 28.838 76.4Z" fill="#235347"/>
<path d="M144.382 17.65L145.268 13.3667L148.998 10.9917L130.172 6.85834L138.979 17.5417L142.015 15.6417L144.382 17.65Z" fill="#235347"/>
<path d="M130.172 6.85834L145.268 13.3667L144.382 17.65L143.47 14.725L130.172 6.85834Z" fill="#163832"/>
<path d="M142.015 15.6417L143.47 14.725L144.382 17.65L142.015 15.6417Z" fill="#051F20"/>
<path d="M156.977 35.325H157.019H157.028C157.002 34.9917 156.952 34.65 156.894 34.3167H156.844C156.902 34.65 156.977 34.9917 156.977 35.325Z" fill="#235347"/>
<path d="M86.1151 52.7353L84.6871 56.9833H82.9651L81.5371 52.7353H82.9531L83.8291 55.6573L84.6991 52.7353H86.1151ZM87.7453 53.7973V54.3193H89.0653V55.3213H87.7453V55.9213H89.2453V56.9833H86.4133V52.7353H89.2453V53.7973H87.7453ZM91.8833 56.9833L91.0853 55.4593H91.0793V56.9833H89.7473V52.7353H91.7273C92.0713 52.7353 92.3653 52.7973 92.6093 52.9213C92.8533 53.0413 93.0353 53.2073 93.1553 53.4193C93.2793 53.6273 93.3413 53.8633 93.3413 54.1273C93.3413 54.4113 93.2613 54.6633 93.1013 54.8833C92.9453 55.1033 92.7193 55.2613 92.4233 55.3573L93.3473 56.9833H91.8833ZM91.0793 54.5713H91.6073C91.7353 54.5713 91.8313 54.5433 91.8953 54.4873C91.9593 54.4273 91.9913 54.3353 91.9913 54.2113C91.9913 54.0993 91.9573 54.0113 91.8893 53.9473C91.8253 53.8833 91.7313 53.8513 91.6073 53.8513H91.0793V54.5713ZM95.0988 52.7353V56.9833H93.7668V52.7353H95.0988ZM98.7004 52.7353V53.7913H97.0324V54.3793H98.2324V55.3813H97.0324V56.9833H95.7004V52.7353H98.7004ZM100.484 52.7353V56.9833H99.1516V52.7353H100.484ZM103.653 56.9833L102.417 55.1413V56.9833H101.085V52.7353H102.417V54.5233L103.635 52.7353H105.141L103.677 54.7693L105.237 56.9833H103.653ZM84.5611 65.3413H83.1451L82.9351 65.9833H81.5371L83.0911 61.7353H84.6271L86.1751 65.9833H84.7711L84.5611 65.3413ZM84.2371 64.3393L83.8531 63.1573L83.4691 64.3393H84.2371ZM88.1397 66.0253C87.6317 66.0253 87.2117 65.9073 86.8797 65.6713C86.5517 65.4313 86.3737 65.0813 86.3457 64.6213H87.7617C87.7817 64.8653 87.8897 64.9873 88.0857 64.9873C88.1577 64.9873 88.2177 64.9713 88.2657 64.9393C88.3177 64.9033 88.3437 64.8493 88.3437 64.7773C88.3437 64.6773 88.2897 64.5973 88.1817 64.5373C88.0737 64.4733 87.9057 64.4013 87.6777 64.3213C87.4057 64.2253 87.1797 64.1313 86.9997 64.0393C86.8237 63.9473 86.6717 63.8133 86.5437 63.6373C86.4157 63.4613 86.3537 63.2353 86.3577 62.9593C86.3577 62.6833 86.4277 62.4493 86.5677 62.2573C86.7117 62.0613 86.9057 61.9133 87.1497 61.8133C87.3977 61.7133 87.6757 61.6633 87.9837 61.6633C88.5037 61.6633 88.9157 61.7833 89.2197 62.0233C89.5277 62.2633 89.6897 62.6013 89.7057 63.0373H88.2717C88.2677 62.9173 88.2377 62.8313 88.1817 62.7793C88.1257 62.7273 88.0577 62.7013 87.9777 62.7013C87.9217 62.7013 87.8757 62.7213 87.8397 62.7613C87.8037 62.7973 87.7857 62.8493 87.7857 62.9173C87.7857 63.0133 87.8377 63.0933 87.9417 63.1573C88.0497 63.2173 88.2197 63.2913 88.4517 63.3793C88.7197 63.4793 88.9397 63.5753 89.1117 63.6673C89.2877 63.7593 89.4397 63.8873 89.5677 64.0513C89.6957 64.2153 89.7597 64.4213 89.7597 64.6693C89.7597 64.9293 89.6957 65.1633 89.5677 65.3713C89.4397 65.5753 89.2537 65.7353 89.0097 65.8513C88.7657 65.9673 88.4757 66.0253 88.1397 66.0253ZM91.5597 61.7353V65.9833H90.2277V61.7353H91.5597Z" fill="#235347"/>
<ellipse cx="134.654" cy="97.5" rx="11.7091" ry="11.6667" fill="#52BE80"/>
<path d="M128.8 97.5L133.818 100.833L140.509 93.3333" stroke="white" stroke-width="2"/>
</svg>
