<svg width="184" height="120" viewBox="0 0 184 120" fill="none" xmlns="http://www.w3.org/2000/svg">
<g clip-path="url(#clip0_2860_14217)">
<mask id="mask0_2860_14217" style="mask-type:luminance" maskUnits="userSpaceOnUse" x="-62" y="-15" width="311" height="150">
<path d="M248.486 -15H-61.0469V134.607H248.486V-15Z" fill="white"/>
</mask>
<g mask="url(#mask0_2860_14217)">
<path d="M89.8413 101.221C113.656 101.221 132.961 81.9156 132.961 58.1013C132.961 34.287 113.656 14.9817 89.8413 14.9817C66.027 14.9817 46.7217 34.287 46.7217 58.1013C46.7217 81.9156 66.027 101.221 89.8413 101.221Z" fill="#E9F6EB"/>
<path d="M89.8413 93.0957C109.016 93.0957 124.561 77.5513 124.561 58.3764C124.561 39.2015 109.016 23.6572 89.8413 23.6572C70.6664 23.6572 55.1221 39.2015 55.1221 58.3764C55.1221 77.5513 70.6664 93.0957 89.8413 93.0957Z" fill="#DAF1DE"/>
<path d="M87.3397 76.2348C87.4796 75.9144 87.6778 75.6228 87.9243 75.3749C88.305 74.994 88.7908 74.7357 89.3194 74.633C89.848 74.5304 90.3952 74.5881 90.8907 74.7989C91.2133 74.9308 91.5058 75.1268 91.7505 75.3749C91.997 75.6228 92.1953 75.9144 92.3352 76.2348C92.6105 76.9129 92.6105 77.6717 92.3352 78.3499C92.1953 78.6703 91.997 78.9618 91.7505 79.2097C91.5058 79.4578 91.2133 79.6538 90.8907 79.7858C90.5576 79.9274 90.1994 80.0005 89.8374 80.0005C89.4755 80.0005 89.1172 79.9274 88.7842 79.7858C88.4631 79.651 88.1711 79.4554 87.9243 79.2097C87.6778 78.9618 87.4796 78.6703 87.3397 78.3499C87.0644 77.6717 87.0644 76.9129 87.3397 76.2348ZM93.7797 33.717C93.8714 32.5079 93.5698 31.3015 92.9199 30.2777C92.0769 29.5307 90.9896 29.1182 89.8632 29.1182C88.7369 29.1182 87.6495 29.5307 86.8066 30.2777C86.1567 31.3015 85.8551 32.5079 85.9468 33.717V47.6116L87.9845 68.3073V68.2471C87.9942 68.5201 88.0621 68.788 88.1837 69.0327C88.3053 69.2773 88.4778 69.4932 88.6896 69.6658C89.0449 69.9076 89.4636 70.0392 89.8933 70.0441C90.3129 70.0423 90.7227 69.9166 91.0713 69.683C91.2783 69.5162 91.4474 69.3072 91.5675 69.0701C91.6876 68.8329 91.7558 68.5729 91.7677 68.3073L93.8313 47.6116L93.7797 33.717Z" fill="#288C50"/>
<g opacity="0.31">
<path d="M-85.5777 30.0541L-87.2974 25.5831C-77.7944 21.9216 -68.7993 17.0585 -60.5314 11.1125C-52.255 5.17668 -44.7713 -1.7927 -38.2622 -9.62624C-36.7404 -11.4576 -35.2099 -13.4008 -33.7396 -15.2838C-27.7209 -23.0221 -21.4271 -30.984 -12.3819 -35.455C-4.13625 -39.5305 6.22451 -40.4677 18.4081 -38.2494C23.8507 -37.2606 29.2073 -35.7817 34.4006 -34.3373C38.6997 -33.1507 43.1191 -31.9298 47.5127 -31.0098C56.0354 -29.251 64.7408 -28.5379 73.4361 -28.886C82.1674 -29.2468 90.8336 -30.5557 99.2821 -32.7896C116.357 -37.3477 132.395 -45.1507 146.52 -55.7724L149.392 -51.972C134.773 -40.9671 118.172 -32.8808 100.494 -28.1552C91.7115 -25.8342 82.7021 -24.4763 73.6253 -24.1055C64.5377 -23.7368 55.4391 -24.4817 46.5325 -26.3238C41.9927 -27.2696 37.4787 -28.5249 33.1195 -29.7631C28.038 -31.1732 22.8017 -32.6262 17.5568 -33.5806C6.37927 -35.6012 -2.95829 -34.8016 -10.2667 -31.1989C-18.3317 -27.175 -24.2473 -19.6345 -29.9736 -12.3346C-31.4697 -10.4259 -33.0088 -8.45689 -34.5822 -6.5653C-41.3521 1.57812 -49.1332 8.82464 -57.737 14.9988C-66.3389 21.1813 -75.6947 26.2406 -85.5777 30.0541Z" fill="#8EB69B"/>
</g>
<path d="M-86.7814 26.8557L-88.501 22.3933C-79.002 18.7253 -70.0102 13.8595 -61.7436 7.91403C-53.4642 1.97883 -45.9776 -4.99057 -39.4658 -12.8247C-37.944 -14.6561 -36.4221 -16.5992 -34.9432 -18.4392C-28.9245 -26.1776 -22.6307 -34.1394 -13.5941 -38.6105C-5.34846 -42.6774 5.0123 -43.6232 17.2044 -41.4048C22.6385 -40.4161 28.0037 -38.9286 33.1884 -37.4927C37.4874 -36.3062 41.9155 -35.0852 46.3005 -34.1652C54.8245 -32.4173 63.5302 -31.7186 72.2239 -32.0845C80.9517 -32.4466 89.6146 -33.7525 98.0613 -35.9794C115.139 -40.5416 131.18 -48.3473 145.308 -58.9708L148.18 -55.1447C133.561 -44.1413 116.959 -36.0579 99.2822 -31.3364C90.4994 -29.0148 81.4899 -27.6569 72.413 -27.2867C63.3254 -26.9144 54.2264 -27.6595 45.3203 -29.505C40.7805 -30.4508 36.2751 -31.6976 31.9158 -32.9443C26.8258 -34.3544 21.5981 -35.8075 16.3446 -36.7533C5.16706 -38.7824 -4.17051 -37.9828 -11.4703 -34.3802C-19.5354 -30.3734 -25.4595 -22.8243 -31.1772 -15.5331C-32.6733 -13.6243 -34.221 -11.6553 -35.7858 -9.76373C-42.5588 -1.62014 -50.3427 5.62636 -58.9492 11.8004C-67.5481 17.9827 -76.9011 23.0421 -86.7814 26.8557Z" fill="#288C50"/>
<g opacity="0.31">
<path d="M151.327 214.123L151.499 205.886H152.806C156.915 198.844 163.433 194.149 172.65 191.561C181.463 189.094 191.274 188.87 200.757 188.664C205.452 188.552 209.88 188.458 213.912 188.079C220.301 187.486 224.875 186.36 228.753 184.348C231.337 183.071 233.587 181.207 235.322 178.905C236.832 176.85 237.823 174.461 238.211 171.941C239.2 165.758 236.792 159.043 231.779 154.005C228.855 151.2 225.728 148.613 222.425 146.266C215.95 141.426 209.252 136.422 206.088 128.993C205.08 126.625 204.56 124.078 204.56 121.504C204.56 118.93 205.08 116.383 206.088 114.015C206.982 111.897 208.301 109.985 209.963 108.396C211.626 106.808 213.596 105.577 215.752 104.781C222.356 102.339 230.223 101.668 239.122 102.769C246.921 103.791 254.539 105.901 261.752 109.037L260.841 111.143C248.486 105.752 230.361 101.823 216.543 106.93C214.68 107.62 212.977 108.684 211.541 110.058C210.105 111.432 208.966 113.086 208.195 114.918C207.307 117 206.85 119.24 206.85 121.504C206.85 123.767 207.307 126.008 208.195 128.09C211.118 134.969 217.567 139.775 223.8 144.426C227.186 146.834 230.396 149.48 233.404 152.345C238.933 157.917 241.573 165.354 240.472 172.259C239.509 178.277 235.717 183.307 229.793 186.342C225.649 188.466 220.808 189.696 214.127 190.315C210.009 190.702 205.529 190.796 200.809 190.908C191.471 191.114 181.807 191.338 173.295 193.728C169.172 194.794 165.284 196.623 161.834 199.119C158.3 201.749 155.483 205.222 153.64 209.222L151.327 214.123Z" fill="#8EB69B"/>
</g>
<g opacity="0.31">
<path d="M77.091 74.5803L76.962 74.3052C76.8147 73.9962 76.552 73.7573 76.2304 73.64C75.9089 73.5226 75.5541 73.5361 75.2424 73.6775L69.7138 76.2569L68.7852 76.6868L70.0233 79.3351L70.9519 78.8965L76.4805 76.3171C76.7908 76.1667 77.0291 75.8998 77.1434 75.5744C77.2578 75.2491 77.2389 74.8918 77.091 74.5803Z" fill="#DCE8E0"/>
</g>
<path opacity="0.31" d="M304.08 100.523C297.881 101.443 289.196 98.4338 283.762 89.6207C277.047 78.7527 277.898 65.9071 278.707 53.5086C278.767 52.5628 278.836 51.617 278.887 50.6798L278.939 49.9575C279.799 35.5815 280.753 20.7239 278.724 6.17584C277.537 -2.57425 274.613 -10.999 270.126 -18.604C264.967 -27.0989 258.131 -32.9285 250.35 -35.4649C243.067 -37.8466 235.381 -37.0814 229.783 -33.4185C224.805 -30.1513 221.839 -25.0268 221.185 -18.5782C220.162 -7.92509 223.765 2.54743 227.204 12.6674C227.651 13.9686 228.087 15.2583 228.511 16.5366L229.216 18.6259C234.108 33.2428 239.654 49.7856 231.434 63.7317C228.924 68.0308 225.777 70.4813 221.821 71.3239C211.504 73.5336 197.962 63.9295 187.094 56.217C183.597 53.6045 179.951 51.1986 176.174 49.0117C156.398 38.5822 139.89 36.9743 125.694 44.128L125.161 43.079C125.015 42.7938 124.809 42.5438 124.556 42.3464C124.304 42.1489 124.012 42.0087 123.7 41.9355C123.186 41.8178 122.647 41.8848 122.178 42.1246L119.143 43.6981L118.661 43.9388L117.973 42.6061C117.802 42.2702 117.566 41.9715 117.279 41.7271C116.992 41.4828 116.66 41.2978 116.301 41.1827C115.942 41.0676 115.564 41.0247 115.188 41.0565C114.813 41.0883 114.447 41.1942 114.113 41.368L104.999 46.054L104.818 45.7101C104.757 45.5925 104.674 45.4881 104.573 45.4028C104.471 45.3175 104.354 45.2531 104.228 45.2131C104.102 45.1732 103.969 45.1585 103.837 45.17C103.705 45.1815 103.577 45.219 103.46 45.2801L103.253 45.3833C103.135 45.4434 103.03 45.5263 102.944 45.6272C102.857 45.7281 102.792 45.845 102.751 45.9713C102.711 46.0976 102.695 46.2307 102.706 46.3629C102.717 46.4952 102.754 46.6239 102.815 46.7418L111 62.657C111.061 62.7745 111.144 62.879 111.246 62.9642C111.347 63.0495 111.464 63.114 111.59 63.1539C111.716 63.1938 111.849 63.2085 111.981 63.197C112.113 63.1855 112.241 63.1481 112.359 63.0869L112.574 62.9837C112.809 62.8592 112.987 62.6468 113.067 62.3926C113.148 62.1384 113.125 61.8627 113.004 61.6252L112.703 61.0319L112.832 61.2813L113.562 60.9029L116.684 59.2951L121.946 56.5867C122.281 56.4149 122.579 56.1786 122.822 55.8914C123.066 55.6043 123.251 55.2719 123.366 54.9133C123.481 54.5547 123.524 54.1769 123.493 53.8016C123.461 53.4263 123.356 53.0608 123.184 52.7261L122.496 51.3848L126.021 49.5706C126.545 49.3007 126.94 48.8342 127.121 48.2734C127.301 47.7126 127.252 47.1032 126.984 46.5785L126.546 45.7187C140.165 38.8401 156.123 40.4738 175.314 50.6024C179.019 52.7491 182.596 55.109 186.027 57.6701C197.205 65.5975 211.091 75.4596 222.217 73.0865C226.645 72.1407 230.282 69.2861 233.042 64.6173C241.64 49.9489 236 32.9676 230.978 17.9897C230.746 17.2846 230.506 16.5882 230.282 15.9003C229.852 14.6192 229.422 13.3209 228.967 12.0226C225.579 2.08313 222.088 -8.19163 223.051 -18.4492C223.61 -24.3217 226.284 -28.9733 230.789 -31.9225C235.948 -35.2843 243.016 -35.9636 249.765 -33.7625C257.1 -31.3722 263.591 -25.7834 268.518 -17.6754C272.886 -10.2889 275.734 -2.1035 276.893 6.39939C278.896 20.7497 277.976 35.5213 277.09 49.8028L277.039 50.525C276.987 51.4622 276.918 52.408 276.858 53.3538C275.998 66.079 275.138 79.2256 282.18 90.5923C284.524 94.3873 287.774 97.54 291.638 99.7665C295.463 102.018 299.93 102.925 304.329 102.346L304.08 100.523Z" fill="#8EB69B"/>
<path d="M130.423 218.034L130.595 209.797H131.911C136.012 202.755 142.53 198.06 151.755 195.481C160.56 193.005 170.37 192.79 179.863 192.575C184.549 192.472 188.977 192.368 193.018 191.99C199.398 191.397 203.972 190.27 207.85 188.258C210.434 186.982 212.684 185.118 214.418 182.816C215.928 180.76 216.922 178.371 217.316 175.851C218.296 169.669 215.889 162.954 210.885 157.916C207.957 155.115 204.83 152.528 201.53 150.177C195.047 145.337 188.349 140.332 185.193 132.904C184.185 130.536 183.665 127.988 183.665 125.415C183.665 122.841 184.185 120.294 185.193 117.926C186.093 115.829 187.409 113.938 189.061 112.365C190.713 110.792 192.668 109.572 194.806 108.777C201.41 106.344 209.277 105.665 218.184 106.765C225.98 107.795 233.594 109.908 240.806 113.042L239.895 115.14C227.539 109.758 209.423 105.82 195.606 110.927C193.741 111.617 192.038 112.682 190.601 114.056C189.163 115.43 188.022 117.083 187.248 118.915C186.361 120.998 185.904 123.24 185.904 125.505C185.904 127.77 186.361 130.012 187.248 132.095C190.163 138.974 196.612 143.772 202.845 148.432C206.235 150.839 209.447 153.485 212.458 156.351C217.978 161.914 220.618 169.36 219.526 176.255C218.554 182.274 214.762 187.313 208.847 190.339C204.694 192.472 199.862 193.692 193.173 194.312C189.054 194.698 184.574 194.802 179.863 194.905C170.516 195.111 160.852 195.335 152.349 197.725C148.227 198.795 144.34 200.623 140.887 203.116C137.351 205.744 134.531 209.218 132.685 213.219L130.423 218.034Z" fill="#288C50"/>
<path d="M125.102 40.8878C139.341 33.6138 156.786 35.557 176.691 46.0467C180.459 48.2311 183.951 50.3159 187.438 52.9252C198.307 60.6636 211.469 71.2895 221.795 69.0883C225.75 68.2285 228.897 65.7523 231.408 61.4876C239.628 47.5414 234.082 30.99 229.19 16.3904C228.949 15.6853 228.717 14.9889 228.485 14.2924C228.063 13.0199 227.625 11.713 227.178 10.4319C223.738 0.303291 220.153 -10.1606 221.159 -20.8137C221.769 -27.2623 224.736 -32.3954 229.714 -35.6627C235.312 -39.3255 242.998 -40.0907 250.281 -37.709C258.019 -35.1726 264.898 -29.3345 270.057 -20.8395C274.541 -13.2361 277.464 -4.81483 278.655 3.9317C280.684 18.4797 279.764 33.3459 278.87 47.7134L278.818 48.4356C278.766 49.3814 278.698 50.3272 278.638 51.273C277.829 63.6973 276.978 76.5515 283.693 87.3852C289.127 96.1897 297.82 99.2076 304.011 98.279L304.286 100.11C299.886 100.699 295.416 99.7908 291.595 97.5309C287.731 95.3077 284.48 92.1579 282.137 88.3653C275.121 76.9986 275.981 63.8435 276.815 51.1268C276.883 50.181 276.944 49.2353 277.004 48.2981V47.5758C277.864 33.2943 278.809 18.5227 276.806 4.16385C275.647 -4.33773 272.803 -12.5225 268.44 -19.9109C263.505 -28.0276 257.013 -33.5819 249.67 -35.9808C242.921 -38.1905 235.827 -37.5027 230.694 -34.1408C226.198 -31.2003 223.523 -26.5401 222.956 -20.6761C221.976 -10.4186 225.484 -0.143814 228.872 9.79563C229.319 11.1025 229.757 12.3951 230.187 13.6734C230.411 14.3698 230.651 15.0663 230.883 15.7627C235.905 30.7407 241.588 47.722 232.947 62.399C230.187 67.0678 226.55 69.9138 222.122 70.8596C210.996 73.2412 196.888 64.292 185.719 56.3645C182.287 53.801 177.816 51.2062 174.111 49.0561C154.817 38.8759 140.08 37.354 126.392 44.3271L125.102 40.8878Z" fill="#288C50"/>
<path d="M121.421 49.7082L125.978 47.3609C126.501 47.0926 126.897 46.6278 127.077 46.0683C127.258 45.5089 127.209 44.9007 126.941 44.3773L125.161 40.8521C125.017 40.5658 124.811 40.315 124.558 40.1173C124.306 39.9197 124.012 39.7801 123.7 39.7085C123.187 39.5837 122.647 39.6478 122.178 39.8891L117.612 42.245L121.421 49.7082Z" fill="#163832"/>
<path d="M112.78 59.0715L121.894 54.3855C122.569 54.0368 123.079 53.4347 123.311 52.7111C123.543 51.9875 123.479 51.2014 123.132 50.525L117.922 40.3964C117.751 40.0599 117.516 39.7602 117.23 39.5145C116.944 39.2689 116.612 39.082 116.253 38.9646C115.895 38.8473 115.517 38.8017 115.141 38.8305C114.765 38.8593 114.398 38.9619 114.061 39.1325L104.947 43.827L112.78 59.0715Z" fill="#24663F"/>
<path d="M102.777 44.5302L110.966 60.4491C111.22 60.9431 111.826 61.1376 112.32 60.8835L112.542 60.7694C113.036 60.5153 113.231 59.9088 112.977 59.4147L104.788 43.4959C104.534 43.0018 103.928 42.8073 103.434 43.0614L103.212 43.1755C102.718 43.4296 102.523 44.0361 102.777 44.5302Z" fill="#235347"/>
<path d="M112.78 59.0715L121.894 54.3855C122.569 54.0368 123.078 53.4347 123.31 52.7111C123.543 51.9875 123.478 51.2014 123.132 50.525L117.921 40.3964C117.751 40.0599 117.516 39.7602 117.23 39.5145C116.943 39.2689 116.612 39.082 116.253 38.9646C115.895 38.8473 115.516 38.8017 115.14 38.8305C114.764 38.8593 114.397 38.9619 114.061 39.1325C118.927 50.4562 111.086 55.7612 111.086 55.7612L112.78 59.0715Z" fill="#235347"/>
<path d="M113.498 58.7023L105.668 43.4792L104.934 43.8567L112.764 59.0798L113.498 58.7023Z" fill="#235347"/>
<path d="M116.632 57.0939L121.894 54.3855C122.569 54.0368 123.078 53.4347 123.311 52.7111C123.543 51.9874 123.478 51.2013 123.132 50.525L119.478 43.4315C123.166 50.5938 116.632 57.0939 116.632 57.0939Z" fill="#163832"/>
<path d="M122.9 48.9426L119.07 41.4955L118.596 41.7393L122.426 49.1865L122.9 48.9426Z" fill="#235347"/>
<path d="M122.444 49.1837L126.021 47.3609C126.544 47.0927 126.939 46.6278 127.12 46.0684C127.3 45.509 127.251 44.9008 126.984 44.3773L125.161 40.8521C125.016 40.5659 124.81 40.315 124.558 40.1173C124.305 39.9197 124.012 39.7801 123.699 39.7086C127.138 44.8158 122.117 48.4701 122.117 48.4701L122.444 49.1837Z" fill="#0B2B26"/>
<path d="M46.636 82.2321C34.9168 87.2792 21.6327 93.0055 8.75266 93.4096C3.38742 93.5558 -7.0249 91.5696 -16.4743 76.5401C-18.8726 72.6019 -21.0067 68.5087 -22.8627 64.2878C-23.155 63.6343 -23.4473 62.9378 -23.7225 62.1984C-25.1842 58.6474 -26.8436 54.6235 -30.7128 52.6717C-36.25 49.8773 -41.1853 53.0156 -45.1576 55.5349C-45.6391 55.8358 -46.112 56.1453 -46.5849 56.3947C-47.8488 57.1685 -49.1643 58.0111 -50.4111 58.8193C-57.0488 63.1184 -63.9101 67.5121 -71.3647 66.7812C-78.0799 66.1105 -84.0814 61.6739 -87.4002 54.89C-94.081 41.3307 -92.9804 27.6167 -84.0556 12.9569C-76.1797 0.0597076 -63.7124 -11.4016 -52.7068 -21.4958C-51.0387 -23.0177 -49.4653 -24.4622 -47.9262 -25.898C-44.7965 -28.8042 -41.2713 -32.2779 -39.01 -36.6113C-36.4305 -41.5466 -36.0264 -46.8517 -37.8836 -51.1508C-39.4657 -54.8308 -42.7845 -57.9777 -47.7457 -60.4883C-55.5757 -64.5175 -64.3752 -66.2804 -73.1531 -65.5784C-80.8227 -64.9852 -88.9221 -62.5605 -97.2279 -58.3732C-112.12 -50.8842 -125.404 -39.1822 -137.57 -27.6521L-146.168 -19.4495L-143.477 -16.6207L-134.836 -24.8233C-122.954 -36.1384 -109.91 -47.6169 -95.4395 -54.8823C-87.5808 -58.8375 -79.9629 -61.1332 -72.8092 -61.6835C-64.7589 -62.3125 -56.6921 -60.6932 -49.5083 -57.0061C-45.3812 -54.9167 -42.6814 -52.4233 -41.469 -49.6117C-40.1019 -46.4304 -40.4802 -42.2517 -42.475 -38.4341C-44.4698 -34.6166 -47.6941 -31.4438 -50.583 -28.7526L-55.3464 -24.3762C-66.524 -14.0584 -79.232 -2.46814 -87.3916 10.9277C-91.9142 18.3565 -94.5195 25.4328 -95.3449 32.552C-96.2519 40.8353 -94.7188 49.2031 -90.9341 56.6268C-90.2036 58.1336 -89.3404 59.5723 -88.3546 60.9259C-86.4336 63.6315 -83.9634 65.9014 -81.1054 67.5874C-78.2475 69.2734 -75.066 70.3376 -71.7688 70.7105C-62.9643 71.5704 -55.1916 66.5663 -48.3217 62.1124C-47.0234 61.2526 -45.7939 60.4874 -44.5729 59.7393L-43.0855 58.8021C-38.838 56.1023 -35.8028 54.5031 -32.5012 56.1281C-29.9217 57.4264 -28.6234 60.5906 -27.3423 63.6601C-27.0414 64.3995 -26.7232 65.1562 -26.3965 65.8698C-24.4726 70.2501 -22.261 74.4983 -19.7759 78.5864C-15.2791 85.7401 -5.57181 97.6915 8.87305 97.2788C22.5011 96.8833 36.1463 91.0021 48.1923 85.8175L49.9119 85.0866L48.3729 81.5012L46.636 82.2321Z" fill="#DCE8E0"/>
<path d="M65.9391 71.3161L72.2587 68.3498C72.6099 68.1845 72.881 67.8864 73.0124 67.5212C73.1438 67.156 73.1248 66.7535 72.9595 66.4023C72.7941 66.0511 72.4961 65.78 72.1308 65.6486C71.7656 65.5172 71.3632 65.5362 71.012 65.7016L64.6923 68.6679L65.5522 70.5423L63.2049 65.5382C63.0895 65.2978 62.884 65.1124 62.633 65.0223C62.382 64.9322 62.1055 64.9446 61.8636 65.0567L61.64 65.1599C61.3996 65.2753 61.2142 65.4807 61.1241 65.7318C61.034 65.9828 61.0464 66.2592 61.1585 66.5012L61.3219 66.8537L52.0445 71.213C51.704 71.3727 51.3984 71.5979 51.1449 71.8758C50.8915 72.1537 50.6954 72.4788 50.5676 72.8325C50.4399 73.1862 50.383 73.5616 50.4004 73.9373C50.4178 74.3129 50.509 74.6815 50.6688 75.0219L51.3051 76.389L50.8236 76.6126L47.711 78.0743C47.2395 78.2978 46.8598 78.6775 46.6363 79.149C46.5002 79.4412 46.4297 79.7596 46.4297 80.0819C46.4297 80.4043 46.5002 80.7227 46.6363 81.0148L48.3043 84.5745C48.5542 85.1068 49.0052 85.5181 49.5582 85.718C50.1112 85.9179 50.721 85.8901 51.2535 85.6406L54.8561 83.921L55.5009 85.2881C55.8253 85.9741 56.4079 86.5039 57.1217 86.7617C57.8354 87.0194 58.6221 86.9843 59.3099 86.6638L67.8479 82.6571L68.5959 82.3046L68.7593 82.6485C68.8148 82.7691 68.8936 82.8775 68.9912 82.9675C69.0888 83.0575 69.2032 83.1272 69.3279 83.1728C69.4526 83.2184 69.585 83.2388 69.7176 83.2329C69.8503 83.227 69.9804 83.195 70.1006 83.1386L70.3155 83.0354C70.4354 82.9791 70.5429 82.8997 70.632 82.8018C70.7211 82.7039 70.79 82.5893 70.8347 82.4647C70.8795 82.3401 70.8992 82.2079 70.8927 82.0756C70.8862 81.9434 70.8537 81.8137 70.797 81.6941L65.9391 71.3161Z" fill="#DCE8E0"/>
<path d="M-89.696 59.1524C-90.6802 57.7978 -91.5433 56.3592 -92.2755 54.8534C-96.0558 47.4283 -97.5858 39.061 -96.6777 30.7786C-95.8179 23.6594 -93.2385 16.5917 -88.7244 9.15432C-80.5648 -4.23297 -67.874 -15.8748 -56.6792 -26.098L-51.9244 -30.4831C-49.0097 -33.1743 -45.7854 -36.3642 -43.8508 -40.1474C-41.9162 -43.9305 -41.4863 -48.1608 -42.8448 -51.3249C-44.0228 -54.1537 -46.7312 -56.6386 -50.8583 -58.7279C-58.0508 -62.4361 -66.1349 -64.0648 -74.2022 -63.4311C-81.3559 -62.8722 -88.9652 -60.5851 -96.8325 -56.63C-111.252 -49.3646 -124.278 -37.886 -136.203 -26.5365L-144.801 -18.3339L-147.493 -21.1713L-138.895 -29.3739C-126.754 -40.904 -113.461 -52.5889 -98.5865 -60.0864C-90.2635 -64.2823 -82.1641 -66.707 -74.5117 -67.3003C-65.7297 -67.9958 -56.9271 -66.2364 -49.0871 -62.2188C-44.1259 -59.6995 -40.8071 -56.5526 -39.225 -52.8812C-37.3764 -48.5821 -37.7891 -43.2771 -40.3514 -38.3418C-42.6127 -34.0083 -46.1379 -30.5346 -49.2762 -27.6285C-50.8153 -26.1926 -52.3887 -24.7395 -54.0482 -23.2262C-65.0538 -13.132 -77.5297 -1.7309 -85.397 11.2265C-94.3218 25.8863 -95.4396 39.6003 -88.776 53.1682C-85.4486 59.9435 -79.4471 64.3457 -72.7319 65.0508C-65.2859 65.7902 -58.416 61.3708 -51.7783 57.0889C-50.523 56.2807 -49.1988 55.438 -47.9521 54.6642C-47.4792 54.3805 -47.0063 54.0795 -46.5248 53.8044C-42.5525 51.2508 -37.6172 48.1124 -32.0886 50.924C-28.2108 52.8758 -26.5514 56.9427 -25.0897 60.4508C-24.7887 61.1902 -24.505 61.8867 -24.2299 62.5401C-22.3771 66.761 -20.2458 70.8542 -17.8501 74.7924C-8.39212 89.8306 2.02023 91.8168 7.38547 91.662C20.2827 91.2923 33.5496 85.5745 45.2688 80.4844L46.9884 79.7536L48.5361 83.3476L46.8165 84.0698C34.7791 89.2287 21.1167 95.1442 7.49724 95.5311C-6.94762 95.9439 -16.6549 84.0011 -21.1517 76.8388C-23.6458 72.7529 -25.8634 68.5045 -27.7895 64.1222C-28.1076 63.4085 -28.4258 62.6433 -28.7267 61.9038C-29.9906 58.8429 -31.3061 55.6702 -33.8856 54.3719C-37.1443 52.7296 -40.1794 54.3633 -44.4269 57.0717L-45.9144 58.0003C-47.1439 58.7483 -48.3648 59.5222 -49.6631 60.382C-56.5416 64.81 -64.28 69.8399 -73.1188 68.9801C-76.4185 68.6025 -79.601 67.5318 -82.4579 65.8381C-85.3147 64.1445 -87.7813 61.8661 -89.696 59.1524Z" fill="#288C50"/>
<path d="M56.1025 81.757L51.4595 83.9409C51.196 84.0656 50.9105 84.1369 50.6193 84.1508C50.3282 84.1646 50.0372 84.1207 49.763 84.0216C49.4889 83.9225 49.2371 83.7702 49.0221 83.5733C48.8071 83.3765 48.6332 83.1391 48.5104 82.8747L46.7907 79.3151C46.6571 79.0238 46.5879 78.707 46.5879 78.3865C46.5879 78.066 46.6571 77.7492 46.7907 77.4579C47.0047 76.9756 47.3867 76.5875 47.8655 76.3659L52.5085 74.182L56.1025 81.757Z" fill="#163832"/>
<path d="M68.7849 80.6306L59.5075 84.9899C58.8187 85.313 58.0299 85.3496 57.3142 85.0917C56.5984 84.8338 56.0143 84.3024 55.6899 83.6142L50.8492 73.2964C50.5287 72.6086 50.4936 71.8218 50.7513 71.1081C51.0091 70.3944 51.5389 69.8118 52.2249 69.4874L61.5109 65.1282L68.7849 80.6306Z" fill="#24663F"/>
<path d="M61.3459 64.7817L68.9566 80.9846C69.1928 81.4875 69.7919 81.7037 70.2948 81.4675L70.5205 81.3614C71.0234 81.1252 71.2396 80.5261 71.0034 80.0232L63.3927 63.8203C63.1564 63.3174 62.5573 63.1013 62.0544 63.3375L61.8287 63.4435C61.3259 63.6797 61.1097 64.2788 61.3459 64.7817Z" fill="#24663F"/>
<path d="M66.1105 69.5992L64.8638 66.9596L71.1834 63.9933C71.5335 63.8285 71.9347 63.8093 72.2989 63.9398C72.6632 64.0704 72.9608 64.3401 73.1266 64.6897C73.2884 65.0412 73.3052 65.4423 73.1732 65.8061C73.0412 66.1699 72.7711 66.4669 72.4215 66.6329L66.1105 69.5992Z" fill="#163832"/>
<path d="M76.488 71.8471L76.6196 72.1272C76.767 72.441 76.7837 72.8004 76.666 73.1264C76.5484 73.4525 76.306 73.7184 75.9923 73.8658L69.5407 76.8962L68.3015 74.258L74.7531 71.2276C75.0655 71.0808 75.4232 71.0636 75.7483 71.1797C76.0733 71.2957 76.3392 71.5357 76.488 71.8471Z" fill="#163832"/>
<path d="M68.7849 80.6306L59.5075 84.9899C58.8187 85.313 58.0299 85.3496 57.3142 85.0917C56.5984 84.8338 56.0143 84.3024 55.6899 83.6142L50.8492 73.2964C50.5287 72.6086 50.4936 71.8218 50.7513 71.1081C51.0091 70.3944 51.5389 69.8118 52.2249 69.4874C58.2436 80.2523 67.2114 77.2773 67.2114 77.2773L68.7849 80.6306Z" fill="#235347"/>
<path d="M68.8005 80.6274L61.5225 65.1327L60.7754 65.4836L68.0534 80.9783L68.8005 80.6274Z" fill="#235347"/>
<path d="M64.8722 82.4706L59.5156 84.9898C58.8268 85.313 58.038 85.3496 57.3222 85.0917C56.6065 84.8338 56.0223 84.3024 55.698 83.6141L52.2588 76.3831C55.7324 83.6829 64.8722 82.4706 64.8722 82.4706Z" fill="#163832"/>
<path d="M55.059 82.2522L51.4985 74.6721L51.016 74.8988L54.5765 82.4788L55.059 82.2522Z" fill="#235347"/>
<path d="M67.0336 69.1641L65.7944 66.5259L64.8683 66.9609L66.1075 69.5991L67.0336 69.1641Z" fill="#15172D"/>
<path d="M70.4526 76.4533L69.2134 73.8151L68.2873 74.2501L69.5265 76.8884L70.4526 76.4533Z" fill="#15172D"/>
<path d="M55.0275 82.2471L51.4249 83.9667C51.1614 84.0914 50.8758 84.1627 50.5847 84.1766C50.2935 84.1904 50.0025 84.1465 49.7284 84.0474C49.4542 83.9483 49.2024 83.796 48.9874 83.5991C48.7724 83.4023 48.5985 83.1649 48.4757 82.9005L46.7561 79.3409C46.6224 79.0496 46.5532 78.7328 46.5532 78.4123C46.5532 78.0918 46.6224 77.775 46.7561 77.4837C48.682 83.3476 54.6664 81.5764 54.6664 81.5764L55.0275 82.2471Z" fill="#0B2B26"/>
</g>
</g>
<defs>
<clipPath id="clip0_2860_14217">
<rect width="184" height="149.607" fill="white" transform="translate(0 -15)"/>
</clipPath>
</defs>
</svg>
