<svg width="360" height="192" viewBox="0 0 360 192" fill="none" xmlns="http://www.w3.org/2000/svg">
<mask id="mask0_925_1942" style="mask-type:luminance" maskUnits="userSpaceOnUse" x="0" y="0" width="360" height="192">
<path d="M360 0H0V192H360V0Z" fill="white"/>
</mask>
<g mask="url(#mask0_925_1942)">
<path d="M360 0H0V192H360V0Z" fill="#F2F9F3"/>
<mask id="mask1_925_1942" style="mask-type:luminance" maskUnits="userSpaceOnUse" x="0" y="0" width="360" height="194">
<path d="M360 0H0V193.34H360V0Z" fill="white"/>
</mask>
<g mask="url(#mask1_925_1942)">
<path d="M293.58 124.08C286.76 146.27 271.58 170.75 248.68 179.09C214.08 191.69 211.55 220.32 148.32 221.42C138.46 221.59 129.29 220.75 120.81 219.03C116.25 218.11 111.89 216.93 107.73 215.52C70 202.77 48.83 171.06 45.21 136.78C40.43 91.7 70.7 68.28 90.45 54.46C110.2 40.63 132.02 -9.72001 194.18 -11.28C203.66 -11.51 213.17 -10.78 222.46 -8.84002C243.67 -4.42002 265.62 6.81999 279.03 24.35C280.04 25.67 281 27.02 281.93 28.4C300.09 55.42 302.89 93.83 293.58 124.08Z" fill="#DAF1DE"/>
<path d="M293.874 124.401C287.054 146.591 271.874 171.071 248.974 179.411C214.374 192.011 211.844 220.641 148.614 221.741C138.754 221.911 129.584 221.071 121.104 219.351C116.544 218.431 112.184 217.251 108.024 215.841C70.2944 203.091 49.1244 171.381 45.5044 137.101C40.7244 92.0209 70.9944 68.6009 90.7444 54.7809C110.494 40.9509 132.314 -9.39909 194.474 -10.9591C203.954 -11.1891 213.464 -10.4591 222.754 -8.51909C243.964 -4.09909 265.914 7.14091 279.324 24.6709C280.334 25.9909 281.294 27.3409 282.224 28.7209C300.384 55.7409 303.184 94.1509 293.874 124.401Z" fill="#DAF1DE"/>
</g>
<path d="M52.2999 96.21L75.7299 92.58C78.2099 92.2 80.5299 93.89 80.9099 96.37L82.8099 108.67C83.1899 111.15 81.4999 113.47 79.0199 113.85L55.5899 117.48C53.1099 117.86 50.7899 116.17 50.4099 113.69L48.5099 101.39C48.1299 98.91 49.8199 96.59 52.2999 96.21Z" stroke="#235347" stroke-miterlimit="10" stroke-linecap="round" stroke-linejoin="round"/>
<path d="M82.7799 108.39L50.3699 113.41" stroke="#235347" stroke-miterlimit="10" stroke-linecap="round" stroke-linejoin="round"/>
<path d="M52.9034 107.723L58.1409 106.912L56.9735 99.3724L51.736 100.183L52.9034 107.723Z" stroke="#235347" stroke-miterlimit="10" stroke-linecap="round" stroke-linejoin="round"/>
<path d="M56.01 105.66C54.9 106.96 53.09 106.09 53.51 102.02L51.89 101.22L51.73 100.19L56.96 99.38L57.17 100.75L55.2 101.52C55.21 101.52 57.05 104.44 56.01 105.66Z" stroke="#235347" stroke-miterlimit="10" stroke-linecap="round" stroke-linejoin="round"/>
<path d="M67.3699 96.45C67.3699 96.45 63.5899 96.42 64.6699 97.18C65.7499 97.93 65.9199 98.7 64.9899 98.71C64.0699 98.72 62.5199 96.97 62.6499 98.04C62.7699 99.1 62.1099 98.42 61.9799 98.35C61.8499 98.28 60.7599 98.71 60.7099 98.59C60.6599 98.47 60.7299 98.1 57.1699 98.65" stroke="#235347" stroke-miterlimit="10" stroke-linecap="round" stroke-linejoin="round"/>
<path d="M80.0299 105.03L64.1599 107.49" stroke="#235347" stroke-miterlimit="10" stroke-linecap="round" stroke-linejoin="round"/>
<path d="M79.7499 103.23L70.3999 104.68" stroke="#235347" stroke-miterlimit="10" stroke-linecap="round" stroke-linejoin="round"/>
<path d="M79.26 100.05L66.22 102.07" stroke="#235347" stroke-miterlimit="10" stroke-linecap="round" stroke-linejoin="round"/>
<path d="M75.2098 111.93L59.2998 114.39" stroke="#235347" stroke-miterlimit="10" stroke-linecap="round" stroke-linejoin="round"/>
<path d="M308.75 151.36L276.06 135.61L302.06 80.49L337.15 96.79L308.75 151.36Z" stroke="#235347" stroke-miterlimit="10" stroke-linecap="round" stroke-linejoin="round"/>
<path d="M333.16 104.45L298.91 87.17" stroke="#235347" stroke-miterlimit="10" stroke-linecap="round" stroke-linejoin="round"/>
<path d="M299.43 93.92L315.82 102.12" stroke="#235347" stroke-miterlimit="10" stroke-linecap="round" stroke-linejoin="round"/>
<path d="M299.76 97.92L304.43 100.47" stroke="#235347" stroke-miterlimit="10" stroke-linecap="round" stroke-linejoin="round"/>
<path d="M295.45 102.3L319.97 114.47" stroke="#235347" stroke-miterlimit="10" stroke-linecap="round" stroke-linejoin="round"/>
<path d="M321.72 126.43L288.4 109.45" stroke="#235347" stroke-miterlimit="10" stroke-linecap="round" stroke-linejoin="round" stroke-dasharray="1 1"/>
<path d="M304.27 84.58L324.96 94.31" stroke="#235347" stroke-miterlimit="10" stroke-linecap="round" stroke-linejoin="round"/>
<path d="M303.67 86.48L313.2 91.31" stroke="#235347" stroke-miterlimit="10" stroke-linecap="round" stroke-linejoin="round"/>
<path d="M289.27 115.02L306.2 123.21" stroke="#235347" stroke-miterlimit="10" stroke-linecap="round" stroke-linejoin="round"/>
<path d="M287.97 119.17L293.35 121.79" stroke="#235347" stroke-miterlimit="10" stroke-linecap="round" stroke-linejoin="round"/>
<path d="M286.53 121.65L311.1 133.7" stroke="#235347" stroke-miterlimit="10" stroke-linecap="round" stroke-linejoin="round"/>
<path d="M280.14 134.17L286.84 137.34" stroke="#235347" stroke-miterlimit="10" stroke-linecap="round" stroke-linejoin="round"/>
<path d="M302.75 144.77L308.48 147.57" stroke="#235347" stroke-miterlimit="10" stroke-linecap="round" stroke-linejoin="round"/>
<path d="M308.74 143.44C308 144 307.04 144.21 306.13 144.02" stroke="#235347" stroke-miterlimit="10" stroke-linecap="round" stroke-linejoin="round"/>
<path d="M308.94 138.56C310.08 139.67 310.34 141.52 309.36 142.82" stroke="#235347" stroke-miterlimit="10" stroke-linecap="round" stroke-linejoin="round"/>
<path d="M306.54 137.68C307.14 137.63 307.73 137.76 308.26 138.05" stroke="#235347" stroke-miterlimit="10" stroke-linecap="round" stroke-linejoin="round"/>
<path d="M304.87 143.44C302.94 141.97 303.38 138.76 305.65 137.88" stroke="#235347" stroke-miterlimit="10" stroke-linecap="round" stroke-linejoin="round"/>
<path d="M300.26 138.93C300.61 139.43 300.95 139.95 301.35 140.41" stroke="#235347" stroke-miterlimit="10" stroke-linecap="round" stroke-linejoin="round"/>
<path d="M296.54 135.59C297.65 134.95 299.21 137.48 299.71 138.16" stroke="#235347" stroke-miterlimit="10" stroke-linecap="round" stroke-linejoin="round"/>
<path d="M298.44 140.96C297.31 139.59 296.17 138.22 295.04 136.85C295.31 136.62 295.58 136.38 295.84 136.15" stroke="#235347" stroke-miterlimit="10" stroke-linecap="round" stroke-linejoin="round"/>
<path d="M301.24 141.52C299.99 142.25 299.91 142.73 299.01 141.63" stroke="#235347" stroke-miterlimit="10" stroke-linecap="round" stroke-linejoin="round"/>
<path d="M202.76 150.52C205.251 150.52 207.27 148.501 207.27 146.01C207.27 143.519 205.251 141.5 202.76 141.5C200.269 141.5 198.25 143.519 198.25 146.01C198.25 148.501 200.269 150.52 202.76 150.52Z" stroke="#235347" stroke-miterlimit="10" stroke-linecap="round" stroke-linejoin="round"/>
<path d="M198.38 147.09C198.38 147.09 191.05 149.34 179.32 148.66C167.59 147.97 159.98 143.12 159.98 143.12" stroke="#235347" stroke-miterlimit="10" stroke-linecap="round" stroke-linejoin="round"/>
<path d="M156.34 141.36L155.3 140.92" stroke="#235347" stroke-miterlimit="10" stroke-linecap="round" stroke-linejoin="round"/>
<path d="M159.68 54.18C162.171 54.18 164.19 52.1608 164.19 49.67C164.19 47.1792 162.171 45.16 159.68 45.16C157.189 45.16 155.17 47.1792 155.17 49.67C155.17 52.1608 157.189 54.18 159.68 54.18Z" stroke="#235347" stroke-miterlimit="10" stroke-linecap="round" stroke-linejoin="round"/>
<path d="M163.94 48.15C163.94 48.15 171.01 45.18 182.75 44.7C194.49 44.22 202.54 48.29 202.54 48.29" stroke="#235347" stroke-miterlimit="10" stroke-linecap="round" stroke-linejoin="round"/>
<path d="M206.34 49.68L207.41 50.02" stroke="#235347" stroke-miterlimit="10" stroke-linecap="round" stroke-linejoin="round"/>
<path d="M194.22 117.34C190.59 119.98 186.12 121.55 181.29 121.55C169.15 121.55 159.31 111.71 159.31 99.57C159.31 87.43 169.15 77.59 181.29 77.59C193.43 77.59 203.27 87.43 203.27 99.57C203.27 104.27 201.8 108.62 199.29 112.19" stroke="#235347" stroke-miterlimit="10" stroke-linecap="round" stroke-linejoin="round"/>
<path d="M172.75 102.04L179.15 108.08L189.82 89.71" stroke="#235347" stroke-miterlimit="10" stroke-linecap="round" stroke-linejoin="round"/>
<path opacity="0.2" d="M252.6 130.83C252.6 130.83 251.04 149.74 253.29 154.32C255.55 158.9 256.68 190.25 255.67 194.19C255.67 194.19 262.95 196.03 265.83 193.42C268.71 190.81 273.14 193.32 280.43 190.77C287.72 188.22 282.46 131.91 282.46 131.91L282.69 111.43L270.66 100.71L252.6 130.83Z" fill="black" fill-opacity="0.7"/>
<path d="M270.8 198.87C270.9 197.94 269.44 184.66 269.42 183.21C269.35 179.25 268.23 174.07 268.23 174.07C266.67 170.08 265.45 160.87 261.28 154.97C257.11 149.07 257.11 142.12 256.42 136.22C255.72 130.32 255.9 130.83 256.07 125.6C256.24 120.36 255.89 117.29 255.55 113.82C255.2 110.34 254.51 104.23 255.55 101.38C256.59 98.54 259.31 97.88 262.29 100.72C265.27 103.57 266.49 115.27 266.49 116.72C266.49 118.16 266.49 122.68 267.53 124.41C267.53 124.41 273.43 121.39 273.43 120.56C273.43 119.73 273.25 112.36 274.12 111.96L270.65 100.72L277.25 98.38C277.25 98.38 278.84 99.68 280.43 102.2C281.08 103.24 281.74 104.48 282.29 105.93C285.07 113.3 289.53 118.44 290.45 120.56C291.37 122.68 290.45 139.52 290.45 142.65C290.45 145.78 288.43 160.22 288.48 162.64C288.52 164.38 289.7 170.93 290.89 175.94C291.35 177.87 293.99 191.87 294.38 192.98L270.8 198.87Z" fill="white"/>
<path opacity="0.5" d="M276 111.24C275.96 112.18 277.08 119.71 277.08 119.71C277.86 121.58 273.59 127.97 273.59 127.97C272.67 128.49 272.27 131.7 272.27 131.7C269.38 131.06 262.77 124.41 262.77 124.41C262.77 124.41 261.98 127.14 261.11 133.88C260.24 140.62 265.8 156.65 268.17 167.72C270.54 178.79 269.42 183.21 269.42 183.21C269.35 179.25 268.23 174.07 268.23 174.07C266.67 170.08 265.45 160.87 261.28 154.97C257.11 149.07 257.11 142.12 256.42 136.22C255.72 130.32 255.9 130.83 256.07 125.6C256.24 120.36 255.89 117.29 255.55 113.82C255.2 110.34 254.51 104.23 255.55 101.38C256.59 98.54 259.31 97.88 262.29 100.72C265.27 103.57 266.49 115.27 266.49 116.72C266.49 118.16 266.49 122.68 267.53 124.41C267.53 124.41 273.43 121.39 273.43 120.56C273.43 119.73 273.25 112.36 274.12 111.96L270.65 100.72L277.25 98.38C277.25 98.38 278.84 99.68 280.43 102.2C278.3 106.48 276.03 110.65 276 111.24Z" fill="#8EB69B"/>
<path opacity="0.5" d="M287.07 163.82C287.36 161.19 288.22 154.93 288.77 151.02C288.1 154.07 287.02 155.62 287.02 155.62C287.02 155.62 288.89 133.22 289.07 131.87C289.25 130.51 291.14 124.37 290.45 120.57C291.37 122.69 290.45 139.53 290.45 142.66C290.45 145.79 288.43 160.23 288.48 162.65C288.52 164.39 290.4 175.59 291.58 180.6C289.05 176.89 286.78 166.46 287.07 163.82Z" fill="#8EB69B"/>
<path d="M294.39 192.96C293 188.97 288.55 165.04 288.49 162.63C288.44 160.22 290.45 145.77 290.45 142.64C290.45 139.51 291.37 122.67 290.45 120.55C289.53 118.43 285.07 113.29 282.29 105.92C280.43 100.99 277.25 98.37 277.25 98.37L270.65 100.71L274.12 111.94C273.25 112.34 273.43 119.71 273.43 120.54C273.43 121.37 267.53 124.39 267.53 124.39C266.49 122.65 266.49 118.14 266.49 116.7C266.49 115.26 265.27 103.56 262.29 100.71C259.31 97.86 256.59 98.52 255.55 101.37C254.51 104.22 255.2 110.33 255.55 113.81C255.9 117.28 256.24 120.36 256.07 125.59C255.9 130.83 255.72 130.3 256.42 136.21C257.11 142.11 257.11 149.06 261.28 154.96C265.45 160.86 266.66 170.07 268.23 174.06C268.23 174.06 271.18 195.38 270.8 198.85" stroke="#235347" stroke-miterlimit="10" stroke-linecap="round" stroke-linejoin="round"/>
<path d="M267.53 124.41C267.53 124.41 268.57 129.27 270.92 131.7" stroke="#1A2E35" stroke-miterlimit="10" stroke-linecap="round" stroke-linejoin="round"/>
<path d="M268.17 126.63C268.17 126.63 272.57 127.97 274.4 128.06" stroke="#235347" stroke-miterlimit="10" stroke-linecap="round" stroke-linejoin="round"/>
<path d="M273.44 120.55C273.44 120.55 276.57 119.11 278.56 119.98" stroke="#235347" stroke-miterlimit="10" stroke-linecap="round" stroke-linejoin="round"/>
<path d="M274.13 111.96C274.13 111.96 276.56 111.74 277.08 110.52" stroke="#235347" stroke-miterlimit="10" stroke-linecap="round" stroke-linejoin="round"/>
<path d="M262.09 156.21C262.09 156.21 266.76 162 268.15 164.96" stroke="#1A2E35" stroke-miterlimit="10" stroke-linecap="round" stroke-linejoin="round"/>
<path d="M289.24 130.83C288.46 135.43 287.42 148.02 287.07 150.28" stroke="#235347" stroke-miterlimit="10" stroke-linecap="round" stroke-linejoin="round"/>
<path d="M290.74 122.15C290.87 126.32 289.85 128.49 289.85 128.49" stroke="#235347" stroke-miterlimit="10" stroke-linecap="round" stroke-linejoin="round"/>
<path d="M260.69 133C260.62 133.17 260.55 133.29 260.47 133.36C258.92 134.83 252.28 136.46 246.59 137.64C241.87 138.62 237.79 139.28 237.79 139.28C237.79 139.28 234.66 113.31 234.66 110.58C234.66 107.85 229.62 63.65 229.62 63.65L241.7 63.13L257.75 62.44C257.75 62.44 257.85 63.62 258.01 65.68C259.05 78.84 262.71 127.82 260.69 133Z" fill="#45CE7C"/>
<mask id="mask2_925_1942" style="mask-type:luminance" maskUnits="userSpaceOnUse" x="229" y="62" width="33" height="78">
<path d="M260.69 133C260.62 133.17 260.55 133.29 260.47 133.36C258.92 134.83 252.28 136.46 246.59 137.64C241.87 138.62 237.79 139.28 237.79 139.28C237.79 139.28 234.66 113.31 234.66 110.58C234.66 107.85 229.62 63.65 229.62 63.65L241.7 63.13L257.75 62.44C257.75 62.44 257.85 63.62 258.01 65.68C259.05 78.84 262.71 127.82 260.69 133Z" fill="white"/>
</mask>
<g mask="url(#mask2_925_1942)">
<path opacity="0.13" d="M260.69 133L246.59 135.9L241.27 136.99C239.83 135.57 238.72 135.55 238.72 135.55L238.3 131.58L237.61 125.08L231.54 67.88C232.87 66.97 233.51 64.98 233.51 64.98L241.63 64.69L255.7 64.18L258.02 65.68C259.05 78.84 262.71 127.82 260.69 133Z" fill="black" fill-opacity="0.7"/>
</g>
<mask id="mask3_925_1942" style="mask-type:luminance" maskUnits="userSpaceOnUse" x="229" y="62" width="33" height="78">
<path d="M260.69 133C260.62 133.17 260.55 133.29 260.47 133.36C258.92 134.83 252.28 136.46 246.59 137.64C241.87 138.62 237.79 139.28 237.79 139.28C237.79 139.28 234.66 113.31 234.66 110.58C234.66 107.85 229.62 63.65 229.62 63.65L241.7 63.13L257.75 62.44C257.75 62.44 257.85 63.62 258.01 65.68C259.05 78.84 262.71 127.82 260.69 133Z" fill="white"/>
</mask>
<g mask="url(#mask3_925_1942)">
<path d="M260.69 133L246.59 135.9L241.27 136.99C239.83 135.57 238.72 135.55 238.72 135.55L238.3 131.58L237.61 125.08L231.54 67.88C232.87 66.97 233.51 64.98 233.51 64.98L241.63 64.69L255.7 64.18L258.02 65.68C259.05 78.84 262.71 127.82 260.69 133Z" stroke="#235347" stroke-miterlimit="10" stroke-linecap="round" stroke-linejoin="round"/>
</g>
<mask id="mask4_925_1942" style="mask-type:luminance" maskUnits="userSpaceOnUse" x="229" y="62" width="33" height="78">
<path d="M260.69 133C260.62 133.17 260.55 133.29 260.47 133.36C258.92 134.83 252.28 136.46 246.59 137.64C241.87 138.62 237.79 139.28 237.79 139.28C237.79 139.28 234.66 113.31 234.66 110.58C234.66 107.85 229.62 63.65 229.62 63.65L241.7 63.13L257.75 62.44C257.75 62.44 257.85 63.62 258.01 65.68C259.05 78.84 262.71 127.82 260.69 133Z" fill="white"/>
</mask>
<g mask="url(#mask4_925_1942)">
<path d="M239.47 116.16H244.17L244.18 117.63L242.87 118.09L239.85 118.42L239.47 116.16Z" stroke="#235347" stroke-miterlimit="10" stroke-linecap="round" stroke-linejoin="round"/>
<path d="M239.76 119.19L243.22 119.07L244.1 119.5L244.06 121.45L240.02 121.49L239.76 119.19Z" stroke="#235347" stroke-miterlimit="10" stroke-linecap="round" stroke-linejoin="round"/>
<path d="M240.31 122.31L244.26 122.03L244.22 123.51L242.31 124.18L240.29 124.07L240.31 122.31Z" stroke="#235347" stroke-miterlimit="10" stroke-linecap="round" stroke-linejoin="round"/>
<path d="M240.55 124.81L243.74 124.97L244.03 125.79L243.56 126.69L240.71 126.87L240.22 125.48L240.55 124.81Z" stroke="#235347" stroke-miterlimit="10" stroke-linecap="round" stroke-linejoin="round"/>
<path d="M244.23 127.66C244.38 128.09 244.53 128.51 244.68 128.94C244.78 129.22 244.88 129.56 244.7 129.81C244.56 130.01 244.28 130.07 244.03 130.05C243.78 130.03 243.54 129.94 243.3 129.93C242.56 129.9 241.88 130.51 241.15 130.38C240.87 129.59 240.15 128.43 241.12 128.08C241.26 128.01 244.33 127.95 244.23 127.66Z" stroke="#235347" stroke-miterlimit="10" stroke-linecap="round" stroke-linejoin="round"/>
<path d="M244.21 131.26C244.28 131.56 244.33 131.87 244.36 132.18C244.4 132.58 244.36 133.05 244.03 133.28C243.85 133.4 243.63 133.42 243.42 133.44C242.57 133.52 241.73 133.59 240.88 133.67C240.86 133.67 240.82 132.37 240.86 132.23C241.01 131.66 240.9 131.71 241.44 131.48C242.31 131.11 243.33 131.69 244.21 131.26Z" stroke="#235347" stroke-miterlimit="10" stroke-linecap="round" stroke-linejoin="round"/>
</g>
<mask id="mask5_925_1942" style="mask-type:luminance" maskUnits="userSpaceOnUse" x="229" y="62" width="33" height="78">
<path d="M260.69 133C260.62 133.17 260.55 133.29 260.47 133.36C258.92 134.83 252.28 136.46 246.59 137.64C241.87 138.62 237.79 139.28 237.79 139.28C237.79 139.28 234.66 113.31 234.66 110.58C234.66 107.85 229.62 63.65 229.62 63.65L241.7 63.13L257.75 62.44C257.75 62.44 257.85 63.62 258.01 65.68C259.05 78.84 262.71 127.82 260.69 133Z" fill="white"/>
</mask>
<g mask="url(#mask5_925_1942)">
<path d="M234.99 69.18C234.99 69.18 235.95 78.43 235.99 80.26" stroke="#235347" stroke-miterlimit="10" stroke-linecap="round" stroke-linejoin="round"/>
</g>
<mask id="mask6_925_1942" style="mask-type:luminance" maskUnits="userSpaceOnUse" x="229" y="62" width="33" height="78">
<path d="M260.69 133C260.62 133.17 260.55 133.29 260.47 133.36C258.92 134.83 252.28 136.46 246.59 137.64C241.87 138.62 237.79 139.28 237.79 139.28C237.79 139.28 234.66 113.31 234.66 110.58C234.66 107.85 229.62 63.65 229.62 63.65L241.7 63.13L257.75 62.44C257.75 62.44 257.85 63.62 258.01 65.68C259.05 78.84 262.71 127.82 260.69 133Z" fill="white"/>
</mask>
<g mask="url(#mask6_925_1942)">
<path d="M237.05 69.27L237.5 74.36" stroke="#235347" stroke-miterlimit="10" stroke-linecap="round" stroke-linejoin="round"/>
</g>
<mask id="mask7_925_1942" style="mask-type:luminance" maskUnits="userSpaceOnUse" x="229" y="62" width="33" height="78">
<path d="M260.69 133C260.62 133.17 260.55 133.29 260.47 133.36C258.92 134.83 252.28 136.46 246.59 137.64C241.87 138.62 237.79 139.28 237.79 139.28C237.79 139.28 234.66 113.31 234.66 110.58C234.66 107.85 229.62 63.65 229.62 63.65L241.7 63.13L257.75 62.44C257.75 62.44 257.85 63.62 258.01 65.68C259.05 78.84 262.71 127.82 260.69 133Z" fill="white"/>
</mask>
<g mask="url(#mask7_925_1942)">
<path d="M244.2 67.34L244.78 73.31L245.59 73.39L245.32 67.4L244.2 67.34Z" stroke="#235347" stroke-miterlimit="10" stroke-linecap="round" stroke-linejoin="round"/>
</g>
<mask id="mask8_925_1942" style="mask-type:luminance" maskUnits="userSpaceOnUse" x="229" y="62" width="33" height="78">
<path d="M260.69 133C260.62 133.17 260.55 133.29 260.47 133.36C258.92 134.83 252.28 136.46 246.59 137.64C241.87 138.62 237.79 139.28 237.79 139.28C237.79 139.28 234.66 113.31 234.66 110.58C234.66 107.85 229.62 63.65 229.62 63.65L241.7 63.13L257.75 62.44C257.75 62.44 257.85 63.62 258.01 65.68C259.05 78.84 262.71 127.82 260.69 133Z" fill="white"/>
</mask>
<g mask="url(#mask8_925_1942)">
<path opacity="0.2" d="M262.86 133C262.79 133.17 262.72 133.29 262.64 133.36C261.09 134.83 254.45 136.46 248.76 137.64V133.7L240.47 131.58L239.22 131.26L239.78 125.08L241.93 101.46L243.8 64.7L243.88 63.14L259.93 62.45C259.93 62.45 260.03 63.63 260.19 65.69C261.22 78.84 264.87 127.82 262.86 133Z" fill="black" fill-opacity="0.7"/>
</g>
<path d="M260.69 133C260.62 133.17 260.55 133.29 260.47 133.36C258.92 134.83 252.28 136.46 246.59 137.64C241.87 138.62 237.79 139.28 237.79 139.28C237.79 139.28 234.66 113.31 234.66 110.58C234.66 107.85 229.62 63.65 229.62 63.65L241.7 63.13L257.75 62.44C257.75 62.44 257.85 63.62 258.01 65.68C259.05 78.84 262.71 127.82 260.69 133Z" stroke="#235347" stroke-miterlimit="10" stroke-linecap="round" stroke-linejoin="round"/>
<path d="M256.65 58.49L288.84 66.97C288.84 66.97 277.52 101.3 275.2 105.56L271.36 135.48C271.36 135.48 250.8 134.58 241.35 131.72C241.35 131.72 247.33 100.55 247.65 96.4C247.98 92.25 256.65 58.49 256.65 58.49Z" fill="#45CE7C"/>
<mask id="mask9_925_1942" style="mask-type:luminance" maskUnits="userSpaceOnUse" x="241" y="58" width="48" height="78">
<path d="M256.65 58.49L288.84 66.97C288.84 66.97 277.52 101.3 275.2 105.56L271.36 135.48C271.36 135.48 250.8 134.58 241.35 131.72C241.35 131.72 247.33 100.55 247.65 96.4C247.98 92.25 256.65 58.49 256.65 58.49Z" fill="white"/>
</mask>
<g mask="url(#mask9_925_1942)">
<path opacity="0.13" d="M249.73 94.56L256.82 64.23C256.82 64.23 259.87 62.71 261.05 61.33L284.11 67.89C284.11 67.89 284.18 70.15 285.5 71.6L273.87 105.13L271.05 129.85C271.05 129.85 267.3 130.15 266.94 132.93C266.94 132.93 254.77 133.59 246.61 131.43C246.61 131.43 245.65 128.43 244.18 126.54L249.73 94.56Z" fill="black" fill-opacity="0.7"/>
</g>
<mask id="mask10_925_1942" style="mask-type:luminance" maskUnits="userSpaceOnUse" x="241" y="58" width="48" height="78">
<path d="M256.65 58.49L288.84 66.97C288.84 66.97 277.52 101.3 275.2 105.56L271.36 135.48C271.36 135.48 250.8 134.58 241.35 131.72C241.35 131.72 247.33 100.55 247.65 96.4C247.98 92.25 256.65 58.49 256.65 58.49Z" fill="white"/>
</mask>
<g mask="url(#mask10_925_1942)">
<path d="M249.73 94.56L256.82 64.23C256.82 64.23 259.87 62.71 261.05 61.33L284.11 67.89C284.11 67.89 284.18 70.15 285.5 71.6L273.87 105.13L271.05 129.85C271.05 129.85 267.3 130.15 266.94 132.93C266.94 132.93 254.77 133.59 246.61 131.43C246.61 131.43 245.65 128.43 244.18 126.54L249.73 94.56Z" stroke="#235347" stroke-miterlimit="10" stroke-linecap="round" stroke-linejoin="round"/>
</g>
<mask id="mask11_925_1942" style="mask-type:luminance" maskUnits="userSpaceOnUse" x="241" y="58" width="48" height="78">
<path d="M256.65 58.49L288.84 66.97C288.84 66.97 277.52 101.3 275.2 105.56L271.36 135.48C271.36 135.48 250.8 134.58 241.35 131.72C241.35 131.72 247.33 100.55 247.65 96.4C247.98 92.25 256.65 58.49 256.65 58.49Z" fill="white"/>
</mask>
<g mask="url(#mask11_925_1942)">
<path d="M255.63 96.13C255.63 96.13 257.72 88.22 265.1 89.65C272.48 91.08 268.31 100.8 268.31 100.8C268.31 100.8 268.36 108.66 262.37 107.57C257.18 106.64 254.42 103.79 255.63 96.13Z" stroke="#235347" stroke-miterlimit="10" stroke-linecap="round" stroke-linejoin="round"/>
</g>
<mask id="mask12_925_1942" style="mask-type:luminance" maskUnits="userSpaceOnUse" x="241" y="58" width="48" height="78">
<path d="M256.65 58.49L288.84 66.97C288.84 66.97 277.52 101.3 275.2 105.56L271.36 135.48C271.36 135.48 250.8 134.58 241.35 131.72C241.35 131.72 247.33 100.55 247.65 96.4C247.98 92.25 256.65 58.49 256.65 58.49Z" fill="white"/>
</mask>
<g mask="url(#mask12_925_1942)">
<path d="M259.63 67.12C259.63 67.12 257.4 76.15 256.82 77.89" stroke="#235347" stroke-miterlimit="10" stroke-linecap="round" stroke-linejoin="round"/>
</g>
<mask id="mask13_925_1942" style="mask-type:luminance" maskUnits="userSpaceOnUse" x="241" y="58" width="48" height="78">
<path d="M256.65 58.49L288.84 66.97C288.84 66.97 277.52 101.3 275.2 105.56L271.36 135.48C271.36 135.48 250.8 134.58 241.35 131.72C241.35 131.72 247.33 100.55 247.65 96.4C247.98 92.25 256.65 58.49 256.65 58.49Z" fill="white"/>
</mask>
<g mask="url(#mask13_925_1942)">
<path d="M261.54 67.9L260.23 72.85" stroke="#235347" stroke-miterlimit="10" stroke-linecap="round" stroke-linejoin="round"/>
</g>
<mask id="mask14_925_1942" style="mask-type:luminance" maskUnits="userSpaceOnUse" x="241" y="58" width="48" height="78">
<path d="M256.65 58.49L288.84 66.97C288.84 66.97 277.52 101.3 275.2 105.56L271.36 135.48C271.36 135.48 250.8 134.58 241.35 131.72C241.35 131.72 247.33 100.55 247.65 96.4C247.98 92.25 256.65 58.49 256.65 58.49Z" fill="white"/>
</mask>
<g mask="url(#mask14_925_1942)">
<path d="M277.82 71.37L282.25 72.93L281.77 74.32H280.38L277.42 73.63L277.82 71.37Z" stroke="#235347" stroke-miterlimit="10" stroke-linecap="round" stroke-linejoin="round"/>
<path d="M277.08 74.32L280.38 75.36L281.07 76.06L280.38 77.88L276.56 76.58L277.08 74.32Z" stroke="#235347" stroke-miterlimit="10" stroke-linecap="round" stroke-linejoin="round"/>
<path d="M276.56 77.45L280.38 78.5L279.84 79.88H277.82L275.95 79.1L276.56 77.45Z" stroke="#235347" stroke-miterlimit="10" stroke-linecap="round" stroke-linejoin="round"/>
<path d="M275.95 79.88L278.9 81.1V81.96L278.16 82.66L275.41 81.88V80.4L275.95 79.88Z" stroke="#235347" stroke-miterlimit="10" stroke-linecap="round" stroke-linejoin="round"/>
<path d="M278.46 83.8C278.46 84.25 278.46 84.7 278.46 85.15C278.46 85.45 278.44 85.8 278.19 85.97C277.99 86.11 277.71 86.07 277.48 85.97C277.25 85.87 277.06 85.71 276.83 85.62C276.14 85.34 275.29 85.69 274.65 85.32C274.64 84.48 274.35 83.15 275.39 83.14C275.55 83.14 278.46 84.11 278.46 83.8Z" stroke="#235347" stroke-miterlimit="10" stroke-linecap="round" stroke-linejoin="round"/>
<path d="M277.25 87.19C277.22 87.5 277.16 87.81 277.08 88.11C276.98 88.5 276.79 88.93 276.4 89.04C276.19 89.1 275.98 89.04 275.77 88.99C274.95 88.78 274.12 88.57 273.3 88.36C273.28 88.35 273.68 87.11 273.76 87C274.09 86.51 273.98 86.52 274.56 86.48C275.5 86.41 276.28 87.3 277.25 87.19Z" stroke="#235347" stroke-miterlimit="10" stroke-linecap="round" stroke-linejoin="round"/>
</g>
<mask id="mask15_925_1942" style="mask-type:luminance" maskUnits="userSpaceOnUse" x="241" y="58" width="48" height="78">
<path d="M256.65 58.49L288.84 66.97C288.84 66.97 277.52 101.3 275.2 105.56L271.36 135.48C271.36 135.48 250.8 134.58 241.35 131.72C241.35 131.72 247.33 100.55 247.65 96.4C247.98 92.25 256.65 58.49 256.65 58.49Z" fill="white"/>
</mask>
<g mask="url(#mask15_925_1942)">
<path d="M268.92 68.51L267.44 74.32L268.18 74.67L269.96 68.94L268.92 68.51Z" fill="#5AE4A7" stroke="#235347" stroke-miterlimit="10" stroke-linecap="round" stroke-linejoin="round"/>
</g>
<mask id="mask16_925_1942" style="mask-type:luminance" maskUnits="userSpaceOnUse" x="241" y="58" width="48" height="78">
<path d="M256.65 58.49L288.84 66.97C288.84 66.97 277.52 101.3 275.2 105.56L271.36 135.48C271.36 135.48 250.8 134.58 241.35 131.72C241.35 131.72 247.33 100.55 247.65 96.4C247.98 92.25 256.65 58.49 256.65 58.49Z" fill="white"/>
</mask>
<g mask="url(#mask16_925_1942)">
<path d="M250.38 107.57L254.94 108.75L254.57 110.17L253.19 110.29L250.18 109.85L250.38 107.57Z" stroke="#235347" stroke-miterlimit="10" stroke-linecap="round" stroke-linejoin="round"/>
<path d="M249.9 110.57L253.27 111.33L254.03 111.96L253.49 113.84L249.57 112.87L249.9 110.57Z" stroke="#235347" stroke-miterlimit="10" stroke-linecap="round" stroke-linejoin="round"/>
<path d="M249.65 113.73L253.54 114.45L253.13 115.87L251.11 116.05L249.18 115.43L249.65 113.73Z" stroke="#235347" stroke-miterlimit="10" stroke-linecap="round" stroke-linejoin="round"/>
<path d="M249.25 116.21L252.29 117.16L252.37 118.03L251.69 118.78L248.89 118.24L248.76 116.77L249.25 116.21Z" stroke="#235347" stroke-miterlimit="10" stroke-linecap="round" stroke-linejoin="round"/>
<path d="M252.09 119.9C252.13 120.35 252.17 120.8 252.21 121.25C252.24 121.55 252.24 121.9 252.01 122.09C251.82 122.25 251.54 122.23 251.3 122.15C251.07 122.07 250.86 121.93 250.62 121.85C249.91 121.63 249.1 122.05 248.42 121.74C248.34 120.91 247.94 119.6 248.97 119.5C249.13 119.49 252.12 120.2 252.09 119.9Z" stroke="#235347" stroke-miterlimit="10" stroke-linecap="round" stroke-linejoin="round"/>
<path d="M251.17 123.37C251.16 123.68 251.13 123.99 251.08 124.3C251.01 124.7 250.86 125.15 250.49 125.28C250.29 125.35 250.07 125.32 249.86 125.28C249.02 125.14 248.18 125 247.35 124.86C247.33 124.86 247.62 123.58 247.69 123.46C247.98 122.95 247.86 122.96 248.44 122.88C249.36 122.75 250.21 123.57 251.17 123.37Z" stroke="#235347" stroke-miterlimit="10" stroke-linecap="round" stroke-linejoin="round"/>
</g>
<mask id="mask17_925_1942" style="mask-type:luminance" maskUnits="userSpaceOnUse" x="241" y="58" width="48" height="78">
<path d="M256.65 58.49L288.84 66.97C288.84 66.97 277.52 101.3 275.2 105.56L271.36 135.48C271.36 135.48 250.8 134.58 241.35 131.72C241.35 131.72 247.33 100.55 247.65 96.4C247.98 92.25 256.65 58.49 256.65 58.49Z" fill="white"/>
</mask>
<g mask="url(#mask17_925_1942)">
<path d="M269.35 127.63C269.35 127.63 270.39 115.96 270.39 114.81" stroke="#235347" stroke-miterlimit="10" stroke-linecap="round" stroke-linejoin="round"/>
</g>
<mask id="mask18_925_1942" style="mask-type:luminance" maskUnits="userSpaceOnUse" x="241" y="58" width="48" height="78">
<path d="M256.65 58.49L288.84 66.97C288.84 66.97 277.52 101.3 275.2 105.56L271.36 135.48C271.36 135.48 250.8 134.58 241.35 131.72C241.35 131.72 247.33 100.55 247.65 96.4C247.98 92.25 256.65 58.49 256.65 58.49Z" fill="white"/>
</mask>
<g mask="url(#mask18_925_1942)">
<path d="M267.27 127.11C267.27 127.11 267.7 121.05 267.79 120" stroke="#235347" stroke-miterlimit="10" stroke-linecap="round" stroke-linejoin="round"/>
</g>
<mask id="mask19_925_1942" style="mask-type:luminance" maskUnits="userSpaceOnUse" x="241" y="58" width="48" height="78">
<path d="M256.65 58.49L288.84 66.97C288.84 66.97 277.52 101.3 275.2 105.56L271.36 135.48C271.36 135.48 250.8 134.58 241.35 131.72C241.35 131.72 247.33 100.55 247.65 96.4C247.98 92.25 256.65 58.49 256.65 58.49Z" fill="white"/>
</mask>
<g mask="url(#mask19_925_1942)">
<path d="M259.12 122.74L257.72 129.63H259.12L260.15 122.74H259.12Z" stroke="#235347" stroke-miterlimit="10" stroke-linecap="round" stroke-linejoin="round"/>
</g>
<mask id="mask20_925_1942" style="mask-type:luminance" maskUnits="userSpaceOnUse" x="241" y="58" width="48" height="78">
<path d="M256.65 58.49L288.84 66.97C288.84 66.97 277.52 101.3 275.2 105.56L271.36 135.48C271.36 135.48 250.8 134.58 241.35 131.72C241.35 131.72 247.33 100.55 247.65 96.4C247.98 92.25 256.65 58.49 256.65 58.49Z" fill="white"/>
</mask>
<g mask="url(#mask20_925_1942)">
<path opacity="0.2" d="M274.87 104.84C271.82 104.2 269.11 103.27 267.1 101.92C267.1 101.92 268.56 106.11 273.72 113.25L270.94 134.94C270.94 134.94 257.52 134.35 247.38 132.62C250.5 123.84 256.15 107.2 255.49 103.91C254.58 99.38 257.79 94.04 257.79 94.04C267.93 92.21 277.77 84.55 284.52 78.06C281.09 88.23 276.39 101.84 274.87 104.84Z" fill="black" fill-opacity="0.7"/>
</g>
<path d="M256.65 58.49L288.84 66.97C288.84 66.97 277.52 101.3 275.2 105.56L271.36 135.48C271.36 135.48 250.8 134.58 241.35 131.72C241.35 131.72 247.33 100.55 247.65 96.4C247.98 92.25 256.65 58.49 256.65 58.49Z" stroke="#235347" stroke-miterlimit="10" stroke-linecap="round" stroke-linejoin="round"/>
<path d="M272.68 132.14L268.15 164.96C267.14 162.81 264.39 159.15 262.97 157.32C262.44 156.64 262.1 156.21 262.1 156.21L261.3 154.97C257.13 149.07 257.13 142.12 256.44 136.22C255.74 130.32 255.92 130.83 256.09 125.6C256.26 120.36 255.91 117.29 255.57 113.82C255.22 110.34 254.53 104.23 255.57 101.38C256.08 99.98 257 99.11 258.15 98.93C259.34 98.73 260.8 99.27 262.32 100.72C265.3 103.57 266.52 115.27 266.52 116.72C266.52 118.16 266.52 122.68 267.56 124.41C267.54 124.41 270.33 129.71 272.68 132.14Z" fill="white"/>
<path opacity="0.5" d="M260.93 152.63C261.88 153.84 262.52 155.59 262.95 157.32C262.42 156.64 262.08 156.21 262.08 156.21L261.28 154.97C257.11 149.07 257.11 142.12 256.42 136.22C255.72 130.32 255.9 130.83 256.07 125.6C256.24 120.36 255.89 117.29 255.55 113.82C255.2 110.34 254.51 104.23 255.55 101.38C256.06 99.98 256.98 99.11 258.13 98.93C260.34 99.55 262.51 101.79 263.28 105.61C264.58 112.03 258.66 106.84 257.28 112.28C255.91 117.71 257.9 119.18 258.72 120.55C259.54 121.92 258.49 124.94 257.28 129C256.08 133.07 258.33 149.3 260.93 152.63Z" fill="#8EB69B"/>
<path d="M272.68 132.14C270.34 129.71 267.54 124.41 267.54 124.41C266.5 122.67 266.5 118.16 266.5 116.72C266.5 115.28 265.28 103.58 262.3 100.73C259.32 97.88 256.6 98.54 255.56 101.39C254.52 104.24 255.21 110.35 255.56 113.83C255.91 117.3 256.25 120.38 256.08 125.61C255.91 130.85 255.73 130.32 256.43 136.23C257.12 142.13 257.12 149.08 261.29 154.98L262.09 156.22C262.09 156.22 266.76 162.01 268.15 164.97" stroke="#235347" stroke-miterlimit="10" stroke-linecap="round" stroke-linejoin="round"/>
<path d="M257.31 118.25C257.31 118.25 261.29 116.19 263.29 116.37" stroke="#235347" stroke-miterlimit="10" stroke-linecap="round" stroke-linejoin="round"/>
<path opacity="0.2" d="M102.49 63.17C102.49 63.17 92.4199 52.08 91.7199 51.39C91.0299 50.7 90.4998 38.89 88.5898 33.68C86.6898 28.47 85.7599 -2.10001 85.7599 -2.10001C85.7599 -2.10001 83.9398 -4.36001 78.8099 -3.14001C73.6699 -1.92001 68.6399 -4.18001 62.9099 -0.880006C57.0599 24.18 73.6399 63.71 79.5699 85.59L102.49 63.17Z" fill="black" fill-opacity="0.7"/>
<path d="M109.41 63.25C106.74 72.77 106.76 108.63 82.8399 96.94C70.2199 88.92 70.8599 92.69 68.0799 76.1C61.5499 65.39 63.8499 47.2 57.3599 36.34C53.5799 31.48 53.4999 27.66 51.9299 22.71C50.3599 17.76 38.9399 -0.160003 38.9399 -0.160003L66.7999 -5.87C66.9299 -5.24 73.1299 19.76 76.4999 25.04C83.7799 40.15 86.0999 39.2 87.8799 54.22C91.9399 57.49 108.22 62.65 109.41 63.25Z" fill="white"/>
<path opacity="0.5" d="M109.41 63.25C107.13 69.36 107.47 101.79 89.5001 98.96C74.9001 94.2 73.7501 86.83 74.4201 73.55C76.6501 59.57 68.4901 62.85 78.8001 51.21C79.4701 48.89 79.2301 35.87 76.3301 31.64C74.7801 29.39 70.8001 17.78 72.4801 14.72C77.8001 32.36 86.7201 37.61 87.8901 54.22C91.9401 57.49 108.22 62.65 109.41 63.25Z" fill="#8EB69B"/>
<path d="M75.3799 61.23C75.3799 61.23 73.8099 63.08 72.4199 63.08" stroke="#235347" stroke-miterlimit="10" stroke-linecap="round" stroke-linejoin="round"/>
<path d="M78.7999 67.47C78.7999 67.47 77.1099 71.06 74.4199 71.84" stroke="#235347" stroke-miterlimit="10" stroke-linecap="round" stroke-linejoin="round"/>
<path d="M75.8101 88.52C75.8101 88.52 79.6301 86.87 80.2401 84.09" stroke="#235347" stroke-miterlimit="10" stroke-linecap="round" stroke-linejoin="round"/>
<path d="M95.3399 58.39C95.3399 58.39 94.3799 59.61 94.3799 60.56" stroke="#1A2E35" stroke-miterlimit="10" stroke-linecap="round" stroke-linejoin="round"/>
<path d="M66.8099 -5.86C66.8099 -5.86 72.7699 18.8 76.5099 25.05C83.7899 40.16 86.1099 39.21 87.8899 54.23C91.9399 57.5 108.22 62.66 109.41 63.25C109.41 63.25 104.9 92.08 100.21 95.9C95.5199 99.72 86.3199 99.89 82.8399 96.94C70.2099 88.92 70.8599 92.69 68.0799 76.1C61.5599 65.4 63.8499 47.2 57.3599 36.34C53.5799 31.48 53.4999 27.66 51.9299 22.71C50.3599 17.76 38.9399 -0.16 38.9399 -0.16" stroke="#235347" stroke-miterlimit="10" stroke-linecap="round" stroke-linejoin="round"/>
<path d="M89.0099 54.26C89.0099 54.26 85.9799 54.42 85.4999 56.78C85.0199 59.14 83.2599 86.77 83.2599 86.77L80.3399 125.09C80.1899 127.03 81.6999 128.72 83.6399 128.74C83.6699 128.74 83.6999 128.74 83.7299 128.74C88.4099 129.13 117.8 131.09 118 131.1C118.2 131.11 119.84 130.75 120.54 129.96C121.24 129.17 121.4 129.14 121.54 127.3C121.67 125.46 89.0099 54.26 89.0099 54.26Z" fill="#21894B" stroke="#235347" stroke-miterlimit="10" stroke-linecap="round" stroke-linejoin="round"/>
<path d="M89.8099 54.19L124.31 56.77C125.69 56.87 126.72 58.07 126.62 59.45L121.51 127.78C121.41 129.16 120.21 130.19 118.83 130.09L84.3299 127.51C82.9499 127.41 81.9199 126.21 82.0199 124.83L87.1299 56.5C87.2299 55.12 88.4299 54.08 89.8099 54.19Z" fill="#45CE7C" stroke="#235347" stroke-miterlimit="10" stroke-linecap="round" stroke-linejoin="round"/>
<path d="M86.8298 98.53L121.29 101.11L119.4 126.3C119.35 127.01 118.73 127.54 118.02 127.49L86.1298 125.1C85.4198 125.05 84.8898 124.43 84.9398 123.72L86.8298 98.53Z" fill="#DAF1DE"/>
<path d="M103.28 110.38C104.52 110.47 105.75 110.57 106.99 110.65C107.11 110.66 107.15 110.7 107.17 110.8C107.76 113.22 108.35 115.63 108.94 118.05C108.97 118.16 108.94 118.2 108.85 118.26C106.74 119.56 104.63 120.86 102.52 122.17C102.41 122.24 102.34 122.25 102.23 122.15C100.34 120.54 98.4398 118.94 96.5398 117.33C96.4698 117.27 96.4398 117.24 96.4798 117.13C97.4098 114.88 98.3398 112.62 99.2598 110.37C99.3798 110.08 99.3798 110.08 99.6898 110.1C100.9 110.2 102.09 110.29 103.28 110.38Z" fill="#45CE7C"/>
<path d="M109.6 98.36L107.21 98.18L107.25 97.7L109.06 97.84L109.17 96.36L107.5 96.23L107.54 95.76L109.21 95.89L109.36 93.88L109.94 93.92L109.6 98.36Z" fill="#235347"/>
<path d="M105.81 98.08L106.14 93.63L106.72 93.67L106.39 98.12L105.81 98.08Z" fill="#235347"/>
<path d="M105.14 93.56L104.81 98L104.18 97.95L102.93 95.59C102.65 95.04 102.42 94.56 102.25 94.09L102.23 94.1C102.24 94.7 102.21 95.24 102.16 95.93L102.02 97.79L101.48 97.75L101.81 93.3L102.39 93.34L103.63 95.7C103.9 96.22 104.16 96.75 104.34 97.25L104.36 97.24C104.37 96.68 104.4 96.14 104.46 95.4L104.6 93.5L105.14 93.56Z" fill="#235347"/>
<path d="M98.3498 95.14L100.07 95.27L100.19 93.67L98.2598 93.53L98.2998 93.05L100.81 93.24L100.48 97.69L98.0698 97.51L98.1098 97.03L99.9398 97.17L100.05 95.77L98.3298 95.64L98.3498 95.14Z" fill="#235347"/>
<path d="M110.56 86.48C110.93 86.37 111.65 86.22 112.48 86.28C113.41 86.35 114.15 86.64 114.71 87.26C115.2 87.81 115.47 88.65 115.39 89.61C115.25 91.44 113.89 92.68 111.83 92.53C111.12 92.48 110.57 92.28 110.31 92.13L110.56 91.5C110.88 91.68 111.28 91.82 111.9 91.87C113.39 91.98 114.44 91.13 114.55 89.59C114.67 88.03 113.81 87.05 112.37 86.94C111.85 86.9 111.49 86.95 111.3 87.02L111.16 88.85L112.4 88.94L112.35 89.58L110.33 89.43L110.56 86.48Z" fill="#235347"/>
<path d="M103.9 88.86C104.06 86.76 105.42 85.73 106.99 85.84C108.62 85.96 109.65 87.31 109.51 89.17C109.36 91.12 108.07 92.3 106.43 92.18C104.75 92.05 103.76 90.68 103.9 88.86ZM108.68 89.12C108.78 87.8 108.16 86.57 106.9 86.48C105.64 86.39 104.85 87.49 104.74 88.88C104.65 90.11 105.19 91.43 106.51 91.53C107.83 91.63 108.58 90.46 108.68 89.12Z" fill="#235347"/>
<path d="M102.65 91.78L101.85 91.72L102.26 86.25L99.6396 86.05L99.6897 85.39L103.11 85.65L102.65 91.78Z" fill="#235347"/>
<path d="M98.3498 91.37C97.8598 91.42 97.2798 91.43 96.6598 91.38C95.5198 91.29 94.7298 90.96 94.2298 90.43C93.7098 89.89 93.4498 89.15 93.5198 88.16C93.5898 87.16 93.9698 86.36 94.5798 85.84C95.2098 85.31 96.1698 85.07 97.3698 85.16C97.9398 85.2 98.4098 85.26 98.7998 85.34L98.3498 91.37ZM97.9698 85.89C97.7698 85.85 97.4798 85.82 97.1698 85.79C95.4698 85.66 94.4898 86.54 94.3598 88.2C94.2398 89.65 94.9898 90.63 96.6698 90.75C97.0798 90.78 97.3898 90.77 97.5998 90.74L97.9698 85.89Z" fill="#235347"/>
<path d="M112.15 79.32C112.03 79.3 111.88 79.3 111.68 79.3C111.34 79.32 111.01 79.43 110.75 79.65C110.44 79.89 110.21 80.25 110.09 80.75H110.11C110.37 80.48 110.73 80.34 111.17 80.37C111.94 80.43 112.4 81.05 112.34 81.79C112.28 82.61 111.63 83.28 110.75 83.21C109.87 83.14 109.37 82.39 109.46 81.28C109.53 80.34 109.9 79.7 110.36 79.32C110.72 79.02 111.19 78.85 111.66 78.84C111.88 78.82 112.06 78.83 112.2 78.85L112.15 79.32ZM111.75 81.78C111.79 81.24 111.49 80.84 110.99 80.8C110.6 80.77 110.28 80.94 110.11 81.19C110.07 81.25 110.05 81.31 110.04 81.41C109.98 82.15 110.21 82.73 110.83 82.78C111.32 82.81 111.71 82.4 111.75 81.78Z" fill="#235347"/>
<path d="M108.74 79.07C108.61 79.05 108.47 79.05 108.27 79.05C107.93 79.07 107.6 79.18 107.34 79.4C107.03 79.64 106.8 80 106.68 80.5H106.7C106.96 80.23 107.32 80.09 107.76 80.12C108.53 80.18 108.99 80.8 108.93 81.54C108.87 82.36 108.22 83.03 107.34 82.96C106.46 82.89 105.96 82.14 106.05 81.03C106.12 80.09 106.49 79.45 106.95 79.07C107.31 78.77 107.78 78.6 108.25 78.59C108.47 78.57 108.65 78.58 108.79 78.6L108.74 79.07ZM108.34 81.53C108.38 80.99 108.08 80.59 107.58 80.55C107.19 80.52 106.87 80.69 106.7 80.94C106.66 81 106.64 81.06 106.63 81.16C106.57 81.9 106.8 82.48 107.42 82.53C107.91 82.56 108.3 82.15 108.34 81.53Z" fill="#235347"/>
<path d="M105.33 78.81C105.2 78.79 105.06 78.79 104.86 78.79C104.52 78.81 104.19 78.92 103.93 79.14C103.62 79.38 103.39 79.74 103.27 80.24H103.29C103.55 79.97 103.91 79.83 104.35 79.86C105.12 79.92 105.58 80.54 105.52 81.28C105.46 82.1 104.81 82.77 103.93 82.7C103.05 82.63 102.55 81.88 102.64 80.77C102.71 79.83 103.08 79.19 103.54 78.81C103.9 78.51 104.37 78.34 104.84 78.33C105.06 78.31 105.24 78.32 105.38 78.34L105.33 78.81ZM104.93 81.27C104.97 80.73 104.67 80.33 104.17 80.29C103.78 80.26 103.46 80.43 103.29 80.68C103.25 80.74 103.23 80.8 103.22 80.9C103.16 81.64 103.39 82.22 104.01 82.27C104.5 82.3 104.89 81.89 104.93 81.27Z" fill="#235347"/>
<path d="M102.54 77.36C102.36 77.75 102.13 78.45 102.02 78.93L101.36 78.95C101.56 78.4 101.91 77.68 102.12 77.38L102.54 77.36Z" fill="#235347"/>
<path d="M100.54 78.45C100.41 78.43 100.27 78.43 100.07 78.43C99.7297 78.45 99.3997 78.56 99.1297 78.78C98.8197 79.02 98.5897 79.38 98.4697 79.88H98.4897C98.7497 79.61 99.1097 79.47 99.5497 79.5C100.32 79.56 100.78 80.18 100.72 80.92C100.66 81.74 100.01 82.41 99.1297 82.34C98.2497 82.27 97.7497 81.52 97.8397 80.41C97.9097 79.47 98.2797 78.83 98.7397 78.45C99.0997 78.15 99.5697 77.98 100.04 77.97C100.26 77.95 100.44 77.96 100.58 77.98L100.54 78.45ZM100.14 80.92C100.18 80.38 99.8797 79.98 99.3797 79.94C98.9897 79.91 98.6697 80.08 98.4997 80.33C98.4597 80.39 98.4397 80.45 98.4297 80.55C98.3697 81.29 98.5997 81.87 99.2197 81.92C99.7097 81.95 100.1 81.53 100.14 80.92Z" fill="#235347"/>
<path d="M112.95 67.18H112.97L113.95 66.74L114.05 67.31L112.82 67.85L112.2 67.8L112.6 62.4L113.31 62.45L112.95 67.18Z" fill="#235347"/>
<path d="M107.81 64.82C107.95 62.98 108.71 62.02 109.9 62.11C110.96 62.19 111.6 63.23 111.49 65.02C111.35 66.84 110.49 67.77 109.39 67.69C108.26 67.61 107.68 66.54 107.81 64.82ZM110.75 64.96C110.86 63.56 110.48 62.73 109.82 62.68C109.08 62.62 108.66 63.47 108.55 64.85C108.45 66.18 108.72 67.08 109.48 67.13C110.12 67.18 110.64 66.43 110.75 64.96Z" fill="#235347"/>
<path d="M103.55 64.5C103.69 62.66 104.45 61.7 105.64 61.79C106.7 61.87 107.34 62.91 107.23 64.7C107.09 66.52 106.23 67.45 105.13 67.37C104 67.29 103.42 66.22 103.55 64.5ZM106.49 64.64C106.6 63.24 106.22 62.41 105.56 62.36C104.82 62.3 104.4 63.15 104.29 64.53C104.19 65.86 104.46 66.76 105.22 66.81C105.85 66.86 106.38 66.11 106.49 64.64Z" fill="#235347"/>
<path d="M99.1399 61.99C99.2099 61.06 99.4399 60.52 99.8499 60.19C100.28 59.86 100.85 59.78 101.36 59.82C101.84 59.86 102.37 60.01 102.67 60.25L102.44 60.8C102.19 60.61 101.78 60.42 101.28 60.39C100.53 60.33 99.9499 60.68 99.8799 61.71L99.8499 62.15H99.8699C100.11 61.79 100.58 61.53 101.2 61.57C102.2 61.64 102.85 62.55 102.77 63.66C102.67 65.02 101.72 65.72 100.79 65.65C100.09 65.6 99.7399 65.21 99.5899 64.87H99.5699L99.4999 65.47L98.8499 65.42C98.8999 65.14 98.9299 64.81 98.9699 64.33L99.1399 61.99ZM99.7299 63.89C99.7199 64.01 99.7199 64.12 99.7499 64.22C99.8499 64.66 100.17 65.04 100.71 65.08C101.41 65.13 101.95 64.58 102.02 63.65C102.08 62.86 101.72 62.17 100.94 62.11C100.48 62.08 100.05 62.33 99.8699 62.78C99.8199 62.9 99.7899 63.04 99.7799 63.17L99.7299 63.89Z" fill="#235347"/>
<path d="M109.87 98.56L107.48 98.38L107.52 97.9L109.33 98.04L109.44 96.56L107.76 96.43L107.8 95.96L109.48 96.09L109.63 94.08L110.21 94.12L109.87 98.56Z" fill="#288C50"/>
<path d="M106.07 98.27L106.4 93.82L106.98 93.86L106.65 98.31L106.07 98.27Z" fill="#288C50"/>
<path d="M105.4 93.75L105.07 98.2L104.44 98.15L103.19 95.79C102.91 95.24 102.68 94.76 102.51 94.29L102.49 94.3C102.5 94.9 102.47 95.44 102.42 96.13L102.28 97.99L101.74 97.95L102.07 93.5L102.65 93.54L103.89 95.9C104.16 96.42 104.42 96.95 104.6 97.45L104.62 97.44C104.63 96.88 104.66 96.34 104.72 95.6L104.86 93.7L105.4 93.75Z" fill="#288C50"/>
<path d="M98.6098 95.34L100.33 95.47L100.45 93.87L98.5198 93.73L98.5598 93.25L101.07 93.44L100.74 97.89L98.3298 97.71L98.3698 97.23L100.2 97.37L100.31 95.97L98.5898 95.84L98.6098 95.34Z" fill="#288C50"/>
<path d="M110.84 86.44C111.21 86.33 111.93 86.18 112.76 86.25C113.69 86.32 114.43 86.61 114.99 87.23C115.48 87.78 115.75 88.62 115.67 89.58C115.53 91.41 114.17 92.65 112.11 92.5C111.4 92.45 110.85 92.25 110.59 92.1L110.84 91.47C111.16 91.65 111.56 91.79 112.18 91.84C113.67 91.95 114.72 91.1 114.83 89.56C114.95 88 114.09 87.02 112.65 86.91C112.13 86.87 111.77 86.92 111.58 86.99L111.44 88.82L112.68 88.91L112.63 89.55L110.61 89.4L110.84 86.44Z" fill="#288C50"/>
<path d="M104.18 88.82C104.34 86.72 105.7 85.69 107.27 85.8C108.9 85.92 109.93 87.27 109.79 89.13C109.64 91.08 108.35 92.26 106.71 92.14C105.03 92.01 104.05 90.65 104.18 88.82ZM108.96 89.08C109.06 87.76 108.44 86.53 107.18 86.44C105.92 86.35 105.13 87.45 105.02 88.84C104.93 90.07 105.47 91.39 106.79 91.49C108.11 91.59 108.86 90.42 108.96 89.08Z" fill="#288C50"/>
<path d="M102.94 91.74L102.14 91.68L102.55 86.21L99.9297 86.01L99.9797 85.35L103.4 85.61L102.94 91.74Z" fill="#288C50"/>
<path d="M98.6398 91.33C98.1498 91.38 97.5698 91.39 96.9498 91.34C95.8098 91.25 95.0198 90.92 94.5198 90.39C93.9998 89.85 93.7398 89.11 93.8098 88.12C93.8798 87.12 94.2598 86.32 94.8698 85.8C95.4998 85.27 96.4598 85.03 97.6598 85.12C98.2298 85.16 98.6998 85.22 99.0898 85.3L98.6398 91.33ZM98.2498 85.85C98.0498 85.81 97.7598 85.78 97.4498 85.75C95.7498 85.62 94.7698 86.5 94.6398 88.16C94.5198 89.61 95.2698 90.59 96.9498 90.71C97.3598 90.74 97.6698 90.73 97.8798 90.7L98.2498 85.85Z" fill="#288C50"/>
<path d="M112.32 79.52C112.2 79.5 112.05 79.5 111.85 79.51C111.51 79.53 111.18 79.64 110.92 79.86C110.61 80.1 110.38 80.46 110.26 80.96H110.28C110.54 80.69 110.9 80.54 111.34 80.58C112.11 80.64 112.57 81.26 112.51 82C112.45 82.82 111.8 83.49 110.92 83.42C110.04 83.35 109.54 82.6 109.63 81.49C109.7 80.55 110.07 79.91 110.53 79.52C110.89 79.22 111.36 79.05 111.83 79.04C112.05 79.02 112.23 79.03 112.37 79.05L112.32 79.52ZM111.93 81.99C111.97 81.45 111.67 81.05 111.17 81.01C110.78 80.98 110.46 81.15 110.29 81.4C110.25 81.46 110.23 81.51 110.22 81.62C110.16 82.36 110.39 82.94 111.01 82.99C111.5 83.02 111.88 82.6 111.93 81.99Z" fill="#288C50"/>
<path d="M108.91 79.27C108.78 79.25 108.64 79.25 108.44 79.26C108.1 79.28 107.77 79.39 107.5 79.61C107.19 79.85 106.96 80.21 106.84 80.71H106.86C107.12 80.44 107.48 80.29 107.92 80.33C108.69 80.39 109.15 81.01 109.09 81.75C109.03 82.57 108.38 83.24 107.5 83.17C106.62 83.1 106.12 82.35 106.21 81.24C106.28 80.3 106.65 79.66 107.11 79.27C107.47 78.97 107.94 78.8 108.41 78.79C108.63 78.77 108.81 78.78 108.95 78.8L108.91 79.27ZM108.52 81.73C108.56 81.19 108.26 80.79 107.76 80.75C107.37 80.72 107.05 80.89 106.88 81.14C106.84 81.2 106.82 81.25 106.81 81.36C106.75 82.1 106.98 82.68 107.6 82.73C108.08 82.76 108.47 82.35 108.52 81.73Z" fill="#288C50"/>
<path d="M105.5 79.01C105.37 78.99 105.23 78.99 105.03 79C104.69 79.02 104.36 79.13 104.1 79.35C103.79 79.59 103.56 79.95 103.44 80.45H103.46C103.72 80.18 104.08 80.03 104.52 80.07C105.29 80.13 105.75 80.75 105.69 81.49C105.63 82.31 104.98 82.98 104.1 82.91C103.22 82.84 102.72 82.09 102.81 80.98C102.88 80.04 103.25 79.4 103.71 79.01C104.07 78.71 104.54 78.54 105.01 78.53C105.23 78.51 105.41 78.52 105.55 78.54L105.5 79.01ZM105.1 81.47C105.14 80.93 104.84 80.53 104.34 80.49C103.95 80.46 103.63 80.63 103.46 80.88C103.42 80.94 103.4 80.99 103.39 81.1C103.33 81.84 103.56 82.42 104.18 82.47C104.67 82.5 105.06 82.09 105.1 81.47Z" fill="#288C50"/>
<path d="M102.72 77.56C102.54 77.95 102.31 78.65 102.2 79.13L101.54 79.15C101.74 78.6 102.09 77.88 102.3 77.58L102.72 77.56Z" fill="#288C50"/>
<path d="M100.71 78.65C100.58 78.63 100.44 78.63 100.24 78.64C99.8997 78.66 99.5697 78.77 99.2997 78.99C98.9997 79.23 98.7597 79.59 98.6397 80.09H98.6597C98.9197 79.82 99.2797 79.67 99.7197 79.71C100.49 79.77 100.95 80.39 100.89 81.13C100.83 81.95 100.18 82.62 99.2997 82.55C98.4197 82.48 97.9197 81.73 98.0097 80.62C98.0797 79.68 98.4497 79.04 98.9097 78.65C99.2697 78.35 99.7397 78.18 100.21 78.17C100.43 78.15 100.61 78.16 100.75 78.18L100.71 78.65ZM100.32 81.12C100.36 80.58 100.06 80.18 99.5597 80.14C99.1697 80.11 98.8497 80.28 98.6797 80.53C98.6397 80.59 98.6197 80.64 98.6097 80.75C98.5497 81.49 98.7797 82.07 99.3997 82.12C99.8897 82.15 100.27 81.73 100.32 81.12Z" fill="#288C50"/>
<path d="M113.12 67.34H113.14L114.12 66.9L114.22 67.47L112.99 68.01L112.37 67.96L112.77 62.56L113.48 62.61L113.12 67.34Z" fill="#288C50"/>
<path d="M107.98 64.98C108.12 63.14 108.88 62.18 110.07 62.27C111.13 62.35 111.77 63.39 111.66 65.18C111.52 67 110.66 67.93 109.56 67.85C108.43 67.76 107.85 66.7 107.98 64.98ZM110.92 65.11C111.03 63.71 110.65 62.88 109.99 62.83C109.25 62.77 108.83 63.62 108.72 65C108.62 66.33 108.89 67.23 109.65 67.28C110.29 67.33 110.81 66.59 110.92 65.11Z" fill="#288C50"/>
<path d="M103.72 64.66C103.86 62.82 104.62 61.86 105.81 61.95C106.87 62.03 107.51 63.07 107.4 64.86C107.26 66.68 106.4 67.61 105.3 67.53C104.17 67.44 103.59 66.38 103.72 64.66ZM106.66 64.8C106.77 63.4 106.39 62.57 105.73 62.52C104.99 62.46 104.57 63.31 104.46 64.69C104.36 66.02 104.63 66.92 105.39 66.97C106.02 67.01 106.55 66.27 106.66 64.8Z" fill="#288C50"/>
<path d="M99.3098 62.15C99.3798 61.22 99.6098 60.68 100.02 60.35C100.45 60.02 101.02 59.94 101.53 59.98C102.01 60.02 102.54 60.17 102.84 60.41L102.61 60.96C102.36 60.77 101.95 60.58 101.45 60.55C100.7 60.49 100.12 60.84 100.05 61.87L100.02 62.31H100.04C100.28 61.95 100.75 61.69 101.37 61.73C102.37 61.8 103.02 62.71 102.94 63.82C102.84 65.18 101.89 65.88 100.96 65.81C100.26 65.76 99.9098 65.37 99.7598 65.03H99.7398L99.6698 65.63L99.0198 65.58C99.0698 65.3 99.0998 64.97 99.1398 64.49L99.3098 62.15ZM99.8998 64.05C99.8898 64.17 99.8898 64.28 99.9198 64.38C100.02 64.82 100.34 65.2 100.88 65.24C101.58 65.29 102.12 64.74 102.19 63.81C102.25 63.02 101.89 62.33 101.11 62.27C100.65 62.24 100.22 62.49 100.04 62.94C99.9898 63.06 99.9598 63.2 99.9498 63.33L99.8998 64.05Z" fill="#288C50"/>
<path opacity="0.2" d="M90.92 55.82L122.65 58.19C124.03 58.29 125.06 59.49 124.96 60.87L120.06 126.32C119.96 127.7 118.76 128.73 117.38 128.63L85.65 126.26C84.27 126.16 83.24 124.96 83.34 123.58L88.24 58.13C88.34 56.75 89.54 55.71 90.92 55.82Z" fill="black" fill-opacity="0.7"/>
<path d="M94.1299 87.12C91.8399 88.29 89.3599 87.28 88.0499 84.78C86.3199 81.65 81.6199 74.53 80.7599 72.47C80.0699 68.86 73.8499 58.98 73.1199 56.13L72.4299 20.71C73.4699 25.83 76.3399 31.65 76.3399 31.65C86.9599 38.69 86.9299 45.79 88.0599 57.18C86.9099 66.11 102.26 80.46 94.1299 87.12Z" fill="white"/>
<path opacity="0.5" d="M94.13 87.12C93.03 87.7 91.59 87.77 90.38 87.18C92.37 86.64 94.99 85.61 94.39 84.09C93.45 81.68 90.69 85.25 89.3 84.09C87.91 82.93 82.87 76.25 86.07 73.32C89.27 70.38 88.25 65.46 86.07 64.07C83.88 62.68 85.3 59.38 86 54.18C86.42 51.03 84.93 43.9 83.7 38.76C86.54 43.15 87.91 51.05 88.06 57.18C86.9 66.04 102.28 80.57 94.13 87.12Z" fill="#8EB69B"/>
<path d="M72.4199 20.71C73.4599 25.83 76.3299 31.65 76.3299 31.65C86.7799 38.61 86.8699 45.21 88.0499 57.18C86.8199 66.16 102.49 80.5 94.1299 87.13C92.2899 88.13 89.7899 87.92 88.0499 84.79C86.3099 81.66 81.6199 74.54 80.7599 72.48C80.0699 68.88 73.8599 58.99 73.1199 56.14" stroke="#235347" stroke-miterlimit="10" stroke-linecap="round" stroke-linejoin="round"/>
<path d="M83.6899 71.85C83.6899 71.85 86.5299 71.6 87.8199 70.52" stroke="#235347" stroke-miterlimit="10" stroke-linecap="round" stroke-linejoin="round"/>
<path d="M72.0699 56.85C72.0699 56.85 71.5199 58.19 74.4099 59.48" stroke="#235347" stroke-miterlimit="10" stroke-linecap="round" stroke-linejoin="round"/>
</g>
</svg>
