<svg width="30" height="9" viewBox="0 0 30 9" fill="none" xmlns="http://www.w3.org/2000/svg">
<path fill-rule="evenodd" clip-rule="evenodd" d="M2.81422 6.76143L4.06333 8.30827H0.970746L2.81422 6.76143ZM2.42133 6.28352L0.00214726 8.3129L0.00115534 3.32185L2.42133 6.28352ZM8.24208 1.25783C8.24208 1.25783 7.71101 1.00642 7.09404 1.04314C6.38869 1.08468 5.7986 1.35518 5.45937 1.71212C5.24591 1.93636 5.00993 2.20991 4.8914 2.507C4.7195 2.93677 4.6828 3.50466 4.6828 3.50466C4.6828 3.50466 4.43611 3.29528 4.12703 2.68517C3.76766 1.97553 3.66936 1.54566 3.62066 1.05525C3.57731 0.624879 3.64535 0.199335 3.64535 0.199335H8.24208V1.25783ZM8.24208 2.67276V5.81979C8.24208 5.81979 7.95631 5.92955 7.72321 5.92955C7.49011 5.92955 7.09315 5.895 6.63211 5.64152C6.17444 5.39011 5.92111 5.08594 5.72471 4.81032C5.52553 4.52997 5.36107 4.14134 5.31217 3.86129C5.27289 3.63724 5.23053 3.07842 5.45937 2.62423C5.58356 2.37774 5.91684 1.95525 6.55851 1.93123C7.08155 1.91115 7.37158 2.04867 7.63741 2.19455C8.14329 2.47273 8.24208 2.67276 8.24208 2.67276V2.67276ZM3.23681 5.59869L4.06595 4.90756C3.80171 4.57002 3.73188 4.44284 3.43649 4.00706C3.13405 3.56104 2.88072 3.07033 2.66408 2.49458C2.42959 1.87088 2.37296 1.52074 2.39884 1.05513C2.43128 0.462735 2.56598 0.199219 2.56598 0.199219H0L0.0011903 1.58216C0.0011903 1.58216 1.96538 4.04368 3.23681 5.59869V5.59869ZM5.60591 8.30597H8.24212V6.38379C8.24212 6.38379 7.58825 6.68373 7.16322 6.70795C6.91018 6.72271 6.66458 6.73246 6.26831 6.62703C5.82781 6.50999 5.57755 6.3959 5.16927 6.05915C4.84135 5.78904 4.4664 5.39017 4.4664 5.39017L3.6324 6.08553C4.01935 6.55881 4.30512 6.90334 4.3926 6.99607C4.76874 7.39356 4.92814 7.53964 5.18147 7.68129C5.43471 7.82324 6.28081 7.81556 6.28081 7.81556L5.60591 8.30597Z" fill="#E94E0F"/>
<path fill-rule="evenodd" clip-rule="evenodd" d="M28.1797 6.59615C28.1797 7.15311 28.2548 8.06858 27.6311 8.29144V8.32855H30V8.29144C29.3767 8.05637 29.4514 7.15311 29.4514 6.59615V1.93151C29.4514 1.37485 29.3767 0.45919 30 0.224123V0.187012H27.6311V0.224123C28.267 0.45919 28.1797 1.36245 28.1797 1.93151V6.59615ZM19.4934 1.93151L23.7701 7.31396C24.3185 8.01906 24.7053 8.42758 25.5904 8.72436V1.78307C25.5904 1.09027 25.5904 0.59523 26.239 0.224123V0.187012H24.0443V0.224123C24.7053 0.59523 24.6926 1.09027 24.6926 1.78307V6.47252L20.1295 0.756077L19.9547 0.508606C19.8676 0.409676 19.8178 0.347858 19.7679 0.199415V0.187012H17.9472V0.224123C18.5957 0.59523 18.5957 1.09027 18.5957 1.78307V6.72018C18.5957 7.41289 18.5957 7.90773 17.935 8.29144V8.32855H20.142V8.29144C19.481 7.90773 19.4934 7.41289 19.4934 6.72018V1.93151ZM12.5224 3.46585V1.04076L13.3576 0.953935C14.1058 0.879713 14.9036 1.32524 14.9036 2.17908C14.9036 3.19367 13.744 3.46585 12.9338 3.46585H12.5224ZM12.5224 7.33877V4.28249L13.395 4.23308C14.4922 4.17116 15.6642 4.69101 15.6642 5.89115C15.6642 7.06659 14.6296 7.53672 13.6069 7.4378L12.5224 7.33877ZM11.2504 6.58385C11.2504 7.15311 11.3253 8.05637 10.7017 8.29144V8.32855H12.759C13.6941 8.32855 14.6793 8.36576 15.5519 7.94504C16.3873 7.54903 17.0482 6.73229 17.0482 5.77952C17.0482 4.56717 16.1378 3.82466 15.0157 3.58939C15.7265 3.2802 16.2624 2.81007 16.2624 1.98103C16.2624 0.879812 15.3027 0.187012 13.657 0.187012H10.7017V0.224123C11.3379 0.45919 11.2504 1.36245 11.2504 1.91911V6.58385Z" fill="#005B6A"/>
</svg>
