<svg width="42" height="42" viewBox="0 0 42 42" fill="none" xmlns="http://www.w3.org/2000/svg">
<rect width="42" height="42" rx="8" fill="#F5F6F7"/>
<path fill-rule="evenodd" clip-rule="evenodd" d="M6 27.2371C6 27.7894 6.44772 28.2371 7 28.2371H35C35.5523 28.2371 36 27.7894 36 27.2371V15C36 14.4477 35.5523 14 35 14H7C6.44772 14 6 14.4477 6 15V27.2371Z" fill="#28166F"/>
<path fill-rule="evenodd" clip-rule="evenodd" d="M34.2256 22.5894H35.0659V15.1387H34.2019L34.2256 22.5894Z" fill="#FEFEFE"/>
<path fill-rule="evenodd" clip-rule="evenodd" d="M28.7859 18.9355L28.3423 19.6475L28.3186 15.1628H28.7859H29.1592H29.276V18.1999L29.1592 18.39L28.7859 18.9355Z" fill="#FEFEFE"/>
<path fill-rule="evenodd" clip-rule="evenodd" d="M27.4085 22.1625L27.0347 22.7321H27.4085H28.3888L28.7859 22.0912L29.1592 21.5219L33.2681 15.1387H32.0541L29.276 19.5287V19.2202L29.1592 19.3863L28.7859 19.9559L27.4085 22.1625Z" fill="#FEFEFE"/>
<path fill-rule="evenodd" clip-rule="evenodd" d="M23.4164 19.173L21.3152 22.3998L21.3384 22.922H22.039L23.4164 20.8101L27.0347 15.1628H26.0078L23.4164 19.173Z" fill="#FEFEFE"/>
<path fill-rule="evenodd" clip-rule="evenodd" d="M23.4164 22.922H22.7159L23.4164 21.8305L27.4085 15.5423L27.6417 15.1628H27.7586V20.5493L27.4085 21.0949L26.7083 22.21V18.556L23.9531 22.922H23.4164Z" fill="#FEFEFE"/>
<path fill-rule="evenodd" clip-rule="evenodd" d="M18.6302 16.0409H16.3889L16.8795 15.1628H18.6302H23.4164H25.5176L24.8869 16.0169H23.4164L18.6302 16.0409Z" fill="#FEFEFE"/>
<path fill-rule="evenodd" clip-rule="evenodd" d="M18.6302 19.2439L16.2255 22.9693H15.6422V22.3287L18.6302 17.5592L18.6772 17.4882H18.6302H15.7823L15.712 17.2034L16.0621 16.5864L18.6302 16.5627H20.3344L18.6302 19.2439Z" fill="#FEFEFE"/>
<path fill-rule="evenodd" clip-rule="evenodd" d="M18.6302 20.2407L16.9027 22.9693H18.3034L18.6302 22.4237L21.5018 17.5118H23.4164H23.8134L24.5368 16.515L23.4164 16.5391L20.9651 16.5627L18.6302 20.2407Z" fill="#FEFEFE"/>
<path fill-rule="evenodd" clip-rule="evenodd" d="M14.3579 22.8747H15.4085V15.1628H14.3113L14.3579 22.8747Z" fill="#FEFEFE"/>
<path fill-rule="evenodd" clip-rule="evenodd" d="M10.5292 18.5087L7.70421 22.8747H6.93381V22.3287L10.5292 16.7289L11.5333 15.1628H12.2101H12.677L12.2101 15.8985L10.5292 18.5087Z" fill="#FEFEFE"/>
<path fill-rule="evenodd" clip-rule="evenodd" d="M10.5292 19.505L10.2024 20.0269H10.5292H12.2101H13.7975V15.1624H13.2604L12.2101 16.8708L10.5292 19.5047V19.505ZM12.2101 19.2679L11.7432 19.2916L12.724 17.7015H12.9106V19.2679H12.2101Z" fill="#FEFEFE"/>
<path fill-rule="evenodd" clip-rule="evenodd" d="M29.1592 22.5662L33.6885 15.4236L33.6652 22.5895H32.7081V18.6034L30.2098 22.7323H29.1592H29.0428L29.1592 22.5662Z" fill="#FEFEFE"/>
<path fill-rule="evenodd" clip-rule="evenodd" d="M33.4552 25.6505H34.0389L33.4552 24.3693V24.3456L32.8948 25.6505H33.4552ZM6.39703 23.5385H8.07793C8.40473 23.5385 8.66164 23.5385 8.82504 23.5622C8.98844 23.5859 9.12854 23.6332 9.26865 23.7283C9.38546 23.7997 9.50227 23.8944 9.59544 24.0131C9.66531 24.1318 9.71225 24.2742 9.71225 24.4166C9.71225 24.5827 9.66567 24.7247 9.54886 24.8675C9.45533 25.0099 9.31523 25.1049 9.12854 25.176C9.3851 25.247 9.57179 25.342 9.71225 25.4844C9.85236 25.6505 9.92223 25.8166 9.92223 26.03C9.92223 26.1724 9.87529 26.3385 9.78213 26.4809C9.68896 26.6233 9.57215 26.742 9.43204 26.8367C9.26829 26.9318 9.0816 26.9791 8.84833 27.0028C8.73152 27.0264 8.47496 27.0264 8.07793 27.0264C8.00806 27.0264 7.91454 27.0264 7.84466 27.0264H6.39703V23.5382V23.5385ZM8.07793 24.1318C7.98441 24.1318 7.86796 24.1318 7.75114 24.1318H7.26095V24.9389H7.82137C7.9149 24.9389 8.00806 24.9389 8.07829 24.9389C8.24169 24.9152 8.3585 24.9152 8.42838 24.9152C8.56848 24.8915 8.68529 24.8679 8.77846 24.7965C8.84833 24.7251 8.89527 24.6304 8.89527 24.5117C8.89527 24.417 8.84869 24.3219 8.77846 24.2505C8.70859 24.1795 8.61506 24.1555 8.47496 24.1318C8.40473 24.1318 8.28827 24.1318 8.07793 24.1318ZM8.07793 25.5081C8.03135 25.5081 7.98441 25.5081 7.93783 25.5081H7.26095V26.4335H8.03135C8.05464 26.4335 8.05464 26.4335 8.07793 26.4335C8.35814 26.4335 8.54483 26.4335 8.61506 26.4335C8.75481 26.4099 8.84833 26.3625 8.91856 26.2911C9.01209 26.2201 9.03538 26.1014 9.03538 25.983C9.03538 25.888 9.01209 25.7929 8.9655 25.7219C8.89527 25.6505 8.80175 25.6032 8.68529 25.5555C8.59177 25.5318 8.38179 25.5081 8.07829 25.5081H8.07793ZM10.646 27.0268V23.5385H13.7509V24.1318H11.4863V24.9148H13.5875V25.4844H11.4863V26.4335H13.8208V27.0268H10.6457H10.646ZM16.2492 24.1318C16.2026 24.1318 16.1324 24.1318 16.0625 24.1318H15.4085V25.0099H16.0155C16.1091 25.0099 16.1789 25.0099 16.2488 25.0099C16.529 25.0099 16.7157 24.9862 16.7856 24.9625C16.8791 24.9389 16.9723 24.8915 17.0192 24.8201C17.0891 24.7491 17.1127 24.6777 17.1127 24.559C17.1127 24.4407 17.0658 24.3456 16.9959 24.2746C16.926 24.2032 16.8092 24.1559 16.6691 24.1322C16.6225 24.1322 16.4824 24.1322 16.2488 24.1322L16.2492 24.1318ZM16.2492 25.7689C16.1789 25.6979 16.0858 25.6501 15.9922 25.6028C15.8987 25.5791 15.7586 25.5791 15.5719 25.5791H15.4082V27.0264H14.5446V23.5382H16.2488H16.3423C16.7856 23.5382 17.1127 23.5619 17.3227 23.6329C17.5094 23.7043 17.6728 23.7989 17.7896 23.965C17.9297 24.1311 17.9763 24.3208 17.9763 24.5106C17.9763 24.7717 17.8828 24.9851 17.6961 25.1752C17.5094 25.3413 17.2525 25.4364 16.8791 25.4837C17.0658 25.5788 17.2059 25.6735 17.3227 25.7922C17.4395 25.8872 17.6029 26.077 17.8129 26.3618L18.3264 27.0261H17.2991L16.6921 26.2667C16.4821 26.0056 16.342 25.8395 16.2485 25.7681L16.2492 25.7689ZM18.5604 25.8876L19.4006 25.8403C19.4476 26.0537 19.5407 26.2198 19.7041 26.3385C19.8442 26.4335 20.0542 26.5046 20.3111 26.5046C20.5913 26.5046 20.778 26.4572 20.9181 26.3622C21.0582 26.2671 21.1281 26.1487 21.1281 26.0063C21.1281 25.935 21.1048 25.8639 21.0346 25.8162C20.988 25.7452 20.8945 25.6979 20.7311 25.6501C20.6379 25.6265 20.4043 25.5791 20.0542 25.5077C19.6106 25.4131 19.2838 25.2943 19.0968 25.1519C18.8399 24.9622 18.7234 24.7247 18.7234 24.4636C18.7234 24.2739 18.77 24.1078 18.9101 23.9654C19.0269 23.7993 19.1903 23.6806 19.4236 23.6096C19.6568 23.5145 19.937 23.4672 20.2405 23.4672C20.7777 23.4672 21.1743 23.5859 21.4313 23.7756C21.7115 23.9654 21.8516 24.2265 21.8516 24.535L21.0109 24.5587C20.9644 24.3926 20.8945 24.2502 20.7773 24.1792C20.6605 24.1081 20.4738 24.0604 20.2402 24.0604C19.9833 24.0604 19.7966 24.1081 19.6565 24.1792C19.563 24.2502 19.5167 24.3216 19.5167 24.4166C19.5167 24.4876 19.5633 24.5587 19.6565 24.6064C19.75 24.7014 20.0302 24.7724 20.4269 24.8435C20.8472 24.9385 21.1507 25.0095 21.3374 25.1046C21.5474 25.1996 21.6875 25.318 21.8043 25.4608C21.9211 25.6028 21.9677 25.7929 21.9677 26.0063C21.9677 26.2198 21.9211 26.4099 21.781 26.5759C21.6409 26.742 21.4542 26.8844 21.2206 26.9554C20.9636 27.0505 20.6601 27.0978 20.2868 27.0978C19.7729 27.0978 19.3526 27.0028 19.0728 26.7894C18.7926 26.5759 18.6292 26.2911 18.5593 25.8876H18.5604ZM24.3502 24.3689L24.3269 24.3452L23.7665 25.6501H24.3502H24.9106L24.3502 24.3689ZM24.3502 26.2434H23.5095L23.1595 27.0264H22.2722L23.9066 23.5382H24.3502H24.7938L26.4747 27.0264H25.5642L25.1904 26.2434H24.3502ZM26.9183 27.0264V23.5382H28.1789L28.9493 25.9109L29.6964 23.5382H30.9573V27.0264H30.1869V24.2739L29.3463 27.0264H28.5293L27.712 24.2739V27.0264H26.9183ZM33.4552 24.3452V23.5385H33.9221L35.603 27.0268H34.6692L34.2958 26.2438H33.4555H32.6386L32.2885 27.0268H31.378L33.0123 23.5385H33.4559V24.3452H33.4552Z" fill="#FEFEFE"/>
<path fill-rule="evenodd" clip-rule="evenodd" d="M9.91973 20.5696L13.8022 20.5496V22.8669H12.8791V21.578H10.5142L9.73555 22.8746H8.38144L9.85236 20.5729L9.91973 20.5747V20.5696Z" fill="#FEFEFE"/>
</svg>
