<svg width="42" height="42" viewBox="0 0 42 42" fill="none" xmlns="http://www.w3.org/2000/svg">
<rect width="42" height="42" rx="8" fill="#F5F6F7"/>
<path fill-rule="evenodd" clip-rule="evenodd" d="M8.86251 23.3864C8.86251 22.9985 8.86699 21.9618 8.85682 21.8341C8.86568 20.2914 7.67364 19.2032 6.92056 19.2881C6.39945 19.3306 5.96263 19.5306 5.72823 20.1057C5.5108 20.6418 5.7052 21.3547 6.42779 21.522C7.20036 21.7017 7.65163 21.8512 7.97815 22.0621C8.37823 22.3203 8.70485 22.8136 8.71352 23.387" fill="#005FAF"/>
<path fill-rule="evenodd" clip-rule="evenodd" d="M8.53959 23.387C8.54211 22.8898 8.2472 22.4502 7.86175 22.2139C7.51985 22.0051 7.06084 21.868 6.32035 21.6912C6.09145 21.6362 5.85201 21.5138 5.77789 21.3578C5.58181 21.5437 5.54619 21.9616 5.58069 22.206C5.62078 22.4885 5.97182 22.9544 6.50039 22.9726C6.82318 22.9848 7.23128 22.9073 7.42698 22.8681C7.7646 22.7995 8.29876 22.9985 8.38379 23.3864" fill="#005FAF"/>
<path fill-rule="evenodd" clip-rule="evenodd" d="M9.13552 16.8838C8.23923 16.8838 7.46517 17.4399 7.46787 18.4022C7.47067 19.2114 8.16231 19.6446 8.4092 19.9541C8.78215 20.4203 8.98401 20.9722 9.0049 21.8167C9.02131 22.4888 9.02047 23.1525 9.0241 23.3877H9.22186C9.2185 23.1416 9.20955 22.4371 9.21972 21.7959C9.23314 20.9512 9.44227 20.4203 9.81541 19.9541C10.0644 19.6446 10.7554 19.2114 10.7569 18.4022C10.7604 17.4399 9.9866 16.8838 9.09123 16.8838" fill="#005FAF"/>
<path fill-rule="evenodd" clip-rule="evenodd" d="M9.363 23.3864C9.363 22.9985 9.35833 21.9618 9.36831 21.8341C9.35955 20.2914 10.5508 19.2032 11.3046 19.2881C11.8257 19.3306 12.2619 19.5306 12.4971 20.1057C12.7142 20.6418 12.5188 21.3547 11.7972 21.522C11.024 21.7017 10.5734 21.8512 10.2461 22.0621C9.84643 22.3203 9.54266 22.8136 9.53334 23.387" fill="#005FAF"/>
<path fill-rule="evenodd" clip-rule="evenodd" d="M9.68569 23.387C9.68289 22.8898 9.97771 22.4502 10.362 22.2139C10.7054 22.0051 11.1649 21.868 11.9047 21.6912C12.1341 21.6362 12.3733 21.5138 12.4461 21.3578C12.6431 21.5437 12.6787 21.9616 12.6441 22.206C12.6033 22.4885 12.2531 22.9544 11.7255 22.9726C11.4028 22.9848 10.9925 22.9073 10.7976 22.8681C10.4613 22.7995 9.92568 22.9985 9.84028 23.3864" fill="#005FAF"/>
<path fill-rule="evenodd" clip-rule="evenodd" d="M9.96209 24.9919L9.8475 24.2046L10.1243 24.1651C10.1916 24.1565 10.2737 24.1675 10.3065 24.2072C10.3428 24.2487 10.3539 24.283 10.3609 24.3374C10.3714 24.4048 10.3507 24.4825 10.2702 24.5213V24.5236C10.36 24.5236 10.4144 24.5844 10.4302 24.6871C10.4325 24.7088 10.4394 24.7611 10.4325 24.8048C10.4142 24.9088 10.3484 24.9423 10.2371 24.9569L9.96209 24.9919ZM10.1403 24.8511C10.1731 24.8466 10.2064 24.845 10.2324 24.8293C10.2723 24.8049 10.2687 24.7526 10.2631 24.7136C10.2493 24.6283 10.2256 24.5957 10.1293 24.6091L10.0687 24.6179L10.1071 24.8554L10.1403 24.8511ZM10.0824 24.4872C10.119 24.4817 10.1686 24.4775 10.1893 24.4448C10.2002 24.4229 10.214 24.4055 10.2049 24.3569C10.1936 24.2994 10.1734 24.2636 10.0955 24.2775L10.0231 24.2884L10.0517 24.4902L10.0824 24.4872Z" fill="#005FAF"/>
<path fill-rule="evenodd" clip-rule="evenodd" d="M11.1613 24.5185C11.1634 24.5331 11.1659 24.5494 11.1669 24.5641C11.1892 24.7076 11.1613 24.8266 10.9897 24.8593C10.736 24.9052 10.6874 24.757 10.6429 24.5494L10.6191 24.437C10.5841 24.2385 10.5691 24.0881 10.8164 24.0417C10.9558 24.0179 11.0479 24.0701 11.0862 24.2006C11.0922 24.2201 11.0996 24.2393 11.1024 24.259L10.9507 24.2884C10.9332 24.2393 10.91 24.1517 10.8417 24.159C10.7192 24.173 10.7597 24.3163 10.7723 24.3763L10.8179 24.5919C10.8316 24.6571 10.8588 24.7612 10.9648 24.7411C11.0509 24.7249 11.0133 24.5987 11.0057 24.547" fill="#005FAF"/>
<path fill-rule="evenodd" clip-rule="evenodd" d="M11.4047 24.7568L11.3523 23.9419L11.556 23.8834L11.9833 24.5921L11.8229 24.6373L11.7216 24.4572L11.5434 24.5075L11.5665 24.7123L11.4047 24.7568ZM11.5285 24.3759L11.6573 24.3408L11.4863 24.0111L11.5285 24.3759Z" fill="#005FAF"/>
<path fill-rule="evenodd" clip-rule="evenodd" d="M6.37064 24.1407C6.43441 23.9486 6.49147 23.8071 6.73492 23.87C6.86517 23.9043 6.94591 23.9582 6.94209 24.1006C6.94144 24.1323 6.93034 24.1646 6.92307 24.1959L6.77156 24.1566C6.79142 24.0779 6.80401 24.0155 6.70107 23.9857C6.5821 23.955 6.5531 24.0908 6.53669 24.1494L6.47506 24.3629C6.45548 24.4263 6.43199 24.5312 6.53669 24.5583C6.62322 24.5801 6.67562 24.5003 6.70695 24.3836L6.60103 24.3571L6.63767 24.2336L6.8869 24.309L6.76858 24.7207L6.65389 24.6914L6.67972 24.6043H6.67646C6.62359 24.6756 6.55926 24.683 6.50285 24.6728C6.25363 24.6094 6.27964 24.4562 6.33912 24.2514" fill="#005FAF"/>
<path fill-rule="evenodd" clip-rule="evenodd" d="M7.29823 24.4883L7.22318 24.8232L7.05423 24.7889L7.23427 24.0068L7.52228 24.068C7.69086 24.1023 7.74176 24.1728 7.7179 24.3183C7.70428 24.4017 7.66055 24.4915 7.5538 24.4843L7.55268 24.4829C7.64293 24.5126 7.65058 24.5555 7.63482 24.6295C7.62801 24.661 7.58112 24.8521 7.61347 24.883L7.61459 24.9065L7.43977 24.8635C7.4325 24.8106 7.4573 24.7153 7.46709 24.6625C7.47688 24.6159 7.49263 24.5501 7.44229 24.5254C7.40294 24.5056 7.38821 24.5065 7.34364 24.497L7.29823 24.4883ZM7.32705 24.3672L7.44079 24.396C7.50988 24.4055 7.5483 24.3718 7.56191 24.2932C7.57422 24.2212 7.55827 24.1931 7.49627 24.1792L7.37432 24.1558L7.32705 24.3672Z" fill="#005FAF"/>
<path fill-rule="evenodd" clip-rule="evenodd" d="M8.3819 24.1816L8.54899 24.1998L8.47701 24.7497C8.44204 24.9241 8.37044 25.0002 8.16662 24.9764C7.95926 24.9517 7.91003 24.8629 7.92252 24.6872L7.99506 24.1378L8.16345 24.1559L8.09119 24.693C8.08345 24.7513 8.06919 24.8377 8.17939 24.8483C8.2772 24.8553 8.29939 24.7942 8.31048 24.7184" fill="#005FAF"/>
<path fill-rule="evenodd" clip-rule="evenodd" d="M8.73312 25.0064L8.78347 24.2202L9.1044 24.2333C9.25619 24.2404 9.29581 24.3569 9.29115 24.4681C9.28668 24.5358 9.2643 24.6113 9.20164 24.6523C9.15027 24.6871 9.08416 24.6954 9.023 24.6926L8.91839 24.6871L8.8975 25.0166L8.73312 25.0064ZM8.92305 24.5672L9.00808 24.5717C9.07717 24.574 9.12295 24.5483 9.12892 24.4529C9.13237 24.3613 9.09545 24.3457 9.00594 24.342L8.93862 24.3398L8.92305 24.5672Z" fill="#005FAF"/>
<path fill-rule="evenodd" clip-rule="evenodd" d="M31.3742 17.6437L30.0984 19.8227C29.6168 19.4547 29.0288 19.184 28.2786 19.184C26.503 19.184 25.7817 20.4292 25.7817 21.3064C25.7817 21.9576 26.2349 22.9183 27.8147 22.9183C28.4779 22.9183 29.4205 22.4843 29.6919 22.2867L28.4301 24.8147C27.8286 24.9276 27.6309 24.9976 27.1218 25.0125C24.2941 25.0919 23.1516 23.4574 23.1523 21.7873C23.1543 19.5795 25.2404 16.8944 28.6989 16.8944C28.9107 16.8944 29.1699 16.9634 29.3915 17.0399L29.6156 16.7703" fill="#005FAF"/>
<path fill-rule="evenodd" clip-rule="evenodd" d="M36.6387 16.8386L37 24.7581H34.3112L34.3097 23.3999H32.4762L31.8729 24.7581H28.9568L32.0054 19.1029L31.318 19.0987L32.6241 16.8386H36.6387ZM34.2922 19.2614L33.2557 21.5649H34.3235L34.2922 19.2614Z" fill="#005FAF"/>
<path fill-rule="evenodd" clip-rule="evenodd" d="M21.4549 16.8387C22.7864 16.8457 23.5389 17.5258 23.5389 18.5081C23.5389 19.4138 22.7453 20.2154 21.8742 20.6299C22.771 20.9402 22.8486 21.7017 22.8486 22.2404C22.8486 23.542 21.4607 24.7581 19.6564 24.7581H15.7215L17.2564 19.1818L16.6259 19.1783L17.9148 16.8387C17.9148 16.8387 20.3721 16.8317 21.4549 16.8387ZM20.1485 20.0496C20.424 20.0496 20.9103 19.984 21.0319 19.4824C21.1651 18.9379 20.7087 18.9232 20.4898 18.9232L19.7075 18.9201L19.4347 20.0496H20.1485ZM19.0426 21.449L18.6824 22.7506H19.6036C19.9659 22.7506 20.4598 22.5813 20.5808 22.1577C20.7003 21.733 20.3551 21.449 19.994 21.449H19.0426Z" fill="#005FAF"/>
<path fill-rule="evenodd" clip-rule="evenodd" d="M9.17096 25.7312C7.80848 25.7312 6.40842 25.4155 5.01014 24.791L4.97583 24.7752L4.95942 24.7423C4.33193 23.496 4 22.1329 4 20.7992C4 19.4675 4.31831 18.1627 4.94618 16.9181L4.96352 16.885L4.99848 16.8685C6.29197 16.292 7.68336 16 9.13553 16C10.4881 16 11.9329 16.325 13.3126 16.9418L13.3479 16.9566L13.3643 16.9903C14.0038 18.2596 14.341 19.6224 14.341 20.934C14.341 22.2404 14.0172 23.5464 13.3769 24.8149L13.3601 24.8481L13.3245 24.8636C12.0507 25.4309 10.6144 25.7312 9.17096 25.7312ZM5.13954 24.6201C6.49783 25.2214 7.85267 25.5249 9.17096 25.5249C10.5688 25.5249 11.9589 25.2374 13.1964 24.6925C13.8111 23.4633 14.1227 22.1982 14.1227 20.9339C14.1227 19.6644 13.7975 18.344 13.1823 17.112C11.8433 16.5197 10.445 16.2057 9.13553 16.2057C7.72969 16.2057 6.38212 16.4862 5.1278 17.0398C4.52567 18.2461 4.21919 19.5102 4.21919 20.7992C4.21919 22.0905 4.5376 23.4115 5.13954 24.6201Z" fill="#005FAF"/>
</svg>
