<svg width="42" height="42" viewBox="0 0 42 42" fill="none" xmlns="http://www.w3.org/2000/svg">
<rect width="42" height="42" rx="8" fill="#F5F6F7"/>
<path fill-rule="evenodd" clip-rule="evenodd" d="M8.81415 23.5376L10.0633 25.0757H6.97068L8.81415 23.5376ZM8.42136 23.0625L6.00218 25.0805L6.00118 20.1174L8.42136 23.0625ZM14.2421 18.0649C14.2421 18.0649 13.711 17.8149 13.0941 17.8514C12.3887 17.8928 11.7986 18.1617 11.4594 18.5167C11.2459 18.7397 11.01 19.0117 10.8914 19.3071C10.7195 19.7345 10.6828 20.2992 10.6828 20.2992C10.6828 20.2992 10.4361 20.091 10.1271 19.4843C9.76769 18.7786 9.6694 18.3511 9.62069 17.8635C9.57735 17.4355 9.64539 17.0124 9.64539 17.0124H14.2421V18.0649ZM14.2421 19.4719V22.6013C14.2421 22.6013 13.9563 22.7105 13.7232 22.7105C13.4901 22.7105 13.0932 22.6761 12.6321 22.4241C12.1745 22.1741 11.9211 21.8716 11.7247 21.5975C11.5255 21.3187 11.3611 20.9323 11.3122 20.6538C11.2729 20.431 11.2306 19.8753 11.4594 19.4237C11.5836 19.1786 11.9169 18.7585 12.5585 18.7346C13.0816 18.7146 13.3716 18.8513 13.6374 18.9964C14.1433 19.273 14.2421 19.4719 14.2421 19.4719ZM9.23681 22.3815L10.066 21.6943C9.80171 21.3586 9.73188 21.2322 9.43649 20.7988C9.13405 20.3553 8.88072 19.8673 8.66408 19.2948C8.42959 18.6746 8.37296 18.3264 8.39885 17.8634C8.43128 17.2744 8.56598 17.0123 8.56598 17.0123H6L6.00119 18.3875C6.00119 18.3875 7.96538 20.8352 9.23681 22.3815ZM11.6059 25.0735H14.2421V23.1621C14.2421 23.1621 13.5882 23.4604 13.1632 23.4845C12.9102 23.4991 12.6646 23.5088 12.2683 23.404C11.8278 23.2876 11.5775 23.1742 11.1693 22.8393C10.8413 22.5707 10.4664 22.1741 10.4664 22.1741L9.63239 22.8655C10.0193 23.3362 10.3051 23.6788 10.3926 23.771C10.7687 24.1662 10.9281 24.3115 11.1815 24.4523C11.4347 24.5935 12.2808 24.5859 12.2808 24.5859L11.6059 25.0735Z" fill="#E94E0F"/>
<path fill-rule="evenodd" clip-rule="evenodd" d="M34.1797 23.3732C34.1797 23.927 34.2548 24.8374 33.6311 25.059V25.0959H36V25.059C35.3767 24.8252 35.4515 23.927 35.4515 23.3732V18.7347C35.4515 18.1812 35.3767 17.2707 36 17.0369V17H33.6311V17.0369C34.267 17.2707 34.1797 18.1688 34.1797 18.7347V23.3732ZM25.4934 18.7347L29.7701 24.087C30.3185 24.7881 30.7053 25.1944 31.5904 25.4895V18.5871C31.5904 17.8982 31.5904 17.4059 32.239 17.0369V17H30.0443V17.0369C30.7053 17.4059 30.6926 17.8982 30.6926 18.5871V23.2503L26.1295 17.5659L25.9547 17.3198C25.8676 17.2214 25.8178 17.1599 25.7679 17.0123V17H23.9472V17.0369C24.5957 17.4059 24.5957 17.8982 24.5957 18.5871V23.4965C24.5957 24.1854 24.5957 24.6774 23.935 25.059V25.0959H26.142V25.059C25.481 24.6774 25.4934 24.1854 25.4934 23.4965V18.7347ZM18.5224 20.2606V17.8491L19.3576 17.7627C20.1058 17.6889 20.9035 18.132 20.9035 18.981C20.9035 19.9899 19.744 20.2606 18.9338 20.2606H18.5224ZM18.5224 24.1116V21.0724L19.3949 21.0233C20.4922 20.9617 21.6641 21.4787 21.6641 22.6721C21.6641 23.8409 20.6296 24.3084 19.6069 24.2101L18.5224 24.1116ZM17.2504 23.361C17.2504 23.927 17.3253 24.8252 16.7017 25.059V25.0959H18.7591C19.6941 25.0959 20.6794 25.1329 21.552 24.7145C22.3874 24.3207 23.0483 23.5086 23.0483 22.5612C23.0483 21.3556 22.1379 20.6173 21.0158 20.3833C21.7266 20.0758 22.2625 19.6083 22.2625 18.784C22.2625 17.6889 21.3027 17 19.657 17H16.7017V17.0369C17.3379 17.2707 17.2504 18.1688 17.2504 18.7224V23.361Z" fill="#005B6A"/>
</svg>
