<svg width="150" height="100" viewBox="0 0 150 100" fill="none" xmlns="http://www.w3.org/2000/svg">
<path d="M26.1354 48.777C26.0391 48.777 25.9642 48.7021 25.9535 48.6057L25.001 37.2192C24.9903 37.1228 25.0652 37.0265 25.1615 37.0265C25.2579 37.0158 25.3542 37.0907 25.3542 37.1871L26.3066 48.5736C26.3173 48.67 26.2424 48.7663 26.1461 48.7663C26.1461 48.777 26.1461 48.777 26.1354 48.777Z" fill="#268C44"/>
<path d="M26.7026 55.5402C26.6063 55.5402 26.5314 55.4653 26.5207 55.369L26.2317 51.923C26.221 51.8267 26.2959 51.7304 26.3923 51.7304C26.4886 51.7197 26.5849 51.7946 26.5849 51.8909L26.8738 55.3369C26.8845 55.4332 26.8096 55.5295 26.7133 55.5295C26.7133 55.5402 26.7026 55.5402 26.7026 55.5402Z" fill="#268C44"/>
<path d="M122.643 87.9449H34.5898C32.3425 87.9449 30.352 86.1043 30.17 83.8569L25.2151 24.2486C25.0332 22.0012 26.7134 20.1605 28.9607 20.1605H117.014C119.261 20.1605 121.252 22.0012 121.434 24.2486L126.389 83.8569C126.571 86.1043 124.891 87.9449 122.643 87.9449Z" fill="#E8F7EE" stroke="#268C44" stroke-width="1.21784" stroke-miterlimit="10"/>
<path d="M122.643 88.1162H34.5899C32.2463 88.1162 30.1915 86.2113 29.9989 83.8783L25.044 24.27C24.9477 23.1356 25.3116 22.0654 26.05 21.2521C26.7884 20.4495 27.8265 20 28.9608 20H117.014C119.358 20 121.413 21.9049 121.605 24.2379L126.56 83.8462C126.656 84.9806 126.293 86.0508 125.554 86.8641C124.805 87.6774 123.778 88.1162 122.643 88.1162ZM28.9501 20.3425C27.9121 20.3425 26.9703 20.7491 26.2961 21.4875C25.6112 22.2259 25.2902 23.2105 25.3758 24.2486L30.3307 83.8569C30.5126 86.0186 32.4175 87.7844 34.5899 87.7844H122.643C123.681 87.7844 124.623 87.3778 125.297 86.6393C125.982 85.9009 126.303 84.9164 126.218 83.8783L121.263 24.27C121.081 22.1082 119.176 20.3425 117.004 20.3425H28.9501Z" fill="#268C44"/>
<path d="M117.003 20.1715H28.95C26.7026 20.1715 25.0225 22.0122 25.2044 24.2595H121.423C121.241 22.0122 119.251 20.1715 117.003 20.1715Z" fill="#28AF60"/>
<path d="M31.0153 22.2153C31.0581 22.6968 30.6943 23.0928 30.2127 23.0928C29.7311 23.0928 29.3031 22.6968 29.2603 22.2153C29.2175 21.7337 29.5813 21.3377 30.0629 21.3377C30.5445 21.327 30.9725 21.723 31.0153 22.2153Z" fill="white"/>
<path d="M34.5899 22.2152C34.6327 22.6968 34.2688 23.0927 33.7872 23.0927C33.3057 23.0927 32.8669 22.6968 32.8348 22.2152C32.8027 21.7336 33.1558 21.3376 33.6374 21.3376C34.119 21.3376 34.5471 21.7229 34.5899 22.2152Z" fill="white"/>
<path d="M38.1748 22.2152C38.2176 22.6968 37.8537 23.0927 37.3721 23.0927C36.8906 23.0927 36.4625 22.6968 36.4197 22.2152C36.3769 21.7336 36.7407 21.3376 37.2223 21.3376C37.7039 21.3376 38.132 21.7229 38.1748 22.2152Z" fill="white"/>
<path d="M115.002 80.1329H40.9252C39.1381 80.1329 37.5542 78.6668 37.4044 76.8903L33.9477 35.3143C33.7979 33.5271 35.1356 32.0717 36.9228 32.0717H110.989C112.776 32.0717 114.36 33.5378 114.51 35.3143L117.967 76.8903C118.127 78.6775 116.789 80.1329 115.002 80.1329Z" fill="#F5FFF7"/>
<path d="M111.058 34.608L80.3123 71.6251C78.9211 73.2946 79.7986 75.8523 81.9282 76.3017L131.798 87.089C134.067 87.5813 135.961 85.334 135.105 83.1829L115.981 35.3785C115.157 33.3452 112.46 32.9171 111.058 34.608Z" fill="#FDECBF"/>
<path d="M114.636 32.5255L93.5857 63.0895C90.5785 67.4665 93.2432 73.4701 98.5084 74.1764L137.206 79.3239C142.845 80.0731 147.041 74.2299 144.526 69.1252L126.879 33.4137C124.46 28.5338 117.718 28.0522 114.636 32.5255Z" fill="#F7951D"/>
<path d="M98.1055 71.5598C96.6715 71.3672 95.4301 70.4682 94.7666 69.1412C94.1138 67.8142 94.1887 66.3481 94.9699 65.2137L116.48 33.9862C117.262 32.8518 118.578 32.2954 120.012 32.4773C121.446 32.6699 122.687 33.5689 123.351 34.8959L141.372 71.3779C142.025 72.7049 141.95 74.171 141.169 75.3054C140.388 76.4398 139.072 76.9963 137.638 76.8143L98.1055 71.5598Z" fill="white"/>
<path d="M119.374 43.4686L121.889 43.8004C123.505 44.0144 124.746 45.4805 124.66 47.0858L124.489 50.3605C124.478 50.4782 124.468 50.5959 124.446 50.7136L122.659 60.5913C122.402 62.0146 121.097 62.935 119.631 62.7423C118.154 62.5497 116.966 61.2869 116.859 59.8101L116.131 49.6114C116.12 49.4937 116.12 49.3759 116.131 49.2582L116.302 45.9728C116.377 44.3675 117.758 43.2546 119.374 43.4686ZM119.17 65.4606L119.855 65.5569C121.3 65.7495 122.413 67.0658 122.338 68.4891C122.263 69.9232 121.032 70.9184 119.588 70.7258L118.903 70.6295C117.458 70.4368 116.345 69.1205 116.42 67.6972C116.495 66.2632 117.726 65.2679 119.17 65.4606Z" fill="#F7951D"/>
<rect x="5.5" y="10.5" width="16.5749" height="16.5749" rx="8.28746" fill="#FDE8CF"/>
<rect x="5.5" y="10.5" width="16.5749" height="16.5749" rx="8.28746" stroke="#F7941D" stroke-dasharray="4 4"/>
<path d="M11.9458 16.8771C12.1255 16.3664 12.48 15.9358 12.9468 15.6615C13.4135 15.3872 13.9623 15.2869 14.4958 15.3785C15.0294 15.47 15.5134 15.7474 15.862 16.1615C16.2107 16.5757 16.4015 17.0999 16.4007 17.6413C16.4007 19.1695 14.1083 19.9336 14.1083 19.9336" stroke="#F7941D" stroke-width="1.5" stroke-linecap="round" stroke-linejoin="round"/>
<path d="M14.1694 22.9902H14.176" stroke="#F7941D" stroke-width="1.5" stroke-linecap="round" stroke-linejoin="round"/>
<rect x="38.2901" y="40.4632" width="53.2" height="9.30557" rx="4.65279" transform="rotate(-1.06 38.2901 40.4632)" fill="white"/>
<rect x="38.2901" y="40.4632" width="53.2" height="9.30557" rx="4.65279" transform="rotate(-1.06 38.2901 40.4632)" stroke="#EB5757" stroke-width="0.8"/>
<circle cx="45.7249" cy="44.9793" r="1.75" transform="rotate(-1.06 45.7249 44.9793)" fill="#EB5757"/>
<circle cx="51.224" cy="44.8775" r="1.75" transform="rotate(-1.06 51.224 44.8775)" fill="#EB5757"/>
<circle cx="56.723" cy="44.7757" r="1.75" transform="rotate(-1.06 56.723 44.7757)" fill="#EB5757"/>
<circle cx="62.222" cy="44.674" r="1.75" transform="rotate(-1.06 62.222 44.674)" fill="#EB5757"/>
<circle cx="67.7213" cy="44.5722" r="1.75" transform="rotate(-1.06 67.7213 44.5722)" fill="#EB5757"/>
<circle cx="73.2203" cy="44.4705" r="1.75" transform="rotate(-1.06 73.2203 44.4705)" fill="#EB5757"/>
<circle cx="78.7193" cy="44.3687" r="1.75" transform="rotate(-1.06 78.7193 44.3687)" fill="#EB5757"/>
<circle cx="84.2184" cy="44.267" r="1.75" transform="rotate(-1.06 84.2184 44.267)" fill="#EB5757"/>
<path d="M58.4606 61.589C57.9444 62.0943 57.3182 62.5007 56.6262 62.7533V71.8374H53.3309V69.6405H50.0356V66.3452H53.3309V62.7424C51.4197 62.0613 50.0356 60.2599 50.0356 58.107C50.0356 55.3609 52.2325 53.164 54.9786 53.164H55.0884C54.5722 54.2075 54.3415 55.3609 54.4623 56.5472C53.8142 56.7669 53.3309 57.382 53.3309 58.107C53.3309 59.0187 54.0669 59.7546 54.9786 59.7546C55.2312 59.7546 55.4729 59.6887 55.6926 59.5899C56.3956 60.5125 57.3622 61.2046 58.4606 61.589ZM67.314 67.927L64.2823 69.2011L63.4255 67.18L60.3939 68.4652L59.1087 65.4225L62.1514 64.1484L60.7563 60.8531C58.7242 60.9409 56.7471 59.8095 55.9123 57.8324C54.8578 55.317 56.0441 52.4171 58.5595 51.3516C58.8231 51.2418 59.1087 51.1649 59.3723 51.099C58.6474 49.7259 57.1755 48.7703 55.5278 48.7703C53.1003 48.7703 51.1341 50.7365 51.1341 53.164V53.4277C50.8045 53.7133 50.475 54.0647 50.2004 54.4272C50.1016 54.0208 50.0356 53.6034 50.0356 53.164C50.0356 50.1324 52.4961 47.6719 55.5278 47.6719C58.5595 47.6719 61.02 50.1324 61.02 53.164C61.02 54.7238 60.3609 56.0968 59.3174 57.0854C59.7787 57.5578 60.4707 57.7006 61.1078 57.426C61.9536 57.0745 62.3381 56.1078 61.9866 55.273C61.9507 55.1703 61.8988 55.0739 61.8328 54.9874C62.0086 54.4053 62.1184 53.8011 62.1184 53.164C62.1184 52.472 62.0086 51.802 61.8108 51.1759C63.2168 51.5713 64.4251 52.5489 65.0292 53.9988C65.864 55.976 65.2929 58.1839 63.766 59.5459L67.314 67.927ZM58.8231 56.02C59.2295 55.5696 59.5371 55.0424 59.7238 54.4602C59.1307 54.7568 58.7901 55.3609 58.8231 56.02Z" fill="#EB5757" fill-opacity="0.3"/>
<path d="M55.5286 48.7706C57.1762 48.7706 58.6481 49.7262 59.3731 51.0992H60.6188C59.8022 49.09 57.8299 47.6721 55.5286 47.6721C54.0709 47.6721 52.7453 48.2409 51.7617 49.1686L53.7711 49.1358C54.3092 48.9009 54.9036 48.7706 55.5286 48.7706Z" fill="#F0C8C4"/>
<path fill-rule="evenodd" clip-rule="evenodd" d="M35.2651 59.0808C36.0311 59.114 36.7749 59.2874 37.4613 59.5827C37.5519 59.6217 37.6414 59.6628 37.7299 59.7059C39.2338 60.4396 40.4259 61.7748 40.9088 63.5081L43.1502 71.5532C44.7207 77.1901 41.314 83.0216 35.6003 84.6135L29.2756 86.3756L29.2574 86.3804L28.4535 86.6044C22.7398 88.1963 16.8086 84.9663 15.2381 79.3293L12.9968 71.2842C12.244 68.5825 13.4664 65.8176 15.7738 64.4274L15.1841 62.3108C13.9492 57.8782 17.305 53.0751 22.684 51.5765C28.063 50.0779 33.4189 52.4539 34.6538 56.8865L35.2651 59.0808ZM33.8311 61.235C34.8516 60.9507 35.8775 61.0559 36.7513 61.455C37.8142 61.9406 38.6522 62.8611 38.982 64.0447L39.3244 65.2738L39.3301 65.2934L41.2236 72.0899C42.486 76.6211 39.7554 81.3797 35.0636 82.6868L34.2597 82.9108L34.2415 82.9157L27.9167 84.6778C23.2249 85.9849 18.4272 83.3238 17.1648 78.7926L15.2713 71.9964L15.2661 71.9767L14.9236 70.7476C14.3227 68.5908 15.6178 66.3093 17.8798 65.6791L33.8311 61.235Z" fill="#D4EBDB"/>
<path d="M14.3774 73.8232C13.0728 69.5305 15.5529 65.0045 19.8731 63.7939L30.8567 60.7159C35.3441 59.4584 39.9522 62.2874 40.8616 66.8581L42.285 74.0122C43.1016 78.1166 40.6171 82.1567 36.5859 83.2799L26.2893 86.1485C22.1031 87.3148 17.7515 84.926 16.4879 80.7681L14.3774 73.8232Z" fill="#D4EBDB"/>
<rect x="16.7219" y="66.9547" width="19.3324" height="16.6962" rx="6" transform="rotate(-15.5679 16.7219 66.9547)" fill="white"/>
<path d="M19.4205 66.1172L18.7026 63.5404C17.6781 59.8629 19.8264 56.0552 23.5039 55.0307C27.1813 54.0061 30.989 56.1544 32.0136 59.8319L32.8361 62.7842" fill="white"/>
<path d="M19.4205 66.1172L18.7026 63.5404C17.6781 59.8629 19.8264 56.0552 23.5039 55.0307C27.1813 54.0061 30.989 56.1544 32.0136 59.8319L32.8361 62.7842" stroke="#268C44" stroke-width="2" stroke-miterlimit="10"/>
<path d="M22.5083 65.6615L21.8793 63.4036C21.2402 61.1097 22.3482 58.8001 24.3541 58.2413C26.36 57.6824 28.5026 59.0864 29.1417 61.3803L29.7707 63.6382" stroke="#268C44" stroke-width="2" stroke-miterlimit="10"/>
<path fill-rule="evenodd" clip-rule="evenodd" d="M34.9301 64.548C34.2616 63.7251 33.1464 63.3313 32.0588 63.6343L20.5789 66.8327C19.1153 67.2404 18.2613 68.7539 18.6691 70.2175L18.9213 71.1227C18.9225 71.127 18.9237 71.1314 18.9248 71.1357L20.3197 76.1425C21.2147 79.3548 24.5432 81.2328 27.7555 80.3378L32.3074 79.0697C32.3139 79.0679 32.3205 79.0661 32.327 79.0644L32.899 78.9051C36.1113 78.0101 37.9893 74.6815 37.0944 71.4692L35.6994 66.462C35.6981 66.4577 35.6969 66.4535 35.6957 66.4492L35.4435 65.5439C35.3388 65.1681 35.1611 64.8324 34.9301 64.548ZM36.4831 63.2869C35.3279 61.8651 33.4004 61.1842 31.5219 61.7075L20.042 64.9059C17.5143 65.6101 16.0381 68.2265 16.7423 70.7541L18.3931 76.6792C19.5845 80.9556 24.0159 83.4559 28.2923 82.2645L28.8643 82.1051C28.8708 82.1034 28.8774 82.1017 28.8839 82.0998L33.4358 80.8317C37.7121 79.6403 40.2124 75.2088 39.021 70.9325L37.3702 65.0073C37.1894 64.3581 36.8823 63.7783 36.4831 63.2869Z" fill="#268C44"/>
<path d="M27.4488 69.4392C27.9906 69.2885 28.5664 69.3149 29.0922 69.5147C29.6179 69.7144 30.066 70.077 30.371 70.5496C30.676 71.0221 30.8219 71.5797 30.7874 72.1411C30.7529 72.7024 30.5399 73.238 30.1794 73.6697L30.0393 73.825L30.4879 75.4354C30.5777 75.7592 30.5405 76.1051 30.3839 76.4023C30.2273 76.6996 29.963 76.9259 29.6452 77.0349C29.3273 77.1439 28.9798 77.1274 28.6737 76.9888C28.3676 76.8502 28.126 76.5999 27.9982 76.2891L27.9479 76.143L27.4993 74.5327C26.9372 74.388 26.4386 74.0619 26.0807 73.6049C25.7228 73.148 25.5257 72.5857 25.52 72.0053C25.5142 71.4249 25.7001 70.8589 26.0489 70.3949C26.3976 69.931 26.8897 69.595 27.4488 69.4392Z" fill="#268C44"/>
<g clip-path="url(#clip0_1997_20493)">
<circle cx="80.7045" cy="51.0471" r="3.9375" transform="rotate(-1.06 80.7045 51.0471)" fill="#EB5757"/>
<path d="M82.0845 49.6151L79.3245 52.4791" stroke="white" stroke-width="0.9" stroke-linecap="round" stroke-linejoin="round"/>
<path d="M79.2725 49.6671L82.1365 52.4271" stroke="white" stroke-width="0.9" stroke-linecap="round" stroke-linejoin="round"/>
</g>
<rect x="76.5294" y="47.0236" width="8.2" height="8.2" rx="4.1" transform="rotate(-1.06 76.5294 47.0236)" stroke="white" stroke-width="0.8"/>
<defs>
<clipPath id="clip0_1997_20493">
<rect x="76.1221" y="46.6311" width="9" height="9" rx="4.5" transform="rotate(-1.06 76.1221 46.6311)" fill="white"/>
</clipPath>
</defs>
</svg>
