<svg width="150" height="100" viewBox="0 0 150 100" fill="none" xmlns="http://www.w3.org/2000/svg">
<path d="M25.81 48.3337C25.7136 48.3337 25.6387 48.2588 25.628 48.1625L24.6756 36.7759C24.6649 36.6796 24.7398 36.5833 24.8361 36.5833C24.9324 36.5726 25.0287 36.6475 25.0287 36.7438L25.9812 48.1304C25.9919 48.2267 25.917 48.323 25.8207 48.323C25.8207 48.3337 25.8207 48.3337 25.81 48.3337Z" fill="#235347"/>
<path d="M26.377 55.0967C26.2807 55.0967 26.2058 55.0218 26.1951 54.9255L25.9062 51.4795C25.8955 51.3832 25.9704 51.2869 26.0667 51.2869C26.163 51.2762 26.2593 51.3511 26.2593 51.4474L26.5483 54.8934C26.559 54.9897 26.4841 55.086 26.3877 55.086C26.3877 55.0967 26.377 55.0967 26.377 55.0967Z" fill="#235347"/>
<path d="M122.318 87.5015H34.2645C32.0171 87.5015 30.0266 85.6608 29.8447 83.4134L24.8898 23.8051C24.7079 21.5577 26.3881 19.717 28.6354 19.717H116.689C118.936 19.717 120.927 21.5577 121.109 23.8051L126.063 83.4134C126.245 85.6608 124.565 87.5015 122.318 87.5015Z" fill="#DAF1DE" stroke="#235347" stroke-width="1.21784" stroke-miterlimit="10"/>
<path d="M122.318 87.6728H34.2645C31.9208 87.6728 29.8661 85.7679 29.6735 83.4349L24.7186 23.8266C24.6223 22.6922 24.9861 21.6221 25.7245 20.8087C26.463 20.0061 27.501 19.5566 28.6354 19.5566H116.689C119.032 19.5566 121.087 21.4615 121.28 23.7945L126.235 83.4028C126.331 84.5372 125.967 85.6074 125.229 86.4207C124.48 87.234 123.452 87.6728 122.318 87.6728ZM28.6247 19.8991C27.5866 19.8991 26.6449 20.3058 25.9707 21.0442C25.2858 21.7826 24.9647 22.7671 25.0503 23.8052L30.0052 83.4135C30.1871 85.5753 32.092 87.3411 34.2645 87.3411H122.318C123.356 87.3411 124.298 86.9344 124.972 86.196C125.657 85.4576 125.978 84.473 125.892 83.4349L120.937 23.8266C120.755 21.6649 118.851 19.8991 116.678 19.8991H28.6247Z" fill="#235347"/>
<path d="M116.678 19.728H28.6247C26.3773 19.728 24.6972 21.5687 24.8791 23.8161H121.098C120.916 21.5687 118.925 19.728 116.678 19.728Z" fill="#24663F"/>
<path d="M30.69 21.7718C30.7328 22.2534 30.369 22.6493 29.8874 22.6493C29.4058 22.6493 28.9777 22.2534 28.9349 21.7718C28.8921 21.2902 29.256 20.8943 29.7376 20.8943C30.2191 20.8836 30.6472 21.2795 30.69 21.7718Z" fill="white"/>
<path d="M34.2645 21.7716C34.3074 22.2532 33.9435 22.6491 33.4619 22.6491C32.9803 22.6491 32.5416 22.2532 32.5095 21.7716C32.4774 21.29 32.8305 20.894 33.3121 20.894C33.7937 20.894 34.2217 21.2793 34.2645 21.7716Z" fill="white"/>
<path d="M37.8494 21.7716C37.8922 22.2532 37.5284 22.6491 37.0468 22.6491C36.5652 22.6491 36.1372 22.2532 36.0944 21.7716C36.0516 21.29 36.4154 20.894 36.897 20.894C37.3786 20.894 37.8066 21.2793 37.8494 21.7716Z" fill="white"/>
<path d="M114.677 79.6894H40.5998C38.8126 79.6894 37.2288 78.2233 37.0789 76.4468L33.6223 34.8708C33.4725 33.0836 34.8102 31.6282 36.5974 31.6282H110.664C112.451 31.6282 114.035 33.0943 114.185 34.8708L117.641 76.4468C117.802 78.234 116.464 79.6894 114.677 79.6894Z" fill="#F2F9F3"/>
<path d="M110.733 34.1646L79.9869 71.1817C78.5956 72.8512 79.4732 75.4089 81.6028 75.8584L131.473 86.6457C133.741 87.1379 135.636 84.8906 134.779 82.7396L115.656 34.9352C114.832 32.9018 112.135 32.4738 110.733 34.1646Z" fill="#A4C1AD"/>
<path d="M114.511 32.2489L93.4604 62.8129C90.4532 67.1899 93.118 73.1935 98.3832 73.8998L137.08 79.0473C142.72 79.7964 146.915 73.9533 144.4 68.8486L126.753 33.1371C124.335 28.2572 117.593 27.7756 114.511 32.2489Z" fill="#235347"/>
<path d="M98.972 71.0532C97.5379 70.8606 96.2965 69.9616 95.633 68.6346C94.9802 67.3076 95.0552 65.8415 95.8364 64.7071L117.347 33.4796C118.128 32.3452 119.444 31.7888 120.878 31.9707C122.312 32.1633 123.554 33.0623 124.217 34.3893L142.239 70.8713C142.892 72.1983 142.817 73.6644 142.036 74.7988C141.254 75.9332 139.938 76.4897 138.504 76.3077L98.972 71.0532Z" fill="white"/>
<path d="M119.048 43.0251L121.563 43.3569C123.179 43.5709 124.42 45.037 124.335 46.6423L124.164 49.917C124.153 50.0347 124.142 50.1524 124.121 50.2702L122.334 60.1478C122.077 61.5711 120.771 62.4915 119.305 62.2988C117.828 62.1062 116.64 60.8434 116.533 59.3666L115.806 49.1679C115.795 49.0502 115.795 48.9325 115.806 48.8147L115.977 45.5293C116.052 43.9241 117.432 42.8111 119.048 43.0251ZM118.845 65.0171L119.53 65.1134C120.974 65.306 122.087 66.6223 122.012 68.0456C121.938 69.4797 120.707 70.4749 119.262 70.2823L118.577 70.186C117.133 69.9934 116.02 68.677 116.094 67.2537C116.169 65.8197 117.4 64.8244 118.845 65.0171Z" fill="#235347"/>
<rect x="5.5" y="10.5" width="16.5749" height="16.5749" rx="8.28746" fill="#E5F5E8"/>
<path d="M11.9458 16.8771C12.1255 16.3664 12.48 15.9358 12.9468 15.6615C13.4135 15.3872 13.9623 15.2869 14.4958 15.3785C15.0294 15.47 15.5134 15.7474 15.862 16.1615C16.2107 16.5757 16.4015 17.0999 16.4007 17.6413C16.4007 19.1695 14.1083 19.9336 14.1083 19.9336" stroke="#24663F" stroke-width="1.5" stroke-linecap="round" stroke-linejoin="round"/>
<path d="M14.1696 22.9902H14.1761" stroke="#24663F" stroke-width="1.5" stroke-linecap="round" stroke-linejoin="round"/>
<rect x="5.5" y="10.5" width="16.5749" height="16.5749" rx="8.28746" stroke="#24663F" stroke-dasharray="4 4"/>
<rect x="38.2901" y="40.4631" width="53.2" height="9.30557" rx="4.65279" transform="rotate(-1.06 38.2901 40.4631)" fill="white"/>
<circle cx="45.7249" cy="44.979" r="1.75" transform="rotate(-1.06 45.7249 44.979)" fill="#EB5757"/>
<circle cx="51.224" cy="44.8775" r="1.75" transform="rotate(-1.06 51.224 44.8775)" fill="#EB5757"/>
<circle cx="56.7231" cy="44.7757" r="1.75" transform="rotate(-1.06 56.7231 44.7757)" fill="#EB5757"/>
<circle cx="62.2221" cy="44.6739" r="1.75" transform="rotate(-1.06 62.2221 44.6739)" fill="#EB5757"/>
<circle cx="67.7212" cy="44.5721" r="1.75" transform="rotate(-1.06 67.7212 44.5721)" fill="#EB5757"/>
<circle cx="73.2203" cy="44.4703" r="1.75" transform="rotate(-1.06 73.2203 44.4703)" fill="#EB5757"/>
<circle cx="78.7193" cy="44.3687" r="1.75" transform="rotate(-1.06 78.7193 44.3687)" fill="#EB5757"/>
<circle cx="84.2184" cy="44.2669" r="1.75" transform="rotate(-1.06 84.2184 44.2669)" fill="#EB5757"/>
<rect x="38.2901" y="40.4631" width="53.2" height="9.30557" rx="4.65279" transform="rotate(-1.06 38.2901 40.4631)" stroke="#EB5757" stroke-width="0.8"/>
<path d="M58.4607 61.589C57.9445 62.0943 57.3184 62.5007 56.6264 62.7533V71.8374H53.3311V69.6405H50.0358V66.3452H53.3311V62.7424C51.4198 62.0613 50.0358 60.2599 50.0358 58.107C50.0358 55.3609 52.2326 53.164 54.9787 53.164H55.0886C54.5723 54.2075 54.3416 55.3609 54.4624 56.5472C53.8144 56.7669 53.3311 57.382 53.3311 58.107C53.3311 59.0187 54.067 59.7546 54.9787 59.7546C55.2313 59.7546 55.473 59.6887 55.6927 59.5899C56.3957 60.5125 57.3623 61.2046 58.4607 61.589ZM67.3141 67.927L64.2824 69.2011L63.4257 67.18L60.394 68.4652L59.1088 65.4225L62.1515 64.1484L60.7565 60.8531C58.7244 60.9409 56.7472 59.8095 55.9124 57.8324C54.8579 55.317 56.0442 52.4171 58.5596 51.3516C58.8232 51.2418 59.1088 51.1649 59.3724 51.099C58.6475 49.7259 57.1756 48.7703 55.5279 48.7703C53.1004 48.7703 51.1342 50.7365 51.1342 53.164V53.4277C50.8047 53.7133 50.4751 54.0647 50.2005 54.4272C50.1017 54.0208 50.0358 53.6034 50.0358 53.164C50.0358 50.1324 52.4963 47.6719 55.5279 47.6719C58.5596 47.6719 61.0201 50.1324 61.0201 53.164C61.0201 54.7238 60.361 56.0968 59.3175 57.0854C59.7789 57.5578 60.4709 57.7006 61.108 57.426C61.9538 57.0745 62.3382 56.1078 61.9867 55.273C61.9508 55.1703 61.8989 55.0739 61.8329 54.9874C62.0087 54.4053 62.1185 53.8011 62.1185 53.164C62.1185 52.472 62.0087 51.802 61.811 51.1759C63.217 51.5713 64.4252 52.5489 65.0294 53.9988C65.8642 55.976 65.293 58.1839 63.7662 59.5459L67.3141 67.927ZM58.8232 56.02C59.2296 55.5696 59.5372 55.0424 59.7239 54.4602C59.1308 54.7568 58.7903 55.3609 58.8232 56.02Z" fill="#EB5757" fill-opacity="0.3"/>
<path d="M55.5288 48.7706C57.1765 48.7706 58.6484 49.7262 59.3733 51.0992H60.619C59.8024 49.09 57.8302 47.6721 55.5288 47.6721C54.0711 47.6721 52.7455 48.2409 51.762 49.1686L53.7713 49.1358C54.3094 48.9009 54.9038 48.7706 55.5288 48.7706Z" fill="#F0C8C4"/>
<path fill-rule="evenodd" clip-rule="evenodd" d="M35.2652 59.0808C36.0312 59.114 36.775 59.2874 37.4615 59.5827C37.552 59.6217 37.6415 59.6628 37.73 59.7059C39.2339 60.4396 40.426 61.7748 40.9089 63.5081L43.1503 71.5532C44.7208 77.1901 41.3142 83.0216 35.6005 84.6135L29.2757 86.3756L29.2575 86.3804L28.4536 86.6044C22.7399 88.1963 16.8087 84.9663 15.2383 79.3293L12.9969 71.2842C12.2442 68.5825 13.4666 65.8176 15.774 64.4274L15.1843 62.3108C13.9493 57.8782 17.3051 53.0751 22.6841 51.5765C28.0631 50.0779 33.419 52.4539 34.6539 56.8865L35.2652 59.0808ZM33.8312 61.235C34.8517 60.9507 35.8776 61.0559 36.7514 61.455C37.8144 61.9406 38.6523 62.8611 38.9821 64.0447L39.3245 65.2738L39.3302 65.2934L41.2237 72.0899C42.4861 76.6211 39.7555 81.3797 35.0637 82.6868L34.2598 82.9108L34.2416 82.9157L27.9168 84.6778C23.225 85.9849 18.4273 83.3238 17.1649 78.7926L15.2715 71.9964L15.2662 71.9767L14.9237 70.7476C14.3229 68.5908 15.618 66.3093 17.8799 65.6791L33.8312 61.235Z" fill="#A4C1AD"/>
<path d="M14.3775 73.8231C13.073 69.5304 15.553 65.0044 19.8732 63.7937L30.8568 60.7158C35.3442 59.4583 39.9523 62.2873 40.8617 66.8579L42.2851 74.0121C43.1018 78.1164 40.6172 82.1566 36.586 83.2797L26.2894 86.1484C22.1032 87.3147 17.7516 84.9259 16.488 80.768L14.3775 73.8231Z" fill="#A4C1AD"/>
<rect x="16.7219" y="66.9546" width="19.3324" height="16.6962" rx="6" transform="rotate(-15.5679 16.7219 66.9546)" fill="white"/>
<path d="M19.4206 66.1171L18.7027 63.5402C17.6782 59.8628 19.8265 56.0551 23.504 55.0305C27.1815 54.006 30.9891 56.1543 32.0137 59.8318L32.8362 62.7841" fill="white"/>
<path d="M19.4206 66.1171L18.7027 63.5402C17.6782 59.8628 19.8265 56.0551 23.504 55.0305C27.1815 54.006 30.9891 56.1543 32.0137 59.8318L32.8362 62.7841" stroke="#235347" stroke-width="2" stroke-miterlimit="10"/>
<path d="M22.5085 65.6613L21.8794 63.4034C21.2403 61.1094 22.3483 58.7999 24.3542 58.241C26.3601 57.6822 28.5027 59.0861 29.1418 61.38L29.7709 63.638" stroke="#235347" stroke-width="2" stroke-miterlimit="10"/>
<path fill-rule="evenodd" clip-rule="evenodd" d="M34.9303 64.548C34.2618 63.7251 33.1465 63.3313 32.0589 63.6343L20.579 66.8327C19.1154 67.2404 18.2615 68.7539 18.6692 70.2175L18.9214 71.1227C18.9226 71.127 18.9238 71.1314 18.9249 71.1357L20.3198 76.1425C21.2148 79.3548 24.5433 81.2328 27.7557 80.3378L32.3075 79.0697C32.314 79.0679 32.3206 79.0661 32.3271 79.0644L32.8991 78.9051C36.1115 78.0101 37.9895 74.6815 37.0945 71.4692L35.6995 66.462C35.6982 66.4577 35.697 66.4535 35.6958 66.4492L35.4436 65.5439C35.3389 65.1681 35.1612 64.8324 34.9303 64.548ZM36.4832 63.2869C35.328 61.8651 33.4005 61.1842 31.522 61.7075L20.0421 64.9059C17.5144 65.6101 16.0382 68.2265 16.7424 70.7541L18.3932 76.6792C19.5846 80.9556 24.0161 83.4559 28.2924 82.2645L28.8644 82.1051C28.871 82.1034 28.8775 82.1017 28.884 82.0998L33.4359 80.8317C37.7123 79.6403 40.2125 75.2088 39.0211 70.9325L37.3704 65.0073C37.1895 64.3581 36.8825 63.7783 36.4832 63.2869Z" fill="#235347"/>
<path d="M27.4489 69.4391C27.9907 69.2884 28.5666 69.3148 29.0923 69.5145C29.618 69.7143 30.0661 70.0769 30.3711 70.5494C30.6761 71.022 30.822 71.5796 30.7875 72.141C30.7531 72.7023 30.54 73.2379 30.1795 73.6696L30.0394 73.8249L30.488 75.4353C30.5779 75.7591 30.5406 76.1049 30.384 76.4022C30.2274 76.6995 29.9631 76.9258 29.6453 77.0348C29.3274 77.1438 28.98 77.1273 28.6739 76.9887C28.3677 76.8501 28.1261 76.5998 27.9983 76.289L27.9481 76.1429L27.4994 74.5326C26.9373 74.3879 26.4387 74.0618 26.0808 73.6048C25.7229 73.1479 25.5259 72.5856 25.5201 72.0052C25.5143 71.4248 25.7003 70.8588 26.049 70.3948C26.3977 69.9308 26.8898 69.5949 27.4489 69.4391Z" fill="#235347"/>
<g clip-path="url(#clip0_5773_42611)">
<circle cx="80.7046" cy="51.0471" r="3.9375" transform="rotate(-1.06 80.7046 51.0471)" fill="#EB5757"/>
<path d="M82.0847 49.615L79.3247 52.479" stroke="white" stroke-width="0.9" stroke-linecap="round" stroke-linejoin="round"/>
<path d="M79.2727 49.667L82.1368 52.427" stroke="white" stroke-width="0.9" stroke-linecap="round" stroke-linejoin="round"/>
</g>
<rect x="76.5295" y="47.0236" width="8.2" height="8.2" rx="4.1" transform="rotate(-1.06 76.5295 47.0236)" stroke="white" stroke-width="0.8"/>
<defs>
<clipPath id="clip0_5773_42611">
<rect x="76.1222" y="46.6311" width="9" height="9" rx="4.5" transform="rotate(-1.06 76.1222 46.6311)" fill="white"/>
</clipPath>
</defs>
</svg>
