<svg width="16" height="16" viewBox="0 0 16 16" fill="none" xmlns="http://www.w3.org/2000/svg">
<path d="M10.0855 13.6667V12.4286C10.0855 11.7719 9.84094 11.142 9.40559 10.6777C8.97024 10.2133 8.37977 9.95239 7.76409 9.95239H3.12123C2.50555 9.95239 1.91509 10.2133 1.47974 10.6777C1.04438 11.142 0.799805 11.7719 0.799805 12.4286V13.6667" stroke="#28AF60" stroke-width="1.5" stroke-linecap="round" stroke-linejoin="round"/>
<path d="M5.90688 7.16678C7.18897 7.16678 8.22831 6.12744 8.22831 4.84535C8.22831 3.56326 7.18897 2.52393 5.90688 2.52393C4.62479 2.52393 3.58545 3.56326 3.58545 4.84535C3.58545 6.12744 4.62479 7.16678 5.90688 7.16678Z" stroke="#28AF60" stroke-width="1.5" stroke-linecap="round" stroke-linejoin="round"/>
<path d="M13.5769 13.6667V12.4012C13.5765 11.8404 13.3939 11.2956 13.0577 10.8524C12.7216 10.4092 12.2509 10.0926 11.7197 9.95239" stroke="#28AF60" stroke-width="1.5" stroke-linecap="round" stroke-linejoin="round"/>
<path d="M9.86963 2.52393C10.1353 2.6559 10.3707 2.95568 10.5388 3.376C10.7069 3.79632 10.7982 4.31327 10.7982 4.84535C10.7982 5.37744 10.7069 5.89439 10.5388 6.31471C10.3707 6.73503 10.1353 7.03481 9.86963 7.16678" stroke="#28AF60" stroke-width="1.5" stroke-linecap="round" stroke-linejoin="round"/>
<path d="M13.8999 5V8" stroke="#28AF60" stroke-width="1.2" stroke-linecap="round" stroke-linejoin="round"/>
<path d="M12.3999 6.5H15.3999" stroke="#28AF60" stroke-width="1.2" stroke-linecap="round" stroke-linejoin="round"/>
</svg>
