<svg width="360" height="140" viewBox="0 0 360 140" fill="none" xmlns="http://www.w3.org/2000/svg">
<path d="M251.93 138.64H110.93C107.95 138.64 105.53 136.22 105.53 133.24V43.6598C105.53 40.6798 107.95 38.2598 110.93 38.2598H251.93C254.91 38.2598 257.33 40.6798 257.33 43.6598V133.25C257.33 136.23 254.91 138.64 251.93 138.64Z" fill="#263238"/>
<path d="M257.65 140H105.17C101.86 140 99.1799 137.32 99.1799 134.01V131.22H263.64V134.01C263.64 137.32 260.96 140 257.65 140Z" fill="#263238"/>
<path d="M252.83 42.25H109.61V127.02H252.83V42.25Z" fill="#455A64"/>
<path d="M166.47 131.22L168.51 134.46H197.22L199.12 131.22H166.47Z" fill="#455A64"/>
<path d="M246.9 126.75H115.83C114.02 126.75 112.56 125.28 112.56 123.48V48.3901C112.56 46.5801 114.03 45.1201 115.83 45.1201H246.9C248.71 45.1201 250.17 46.5901 250.17 48.3901V123.47C250.17 125.28 248.71 126.75 246.9 126.75Z" fill="#EBEBEB"/>
<path d="M250.18 51.1006H112.56V126.751H250.18V51.1006Z" fill="#EBEBEB"/>
<path d="M123.84 48.2699C123.84 48.8799 123.35 49.3699 122.74 49.3699C122.13 49.3699 121.64 48.8799 121.64 48.2699C121.64 47.6599 122.13 47.1699 122.74 47.1699C123.35 47.1699 123.84 47.6599 123.84 48.2699Z" fill="#455A64"/>
<path d="M117.18 48.2699C117.18 48.8799 116.69 49.3699 116.08 49.3699C115.47 49.3699 114.98 48.8799 114.98 48.2699C114.98 47.6599 115.47 47.1699 116.08 47.1699C116.69 47.1699 117.18 47.6599 117.18 48.2699Z" fill="#455A64"/>
<path d="M120.38 48.2699C120.38 48.8799 119.89 49.3699 119.28 49.3699C118.67 49.3699 118.18 48.8799 118.18 48.2699C118.18 47.6599 118.67 47.1699 119.28 47.1699C119.89 47.1699 120.38 47.6599 120.38 48.2699Z" fill="#455A64"/>
<path d="M256.02 131.22C256.02 131.27 222.33 131.32 180.78 131.32C139.22 131.32 105.53 131.28 105.53 131.22C105.53 131.17 139.21 131.12 180.78 131.12C222.33 131.12 256.02 131.16 256.02 131.22Z" fill="#455A64"/>
<path d="M105.5 132.32C105.5 132.32 105.46 132.3 105.38 132.25C105.3 132.2 105.19 132.12 105.04 132.03C104.89 131.93 104.71 131.81 104.49 131.66C104.27 131.51 104.01 131.34 103.75 131.12C103.48 130.9 103.17 130.66 102.84 130.4C102.51 130.13 102.17 129.8 101.79 129.46C101.04 128.77 100.24 127.91 99.4001 126.89C97.7401 124.83 96.0501 122.01 94.8801 118.43C93.7301 114.86 93.1001 110.54 93.4601 105.82C93.6401 103.46 94.0201 101 94.7401 98.5204C95.4501 96.0404 96.4501 93.5104 97.9101 91.1304C98.2701 90.5304 98.6801 89.9604 99.1001 89.3804C99.5401 88.8304 99.9901 88.2704 100.44 87.7104C100.92 87.1704 101.42 86.6504 101.91 86.1104C102.41 85.5804 102.96 85.0904 103.49 84.5704C105.67 82.5604 108.11 80.7204 110.74 79.0204C115.99 75.6204 121.93 72.8104 128.04 69.8804C134.13 66.8904 140.56 64.0304 147.14 61.1404C173.51 49.5904 197.65 39.7504 215.23 32.9204C224.02 29.4904 231.19 26.8704 236.15 25.0804C238.63 24.2004 240.57 23.5404 241.89 23.0804C242.55 22.8604 243.05 22.6904 243.39 22.5704C243.56 22.5204 243.68 22.4704 243.77 22.4404C243.86 22.4104 243.9 22.4004 243.9 22.4004C243.9 22.4004 243.86 22.4204 243.78 22.4504C243.69 22.4804 243.57 22.5304 243.4 22.5904C243.06 22.7104 242.57 22.8904 241.92 23.1304C240.61 23.6004 238.69 24.3004 236.21 25.1904C231.27 27.0204 224.11 29.6704 215.34 33.1304C197.79 40.0204 173.67 49.9004 147.3 61.4404C140.71 64.3404 134.3 67.1904 128.21 70.1704C122.09 73.1004 116.17 75.9004 110.93 79.2704C108.32 80.9504 105.88 82.7704 103.72 84.7704C103.19 85.2804 102.65 85.7704 102.15 86.3004C101.66 86.8304 101.17 87.3604 100.69 87.8904C100.24 88.4404 99.8001 88.9904 99.3501 89.5404C98.9301 90.1004 98.5301 90.6704 98.1801 91.2604C96.7301 93.6104 95.7301 96.1104 95.0301 98.5704C94.3101 101.03 93.9201 103.48 93.7401 105.82C93.3701 110.51 93.9801 114.8 95.1001 118.35C96.2401 121.91 97.9001 124.72 99.5301 126.78C100.35 127.8 101.15 128.66 101.88 129.36C102.25 129.7 102.59 130.03 102.92 130.3C103.25 130.57 103.55 130.81 103.82 131.03C104.08 131.26 104.34 131.43 104.55 131.58C104.76 131.73 104.94 131.86 105.09 131.97C105.23 132.07 105.34 132.15 105.41 132.21C105.47 132.29 105.5 132.32 105.5 132.32Z" fill="#263238"/>
<path d="M238.13 11.1202L244.48 16.3902L243.89 22.4202L249.09 19.5302L254.63 23.4602L275.29 10.2002L238.13 11.1202Z" fill="#268C44"/>
<g opacity="0.5">
<g opacity="0.5">
<path opacity="0.5" d="M244.48 16.39L274.73 10.21L247.56 18.44L243.89 22.42L244.48 16.39Z" fill="black"/>
</g>
</g>
<g opacity="0.8">
<g opacity="0.8">
<path opacity="0.8" d="M247.56 18.4404L249.09 19.5304L243.89 22.4204L247.56 18.4404Z" fill="black"/>
</g>
</g>
<path d="M152.405 90.4058L119.414 93.5342L121.523 115.774L154.514 112.645L152.405 90.4058Z" fill="white"/>
<path d="M154.52 112.64C154.52 112.64 154.5 112.5 154.47 112.23C154.44 111.95 154.4 111.56 154.34 111.05C154.23 110.01 154.08 108.5 153.88 106.57C153.5 102.7 152.95 97.1598 152.28 90.4098L152.41 90.5198C143.3 91.3898 131.84 92.4898 119.42 93.6798C119.39 93.7198 119.68 93.3598 119.56 93.5198V93.5298V93.5398V93.5598V93.6098L119.57 93.6998L119.59 93.8898L119.63 94.2598L119.71 94.9998C119.76 95.4898 119.8 95.9798 119.85 96.4698C119.94 97.4498 120.03 98.4198 120.13 99.3798C120.31 101.31 120.49 103.2 120.67 105.07C121.02 108.79 121.36 112.37 121.67 115.76L121.52 115.63C131.22 114.74 139.45 113.98 145.27 113.45C148.18 113.19 150.48 112.98 152.07 112.84C152.85 112.77 153.46 112.72 153.89 112.68C154.09 112.66 154.24 112.65 154.36 112.64C154.46 112.64 154.52 112.64 154.52 112.64C154.52 112.64 154.47 112.65 154.37 112.66C154.26 112.67 154.11 112.69 153.92 112.71C153.5 112.75 152.9 112.82 152.14 112.9C150.56 113.06 148.27 113.29 145.38 113.58C139.54 114.15 131.28 114.96 121.55 115.91L121.41 115.92L121.4 115.78C121.08 112.39 120.73 108.81 120.38 105.09C120.2 103.23 120.02 101.33 119.84 99.3998C119.75 98.4398 119.66 97.4698 119.56 96.4898C119.51 95.9998 119.47 95.5098 119.42 95.0198L119.35 94.2798L119.31 93.9098L119.29 93.7198L119.28 93.6298V93.5798V93.5598V93.5498V93.5398C119.16 93.6898 119.45 93.3298 119.42 93.3698C131.84 92.1998 143.3 91.1298 152.41 90.2698L152.53 90.2598L152.54 90.3798C153.16 97.1598 153.66 102.74 154.02 106.63C154.19 108.55 154.32 110.05 154.41 111.09C154.45 111.59 154.48 111.97 154.51 112.25C154.52 112.51 154.52 112.64 154.52 112.64Z" fill="#455A64"/>
<path d="M152.41 90.3994C152.42 90.4094 152.33 90.5194 152.15 90.7294C151.95 90.9594 151.69 91.2594 151.37 91.6394C150.66 92.4394 149.67 93.5694 148.46 94.9394C145.96 97.7394 142.52 101.579 138.7 105.859L138.61 105.959L138.5 105.889C138.22 105.709 137.92 105.519 137.62 105.329C132.59 102.099 128.03 99.1794 124.71 97.0494C123.09 95.9894 121.76 95.1294 120.82 94.5094C120.38 94.2194 120.03 93.9794 119.77 93.8094C119.53 93.6494 119.41 93.5594 119.41 93.5494C119.42 93.5394 119.55 93.6094 119.8 93.7594C120.07 93.9294 120.43 94.1394 120.88 94.4194C121.84 95.0194 123.18 95.8494 124.83 96.8794C128.17 98.9994 132.74 101.889 137.79 105.089C138.09 105.279 138.39 105.469 138.67 105.649L138.47 105.679C142.32 101.429 145.78 97.6094 148.3 94.8294C149.54 93.4794 150.56 92.3794 151.28 91.5894C151.62 91.2294 151.89 90.9394 152.1 90.7194C152.3 90.4994 152.4 90.3994 152.41 90.3994Z" fill="#455A64"/>
<path d="M222.156 58.2865L217.698 74.0586L241.101 80.6736L245.559 64.9015L222.156 58.2865Z" fill="white"/>
<path d="M241.1 80.6704C241.1 80.6704 241.12 80.5704 241.17 80.3704C241.22 80.1704 241.3 79.8904 241.4 79.5304C241.6 78.7904 241.9 77.7104 242.28 76.3404C243.04 73.5904 244.14 69.6604 245.47 64.8604L245.53 64.9704C239.07 63.1504 230.94 60.8604 222.12 58.3804C222.09 58.4004 222.38 58.2304 222.26 58.3004V58.3104V58.3304L222.25 58.3604L222.23 58.4304L222.19 58.5604L222.12 58.8204L221.97 59.3404C221.87 59.6904 221.77 60.0404 221.67 60.3804C221.47 61.0704 221.28 61.7604 221.09 62.4504C220.7 63.8204 220.32 65.1604 219.95 66.4804C219.2 69.1204 218.48 71.6604 217.8 74.0604L217.73 73.9304C224.6 75.8904 230.43 77.5604 234.56 78.7404C236.62 79.3304 238.25 79.8004 239.37 80.1304C239.92 80.2904 240.35 80.4204 240.65 80.5104C240.79 80.5504 240.9 80.5904 240.98 80.6104C241.06 80.6504 241.1 80.6604 241.1 80.6704C241.1 80.6704 241.07 80.6604 240.99 80.6504C240.91 80.6304 240.8 80.6004 240.67 80.5604C240.37 80.4804 239.95 80.3604 239.4 80.2104C238.27 79.9004 236.65 79.4504 234.59 78.8804C230.44 77.7204 224.58 76.0804 217.67 74.1504L217.57 74.1204L217.6 74.0204C218.28 71.6204 218.99 69.0804 219.74 66.4404C220.11 65.1204 220.49 63.7704 220.88 62.4104C221.07 61.7304 221.27 61.0404 221.46 60.3404C221.56 59.9904 221.66 59.6504 221.76 59.3004L221.91 58.7804L221.98 58.5204L222.02 58.3904L222.04 58.3204L222.05 58.2904V58.2704V58.2604C221.93 58.3304 222.22 58.1604 222.19 58.1804C231 60.6804 239.12 62.9804 245.58 64.8204L245.67 64.8404L245.65 64.9304C244.27 69.7304 243.14 73.6804 242.35 76.4404C241.96 77.8004 241.65 78.8604 241.43 79.5904C241.33 79.9404 241.25 80.2104 241.19 80.4104C241.13 80.5804 241.1 80.6704 241.1 80.6704Z" fill="#455A64"/>
<path d="M245.56 64.8903C245.56 64.9003 245.47 64.9503 245.3 65.0503C245.1 65.1503 244.85 65.2903 244.53 65.4603C243.83 65.8203 242.86 66.3303 241.66 66.9503C239.2 68.2003 235.84 69.9203 232.09 71.8303L232 71.8703L231.94 71.7903C231.8 71.5903 231.64 71.3803 231.49 71.1703C228.9 67.6303 226.56 64.4203 224.85 62.0803C224.02 60.9203 223.34 59.9803 222.86 59.3103C222.64 58.9903 222.46 58.7403 222.33 58.5503C222.21 58.3703 222.15 58.2803 222.16 58.2803C222.17 58.2803 222.24 58.3603 222.37 58.5303C222.51 58.7203 222.7 58.9603 222.94 59.2703C223.44 59.9303 224.13 60.8603 224.99 62.0003C226.71 64.3303 229.07 67.5303 231.68 71.0603C231.83 71.2703 231.99 71.4803 232.13 71.6803L231.99 71.6503C235.75 69.7603 239.13 68.0703 241.6 66.8403C242.81 66.2503 243.79 65.7603 244.5 65.4103C244.83 65.2503 245.09 65.1303 245.29 65.0303C245.46 64.9303 245.56 64.8903 245.56 64.8903Z" fill="#455A64"/>
<path d="M122.14 54.51C122.14 54.51 123.75 53.2 126.25 57.12C128.75 61.04 129.78 63.34 129.78 63.34C129.78 63.34 130.42 64.15 130.96 63.53C131.5 62.91 132.16 61.23 133.19 61.42C134.27 61.62 134.72 62.75 134.69 64.49C134.66 66.23 134.72 70.03 134.73 70.37C134.74 70.71 134.98 71.18 135.41 70.82C135.84 70.45 138.24 67.21 139.71 68.44C141.18 69.67 140.29 74.49 140.21 75.01C140.12 75.54 140.25 75.75 140.5 75.85C140.76 75.95 141.46 74.79 142.18 73.89C142.9 73 143.89 72.08 144.68 72.86C145.47 73.64 146.04 77.14 143.24 83.17L141.76 85.88L138.66 86.01C132.01 85.88 129.11 83.84 128.76 82.79C128.41 81.74 129.66 81.25 130.78 81C131.9 80.75 133.25 80.63 133.27 80.35C133.29 80.07 133.15 79.87 132.64 79.72C132.13 79.57 127.41 78.25 126.95 76.39C126.49 74.53 130.46 73.8 130.97 73.57C131.49 73.34 131.17 72.92 130.87 72.76C130.56 72.6 127.17 70.88 125.6 70.15C124.03 69.42 123.21 68.51 123.5 67.46C123.78 66.44 125.58 66.59 126.38 66.38C127.18 66.17 126.73 65.24 126.73 65.24C126.73 65.24 125.11 63.31 122.68 59.34C120.25 55.37 122.18 54.48 122.18 54.48" fill="#F6921E"/>
<path d="M124.38 58.0205C124.38 58.0205 124.39 58.0505 124.43 58.1105C124.46 58.1705 124.51 58.2505 124.58 58.3605C124.71 58.5805 124.9 58.9005 125.15 59.3005C125.64 60.1205 126.37 61.3005 127.26 62.7505C129.05 65.6605 131.57 69.6505 134.36 74.0505C137.15 78.4505 139.67 82.4405 141.49 85.3305C142.39 86.7805 143.12 87.9505 143.63 88.7605C143.88 89.1605 144.08 89.4705 144.21 89.6905C144.28 89.7905 144.33 89.8705 144.36 89.9305C144.4 89.9805 144.42 90.0105 144.42 90.0105C144.42 90.0105 144.41 89.9805 144.37 89.9205C144.34 89.8605 144.29 89.7805 144.22 89.6705C144.09 89.4505 143.9 89.1305 143.65 88.7305C143.16 87.9105 142.44 86.7305 141.54 85.2805C139.75 82.3705 137.23 78.3805 134.44 73.9805C131.65 69.5805 129.13 65.5905 127.32 62.7005C126.42 61.2505 125.69 60.0805 125.18 59.2705C124.93 58.8705 124.73 58.5605 124.6 58.3405C124.53 58.2405 124.48 58.1605 124.45 58.1005C124.4 58.0505 124.38 58.0205 124.38 58.0205Z" fill="#263238"/>
<path d="M132.36 63.8096C132.35 63.8096 132.33 63.8896 132.3 64.0296C132.27 64.1696 132.23 64.3696 132.18 64.6296C132.09 65.1396 131.98 65.8396 131.87 66.6096C131.77 67.3696 131.68 68.0596 131.61 68.5996C131.58 68.8396 131.55 69.0396 131.53 69.1996C131.51 69.3396 131.5 69.4196 131.51 69.4196C131.52 69.4196 131.54 69.3396 131.57 69.1996C131.6 69.0596 131.64 68.8596 131.69 68.5996C131.78 68.0896 131.88 67.3896 131.98 66.6196C132.09 65.8596 132.18 65.1696 132.26 64.6396C132.29 64.3996 132.32 64.1996 132.35 64.0396C132.36 63.8896 132.37 63.8196 132.36 63.8096Z" fill="#263238"/>
<path d="M131.23 69.5002C131.24 69.4702 129.8 69.1802 128.03 68.8502C126.25 68.5202 124.81 68.2801 124.81 68.3101C124.8 68.3401 126.24 68.6302 128.01 68.9602C129.79 69.2902 131.23 69.5302 131.23 69.5002Z" fill="#263238"/>
<path d="M135.83 76.0696C135.83 76.0596 135.75 76.0696 135.6 76.0796C135.43 76.0996 135.23 76.1196 134.98 76.1396C134.46 76.1896 133.74 76.2596 132.94 76.2996C132.14 76.3496 131.42 76.3696 130.9 76.3796C130.66 76.3796 130.45 76.3896 130.28 76.3896C130.13 76.3896 130.05 76.3996 130.05 76.4096C130.05 76.4196 130.13 76.4296 130.28 76.4296C130.43 76.4396 130.64 76.4496 130.9 76.4496C131.42 76.4596 132.15 76.4496 132.95 76.3996C133.75 76.3496 134.47 76.2696 134.99 76.1996C135.25 76.1596 135.46 76.1296 135.6 76.1096C135.75 76.0896 135.83 76.0696 135.83 76.0696Z" fill="#263238"/>
<path d="M137.98 71.1504C137.97 71.1504 137.94 71.2104 137.87 71.3304C137.81 71.4504 137.72 71.6304 137.62 71.8504C137.41 72.2904 137.13 72.8904 136.83 73.5704C136.53 74.2404 136.25 74.8504 136.06 75.3004C135.96 75.5204 135.89 75.7004 135.84 75.8304C135.79 75.9604 135.77 76.0304 135.77 76.0304C135.78 76.0304 135.81 75.9704 135.88 75.8504C135.94 75.7304 136.03 75.5504 136.13 75.3304C136.34 74.8904 136.62 74.2904 136.92 73.6104C137.22 72.9404 137.5 72.3304 137.69 71.8804C137.79 71.6604 137.86 71.4804 137.91 71.3504C137.96 71.2204 137.99 71.1504 137.98 71.1504Z" fill="#263238"/>
<path d="M142.77 76.4297C142.76 76.4297 142.72 76.5097 142.64 76.6697C142.55 76.8397 142.45 77.0697 142.32 77.3297C142.05 77.8897 141.68 78.6597 141.28 79.5197C140.88 80.3797 140.53 81.1597 140.27 81.7197C140.15 81.9897 140.05 82.2197 139.98 82.3897C139.91 82.5497 139.88 82.6397 139.89 82.6397C139.9 82.6397 139.94 82.5597 140.02 82.3997C140.11 82.2297 140.21 81.9997 140.34 81.7397C140.61 81.1797 140.98 80.4097 141.38 79.5497C141.78 78.6897 142.13 77.9097 142.39 77.3497C142.51 77.0797 142.61 76.8497 142.68 76.6797C142.74 76.5197 142.77 76.4297 142.77 76.4297Z" fill="#263238"/>
<path d="M139.91 82.4797C139.91 82.4697 139.81 82.4797 139.62 82.4897C139.41 82.4997 139.15 82.5197 138.83 82.5397C138.17 82.5797 137.25 82.6297 136.24 82.6697C135.23 82.6997 134.31 82.7097 133.65 82.7097C133.33 82.7097 133.07 82.7097 132.86 82.7097C132.67 82.7097 132.57 82.7197 132.57 82.7197C132.57 82.7297 132.67 82.7397 132.86 82.7497C133.05 82.7597 133.31 82.7697 133.65 82.7797C134.31 82.7997 135.23 82.7997 136.25 82.7697C137.26 82.7397 138.18 82.6697 138.84 82.6097C139.17 82.5797 139.44 82.5497 139.62 82.5297C139.81 82.4997 139.91 82.4797 139.91 82.4797Z" fill="#263238"/>
<path d="M242.08 85.4498C240.93 84.9198 239.55 84.9998 238.38 85.4798C237.2 85.9598 236.21 86.7998 235.36 87.7498C233.73 89.5798 232.82 92.2598 232.36 94.6698C235.07 94.9998 237.71 93.2698 239 92.2998C241.03 90.7798 243.78 86.7898 242.08 85.4498Z" fill="#F8BF2A"/>
<path d="M227.47 95.6097C228.76 95.0297 229.61 93.6497 229.71 92.2297C229.81 90.8197 229.22 89.3997 228.27 88.3497C227.83 87.8597 227.25 87.4197 226.59 87.4497C225.98 87.4797 225.45 87.9397 225.19 88.4997C224.93 89.0597 224.91 89.6897 224.97 90.2997C225.18 92.4097 225.76 94.3897 227.47 95.6097Z" fill="#F8BF2A"/>
<path d="M223.91 102.439C223.93 102.449 224.05 102.309 224.25 102.049C224.45 101.789 224.74 101.409 225.09 100.919C225.77 99.9495 226.69 98.5695 227.31 96.8495C227.93 95.1295 227.98 93.4095 227.72 92.2395C227.6 91.6495 227.42 91.1995 227.27 90.8995C227.12 90.5995 227.02 90.4495 227 90.4595C226.95 90.4795 227.33 91.1195 227.52 92.2795C227.72 93.4295 227.64 95.0795 227.04 96.7595C226.43 98.4395 225.55 99.8195 224.91 100.809C224.29 101.809 223.88 102.419 223.91 102.439Z" fill="#263238"/>
<path d="M239.64 88.2494C239.63 88.2394 239.38 88.4194 238.95 88.7494C238.52 89.0894 237.91 89.5894 237.15 90.2094C235.65 91.4594 233.6 93.2194 231.38 95.2194C229.17 97.2194 227.21 99.0794 225.81 100.449C225.11 101.129 224.55 101.699 224.17 102.089C223.79 102.479 223.59 102.709 223.6 102.719C223.61 102.729 223.84 102.539 224.25 102.169C224.69 101.769 225.26 101.229 225.95 100.589C227.38 99.2594 229.36 97.4194 231.57 95.4194C233.78 93.4194 235.81 91.6394 237.28 90.3494C237.99 89.7294 238.57 89.2094 239.02 88.8194C239.43 88.4794 239.65 88.2694 239.64 88.2494Z" fill="#263238"/>
<path d="M229.03 99.3096C231.51 97.6396 234.81 97.2696 237.6 98.3496C238.31 98.6296 239.08 99.1296 239.09 99.8996C239.1 100.66 238.35 101.2 237.64 101.48C234.7 102.66 231.06 101.83 228.92 99.4896" fill="#F8BF2A"/>
<path d="M235.75 99.7402C235.76 99.7202 235.6 99.6502 235.31 99.5202C235.16 99.4502 234.98 99.3802 234.77 99.3202C234.55 99.2602 234.31 99.1702 234.03 99.1202C233.48 98.9802 232.8 98.9002 232.04 98.8702C231.28 98.8602 230.45 98.9202 229.6 99.1002C228.75 99.2902 227.96 99.5702 227.27 99.8802C226.59 100.21 226.01 100.56 225.55 100.91C225.31 101.07 225.13 101.25 224.95 101.4C224.78 101.54 224.64 101.68 224.53 101.8C224.31 102.03 224.2 102.17 224.21 102.18C224.25 102.22 224.73 101.71 225.65 101.07C226.11 100.75 226.69 100.42 227.36 100.11C228.04 99.8202 228.81 99.5502 229.64 99.3702C230.47 99.2002 231.29 99.1302 232.02 99.1302C232.76 99.1402 233.42 99.2102 233.97 99.3202C235.09 99.5102 235.73 99.7902 235.75 99.7402Z" fill="#263238"/>
<path d="M227.98 24.0693H141.3V119.119H227.98V24.0693Z" fill="#FAFAFA"/>
<path d="M227.98 119.11C227.98 118.43 227.95 80.8597 227.9 24.0597L227.98 24.1397C202.56 24.1397 172.87 24.1497 141.31 24.1497H141.3L141.39 24.0597C141.39 59.0297 141.38 91.6997 141.38 119.11L141.3 119.03C193.43 119.08 227.34 119.11 227.98 119.11C227.34 119.11 193.42 119.14 141.3 119.19H141.22V119.11C141.22 91.6997 141.21 59.0397 141.21 24.0597V23.9697H141.3H141.31C172.88 23.9697 202.56 23.9797 227.98 23.9797H228.06V24.0597C228.01 80.8697 227.98 118.44 227.98 119.11Z" fill="#263238"/>
<path d="M209.86 92.1398C209.86 92.1898 198.84 92.2298 185.24 92.2298C171.64 92.2298 160.62 92.1898 160.62 92.1398C160.62 92.0898 171.64 92.0498 185.24 92.0498C198.84 92.0498 209.86 92.0898 209.86 92.1398Z" fill="#263238"/>
<path d="M217.57 95.1193C217.57 95.1693 203.1 95.2093 185.25 95.2093C167.4 95.2093 152.93 95.1693 152.93 95.1193C152.93 95.0693 167.4 95.0293 185.25 95.0293C203.1 95.0293 217.57 95.0693 217.57 95.1193Z" fill="#263238"/>
<path d="M145.37 27.7593C145.37 28.1693 145.04 28.4893 144.64 28.4893C144.23 28.4893 143.91 28.1593 143.91 27.7593C143.91 27.3493 144.24 27.0293 144.64 27.0293C145.05 27.0293 145.37 27.3593 145.37 27.7593Z" fill="#E0E0E0"/>
<path d="M147.09 28.4893C147.493 28.4893 147.82 28.1625 147.82 27.7593C147.82 27.3561 147.493 27.0293 147.09 27.0293C146.687 27.0293 146.36 27.3561 146.36 27.7593C146.36 28.1625 146.687 28.4893 147.09 28.4893Z" fill="#E0E0E0"/>
<path d="M150.27 27.7593C150.27 28.1693 149.94 28.4893 149.54 28.4893C149.13 28.4893 148.81 28.1593 148.81 27.7593C148.81 27.3493 149.14 27.0293 149.54 27.0293C149.94 27.0293 150.27 27.3593 150.27 27.7593Z" fill="#E0E0E0"/>
<path d="M205.78 110.42H170.18C168.12 110.42 166.44 108.75 166.44 106.68V103.19C166.44 101.13 168.11 99.4502 170.18 99.4502H205.78C207.84 99.4502 209.52 101.12 209.52 103.19V106.68C209.52 108.74 207.84 110.42 205.78 110.42Z" fill="#E8505B"/>
<path d="M205.78 110.42H170.18C168.12 110.42 166.44 108.75 166.44 106.68V103.19C166.44 101.13 168.11 99.4502 170.18 99.4502H205.78C207.84 99.4502 209.52 101.12 209.52 103.19V106.68C209.52 108.74 207.84 110.42 205.78 110.42Z" fill="#136D2A"/>
<path d="M202.16 110.42H166.56C164.5 110.42 162.82 108.75 162.82 106.68V103.19C162.82 101.13 164.49 99.4502 166.56 99.4502H202.16C204.22 99.4502 205.9 101.12 205.9 103.19V106.68C205.9 108.74 204.23 110.42 202.16 110.42Z" fill="#268C44"/>
<path d="M171.211 105.808H169.464L169.072 106.896H168.505L170.097 102.726H170.578L172.174 106.896H171.61L171.211 105.808ZM169.63 105.355H171.048L170.338 103.405L169.63 105.355ZM173.199 103.797V107.255C173.199 107.85 172.929 108.148 172.389 108.148C172.272 108.148 172.164 108.131 172.065 108.097V107.673C172.126 107.688 172.206 107.696 172.306 107.696C172.424 107.696 172.514 107.663 172.575 107.598C172.638 107.535 172.67 107.425 172.67 107.266V103.797H173.199ZM172.615 102.975C172.615 102.891 172.641 102.819 172.692 102.76C172.746 102.699 172.823 102.668 172.924 102.668C173.028 102.668 173.106 102.698 173.159 102.757C173.213 102.816 173.24 102.889 173.24 102.975C173.24 103.061 173.213 103.133 173.159 103.19C173.106 103.247 173.028 103.276 172.924 103.276C172.821 103.276 172.744 103.247 172.692 103.19C172.641 103.133 172.615 103.061 172.615 102.975ZM175.969 106.896C175.939 106.835 175.914 106.727 175.895 106.57C175.649 106.826 175.355 106.954 175.013 106.954C174.707 106.954 174.456 106.868 174.259 106.696C174.065 106.522 173.967 106.303 173.967 106.037C173.967 105.714 174.089 105.464 174.334 105.287C174.58 105.107 174.926 105.017 175.371 105.017H175.886V104.774C175.886 104.589 175.831 104.442 175.72 104.333C175.609 104.222 175.446 104.167 175.23 104.167C175.041 104.167 174.883 104.214 174.755 104.31C174.627 104.405 174.563 104.521 174.563 104.656H174.03C174.03 104.502 174.085 104.353 174.193 104.21C174.304 104.064 174.453 103.95 174.64 103.866C174.829 103.782 175.037 103.74 175.262 103.74C175.619 103.74 175.899 103.83 176.101 104.009C176.304 104.187 176.409 104.432 176.416 104.745V106.172C176.416 106.456 176.453 106.683 176.525 106.851V106.896H175.969ZM175.09 106.493C175.256 106.493 175.414 106.45 175.563 106.364C175.712 106.278 175.82 106.166 175.886 106.029V105.393H175.471C174.822 105.393 174.497 105.583 174.497 105.963C174.497 106.129 174.552 106.259 174.663 106.352C174.774 106.446 174.916 106.493 175.09 106.493ZM178.112 105.461L177.78 105.808V106.896H177.25V102.497H177.78V105.158L178.063 104.817L179.029 103.797H179.673L178.467 105.092L179.814 106.896H179.192L178.112 105.461ZM184.526 103.178H183.185V106.896H182.638V103.178H181.3V102.726H184.526V103.178ZM186.061 106.954C185.641 106.954 185.299 106.816 185.036 106.541C184.772 106.264 184.64 105.895 184.64 105.433V105.335C184.64 105.028 184.699 104.754 184.815 104.513C184.933 104.271 185.098 104.082 185.308 103.946C185.52 103.809 185.749 103.74 185.995 103.74C186.398 103.74 186.711 103.873 186.935 104.138C187.158 104.403 187.27 104.783 187.27 105.278V105.499H185.17C185.178 105.804 185.267 106.051 185.437 106.241C185.608 106.428 185.826 106.521 186.09 106.521C186.277 106.521 186.435 106.483 186.565 106.407C186.695 106.33 186.809 106.229 186.906 106.103L187.23 106.355C186.97 106.754 186.58 106.954 186.061 106.954ZM185.995 104.175C185.781 104.175 185.602 104.254 185.457 104.41C185.312 104.565 185.222 104.782 185.187 105.063H186.74V105.023C186.725 104.754 186.652 104.546 186.522 104.399C186.392 104.25 186.217 104.175 185.995 104.175ZM188.384 103.797L188.398 104.141C188.626 103.873 188.932 103.74 189.318 103.74C189.751 103.74 190.047 103.906 190.203 104.238C190.306 104.089 190.44 103.969 190.604 103.877C190.77 103.786 190.966 103.74 191.191 103.74C191.871 103.74 192.217 104.1 192.228 104.82V106.896H191.698V104.851C191.698 104.63 191.648 104.465 191.547 104.356C191.445 104.245 191.275 104.19 191.037 104.19C190.84 104.19 190.677 104.249 190.547 104.367C190.417 104.484 190.342 104.641 190.321 104.84V106.896H189.788V104.866C189.788 104.415 189.567 104.19 189.126 104.19C188.779 104.19 188.541 104.338 188.413 104.634V106.896H187.883V103.797H188.384ZM194.944 106.896C194.913 106.835 194.888 106.727 194.869 106.57C194.623 106.826 194.329 106.954 193.987 106.954C193.682 106.954 193.43 106.868 193.234 106.696C193.039 106.522 192.942 106.303 192.942 106.037C192.942 105.714 193.064 105.464 193.308 105.287C193.555 105.107 193.9 105.017 194.345 105.017H194.861V104.774C194.861 104.589 194.805 104.442 194.695 104.333C194.584 104.222 194.421 104.167 194.205 104.167C194.016 104.167 193.857 104.214 193.729 104.31C193.601 104.405 193.537 104.521 193.537 104.656H193.005C193.005 104.502 193.059 104.353 193.168 104.21C193.279 104.064 193.428 103.95 193.615 103.866C193.804 103.782 194.011 103.74 194.236 103.74C194.593 103.74 194.873 103.83 195.076 104.009C195.278 104.187 195.383 104.432 195.391 104.745V106.172C195.391 106.456 195.427 106.683 195.5 106.851V106.896H194.944ZM194.064 106.493C194.231 106.493 194.388 106.45 194.537 106.364C194.686 106.278 194.794 106.166 194.861 106.029V105.393H194.445C193.796 105.393 193.472 105.583 193.472 105.963C193.472 106.129 193.527 106.259 193.638 106.352C193.748 106.446 193.891 106.493 194.064 106.493ZM196.723 103.797L196.74 104.187C196.977 103.889 197.286 103.74 197.668 103.74C198.323 103.74 198.653 104.109 198.659 104.848V106.896H198.129V104.846C198.127 104.622 198.076 104.457 197.975 104.35C197.875 104.243 197.72 104.19 197.508 104.19C197.336 104.19 197.185 104.235 197.055 104.327C196.925 104.419 196.824 104.539 196.751 104.688V106.896H196.221V103.797H196.723Z" fill="white"/>
<path d="M220.29 43.8599L221.72 38.7199C221.72 38.7199 222.23 36.6299 222.36 36.1399C222.52 35.4899 222.07 35.2899 221.8 35.7299C221.7 35.8999 220.57 38.0199 220.57 38.0199C220.57 38.0199 221.47 34.5399 221.5 34.4099C221.79 33.2699 221.09 33.3899 220.88 33.7999C220.67 34.2199 219.39 37.6499 219.39 37.6499C220.59 33.1699 220.21 32.7799 219.88 32.7099C219.54 32.6399 218.49 36.7299 218.49 36.7299C218.49 36.7299 218.11 36.0299 217.41 35.5499C216.33 34.8099 214.53 35.5499 214.44 36.0599C214.35 36.5699 215 36.7099 215 36.7099C216.35 35.8399 217.74 36.8899 217.6 38.1899C217.46 39.4799 215.82 39.2999 215.62 38.3799C215.17 36.3599 214.48 37.0199 214.48 37.0199L215.18 41.4699L214.44 43.7099" fill="#FFBE9D"/>
<path d="M168.95 64.8204L199.77 64.6104L200.61 85.5603L168.71 85.2504L168.95 64.8204Z" fill="#455A64"/>
<path d="M168.95 64.8199L184.6 52.1699L199.77 64.6099" fill="#263238"/>
<path d="M168.71 85.2498C168.67 85.2098 171.14 82.5198 174.22 79.2398C177.3 75.9498 179.83 73.3198 179.87 73.3598C179.91 73.3998 177.44 76.0898 174.36 79.3698C171.28 82.6498 168.74 85.2798 168.71 85.2498Z" fill="#263238"/>
<path d="M200.61 85.5599C200.57 85.5899 198.17 82.9499 195.25 79.6599C192.33 76.3699 189.99 73.6699 190.03 73.6399C190.07 73.6099 192.47 76.2499 195.39 79.5399C198.32 82.8299 200.65 85.5299 200.61 85.5599Z" fill="#263238"/>
<path d="M199.77 64.6104L184.29 76.9603L168.95 64.8204" fill="#263238"/>
<path d="M148.36 41.1999H148.46L148.05 39.8199L146.73 34.5499C146.6 34.0699 146.87 33.5799 147.35 33.3999L148.3 33.3699L151.55 31.8499C152.16 31.6199 152.84 32.0099 152.92 32.6399C153.04 33.6099 153.7 36.2099 154.4 35.2999C154.42 35.2799 154.43 35.2599 154.45 35.2399C155.44 33.8799 156.66 33.1499 157.17 33.1699C157.66 33.1899 157.84 33.7899 157.51 34.1399C157.46 34.1999 157.4 34.2599 157.32 34.2999C157.29 34.3199 157.25 34.3499 157.21 34.3699C156.83 34.6799 156.37 35.2199 156.04 35.6599C155.72 36.0699 155.48 36.5399 155.32 37.0299C155.15 37.5799 155.02 38.0599 154.92 38.4599L155.17 41.1499" fill="#FFBE9D"/>
<path d="M157.04 17.3398C157.04 17.3398 153.24 16.6098 147.77 11.6498C142.31 6.68983 139.62 -0.0301711 138.97 0.0198289C138.32 0.0698289 135.44 -1.17017 130.37 10.7498C125.3 22.6598 127.5 25.3298 128.58 25.2798C129.66 25.2298 136.9 22.9798 141.48 23.3698C146.06 23.7598 151.99 25.9698 151.99 25.9698L157.04 17.3398Z" fill="#455A64"/>
<path d="M165.25 23.5202L164.03 26.0102L163.48 27.1202C162.73 28.6502 160.92 29.3202 159.35 28.6502L151.17 26.0602L155.58 15.1602L163.79 19.2402C165.38 20.0302 166.03 21.9402 165.25 23.5202Z" fill="#263238"/>
<path d="M160.69 27.5795L158.25 32.7095L156.95 32.3895L148.71 39.4895L146.22 34.9395C146.22 34.9395 151.14 32.6495 152.01 30.8495C152.88 29.0495 151.8 28.6695 151.8 28.6695L154.07 25.9395L160.69 27.5795Z" fill="#263238"/>
<path d="M130.81 10.9398C128.11 17.3898 127.08 23.0998 128.49 23.6898C129.91 24.2798 133.24 19.5298 135.94 13.0798C138.64 6.6298 139.67 0.919796 138.26 0.329796C136.84 -0.260204 133.51 4.4898 130.81 10.9398Z" fill="#263238"/>
<path d="M166.05 27.04L163.83 26.42L165.12 23.79L166.79 24.77L166.05 27.04Z" fill="#455A64"/>
<path d="M153.31 26.8799L159.32 30.4699L160.01 29.0099L153.31 26.8799Z" fill="#455A64"/>
<path d="M165.12 23.79L163.83 26.42L164.29 26.54L165.32 23.91L165.12 23.79Z" fill="#455A64"/>
<path d="M163.62 24.4295C163.59 24.4995 162.48 24.1095 161.15 23.5495C159.81 22.9895 158.75 22.4795 158.78 22.4095C158.81 22.3395 159.92 22.7295 161.25 23.2895C162.59 23.8495 163.65 24.3595 163.62 24.4295Z" fill="#455A64"/>
<path d="M164.25 22.8695C164.22 22.9395 163.21 22.5495 162.01 21.9995C160.8 21.4495 159.85 20.9395 159.89 20.8695C159.92 20.7995 160.93 21.1895 162.13 21.7395C163.34 22.2995 164.29 22.7995 164.25 22.8695Z" fill="#455A64"/>
<path d="M162.82 26.07C162.81 26.11 162.55 26.05 162.13 25.94C161.92 25.88 161.67 25.81 161.4 25.72C161.13 25.63 160.84 25.5 160.54 25.37C159.32 24.85 158.39 24.33 158.42 24.26C158.45 24.18 159.45 24.59 160.65 25.11C160.95 25.24 161.23 25.38 161.5 25.48C161.77 25.58 162 25.67 162.2 25.75C162.58 25.91 162.83 26.03 162.82 26.07Z" fill="#455A64"/>
<path d="M136.64 9.36024C136.64 9.36024 133.3 7.42024 131.63 11.9102C129.96 16.4002 133.44 17.0302 133.44 17.0302C134.78 14.7902 135.86 12.2502 136.64 9.36024Z" fill="#455A64"/>
<path d="M139.98 3.96973C140 3.96973 139.96 4.27973 139.88 4.81973C139.79 5.36973 139.67 6.15973 139.48 7.12973C139.35 7.60973 139.22 8.12973 139.07 8.69973C139 8.97973 138.92 9.26973 138.84 9.56973C138.8 9.71973 138.76 9.86973 138.72 10.0297C138.68 10.1797 138.62 10.3297 138.56 10.4897C138.34 11.1097 138.11 11.7497 137.87 12.4297C137.81 12.5997 137.75 12.7697 137.69 12.9397C137.63 13.1097 137.55 13.2697 137.47 13.4397C137.32 13.7797 137.17 14.1197 137.01 14.4597C136.85 14.7997 136.7 15.1397 136.55 15.4797C136.47 15.6497 136.41 15.8197 136.32 15.9797C136.23 16.1397 136.15 16.2997 136.06 16.4497C135.71 17.0697 135.38 17.6697 135.06 18.2497C134.98 18.3897 134.91 18.5397 134.82 18.6697C134.73 18.7997 134.64 18.9297 134.56 19.0597C134.39 19.3197 134.22 19.5697 134.06 19.8097C133.74 20.2897 133.43 20.7397 133.16 21.1497C132.55 21.9297 132.04 22.5397 131.69 22.9697C131.34 23.3997 131.14 23.6197 131.12 23.6097C131.1 23.5997 131.28 23.3497 131.6 22.8997C131.94 22.4497 132.41 21.8097 132.99 21.0197C133.26 20.6097 133.55 20.1497 133.86 19.6697C134.02 19.4297 134.18 19.1797 134.35 18.9197C134.43 18.7897 134.52 18.6597 134.6 18.5297C134.68 18.3997 134.75 18.2497 134.83 18.1097C135.14 17.5397 135.47 16.9397 135.81 16.3197C135.89 16.1597 135.98 16.0097 136.07 15.8497C136.16 15.6897 136.22 15.5197 136.3 15.3597C136.45 15.0297 136.6 14.6897 136.76 14.3497C136.91 14.0097 137.07 13.6697 137.22 13.3397C137.29 13.1697 137.38 13.0097 137.44 12.8397C137.5 12.6697 137.56 12.4997 137.62 12.3397C137.86 11.6797 138.1 11.0297 138.32 10.4197C138.37 10.2697 138.44 10.1197 138.48 9.96973C138.52 9.81973 138.56 9.66973 138.61 9.51973C138.69 9.21973 138.77 8.93973 138.85 8.65973C139.01 8.09973 139.16 7.58973 139.29 7.10973C139.49 6.15973 139.66 5.37973 139.77 4.82973C139.89 4.26973 139.96 3.96973 139.98 3.96973Z" fill="#263238"/>
<path d="M159.73 52.99L156.33 40.07L147.83 40.29L150.47 58.32C150.81 62.24 153.12 64.81 157 65.44C159.33 65.81 161.86 63.59 163.73 62.15C164.95 61.21 165.17 61.4 166.43 60.25L171.9 56.29L172.03 56.94H171.99L172.92 67.96L184.26 76.86L197.78 66.02L197.47 61.33C197.5 61.33 197.54 61.26 197.47 61.26L197.12 55.95L204.05 63.9C205.64 66.23 208.36 67.53 211.17 67.32C214.21 67.09 216.85 65.13 217.95 62.28L221.52 44.12L213.69 42.43L210.02 55.52L201.27 45.46C196.22 38.88 190.33 39.44 190.33 39.44L179.47 39.25C179.46 39.25 179.45 39.25 179.45 39.25C179.13 39.27 173.06 39.45 168.94 43.85L159.73 52.99Z" fill="#268C44"/>
<path d="M201.73 46.1899C201.72 46.1999 201.61 46.1299 201.38 46.0599C201.15 45.9899 200.79 45.9199 200.33 45.9499C199.87 45.9899 199.32 46.1299 198.72 46.4099C198.12 46.6799 197.5 47.0999 196.77 47.5199C196.05 47.9199 195.19 48.3699 194.17 48.3399C193.67 48.3199 193.16 48.1799 192.68 47.9899C192.19 47.7999 191.71 47.5599 191.2 47.3599C190.2 46.9499 189.02 46.8099 187.86 47.0399C186.69 47.2599 185.62 47.9199 184.53 48.5499C183.98 48.8699 183.42 49.1699 182.84 49.3999C182.26 49.6299 181.65 49.7699 181.05 49.8399C179.84 49.9699 178.65 49.7899 177.63 49.3599C176.6 48.9399 175.73 48.3299 174.94 47.7599C174.15 47.1899 173.42 46.6399 172.7 46.2299C171.98 45.8199 171.28 45.5399 170.65 45.3799C170.01 45.2299 169.44 45.1999 168.98 45.2399C168.06 45.3399 167.61 45.6599 167.61 45.6299C167.61 45.6299 167.64 45.6099 167.69 45.5799C167.75 45.5499 167.83 45.4999 167.94 45.4499C168.17 45.3599 168.51 45.2299 168.98 45.1699C169.45 45.1099 170.03 45.1399 170.68 45.2799C171.33 45.4299 172.04 45.6999 172.77 46.1099C173.5 46.5199 174.24 47.0699 175.03 47.6299C175.83 48.1899 176.69 48.7899 177.7 49.1999C178.71 49.6099 179.87 49.7799 181.04 49.6499C181.63 49.5899 182.22 49.4499 182.79 49.2199C183.36 48.9999 183.91 48.6999 184.46 48.3799C185.55 47.7499 186.64 47.0799 187.85 46.8499C189.04 46.6099 190.26 46.7599 191.28 47.1899C192.3 47.6099 193.23 48.1399 194.2 48.1699C195.17 48.1999 196.01 47.7799 196.73 47.3799C197.45 46.9699 198.08 46.5499 198.7 46.2899C199.31 46.0199 199.87 45.8799 200.34 45.8499C200.81 45.8199 201.17 45.9099 201.4 45.9899C201.62 46.1199 201.73 46.1899 201.73 46.1899Z" fill="#FAFAFA"/>
<path d="M208.03 52.6295C208.03 52.6295 208 52.8095 207.84 53.1095C207.69 53.4095 207.39 53.8295 206.86 54.1995C206.34 54.5695 205.59 54.8895 204.68 54.9695C203.77 55.0695 202.73 54.9595 201.6 54.8295C200.48 54.7195 199.2 54.5795 197.94 54.9895C197.31 55.1995 196.72 55.5595 196.12 55.9395C195.52 56.3195 194.91 56.7495 194.21 57.0495C192.82 57.6595 191.17 57.8895 189.54 57.5995C188.72 57.4595 187.92 57.1695 187.17 56.7695C186.42 56.3695 185.71 55.8595 184.99 55.3895C184.26 54.9195 183.52 54.4895 182.72 54.2495C181.92 54.0095 181.08 53.9795 180.28 54.0995C178.67 54.3295 177.21 54.9795 175.75 55.3795C175.02 55.5895 174.29 55.7295 173.57 55.7495C172.85 55.7595 172.14 55.6595 171.51 55.3995C170.24 54.8795 169.31 53.9895 168.48 53.2195C167.65 52.4395 166.89 51.7395 166.12 51.2795C165.36 50.8095 164.59 50.5995 163.96 50.5395C163.33 50.4895 162.84 50.5995 162.53 50.7095C162.22 50.8295 162.07 50.9295 162.06 50.9095C162.06 50.9095 162.2 50.7995 162.51 50.6695C162.82 50.5495 163.32 50.4195 163.96 50.4595C164.6 50.4995 165.38 50.7095 166.16 51.1795C166.95 51.6395 167.72 52.3395 168.55 53.1195C169.38 53.8795 170.31 54.7595 171.54 55.2595C172.15 55.5095 172.84 55.5995 173.54 55.5895C174.24 55.5695 174.96 55.4295 175.68 55.2195C176.4 55.0195 177.13 54.7595 177.88 54.5195C178.63 54.2795 179.41 54.0395 180.23 53.9295C181.05 53.8095 181.92 53.8395 182.74 54.0895C183.57 54.3295 184.32 54.7795 185.06 55.2495C185.79 55.7195 186.49 56.2195 187.23 56.6195C187.97 57.0195 188.75 57.2995 189.55 57.4395C191.15 57.7295 192.76 57.5095 194.13 56.9095C195.49 56.3095 196.57 55.2795 197.88 54.8495C198.53 54.6295 199.19 54.5695 199.81 54.5695C200.44 54.5695 201.03 54.6295 201.6 54.6995C202.73 54.8395 203.76 54.9495 204.65 54.8595C205.55 54.7795 206.28 54.4895 206.8 54.1295C207.33 53.7795 207.63 53.3695 207.79 53.0795C207.97 52.7995 208.02 52.6295 208.03 52.6295Z" fill="#FAFAFA"/>
<path d="M217.94 61.3592C217.92 61.3692 217.81 61.1692 217.47 60.9692C217.14 60.7692 216.55 60.6092 215.86 60.7292C215.16 60.8492 214.43 61.2992 213.69 61.8892C213.32 62.1792 212.93 62.4992 212.49 62.7792C212.05 63.0592 211.56 63.3192 211 63.4192C210.45 63.5292 209.89 63.4792 209.38 63.3792C208.87 63.2692 208.39 63.1092 207.94 62.9592C207.49 62.8092 207.07 62.6492 206.67 62.5492C206.27 62.4492 205.88 62.3792 205.53 62.3592C204.82 62.3092 204.25 62.4392 203.9 62.6192C203.54 62.7892 203.39 62.9592 203.37 62.9392C203.37 62.9392 203.4 62.8992 203.48 62.8192C203.52 62.7792 203.57 62.7392 203.63 62.6992C203.69 62.6492 203.77 62.5992 203.86 62.5592C204.21 62.3492 204.8 62.1992 205.53 62.2292C205.89 62.2492 206.29 62.3092 206.7 62.4092C207.11 62.5092 207.54 62.6592 207.99 62.8092C208.88 63.0992 209.9 63.4492 210.96 63.2492C211.48 63.1492 211.96 62.9092 212.39 62.6392C212.82 62.3592 213.2 62.0492 213.58 61.7592C214.33 61.1792 215.09 60.7192 215.83 60.6092C216.56 60.4992 217.16 60.6892 217.5 60.9192C217.67 61.0292 217.78 61.1492 217.85 61.2292C217.91 61.3092 217.94 61.3592 217.94 61.3592Z" fill="#FAFAFA"/>
<path d="M219.66 51.4999C219.66 51.5099 219.57 51.5899 219.37 51.6799C219.17 51.7799 218.85 51.8799 218.45 51.9099C218.05 51.9399 217.56 51.9099 217.05 51.7799C216.53 51.6599 215.99 51.4499 215.42 51.2399C214.86 51.0299 214.31 50.8399 213.81 50.7599C213.3 50.6699 212.83 50.6799 212.45 50.7499C211.68 50.8899 211.32 51.2799 211.3 51.2499C211.29 51.2399 211.37 51.1399 211.55 51.0099C211.73 50.8799 212.03 50.7199 212.42 50.6299C212.81 50.5399 213.3 50.5199 213.83 50.5999C214.36 50.6799 214.91 50.8699 215.48 51.0799C216.05 51.2899 216.58 51.4999 217.08 51.6299C217.58 51.7599 218.05 51.8099 218.44 51.7899C219.22 51.7599 219.65 51.4699 219.66 51.4999Z" fill="#FAFAFA"/>
<path d="M196.92 64.4692C196.91 64.4892 196.62 64.2792 196.02 64.0592C195.43 63.8492 194.5 63.6592 193.37 63.7892C192.24 63.8892 190.94 64.3292 189.59 64.9892C188.23 65.6292 186.79 66.4892 185.11 67.0292C184.27 67.2992 183.42 67.4692 182.59 67.4692C181.76 67.4692 180.96 67.2992 180.24 67.0592C179.51 66.8292 178.85 66.5392 178.24 66.2592C177.62 65.9892 177.06 65.7292 176.53 65.5192C175.48 65.0892 174.57 64.8892 173.94 64.8392C173.78 64.8292 173.64 64.8192 173.52 64.8092C173.4 64.8092 173.3 64.8192 173.21 64.8192C173.04 64.8192 172.95 64.8192 172.95 64.8192C172.95 64.8092 173.04 64.7992 173.2 64.7892C173.29 64.7792 173.39 64.7692 173.51 64.7592C173.63 64.7592 173.78 64.7692 173.94 64.7692C174.58 64.7992 175.51 64.9792 176.57 65.3992C177.11 65.5992 177.68 65.8592 178.3 66.1192C178.92 66.3892 179.57 66.6692 180.29 66.8892C181 67.1192 181.78 67.2792 182.59 67.2792C183.4 67.2792 184.24 67.1092 185.06 66.8492C186.71 66.3192 188.15 65.4692 189.52 64.8292C190.88 64.1792 192.21 63.7392 193.36 63.6492C194.51 63.5392 195.45 63.7492 196.04 63.9792C196.65 64.2292 196.92 64.4692 196.92 64.4692Z" fill="#FAFAFA"/>
<path d="M150.08 55.6993C150.08 55.6993 150.13 55.6593 150.24 55.6193C150.35 55.5893 150.54 55.5693 150.76 55.6393C150.98 55.7093 151.23 55.8593 151.44 56.1093C151.65 56.3593 151.81 56.6893 151.98 57.0393C152.15 57.3893 152.39 57.7493 152.74 58.0493C153.08 58.3493 153.52 58.5793 154.01 58.7493C155 59.0793 156.16 59.0993 157.35 58.9093C158.54 58.7393 159.68 58.4893 160.75 58.4993C161.82 58.4793 162.77 58.7993 163.44 59.2493C164.12 59.6893 164.51 60.2593 164.67 60.6693C164.83 61.0893 164.81 61.3493 164.81 61.3493C164.79 61.3493 164.78 61.0993 164.6 60.6993C164.43 60.2993 164.04 59.7593 163.37 59.3593C162.71 58.9393 161.79 58.6493 160.75 58.6693C159.71 58.6693 158.58 58.9093 157.37 59.0893C156.17 59.2793 154.97 59.2593 153.95 58.9093C153.45 58.7293 152.99 58.4893 152.64 58.1593C152.28 57.8393 152.03 57.4593 151.87 57.0993C151.7 56.7393 151.55 56.4193 151.36 56.1693C151.17 55.9293 150.94 55.7793 150.74 55.7093C150.32 55.5593 150.08 55.7293 150.08 55.6993Z" fill="#FAFAFA"/>
<path d="M157.52 45.2291C157.5 45.2591 157.14 44.8291 156.32 44.6091C155.92 44.4991 155.42 44.4491 154.87 44.5091C154.32 44.5691 153.73 44.7591 153.14 45.0091C152.55 45.2591 152 45.5491 151.5 45.7991C151 46.0491 150.53 46.2591 150.12 46.3991C149.71 46.5391 149.37 46.6191 149.14 46.6491C148.9 46.6791 148.77 46.6791 148.77 46.6691C148.77 46.6391 149.29 46.5891 150.08 46.2791C150.47 46.1291 150.93 45.9091 151.43 45.6491C151.93 45.3891 152.47 45.0991 153.08 44.8391C153.68 44.5791 154.29 44.3991 154.86 44.3391C155.43 44.2791 155.95 44.3491 156.37 44.4791C156.78 44.6091 157.09 44.7991 157.27 44.9491C157.45 45.1091 157.53 45.2191 157.52 45.2291Z" fill="#FAFAFA"/>
<g opacity="0.3">
<g opacity="0.3">
<g opacity="0.3">
<path opacity="0.3" d="M182.35 75.3597C186.75 72.8097 191.85 69.8097 194.39 65.3997C196.02 62.5797 196.82 59.2097 197.14 55.9697L197.8 66.0397L184.28 76.8797L182.35 75.3597Z" fill="black"/>
</g>
</g>
</g>
<g opacity="0.2">
<g opacity="0.2">
<g opacity="0.2">
<path opacity="0.2" d="M170.94 42.0596C169.9 45.9196 167.91 49.2496 164.89 51.8696C164.16 52.4996 163.37 53.0896 162.46 53.4096C161.55 53.7296 160.49 53.7196 159.66 53.2296L159.73 52.9996L166.58 46.2096L170.94 42.0596Z" fill="black"/>
</g>
</g>
</g>
<path d="M160.6 58.3899C160.57 58.3799 160.68 58.0799 160.78 57.5799C160.87 57.0799 160.92 56.3699 160.8 55.5999C160.67 54.8299 160.4 54.1799 160.15 53.7299C159.9 53.2799 159.7 53.0399 159.72 53.0199C159.73 53.0099 159.97 53.2299 160.26 53.6699C160.54 54.1099 160.85 54.7799 160.98 55.5699C161.11 56.3599 161.04 57.0999 160.91 57.5999C160.78 58.1099 160.62 58.3999 160.6 58.3899Z" fill="#263238"/>
<path d="M158.64 56.6593C158.59 56.6293 159.19 55.9993 159.46 55.0093C159.74 54.0193 159.55 53.1793 159.61 53.1693C159.63 53.1593 159.71 53.3693 159.75 53.7093C159.79 54.0493 159.78 54.5393 159.64 55.0493C159.5 55.5593 159.26 55.9893 159.05 56.2593C158.82 56.5393 158.65 56.6793 158.64 56.6593Z" fill="#263238"/>
<path d="M171.4 49.5693C171.45 49.5693 171.73 52.2993 172.03 55.6793C172.33 59.0593 172.53 61.7993 172.48 61.7993C172.43 61.7993 172.15 59.0693 171.85 55.6893C171.55 52.3193 171.35 49.5793 171.4 49.5693Z" fill="#263238"/>
<path d="M189.71 39.0596C189.72 39.0596 189.74 39.1196 189.78 39.2396C189.83 39.3596 189.88 39.5496 189.93 39.7896C190.03 40.2696 190.08 41.0096 189.9 41.8796C189.71 42.7496 189.26 43.7596 188.4 44.5896C187.56 45.4296 186.27 45.9696 184.9 45.9996C183.53 46.0296 182.23 45.5496 181.34 44.7396C180.45 43.9496 179.96 42.9496 179.73 42.0996C179.51 41.2296 179.53 40.4996 179.61 40.0096C179.65 39.7596 179.69 39.5796 179.74 39.4496C179.78 39.3196 179.8 39.2596 179.81 39.2596C179.83 39.2696 179.74 39.5296 179.69 40.0096C179.63 40.4896 179.64 41.2196 179.87 42.0596C180.11 42.8896 180.6 43.8596 181.47 44.6096C182.33 45.3796 183.59 45.8396 184.91 45.8096C186.24 45.7796 187.47 45.2596 188.3 44.4596C189.14 43.6696 189.58 42.6796 189.79 41.8396C189.98 40.9896 189.95 40.2696 189.88 39.7896C189.79 39.3296 189.69 39.0696 189.71 39.0596Z" fill="#263238"/>
<path d="M209.63 59.7293C209.58 59.7293 209.5 58.7693 209.57 57.5793C209.64 56.3893 209.82 55.4393 209.87 55.4493C209.92 55.4593 209.81 56.4093 209.75 57.5893C209.69 58.7593 209.69 59.7293 209.63 59.7293Z" fill="#263238"/>
<path d="M211.01 60.3496C210.99 60.3596 210.87 60.0896 210.72 59.6496C210.57 59.2096 210.39 58.5796 210.24 57.8796C210.1 57.1796 210.01 56.5396 209.98 56.0696C209.94 55.5996 209.95 55.3096 209.97 55.3096C210.02 55.3096 210.13 56.4596 210.42 57.8396C210.7 59.2396 211.06 60.3296 211.01 60.3496Z" fill="#263238"/>
<path d="M197.14 60.5492C197.09 60.5492 196.98 58.6192 196.89 56.2292C196.8 53.8392 196.77 51.9092 196.82 51.9092C196.87 51.9092 196.98 53.8392 197.07 56.2292C197.16 58.6092 197.19 60.5492 197.14 60.5492Z" fill="#263238"/>
<path d="M184.85 45.4797C182.28 45.4297 180.19 43.3897 180.08 40.8197C180 38.9397 179.94 37.2097 179.94 37.2097C179.94 37.2097 176.01 36.7897 175.77 32.8897C175.53 28.9897 175.77 19.9897 175.77 19.9897C180.19 17.8297 185.44 18.2297 189.49 21.0397L190.09 21.4597L189.8 40.6797C189.76 43.3797 187.54 45.5297 184.85 45.4797Z" fill="#FFBE9D"/>
<path d="M179.93 37.1597C179.93 37.1597 182.41 37.2397 184.95 35.4697C184.95 35.4697 183.88 38.3397 179.97 38.1697L179.93 37.1597Z" fill="#EB996E"/>
<path d="M189.8 25.5293C189.87 25.4993 192.44 24.6093 192.49 27.2793C192.53 29.9493 189.84 29.4493 189.84 29.3693C189.84 29.2893 189.8 25.5293 189.8 25.5293Z" fill="#FFBE9D"/>
<path d="M190.64 28.3492C190.65 28.3392 190.69 28.3792 190.77 28.4192C190.85 28.4492 190.98 28.4792 191.12 28.4192C191.4 28.3092 191.63 27.8592 191.64 27.3792C191.64 27.1392 191.59 26.9092 191.5 26.7192C191.42 26.5292 191.29 26.3892 191.14 26.3692C191 26.3392 190.9 26.4292 190.87 26.4992C190.84 26.5792 190.85 26.6292 190.84 26.6292C190.83 26.6392 190.78 26.5892 190.8 26.4792C190.81 26.4292 190.84 26.3592 190.9 26.3092C190.96 26.2592 191.06 26.2292 191.16 26.2392C191.37 26.2492 191.55 26.4392 191.65 26.6492C191.76 26.8592 191.83 27.1192 191.82 27.3892C191.81 27.9292 191.54 28.4392 191.16 28.5592C190.97 28.6092 190.81 28.5592 190.73 28.4992C190.64 28.4092 190.63 28.3492 190.64 28.3492Z" fill="#EB996E"/>
<path d="M177.64 25.8997C177.63 26.1897 177.87 26.4497 178.18 26.4597C178.49 26.4797 178.74 26.2497 178.76 25.9597C178.77 25.6697 178.53 25.4097 178.22 25.3997C177.91 25.3797 177.65 25.5997 177.64 25.8997Z" fill="#313131"/>
<path d="M176.96 25.3398C177.03 25.4098 177.45 25.0998 178.05 25.0998C178.65 25.0898 179.09 25.3998 179.16 25.3298C179.19 25.2998 179.12 25.1698 178.93 25.0298C178.74 24.8898 178.42 24.7598 178.04 24.7598C177.67 24.7598 177.35 24.8998 177.17 25.0398C176.99 25.1798 176.92 25.3098 176.96 25.3398Z" fill="#263238"/>
<path d="M183.4 25.97C183.39 26.26 183.63 26.52 183.94 26.53C184.25 26.55 184.5 26.32 184.52 26.03C184.53 25.74 184.29 25.48 183.98 25.47C183.67 25.45 183.41 25.67 183.4 25.97Z" fill="#313131"/>
<path d="M182.86 25.4501C182.93 25.5201 183.35 25.2101 183.95 25.2101C184.55 25.2001 184.99 25.5101 185.06 25.4401C185.09 25.4101 185.02 25.2801 184.83 25.1401C184.64 25.0001 184.32 24.8701 183.94 24.8701C183.57 24.8701 183.25 25.0101 183.07 25.1501C182.89 25.2901 182.83 25.4201 182.86 25.4501Z" fill="#263238"/>
<path d="M180.68 29.9094C180.68 29.8794 180.31 29.8094 179.7 29.7294C179.55 29.7094 179.4 29.6794 179.38 29.5794C179.34 29.4694 179.41 29.2994 179.48 29.1294C179.62 28.7594 179.78 28.3694 179.93 27.9594C180.56 26.2994 181.02 24.9294 180.95 24.9094C180.88 24.8894 180.32 26.2094 179.69 27.8794C179.54 28.2894 179.39 28.6794 179.26 29.0494C179.2 29.2194 179.1 29.4194 179.18 29.6494C179.22 29.7594 179.33 29.8494 179.43 29.8694C179.53 29.8994 179.61 29.8994 179.69 29.9094C180.3 29.9394 180.68 29.9394 180.68 29.9094Z" fill="#263238"/>
<path d="M182.45 30.3194C182.35 30.3094 182.35 30.9694 181.79 31.4294C181.23 31.8894 180.54 31.8194 180.53 31.9094C180.52 31.9494 180.68 32.0394 180.98 32.0394C181.27 32.0494 181.69 31.9594 182.03 31.6694C182.37 31.3894 182.52 31.0094 182.54 30.7394C182.57 30.4794 182.49 30.3194 182.45 30.3194Z" fill="#263238"/>
<path d="M182.71 23.1C182.77 23.26 183.37 23.19 184.07 23.27C184.78 23.34 185.34 23.55 185.44 23.4C185.48 23.33 185.38 23.18 185.15 23.02C184.92 22.86 184.56 22.71 184.14 22.66C183.72 22.61 183.33 22.68 183.07 22.79C182.81 22.89 182.68 23.02 182.71 23.1Z" fill="#313131"/>
<path d="M177.18 23.6002C177.29 23.7402 177.7 23.5902 178.2 23.5902C178.7 23.5702 179.12 23.6802 179.22 23.5402C179.26 23.4702 179.2 23.3302 179.01 23.2002C178.83 23.0702 178.53 22.9702 178.18 22.9802C177.84 22.9902 177.54 23.1102 177.37 23.2502C177.19 23.4002 177.13 23.5402 177.18 23.6002Z" fill="#313131"/>
<path d="M173.78 17.4198C173.74 16.9398 173.92 16.4198 174.31 16.1298C174.7 15.8498 175.32 15.8598 175.64 16.2298C175.46 15.5798 175.99 14.8198 176.67 14.7798C177.31 14.7398 177.85 15.2198 178.47 15.3898C179.07 15.5498 179.72 15.4098 180.29 15.1798C180.87 14.9498 181.41 14.6298 181.99 14.4098C183.21 13.9598 184.61 14.0198 185.79 14.5598C186.97 15.0998 187.92 16.1298 188.38 17.3398C189.23 17.0698 190.21 17.5098 190.73 18.2298C191.26 18.9498 191.39 19.8998 191.29 20.7898C191.22 21.3898 191.05 21.9698 190.84 22.5398C190.84 22.5898 190.85 22.6398 190.84 22.6898C190.8 24.8398 190.56 27.3598 189.64 27.3798C188.04 27.3998 188.42 24.3898 188.42 24.3898C186.46 23.6298 187.19 20.6898 186.7 20.2498C186.21 19.7998 185.18 18.7698 181.08 20.8698C179.49 21.6798 177.37 21.6598 176.21 21.3998C176.18 21.3898 176.14 21.3898 176.11 21.3798C176.1 21.3798 176.09 21.3798 176.09 21.3798C176.08 21.3798 176.07 21.3698 176.06 21.3698C175.69 21.2698 175.34 21.1298 175.01 20.9198C174.64 20.6798 174.3 20.3698 174.14 19.9598C173.98 19.5498 174.04 19.0398 174.36 18.7398C174.06 18.3498 173.82 17.8998 173.78 17.4198Z" fill="#313131"/>
</svg>
