<svg width="126" height="92" viewBox="0 0 126 92" fill="none" xmlns="http://www.w3.org/2000/svg">
<g opacity="0.27">
<g opacity="0.27">
<path opacity="0.27" d="M103.083 20.3486C103.083 20.0172 103.339 19.7829 103.663 19.68C103.367 19.5657 103.151 19.36 103.151 19.0629C103.151 18.6286 103.583 18.3657 104.039 18.3657C104.505 18.3657 104.926 18.6343 104.926 19.0629C104.926 19.3829 104.687 19.5772 104.414 19.68C104.733 19.7886 104.989 20.0229 104.989 20.3486C104.989 20.7943 104.568 21.08 104.033 21.08C103.498 21.0857 103.083 20.7943 103.083 20.3486ZM104.693 20.3314C104.693 20.0114 104.312 19.8286 104.039 19.8229C103.771 19.8286 103.384 20.0114 103.384 20.3314C103.384 20.6172 103.674 20.8114 104.039 20.8114C104.397 20.8114 104.693 20.6172 104.693 20.3314ZM104.625 19.0914C104.625 18.8286 104.363 18.6343 104.033 18.6343C103.703 18.6343 103.447 18.8229 103.447 19.0914C103.447 19.3943 103.788 19.5486 104.033 19.56C104.295 19.5486 104.625 19.3886 104.625 19.0914Z" fill="#868687"/>
<path opacity="0.27" d="M104.344 26.56H103.041L103.001 26.3143L104.299 24.5771H104.64V26.2914H105.033V26.56H104.64V27.2H104.344V26.56ZM104.344 26.2857V24.9314L103.343 26.2857H104.344Z" fill="#868687"/>
<path opacity="0.27" d="M103.11 32.983L103.303 32.7658C103.502 32.9887 103.753 33.1315 104.043 33.1315C104.407 33.1315 104.658 32.8801 104.658 32.5487C104.658 32.2115 104.402 31.983 104.032 31.983C103.81 31.983 103.611 32.063 103.451 32.183L103.235 32.0744L103.275 30.7258H104.823V31.0058H103.565L103.537 31.8858C103.679 31.7887 103.855 31.7087 104.094 31.7087C104.567 31.7087 104.959 32.0058 104.959 32.5258C104.959 33.0458 104.567 33.3887 104.032 33.3887C103.628 33.4001 103.32 33.2287 103.11 32.983Z" fill="#868687"/>
<path opacity="0.27" d="M103.11 39.1429L103.303 38.9257C103.502 39.1486 103.753 39.2915 104.043 39.2915C104.407 39.2915 104.658 39.04 104.658 38.7086C104.658 38.3715 104.402 38.1429 104.032 38.1429C103.81 38.1429 103.611 38.2229 103.451 38.3429L103.235 38.2343L103.275 36.8857H104.823V37.1715H103.565L103.537 38.0515C103.679 37.9543 103.855 37.8743 104.094 37.8743C104.567 37.8743 104.959 38.1715 104.959 38.6915C104.959 39.2115 104.567 39.5543 104.032 39.5543C103.628 39.5543 103.32 39.3829 103.11 39.1429Z" fill="#868687"/>
<path opacity="0.27" d="M102.95 44.3543C102.95 43.56 103.4 43 104.037 43C104.674 43 105.124 43.56 105.124 44.3543C105.124 45.1543 104.674 45.7143 104.037 45.7143C103.4 45.7143 102.95 45.1543 102.95 44.3543ZM104.822 44.3543C104.822 43.72 104.498 43.2743 104.037 43.2743C103.576 43.2743 103.252 43.72 103.252 44.3543C103.252 44.9886 103.582 45.44 104.037 45.44C104.498 45.44 104.822 44.9886 104.822 44.3543Z" fill="#868687"/>
<path opacity="0.27" d="M103.076 51.423L103.281 51.2287C103.452 51.4516 103.708 51.6059 104.026 51.6059C104.391 51.6059 104.635 51.4059 104.635 51.103C104.635 50.7944 104.374 50.6344 103.964 50.6344H103.685V50.3601L103.964 50.3659C104.317 50.3716 104.578 50.2002 104.578 49.903C104.578 49.6287 104.328 49.4287 103.998 49.4287C103.708 49.4287 103.503 49.5716 103.315 49.8002L103.116 49.623C103.315 49.3602 103.605 49.1602 104.009 49.1602C104.51 49.1602 104.874 49.4516 104.874 49.8687C104.874 50.2059 104.641 50.4059 104.368 50.4859C104.635 50.5487 104.931 50.743 104.931 51.1201C104.931 51.5601 104.567 51.8744 104.021 51.8744C103.594 51.8744 103.264 51.6744 103.076 51.423Z" fill="#868687"/>
<path opacity="0.27" d="M103.11 57.6114L103.303 57.3943C103.502 57.6171 103.753 57.76 104.043 57.76C104.407 57.76 104.658 57.5085 104.658 57.1771C104.658 56.84 104.402 56.6114 104.032 56.6114C103.81 56.6114 103.611 56.6914 103.451 56.8114L103.235 56.7028L103.275 55.3542H104.823V55.6342H103.565L103.537 56.5143C103.679 56.4171 103.855 56.3371 104.094 56.3371C104.567 56.3371 104.959 56.6343 104.959 57.1543C104.959 57.6743 104.567 58.0171 104.032 58.0171C103.628 58.0285 103.32 57.8571 103.11 57.6114Z" fill="#868687"/>
<path opacity="0.27" d="M104.532 61.8001H103.115V61.5144H104.885V61.7373L103.758 64.1373H103.417L104.532 61.8001Z" fill="#868687"/>
</g>
</g>
<g opacity="0.27">
<g opacity="0.27">
<path opacity="0.27" d="M108.152 7.88008C108.152 7.54865 108.408 7.31436 108.733 7.2115C108.437 7.09722 108.221 6.8915 108.221 6.59436C108.221 6.16007 108.653 5.89722 109.108 5.89722C109.575 5.89722 109.996 6.16579 109.996 6.59436C109.996 6.91436 109.757 7.10865 109.484 7.2115C109.803 7.32007 110.059 7.55436 110.059 7.88008C110.059 8.32579 109.638 8.6115 109.103 8.6115C108.568 8.6115 108.152 8.32008 108.152 7.88008ZM109.763 7.86293C109.763 7.54293 109.381 7.36007 109.108 7.35436C108.841 7.36007 108.454 7.54293 108.454 7.86293C108.454 8.14865 108.744 8.34293 109.108 8.34293C109.467 8.34293 109.763 8.14865 109.763 7.86293ZM109.7 6.62293C109.7 6.36007 109.438 6.16579 109.108 6.16579C108.778 6.16579 108.522 6.35436 108.522 6.62293C108.522 6.92579 108.864 7.08007 109.108 7.0915C109.364 7.07436 109.7 6.92007 109.7 6.62293Z" fill="#868687"/>
<path opacity="0.27" d="M109.414 14.0859H108.111L108.071 13.8402L109.369 12.103H109.71V13.8173H110.103V14.0859H109.71V14.7259H109.414V14.0859ZM109.414 13.8173V12.4573L108.407 13.8116H109.414V13.8173Z" fill="#868687"/>
<path opacity="0.27" d="M108.18 20.5086L108.373 20.2915C108.572 20.5143 108.823 20.6572 109.113 20.6572C109.477 20.6572 109.727 20.4057 109.727 20.0743C109.727 19.7372 109.471 19.5086 109.102 19.5086C108.88 19.5086 108.68 19.5886 108.521 19.7086L108.305 19.6L108.345 18.2515H109.892V18.5372H108.635L108.606 19.4172C108.749 19.32 108.925 19.24 109.164 19.24C109.636 19.24 110.029 19.5372 110.029 20.0572C110.029 20.5772 109.636 20.92 109.102 20.92C108.698 20.9257 108.396 20.7543 108.18 20.5086Z" fill="#868687"/>
<path opacity="0.27" d="M108.18 26.6688L108.373 26.4516C108.572 26.6745 108.823 26.8173 109.113 26.8173C109.477 26.8173 109.727 26.5659 109.727 26.2345C109.727 25.8973 109.471 25.6688 109.102 25.6688C108.88 25.6688 108.68 25.7488 108.521 25.8688L108.305 25.7602L108.345 24.4116H109.892V24.6916H108.635L108.606 25.5716C108.749 25.4745 108.925 25.3945 109.164 25.3945C109.636 25.3945 110.029 25.6916 110.029 26.2116C110.029 26.7316 109.636 27.0745 109.102 27.0745C108.698 27.0859 108.396 26.9145 108.18 26.6688Z" fill="#868687"/>
<path opacity="0.27" d="M108.02 31.8802C108.02 31.0859 108.47 30.5259 109.107 30.5259C109.744 30.5259 110.194 31.0859 110.194 31.8802C110.194 32.6802 109.744 33.2402 109.107 33.2402C108.47 33.2402 108.02 32.6802 108.02 31.8802ZM109.892 31.8802C109.892 31.2459 109.568 30.8002 109.107 30.8002C108.646 30.8002 108.322 31.2459 108.322 31.8802C108.322 32.5145 108.652 32.9659 109.107 32.9659C109.568 32.9659 109.892 32.5145 109.892 31.8802Z" fill="#868687"/>
<path opacity="0.27" d="M108.146 38.9488L108.351 38.7545C108.522 38.9773 108.778 39.1316 109.096 39.1316C109.46 39.1316 109.705 38.9316 109.705 38.6287C109.705 38.3202 109.443 38.1602 109.034 38.1602H108.755V37.8859L109.039 37.8916C109.392 37.8973 109.654 37.7259 109.654 37.4287C109.654 37.1545 109.404 36.9545 109.074 36.9545C108.783 36.9545 108.578 37.0973 108.391 37.3259L108.192 37.143C108.391 36.8802 108.681 36.6802 109.085 36.6802C109.586 36.6802 109.95 36.9716 109.95 37.3887C109.95 37.7259 109.717 37.9259 109.443 38.0059C109.711 38.0687 110.007 38.263 110.007 38.6402C110.007 39.0802 109.643 39.3945 109.096 39.3945C108.664 39.4002 108.334 39.2002 108.146 38.9488Z" fill="#868687"/>
<path opacity="0.27" d="M108.18 45.1429L108.373 44.9257C108.572 45.1486 108.823 45.2915 109.113 45.2915C109.477 45.2915 109.727 45.04 109.727 44.7086C109.727 44.3715 109.471 44.1429 109.102 44.1429C108.88 44.1429 108.68 44.2229 108.521 44.3429L108.305 44.2343L108.345 42.8857H109.892V43.1715H108.635L108.606 44.0515C108.749 43.9543 108.925 43.8743 109.164 43.8743C109.636 43.8743 110.029 44.1715 110.029 44.6915C110.029 45.2115 109.636 45.5543 109.102 45.5543C108.698 45.56 108.396 45.3829 108.18 45.1429Z" fill="#868687"/>
<path opacity="0.27" d="M109.608 49.3259H108.191V49.0459H109.961V49.2688L108.834 51.6688H108.493L109.608 49.3259Z" fill="#868687"/>
</g>
</g>
<g opacity="0.27">
<g opacity="0.27">
<path opacity="0.27" d="M97.9824 25.8057C97.9824 25.0114 98.432 24.4514 99.0693 24.4514C99.7066 24.4514 100.156 25.0114 100.156 25.8057C100.156 26.6057 99.7066 27.1657 99.0693 27.1657C98.432 27.1657 97.9824 26.6057 97.9824 25.8057ZM99.8546 25.8057C99.8546 25.1714 99.5302 24.7257 99.0693 24.7257C98.6084 24.7257 98.284 25.1714 98.284 25.8057C98.284 26.44 98.6141 26.8914 99.0693 26.8914C99.5302 26.8914 99.8546 26.44 99.8546 25.8057Z" fill="#868687"/>
<path opacity="0.27" d="M98.1421 32.9028L98.3356 32.6857C98.5347 32.9085 98.7851 33.0514 99.0753 33.0514C99.4395 33.0514 99.6899 32.7999 99.6899 32.4685C99.6899 32.1314 99.4338 31.9028 99.0639 31.9028C98.842 31.9028 98.6429 31.9828 98.4835 32.1028L98.2673 31.9999L98.3071 30.6514H99.8549V30.9314H98.5973L98.5689 31.8114C98.7111 31.7142 98.8875 31.6342 99.1265 31.6342C99.5988 31.6342 99.9915 31.9314 99.9915 32.4514C99.9915 32.9714 99.5988 33.3142 99.0639 33.3142C98.6599 33.3199 98.3526 33.1485 98.1421 32.9028Z" fill="#868687"/>
<path opacity="0.27" d="M99.5644 37.0914H98.1475V36.8057H99.9172V37.0285L98.7905 39.4285H98.4491L99.5644 37.0914Z" fill="#868687"/>
<path opacity="0.27" d="M98.1138 44.9028C98.1138 44.5714 98.3698 44.3371 98.6942 44.2342C98.3983 44.1199 98.1821 43.9142 98.1821 43.6171C98.1821 43.1828 98.6145 42.9199 99.0698 42.9199C99.5364 42.9199 99.9574 43.1885 99.9574 43.6171C99.9574 43.9371 99.7184 44.1314 99.4453 44.2342C99.764 44.3428 100.02 44.5771 100.02 44.9028C100.02 45.3485 99.5989 45.6342 99.0641 45.6342C98.5292 45.6399 98.1138 45.3485 98.1138 44.9028ZM99.7241 44.8856C99.7241 44.5656 99.3429 44.3828 99.0698 44.3771C98.8023 44.3828 98.4154 44.5656 98.4154 44.8856C98.4154 45.1714 98.7056 45.3656 99.0698 45.3656C99.4282 45.3656 99.7241 45.1714 99.7241 44.8856ZM99.6559 43.6456C99.6559 43.3828 99.3941 43.1885 99.0641 43.1885C98.734 43.1885 98.478 43.3771 98.478 43.6456C98.478 43.9485 98.8194 44.1028 99.0641 44.1142C99.3258 44.1028 99.6559 43.9428 99.6559 43.6456Z" fill="#868687"/>
<path opacity="0.27" d="M99.3766 51.1086H98.0735L98.0337 50.8629L99.3311 49.1257H99.6725V50.84H100.065V51.1086H99.6725V51.7486H99.3766V51.1086ZM99.3766 50.84V49.4857L98.3694 50.84H99.3766Z" fill="#868687"/>
<path opacity="0.27" d="M98.1421 57.5372L98.3356 57.32C98.5347 57.5429 98.7851 57.6857 99.0753 57.6857C99.4395 57.6857 99.6899 57.4343 99.6899 57.1029C99.6899 56.7657 99.4338 56.5372 99.0639 56.5372C98.842 56.5372 98.6429 56.6172 98.4835 56.7372L98.2673 56.6286L98.3071 55.28H99.8549V55.56H98.5973L98.5689 56.44C98.7111 56.3429 98.8875 56.2629 99.1265 56.2629C99.5988 56.2629 99.9915 56.56 99.9915 57.08C99.9915 57.6 99.5988 57.9429 99.0639 57.9429C98.6599 57.9543 98.3526 57.7829 98.1421 57.5372Z" fill="#868687"/>
<path opacity="0.27" d="M98.1421 63.6915L98.3356 63.4743C98.5347 63.6972 98.7851 63.84 99.0753 63.84C99.4395 63.84 99.6899 63.5886 99.6899 63.2572C99.6899 62.92 99.4338 62.6915 99.0639 62.6915C98.842 62.6915 98.6429 62.7715 98.4835 62.8915L98.2673 62.7829L98.3071 61.4343H99.8549V61.7143H98.5973L98.5689 62.5943C98.7111 62.4972 98.8875 62.4172 99.1265 62.4172C99.5988 62.4172 99.9915 62.7143 99.9915 63.2343C99.9915 63.7543 99.5988 64.0972 99.0639 64.0972C98.6599 64.1086 98.3526 63.9372 98.1421 63.6915Z" fill="#868687"/>
<path opacity="0.27" d="M97.9824 68.9087C97.9824 68.1144 98.432 67.5544 99.0693 67.5544C99.7066 67.5544 100.156 68.1144 100.156 68.9087C100.156 69.7087 99.7066 70.2687 99.0693 70.2687C98.432 70.2687 97.9824 69.703 97.9824 68.9087ZM99.8546 68.9087C99.8546 68.2744 99.5302 67.8287 99.0693 67.8287C98.6084 67.8287 98.284 68.2744 98.284 68.9087C98.284 69.543 98.6141 69.9944 99.0693 69.9944C99.5302 69.9944 99.8546 69.543 99.8546 68.9087Z" fill="#868687"/>
<path opacity="0.27" d="M98.1084 75.9716L98.3133 75.7773C98.484 76.0002 98.74 76.1544 99.0587 76.1544C99.4229 76.1544 99.6676 75.9544 99.6676 75.6516C99.6676 75.343 99.4058 75.183 98.9961 75.183H98.7173V74.9087L99.0018 74.9145C99.3546 74.9202 99.6164 74.7487 99.6164 74.4516C99.6164 74.1773 99.366 73.9773 99.0359 73.9773C98.7457 73.9773 98.5409 74.1202 98.3531 74.3487L98.1539 74.1716C98.3531 73.9087 98.6433 73.7087 99.0473 73.7087C99.5481 73.7087 99.9123 74.0002 99.9123 74.4173C99.9123 74.7544 99.6789 74.9544 99.4058 75.0344C99.6733 75.0973 99.9692 75.2916 99.9692 75.6687C99.9692 76.1087 99.605 76.423 99.0587 76.423C98.6262 76.423 98.2962 76.223 98.1084 75.9716Z" fill="#868687"/>
<path opacity="0.27" d="M98.1421 82.1658L98.3356 81.9487C98.5347 82.1716 98.7851 82.3144 99.0753 82.3144C99.4395 82.3144 99.6899 82.063 99.6899 81.7316C99.6899 81.3944 99.4338 81.1658 99.0639 81.1658C98.842 81.1658 98.6429 81.2458 98.4835 81.3658L98.2673 81.2573L98.3071 79.9087H99.8549V80.1887H98.5973L98.5689 81.0687C98.7111 80.9716 98.8875 80.8916 99.1265 80.8916C99.5988 80.8916 99.9915 81.1887 99.9915 81.7087C99.9915 82.2287 99.5988 82.5716 99.0639 82.5716C98.6599 82.583 98.3526 82.4116 98.1421 82.1658Z" fill="#868687"/>
<path opacity="0.27" d="M99.5644 86.3486H98.1475V86.0686H99.9172V86.2915L98.7905 88.6915H98.4491L99.5644 86.3486Z" fill="#868687"/>
</g>
</g>
<g opacity="0.27">
<g opacity="0.27">
<path opacity="0.27" d="M28.4805 35.3087L28.6739 35.0915C28.8731 35.3144 29.1235 35.4572 29.4137 35.4572C29.7779 35.4572 30.0282 35.2058 30.0282 34.8744C30.0282 34.5372 29.7722 34.3087 29.4023 34.3087C29.1804 34.3087 28.9812 34.3887 28.8219 34.5087L28.6057 34.4001L28.6455 33.0515H30.1933V33.3315H28.9357L28.9072 34.2115C29.0495 34.1144 29.2259 34.0344 29.4649 34.0344C29.9372 34.0344 30.3298 34.3315 30.3298 34.8515C30.3298 35.3715 29.9372 35.7144 29.4023 35.7144C28.9983 35.7258 28.6967 35.5544 28.4805 35.3087Z" fill="#868687"/>
<path opacity="0.27" d="M29.9086 39.4915H28.4917V39.2058H30.2614V39.4287L29.1347 41.8287H28.7933L29.9086 39.4915Z" fill="#868687"/>
<path opacity="0.27" d="M28.4521 47.3085C28.4521 46.9771 28.7082 46.7428 29.0326 46.64C28.7367 46.5257 28.5204 46.32 28.5204 46.0228C28.5204 45.5885 28.9529 45.3257 29.4081 45.3257C29.8747 45.3257 30.2958 45.5943 30.2958 46.0228C30.2958 46.3428 30.0568 46.5371 29.7837 46.64C30.1024 46.7485 30.3584 46.9828 30.3584 47.3085C30.3584 47.7543 29.9373 48.04 29.4024 48.04C28.8675 48.04 28.4521 47.7485 28.4521 47.3085ZM30.0625 47.2857C30.0625 46.9657 29.6813 46.7828 29.4081 46.7771C29.1407 46.7828 28.7537 46.9657 28.7537 47.2857C28.7537 47.5714 29.0439 47.7657 29.4081 47.7657C29.7723 47.7657 30.0625 47.5714 30.0625 47.2857ZM29.9999 46.0457C29.9999 45.7828 29.7382 45.5885 29.4081 45.5885C29.0781 45.5885 28.822 45.7771 28.822 46.0457C28.822 46.3485 29.1634 46.5028 29.4081 46.5143C29.6642 46.5028 29.9999 46.3485 29.9999 46.0457Z" fill="#868687"/>
<path opacity="0.27" d="M29.7209 53.5144H28.4178L28.3779 53.2686L29.6753 51.5315H30.0168V53.2458H30.4094V53.5144H30.0168V54.1543H29.7209V53.5144ZM29.7209 53.2401V51.8858L28.7137 53.2401H29.7209Z" fill="#868687"/>
<path opacity="0.27" d="M28.4805 59.9373L28.6739 59.7202C28.8731 59.943 29.1235 60.0859 29.4137 60.0859C29.7779 60.0859 30.0282 59.8345 30.0282 59.503C30.0282 59.1659 29.7722 58.9373 29.4023 58.9373C29.1804 58.9373 28.9812 59.0173 28.8219 59.1373L28.6057 59.0287L28.6455 57.6802H30.1933V57.9602H28.9357L28.9072 58.8402C29.0495 58.743 29.2259 58.663 29.4649 58.663C29.9372 58.663 30.3298 58.9602 30.3298 59.4802C30.3298 60.0002 29.9372 60.343 29.4023 60.343C28.9983 60.3545 28.6967 60.183 28.4805 59.9373Z" fill="#868687"/>
<path opacity="0.27" d="M28.4805 66.0972L28.6739 65.8801C28.8731 66.1029 29.1235 66.2458 29.4137 66.2458C29.7779 66.2458 30.0282 65.9944 30.0282 65.6629C30.0282 65.3258 29.7722 65.0972 29.4023 65.0972C29.1804 65.0972 28.9812 65.1772 28.8219 65.2972L28.6057 65.1887L28.6455 63.8401H30.1933V64.1201H28.9357L28.9072 65.0001C29.0495 64.9029 29.2259 64.8229 29.4649 64.8229C29.9372 64.8229 30.3298 65.1201 30.3298 65.6401C30.3298 66.1601 29.9372 66.5029 29.4023 66.5029C28.9983 66.5144 28.6967 66.3372 28.4805 66.0972Z" fill="#868687"/>
<path opacity="0.27" d="M28.3208 71.3086C28.3208 70.5143 28.7703 69.9543 29.4077 69.9543C30.045 69.9543 30.4945 70.5143 30.4945 71.3086C30.4945 72.1086 30.045 72.6686 29.4077 72.6686C28.7703 72.6686 28.3208 72.1086 28.3208 71.3086ZM30.1929 71.3086C30.1929 70.6743 29.8686 70.2286 29.4077 70.2286C28.9467 70.2286 28.6224 70.6743 28.6224 71.3086C28.6224 71.9429 28.9524 72.3944 29.4077 72.3944C29.8686 72.3944 30.1929 71.9429 30.1929 71.3086Z" fill="#868687"/>
<path opacity="0.27" d="M28.4468 78.3772L28.6516 78.1829C28.8223 78.4058 29.0784 78.5601 29.3971 78.5601C29.7613 78.5601 30.0059 78.3601 30.0059 78.0572C30.0059 77.7486 29.7442 77.5886 29.3345 77.5886H29.0556V77.3144L29.3345 77.3201C29.6873 77.3258 29.949 77.1544 29.949 76.8572C29.949 76.5829 29.6987 76.3829 29.3686 76.3829C29.0784 76.3829 28.8736 76.5258 28.6858 76.7544L28.4923 76.5715C28.6915 76.3086 28.9817 76.1086 29.3857 76.1086C29.8864 76.1086 30.2506 76.4001 30.2506 76.8172C30.2506 77.1544 30.0173 77.3544 29.7442 77.4344C30.0116 77.4972 30.3075 77.6915 30.3075 78.0686C30.3075 78.5086 29.9433 78.8229 29.3971 78.8229C28.9703 78.8286 28.6346 78.6286 28.4468 78.3772Z" fill="#868687"/>
<path opacity="0.27" d="M28.4805 84.566L28.6739 84.3488C28.8731 84.5717 29.1235 84.7146 29.4137 84.7146C29.7779 84.7146 30.0282 84.4631 30.0282 84.1317C30.0282 83.7946 29.7722 83.566 29.4023 83.566C29.1804 83.566 28.9812 83.646 28.8219 83.766L28.6057 83.6574L28.6455 82.3088H30.1933V82.5888H28.9357L28.9072 83.4688C29.0495 83.3717 29.2259 83.2917 29.4649 83.2917C29.9372 83.2917 30.3298 83.5888 30.3298 84.1088C30.3298 84.6289 29.9372 84.9717 29.4023 84.9717C28.9983 84.9831 28.6967 84.8117 28.4805 84.566Z" fill="#868687"/>
<path opacity="0.27" d="M29.9086 88.7546H28.4917V88.4746H30.2614V88.6975L29.1347 91.0975H28.7933L29.9086 88.7546Z" fill="#868687"/>
</g>
</g>
<g opacity="0.27">
<g opacity="0.27">
<path opacity="0.27" d="M42.5356 14.7602H41.1187V14.4802H42.8884V14.7031L41.7617 17.1031H41.4202L42.5356 14.7602Z" fill="#868687"/>
<path opacity="0.27" d="M41.0791 22.5715C41.0791 22.24 41.3352 22.0058 41.6595 21.9029C41.3636 21.7886 41.1474 21.5829 41.1474 21.2858C41.1474 20.8515 41.5799 20.5886 42.0351 20.5886C42.5017 20.5886 42.9228 20.8572 42.9228 21.2858C42.9228 21.6058 42.6838 21.8001 42.4106 21.9029C42.7293 22.0115 42.9854 22.2458 42.9854 22.5715C42.9854 23.0172 42.5643 23.3029 42.0294 23.3029C41.4945 23.3029 41.0791 23.0115 41.0791 22.5715ZM42.6895 22.5543C42.6895 22.2343 42.3082 22.0515 42.0351 22.0458C41.7676 22.0515 41.3807 22.2343 41.3807 22.5543C41.3807 22.84 41.6709 23.0343 42.0351 23.0343C42.3993 23.0343 42.6895 22.84 42.6895 22.5543ZM42.6269 21.3143C42.6269 21.0515 42.3651 20.8572 42.0351 20.8572C41.705 20.8572 41.449 21.0458 41.449 21.3143C41.449 21.6172 41.7904 21.7715 42.0351 21.7829C42.2912 21.7658 42.6269 21.6115 42.6269 21.3143Z" fill="#868687"/>
<path opacity="0.27" d="M42.3473 28.7773H41.0442L41.0044 28.5316L42.3018 26.7944H42.6432V28.5087H43.0359V28.7773H42.6432V29.4173H42.3473V28.7773ZM42.3473 28.5087V27.1544L41.3401 28.5087H42.3473Z" fill="#868687"/>
<path opacity="0.27" d="M41.1074 35.2059L41.3009 34.9887C41.5001 35.2116 41.7504 35.3544 42.0406 35.3544C42.4048 35.3544 42.6552 35.103 42.6552 34.7716C42.6552 34.4344 42.3991 34.2059 42.0293 34.2059C41.8073 34.2059 41.6082 34.2859 41.4488 34.4059L41.2326 34.2973L41.2724 32.9487H42.8202V33.2344H41.5627L41.5342 34.1144C41.6765 34.0173 41.8529 33.9373 42.0919 33.9373C42.5642 33.9373 42.9568 34.2344 42.9568 34.7544C42.9568 35.2744 42.5642 35.6173 42.0293 35.6173C41.6252 35.6173 41.3237 35.4459 41.1074 35.2059Z" fill="#868687"/>
<path opacity="0.27" d="M41.1074 41.3602L41.3009 41.143C41.5001 41.3659 41.7504 41.5087 42.0406 41.5087C42.4048 41.5087 42.6552 41.2573 42.6552 40.9259C42.6552 40.5887 42.3991 40.3602 42.0293 40.3602C41.8073 40.3602 41.6082 40.4402 41.4488 40.5602L41.2326 40.4516L41.2724 39.103H42.8202V39.383H41.5627L41.5342 40.263C41.6765 40.1659 41.8529 40.0859 42.0919 40.0859C42.5642 40.0859 42.9568 40.383 42.9568 40.903C42.9568 41.423 42.5642 41.7659 42.0293 41.7659C41.6252 41.7773 41.3237 41.6059 41.1074 41.3602Z" fill="#868687"/>
<path opacity="0.27" d="M40.9478 46.5716C40.9478 45.7773 41.3973 45.2173 42.0346 45.2173C42.6719 45.2173 43.1215 45.7773 43.1215 46.5716C43.1215 47.3716 42.6719 47.9316 42.0346 47.9316C41.3973 47.9373 40.9478 47.3716 40.9478 46.5716ZM42.8199 46.5716C42.8199 45.9373 42.4955 45.4916 42.0346 45.4916C41.5737 45.4916 41.2493 45.9373 41.2493 46.5716C41.2493 47.2059 41.5794 47.6573 42.0346 47.6573C42.4955 47.6573 42.8199 47.2059 42.8199 46.5716Z" fill="#868687"/>
<path opacity="0.27" d="M41.0737 53.6403L41.2786 53.446C41.4493 53.6689 41.7054 53.8232 42.024 53.8232C42.3882 53.8232 42.6329 53.6231 42.6329 53.3203C42.6329 53.0117 42.3711 52.8517 41.9614 52.8517H41.6826V52.5774L41.9671 52.5832C42.3199 52.5889 42.5817 52.4174 42.5817 52.1203C42.5817 51.846 42.3313 51.646 42.0013 51.646C41.7111 51.646 41.5062 51.7889 41.3184 52.0174L41.1193 51.8403C41.3184 51.5774 41.6086 51.3774 42.0126 51.3774C42.5134 51.3774 42.8776 51.6689 42.8776 52.086C42.8776 52.4232 42.6443 52.6232 42.3711 52.7032C42.6386 52.766 42.9345 52.9603 42.9345 53.3374C42.9345 53.7774 42.5703 54.0917 42.024 54.0917C41.5916 54.0917 41.2615 53.8917 41.0737 53.6403Z" fill="#868687"/>
<path opacity="0.27" d="M41.1074 59.8345L41.3009 59.6174C41.5001 59.8402 41.7504 59.9831 42.0406 59.9831C42.4048 59.9831 42.6552 59.7317 42.6552 59.4002C42.6552 59.0631 42.3991 58.8345 42.0293 58.8345C41.8073 58.8345 41.6082 58.9145 41.4488 59.0345L41.2326 58.926L41.2724 57.5774H42.8202V57.8631H41.5627L41.5342 58.7431C41.6765 58.646 41.8529 58.566 42.0919 58.566C42.5642 58.566 42.9568 58.8631 42.9568 59.3831C42.9568 59.9031 42.5642 60.246 42.0293 60.246C41.6252 60.2517 41.3237 60.0802 41.1074 59.8345Z" fill="#868687"/>
<path opacity="0.27" d="M42.5356 64.0175H41.1187V63.7375H42.8884V63.9604L41.7617 66.3604H41.4202L42.5356 64.0175Z" fill="#868687"/>
</g>
</g>
<g opacity="0.27">
<g opacity="0.27">
<path opacity="0.27" d="M35.0015 16.7029L35.1949 16.4858C35.3941 16.7087 35.6445 16.8515 35.9347 16.8515C36.2989 16.8515 36.5493 16.6001 36.5493 16.2687C36.5493 15.9315 36.2932 15.7029 35.9233 15.7029C35.7014 15.7029 35.5022 15.7829 35.3429 15.9029L35.1267 15.7944L35.1665 14.4458H36.7143V14.7315H35.4567L35.4282 15.6115C35.5705 15.5144 35.7469 15.4344 35.9859 15.4344C36.4582 15.4344 36.8508 15.7315 36.8508 16.2515C36.8508 16.7715 36.4582 17.1144 35.9233 17.1144C35.5193 17.1201 35.2177 16.9487 35.0015 16.7029Z" fill="#868687"/>
<path opacity="0.27" d="M36.4296 20.8916H35.0127V20.6116H36.7824V20.8344L35.6557 23.2344H35.3143L36.4296 20.8916Z" fill="#868687"/>
<path opacity="0.27" d="M34.9731 28.7028C34.9731 28.3714 35.2292 28.1371 35.5536 28.0343C35.2577 27.92 35.0414 27.7143 35.0414 27.4171C35.0414 26.9828 35.4739 26.72 35.9291 26.72C36.3957 26.72 36.8168 26.9885 36.8168 27.4171C36.8168 27.7371 36.5778 27.9314 36.3047 28.0343C36.6234 28.1428 36.8794 28.3771 36.8794 28.7028C36.8794 29.1485 36.4583 29.4343 35.9234 29.4343C35.3885 29.4343 34.9731 29.1485 34.9731 28.7028ZM36.5835 28.6857C36.5835 28.3657 36.2023 28.1828 35.9291 28.1771C35.6617 28.1828 35.2747 28.3657 35.2747 28.6857C35.2747 28.9714 35.5649 29.1657 35.9291 29.1657C36.2933 29.1657 36.5835 28.9714 36.5835 28.6857ZM36.5209 27.4457C36.5209 27.1828 36.2592 26.9885 35.9291 26.9885C35.5991 26.9885 35.343 27.1771 35.343 27.4457C35.343 27.7485 35.6844 27.9028 35.9291 27.9143C36.1852 27.9028 36.5209 27.7428 36.5209 27.4457Z" fill="#868687"/>
<path opacity="0.27" d="M36.2419 34.9086H34.9388L34.8989 34.6629L36.1963 32.9258H36.5378V34.6401H36.9304V34.9086H36.5378V35.5486H36.2419V34.9086ZM36.2419 34.6401V33.2858L35.2347 34.6401H36.2419Z" fill="#868687"/>
<path opacity="0.27" d="M35.0015 41.3372L35.1949 41.1201C35.3941 41.3429 35.6445 41.4858 35.9347 41.4858C36.2989 41.4858 36.5493 41.2344 36.5493 40.9029C36.5493 40.5658 36.2932 40.3372 35.9233 40.3372C35.7014 40.3372 35.5022 40.4172 35.3429 40.5372L35.1267 40.4286L35.1665 39.0801H36.7143V39.3658H35.4567L35.4282 40.2458C35.5705 40.1486 35.7469 40.0687 35.9859 40.0687C36.4582 40.0687 36.8508 40.3658 36.8508 40.8858C36.8508 41.4058 36.4582 41.7486 35.9233 41.7486C35.5193 41.7486 35.2177 41.5772 35.0015 41.3372Z" fill="#868687"/>
<path opacity="0.27" d="M35.0015 47.4915L35.1949 47.2744C35.3941 47.4972 35.6445 47.6401 35.9347 47.6401C36.2989 47.6401 36.5493 47.3887 36.5493 47.0572C36.5493 46.7201 36.2932 46.4915 35.9233 46.4915C35.7014 46.4915 35.5022 46.5715 35.3429 46.6915L35.1267 46.5829L35.1665 45.2344H36.7143V45.5144H35.4567L35.4282 46.3944C35.5705 46.2972 35.7469 46.2172 35.9859 46.2172C36.4582 46.2172 36.8508 46.5144 36.8508 47.0344C36.8508 47.5544 36.4582 47.8972 35.9233 47.8972C35.5193 47.9087 35.2177 47.7372 35.0015 47.4915Z" fill="#868687"/>
<path opacity="0.27" d="M34.8418 52.7029C34.8418 51.9086 35.2913 51.3486 35.9287 51.3486C36.566 51.3486 37.0155 51.9086 37.0155 52.7029C37.0155 53.5029 36.566 54.0629 35.9287 54.0629C35.2913 54.0686 34.8418 53.5029 34.8418 52.7029ZM36.7139 52.7029C36.7139 52.0686 36.3896 51.6229 35.9287 51.6229C35.4677 51.6229 35.1434 52.0686 35.1434 52.7029C35.1434 53.3372 35.4734 53.7886 35.9287 53.7886C36.3896 53.7886 36.7139 53.3429 36.7139 52.7029Z" fill="#868687"/>
<path opacity="0.27" d="M34.9678 59.7716L35.1726 59.5774C35.3433 59.8002 35.5994 59.9545 35.9181 59.9545C36.2822 59.9545 36.5269 59.7545 36.5269 59.4516C36.5269 59.1431 36.2652 58.9831 35.8555 58.9831H35.5766V58.7088L35.8612 58.7145C36.214 58.7202 36.4757 58.5488 36.4757 58.2516C36.4757 57.9774 36.2253 57.7774 35.8953 57.7774C35.6051 57.7774 35.4002 57.9202 35.2125 58.1488L35.0133 57.9716C35.2125 57.7088 35.5027 57.5088 35.9067 57.5088C36.4074 57.5088 36.7716 57.8002 36.7716 58.2174C36.7716 58.5545 36.5383 58.7545 36.2652 58.8345C36.5326 58.8974 36.8285 59.0916 36.8285 59.4688C36.8285 59.9088 36.4643 60.2231 35.9181 60.2231C35.4856 60.2231 35.1556 60.0231 34.9678 59.7716Z" fill="#868687"/>
<path opacity="0.27" d="M35.0015 65.9659L35.1949 65.7487C35.3941 65.9716 35.6445 66.1144 35.9347 66.1144C36.2989 66.1144 36.5493 65.863 36.5493 65.5316C36.5493 65.1945 36.2932 64.9659 35.9233 64.9659C35.7014 64.9659 35.5022 65.0459 35.3429 65.1659L35.1267 65.0573L35.1665 63.7087H36.7143V63.9945H35.4567L35.4282 64.8745C35.5705 64.7773 35.7469 64.6973 35.9859 64.6973C36.4582 64.6973 36.8508 64.9945 36.8508 65.5145C36.8508 66.0345 36.4582 66.3773 35.9233 66.3773C35.5193 66.383 35.2177 66.2116 35.0015 65.9659Z" fill="#868687"/>
<path opacity="0.27" d="M36.4296 70.1489H35.0127V69.8689H36.7824V70.0918L35.6557 72.4918H35.3143L36.4296 70.1489Z" fill="#868687"/>
</g>
</g>
<path d="M56.3005 8.4341C54.5023 8.32553 52.8464 9.0741 51.7425 10.337C51.7539 10.2055 51.7595 10.0684 51.7595 9.93124C51.7595 7.33696 49.6655 5.2341 47.0821 5.2341C45.8985 5.2341 44.8116 5.67981 43.9865 6.41124C43.6906 5.78267 43.298 5.18839 42.82 4.63981C40.0544 1.49696 35.2688 1.19981 32.1391 3.98267C30.2385 5.66839 29.385 8.09696 29.624 10.4455C29.2598 10.3541 28.8785 10.3027 28.4802 10.3027C25.8968 10.3027 23.8027 12.4055 23.8027 14.9998C23.8027 17.3941 25.5838 19.3655 27.8827 19.657V19.697H56.0615C58.9579 19.6398 61.3706 17.3598 61.5527 14.4055C61.7518 11.297 59.396 8.62267 56.3005 8.4341Z" fill="url(#paint0_linear_1240_12289)"/>
<path d="M69.6389 89.2058C87.3229 89.2058 101.659 88.3896 101.659 87.3829C101.659 86.3762 87.3229 85.5601 69.6389 85.5601C51.9549 85.5601 37.6191 86.3762 37.6191 87.3829C37.6191 88.3896 51.9549 89.2058 69.6389 89.2058Z" fill="#E8E9EA"/>
<path d="M84.6387 86.3773H54.9861C52.414 86.3773 50.3257 84.2801 50.3257 81.6973V17.9544C50.3257 15.3716 52.414 13.2744 54.9861 13.2744H84.6387C87.2107 13.2744 89.2991 15.3716 89.2991 17.9544V81.6973C89.2991 84.2858 87.2107 86.3773 84.6387 86.3773Z" fill="#313131"/>
<path d="M78.2024 15.8799V16.8742C78.2024 17.6913 77.5423 18.3485 76.7343 18.3485H62.8953C62.0816 18.3485 61.4272 17.6856 61.4272 16.8742V15.8799C61.4272 15.617 61.211 15.3999 60.9492 15.3999H55.2247C53.7907 15.3999 52.6299 16.5656 52.6299 18.0056V81.6456C52.6299 83.0856 53.7907 84.2513 55.2247 84.2513H84.4049C85.8389 84.2513 86.9997 83.0856 86.9997 81.6456V18.0056C86.9997 16.5656 85.8389 15.3999 84.4049 15.3999H78.6804C78.4187 15.3999 78.2024 15.617 78.2024 15.8799Z" fill="url(#paint1_linear_1240_12289)"/>
<path d="M80.4505 78.4289H59.9595C57.9849 78.4289 56.3916 76.8232 56.3916 74.846C56.3916 72.8632 57.9906 71.2632 59.9595 71.2632H80.4505C82.4251 71.2632 84.0184 72.8689 84.0184 74.846C84.0184 76.8232 82.4194 78.4289 80.4505 78.4289Z" fill="#268C44"/>
<path d="M65.0524 75.6116H63.8915L63.6696 76.2231H63.3965L64.3297 73.6917H64.6199L65.5474 76.2231H65.2743L65.0524 75.6116ZM64.472 74.0116L63.9655 75.4002H64.9727L64.472 74.0116Z" fill="white"/>
<path d="M65.957 73.5034H66.2131V75.1091L67.0154 74.212H67.3739L66.4293 75.212L67.3853 76.2177H67.0382L66.2131 75.3205V76.2177H65.957V73.5034Z" fill="white"/>
<path d="M67.7837 74.4346H67.5049V74.2175H67.7837V73.7146H68.0455V74.2175H68.5918V74.4346H68.0455V75.6803C68.0455 75.926 68.1308 76.006 68.3584 76.006H68.5918V76.2289H68.3186C67.9715 76.2289 67.7837 76.086 67.7837 75.686V74.4346Z" fill="white"/>
<path d="M68.9561 73.6461C68.9561 73.5375 69.0414 73.4575 69.1438 73.4575C69.2463 73.4575 69.3316 73.5318 69.3316 73.6461C69.3316 73.7547 69.2463 73.8347 69.1438 73.8347C69.0414 73.8347 68.9561 73.7547 68.9561 73.6461ZM69.013 74.2175H69.269V76.2232H69.013V74.2175Z" fill="white"/>
<path d="M69.918 74.4346H69.6392V74.2175H69.918V74.0803C69.918 73.6518 70.1172 73.446 70.6236 73.446V73.6689C70.2822 73.6689 70.1741 73.7946 70.1741 74.086V74.2232H70.6407V74.4403H70.1741V76.2289H69.918V74.4346Z" fill="white"/>
<path d="M71.0386 73.5034H71.2946V75.1091L72.097 74.212H72.4555L71.5109 75.212L72.4669 76.2177H72.1197L71.2946 75.3205V76.2177H71.0386V73.5034Z" fill="white"/>
<path d="M73.6335 74.1833C74.0375 74.1833 74.3106 74.4005 74.4244 74.6519V74.2119H74.6805V76.2176H74.4244V75.7719C74.3049 76.0291 74.0318 76.2462 73.6335 76.2462C73.0872 76.2462 72.6832 75.8405 72.6832 75.2119C72.6775 74.5833 73.0872 74.1833 73.6335 74.1833ZM73.679 74.4119C73.2579 74.4119 72.9392 74.7033 72.9392 75.2176C72.9392 75.7262 73.2636 76.0291 73.679 76.0291C74.0887 76.0291 74.4187 75.7205 74.4187 75.2233C74.4244 74.7205 74.0887 74.4119 73.679 74.4119Z" fill="white"/>
<path d="M76.7637 75.0746C76.7637 74.6289 76.5247 74.4003 76.1548 74.4003C75.7792 74.4003 75.5232 74.6346 75.5232 75.1261V76.2175H75.2671V74.2118H75.5232V74.5546C75.6483 74.3032 75.9044 74.1775 76.2003 74.1775C76.6555 74.1775 77.014 74.4575 77.014 75.0461V76.2232H76.7637V75.0746Z" fill="white"/>
<path fill-rule="evenodd" clip-rule="evenodd" d="M82.7321 37.8059H56.8978C56.0898 37.8059 55.4297 37.1488 55.4297 36.3317V30.5602C55.4297 29.7488 56.0841 29.0859 56.8978 29.0859H82.7321C83.5402 29.0859 84.2002 29.7431 84.2002 30.5602V36.3317C84.2002 37.1431 83.5402 37.8059 82.7321 37.8059Z" fill="#A7CE55"/>
<path d="M77.2192 32.4117H63.9378C63.6874 32.4117 63.4883 32.2803 63.4883 32.1203C63.4883 31.9603 63.6931 31.8289 63.9378 31.8289H77.2192C77.4696 31.8289 77.6687 31.9603 77.6687 32.1203C77.6687 32.2803 77.4696 32.4117 77.2192 32.4117Z" fill="#268C44"/>
<path d="M77.1611 33.7201H63.8797C63.6293 33.7201 63.4302 33.5886 63.4302 33.4286C63.4302 33.2686 63.635 33.1372 63.8797 33.1372H77.1611C77.4115 33.1372 77.6106 33.2686 77.6106 33.4286C77.6106 33.5886 77.4115 33.7201 77.1611 33.7201Z" fill="#268C44"/>
<path d="M69.3313 35.0289H63.8856C63.6352 35.0289 63.436 34.8975 63.436 34.7375C63.436 34.5775 63.6409 34.446 63.8856 34.446H69.3313C69.5816 34.446 69.7808 34.5775 69.7808 34.7375C69.7808 34.8975 69.5816 35.0289 69.3313 35.0289Z" fill="#268C44"/>
<path d="M77.1042 35.0631H71.6585C71.4081 35.0631 71.209 34.9317 71.209 34.7717C71.209 34.6117 71.4138 34.4802 71.6585 34.4802H77.1042C77.3546 34.4802 77.5537 34.6117 77.5537 34.7717C77.5594 34.9317 77.3546 35.0631 77.1042 35.0631Z" fill="#268C44"/>
<g opacity="0.63">
<path opacity="0.63" d="M80.6834 31.3488C80.342 31.3603 80.029 31.5088 79.8128 31.7431C79.5909 31.9774 79.46 32.2974 79.4714 32.6403L79.4885 33.1945L79.938 33.1831L79.9209 32.6288C79.9152 32.406 80.0006 32.206 80.1372 32.0517C80.2794 31.9031 80.4786 31.806 80.6948 31.8003C80.9167 31.7945 81.1159 31.8803 81.2696 32.0174C81.4175 32.1603 81.5142 32.3545 81.5199 32.5774L81.537 33.1317L81.9865 33.1203L81.9695 32.566C81.9581 32.2231 81.8101 31.9088 81.5768 31.6917C81.3435 31.4688 81.0249 31.3374 80.6834 31.3488Z" fill="#313131"/>
<path opacity="0.63" fill-rule="evenodd" clip-rule="evenodd" d="M82.015 35.2804L79.4259 35.269C79.3064 35.269 79.2153 35.1718 79.2153 35.0518L79.221 33.2175C79.221 33.0975 79.3178 33.0061 79.4373 33.0061L82.0264 33.0175C82.1459 33.0175 82.2369 33.1147 82.2369 33.2347L82.2312 35.069C82.2312 35.1832 82.1345 35.2804 82.015 35.2804Z" fill="#4F4F4F"/>
<path opacity="0.63" fill-rule="evenodd" clip-rule="evenodd" d="M80.7291 33.3489C80.5128 33.3489 80.3364 33.526 80.3364 33.7432C80.3364 33.8917 80.4161 34.0175 80.5356 34.086L80.5299 34.9489H80.9168L80.9225 34.086C81.042 34.0175 81.1217 33.8917 81.1217 33.7432C81.1217 33.526 80.9453 33.3489 80.7291 33.3489Z" fill="#313131"/>
<path opacity="0.29" fill-rule="evenodd" clip-rule="evenodd" d="M79.2153 35.0572L79.221 33.2229C79.221 33.1029 79.3178 33.0115 79.4373 33.0115L82.0264 33.0229" fill="#847F74"/>
</g>
<path d="M59.2711 36.1086C60.6759 36.1086 61.8147 34.965 61.8147 33.5543C61.8147 32.1436 60.6759 31 59.2711 31C57.8663 31 56.7275 32.1436 56.7275 33.5543C56.7275 34.965 57.8663 36.1086 59.2711 36.1086Z" fill="#268C44"/>
<path d="M58.1283 35.8408C59.0217 34.2408 58.4583 33.1494 58.4583 33.1494C57.7869 33.1951 57.269 33.658 57.269 33.658C58.1169 34.4408 57.7982 35.6408 57.7982 35.6408C57.7982 35.6408 58.0372 35.8066 58.1283 35.8408Z" fill="#8EE073"/>
<path d="M58.1558 35.9203L58.1046 35.9032C58.0079 35.8689 57.7859 35.7146 57.7632 35.6975L57.7234 35.6689L57.7347 35.6232C57.7404 35.6118 58.0306 34.4518 57.2226 33.7032L57.1714 33.6575L57.2226 33.6118C57.2454 33.5946 57.7632 33.1318 58.4517 33.086L58.4916 33.0803L58.5086 33.1203C58.5314 33.166 59.0777 34.2632 58.1786 35.8746L58.1558 35.9203ZM57.8713 35.6118C57.9339 35.6518 58.0306 35.7146 58.0989 35.7546C58.833 34.4003 58.5029 33.4175 58.4176 33.2118C57.9225 33.2632 57.5128 33.5489 57.3649 33.6575C58.0762 34.3718 57.9225 35.3889 57.8713 35.6118Z" fill="#268C44"/>
<path d="M59.8811 32.5039C59.0958 32.2754 58.3219 32.5954 58.3219 32.5954C58.9649 34.7439 58.1284 35.8354 58.1284 35.8354C58.1284 35.8354 58.6292 36.1097 59.3746 36.1097C59.3746 36.1097 60.4899 33.4697 59.8811 32.5039Z" fill="#8EE073"/>
<path d="M59.419 36.1774H59.3735C58.6167 36.1774 58.1159 35.9089 58.0932 35.8974L58.0249 35.8631L58.0704 35.8003C58.0761 35.7889 58.8785 34.7089 58.2525 32.6174L58.2354 32.5603L58.2867 32.5374C58.3208 32.526 59.0947 32.206 59.8913 32.4403L59.9141 32.446L59.9255 32.4689C60.5457 33.4517 59.4703 36.0231 59.4247 36.1317L59.419 36.1774ZM58.2241 35.8117C58.3777 35.8803 58.7874 36.0346 59.3337 36.046C59.4703 35.7146 60.358 33.4403 59.8401 32.5603C59.2142 32.3831 58.5882 32.5717 58.4005 32.6403C58.9411 34.4917 58.3948 35.5489 58.2241 35.8117Z" fill="#268C44"/>
<path d="M61.6441 32.6232C60.9385 31.7146 59.7492 31.8175 59.7492 31.8175C60.3922 34.9889 58.4233 35.966 58.4233 35.966C58.4233 35.966 59.6126 36.4175 60.6369 35.7146C60.6369 35.7146 62.3611 34.6117 61.6441 32.6232Z" fill="#8EE073"/>
<path d="M59.3107 36.1774C58.8043 36.1774 58.4287 36.0402 58.4002 36.0288L58.2637 35.9774L58.3946 35.9088C58.4002 35.9088 58.8782 35.6631 59.2766 35.0402C59.6407 34.4688 60.0106 33.4402 59.6863 31.8288L59.6692 31.7602L59.7432 31.7545C59.7944 31.7488 60.9723 31.6574 61.695 32.5831L61.7007 32.5888L61.7064 32.6002C62.0876 33.6516 61.786 34.4574 61.4674 34.9488C61.1202 35.4802 60.6935 35.7545 60.6764 35.7659C60.2098 36.0859 59.7204 36.1774 59.3107 36.1774ZM58.5823 35.9431C58.9181 36.0345 59.8171 36.1945 60.6024 35.6574C60.6081 35.6516 61.0292 35.3774 61.3592 34.8688C61.7974 34.1945 61.8714 33.4459 61.5869 32.6459C61.0064 31.9145 60.0903 31.8688 59.8285 31.8688C60.1415 33.4859 59.7602 34.5202 59.3847 35.1031C59.0888 35.5716 58.7587 35.8288 58.5823 35.9431Z" fill="#268C44"/>
<path d="M59.2711 36.1774C57.8314 36.1774 56.6592 35.0002 56.6592 33.5545C56.6592 32.1088 57.8314 30.9316 59.2711 30.9316C60.7107 30.9316 61.883 32.1088 61.883 33.5545C61.883 35.0002 60.7107 36.1774 59.2711 36.1774ZM59.2711 31.0631C57.9054 31.0631 56.7901 32.1831 56.7901 33.5545C56.7901 34.9259 57.9054 36.0459 59.2711 36.0459C60.6368 36.0459 61.7521 34.9259 61.7521 33.5545C61.7521 32.1774 60.6425 31.0631 59.2711 31.0631Z" fill="#268C44"/>
<path d="M58.7991 36.0973L58.7251 35.9887C58.8901 35.8802 59.0665 35.7087 59.2372 35.4973L59.3397 35.5773C59.1576 35.8002 58.9755 35.9773 58.7991 36.0973Z" fill="#14684E"/>
<path d="M59.3397 35.5772L59.2373 35.4972C59.317 35.3944 59.4023 35.2858 59.4706 35.1715C59.7893 34.6744 60.1421 33.8058 60.0226 32.4972L60.0169 32.4344L60.0795 32.4229C60.2388 32.4001 60.3526 32.2972 60.3811 32.1486L60.3981 32.0801L60.4664 32.1029C61.0582 32.2858 61.5191 32.6229 61.8378 33.1087L61.7297 33.1829C61.4395 32.7429 61.0184 32.4286 60.4892 32.2515C60.438 32.4001 60.3185 32.5029 60.1591 32.5429C60.2673 33.8629 59.9088 34.7372 59.5844 35.2458C59.5104 35.3544 59.4251 35.4744 59.3397 35.5772Z" fill="#268C44"/>
<path d="M60.5004 35.686C60.4663 35.6745 60.4378 35.6631 60.4037 35.646C60.0452 35.4574 59.9257 34.966 60.1476 34.5431C60.3696 34.1202 60.8362 33.9317 61.1947 34.1202C61.4223 34.2402 61.5588 34.4802 61.5645 34.766H61.4337C61.428 34.526 61.3199 34.326 61.1378 34.2345C60.8419 34.0802 60.4492 34.246 60.2671 34.6002C60.085 34.9545 60.1761 35.3717 60.472 35.526C60.4947 35.5374 60.5232 35.5488 60.546 35.5602L60.5004 35.686Z" fill="#268C44"/>
<path d="M58.4063 35.9546L58.2925 35.8918C58.6055 35.3261 58.9241 34.4975 58.6225 33.0689L58.6111 33.0118L58.668 32.9946C58.7932 32.9603 58.8786 32.8403 58.8786 32.7089C58.8786 32.7032 58.8786 32.7032 58.8786 32.6975L58.8729 32.6289L58.9298 32.6232C59.0493 32.6061 59.1631 32.6003 59.2769 32.6003C59.4419 32.6003 59.7378 32.6461 59.8801 32.6803L59.8516 32.8061C59.7208 32.7775 59.4306 32.7318 59.2769 32.7318C59.1916 32.7318 59.0948 32.7375 59.0038 32.7489C58.9924 32.9032 58.8957 33.0403 58.7534 33.1032C59.0493 34.5318 58.7249 35.3775 58.4063 35.9546Z" fill="#268C44"/>
<path d="M58.0704 35.7718L57.9452 35.7432C58.1045 34.9889 58.0248 34.3832 57.6948 33.8861L57.6606 33.8347L57.7119 33.8004C57.746 33.7718 57.7688 33.7375 57.7688 33.6918C57.7688 33.6689 57.7631 33.6461 57.7517 33.6232L57.7175 33.5661L57.7801 33.5318C57.9395 33.4461 58.2297 33.3375 58.5028 33.3032L58.5199 33.4347C58.2866 33.4632 58.0476 33.5489 57.8939 33.6232C57.8996 33.6461 57.9053 33.6689 57.9053 33.6918C57.9053 33.7547 57.8826 33.8175 57.8427 33.8632C58.1557 34.3775 58.2297 35.0061 58.0704 35.7718Z" fill="#268C44"/>
<path fill-rule="evenodd" clip-rule="evenodd" d="M82.7321 51.6746H56.8978C56.0898 51.6746 55.4297 51.0174 55.4297 50.2003V44.4289C55.4297 43.6174 56.0841 42.9546 56.8978 42.9546H82.7321C83.5402 42.9546 84.2002 43.6117 84.2002 44.4289V50.2003C84.2002 51.0117 83.5402 51.6746 82.7321 51.6746Z" fill="#A7CE55"/>
<path d="M77.2192 46.2745H63.9378C63.6874 46.2745 63.4883 46.1431 63.4883 45.9831C63.4883 45.8231 63.6931 45.6917 63.9378 45.6917H77.2192C77.4696 45.6917 77.6687 45.8231 77.6687 45.9831C77.6687 46.1488 77.4696 46.2745 77.2192 46.2745Z" fill="#268C44"/>
<path d="M77.1611 47.5831H63.8797C63.6293 47.5831 63.4302 47.4517 63.4302 47.2917C63.4302 47.1317 63.635 47.0002 63.8797 47.0002H77.1611C77.4115 47.0002 77.6106 47.1317 77.6106 47.2917C77.6106 47.4574 77.4115 47.5831 77.1611 47.5831Z" fill="#268C44"/>
<path d="M69.3313 48.8917H63.8856C63.6352 48.8917 63.436 48.7603 63.436 48.6003C63.436 48.4403 63.6409 48.3088 63.8856 48.3088H69.3313C69.5816 48.3088 69.7808 48.4403 69.7808 48.6003C69.7808 48.766 69.5816 48.8917 69.3313 48.8917Z" fill="#268C44"/>
<path d="M77.1042 48.9317H71.6585C71.4081 48.9317 71.209 48.8003 71.209 48.6403C71.209 48.4803 71.4138 48.3489 71.6585 48.3489H77.1042C77.3546 48.3489 77.5537 48.4803 77.5537 48.6403C77.5594 48.8003 77.3546 48.9317 77.1042 48.9317Z" fill="#268C44"/>
<g opacity="0.63">
<path opacity="0.63" d="M80.6834 45.2175C80.342 45.2289 80.029 45.3775 79.8128 45.6118C79.5909 45.8461 79.46 46.1661 79.4714 46.5089L79.4885 47.0632L79.938 47.0518L79.9209 46.4975C79.9152 46.2746 80.0006 46.0746 80.1372 45.9203C80.2794 45.7718 80.4786 45.6746 80.6948 45.6689C80.9167 45.6632 81.1159 45.7489 81.2696 45.8861C81.4175 46.0289 81.5142 46.2232 81.5199 46.4461L81.537 47.0003L81.9865 46.9889L81.9695 46.4346C81.9581 46.0918 81.8101 45.7775 81.5768 45.5603C81.3435 45.3375 81.0249 45.2061 80.6834 45.2175Z" fill="#313131"/>
<path opacity="0.63" fill-rule="evenodd" clip-rule="evenodd" d="M82.015 49.1491L79.4259 49.1376C79.3064 49.1376 79.2153 49.0405 79.2153 48.9205L79.221 47.0862C79.221 46.9662 79.3178 46.8748 79.4373 46.8748L82.0264 46.8862C82.1459 46.8862 82.2369 46.9833 82.2369 47.1033L82.2312 48.9376C82.2312 49.0519 82.1345 49.1491 82.015 49.1491Z" fill="#4F4F4F"/>
<path opacity="0.63" fill-rule="evenodd" clip-rule="evenodd" d="M80.7291 47.2175C80.5128 47.2175 80.3364 47.3947 80.3364 47.6118C80.3364 47.7604 80.4161 47.8861 80.5356 47.9547L80.5299 48.8175H80.9168L80.9225 47.9547C81.042 47.8861 81.1217 47.7604 81.1217 47.6118C81.1217 47.3947 80.9453 47.2175 80.7291 47.2175Z" fill="#313131"/>
<path opacity="0.29" fill-rule="evenodd" clip-rule="evenodd" d="M79.2153 48.9258L79.221 47.0916C79.221 46.9716 79.3178 46.8801 79.4373 46.8801L82.0264 46.8916" fill="#847F74"/>
</g>
<path d="M59.2711 49.9772C60.6759 49.9772 61.8147 48.8336 61.8147 47.4229C61.8147 46.0122 60.6759 44.8687 59.2711 44.8687C57.8663 44.8687 56.7275 46.0122 56.7275 47.4229C56.7275 48.8336 57.8663 49.9772 59.2711 49.9772Z" fill="#268C44"/>
<path d="M58.1283 49.7036C59.0217 48.1036 58.4583 47.0122 58.4583 47.0122C57.7869 47.0579 57.269 47.5208 57.269 47.5208C58.1169 48.3036 57.7982 49.5036 57.7982 49.5036C57.7982 49.5036 58.0372 49.6751 58.1283 49.7036Z" fill="#8EE073"/>
<path d="M58.1558 49.7831L58.1046 49.766C58.0079 49.7317 57.7859 49.5774 57.7632 49.5603L57.7234 49.5317L57.7347 49.486C57.7404 49.4746 58.0306 48.3145 57.2226 47.566L57.1714 47.5203L57.2226 47.4745C57.2454 47.4574 57.7632 46.9945 58.4517 46.9488L58.4916 46.9431L58.5086 46.9831C58.5314 47.0288 59.0777 48.126 58.1786 49.7374L58.1558 49.7831ZM57.8713 49.4803C57.9339 49.5203 58.0306 49.5831 58.0989 49.6231C58.833 48.2688 58.5029 47.286 58.4176 47.0803C57.9225 47.1317 57.5128 47.4174 57.3649 47.526C58.0762 48.2403 57.9225 49.2517 57.8713 49.4803Z" fill="#268C44"/>
<path d="M59.8811 46.3726C59.0958 46.144 58.3219 46.464 58.3219 46.464C58.9649 48.6126 58.1284 49.704 58.1284 49.704C58.1284 49.704 58.6292 49.9783 59.3746 49.9783C59.3746 49.9783 60.4899 47.3383 59.8811 46.3726Z" fill="#8EE073"/>
<path d="M59.419 50.0461H59.3735C58.6167 50.0461 58.1159 49.7775 58.0932 49.7661L58.0249 49.7318L58.0704 49.6689C58.0761 49.6575 58.8785 48.5775 58.2525 46.4861L58.2354 46.4289L58.2867 46.4061C58.3208 46.3946 59.0947 46.0746 59.8913 46.3089L59.9141 46.3146L59.9255 46.3375C60.5457 47.3204 59.4703 49.8918 59.4247 50.0004L59.419 50.0461ZM58.2241 49.6804C58.3777 49.7489 58.7874 49.9032 59.3337 49.9146C59.4703 49.5832 60.358 47.3089 59.8401 46.4289C59.2142 46.2518 58.5882 46.4404 58.4005 46.5089C58.9411 48.3604 58.3948 49.4175 58.2241 49.6804Z" fill="#268C44"/>
<path d="M61.6441 46.486C60.9385 45.5774 59.7492 45.6803 59.7492 45.6803C60.3922 48.8517 58.4233 49.8288 58.4233 49.8288C58.4233 49.8288 59.6126 50.2803 60.6369 49.5774C60.6369 49.5831 62.3611 48.4803 61.6441 46.486Z" fill="#8EE073"/>
<path d="M59.3107 50.046C58.8043 50.046 58.4287 49.9089 58.4002 49.8974L58.2637 49.846L58.3946 49.7774C58.4002 49.7774 58.8782 49.5317 59.2766 48.9089C59.6407 48.3374 60.0106 47.3089 59.6863 45.6974L59.6692 45.6289L59.7432 45.6232C59.7944 45.6174 60.9723 45.526 61.695 46.4517L61.7007 46.4574L61.7064 46.4689C62.0876 47.5203 61.786 48.326 61.4674 48.8174C61.1202 49.3489 60.6935 49.6232 60.6764 49.6346C60.2098 49.9546 59.7204 50.046 59.3107 50.046ZM58.5823 49.8117C58.9181 49.9032 59.8171 50.0632 60.6024 49.526C60.6081 49.5203 61.0292 49.246 61.3592 48.7374C61.7974 48.0632 61.8714 47.3146 61.5869 46.5146C61.0064 45.7832 60.0903 45.7374 59.8285 45.7374C60.1415 47.3546 59.7602 48.3889 59.3847 48.9717C59.0888 49.4346 58.7587 49.6974 58.5823 49.8117Z" fill="#268C44"/>
<path d="M59.2711 50.046C57.8314 50.046 56.6592 48.8689 56.6592 47.4231C56.6592 45.9774 57.8314 44.8003 59.2711 44.8003C60.7107 44.8003 61.883 45.9774 61.883 47.4231C61.883 48.8689 60.7107 50.046 59.2711 50.046ZM59.2711 44.9317C57.9054 44.9317 56.7901 46.0517 56.7901 47.4231C56.7901 48.7946 57.9054 49.9146 59.2711 49.9146C60.6368 49.9146 61.7521 48.7946 61.7521 47.4231C61.7521 46.046 60.6425 44.9317 59.2711 44.9317Z" fill="#268C44"/>
<path d="M58.7991 49.9662L58.7251 49.8576C58.8901 49.7491 59.0665 49.5776 59.2372 49.3662L59.3397 49.4462C59.1576 49.6691 58.9755 49.8462 58.7991 49.9662Z" fill="#14684E"/>
<path d="M59.3397 49.4461L59.2373 49.3661C59.317 49.2633 59.4023 49.1547 59.4706 49.0404C59.7893 48.5433 60.1421 47.6747 60.0226 46.3661L60.0169 46.3033L60.0795 46.2918C60.2388 46.269 60.3526 46.1661 60.3811 46.0175L60.3981 45.949L60.4664 45.9718C61.0582 46.1547 61.5191 46.4918 61.8378 46.9775L61.7297 47.0518C61.4395 46.6118 61.0184 46.2975 60.4892 46.1204C60.438 46.269 60.3185 46.3718 60.1591 46.4118C60.2673 47.7318 59.9088 48.6061 59.5844 49.1147C59.5104 49.2233 59.4251 49.3433 59.3397 49.4461Z" fill="#268C44"/>
<path d="M60.5004 49.5546C60.4663 49.5432 60.4378 49.5317 60.4037 49.5146C60.0452 49.326 59.9257 48.8346 60.1476 48.4117C60.3696 47.9889 60.8362 47.8003 61.1947 47.9889C61.4223 48.1089 61.5588 48.3489 61.5645 48.6346H61.4337C61.428 48.3946 61.3199 48.1946 61.1378 48.1032C60.8419 47.9489 60.4492 48.1146 60.2671 48.4689C60.085 48.8232 60.1761 49.2403 60.472 49.3946C60.4947 49.406 60.5232 49.4175 60.546 49.4289L60.5004 49.5546Z" fill="#268C44"/>
<path d="M58.4063 49.8233L58.2925 49.7604C58.6055 49.1947 58.9241 48.3661 58.6225 46.9376L58.6111 46.8804L58.668 46.8633C58.7932 46.829 58.8786 46.709 58.8786 46.5776C58.8786 46.5719 58.8786 46.5719 58.8786 46.5661L58.8729 46.4976L58.9298 46.4919C59.0493 46.4747 59.1631 46.469 59.2769 46.469C59.4419 46.469 59.7378 46.5147 59.8801 46.549L59.8516 46.6747C59.7208 46.6461 59.4306 46.6004 59.2769 46.6004C59.1916 46.6004 59.0948 46.6061 59.0038 46.6176C58.9924 46.7719 58.8957 46.909 58.7534 46.9719C59.0493 48.4004 58.7249 49.2461 58.4063 49.8233Z" fill="#268C44"/>
<path d="M58.0704 49.6404L57.9452 49.6119C58.1045 48.8576 58.0248 48.2519 57.6948 47.7547L57.6606 47.7033L57.7119 47.669C57.746 47.6404 57.7688 47.6062 57.7688 47.5604C57.7688 47.5376 57.7631 47.5147 57.7517 47.4919L57.7175 47.4347L57.7801 47.4004C57.9395 47.3147 58.2297 47.2062 58.5028 47.1719L58.5199 47.3033C58.2866 47.3319 58.0476 47.4176 57.8939 47.4919C57.8996 47.5147 57.9053 47.5376 57.9053 47.5604C57.9053 47.6233 57.8826 47.6862 57.8427 47.7319C58.1557 48.2462 58.2297 48.8747 58.0704 49.6404Z" fill="#268C44"/>
<path fill-rule="evenodd" clip-rule="evenodd" d="M83.1535 65.1258H57.3192C56.5112 65.1258 55.8511 64.4686 55.8511 63.6515V57.88C55.8511 57.0686 56.5055 56.4058 57.3192 56.4058H83.1535C83.9615 56.4058 84.6216 57.0629 84.6216 57.88V63.6515C84.6216 64.4629 83.9672 65.1258 83.1535 65.1258Z" fill="#A7CE55"/>
<path d="M77.6405 59.7257H64.3592C64.1088 59.7257 63.9097 59.5942 63.9097 59.4342C63.9097 59.2742 64.1145 59.1428 64.3592 59.1428H77.6405C77.8909 59.1428 78.0901 59.2742 78.0901 59.4342C78.0958 59.6 77.8909 59.7257 77.6405 59.7257Z" fill="#268C44"/>
<path d="M77.5824 61.034H64.3011C64.0507 61.034 63.8516 60.9026 63.8516 60.7426C63.8516 60.5826 64.0564 60.4512 64.3011 60.4512H77.5824C77.8328 60.4512 78.032 60.5826 78.032 60.7426C78.0377 60.9083 77.8328 61.034 77.5824 61.034Z" fill="#268C44"/>
<path d="M69.7527 62.3429H64.307C64.0566 62.3429 63.8574 62.2115 63.8574 62.0514C63.8574 61.8914 64.0623 61.76 64.307 61.76H69.7527C70.003 61.76 70.2022 61.8914 70.2022 62.0514C70.2022 62.2172 70.003 62.3429 69.7527 62.3429Z" fill="#268C44"/>
<path d="M77.5256 62.3827H72.0799C71.8295 62.3827 71.6304 62.2512 71.6304 62.0912C71.6304 61.9312 71.8352 61.7998 72.0799 61.7998H77.5256C77.776 61.7998 77.9751 61.9312 77.9751 62.0912C77.9808 62.2512 77.776 62.3827 77.5256 62.3827Z" fill="#268C44"/>
<g opacity="0.63">
<path opacity="0.63" d="M81.1048 58.6687C80.7634 58.6801 80.4504 58.8287 80.2342 59.0629C80.0123 59.2972 79.8814 59.6172 79.8928 59.9601L79.9098 60.5144L80.3594 60.5029L80.3423 59.9486C80.3366 59.7258 80.422 59.5258 80.5586 59.3715C80.7008 59.2229 80.9 59.1258 81.1162 59.1201C81.3381 59.1144 81.5373 59.2001 81.6909 59.3372C81.8389 59.4801 81.9356 59.6744 81.9413 59.8972L81.9584 60.4515L82.4079 60.4401L82.3909 59.8858C82.3795 59.5429 82.2315 59.2287 81.9982 59.0115C81.7649 58.7887 81.4463 58.6572 81.1048 58.6687Z" fill="#313131"/>
<path opacity="0.63" fill-rule="evenodd" clip-rule="evenodd" d="M82.4364 62.6002L79.8473 62.5888C79.7278 62.5888 79.6367 62.4917 79.6367 62.3717L79.6424 60.5374C79.6424 60.4174 79.7391 60.3259 79.8586 60.3259L82.4478 60.3374C82.5673 60.3374 82.6583 60.4345 82.6583 60.5545L82.6526 62.3888C82.6526 62.5031 82.5559 62.6002 82.4364 62.6002Z" fill="#4F4F4F"/>
<path opacity="0.63" fill-rule="evenodd" clip-rule="evenodd" d="M81.1504 60.6687C80.9342 60.6687 80.7578 60.8458 80.7578 61.063C80.7578 61.2116 80.8375 61.3373 80.957 61.4058L80.9513 62.2687H81.3382L81.3439 61.4058C81.4634 61.3373 81.5431 61.2116 81.5431 61.063C81.5431 60.8458 81.3667 60.6687 81.1504 60.6687Z" fill="#313131"/>
<path opacity="0.29" fill-rule="evenodd" clip-rule="evenodd" d="M79.6367 62.3773L79.6424 60.543C79.6424 60.423 79.7391 60.3315 79.8586 60.3315L82.4478 60.343" fill="#847F74"/>
</g>
<path d="M59.693 63.4294C61.0978 63.4294 62.2366 62.2858 62.2366 60.8751C62.2366 59.4644 61.0978 58.3208 59.693 58.3208C58.2882 58.3208 57.1494 59.4644 57.1494 60.8751C57.1494 62.2858 58.2882 63.4294 59.693 63.4294Z" fill="#268C44"/>
<path d="M58.5497 63.155C59.4431 61.5551 58.8797 60.4636 58.8797 60.4636C58.2083 60.5093 57.6904 60.9722 57.6904 60.9722C58.5383 61.755 58.2196 62.955 58.2196 62.955C58.2196 62.955 58.4586 63.1265 58.5497 63.155Z" fill="#8EE073"/>
<path d="M58.5772 63.2345L58.526 63.2174C58.4293 63.1831 58.2073 63.0288 58.1846 63.0117L58.1447 62.9831L58.1561 62.9374C58.1618 62.926 58.452 61.766 57.644 61.0174L57.5928 60.9717L57.644 60.926C57.6668 60.9088 58.1846 60.446 58.8731 60.4002L58.9129 60.3945L58.93 60.4345C58.9528 60.4802 59.4991 61.5774 58.6 63.1888L58.5772 63.2345ZM58.2927 62.9317C58.3553 62.9717 58.452 63.0345 58.5203 63.0745C59.2544 61.7202 58.9243 60.7374 58.839 60.5317C58.3439 60.5831 57.9342 60.8688 57.7862 60.9774C58.5032 61.6917 58.3439 62.7031 58.2927 62.9317Z" fill="#268C44"/>
<path d="M60.302 59.8238C59.5167 59.5952 58.7428 59.9152 58.7428 59.9152C59.3858 62.0638 58.5493 63.1552 58.5493 63.1552C58.5493 63.1552 59.0501 63.4295 59.7955 63.4295C59.7955 63.4295 60.9108 60.7895 60.302 59.8238Z" fill="#8EE073"/>
<path d="M59.84 63.4972H59.7944C59.0376 63.4972 58.5368 63.2287 58.5141 63.2172L58.4458 63.183L58.4913 63.1201C58.497 63.1087 59.2994 62.0287 58.6734 59.9372L58.6563 59.8801L58.7076 59.8572C58.7417 59.8458 59.5156 59.5258 60.3123 59.7601L60.335 59.7658L60.3464 59.7887C60.9667 60.7715 59.8912 63.343 59.8456 63.4515L59.84 63.4972ZM58.645 63.1315C58.7986 63.2001 59.2083 63.3544 59.7546 63.3658C59.8912 63.0344 60.7789 60.7601 60.261 59.8801C59.6351 59.703 59.0092 59.8915 58.8214 59.9601C59.362 61.8115 58.8157 62.8687 58.645 63.1315Z" fill="#268C44"/>
<path d="M62.0655 59.9372C61.3599 59.0286 60.1706 59.1314 60.1706 59.1314C60.8136 62.3029 58.8447 63.28 58.8447 63.28C58.8447 63.28 60.034 63.7315 61.0583 63.0286C61.0583 63.0343 62.7825 61.9314 62.0655 59.9372Z" fill="#8EE073"/>
<path d="M59.7321 63.4972C59.2256 63.4972 58.8501 63.36 58.8216 63.3486L58.6851 63.2972L58.8159 63.2286C58.8216 63.2286 59.2996 62.9829 59.698 62.36C60.0621 61.7886 60.432 60.76 60.1077 59.1486L60.0906 59.08L60.1646 59.0743C60.2158 59.0686 61.3937 58.9772 62.1164 59.9029L62.1221 59.9086L62.1277 59.92C62.509 60.9715 62.2074 61.7772 61.8887 62.2686C61.5416 62.8 61.1149 63.0743 61.0978 63.0858C60.6312 63.4058 60.1418 63.4972 59.7321 63.4972ZM59.0037 63.2629C59.3395 63.3543 60.2385 63.5143 61.0238 62.9772C61.0295 62.9715 61.4506 62.6972 61.7806 62.1886C62.2188 61.5143 62.2928 60.7658 62.0082 59.9658C61.4278 59.2343 60.5117 59.1886 60.2499 59.1886C60.5629 60.8058 60.1816 61.84 59.8061 62.4229C59.5102 62.8858 59.1801 63.1486 59.0037 63.2629Z" fill="#268C44"/>
<path d="M59.6925 63.4972C58.2528 63.4972 57.0806 62.32 57.0806 60.8743C57.0806 59.4286 58.2528 58.2515 59.6925 58.2515C61.1321 58.2515 62.3043 59.4286 62.3043 60.8743C62.3043 62.32 61.1321 63.4972 59.6925 63.4972ZM59.6925 58.3829C58.3268 58.3829 57.2114 59.5029 57.2114 60.8743C57.2114 62.2458 58.3268 63.3658 59.6925 63.3658C61.0582 63.3658 62.1735 62.2458 62.1735 60.8743C62.1792 59.4972 61.0638 58.3829 59.6925 58.3829Z" fill="#268C44"/>
<path d="M59.2205 63.4171L59.1465 63.3086C59.3115 63.2 59.4879 63.0286 59.6586 62.8171L59.761 62.8971C59.5846 63.12 59.4025 63.2971 59.2205 63.4171Z" fill="#14684E"/>
<path d="M59.7611 62.8971L59.6587 62.8171C59.7384 62.7142 59.8237 62.6056 59.892 62.4913C60.2107 61.9942 60.5635 61.1256 60.444 59.817L60.4383 59.7542L60.5009 59.7428C60.6602 59.7199 60.774 59.617 60.8025 59.4685L60.8195 59.3999L60.8878 59.4228C61.4796 59.6056 61.9405 59.9428 62.2592 60.4285L62.1511 60.5028C61.8609 60.0628 61.4398 59.7485 60.9106 59.5713C60.8594 59.7199 60.7399 59.8228 60.5805 59.8628C60.6886 61.1828 60.3302 62.0571 60.0058 62.5656C59.9318 62.6742 59.8465 62.7942 59.7611 62.8971Z" fill="#268C44"/>
<path d="M60.9218 63.0058C60.8877 62.9943 60.8592 62.9829 60.8251 62.9658C60.4666 62.7772 60.3471 62.2858 60.569 61.8629C60.7853 61.4401 61.2576 61.2515 61.616 61.4401C61.8437 61.5601 61.9802 61.8001 61.9859 62.0858H61.855C61.8494 61.8458 61.7412 61.6458 61.5591 61.5544C61.2632 61.4001 60.8706 61.5658 60.6885 61.9201C60.5064 62.2743 60.5975 62.6915 60.8934 62.8458C60.9161 62.8572 60.9446 62.8686 60.9673 62.8801L60.9218 63.0058Z" fill="#268C44"/>
<path d="M58.8277 63.2745L58.7139 63.2116C59.0268 62.6459 59.3455 61.8173 59.0439 60.3887L59.0325 60.3316L59.0894 60.3145C59.2146 60.2802 59.3 60.1602 59.3 60.0287C59.3 60.023 59.3 60.023 59.3 60.0173L59.2943 59.9487L59.3512 59.943C59.4707 59.9259 59.5845 59.9202 59.6983 59.9202C59.8633 59.9202 60.1592 59.9659 60.3015 60.0002L60.273 60.1259C60.1421 60.0973 59.8519 60.0516 59.6983 60.0516C59.6129 60.0516 59.5162 60.0573 59.4252 60.0687C59.4138 60.223 59.317 60.3602 59.1748 60.423C59.4707 61.8516 59.1463 62.6973 58.8277 63.2745Z" fill="#268C44"/>
<path d="M58.4917 63.0916L58.3666 63.063C58.5259 62.3088 58.4462 61.703 58.1162 61.2059L58.082 61.1545L58.1332 61.1202C58.1674 61.0916 58.1902 61.0573 58.1902 61.0116C58.1902 60.9888 58.1845 60.9659 58.1731 60.943L58.1389 60.8859L58.2015 60.8516C58.3609 60.7659 58.6511 60.6573 58.9242 60.623L58.9413 60.7545C58.708 60.783 58.469 60.8688 58.3153 60.943C58.321 60.9659 58.3267 60.9888 58.3267 61.0116C58.3267 61.0745 58.304 61.1373 58.2641 61.183C58.5771 61.6973 58.6568 62.3259 58.4917 63.0916Z" fill="#268C44"/>
<path fill-rule="evenodd" clip-rule="evenodd" d="M19.0606 54.6272L57.721 38.1244C58.5177 37.7872 59.4395 38.1587 59.7809 38.9587L69.3749 61.6272C69.7106 62.4272 69.3408 63.3529 68.5441 63.6958L29.8837 80.1987C29.087 80.5358 28.1652 80.1644 27.8238 79.3644L18.2298 56.6958C17.8941 55.8958 18.264 54.9644 19.0606 54.6272Z" fill="#F8BF2A"/>
<path d="M65.9672 53.5732L24.418 71.3091L26.8733 77.1096L68.4225 59.3737L65.9672 53.5732Z" fill="#313131"/>
<path fill-rule="evenodd" clip-rule="evenodd" d="M23.6003 57.6671L36.5174 52.1528C37.0922 51.9071 37.7523 52.1757 37.9969 52.7528C38.2416 53.33 37.9742 53.9928 37.3995 54.2386L24.4823 59.7528C23.9076 59.9986 23.2475 59.73 23.0028 59.1528C22.7581 58.5757 23.0256 57.9128 23.6003 57.6671Z" fill="#FCE827"/>
<path fill-rule="evenodd" clip-rule="evenodd" d="M25.0568 61.1128L34.6337 57.0271C35.2085 56.7814 35.8685 57.05 36.1132 57.6271C36.3579 58.2043 36.0905 58.8671 35.5157 59.1128L25.9388 63.1985C25.3641 63.4442 24.704 63.1757 24.4593 62.5985C24.2147 62.0214 24.4821 61.3528 25.0568 61.1128Z" fill="#FCE827"/>
<path fill-rule="evenodd" clip-rule="evenodd" d="M52.2007 44.2612C54.3744 43.3355 56.8838 44.3526 57.8114 46.5298C58.7332 48.7126 57.7203 51.2326 55.5466 52.1583C53.3729 53.084 50.8634 52.0669 49.9359 49.8897C49.0084 47.7069 50.0269 45.1869 52.2007 44.2612Z" fill="#FCE827"/>
<path opacity="0.29" fill-rule="evenodd" clip-rule="evenodd" d="M18.9571 54.5242L57.6175 38.0213C58.4141 37.6841 29.7801 80.0899 29.7801 80.0899C28.9835 80.427 28.0617 80.0556 27.7202 79.2556L18.1263 56.587C17.7848 55.7927 18.1604 54.8613 18.9571 54.5242Z" fill="#F6B900"/>
<path d="M115.828 53.7888C113.995 53.6745 112.317 54.4402 111.19 55.7259C111.201 55.5888 111.207 55.4516 111.207 55.3145C111.207 52.6745 109.073 50.5373 106.45 50.5373C105.243 50.5373 104.139 50.9888 103.303 51.7316C103.001 51.0916 102.603 50.4859 102.114 49.9259C99.297 46.7259 94.4317 46.4288 91.2451 49.2573C89.3161 50.9716 88.4454 53.4459 88.6844 55.8345C88.3146 55.743 87.9219 55.6916 87.5236 55.6916C84.8946 55.6916 82.7607 57.8345 82.7607 60.4688C82.7607 62.903 84.5703 64.9088 86.9147 65.2116V65.2516H115.589C118.536 65.1945 120.989 62.8745 121.176 59.8688C121.37 56.703 118.974 53.983 115.828 53.7888Z" fill="url(#paint2_linear_1240_12289)"/>
<defs>
<linearGradient id="paint0_linear_1240_12289" x1="26.2789" y1="-0.131103" x2="79.7711" y2="46.5637" gradientUnits="userSpaceOnUse">
<stop stop-color="#C3D8FA"/>
<stop offset="1" stop-color="white"/>
</linearGradient>
<linearGradient id="paint1_linear_1240_12289" x1="70.9408" y1="86.4572" x2="68.6847" y2="13.7231" gradientUnits="userSpaceOnUse">
<stop stop-color="#D1D3D4"/>
<stop offset="1" stop-color="white"/>
</linearGradient>
<linearGradient id="paint2_linear_1240_12289" x1="85.2777" y1="45.0724" x2="139.71" y2="92.5883" gradientUnits="userSpaceOnUse">
<stop stop-color="#65B0FD"/>
<stop offset="0.5048" stop-color="#8980FD"/>
<stop offset="1" stop-color="#AA54FD"/>
</linearGradient>
</defs>
</svg>
