<svg width="60" height="60" viewBox="0 0 60 60" fill="none" xmlns="http://www.w3.org/2000/svg">
<g clip-path="url(#clip0_4024_16639)">
<rect width="60" height="60" rx="30" fill="#F1FCF4"/>
<rect x="24.2886" y="42.5767" width="12.1909" height="22.3833" fill="white"/>
<rect x="25.2876" y="35.1816" width="10.1924" height="8.99328" fill="#E0B392"/>
<path d="M30.8834 43.7756H29.7842L27.386 46.0739L28.9848 49.2715C28.5851 51.1901 27.486 59.3307 26.9863 63.1611H33.3815C33.5414 61.7222 32.2491 53.3018 31.5829 49.2715L33.5814 46.0739L30.8834 43.7756Z" fill="#28AF60"/>
<g filter="url(#filter0_d_4024_16639)">
<path d="M30.8836 43.7754H29.7844L27.3862 46.0737L28.985 49.2713H31.5831L33.5816 46.0737L30.8836 43.7754Z" fill="#28AF60"/>
</g>
<g filter="url(#filter1_d_4024_16639)">
<path d="M29.7845 43.6757C29.065 43.5158 26.3537 40.2116 24.988 38.3796C23.2893 42.9762 25.5876 49.0716 25.6875 47.9725C25.7874 46.8733 30.6838 43.8755 29.7845 43.6757Z" fill="white"/>
</g>
<g filter="url(#filter2_d_4024_16639)">
<path d="M30.784 44.0754C30.3843 43.5158 34.681 41.4773 35.9801 38.3796C35.9801 38.4796 36.06 38.9192 36.3798 39.8785C36.7795 41.0776 34.781 49.2715 34.3813 47.6727C33.9816 46.0739 31.2836 44.7749 30.784 44.0754Z" fill="white"/>
</g>
<ellipse cx="38.9826" cy="27.2243" rx="1.5988" ry="2.09843" transform="rotate(34.276 38.9826 27.2243)" fill="#DFB292"/>
<ellipse cx="1.5988" cy="2.09843" rx="1.5988" ry="2.09843" transform="matrix(-0.826335 0.563179 0.563179 0.826335 21.5347 24.5898)" fill="#DFB292"/>
<path d="M23.1894 41.4772C23.9888 40.9176 24.7216 39.0457 24.988 38.1797C24.988 38.5128 24.9081 39.3988 24.5883 40.2781C24.1886 41.3773 25.4877 43.2759 25.4877 44.0753C25.4877 44.7148 26.1538 57.0656 26.4869 63.161H34.0813C34.3144 56.6326 34.9206 43.3958 35.4802 42.6763C36.0398 41.9569 36.1131 39.8451 36.0798 38.8792L36.5794 39.1789C37.4787 42.5764 41.2759 42.6763 48.2706 45.1745C51.5682 46.3522 51.7347 49.5379 51.5682 50.4705L51.9679 68.3571L9 68.557V50.6704C9.06662 50.304 9.5396 49.1715 10.8986 47.5727C12.5973 45.5742 22.1901 42.1767 23.1894 41.4772Z" fill="#333333"/>
<ellipse cx="30.2841" cy="28.2873" rx="8.79343" ry="10.0925" fill="#FCDEBE"/>
<path d="M20.5183 25.529C19.0411 18.3549 20.5183 17.3339 21.4415 16.7155L21.9032 16.2516C20.5491 12.6645 25.1751 11.107 27.5859 11.0555C40.0498 10.2824 40.6761 17.7983 40.6761 20.5813C40.6761 22.8078 39.8493 26.4769 38.9773 28.4869C38.9773 27.5077 38.0602 26.1475 38.0602 24.9106C38.0602 23.3644 36.7349 19.9555 34.5806 21.1924C32.4264 22.4293 27.5966 21.9729 25.7501 21.509C23.9036 21.0452 23.5958 21.8183 23.1342 22.5913C22.7649 23.2098 21.7562 26.4746 21.4998 29L20.5183 25.529Z" fill="#333333"/>
</g>
<rect x="0.75" y="0.75" width="58.5" height="58.5" rx="29.25" stroke="#D0EDDC" stroke-width="1.5"/>
<defs>
<filter id="filter0_d_4024_16639" x="23.3862" y="40.7754" width="14.1953" height="13.4958" filterUnits="userSpaceOnUse" color-interpolation-filters="sRGB">
<feFlood flood-opacity="0" result="BackgroundImageFix"/>
<feColorMatrix in="SourceAlpha" type="matrix" values="0 0 0 0 0 0 0 0 0 0 0 0 0 0 0 0 0 0 127 0" result="hardAlpha"/>
<feOffset dy="1"/>
<feGaussianBlur stdDeviation="2"/>
<feColorMatrix type="matrix" values="0 0 0 0 0 0 0 0 0 0 0 0 0 0 0 0 0 0 0.05 0"/>
<feBlend mode="normal" in2="BackgroundImageFix" result="effect1_dropShadow_4024_16639"/>
<feBlend mode="normal" in="SourceGraphic" in2="effect1_dropShadow_4024_16639" result="shape"/>
</filter>
<filter id="filter1_d_4024_16639" x="16.3643" y="34.3796" width="21.5303" height="25.7229" filterUnits="userSpaceOnUse" color-interpolation-filters="sRGB">
<feFlood flood-opacity="0" result="BackgroundImageFix"/>
<feColorMatrix in="SourceAlpha" type="matrix" values="0 0 0 0 0 0 0 0 0 0 0 0 0 0 0 0 0 0 127 0" result="hardAlpha"/>
<feOffset dy="4"/>
<feGaussianBlur stdDeviation="4"/>
<feComposite in2="hardAlpha" operator="out"/>
<feColorMatrix type="matrix" values="0 0 0 0 0 0 0 0 0 0 0 0 0 0 0 0 0 0 0.15 0"/>
<feBlend mode="normal" in2="BackgroundImageFix" result="effect1_dropShadow_4024_16639"/>
<feBlend mode="normal" in="SourceGraphic" in2="effect1_dropShadow_4024_16639" result="shape"/>
</filter>
<filter id="filter2_d_4024_16639" x="22.7578" y="34.3796" width="21.6743" height="25.499" filterUnits="userSpaceOnUse" color-interpolation-filters="sRGB">
<feFlood flood-opacity="0" result="BackgroundImageFix"/>
<feColorMatrix in="SourceAlpha" type="matrix" values="0 0 0 0 0 0 0 0 0 0 0 0 0 0 0 0 0 0 127 0" result="hardAlpha"/>
<feOffset dy="4"/>
<feGaussianBlur stdDeviation="4"/>
<feComposite in2="hardAlpha" operator="out"/>
<feColorMatrix type="matrix" values="0 0 0 0 0 0 0 0 0 0 0 0 0 0 0 0 0 0 0.15 0"/>
<feBlend mode="normal" in2="BackgroundImageFix" result="effect1_dropShadow_4024_16639"/>
<feBlend mode="normal" in="SourceGraphic" in2="effect1_dropShadow_4024_16639" result="shape"/>
</filter>
<clipPath id="clip0_4024_16639">
<rect width="60" height="60" rx="30" fill="white"/>
</clipPath>
</defs>
</svg>
