<svg width="34" height="34" viewBox="0 0 34 34" fill="none" xmlns="http://www.w3.org/2000/svg">
<circle cx="17" cy="17" r="16.5" fill="#E9F6EB" stroke="#DAF1DE"/>
<mask id="mask0_496_24239" style="mask-type:alpha" maskUnits="userSpaceOnUse" x="1" y="1" width="32" height="32">
<circle cx="17" cy="17" r="16" fill="#E9F6EB"/>
</mask>
<g mask="url(#mask0_496_24239)">
<path d="M25.5253 22.8413L23.1123 27.937L22.0986 35.9177L20.9793 44.9285L15.3167 44.4576L9.10536 43.743L10.0727 36.1192L9.4916 28.2115C8.3956 29.74 6.15985 32.0669 2.64899 32.5904C-1.14863 33.1657 -4.41221 19.2286 -4.41221 19.2286L-0.585214 17.6835L3.30415 26.9173L6.97193 23.3498L6.98158 23.3713C7.19109 23.1475 7.38877 22.9549 7.49835 22.8538C9.41403 20.6195 10.9629 19.8692 13.8947 19.8395L18.1078 19.6715C19.201 19.7472 23.4214 20.1706 25.5253 22.8413Z" fill="#288C50"/>
<path d="M9.73191 21.0407C9.73191 21.0407 9.66528 21.1225 9.55351 21.2763C9.44174 21.4302 9.32564 21.6894 9.21702 22.0228C9.1084 22.3562 9.0599 22.7659 9.05221 23.209C9.05417 23.6735 9.09693 24.1713 9.14935 24.6907C9.23271 25.7391 9.33007 26.7036 9.40713 27.3928C9.43492 27.7423 9.45521 28.0175 9.46802 28.2186C9.48517 28.3143 9.49266 28.3885 9.49049 28.4412C9.48832 28.4939 9.49798 28.5154 9.49798 28.5154C9.49798 28.5154 9.48832 28.4939 9.49049 28.4412C9.49266 28.3885 9.48517 28.3143 9.46802 28.2186C9.45521 28.0175 9.41343 27.7519 9.38564 27.4025C9.30858 26.7133 9.21123 25.7488 9.12787 24.7004C9.07544 24.181 9.02302 23.6617 9.03072 23.2186C9.02876 22.7541 9.09874 22.3347 9.20736 22.0013C9.31598 21.6679 9.46323 21.4205 9.575 21.2666C9.64162 21.1849 9.67494 21.144 9.72974 21.0934C9.71042 21.0504 9.73191 21.0407 9.73191 21.0407Z" fill="#263238"/>
<g opacity="0.3">
<g opacity="0.3">
<path opacity="0.3" d="M9.02367 23.4293C9.02337 26.7642 7.6919 29.1485 5.48091 31.6451C5.48091 31.6451 7.77936 30.6084 9.41471 28.268" fill="black"/>
</g>
</g>
<path d="M4.82881 28.2928C4.83846 28.3143 4.5228 28.3015 4.15452 28.2867C3.77658 28.2504 3.48239 28.2279 3.47274 28.2065C3.46308 28.185 3.77875 28.1977 4.14703 28.2125C4.53678 28.2177 4.84063 28.2616 4.82881 28.2928Z" fill="#FAFAFA"/>
<path d="M4.53405 31.1412C4.54371 31.1627 4.18506 31.1694 3.78779 31.09C3.36904 31.0204 3.06952 30.8711 3.06952 30.8711C3.08134 30.8399 3.39269 30.958 3.78996 31.0373C4.18723 31.1167 4.5244 31.1197 4.53405 31.1412Z" fill="#FAFAFA"/>
<path d="M1.98995 29.4441C2.02109 29.4559 1.88137 29.7775 1.70618 30.1925C1.55247 30.5979 1.39126 30.9292 1.38161 30.9077C1.35047 30.8958 1.49019 30.5743 1.66539 30.1592C1.82875 29.7753 1.96847 29.4538 1.98995 29.4441Z" fill="#FAFAFA"/>
<path d="M1.06878 27.4534C1.07844 27.4749 0.784217 27.4525 0.429887 27.3538C0.0755572 27.2551 -0.171369 27.1079 -0.149888 27.0982C-0.138065 27.067 0.130344 27.2045 0.453537 27.2914C0.79821 27.3686 1.08061 27.4222 1.06878 27.4534Z" fill="#FAFAFA"/>
<path d="M1.01538 23.5985C1.04652 23.6103 0.937937 23.9437 0.784221 24.3491C0.630505 24.7545 0.52192 25.0878 0.490782 25.076C0.459643 25.0642 0.568228 24.7308 0.721944 24.3254C0.87566 23.92 1.00573 23.577 1.01538 23.5985Z" fill="#FAFAFA"/>
<path d="M12.0598 12.1529C11.8571 11.7016 11.6232 11.2384 11.5063 10.7483C11.3895 10.2582 11.3585 9.72936 11.5358 9.26168C11.7132 8.794 12.0988 8.38747 12.5884 8.27004C12.8966 8.2086 13.2219 8.24282 13.5012 8.1169C13.833 7.9931 14.0468 7.66406 14.2992 7.42099C14.6944 7.03596 15.2217 6.77232 15.7737 6.67849C16.07 6.64823 16.376 6.63947 16.6444 6.77691C16.9031 6.89286 17.1242 7.15501 17.1542 7.45167C17.486 7.32787 17.8393 7.19439 18.2097 7.15657C18.5802 7.11874 18.9463 7.18626 19.2318 7.41936C19.5173 7.65246 19.6482 8.0587 19.487 8.38986C19.7684 8.21127 20.2064 8.3239 20.3846 8.60542C20.5627 8.88695 20.5357 9.28684 20.3552 9.57501C20.1747 9.86318 19.7215 10.1193 19.3822 10.1689C19.0429 10.2185 18.651 10.266 18.3278 10.1791" fill="#313131"/>
<path d="M15.7929 22.9341C17.2224 22.7806 18.2549 21.5134 18.103 20.0825C18.0303 19.2879 17.9629 18.6203 17.9629 18.6203C17.9629 18.6203 19.9821 18.2266 19.9282 16.2086C19.8957 14.1808 19.3907 9.54815 19.3907 9.54815C17.0145 8.62921 14.309 9.04799 12.3549 10.6791L12.0498 10.9201L12.906 20.5909C13.058 22.0219 14.342 23.0973 15.7929 22.9341Z" fill="#FCDEBE"/>
<path d="M17.9755 18.5895C17.9755 18.5895 16.6943 18.7279 15.304 17.9331C15.304 17.9331 15.9724 19.3637 17.9849 19.1281L17.9755 18.5895Z" fill="#E0B392"/>
<path d="M12.3863 12.9894C12.3551 12.9776 10.9785 12.6161 11.0585 14.0019C11.1384 15.3878 12.5143 14.9999 12.5261 14.9687C12.5165 14.9472 12.3863 12.9894 12.3863 12.9894Z" fill="#FCDEBE"/>
<path d="M12.0716 14.4754C12.0716 14.4754 12.0501 14.4851 12.0071 14.5045C11.9642 14.5239 11.8997 14.553 11.8278 14.5079C11.6817 14.4703 11.554 14.2435 11.5219 13.9994C11.5166 13.8726 11.5424 13.7575 11.5682 13.6424C11.6037 13.5488 11.6703 13.4671 11.7348 13.438C11.7992 13.4089 11.8712 13.4541 11.8905 13.4971C11.9098 13.5401 11.898 13.5712 11.9195 13.5616C11.9195 13.5616 11.9624 13.5422 11.9335 13.4777C11.9238 13.4562 11.9045 13.4132 11.8733 13.4014C11.8325 13.3681 11.7799 13.3659 11.7369 13.3853C11.6413 13.4026 11.5318 13.5037 11.5059 13.6188C11.4586 13.7436 11.4328 13.8586 11.4478 14.007C11.4681 14.2823 11.6366 14.5424 11.8352 14.582C11.919 14.596 12.005 14.5572 12.0479 14.5378C12.0694 14.5281 12.0716 14.4754 12.0716 14.4754Z" fill="#E8B792"/>
<path d="M18.8154 12.702C18.8304 12.8503 18.7091 12.9825 18.5395 13.0073C18.3914 13.0224 18.2381 12.9108 18.2446 12.7529C18.2296 12.6046 18.3509 12.4724 18.5205 12.4476C18.6685 12.4325 18.8219 12.5441 18.8154 12.702Z" fill="#313131"/>
<path d="M15.7649 12.81C15.7798 12.9582 15.6585 13.0904 15.489 13.1152C15.3409 13.1304 15.1875 13.0187 15.1725 12.8705C15.1576 12.7222 15.2789 12.59 15.4484 12.5652C15.618 12.5404 15.7714 12.652 15.7649 12.81Z" fill="#313131"/>
<path d="M17.2421 14.8339C17.2325 14.8124 17.4237 14.7779 17.7417 14.7379C17.8158 14.7303 17.8899 14.7227 17.9136 14.6603C17.9372 14.598 17.8986 14.512 17.86 14.4259C17.773 14.2324 17.6861 14.0389 17.611 13.8142C17.2558 12.9659 16.9896 12.2585 17.0326 12.2391C17.0756 12.2197 17.3847 12.9078 17.7399 13.756C17.8365 13.9711 17.9019 14.1743 17.9889 14.3678C18.0275 14.4538 18.0758 14.5613 18.05 14.6764C18.0263 14.7388 17.9715 14.7894 17.9189 14.7872C17.8759 14.8066 17.8233 14.8045 17.7803 14.8239C17.4527 14.8424 17.2518 14.8554 17.2421 14.8339Z" fill="#E8B792"/>
<path d="M16.3475 15.0825C16.4001 15.0846 16.4182 15.4125 16.7038 15.6457C16.9894 15.8788 17.3503 15.8195 17.3696 15.8625C17.3793 15.884 17.2933 15.9227 17.1451 15.9379C16.9969 15.953 16.7671 15.9016 16.6039 15.7683C16.4096 15.6233 16.3441 15.4201 16.3173 15.3029C16.2809 15.1642 16.3164 15.0707 16.3475 15.0825Z" fill="#E8B792"/>
<path d="M18.9553 11.8629C18.9101 11.935 18.6804 11.8835 18.4173 11.8729C18.1543 11.8624 17.9513 11.928 17.8912 11.8518C17.8719 11.8088 17.8955 11.7464 17.9933 11.6765C18.091 11.6066 18.2414 11.5387 18.4207 11.5354C18.6 11.5321 18.7557 11.5911 18.8372 11.6577C18.9596 11.7576 18.9886 11.8221 18.9553 11.8629Z" fill="#313131"/>
<path d="M15.5987 11.463C15.5654 11.5039 15.4817 11.4899 15.3764 11.4857C15.2616 11.46 15.1252 11.4439 14.9985 11.4493C14.8407 11.443 14.7236 11.4699 14.6066 11.4969C14.511 11.5141 14.4154 11.5314 14.3961 11.4884C14.3553 11.4551 14.3908 11.3615 14.5003 11.2604C14.6099 11.1593 14.7817 11.0818 14.9922 11.0903C15.2026 11.0988 15.3894 11.1697 15.4807 11.2577C15.6149 11.3265 15.632 11.4221 15.5987 11.463Z" fill="#313131"/>
<path d="M19.5088 10.1641C19.5088 10.1641 18.1601 10.669 16.5391 10.1077C15.4688 9.73749 14.2921 9.64785 14.0612 9.88121C13.8303 10.1146 13.9137 11.1625 12.9687 11.5886C12.9687 11.5886 13.2997 13.5328 12.5181 13.5752C11.7365 13.6175 11.8117 10.508 11.8117 10.508L13.5997 9.31395L15.6195 8.63571L17.5694 8.37669L19.4643 8.68521L19.5088 10.1641Z" fill="#313131"/>
<path d="M18.5074 37.8259L21.2851 41.5368L29.7852 35.0401C31.6135 33.6467 31.9324 31.021 30.4995 29.2113L25.4097 22.7687L20.7672 25.9484L26.0978 31.6619L18.5074 37.8259Z" fill="#288C50"/>
<path d="M29.9934 34.8683C29.9934 34.8683 29.972 34.878 29.9601 34.9092C29.9172 34.9285 29.8839 34.9694 29.8505 35.0103C29.7313 35.0899 29.5788 35.2104 29.3714 35.3815C28.9471 35.7022 28.3584 36.1745 27.586 36.7555C26.051 37.9391 23.896 39.5832 21.3931 41.4877L21.3716 41.4974L21.3619 41.4759C20.4485 40.3626 19.5201 39.1009 18.5176 37.8468L18.5079 37.8253L18.5294 37.8156C18.6057 37.7554 18.6605 37.7048 18.7367 37.6446C21.5491 35.3937 24.1231 33.3021 26.1513 31.6634L26.1394 31.6946C24.847 30.3127 23.7876 29.1619 23.0716 28.3731C22.7088 27.968 22.4157 27.6607 22.2236 27.463C22.1227 27.3534 22.0626 27.2771 22.0121 27.2223C21.9617 27.1675 21.9424 27.1245 21.9424 27.1245C21.9424 27.1245 21.9735 27.1363 22.0239 27.1911C22.0744 27.2459 22.156 27.3125 22.2569 27.4221C22.4587 27.6413 22.7421 27.9272 23.1049 28.3323C23.8423 29.1113 24.9018 30.2622 26.1942 31.644L26.2039 31.6655L26.1824 31.6752C24.1542 33.3139 21.5803 35.4055 18.7679 37.6564C18.6916 37.7166 18.6153 37.7769 18.5605 37.8275L18.5627 37.7748C19.5749 39.0504 20.5151 40.2809 21.4071 41.4039L21.3544 41.4017C23.8574 39.4972 26.0338 37.8434 27.5571 36.691C28.3295 36.11 28.9278 35.6592 29.3521 35.3385C29.5691 35.1889 29.7217 35.0684 29.8312 34.9673C29.886 34.9167 29.929 34.8974 29.9505 34.8877C29.972 34.878 29.9934 34.8683 29.9934 34.8683Z" fill="white"/>
<path d="M28.3609 32.2188C28.3609 32.2188 28.2482 32.1404 28.0635 32.0168C27.8789 31.8933 27.5986 31.787 27.2755 31.7001C26.9523 31.6132 26.6462 31.622 26.424 31.6447C26.2017 31.6674 26.0846 31.6943 26.075 31.6729C26.075 31.6729 26.0964 31.6632 26.1609 31.6341C26.2253 31.605 26.2994 31.5975 26.4261 31.592C26.6484 31.5693 26.9544 31.5606 27.2991 31.6378C27.6223 31.7247 27.9122 31.8524 28.0968 31.976C28.1999 32.0329 28.2503 32.0877 28.3008 32.1425C28.3201 32.1855 28.3609 32.2188 28.3609 32.2188Z" fill="white"/>
<g opacity="0.2">
<g opacity="0.2">
<path opacity="0.2" d="M25.9762 31.5108C26.5089 31.374 27.0415 31.2371 27.5741 31.1003C27.7652 31.0658 27.9467 31.0098 28.1357 31.028C28.3247 31.0462 28.5329 31.1073 28.6531 31.2599C28.7733 31.4125 28.7958 31.635 28.6841 31.7888C28.5842 31.9114 28.3812 31.977 28.2137 31.9492C28.0462 31.9213 27.8809 31.8408 27.7252 31.7818C27.4236 31.6852 27.0982 31.651 26.7922 31.6597C26.644 31.6749 26.4959 31.69 26.3595 31.6739C26.2135 31.6364 26.0911 31.5365 26.0761 31.3882" fill="black"/>
</g>
</g>
</g>
</svg>
