<svg width="40" height="40" viewBox="0 0 40 40" fill="none" xmlns="http://www.w3.org/2000/svg">
<rect x="0.5" y="0.5" width="39" height="39" rx="3.5" fill="#F6F6F6"/>
<path d="M22.6785 13.0784C23.2412 12.5157 24.0043 12.1996 24.8001 12.1996C25.5959 12.1996 26.359 12.5157 26.9217 13.0784C27.4844 13.6411 27.8005 14.4042 27.8005 15.2C27.8005 15.9958 27.4844 16.7589 26.9217 17.3216L25.4517 18.7904C25.2878 18.9602 25.1972 19.1876 25.1994 19.4236C25.2015 19.6596 25.2963 19.8852 25.4633 20.052C25.6302 20.2188 25.856 20.3134 26.092 20.3153C26.3279 20.3172 26.5552 20.2264 26.7249 20.0624L28.1937 18.5936C29.0681 17.6883 29.5519 16.4758 29.5409 15.2173C29.53 13.9587 29.0252 12.7548 28.1352 11.8649C27.2453 10.9749 26.0414 10.4701 24.7828 10.4592C23.5243 10.4482 22.3118 10.932 21.4065 11.8064L17.8065 15.4064C17.3389 15.874 16.973 16.4332 16.7317 17.0489C16.4904 17.6646 16.3789 18.3236 16.4043 18.9844C16.4296 19.6452 16.5913 20.2936 16.879 20.889C17.1668 21.4844 17.5745 22.014 18.0765 22.4444C18.2581 22.596 18.492 22.67 18.7278 22.6504C18.9635 22.6309 19.1821 22.5193 19.3362 22.3398C19.4902 22.1603 19.5675 21.9274 19.5511 21.6914C19.5348 21.4554 19.4262 21.2353 19.2489 21.0788C18.9347 20.8099 18.6796 20.4789 18.4994 20.1067C18.3193 19.7345 18.218 19.3291 18.202 18.9158C18.186 18.5026 18.2556 18.0906 18.4065 17.7055C18.5573 17.3205 18.7861 16.9708 19.0785 16.6784L22.6785 13.0784Z" fill="#5F5F5F"/>
<path d="M21.9236 17.5558C21.7421 17.4042 21.5081 17.3302 21.2724 17.3498C21.0366 17.3693 20.8181 17.4809 20.664 17.6604C20.5099 17.8399 20.4327 18.0728 20.449 18.3088C20.4653 18.5448 20.5739 18.7649 20.7512 18.9214C21.0654 19.1903 21.3206 19.5213 21.5007 19.8935C21.6809 20.2657 21.7821 20.6712 21.7981 21.0844C21.8141 21.4976 21.7445 21.9096 21.5937 22.2947C21.4429 22.6797 21.2141 23.0294 20.9216 23.3218L17.3216 26.9218C16.759 27.4845 15.9958 27.8006 15.2 27.8006C14.4043 27.8006 13.6411 27.4845 13.0784 26.9218C12.5158 26.3591 12.1997 25.596 12.1997 24.8002C12.1997 24.0045 12.5158 23.2413 13.0784 22.6786L14.5484 21.2098C14.7123 21.04 14.8029 20.8126 14.8008 20.5766C14.7986 20.3406 14.7038 20.115 14.5369 19.9482C14.3699 19.7814 14.1442 19.6868 13.9082 19.6849C13.6722 19.683 13.4449 19.7738 13.2752 19.9378L11.8064 21.4066C11.348 21.8494 10.9823 22.379 10.7308 22.9647C10.4792 23.5503 10.3468 24.1801 10.3412 24.8175C10.3357 25.4548 10.4572 26.0869 10.6985 26.6768C10.9399 27.2667 11.2963 27.8026 11.747 28.2533C12.1976 28.704 12.7336 29.0604 13.3235 29.3018C13.9134 29.5431 14.5454 29.6645 15.1828 29.659C15.8201 29.6535 16.45 29.5211 17.0356 29.2695C17.6212 29.0179 18.1509 28.6523 18.5936 28.1938L22.1936 24.5938C22.6612 24.1262 23.0272 23.567 23.2684 22.9513C23.5097 22.3356 23.6212 21.6766 23.5959 21.0158C23.5705 20.355 23.4089 19.7066 23.1211 19.1112C22.8334 18.5158 22.4257 17.9862 21.9236 17.5558Z" fill="#5F5F5F"/>
<rect x="0.5" y="0.5" width="39" height="39" rx="3.5" stroke="#DEDEDE"/>
</svg>
