<svg width="40" height="40" viewBox="0 0 40 40" fill="none" xmlns="http://www.w3.org/2000/svg">
<circle cx="20" cy="20" r="20" fill="url(#paint0_linear_1240_13335)"/>
<path d="M17.8929 26.2102C17.7216 26.2105 17.5585 26.1353 17.4474 26.0049L14.3533 22.3816C14.1431 22.1355 14.1722 21.7658 14.4183 21.5556C14.6645 21.3458 15.0342 21.3749 15.2443 21.6207L17.9668 24.8089L24.7287 19.3078C24.9797 19.1035 25.3487 19.1414 25.5527 19.3924C25.757 19.6435 25.7191 20.0125 25.468 20.2165L18.262 26.0788C18.158 26.1638 18.0276 26.2102 17.8929 26.2102Z" fill="#F7941D"/>
<path d="M17.6994 37.5201L19.2874 38.2121C19.4358 38.2768 19.6047 38.2771 19.7535 38.2127L21.5427 37.44C27.8251 34.8015 31.9122 28.6526 31.9129 21.8387V13.8119C31.9129 13.5955 31.7935 13.3965 31.6027 13.2948L19.8371 7.02552C19.6626 6.93237 19.4534 6.93367 19.2802 7.02879L7.84021 13.2981C7.65259 13.401 7.53622 13.5978 7.53622 13.8119V22.0012C7.54309 28.733 11.5315 34.8231 17.6994 37.5201ZM8.70771 14.1587L19.5655 8.20779L30.7414 14.163V21.8387C30.7401 28.1829 26.9337 33.9072 21.0841 36.3623L21.0799 36.3643L19.522 37.037L18.1682 36.4463C12.4268 33.936 8.71392 28.2675 8.70738 22.0012L8.70771 14.1587Z" fill="#208E44"/>
<defs>
<linearGradient id="paint0_linear_1240_13335" x1="20" y1="0" x2="20" y2="40" gradientUnits="userSpaceOnUse">
<stop stop-color="#E3FAE8"/>
<stop offset="1" stop-color="#E3FAE8" stop-opacity="0"/>
</linearGradient>
</defs>
</svg>
