<svg width="40" height="40" viewBox="0 0 40 40" fill="none" xmlns="http://www.w3.org/2000/svg">
<rect x="0.5" y="0.5" width="39" height="39" rx="3.5" fill="#F6F6F6"/>
<path fill-rule="evenodd" clip-rule="evenodd" d="M13.7879 22.02C13.8309 22.0343 13.8751 22.0447 13.9199 22.051C14.2029 22.7176 14.4842 23.385 14.7639 24.053C15.2669 25.255 15.7739 26.493 15.8849 26.849C16.0239 27.287 16.1699 27.585 16.3299 27.789C16.4129 27.893 16.5079 27.985 16.6199 28.055C16.6783 28.0915 16.7407 28.121 16.8059 28.143C17.1259 28.263 17.4179 28.213 17.6009 28.152C17.7083 28.1153 17.8105 28.0649 17.9049 28.002L17.9099 28L20.7359 26.238L24.0009 28.74C24.0489 28.777 24.1009 28.808 24.1569 28.833C24.5489 29.003 24.9289 29.063 25.2869 29.015C25.643 28.965 25.9259 28.816 26.1369 28.647C26.3792 28.4517 26.5724 28.2024 26.7009 27.919L26.7099 27.897L26.7129 27.889L26.7149 27.885V27.883L26.7159 27.882C26.7333 27.839 26.7467 27.7945 26.7559 27.749L29.7359 12.724C29.7454 12.6759 29.75 12.627 29.7499 12.578C29.7499 12.138 29.5839 11.719 29.1949 11.466C28.8609 11.249 28.4899 11.239 28.2549 11.257C28.0029 11.277 27.7689 11.339 27.6119 11.389C27.5241 11.4168 27.4373 11.4482 27.3519 11.483L27.3409 11.488L10.6269 18.044L10.6249 18.045C10.5684 18.0658 10.5127 18.0888 10.4579 18.114C10.3254 18.1736 10.1983 18.2445 10.0779 18.326C9.85095 18.481 9.32795 18.907 9.41695 19.611C9.48695 20.171 9.87095 20.516 10.1059 20.682C10.2339 20.773 10.3559 20.838 10.4459 20.881C10.4859 20.901 10.5719 20.935 10.6089 20.951L10.6189 20.954L13.7879 22.02ZM27.9259 12.868H27.9239C27.9153 12.8718 27.9067 12.8755 27.8979 12.879L11.1639 19.444C11.1553 19.4475 11.1467 19.4508 11.1379 19.454L11.1279 19.457C11.0974 19.469 11.0674 19.4823 11.0379 19.497C11.0658 19.5129 11.0945 19.5273 11.1239 19.54L14.2659 20.598C14.3221 20.6169 14.3758 20.6424 14.4259 20.674L24.8029 14.599L24.8129 14.594C24.8533 14.5695 24.8946 14.5468 24.9369 14.526C25.0089 14.489 25.1239 14.435 25.2539 14.395C25.3439 14.367 25.6109 14.288 25.8989 14.381C26.0517 14.4291 26.1878 14.5193 26.2918 14.6411C26.3958 14.7629 26.4634 14.9116 26.4869 15.07C26.5242 15.2087 26.5252 15.3547 26.4899 15.494C26.4199 15.769 26.2279 15.983 26.0519 16.147C25.9019 16.287 23.9569 18.163 22.0379 20.015L19.4249 22.535L18.9599 22.985L24.8319 27.487C24.9112 27.5203 24.9973 27.534 25.0829 27.527C25.1261 27.5211 25.1667 27.5031 25.1999 27.475C25.2405 27.4408 25.2753 27.4002 25.3029 27.355L25.3049 27.354L28.1949 12.781C28.1039 12.8029 28.0147 12.8316 27.9279 12.867L27.9259 12.868ZM19.4649 25.262L18.2929 24.364L18.0089 26.169L19.4649 25.262ZM17.2179 22.582L18.3829 21.457L20.9959 18.935L21.9689 17.997L15.4489 21.814L15.4839 21.896C15.8952 22.8674 16.3018 23.8408 16.7039 24.816L16.9869 23.016C17.0126 22.849 17.094 22.6967 17.2179 22.582Z" fill="#20A0E1"/>
<rect x="0.5" y="0.5" width="39" height="39" rx="3.5" stroke="#DEDEDE"/>
</svg>
