<svg width="32" height="32" viewBox="0 0 32 32" fill="none" xmlns="http://www.w3.org/2000/svg">
<circle cx="16" cy="16" r="16" transform="rotate(-180 16 16)" fill="url(#paint0_linear_292_12518)"/>
<path fill-rule="evenodd" clip-rule="evenodd" d="M10.2267 8H21.5447C21.8888 8 22.1714 8.31779 22.1714 8.70466V23.2953C22.1714 23.6822 21.8888 24 21.5447 24H10.2267C9.88265 24 9.60001 23.6822 9.60001 23.2953V8.69085C9.60001 8.30397 9.88265 8 10.2267 8Z" stroke="#27AE60" stroke-width="0.78" stroke-miterlimit="2.6131"/>
<path fill-rule="evenodd" clip-rule="evenodd" d="M10.8692 13.7139H13.1524C13.2218 13.7139 13.2788 13.7441 13.2788 13.7809V15.1685C13.2788 15.2052 13.2218 15.2355 13.1524 15.2355H10.8692C10.7998 15.2355 10.7428 15.2052 10.7428 15.1685V13.7796C10.7428 13.7428 10.7998 13.7139 10.8692 13.7139Z" stroke="#27AE60" stroke-width="0.78" stroke-miterlimit="2.6131"/>
<path fill-rule="evenodd" clip-rule="evenodd" d="M11.2557 9.71387H20.5179C20.7995 9.71387 21.0308 9.76154 21.0308 9.81957V12.0082C21.0308 12.0662 20.7995 12.1139 20.5179 12.1139H11.2557C10.9741 12.1139 10.7428 12.0662 10.7428 12.0082V9.81749C10.7428 9.75946 10.9741 9.71387 11.2557 9.71387Z" stroke="#27AE60" stroke-width="0.78" stroke-miterlimit="2.6131"/>
<path fill-rule="evenodd" clip-rule="evenodd" d="M10.8692 17.1431H13.1524C13.2218 17.1431 13.2788 17.1733 13.2788 17.2101V18.5977C13.2788 18.6344 13.2218 18.6647 13.1524 18.6647H10.8692C10.7998 18.6647 10.7428 18.6344 10.7428 18.5977V17.2088C10.7428 17.172 10.7998 17.1431 10.8692 17.1431Z" stroke="#27AE60" stroke-width="0.78" stroke-miterlimit="2.6131"/>
<path fill-rule="evenodd" clip-rule="evenodd" d="M10.8692 20.5713H13.1524C13.2218 20.5713 13.2788 20.6015 13.2788 20.6383V22.0259C13.2788 22.0627 13.2218 22.0929 13.1524 22.0929H10.8692C10.7998 22.0929 10.7428 22.0627 10.7428 22.0259V20.637C10.7428 20.6002 10.7998 20.5713 10.8692 20.5713Z" stroke="#27AE60" stroke-width="0.78" stroke-miterlimit="2.6131"/>
<path fill-rule="evenodd" clip-rule="evenodd" d="M14.5837 13.7139H16.8668C16.9362 13.7139 16.9932 13.7441 16.9932 13.7809V15.1685C16.9932 15.2052 16.9362 15.2355 16.8668 15.2355H14.5837C14.5143 15.2355 14.4572 15.2052 14.4572 15.1685V13.7796C14.4572 13.7428 14.5143 13.7139 14.5837 13.7139Z" stroke="#27AE60" stroke-width="0.78" stroke-miterlimit="2.6131"/>
<path fill-rule="evenodd" clip-rule="evenodd" d="M12.0354 10.3999H12.674C12.6934 10.3999 12.7094 10.421 12.7094 10.4468V11.417C12.7094 11.4428 12.6934 11.4639 12.674 11.4639H12.0354C12.016 11.4639 12 11.4428 12 11.417V10.4458C12 10.4201 12.016 10.3999 12.0354 10.3999Z" stroke="#27AE60" stroke-width="0.5" stroke-miterlimit="2.6131"/>
<path fill-rule="evenodd" clip-rule="evenodd" d="M14.5837 17.1431H16.8668C16.9362 17.1431 16.9932 17.1733 16.9932 17.2101V18.5977C16.9932 18.6344 16.9362 18.6647 16.8668 18.6647H14.5837C14.5143 18.6647 14.4572 18.6344 14.4572 18.5977V17.2088C14.4572 17.172 14.5143 17.1431 14.5837 17.1431Z" stroke="#27AE60" stroke-width="0.78" stroke-miterlimit="2.6131"/>
<path fill-rule="evenodd" clip-rule="evenodd" d="M14.5837 20.5713H16.8668C16.9362 20.5713 16.9932 20.6015 16.9932 20.6383V22.0259C16.9932 22.0627 16.9362 22.0929 16.8668 22.0929H14.5837C14.5143 22.0929 14.4572 22.0627 14.4572 22.0259V20.637C14.4572 20.6002 14.5143 20.5713 14.5837 20.5713Z" stroke="#27AE60" stroke-width="0.78" stroke-miterlimit="2.6131"/>
<path fill-rule="evenodd" clip-rule="evenodd" d="M18.2978 13.7139H20.581C20.6504 13.7139 20.7074 13.7441 20.7074 13.7809V15.1685C20.7074 15.2052 20.6504 15.2355 20.581 15.2355H18.2978C18.2284 15.2355 18.1714 15.2052 18.1714 15.1685V13.7796C18.1714 13.7428 18.2284 13.7139 18.2978 13.7139Z" stroke="#27AE60" stroke-width="0.78" stroke-miterlimit="2.6131"/>
<path fill-rule="evenodd" clip-rule="evenodd" d="M18.3088 17.1431H20.7896C20.865 17.1431 20.927 17.2416 20.927 17.3615V21.8846C20.927 22.0046 20.865 22.1031 20.7896 22.1031H18.3088C18.2334 22.1031 18.1714 22.0046 18.1714 21.8846V17.3572C18.1714 17.2373 18.2334 17.1431 18.3088 17.1431Z" stroke="#27AE60" stroke-width="0.78" stroke-miterlimit="2.6131"/>
<defs>
<linearGradient id="paint0_linear_292_12518" x1="16" y1="0" x2="16" y2="32" gradientUnits="userSpaceOnUse">
<stop stop-color="#E3FAE8"/>
<stop offset="0.00520833" stop-color="#E3FAE8" stop-opacity="0.994792"/>
<stop offset="1" stop-color="#E3FAE8" stop-opacity="0.47"/>
</linearGradient>
</defs>
</svg>
