<svg width="14" height="14" viewBox="0 0 14 14" fill="none" xmlns="http://www.w3.org/2000/svg">
<g clip-path="url(#clip0_112_6865)">
<path d="M8.64467 1.11255H8.64478H8.79541H8.79547C8.92828 1.11253 9.05949 1.14145 9.17999 1.19728C9.30049 1.25312 9.40737 1.33453 9.49322 1.43587C9.57906 1.5372 9.6418 1.65602 9.67707 1.78405C9.71234 1.91209 9.71929 2.04628 9.69744 2.17727L9.69744 2.1773L9.26466 4.77328L9.16759 5.3555H9.75785H11.4409H11.4409C11.6808 5.35549 11.9177 5.4087 12.1346 5.51131C12.3514 5.61392 12.5428 5.76336 12.6949 5.94887C12.847 6.13437 12.956 6.35132 13.0142 6.58406C13.0723 6.81679 13.0781 7.05951 13.0311 7.29473C13.0311 7.29475 13.0311 7.29477 13.031 7.29479L12.1825 11.5377L12.1825 11.5377C12.109 11.9054 11.9104 12.2362 11.6205 12.4739C11.3305 12.7115 10.9672 12.8414 10.5923 12.8414H10.5923H2.55898C2.12893 12.8414 1.71651 12.6706 1.41242 12.3665C1.10833 12.0624 0.9375 11.65 0.9375 11.2199V5.56266C0.9375 5.50772 0.959326 5.45503 0.998175 5.41618C1.03703 5.37733 1.08972 5.3555 1.14466 5.3555H3.92372C3.92374 5.3555 3.92377 5.3555 3.92379 5.3555C4.12246 5.35552 4.31805 5.30651 4.49324 5.21281C4.66844 5.1191 4.8178 4.98359 4.92807 4.81832L4.92823 4.81809L6.70666 2.14937C6.70668 2.14934 6.70671 2.14931 6.70673 2.14927C6.91943 1.8303 7.20759 1.56878 7.54564 1.38792L7.30978 0.947053L7.54564 1.38792C7.88373 1.20705 8.26124 1.11246 8.64467 1.11255ZM3.76613 6.26982V5.76982H3.26613H1.85182H1.35182V6.26982V11.2199C1.35182 11.5401 1.479 11.8471 1.70539 12.0735C1.93177 12.2999 2.23882 12.4271 2.55898 12.4271H3.26613H3.76613V11.9271V6.26982Z" fill="#28AF60" stroke="#28AF60"/>
</g>
<defs>
<clipPath id="clip0_112_6865">
<rect width="14" height="14" fill="white"/>
</clipPath>
</defs>
</svg>
