<svg width="16" height="16" viewBox="0 0 16 16" fill="none" xmlns="http://www.w3.org/2000/svg">
<path d="M1.49992 7.49986C1.50083 6.70449 1.81719 5.94195 2.3796 5.37954C2.94202 4.81713 3.70455 4.50077 4.49992 4.49986H6.99886C7.03129 4.49973 10.2727 4.45673 13.3568 1.87011C13.5025 1.74764 13.6802 1.66933 13.869 1.64437C14.0577 1.61942 14.2496 1.64885 14.4222 1.72922C14.5948 1.80959 14.7408 1.93755 14.8432 2.09807C14.9455 2.25859 14.9999 2.44498 15 2.63536V12.3644C15.0011 12.5548 14.9473 12.7416 14.845 12.9022C14.7427 13.0628 14.5962 13.1906 14.4231 13.27C14.29 13.3326 14.1448 13.3651 13.9977 13.3654C13.763 13.3649 13.536 13.2814 13.3569 13.1297C10.9895 11.1442 8.52973 10.6574 7.49992 10.5384V12.7323C7.50011 12.8969 7.45955 13.0591 7.38186 13.2043C7.30417 13.3494 7.19177 13.4731 7.05467 13.5643L6.36761 14.0224C6.23427 14.1113 6.08152 14.1668 5.92223 14.1844C5.76294 14.2019 5.60178 14.1808 5.45231 14.1231C5.30285 14.0653 5.16946 13.9724 5.06339 13.8523C4.95731 13.7322 4.88166 13.5883 4.84279 13.4329L4.10279 10.4727C3.38279 10.3757 2.72234 10.0211 2.24377 9.47449C1.76519 8.92788 1.50093 8.22636 1.49992 7.49986V7.49986ZM5.81298 13.1903L6.49992 12.7323V10.4999H5.14029L5.81298 13.1903ZM4.49992 9.49986H6.49992V5.49986H4.49992C3.96949 5.49986 3.46078 5.71057 3.08571 6.08564C2.71063 6.46072 2.49992 6.96942 2.49992 7.49986C2.49992 8.03029 2.71063 8.539 3.08571 8.91407C3.46078 9.28914 3.96949 9.49986 4.49992 9.49986Z" fill="#EB5757"/>
</svg>
