<svg width="16" height="16" viewBox="0 0 16 16" fill="none" xmlns="http://www.w3.org/2000/svg">
<path d="M7.00078 4.99985V4.99986H6.99992V5.49986V9.49986L6.99992 9.97722L7.55734 10.0417C8.64526 10.1674 11.2106 10.677 13.6782 12.7466L13.6801 12.7482C13.7689 12.8235 13.8814 12.865 13.9978 12.8654C14.0713 12.8651 14.1439 12.8488 14.2105 12.8175L14.2105 12.8175L14.2145 12.8157C14.3001 12.7763 14.3726 12.7131 14.4233 12.6336C14.4739 12.5541 14.5006 12.4617 14.5 12.3674H14.5V12.3644L14.5 2.63552C14.5 2.63547 14.5 2.63543 14.5 2.63539C14.4999 2.54025 14.4727 2.44711 14.4216 2.36689C14.3704 2.28664 14.2974 2.22266 14.2111 2.18248C14.1248 2.1423 14.0289 2.12758 13.9345 2.14006C13.8401 2.15253 13.7513 2.19169 13.6784 2.25292L13.6781 2.25321C10.4661 4.94705 7.08773 4.99952 7.00078 4.99985ZM5.32787 13.3116L4.84279 13.4329L5.32787 13.3116C5.32845 13.3139 5.32904 13.3162 5.32965 13.3185L5.32791 13.3116L4.99756 11.9903L5.32787 13.3116ZM6.09035 13.6063L6.08657 13.6088C6.08779 13.608 6.08901 13.6072 6.09022 13.6064C6.09024 13.6064 6.09026 13.6064 6.09027 13.6064L6.50019 13.3331L6.09035 13.6063ZM4.22604 9.98482L4.50554 10.0225L4.49989 9.99986C4.40796 9.99986 4.31655 9.99479 4.22604 9.98482Z" fill="#EB5757" stroke="#EB5757"/>
</svg>
