<svg width="14" height="13" viewBox="0 0 14 13" fill="none" xmlns="http://www.w3.org/2000/svg">
<path d="M4.1008e-05 5.86411C0.000950813 5.06874 0.317313 4.30621 0.879725 3.7438C1.44214 3.18139 2.20467 2.86502 3.00004 2.86411H5.49898C5.53142 2.86399 8.77279 2.82099 11.8569 0.234364C12.0027 0.1119 12.1804 0.0335869 12.3691 0.00863018C12.5578 -0.0163265 12.7497 0.0131101 12.9223 0.0934799C13.0949 0.17385 13.2409 0.301813 13.3433 0.462328C13.4456 0.622844 13.5 0.809242 13.5001 0.999614V10.7286C13.5013 10.9191 13.4474 11.1058 13.3451 11.2665C13.2428 11.4271 13.0963 11.5548 12.9232 11.6343C12.7901 11.6968 12.6449 11.7294 12.4979 11.7297C12.2631 11.7292 12.0361 11.6457 11.857 11.4939C9.48967 9.50843 7.02985 9.02168 6.00004 8.90261V11.0966C6.00023 11.2612 5.95967 11.4233 5.88199 11.5685C5.8043 11.7137 5.69189 11.8374 5.55479 11.9286L4.86773 12.3867C4.73439 12.4756 4.58164 12.5311 4.42235 12.5486C4.26307 12.5661 4.1019 12.5451 3.95244 12.4873C3.80297 12.4295 3.66958 12.3367 3.56351 12.2165C3.45743 12.0964 3.38178 11.9526 3.34292 11.7971L2.60292 8.83699C1.88292 8.73999 1.22246 8.38535 0.743889 7.83874C0.265314 7.29214 0.00104904 6.59062 4.1008e-05 5.86411ZM4.3131 11.5546L5.00004 11.0966V8.86411H3.64042L4.3131 11.5546ZM3.00004 7.86411H5.00004V3.86411H3.00004C2.46961 3.86411 1.9609 4.07483 1.58583 4.4499C1.21076 4.82497 1.00004 5.33368 1.00004 5.86411C1.00004 6.39455 1.21076 6.90325 1.58583 7.27833C1.9609 7.6534 2.46961 7.86411 3.00004 7.86411Z" fill="#FF8829"/>
</svg>
