<svg width="360" height="174" viewBox="0 0 360 174" fill="none" xmlns="http://www.w3.org/2000/svg">
<rect width="360" height="174" fill="white"/>
<path opacity="0.4" d="M180.5 157C236.557 157 282 153.086 282 148.257C282 143.429 236.557 139.514 180.5 139.514C124.443 139.514 79 143.429 79 148.257C79 153.086 124.443 157 180.5 157Z" fill="#313131"/>
<path d="M255.088 138.123C255.088 138.819 254.987 139.514 254.685 140.11C254.282 141.005 253.576 141.7 252.77 142.197C251.963 142.594 251.056 142.892 249.948 142.892H110.851C109.843 142.892 108.835 142.594 108.13 142.197C107.223 141.7 106.618 141.005 106.215 140.11C105.912 139.514 105.812 138.819 105.812 138.123L110.246 65.0023C110.347 62.7172 112.766 60.8296 115.488 60.8296H245.412C248.234 60.8296 250.552 62.7172 250.653 65.0023L255.088 138.123Z" fill="#313131"/>
<path d="M250.048 135.64C250.048 136.335 249.645 136.931 249.04 136.931H111.859C111.254 136.931 110.75 136.335 110.851 135.64L111.859 118.254L112.867 101.861L114.983 65.6978C114.983 65.1017 115.487 64.605 116.092 64.605H244.807H244.907C245.411 64.7043 245.915 65.1017 245.915 65.6978V65.9959L246.52 77.0237V77.6198L246.621 79.8055L247.528 94.6085L248.032 103.848L248.334 109.809L250.048 135.64Z" fill="#268C44"/>
<path d="M245.916 65.9959H117.1C116.495 65.9959 115.992 66.4926 115.992 67.0887C115.286 78.3152 114.681 89.7404 113.976 101.166C113.472 109.114 113.068 117.061 112.565 125.109C112.363 128.288 111.758 131.865 112.565 134.944C112.766 135.64 112.968 136.335 113.169 136.931H111.758C111.153 136.931 110.649 136.335 110.75 135.64L114.883 65.5985C114.883 65.0024 115.387 64.5056 115.992 64.5056H244.807H244.908C245.412 64.605 245.815 65.0024 245.916 65.5985V65.9959Z" fill="black"/>
<path d="M268.997 140.111C269.501 140.111 269.905 140.905 269.703 141.7C268.897 145.078 267.385 148.257 265.369 148.257H95.3286C93.4135 148.257 91.9016 145.078 90.9944 141.7C90.7928 140.905 91.196 140.111 91.7 140.111H268.997Z" fill="black"/>
<path opacity="0.5" d="M243.698 117.657L243.496 114.379L243.194 109.312L242.69 101.165L242.589 99.9731V99.5758L242.488 97.4894L242.287 93.5154V93.3167C242.287 93.0187 241.984 92.7206 241.783 92.7206H241.682H207.21H204.791L204.287 84.2759L204.186 82.9844V82.587L204.086 80.4013L203.783 76.1293V75.9306C203.783 75.6325 203.481 75.3345 203.179 75.3345H203.078H127.18C126.877 75.3345 126.575 75.6325 126.474 76.0299L126.172 80.5006L125.164 97.3901L124.559 107.027L123.954 117.26C123.954 117.657 124.256 117.955 124.559 117.955H168.404L168.203 120.737L168.102 122.327L167.497 131.964C167.497 132.361 167.699 132.659 168.102 132.659H243.698C244 132.659 244.303 132.361 244.303 131.964L243.698 117.657Z" fill="black"/>
<path d="M242.69 130.374C242.69 130.772 242.489 131.07 242.085 131.07H166.49C166.187 131.07 165.885 130.772 165.885 130.374L166.49 120.737L166.59 119.148L166.994 111.697L167.901 95.9001L168.102 91.7274C168.102 91.4294 168.405 91.1313 168.707 91.1313H239.767C239.767 91.1313 239.767 91.1313 239.868 91.1313C240.17 91.1313 240.372 91.4294 240.372 91.7274V91.9261L240.573 95.9001L240.674 97.9865V98.3839L240.775 99.5761L241.279 107.723L241.581 112.79L241.783 116.068L242.69 130.374Z" fill="#E6E6E6"/>
<path d="M240.674 128.288C240.674 128.586 240.473 128.785 240.17 128.785H168.808C168.506 128.785 168.203 128.586 168.304 128.288L168.808 121.532L169.312 115.174L170.219 104.146L170.421 101.265C170.421 101.066 170.723 100.868 171.025 100.868H238.054C238.054 100.868 238.054 100.868 238.154 100.868C238.457 100.868 238.658 101.066 238.658 101.265V101.364L238.86 104.146L238.961 105.636V105.835L239.062 106.63L239.465 112.293L239.767 115.869L239.969 118.154L240.674 128.288Z" fill="#F05A28"/>
<path d="M239.364 96.7943H169.312C169.11 96.7943 169.009 96.695 169.009 96.4963C169.009 96.2976 169.11 96.1982 169.312 96.1982H239.364C239.565 96.1982 239.666 96.2976 239.666 96.4963C239.666 96.695 239.465 96.7943 239.364 96.7943Z" fill="#FAFAFA"/>
<path d="M239.667 98.4831H168.909C168.707 98.4831 168.606 98.3837 168.606 98.185C168.606 97.9863 168.707 97.887 168.909 97.887H239.667C239.868 97.887 239.969 97.9863 239.969 98.185C239.969 98.3837 239.868 98.4831 239.667 98.4831Z" fill="#FAFAFA"/>
<path d="M235.937 94.8073H170.622C170.32 94.8073 170.018 94.5092 170.018 94.2112V93.317C170.018 93.019 170.32 92.7209 170.622 92.7209H235.937C236.24 92.7209 236.542 93.019 236.542 93.317V94.2112C236.542 94.5092 236.24 94.8073 235.937 94.8073Z" fill="#FAFAFA"/>
<path opacity="0.5" d="M206.908 118.452C206.908 118.85 206.606 119.148 206.304 119.148H166.49L166.893 111.697L167.8 95.9001L168.002 91.7274C168.002 91.4294 168.304 91.1313 168.606 91.1313H205.195L205.296 92.6216L205.396 94.1118V94.7079L205.497 96.3969L205.598 98.0858L205.699 99.5761L205.8 100.768L205.9 103.053L206.908 118.452Z" fill="black"/>
<path d="M204.388 115.671C204.388 116.068 204.086 116.366 203.784 116.366H122.947C122.543 116.366 122.342 116.068 122.342 115.671L122.947 105.438L123.551 95.8007L124.559 78.9113L124.862 74.4406C124.862 74.0432 125.164 73.7451 125.567 73.7451H201.465H201.566C201.869 73.7451 202.171 74.0432 202.171 74.3412V74.5399L202.473 78.8119L202.574 80.9976V81.395L202.675 82.6866L203.179 91.4293L203.481 96.8935L203.683 100.371L204.388 115.671Z" fill="#E6E6E6"/>
<path d="M202.171 113.485C202.171 113.783 201.969 113.982 201.566 113.982H125.265C124.963 113.982 124.66 113.783 124.66 113.485L125.265 106.332L125.769 99.5759L126.676 87.7533L126.878 84.6735C126.878 84.3755 127.18 84.1768 127.482 84.1768H199.147C199.147 84.1768 199.147 84.1768 199.248 84.1768C199.55 84.1768 199.752 84.3755 199.752 84.6735V84.7729L199.954 87.7533L200.054 89.3429V89.641L200.155 90.5351L200.659 96.5954L200.962 100.371L201.163 102.854L202.171 113.485Z" fill="#F05A28"/>
<path d="M200.76 79.8056H125.87C125.668 79.8056 125.567 79.7062 125.567 79.5075C125.567 79.3088 125.668 79.2095 125.87 79.2095H200.76C200.962 79.2095 201.062 79.3088 201.062 79.5075C201.062 79.6069 200.962 79.8056 200.76 79.8056Z" fill="#FAFAFA"/>
<path d="M201.163 81.5939H125.466C125.265 81.5939 125.164 81.4946 125.164 81.2959C125.164 81.0972 125.265 80.9978 125.466 80.9978H201.163C201.365 80.9978 201.465 81.0972 201.465 81.2959C201.465 81.4946 201.365 81.5939 201.163 81.5939Z" fill="#FAFAFA"/>
<path d="M197.131 77.6197H127.281C126.878 77.6197 126.575 77.3217 126.575 76.9243V76.0302C126.575 75.6328 126.878 75.3347 127.281 75.3347H197.131C197.534 75.3347 197.837 75.6328 197.837 76.0302V76.9243C197.837 77.3217 197.534 77.6197 197.131 77.6197Z" fill="#FAFAFA"/>
<path d="M241.178 64.605L209.327 136.931H174.956L207.412 64.605H241.178Z" fill="url(#paint0_linear_3260_3652)"/>
<path d="M248.536 109.71L236.743 136.931H221.826L246.722 79.8054L247.629 94.5091L248.133 103.749L248.536 109.71Z" fill="url(#paint1_linear_3260_3652)"/>
<path d="M164.675 66.0952L131.312 137.13H113.572C112.968 137.13 112.564 136.633 112.564 135.938L113.774 119.048L114.984 103.053L132.32 66.0952H164.675Z" fill="url(#paint2_linear_3260_3652)"/>
<path d="M190.579 66.0952L157.015 137.13H143.004L176.569 66.0952H190.579Z" fill="url(#paint3_linear_3260_3652)"/>
<path d="M282.195 29.3193V32.7966C282.195 34.1875 281.187 35.3797 279.877 35.3797H196.419C195.108 35.3797 194.1 34.1875 194.1 32.7966V29.3193C194.1 24.1532 191.681 20.0798 187.045 18.1922C186.44 17.9935 186.642 17 187.246 17H268.89C268.991 17 269.092 17 269.192 17H269.898C271.309 17 272.72 17.1987 273.93 17.6954C274.03 17.6954 274.03 17.6954 274.131 17.7948C278.869 19.4837 282.195 23.9545 282.195 29.3193Z" fill="#DEDFE0"/>
<path opacity="0.5" d="M273.93 17.6954C272.922 18.1922 272.015 18.8876 271.208 19.7818C269.394 21.7688 268.588 24.3519 268.588 27.0343V35.3797H196.419C195.108 35.3797 194.1 34.1875 194.1 32.7966V29.3193C194.1 24.1532 191.681 20.0798 187.045 18.1922C186.44 17.9935 186.642 17 187.246 17H268.89C268.991 17 269.092 17 269.192 17H269.898C271.309 17 272.619 17.1987 273.93 17.6954Z" fill="black"/>
<path d="M274.131 17.7948C271.006 17.6954 267.983 18.7883 265.866 21.1727C264.052 23.1597 263.245 25.7428 263.245 28.4252V126.086C263.245 130.556 260.322 134.53 256.089 136.319C254.476 137.014 252.561 137.412 250.646 137.412H166.281C165.979 137.412 165.777 137.312 165.575 137.114C165.172 136.716 165.273 136.021 165.878 135.723C170.414 133.736 172.933 130.656 172.933 125.986V28.3258C172.933 22.0668 178.578 17 185.634 17H267.781C268.184 17 268.487 17 268.89 17C268.99 17 269.091 17 269.192 17H269.898C271.309 17 272.821 17.298 274.131 17.7948Z" fill="#FAFAFA"/>
<path opacity="0.35" d="M263.245 101.844V125.986C263.245 130.457 260.322 134.431 256.089 136.219C254.476 136.915 252.561 137.312 250.646 137.312H166.281C165.979 137.312 165.777 137.213 165.575 137.014C165.172 136.617 165.273 135.921 165.878 135.623C170.414 133.636 172.933 130.556 172.933 125.887V110.09C194.302 116.151 216.477 119.628 235.829 114.76C246.211 112.077 254.98 107.309 263.245 101.844Z" fill="#CCEEFF"/>
<path d="M256.089 136.219C254.476 136.915 252.561 137.312 250.646 137.312H168.297C167.39 137.312 166.483 137.213 165.676 137.014C160.334 135.822 156.403 131.351 156 125.788C156 125.49 156 125.291 156 124.993V121.516C156 120.125 157.008 118.933 158.318 118.933H241.776C243.086 118.933 244.094 120.025 244.094 121.516V124.993C244.094 126.185 244.195 127.377 244.498 128.57C245.001 130.557 246.009 132.444 247.622 133.934C248.63 134.829 249.84 135.723 251.15 136.12C251.15 136.12 251.251 136.12 251.251 136.219C252.763 136.716 254.476 136.617 256.089 136.219Z" fill="#DEDFE0"/>
<path d="M252.662 49.984H181.703C180.594 49.984 179.788 49.0899 179.788 48.0964C179.788 47.0035 180.695 46.2087 181.703 46.2087H252.662C253.771 46.2087 254.578 47.1029 254.578 48.0964C254.578 49.0899 253.67 49.984 252.662 49.984Z" fill="#E6E6E6"/>
<path d="M181.703 53.5608H213.352C214.461 53.5608 215.267 54.4549 215.267 55.4484C215.267 56.5413 214.36 57.3361 213.352 57.3361H181.703C180.594 57.3361 179.788 56.4419 179.788 55.4484C179.788 54.9517 179.989 54.4549 180.392 54.0575C180.695 53.7595 181.098 53.5608 181.703 53.5608Z" fill="#E6E6E6"/>
<path d="M254.577 55.3489C254.577 55.945 254.375 56.4418 253.972 56.8392C253.67 57.1372 253.166 57.4353 252.561 57.4353H220.912C219.803 57.4353 218.997 56.5411 218.997 55.5476C218.997 54.4548 219.904 53.66 220.912 53.66H252.46C253.569 53.5607 254.476 54.3555 254.577 55.3489Z" fill="#E6E6E6"/>
<path d="M252.662 64.8866H181.703C180.594 64.8866 179.788 63.9925 179.788 62.999C179.788 61.9061 180.695 61.1113 181.703 61.1113H252.662C253.771 61.1113 254.577 62.0055 254.577 62.999C254.577 63.9925 253.67 64.8866 252.662 64.8866Z" fill="#E6E6E6"/>
<path d="M252.662 72.2384H181.703C180.594 72.2384 179.788 71.3443 179.788 70.3508C179.788 69.2579 180.695 68.4631 181.703 68.4631H252.662C253.771 68.4631 254.577 69.3573 254.577 70.3508C254.577 71.4436 253.67 72.2384 252.662 72.2384Z" fill="#E6E6E6"/>
<path d="M181.703 75.9143H198.132C199.241 75.9143 200.047 76.8085 200.047 77.8019C200.047 78.8948 199.14 79.6896 198.132 79.6896H181.804C180.695 79.6896 179.687 78.7954 179.788 77.7026C179.788 77.2059 179.989 76.8085 180.392 76.4111C180.695 76.113 181.098 75.9143 181.703 75.9143Z" fill="#E6E6E6"/>
<path d="M254.577 77.9013C254.577 78.398 254.376 78.7954 253.972 79.1928C253.67 79.5902 253.166 79.7889 252.561 79.7889H205.692C204.583 79.7889 203.777 78.8948 203.777 77.9013C203.777 76.8085 204.684 76.0137 205.692 76.0137H252.461C253.67 75.9143 254.577 76.8085 254.577 77.9013Z" fill="#E6E6E6"/>
<path d="M252.662 87.1408H181.703C180.594 87.1408 179.788 86.2466 179.788 85.2531C179.788 84.1603 180.695 83.3655 181.703 83.3655H252.662C253.771 83.3655 254.577 84.2596 254.577 85.2531C254.577 86.346 253.67 87.1408 252.662 87.1408Z" fill="#E6E6E6"/>
<path d="M181.703 90.8169H230.89C231.999 90.8169 232.805 91.711 232.805 92.7045C232.805 93.7974 231.898 94.5922 230.89 94.5922H181.703C180.594 94.5922 179.788 93.698 179.788 92.7045C179.788 92.2078 179.989 91.711 180.392 91.3136C180.695 91.0156 181.098 90.8169 181.703 90.8169Z" fill="#E6E6E6"/>
<path d="M254.577 92.8039C254.577 93.3006 254.376 93.698 253.972 94.0954C253.67 94.3935 253.166 94.6915 252.561 94.6915H238.551C237.442 94.6915 236.636 93.7974 236.636 92.8039C236.636 91.711 237.543 90.9162 238.551 90.9162H252.46C253.67 90.8169 254.577 91.711 254.577 92.8039Z" fill="#E6E6E6"/>
<path d="M252.662 102.043H181.703C180.594 102.043 179.788 101.149 179.788 100.156C179.788 99.0629 180.695 98.2681 181.703 98.2681H252.662C253.771 98.2681 254.577 99.1622 254.577 100.156C254.577 101.249 253.67 102.043 252.662 102.043Z" fill="#E6E6E6"/>
<path d="M205.692 107.607C205.692 108.7 204.785 109.494 203.777 109.494H181.803C180.796 109.494 179.888 108.7 179.788 107.706C179.788 107.11 179.989 106.613 180.392 106.216C180.796 105.918 181.199 105.62 181.803 105.62H203.877C204.885 105.719 205.692 106.514 205.692 107.607Z" fill="#E6E6E6"/>
<path d="M252.259 113.369H210.933C209.623 113.369 208.615 112.376 208.615 111.084V107.905C208.615 106.613 209.623 105.62 210.933 105.62H252.259C253.569 105.62 254.577 106.613 254.577 107.905V111.084C254.577 112.376 253.569 113.369 252.259 113.369Z" fill="#EC1C24"/>
<path opacity="0.5" d="M256.089 136.219C254.476 136.915 252.561 137.312 250.646 137.312H168.297C167.39 137.312 166.483 137.213 165.676 137.014C160.334 135.822 156.403 131.351 156 125.788C161.544 127.675 167.491 129.364 173.841 130.556C195.713 134.63 220.206 132.841 244.598 128.669C245.102 130.656 246.11 132.543 247.723 134.034C248.731 134.928 249.94 135.822 251.251 136.219C251.251 136.219 251.352 136.219 251.352 136.319C252.763 136.716 254.476 136.617 256.089 136.219Z" fill="black"/>
<defs>
<linearGradient id="paint0_linear_3260_3652" x1="216.289" y1="56.0282" x2="196.679" y2="165.344" gradientUnits="userSpaceOnUse">
<stop stop-color="white"/>
<stop offset="1" stop-color="white" stop-opacity="0"/>
</linearGradient>
<linearGradient id="paint1_linear_3260_3652" x1="246.577" y1="61.4616" x2="226.967" y2="170.777" gradientUnits="userSpaceOnUse">
<stop stop-color="white"/>
<stop offset="1" stop-color="white" stop-opacity="0"/>
</linearGradient>
<linearGradient id="paint2_linear_3260_3652" x1="148.707" y1="43.2037" x2="127.88" y2="155.748" gradientUnits="userSpaceOnUse">
<stop stop-color="white"/>
<stop offset="1" stop-color="white" stop-opacity="0"/>
</linearGradient>
<linearGradient id="paint3_linear_3260_3652" x1="178.113" y1="48.6456" x2="157.286" y2="161.189" gradientUnits="userSpaceOnUse">
<stop stop-color="white"/>
<stop offset="1" stop-color="white" stop-opacity="0"/>
</linearGradient>
</defs>
</svg>
