<svg width="199" height="136" viewBox="0 0 199 136" fill="none" xmlns="http://www.w3.org/2000/svg">
<path d="M183.77 126H15.2296C12.3406 126 10 123.65 10 120.749V15.2513C10 12.3503 12.3406 10 15.2296 10H183.77C186.659 10 189 12.3503 189 15.2513V120.749C189 123.65 186.659 126 183.77 126Z" fill="#E1EDF7"/>
<path d="M174.487 34H125C123.895 34 123 34.8954 123 36V104.032C123 105.137 123.895 106.032 125 106.032H174.487C175.592 106.032 176.487 105.137 176.487 104.032V36C176.487 34.8954 175.592 34 174.487 34Z" fill="#9DBBA2"/>
<mask id="mask0_3633_1314" style="mask-type:alpha" maskUnits="userSpaceOnUse" x="123" y="34" width="54" height="73">
<path d="M174.487 34H125C123.895 34 123 34.8954 123 36V104.032C123 105.137 123.895 106.032 125 106.032H174.487C175.592 106.032 176.487 105.137 176.487 104.032V36C176.487 34.8954 175.592 34 174.487 34Z" fill="#12701B"/>
</mask>
<g mask="url(#mask0_3633_1314)">
<path d="M158.219 57.2654C150.67 53.7324 148.653 52.4272 141.898 57.3144L141.764 57.4113C141.224 57.8045 140.915 58.4419 140.942 59.1099L142.286 92.2568C142.331 93.3673 143.273 94.2281 144.383 94.1734L156.55 93.5737C157.55 93.5244 158.35 92.7435 158.386 91.7424C158.487 88.9409 158.542 84.4296 158.542 84.4296" fill="#FCDEBE"/>
<path d="M158.53 85.3642C158.54 84.2409 157.308 83.4602 156.246 83.8271C154.911 84.2886 153.072 84.7792 150.932 84.962C148.988 85.1281 148.234 87.0283 150.145 87.4238C152.132 87.8352 154.639 87.797 157.631 86.6822C158.177 86.4785 158.525 85.9474 158.53 85.3642Z" fill="#AA6550"/>
<path d="M181.814 112.153C181.814 112.153 193.328 124.038 197.392 122.271C208.042 117.639 216.778 108.069 220.145 104.144C220.372 103.881 220.523 103.563 220.583 103.221C220.681 102.662 220.781 102.025 220.87 101.299C220.968 100.475 220.919 99.6407 220.733 98.836C220.508 97.8547 220.165 96.5494 219.764 95.8919C219.264 95.0774 219.989 94.096 220.782 94.4297C221.563 94.7584 223.447 96.8489 223.896 99.8101C223.909 99.8995 223.926 99.9887 223.962 100.072C224.095 100.375 224.534 101.091 225.628 100.73C227.626 100.073 234.411 97.4327 235.625 97.1481C236.702 96.9027 237.984 96.9616 237.27 97.7467C237.209 97.8129 237.553 98.4224 237.64 98.3994C238.117 98.2723 238.457 98.2703 238.562 98.4631C238.616 98.5604 238.633 98.6766 238.609 98.811C238.535 99.2231 238.88 99.7097 239.296 99.7585C239.847 99.8213 239.794 100.149 239.421 100.597C239.4 100.622 239.715 101.55 239.737 101.574C240.109 101.967 239.316 102.879 237.084 104.705C235.308 106.157 233.758 107.996 231.217 110.333C231.115 110.427 231.033 110.516 230.951 110.629C229.046 113.236 203.176 148.019 186.671 136.795C177.438 130.515 174.892 127.345 169.645 122.585" fill="#FCDEBE"/>
<path d="M194.84 123.505C195.176 122.78 195.049 121.925 194.517 121.329L176.4 101.064C171.113 95.8528 168.294 94.2925 160.921 93.4289C159.949 93.31 159.142 93.2295 158.502 93.1564C158.218 93.1241 157.931 93.1496 157.657 93.2301C152.256 94.818 146.855 94.8007 141.454 93.1952C141.236 93.1303 141.007 93.0987 140.78 93.1135C138.309 93.2742 136.238 94.0363 134.104 94.4397C127.171 95.7675 122.158 100.781 120.686 105.461C120.649 105.579 120.604 105.692 120.548 105.802L105.523 135.224C105.1 136.052 105.304 137.063 106.015 137.662L116.407 146.422C117.335 147.205 118.742 146.986 119.389 145.958L126.925 133.973C127.974 132.306 130.546 132.998 130.617 134.966L131.128 149.161L130.476 162.526C130.42 163.665 131.327 164.62 132.468 164.623L175.135 164.748C176.288 164.752 177.205 163.782 177.137 162.631L175.395 133.019C175.293 131.28 177.306 130.251 178.656 131.351L185.754 137.142C186.765 137.966 188.282 137.618 188.832 136.435L194.84 123.505Z" fill="#268C44"/>
<g opacity="0.3">
<path opacity="0.3" d="M136.376 164.745C136.307 164.745 136.258 148.886 136.258 129.337C136.258 109.778 136.307 93.9194 136.376 93.9194C136.444 93.9194 136.493 109.769 136.493 129.337C136.493 148.886 136.434 164.745 136.376 164.745Z" fill="white"/>
</g>
<g opacity="0.3">
<path opacity="0.3" d="M163.555 164.568C163.555 164.601 163.535 164.601 163.535 164.568C163.535 164.565 163.535 164.562 163.535 164.558C163.535 164.421 163.525 164.244 163.525 164.018C163.516 163.528 163.516 162.841 163.506 161.948C163.496 160.142 163.467 157.541 163.447 154.342C163.388 147.904 163.31 139.033 163.222 129.239C163.134 119.435 163.075 110.554 163.065 104.126C163.075 100.926 163.075 98.3258 163.085 96.52C163.095 95.627 163.104 94.94 163.104 94.4494C163.104 94.2236 163.114 94.047 163.114 93.9096C163.114 93.8766 163.134 93.8766 163.134 93.9096C163.134 94.047 163.144 94.2236 163.144 94.4494C163.153 94.94 163.153 95.627 163.163 96.52C163.173 98.3258 163.202 100.926 163.222 104.126C163.281 110.563 163.359 119.435 163.447 129.239C163.535 139.043 163.594 147.924 163.604 154.342C163.594 157.541 163.594 160.142 163.584 161.958C163.574 162.851 163.565 163.538 163.565 164.028C163.565 164.254 163.555 164.431 163.555 164.568Z" fill="white"/>
</g>
<path d="M139.381 93.7232L140.947 90.4237C141.479 89.3024 142.894 88.9315 143.908 89.6473L149.318 93.4673C149.996 93.9463 150.9 93.9562 151.589 93.4922L157.078 89.7944C158.021 89.1592 159.303 89.4367 159.899 90.4049L160.732 91.7585C161.3 92.6823 161.028 93.8909 160.119 94.4827L153.87 98.5514C153.545 98.7628 153.166 98.8754 152.779 98.8754H148.267C147.936 98.8754 147.61 98.7932 147.318 98.6362L139.381 94.3611" fill="#268C44"/>
<path d="M150.445 94.2629C150.445 94.2727 150.386 94.2826 150.288 94.312C150.218 94.333 150.114 94.339 149.995 94.3729C149.894 94.4018 149.796 94.4434 149.7 94.4867C149.352 94.6438 148.935 94.9857 148.585 95.4995C148.173 96.0883 147.811 96.8832 147.42 97.7762C147.224 98.2178 147.018 98.6987 146.764 99.1698C146.509 99.6408 146.225 100.141 145.785 100.544L145.779 100.548C145.733 100.59 145.662 100.588 145.618 100.544C145.461 100.387 145.305 100.21 145.138 100.043C143.454 98.2767 142.035 96.5986 141.036 95.3523C140.537 94.734 140.145 94.2139 139.881 93.8606C139.616 93.4975 139.479 93.3012 139.489 93.2914C139.499 93.2816 139.665 93.468 139.949 93.8115C140.262 94.1844 140.674 94.6751 141.163 95.2541C142.191 96.471 143.631 98.1295 145.305 99.8862C145.449 100.04 145.586 100.185 145.722 100.324C145.744 100.346 145.727 100.383 145.696 100.381C145.667 100.38 145.654 100.343 145.675 100.323C146.047 99.9588 146.315 99.5108 146.548 99.0716C146.803 98.6104 147.008 98.1393 147.204 97.6977C147.606 96.8145 147.987 96.0098 148.428 95.4209C148.792 94.9153 149.226 94.5777 149.599 94.4259C149.729 94.3734 149.861 94.3222 149.999 94.3002C150.105 94.2833 150.197 94.2887 150.259 94.2826C150.386 94.2531 150.445 94.2531 150.445 94.2629Z" fill="#313131"/>
<path d="M161.597 93.517C161.606 93.5268 161.46 93.7231 161.185 94.0666C160.901 94.4002 160.48 94.8909 159.932 95.4601C158.845 96.5985 157.23 98.0902 155.262 99.4837C154.89 99.7487 154.528 99.994 154.175 100.23C154.1 100.279 153.998 100.231 153.989 100.141C153.901 99.1206 153.607 98.1687 153.304 97.3443C152.981 96.52 152.599 95.833 152.178 95.3325C151.757 94.832 151.316 94.5278 150.974 94.4198C150.641 94.3021 150.435 94.2923 150.435 94.2726C150.435 94.2628 150.484 94.2628 150.582 94.2726C150.68 94.2923 150.827 94.2726 151.003 94.3413C151.365 94.4297 151.845 94.7241 152.295 95.2246C152.746 95.7251 153.157 96.4316 153.49 97.2658C153.803 98.0737 154.097 98.992 154.213 100.021C154.218 100.065 154.173 100.096 154.134 100.076C154.095 100.057 154.092 100.004 154.127 99.98C154.455 99.7608 154.79 99.5332 155.125 99.2972C157.083 97.9135 158.698 96.4513 159.815 95.3521C160.373 94.8026 160.813 94.3315 161.117 94.0175C161.42 93.6838 161.587 93.5072 161.597 93.517Z" fill="#313131"/>
<path d="M153.685 164.57C153.677 164.672 153.656 164.67 153.656 164.568C153.656 164.44 153.646 164.264 153.646 164.038C153.637 163.557 153.627 162.87 153.617 161.997C153.597 160.211 153.568 157.64 153.529 154.48C153.441 148.13 153.235 139.357 152.795 129.68C152.344 119.994 151.747 111.241 151.257 104.911C151.003 101.751 150.797 99.1992 150.66 97.4132C150.592 96.5397 150.533 95.8528 150.504 95.3719C150.484 95.1462 150.474 94.9696 150.464 94.842C150.464 94.839 150.464 94.8361 150.464 94.8332C150.458 94.7585 150.481 94.7583 150.494 94.8322C150.504 94.9597 150.533 95.1364 150.552 95.3621C150.601 95.843 150.67 96.5201 150.758 97.3935C150.934 99.16 151.169 101.721 151.434 104.881C151.962 111.211 152.589 119.965 153.039 129.651C153.48 139.337 153.656 148.111 153.705 154.46C153.734 157.64 153.734 160.211 153.715 161.987C153.705 162.86 153.705 163.547 153.695 164.028C153.695 164.254 153.686 164.431 153.686 164.558C153.685 164.562 153.685 164.566 153.685 164.57Z" fill="#1A2E35"/>
<g opacity="0.2">
<path opacity="0.2" d="M152.931 96.3013C152.37 95.331 151.659 96.2626 151.659 97.3836C151.659 98.5711 151.385 99.7487 151.483 100.926C151.532 101.545 151.737 102.212 152.266 102.536C152.981 102.968 153.901 102.565 154.635 102.163C156.221 101.289 157.817 100.406 159.11 99.1402C159.206 99.0463 159.298 98.9495 159.386 98.8502C160.576 97.5064 158.681 96.4727 157.257 97.5671C157.149 97.6505 157.04 97.7334 156.931 97.8161C155.706 98.7463 153.84 97.9737 153.11 96.6189C153.062 96.5292 153.012 96.4406 152.961 96.3532C152.951 96.3359 152.941 96.3186 152.931 96.3013Z" fill="black"/>
</g>
<g opacity="0.2">
<path opacity="0.2" d="M142.456 96.9715C143.258 98.5515 144.1 100.181 145.491 101.28C146.108 101.77 146.999 102.133 147.645 101.682C148.154 101.319 148.242 100.603 148.291 99.9744C148.292 99.9518 148.294 99.929 148.296 99.9062C148.415 98.2758 147.325 97.8396 146.537 99.2716C146.11 100.046 145.092 100.252 144.497 99.597C143.781 98.8087 143.212 97.8649 142.553 97.0009" fill="black"/>
</g>
<g opacity="0.2">
<path opacity="0.2" d="M148.878 100.377C147.204 113.753 146.117 127.197 145.608 140.672C145.53 142.782 145.471 144.95 146.225 146.923C147.097 149.219 148.957 150.976 150.748 152.644C151.512 153.351 152.56 154.116 153.5 153.675C153.872 153.498 154.136 153.174 154.381 152.85C155.517 151.378 156.584 149.798 156.995 147.993C158.307 142.32 152.971 136.707 154.175 131.015" fill="black"/>
</g>
<path d="M147.912 96.808C148.241 96.1421 148.913 95.7137 149.656 95.6956L151.191 95.658C151.966 95.6391 152.683 96.0703 153.027 96.766C153.07 96.8544 153.114 96.9425 153.157 97.0297C153.395 97.5131 153.427 98.0724 153.247 98.5804L152.719 100.067C152.436 100.864 151.681 101.397 150.834 101.397H150.174C149.437 101.397 148.759 100.991 148.411 100.341L147.729 99.0667C147.424 98.497 147.413 97.8152 147.7 97.2361L147.912 96.808Z" fill="#313131"/>
<path d="M150.675 101.397C149.726 101.397 148.946 102.146 148.907 103.095L147.13 146.559C147.109 147.088 147.297 147.603 147.655 147.993L150.868 151.497C151.732 152.439 153.245 152.34 153.979 151.294L157.143 146.784C157.426 146.38 157.55 145.887 157.492 145.398L152.433 102.958C152.327 102.068 151.572 101.397 150.675 101.397Z" fill="#313131"/>
<path d="M152.051 101.456C152.041 101.525 151.365 101.466 150.533 101.456C149.701 101.437 149.025 101.476 149.015 101.407C149.006 101.348 149.681 101.211 150.533 101.221C151.395 101.231 152.06 101.397 152.051 101.456Z" fill="#3F3F3F"/>
<path d="M152.922 96.3924C152.942 96.412 152.765 96.6868 152.413 97.0891C152.061 97.4915 151.542 98.0116 150.905 98.5219C150.269 99.0224 149.642 99.415 149.172 99.6603C148.702 99.9057 148.389 100.023 148.379 99.994C148.35 99.9253 149.505 99.3266 150.758 98.3355C152.012 97.3443 152.863 96.3433 152.922 96.3924Z" fill="#3F3F3F"/>
<path d="M152.746 105.882C152.795 105.931 151.914 106.874 150.788 107.992C149.662 109.111 148.702 109.984 148.663 109.935C148.614 109.886 149.495 108.944 150.621 107.825C151.747 106.707 152.697 105.833 152.746 105.882Z" fill="#3F3F3F"/>
<path d="M152.335 102.801C152.384 102.85 151.6 103.694 150.602 104.695C149.593 105.696 148.742 106.461 148.702 106.422C148.653 106.373 149.437 105.529 150.435 104.528C151.444 103.527 152.296 102.752 152.335 102.801Z" fill="#EBEBEB"/>
<g opacity="0.5">
<path opacity="0.5" d="M145.256 90.838C145.315 90.8772 144.619 92.045 143.709 93.4582C142.798 94.8714 142.025 95.9901 141.966 95.9509C141.907 95.9116 142.603 94.7438 143.513 93.3306C144.424 91.9273 145.197 90.8085 145.256 90.838Z" fill="#EBEBEB"/>
</g>
<g opacity="0.5">
<path opacity="0.5" d="M158.738 96.1274C158.679 96.1569 158.062 94.9498 157.367 93.4385C156.672 91.9272 156.153 90.6808 156.212 90.6514C156.27 90.622 156.887 91.8291 157.582 93.3404C158.277 94.8517 158.796 96.098 158.738 96.1274Z" fill="#EBEBEB"/>
</g>
<path d="M136.866 66.7857C136.835 66.0322 136.36 65.3913 135.607 65.358C134.307 65.3006 132.44 65.7297 132.537 68.6592C132.674 73.0753 137.07 72.0155 137.07 71.8879C137.07 71.8037 136.94 68.6025 136.866 66.7857Z" fill="#FCDEBE"/>
<path d="M135.67 70.2685C135.651 70.2587 135.592 70.3274 135.465 70.3863C135.338 70.4452 135.122 70.4943 134.887 70.4157C134.417 70.2587 134.006 69.5325 133.957 68.7376C133.938 68.3353 134.006 67.9525 134.133 67.6287C134.261 67.3048 134.456 67.0693 134.691 67.0202C134.926 66.9613 135.093 67.0987 135.152 67.2165C135.218 67.3504 135.284 67.3748 135.268 67.2261C135.266 67.2106 135.263 67.1943 135.259 67.1772C135.24 67.0889 135.181 66.9908 135.073 66.9025C134.966 66.8239 134.809 66.7847 134.642 66.8043C134.3 66.8436 134.006 67.1576 133.859 67.5109C133.693 67.8642 133.605 68.296 133.634 68.7474C133.693 69.6306 134.172 70.455 134.809 70.612C135.043 70.6632 135.243 70.6217 135.383 70.5525C135.469 70.51 135.55 70.4547 135.616 70.385C135.674 70.3236 135.684 70.2753 135.67 70.2685Z" fill="#E8B792"/>
<path d="M163.338 66.7857C163.369 66.0322 163.844 65.3913 164.597 65.358C165.897 65.3006 167.764 65.7297 167.667 68.6592C167.53 73.0753 163.134 72.0155 163.134 71.8879C163.134 71.8037 163.264 68.6025 163.338 66.7857Z" fill="#FCDEBE"/>
<path d="M164.534 70.2685C164.553 70.2587 164.612 70.3274 164.739 70.3863C164.866 70.4452 165.082 70.4943 165.317 70.4157C165.787 70.2587 166.198 69.5325 166.247 68.7376C166.267 68.3353 166.198 67.9525 166.071 67.6287C165.943 67.3048 165.748 67.0693 165.513 67.0202C165.278 66.9613 165.111 67.0987 165.052 67.2165C164.986 67.3504 164.92 67.3748 164.937 67.2261C164.938 67.2106 164.941 67.1943 164.945 67.1772C164.964 67.0889 165.023 66.9908 165.131 66.9025C165.238 66.8239 165.395 66.7847 165.562 66.8043C165.904 66.8436 166.198 67.1576 166.345 67.5109C166.511 67.8642 166.599 68.296 166.57 68.7474C166.511 69.6306 166.032 70.455 165.395 70.612C165.175 70.6603 164.984 70.6261 164.845 70.564C164.741 70.5174 164.64 70.4553 164.568 70.3673C164.524 70.3145 164.521 70.2746 164.534 70.2685Z" fill="#E8B792"/>
<path d="M136.071 57.2217C136.064 57.2824 136.062 57.3287 136.063 57.3898C136.072 58.4121 136.187 68.3703 137.217 72.4177C138.314 76.6867 140.35 86.2158 151.091 86.2158C161.616 86.2158 162.889 75.2637 163.545 68.5904C164.201 61.9073 163.76 45.3811 150.435 45.1554C137.76 44.9499 136.192 56.1444 136.071 57.2217Z" fill="#FCDEBE"/>
<path d="M165.63 54.3507C165.65 52.2408 166.208 49.7874 165.16 48.3448C165.095 48.2547 165.027 48.1698 164.958 48.0893C164.626 47.7053 164.649 47.1183 164.945 46.7059C165.611 45.8227 165.748 44.5665 165.141 43.644C164.572 42.8019 162.144 40.4453 161.374 39.7816C161.357 39.7669 161.34 39.7525 161.322 39.7382C160.402 38.9727 159.11 38.7176 157.886 38.7863C157.244 38.8248 156.616 38.9434 155.997 39.1005C155.4 39.2522 154.771 39.0648 154.259 38.7227C154.047 38.5814 153.863 38.4051 153.695 38.214C153.41 37.8901 153.046 37.6205 152.648 37.432C151.757 37.01 150.719 36.9413 149.73 37.0394C147.84 37.2259 146.029 38.0012 144.639 39.2083C143.748 39.9835 142.984 40.9649 141.848 41.3575C141.447 41.4948 141.026 41.5537 140.595 41.5832C140.409 41.593 140.213 41.6028 140.027 41.6126C139.587 41.6322 139.156 41.6519 138.725 41.7304C137.061 42.0346 135.7 43.2907 135.054 44.7628C134.453 46.1344 134.419 47.6723 134.689 49.1368C134.721 49.3085 134.737 49.4833 134.721 49.6572C134.631 50.6378 134.349 51.6087 134.133 52.5548C133.918 53.546 134.319 54.3311 134.231 55.3517C134.182 55.9602 134.417 57.2556 134.407 57.864C134.398 58.4234 134.456 58.8062 134.662 60.0721C134.858 61.2399 134.76 61.0829 135.103 62.2213C135.269 62.7905 135.318 63.3891 135.377 63.9681C135.435 64.4981 135.494 65.0378 135.563 65.5776C135.592 65.8229 135.631 66.0585 135.67 66.3038C135.759 66.8239 135.788 67.3539 136.121 67.7758C136.434 68.1782 136.884 68.3058 137.217 67.8544C137.54 67.4226 137.54 66.8435 137.54 66.3136C137.521 65.0182 137.227 63.6541 137.697 62.4176C137.903 61.868 138.236 61.397 138.529 60.9063C138.666 60.6806 138.813 60.5039 138.921 60.2586C139.029 59.9838 139.127 59.709 139.254 59.444C139.763 58.443 139.959 57.3537 140.047 56.2153C140.096 55.5676 139.92 54.9396 139.978 54.2821C140.027 53.7619 140.115 53.2418 140.262 52.7315C140.478 52.0053 140.869 51.3281 141.427 50.8669C142.054 50.3468 142.808 50.2977 143.562 50.2388C144.286 50.1898 144.972 50.2192 145.686 50.386C147.145 50.7197 148.575 51.3674 150.082 51.3968C150.67 51.4066 151.267 51.3085 151.806 51.0632C153.529 50.2879 155.35 50.1505 157.2 50.2683C157.465 50.2879 157.641 50.2683 157.915 50.2879C159.061 50.3762 160.314 50.8767 160.921 51.9955C161.587 53.2222 161.499 54.5765 161.499 55.9209C161.499 56.7845 161.547 57.5794 161.733 58.4332C161.9 59.1987 162.155 60.023 162.566 60.6708C163.359 61.9269 163.594 63.5756 163.633 65.0575C163.643 65.5089 163.496 67.9427 164.269 67.8151C164.504 67.7758 164.671 67.452 164.739 67.2459C164.818 67.0006 164.847 66.7552 164.867 66.5001C164.886 66.1762 164.915 65.7444 164.896 65.4206C164.886 65.3224 164.886 65.2243 164.886 65.1262C164.827 63.7817 165.209 62.5353 165.395 61.2007C165.542 60.1703 165.571 59.8071 165.63 59.238C165.728 58.2566 165.66 57.8346 165.63 56.9416C165.611 56.0387 165.62 55.234 165.63 54.3507Z" fill="#313131"/>
<path d="M157.954 64.763C158.043 65.2144 157.896 65.6953 157.651 66.0682C157.377 66.4804 156.77 66.5392 156.319 66.4117C155.311 66.1369 155.017 64.9396 155.722 64.184C156.094 63.7816 156.74 63.497 157.259 63.7816C157.582 63.9582 157.886 64.4097 157.954 64.763Z" fill="#313131"/>
<path d="M145.97 64.6748C146.058 65.1263 145.912 65.6071 145.667 65.98C145.393 66.3922 144.786 66.4511 144.335 66.3235C143.327 66.0487 143.033 64.8515 143.738 64.0958C144.12 63.6935 144.756 63.4089 145.275 63.6935C145.598 63.8603 145.902 64.3215 145.97 64.6748Z" fill="#313131"/>
<path d="M148.232 75.9604C148.389 75.823 149.26 76.8927 150.807 76.9025C152.354 76.9222 153.392 75.8623 153.529 75.9997C153.597 76.0586 153.441 76.4217 152.971 76.824C152.511 77.2264 151.688 77.6386 150.748 77.6386C149.808 77.6288 149.055 77.1969 148.663 76.7848C148.242 76.3824 148.154 76.0193 148.232 75.9604Z" fill="#E8B792"/>
<path d="M158.816 59.6107C158.591 59.9052 157.71 59.6009 156.652 59.5813C155.595 59.5322 154.694 59.7776 154.489 59.4734C154.4 59.3262 154.537 59.0317 154.929 58.757C155.311 58.4822 155.957 58.2565 156.691 58.2761C157.416 58.2957 158.052 58.5607 158.415 58.8649C158.787 59.1691 158.914 59.4734 158.816 59.6107Z" fill="#313131"/>
<path d="M146.558 60.0133C146.411 60.1703 146.088 60.1114 145.667 60.0231C145.236 59.9348 144.698 59.8367 144.091 59.817C143.484 59.7974 142.935 59.8661 142.504 59.925C142.074 59.9839 141.741 60.0231 141.614 59.8563C141.486 59.7091 141.613 59.3362 142.054 58.9731C142.495 58.61 143.268 58.3057 144.14 58.3254C145.011 58.3548 145.765 58.7081 146.176 59.1006C146.597 59.503 146.695 59.8759 146.558 60.0133Z" fill="#313131"/>
<path d="M151.375 71.5835C151.199 71.5835 151.032 71.5148 150.925 71.3872C150.846 71.2989 150.846 71.1615 150.944 71.083C151.032 71.0045 151.169 71.0045 151.248 71.1026C151.277 71.132 151.316 71.1517 151.375 71.1517C151.473 71.1517 151.571 71.1026 151.639 71.0339C151.776 70.8769 151.816 70.6217 151.845 70.396C152.041 68.659 151.776 66.8925 151.072 65.2929C151.023 65.185 151.072 65.0574 151.179 65.0083C151.287 64.9593 151.414 65.0083 151.463 65.1163C152.197 66.7846 152.481 68.6296 152.276 70.4451C152.237 70.7591 152.178 71.083 151.962 71.3185C151.825 71.4755 151.6 71.5835 151.375 71.5835C151.385 71.5835 151.385 71.5835 151.375 71.5835Z" fill="#E8B792"/>
<path d="M153.216 48.0797C153.167 48.0797 153.118 48.0601 153.079 48.0208C153 47.9521 153 47.8245 153.079 47.7559C154.449 46.3623 155.076 44.537 155.516 42.9275C155.546 42.8294 155.644 42.7705 155.751 42.7901C155.849 42.8196 155.908 42.9177 155.888 43.0257C155.086 45.9698 154.156 47.2063 153.353 48.0208C153.313 48.0601 153.265 48.0797 153.216 48.0797Z" fill="black"/>
<path d="M158.963 49.5617C158.885 49.5617 158.816 49.5126 158.787 49.4341C158.748 49.336 158.806 49.228 158.904 49.1888C159.903 48.8355 160.804 48.3154 161.577 47.6382C161.655 47.5695 161.773 47.5793 161.841 47.6579C161.91 47.7364 161.9 47.8541 161.822 47.9228C161.009 48.6294 160.069 49.179 159.031 49.5421C159.012 49.5519 158.982 49.5617 158.963 49.5617Z" fill="black"/>
<path d="M147.743 47.7266C147.664 47.7266 147.586 47.6678 147.576 47.5794C147.185 45.6167 146.166 44.125 144.776 43.497C144.688 43.4577 144.649 43.3497 144.678 43.2516C144.717 43.1535 144.815 43.1142 144.903 43.1535C146.401 43.8306 147.488 45.4106 147.909 47.5009C147.927 47.5893 147.881 47.6856 147.8 47.7182C147.784 47.7246 147.76 47.7266 147.743 47.7266Z" fill="black"/>
<path d="M141.566 49.2736C141.505 49.2801 141.442 49.2496 141.408 49.1985C140.703 48.1877 139.89 47.54 138.97 47.2848C138.872 47.2554 138.823 47.1573 138.852 47.0591C138.882 46.961 138.98 46.9021 139.078 46.9217C140.067 47.2063 140.948 47.8933 141.692 48.9728C141.751 49.0513 141.731 49.1691 141.653 49.2378C141.628 49.2579 141.597 49.2703 141.566 49.2736Z" fill="black"/>
</g>
<path d="M94.6673 39.7856H87.8501C87.0236 39.7856 86.3535 40.4557 86.3535 41.2822C86.3535 42.1088 87.0236 42.7788 87.8501 42.7788H94.6673C95.4939 42.7788 96.1639 42.1088 96.1639 41.2822C96.1639 40.4557 95.4939 39.7856 94.6673 39.7856Z" fill="#A4C0AF"/>
<path d="M79.746 39.7856H59.2119C58.3854 39.7856 57.7153 40.4557 57.7153 41.2822C57.7153 42.1088 58.3854 42.7788 59.2119 42.7788H79.746C80.5726 42.7788 81.2426 42.1088 81.2426 41.2822C81.2426 40.4557 80.5726 39.7856 79.746 39.7856Z" fill="#A4C0AF"/>
<path d="M45.6447 39.7856H22.9272C22.1007 39.7856 21.4307 40.4557 21.4307 41.2822C21.4307 42.1088 22.1007 42.7788 22.9272 42.7788H45.6447C46.4713 42.7788 47.1413 42.1088 47.1413 41.2822C47.1413 40.4557 46.4713 39.7856 45.6447 39.7856Z" fill="#A4C0AF"/>
<path d="M39.3786 48.2549H22.9272C22.1007 48.2549 21.4307 48.9249 21.4307 49.7515C21.4307 50.578 22.1007 51.2481 22.9272 51.2481H39.3786C40.2051 51.2481 40.8752 50.578 40.8752 49.7515C40.8752 48.9249 40.2051 48.2549 39.3786 48.2549Z" fill="#A4C0AF"/>
<path d="M79.8049 48.2549H48.6968C47.8702 48.2549 47.2002 48.9249 47.2002 49.7515C47.2002 50.578 47.8702 51.2481 48.6968 51.2481H79.8049C80.6315 51.2481 81.3015 50.578 81.3015 49.7515C81.3015 48.9249 80.6315 48.2549 79.8049 48.2549Z" fill="#A4C0AF"/>
<path d="M99.3667 57.4404H46.5327C45.7062 57.4404 45.0361 58.1105 45.0361 58.937C45.0361 59.7636 45.7062 60.4336 46.5327 60.4336H99.3667C100.193 60.4336 100.863 59.7636 100.863 58.937C100.863 58.1105 100.193 57.4404 99.3667 57.4404Z" fill="#A4C0AF"/>
<path d="M36.1966 57.4404H22.9273C22.1007 57.4404 21.4307 58.1105 21.4307 58.937C21.4307 59.7636 22.1007 60.4336 22.9273 60.4336H36.1966C37.0231 60.4336 37.6932 59.7636 37.6932 58.937C37.6932 58.1105 37.0231 57.4404 36.1966 57.4404Z" fill="#A4C0AF"/>
<path d="M118.126 48.2549H113.61C112.783 48.2549 112.113 48.9249 112.113 49.7515C112.113 50.578 112.783 51.2481 113.61 51.2481H118.126C118.953 51.2481 119.623 50.578 119.623 49.7515C119.623 48.9249 118.953 48.2549 118.126 48.2549Z" fill="#A4C0AF"/>
<path d="M105.182 48.2549H87.1548C86.3282 48.2549 85.6582 48.9249 85.6582 49.7515C85.6582 50.578 86.3282 51.2481 87.1548 51.2481H105.182C106.009 51.2481 106.679 50.578 106.679 49.7515C106.679 48.9249 106.009 48.2549 105.182 48.2549Z" fill="#A4C0AF"/>
<path d="M137.076 13.8188H55.6633C54.7582 13.8188 54.0244 14.5526 54.0244 15.4577C54.0244 16.3629 54.7582 17.0966 55.6633 17.0966H137.076C137.981 17.0966 138.715 16.3629 138.715 15.4577C138.715 14.5526 137.981 13.8188 137.076 13.8188Z" fill="#A4C0AF"/>
<path d="M132.622 20.2764H61.213C60.6493 20.2764 60.1924 20.7333 60.1924 21.297C60.1924 21.8607 60.6493 22.3176 61.213 22.3176H132.622C133.186 22.3176 133.643 21.8607 133.643 21.297C133.643 20.7333 133.186 20.2764 132.622 20.2764Z" fill="#A4C0AF"/>
<path d="M167.962 109H161.145C160.318 109 159.648 109.67 159.648 110.497C159.648 111.323 160.318 111.993 161.145 111.993H167.962C168.788 111.993 169.458 111.323 169.458 110.497C169.458 109.67 168.788 109 167.962 109Z" fill="#A4C0AF"/>
<path d="M153.031 109H132.497C131.67 109 131 109.67 131 110.497C131 111.323 131.67 111.993 132.497 111.993H153.031C153.857 111.993 154.527 111.323 154.527 110.497C154.527 109.67 153.857 109 153.031 109Z" fill="#A4C0AF"/>
<path d="M105.124 67.4995H91.5217C90.6952 67.4995 90.0251 68.1696 90.0251 68.9961C90.0251 69.8226 90.6952 70.4927 91.5217 70.4927H105.124C105.95 70.4927 106.621 69.8226 106.621 68.9961C106.621 68.1696 105.951 67.4995 105.124 67.4995Z" fill="#A4C0AF"/>
<path d="M82.7127 67.4995H53.4844C52.6578 67.4995 51.9878 68.1696 51.9878 68.9961C51.9878 69.8226 52.6578 70.4927 53.4844 70.4927H82.7127C83.5393 70.4927 84.2093 69.8226 84.2093 68.9961C84.2093 68.1696 83.5393 67.4995 82.7127 67.4995Z" fill="#A4C0AF"/>
<path d="M43.618 67.4995H22.9272C22.1007 67.4995 21.4307 68.1696 21.4307 68.9961C21.4307 69.8226 22.1007 70.4927 22.9272 70.4927H43.618C44.4446 70.4927 45.1146 69.8226 45.1146 68.9961C45.1146 68.1696 44.4446 67.4995 43.618 67.4995Z" fill="#A4C0AF"/>
<path d="M76.5347 75.5271H40.1003C39.2738 75.5271 38.6038 76.1971 38.6038 77.0237C38.6038 77.8502 39.2738 78.5203 40.1003 78.5203H76.5347C77.3612 78.5203 78.0313 77.8502 78.0313 77.0237C78.0313 76.1971 77.3612 75.5271 76.5347 75.5271Z" fill="#A4C0AF"/>
<path d="M31.0173 75.5271H22.9272C22.1007 75.5271 21.4307 76.1971 21.4307 77.0237C21.4307 77.8502 22.1007 78.5203 22.9272 78.5203H31.0173C31.8438 78.5203 32.5138 77.8502 32.5138 77.0237C32.5138 76.1971 31.8438 75.5271 31.0173 75.5271Z" fill="#A4C0AF"/>
<path d="M52.1849 84.2124H22.9273C22.1007 84.2124 21.4307 84.8824 21.4307 85.709C21.4307 86.5355 22.1007 87.2056 22.9273 87.2056H52.185C53.0115 87.2056 53.6815 86.5355 53.6815 85.709C53.6815 84.8824 53.0115 84.2124 52.1849 84.2124Z" fill="#A4C0AF"/>
<path d="M82.6737 92.9072H53.4453C52.6188 92.9072 51.9487 93.5773 51.9487 94.4038C51.9487 95.2303 52.6188 95.9004 53.4453 95.9004H82.6737C83.5002 95.9004 84.1702 95.2303 84.1702 94.4038C84.1702 93.5773 83.5002 92.9072 82.6737 92.9072Z" fill="#A4C0AF"/>
<path d="M43.579 92.9072H22.8882C22.0616 92.9072 21.3916 93.5773 21.3916 94.4038C21.3916 95.2303 22.0616 95.9004 22.8882 95.9004H43.579C44.4055 95.9004 45.0755 95.2303 45.0755 94.4038C45.0755 93.5773 44.4055 92.9072 43.579 92.9072Z" fill="#A4C0AF"/>
<path d="M94.6669 84.2119H61.0523C60.2257 84.2119 59.5557 84.882 59.5557 85.7085C59.5557 86.535 60.2257 87.2051 61.0523 87.2051H94.6669C95.4934 87.2051 96.1634 86.535 96.1634 85.7085C96.1634 84.882 95.4934 84.2119 94.6669 84.2119Z" fill="#A4C0AF"/>
<path d="M161 1H193C195.761 1 198 3.23858 198 6V38" stroke="#27AE60" stroke-width="2"/>
<path d="M38 135H6C3.23858 135 1 132.761 1 130V98" stroke="#27AE60" stroke-width="2"/>
<path d="M38 1H6C3.23858 1 1 3.23858 1 6V38" stroke="#27AE60" stroke-width="2"/>
<path d="M161 135H193C195.761 135 198 132.761 198 130V98" stroke="#27AE60" stroke-width="2"/>
</svg>
