<svg width="40" height="40" viewBox="0 0 40 40" fill="none" xmlns="http://www.w3.org/2000/svg">
<circle cx="20" cy="20" r="20" fill="url(#paint0_linear_2751_6285)"/>
<path fill-rule="evenodd" clip-rule="evenodd" d="M20.1667 10C14.5518 10 10 14.5518 10 20.1667C10 25.7816 14.5518 30.3333 20.1667 30.3333C25.7816 30.3333 30.3333 25.7816 30.3333 20.1667C30.3333 14.5518 25.7816 10 20.1667 10ZM9 20.1667C9 13.9995 13.9995 9 20.1667 9C26.3338 9 31.3333 13.9995 31.3333 20.1667C31.3333 26.3338 26.3338 31.3333 20.1667 31.3333C13.9995 31.3333 9 26.3338 9 20.1667Z" fill="#208E44"/>
<path d="M18.18 23.5741C18.0088 23.5744 17.8456 23.4988 17.7345 23.3677L14.6404 19.7237C14.4302 19.4761 14.4593 19.1043 14.7055 18.893C14.9516 18.6819 15.3213 18.7112 15.5314 18.9584L18.2539 22.1648L25.0158 16.6323C25.2668 16.4268 25.6358 16.4649 25.8398 16.7174C26.0441 16.9699 26.0062 17.341 25.7551 17.5461L18.5491 23.442C18.4451 23.5274 18.3147 23.5741 18.18 23.5741Z" fill="#F7941D"/>
<defs>
<linearGradient id="paint0_linear_2751_6285" x1="20" y1="0" x2="20" y2="40" gradientUnits="userSpaceOnUse">
<stop stop-color="#E3FAE8"/>
<stop offset="1" stop-color="#E3FAE8" stop-opacity="0"/>
</linearGradient>
</defs>
</svg>
