<svg width="48" height="48" viewBox="0 0 48 48" fill="none" xmlns="http://www.w3.org/2000/svg">
<rect width="48" height="48" rx="4" fill="#FEF4E8"/>
<path d="M36.6885 32.1156C36.169 30.7717 35.6359 29.4383 35.1164 28.0996C34.9797 27.7426 34.7518 27.5799 34.4146 27.5851C33.8541 27.5904 33.2936 27.5799 32.7331 27.5904C32.5781 27.5956 32.5098 27.5326 32.446 27.3699C31.9493 26.0837 31.4343 24.8028 30.9422 23.5166C30.7781 23.0809 30.5321 22.8814 30.1128 22.9024C29.5523 22.9287 28.9918 22.8972 28.4313 22.9129C28.2536 22.9182 28.1715 22.8552 28.0986 22.6714C27.6019 21.3853 27.0824 20.1096 26.5948 18.8182C26.4308 18.3877 26.1847 18.2092 25.7837 18.2145C24.2161 18.225 22.644 18.225 21.0764 18.2145C20.6753 18.2092 20.4247 18.393 20.2652 18.8182C19.7685 20.1149 19.2536 21.4063 18.7523 22.7029C18.6885 22.8657 18.6156 22.9182 18.4652 22.9182C17.85 22.9077 17.2394 22.9182 16.6242 22.9129C16.3189 22.9077 16.1093 23.0652 15.9817 23.3854C15.927 23.5219 15.8723 23.6584 15.8176 23.8001C15.6809 24.1623 15.7037 24.2778 15.9589 24.5351C16.3007 24.5928 16.41 24.5403 16.5422 24.1518C16.6288 23.8946 16.7472 23.8159 16.9842 23.8211C18.0414 23.8421 19.0986 23.8369 20.1559 23.8369C20.1969 23.8579 20.2242 23.8841 20.2515 23.9156C20.5569 23.9104 20.8667 23.9209 21.1721 23.9051C21.3726 23.8999 21.4956 23.9839 21.5776 24.1991C21.965 25.207 22.3569 26.2045 22.7533 27.2072C22.8536 27.4591 22.8353 27.4906 22.5802 27.4959C22.2703 27.5011 21.965 27.4959 21.6596 27.4959C21.6551 27.5221 21.6505 27.5484 21.6323 27.5746C19.7822 27.5799 17.9275 27.5799 16.0774 27.5851C15.7994 27.5851 15.5214 27.5851 15.2115 27.5851C15.2981 27.3594 15.3756 27.1599 15.4531 26.9604C15.5943 26.5877 15.5715 26.4617 15.3072 26.2045C15.0202 26.131 14.8424 26.2675 14.7331 26.5719C14.6374 26.8397 14.5189 27.0969 14.4277 27.3699C14.3731 27.5326 14.2956 27.5904 14.1361 27.5904C13.5255 27.5799 12.9103 27.6009 12.2996 27.5799C11.885 27.5641 11.6389 27.7636 11.4748 28.1993C10.9462 29.5748 10.3994 30.9397 9.85712 32.3046C9.85712 32.4253 9.85712 32.5461 9.85712 32.6668C10.0212 33.0815 10.3128 33.1918 10.6865 33.1918C13.6121 33.1813 16.5376 33.1865 19.4586 33.1865C22.0515 33.1865 24.6445 33.1865 27.2374 33.1865C27.3923 33.1865 27.5518 33.1603 27.7067 33.1655C28.6181 33.2128 29.5295 33.176 30.4364 33.1865C30.6961 33.1918 30.8693 33.0553 30.9103 32.7403C30.8374 32.3676 30.7326 32.2678 30.3771 32.2678C29.6845 32.2626 28.9964 32.2678 28.3037 32.2626C28.2217 32.2626 28.0759 32.3151 28.1579 32.1104C28.6272 30.9239 29.1012 29.7375 29.5751 28.5511C29.648 28.4986 29.73 28.5248 29.8029 28.5248C30.8191 28.5248 31.8353 28.5301 32.847 28.5143C32.9472 28.5143 33.0202 28.5353 33.084 28.5721C33.4029 28.5721 33.7219 28.5721 34.0409 28.5721C34.2551 28.5721 34.3827 28.6666 34.4647 28.8871C34.8566 29.9002 35.2531 30.9134 35.6541 31.9161C35.7361 32.1209 35.6769 32.1576 35.5083 32.1576C35.1847 32.1524 34.8612 32.1524 34.5376 32.1576C34.5331 32.1891 34.5285 32.2153 34.5103 32.2468C34.0409 32.2521 33.5715 32.2573 33.1022 32.2626C32.7559 32.2678 32.6602 32.3466 32.5599 32.7246C32.61 33.0238 32.765 33.1813 33.0338 33.1813C34.0591 33.1813 35.0845 33.1918 36.1098 33.176C36.6566 33.1708 36.9118 32.6878 36.6885 32.1156ZM19.8688 22.8814C19.7731 22.8814 19.6774 22.9077 19.5862 22.8552C19.7229 22.3565 19.9417 21.8997 20.124 21.422C20.3883 20.7238 20.6708 20.0309 20.9442 19.3326C20.9852 19.2329 21.0126 19.1332 21.1402 19.1384C22.2703 19.1489 23.3959 19.1542 24.526 19.1594C24.6126 19.2172 24.6581 19.3169 24.6991 19.4166C25.1093 20.4193 25.4875 21.4378 25.8931 22.4457C25.9113 22.493 25.925 22.5402 25.9386 22.5874C26.0115 22.8499 25.9888 22.8867 25.7472 22.8867C25.0364 22.8867 24.33 22.8867 23.6191 22.8867C22.3705 22.8814 21.1219 22.8814 19.8688 22.8814ZM22.3842 23.8316C23.0951 23.8316 23.7741 23.8316 24.4759 23.8316C24.1295 24.7188 23.7878 25.585 23.4278 26.5037C23.0723 25.5798 22.7305 24.7136 22.3842 23.8316ZM17.1619 32.2468C16.8019 32.2521 16.4465 32.2626 16.0865 32.2626C14.4141 32.2626 12.7417 32.2626 11.0693 32.2626C10.9781 32.2626 10.8779 32.2941 10.7685 32.2206C10.9462 31.7639 11.124 31.3072 11.3062 30.8504C11.6115 30.084 11.9169 29.3175 12.2267 28.5511C12.2905 28.5038 12.3634 28.5248 12.4318 28.5248C13.4662 28.5248 14.4961 28.5301 15.5305 28.5196C15.7265 28.5196 15.8313 28.5931 15.9133 28.7978C16.3143 29.8057 16.7017 30.8189 17.1027 31.8269C17.1528 31.9529 17.2394 32.0894 17.1619 32.2468ZM18.9802 31.1864C18.6202 30.273 18.2784 29.4015 17.9229 28.4986C18.6019 28.4986 19.2399 28.4986 19.8733 28.4986C19.9736 28.4986 20.0283 28.5143 19.9736 28.6508C19.65 29.475 19.3219 30.3097 18.9802 31.1864ZM25.8384 32.2468C25.5513 32.2521 25.2642 32.2626 24.9726 32.2626C23.2136 32.2626 21.4546 32.2626 19.7002 32.2678C19.5088 32.2678 19.4222 32.2573 19.527 32.0001C19.9918 30.8557 20.4475 29.7008 20.9032 28.5511C20.967 28.5038 21.0399 28.5248 21.1083 28.5248C22.1427 28.5248 23.1726 28.5301 24.207 28.5196C24.4029 28.5196 24.5078 28.5931 24.5898 28.7978C24.9953 29.8057 25.3827 30.8189 25.7791 31.8269C25.8293 31.9529 25.9204 32.0894 25.8384 32.2468ZM27.6521 31.1707C27.2966 30.2625 26.9594 29.4015 26.6085 28.5143C27.3057 28.5143 27.9802 28.5143 28.691 28.5143C28.3493 29.391 28.0121 30.2572 27.6521 31.1707ZM30.3088 27.5694C28.8551 27.5746 27.4014 27.5746 25.9478 27.5799C25.2733 27.5799 24.5989 27.5799 23.9245 27.5799C23.8971 27.4696 23.9564 27.4014 23.9883 27.3227C24.4166 26.2307 24.8404 25.1388 25.2688 24.0469C25.3143 23.9314 25.3371 23.8106 25.4966 23.8159C26.6267 23.8264 27.7569 23.8264 28.887 23.8316C29.0784 24.0994 29.1513 24.4353 29.2789 24.7451C29.6298 25.5955 29.9579 26.4617 30.2951 27.3174C30.327 27.3961 30.3726 27.4801 30.3088 27.5694Z" fill="#F7951D"/>
<path d="M19.5862 22.8552C21.6095 22.8552 23.6328 22.8552 25.6561 22.8552C25.9478 22.8552 25.9614 22.8499 25.8429 22.5455C25.483 21.6058 25.1138 20.6713 24.7493 19.7369C24.6764 19.5427 24.5989 19.3484 24.526 19.1594C24.9179 19.1542 25.3143 19.1489 25.7062 19.1437C25.8065 19.1437 25.8612 19.1752 25.9067 19.2907C26.3716 20.4823 26.8409 21.674 27.3103 22.8762C27.2283 22.9392 27.1508 22.9129 27.0779 22.9129C24.6627 22.9129 22.243 22.9182 19.8278 22.9129C19.7457 22.9024 19.65 22.9602 19.5862 22.8552Z" fill="#F9C130"/>
<path d="M34.5148 32.2469C34.2596 31.5749 34.0044 30.903 33.7447 30.2363C33.567 29.7795 33.371 29.3281 33.207 28.8608C33.1204 28.6246 33.0065 28.5406 32.7741 28.5406C31.7077 28.5564 30.6414 28.5459 29.5705 28.5459C29.6161 28.4461 29.6936 28.4934 29.7574 28.4934C31.2384 28.4934 32.7194 28.4934 34.2004 28.4881C34.3462 28.4881 34.4146 28.5354 34.4738 28.6876C34.9022 29.8005 35.3396 30.9135 35.7817 32.0159C35.8637 32.2259 35.8272 32.2679 35.6404 32.2626C35.2667 32.2521 34.8931 32.2521 34.5148 32.2469Z" fill="#F9C130"/>
<path d="M25.8384 32.2469C25.6652 31.6432 25.4009 31.0867 25.1822 30.504C24.968 29.9213 24.7128 29.3595 24.4986 28.7716C24.4303 28.5826 24.3437 28.5406 24.1842 28.5406C23.0905 28.5458 21.9968 28.5406 20.8986 28.5406C20.9624 28.4356 21.0581 28.4881 21.1401 28.4881C22.5938 28.4828 24.0429 28.4881 25.4966 28.4881C25.6151 28.4881 25.7244 28.4671 25.7928 28.6456C26.2348 29.8058 26.6951 30.9554 27.1462 32.1104C27.1599 32.1471 27.1644 32.1839 27.1736 32.2364C26.727 32.2469 26.2804 32.2469 25.8384 32.2469Z" fill="#F9C130"/>
<path d="M17.1619 32.2468C16.9705 31.5959 16.6835 30.9974 16.451 30.3674C16.2505 29.832 16.0181 29.3123 15.8267 28.7715C15.7584 28.5773 15.6673 28.5406 15.5123 28.5406C14.4186 28.5458 13.325 28.5406 12.2267 28.5406C12.2723 28.4461 12.3498 28.4881 12.4136 28.4881C13.8946 28.4881 15.3756 28.4881 16.8566 28.4828C17.0024 28.4828 17.0708 28.5353 17.13 28.6875C17.5675 29.8215 18.0141 30.9449 18.4561 32.0788C18.4743 32.1208 18.4835 32.1733 18.5062 32.2416C18.046 32.2468 17.604 32.2468 17.1619 32.2468Z" fill="#F9C130"/>
<path d="M21.6278 27.5694C21.3543 26.8607 21.0855 26.152 20.8075 25.4486C20.5933 24.9079 20.3746 24.3724 20.1559 23.8317C20.5569 23.8264 20.9579 23.8264 21.3589 23.8212C21.4591 23.8212 21.5184 23.8579 21.5594 23.9629C22.0151 25.1336 22.4753 26.3043 22.931 27.4802C22.9402 27.5064 22.931 27.5379 22.931 27.5747C22.4981 27.5694 22.0652 27.5694 21.6278 27.5694Z" fill="#F9C130"/>
<path d="M30.3088 27.5694C30.0308 26.845 29.7437 26.1258 29.4703 25.4013C29.2743 24.8764 29.0237 24.3829 28.887 23.8317C29.2698 23.8264 29.6571 23.8264 30.0399 23.8159C30.1402 23.8159 30.1994 23.8422 30.2404 23.9524C30.6961 25.1283 31.1564 26.299 31.6166 27.4697C31.6257 27.4959 31.6166 27.5274 31.6166 27.5642C31.1791 27.5694 30.7417 27.5694 30.3088 27.5694Z" fill="#F9C130"/>
<path d="M21.6506 27.5694C19.8004 27.5747 17.9457 27.5747 16.0956 27.5799C15.8176 27.5799 15.5397 27.5799 15.2298 27.5799C15.3164 27.3542 15.3938 27.1547 15.4713 26.9552C15.6126 26.5825 15.5898 26.4565 15.3255 26.1993C15.5442 25.6376 15.7675 25.0811 15.9863 24.5194C16.328 24.5771 16.4374 24.5246 16.5695 24.1361C16.6561 23.8789 16.7746 23.8002 17.0116 23.8054C18.0688 23.8264 19.126 23.8212 20.1832 23.8212C20.3108 23.8842 20.3518 24.0207 20.4019 24.1466C20.8121 25.2018 21.2222 26.257 21.6414 27.307C21.6642 27.3962 21.7144 27.4802 21.6506 27.5694Z" fill="#FFE49F"/>
<path d="M34.5376 32.2469C34.0682 32.2521 33.5989 32.2574 33.1295 32.2626C32.7832 32.2679 32.6875 32.3466 32.5872 32.7246C32.0358 32.7299 31.4844 32.7299 30.933 32.7351C30.8601 32.3624 30.7553 32.2626 30.3999 32.2626C29.7072 32.2574 29.0191 32.2626 28.3265 32.2574C28.2444 32.2574 28.0986 32.3099 28.1806 32.1051C28.65 30.9187 29.1239 29.7323 29.5979 28.5459C29.6708 28.4934 29.7528 28.5196 29.8257 28.5196C30.8419 28.5196 31.8581 28.5249 32.8698 28.5091C33.093 28.5039 33.207 28.5984 33.289 28.8188C33.69 29.8688 34.1184 30.9082 34.5148 31.9634C34.5558 32.0526 34.5968 32.1471 34.5376 32.2469Z" fill="#FFE49F"/>
<path d="M30.327 27.5694C28.8733 27.5746 27.4196 27.5746 25.966 27.5799C25.2915 27.5799 24.6171 27.5799 23.9427 27.5799C23.9153 27.4696 23.9746 27.4014 24.0065 27.3226C24.4348 26.2307 24.8586 25.1388 25.287 24.0468C25.3326 23.9313 25.3553 23.8106 25.5148 23.8158C26.645 23.8263 27.7751 23.8263 28.9052 23.8316C29.0966 24.0993 29.1695 24.4353 29.2971 24.745C29.648 25.5955 29.9761 26.4617 30.3133 27.3226C30.3452 27.3961 30.3908 27.4801 30.327 27.5694Z" fill="#FFE49F"/>
<path d="M17.1802 32.2468C16.8202 32.252 16.4647 32.2625 16.1047 32.2625C14.4323 32.2625 12.7599 32.2625 11.0875 32.2625C10.9964 32.2625 10.8961 32.294 10.7867 32.2206C10.9645 31.7638 11.1422 31.3071 11.3245 30.8504C11.6298 30.0839 11.9351 29.3175 12.245 28.551C12.3088 28.5038 12.3817 28.5248 12.45 28.5248C13.4845 28.5248 14.5143 28.53 15.5488 28.5195C15.7447 28.5195 15.8495 28.593 15.9316 28.7978C16.3326 29.8057 16.7199 30.8189 17.1209 31.8268C17.171 31.9528 17.2576 32.0893 17.1802 32.2468Z" fill="#FFE49F"/>
<path d="M25.8566 32.2468C25.5695 32.252 25.2824 32.2626 24.9908 32.2626C23.2318 32.2626 21.4728 32.2625 19.7184 32.2678C19.527 32.2678 19.4404 32.2573 19.5452 32.0001C20.01 30.8556 20.4657 29.7007 20.9214 28.551C20.9852 28.5038 21.0581 28.5248 21.1265 28.5248C22.1609 28.5248 23.1908 28.53 24.2252 28.5195C24.4212 28.5195 24.526 28.593 24.608 28.7978C25.0136 29.8057 25.4009 30.8189 25.7974 31.8268C25.8475 31.9528 25.9386 32.0893 25.8566 32.2468Z" fill="#FFE49F"/>
<path d="M19.6045 22.8552C19.7412 22.3564 19.9599 21.8997 20.1422 21.422C20.4065 20.7238 20.689 20.0308 20.9624 19.3326C21.0034 19.2329 21.0308 19.1331 21.1584 19.1384C22.2885 19.1489 23.4141 19.1541 24.5442 19.1594C24.6308 19.2171 24.6764 19.3169 24.7174 19.4166C25.1275 20.4193 25.5057 21.4377 25.9113 22.4457C25.9295 22.4929 25.9432 22.5402 25.9569 22.5874C26.0298 22.8499 26.007 22.8867 25.7655 22.8867C25.0546 22.8867 24.3483 22.8867 23.6374 22.8867C22.3842 22.8867 21.1356 22.8867 19.8824 22.8867C19.7913 22.8814 19.6956 22.9076 19.6045 22.8552Z" fill="#FFE49F"/>
<path d="M28.7503 21.1971C28.7457 21.1561 28.773 21.1014 28.8004 21.0422C29.3609 19.9349 29.926 18.8321 30.4865 17.7247C30.7006 17.3009 30.9194 16.8771 31.1335 16.4533C31.2065 16.3075 31.3249 16.2437 31.4708 16.2619C31.6622 16.2847 31.7897 16.4898 31.726 16.6721C31.7168 16.6994 31.7077 16.7222 31.6941 16.745C30.9148 18.2761 30.1401 19.8027 29.3609 21.3338C29.2606 21.5344 29.051 21.5936 28.8824 21.4751C28.7958 21.4159 28.7503 21.3293 28.7503 21.1971Z" fill="#F7951D"/>
<path d="M33.0293 19.8255C32.9928 19.5612 32.8834 19.3379 32.7011 19.142C32.3685 18.7865 31.7989 18.6681 31.3523 18.8731C30.7052 19.1648 30.4455 19.8984 30.7644 20.5319C30.9923 20.983 31.4662 21.2336 31.9675 21.1744C32.4915 21.1106 32.8789 20.7552 33.0065 20.2448C33.0156 20.2038 33.011 20.1582 33.0384 20.1217C33.0384 20.0306 33.0384 19.9395 33.0384 19.8483C33.0292 19.8438 33.0338 19.8346 33.0293 19.8255ZM31.8353 20.541C31.5255 20.541 31.2657 20.2812 31.2657 19.9668C31.2703 19.6569 31.5255 19.4017 31.8353 19.4017C32.1452 19.4017 32.4004 19.6569 32.4049 19.9668C32.4095 20.2858 32.1452 20.5455 31.8353 20.541Z" fill="#F7951D"/>
<path d="M28.6774 16.6174C28.0257 16.6038 27.4789 17.1415 27.4652 17.8068C27.4561 18.4676 27.9893 19.0144 28.6637 19.0235C29.3336 19.0235 29.8667 18.4858 29.8758 17.8296C29.885 17.1734 29.3518 16.6311 28.6774 16.6174ZM28.6637 18.3901C28.3538 18.3855 28.0941 18.1212 28.1032 17.8159C28.1077 17.4969 28.372 17.2463 28.691 17.2509C28.9963 17.2554 29.2515 17.5243 29.2424 17.8342C29.2333 18.144 28.969 18.3947 28.6637 18.3901Z" fill="#F7951D"/>
<path d="M30.2495 14.3572C27.7386 14.3572 25.6971 16.4169 25.7108 18.9278C25.7245 21.425 27.766 23.4438 30.2632 23.4438C32.7695 23.4392 34.811 21.3977 34.8065 18.8959C34.7928 16.3896 32.7559 14.3572 30.2495 14.3572ZM30.1948 22.464C28.2627 22.4412 26.6678 20.8235 26.686 18.9005C26.7042 16.8908 28.3128 15.3141 30.3224 15.3369C32.2455 15.3597 33.8359 16.982 33.8222 18.9141C33.8131 20.901 32.1953 22.4868 30.1948 22.464Z" fill="#F7951D"/>
</svg>
