<svg width="64" height="64" viewBox="0 0 64 64" fill="none" xmlns="http://www.w3.org/2000/svg">
<circle cx="32" cy="32" r="32" fill="url(#paint0_linear_58_4497)"/>
<path d="M15.5866 54.6538H38.1387C38.1681 54.6535 38.1975 54.6513 38.2266 54.647C38.3152 54.6511 38.4042 54.6538 38.4939 54.6538C39.9919 54.6521 41.428 54.0562 42.4873 52.997C43.5465 51.9378 44.1423 50.5016 44.144 49.0036V40.077C44.144 39.9089 44.0773 39.7477 43.9584 39.6289C43.8396 39.5101 43.6784 39.4433 43.5104 39.4433C43.3423 39.4433 43.1811 39.5101 43.0623 39.6289C42.9435 39.7477 42.8767 39.9089 42.8767 40.077V49.0036C42.8767 50.166 42.4149 51.2808 41.593 52.1027C40.7711 52.9247 39.6563 53.3865 38.4939 53.3865C37.3315 53.3865 36.2167 52.9247 35.3947 52.1027C34.5728 51.2808 34.111 50.166 34.111 49.0036V45.7628C34.111 45.5948 34.0443 45.4336 33.9254 45.3148C33.8066 45.1959 33.6454 45.1292 33.4774 45.1292H17.3779L17.5521 14.3437C17.5589 13.576 17.8699 12.8423 18.417 12.3036C18.964 11.765 19.7023 11.4652 20.47 11.4702H44.1691C43.7595 11.875 43.4345 12.357 43.2127 12.8884C42.991 13.4197 42.8769 13.9899 42.8772 14.5657V31.0422C42.8772 31.2102 42.944 31.3714 43.0628 31.4903C43.1817 31.6091 43.3428 31.6759 43.5109 31.6759C43.679 31.6759 43.8401 31.6091 43.959 31.4903C44.0778 31.3714 44.1446 31.2102 44.1446 31.0422V21.1481H50.9691C51.1372 21.1481 51.2984 21.0813 51.4172 20.9625C51.536 20.8436 51.6028 20.6824 51.6028 20.5144V14.5657C51.6015 13.409 51.1414 12.3001 50.3235 11.4822C49.5056 10.6643 48.3967 10.2042 47.24 10.2029H20.47C18.1623 10.2029 16.2848 12.0605 16.2848 14.3401L16.1105 45.1292H10.8365C10.6685 45.1292 10.5073 45.1959 10.3885 45.3148C10.2696 45.4336 10.2029 45.5948 10.2029 45.7628V49.0036C10.2048 50.4309 10.7461 51.8047 11.7185 52.8495C12.6908 53.8944 14.0222 54.533 15.4456 54.6374C15.4918 54.6481 15.5391 54.6536 15.5866 54.6538ZM50.3349 14.5657V19.8807H44.144V14.5657C44.144 14.1592 44.2241 13.7566 44.3797 13.3811C44.5352 13.0055 44.7632 12.6643 45.0507 12.3768C45.3381 12.0894 45.6794 11.8614 46.0549 11.7058C46.4305 11.5503 46.833 11.4702 47.2395 11.4702C47.646 11.4702 48.0485 11.5503 48.4241 11.7058C48.7996 11.8614 49.1409 12.0894 49.4283 12.3768C49.7157 12.6643 49.9437 13.0055 50.0993 13.3811C50.2549 13.7566 50.3349 14.1592 50.3349 14.5657ZM11.4702 49.0036V46.3965H32.8437V49.0036C32.8437 49.8436 33.0312 50.6731 33.3927 51.4313C33.7542 52.1896 34.2805 52.8576 34.9331 53.3865H15.8531C14.6911 53.3851 13.577 52.923 12.7554 52.1013C11.9337 51.2796 11.4715 50.1656 11.4702 49.0036Z" fill="#208E44"/>
<path d="M22.4232 18.8831H29.3043C29.4723 18.8831 29.6335 18.8163 29.7523 18.6975C29.8712 18.5786 29.9379 18.4174 29.9379 18.2494C29.9379 18.0813 29.8712 17.9202 29.7523 17.8013C29.6335 17.6825 29.4723 17.6157 29.3043 17.6157H22.4232C22.2552 17.6157 22.094 17.6825 21.9751 17.8013C21.8563 17.9202 21.7896 18.0813 21.7896 18.2494C21.7896 18.4174 21.8563 18.5786 21.9751 18.6975C22.094 18.8163 22.2552 18.8831 22.4232 18.8831Z" fill="#208E44"/>
<path d="M37.2952 22.9436H22.4232C22.2552 22.9436 22.094 23.0104 21.9751 23.1292C21.8563 23.248 21.7896 23.4092 21.7896 23.5773C21.7896 23.7453 21.8563 23.9065 21.9751 24.0253C22.094 24.1442 22.2552 24.2109 22.4232 24.2109H37.2952C37.4632 24.2109 37.6244 24.1442 37.7433 24.0253C37.8621 23.9065 37.9289 23.7453 37.9289 23.5773C37.9289 23.4092 37.8621 23.248 37.7433 23.1292C37.6244 23.0104 37.4632 22.9436 37.2952 22.9436Z" fill="#208E44"/>
<path d="M37.2952 28.2552H22.4232C22.2552 28.2552 22.094 28.322 21.9751 28.4408C21.8563 28.5597 21.7896 28.7209 21.7896 28.8889C21.7896 29.057 21.8563 29.2181 21.9751 29.337C22.094 29.4558 22.2552 29.5226 22.4232 29.5226H37.2952C37.4632 29.5226 37.6244 29.4558 37.7433 29.337C37.8621 29.2181 37.9289 29.057 37.9289 28.8889C37.9289 28.7209 37.8621 28.5597 37.7433 28.4408C37.6244 28.322 37.4632 28.2552 37.2952 28.2552Z" fill="#208E44"/>
<path d="M37.9289 34.2004C37.9289 34.0324 37.8621 33.8712 37.7433 33.7524C37.6244 33.6335 37.4632 33.5668 37.2952 33.5668H22.4232C22.2552 33.5668 22.094 33.6335 21.9751 33.7524C21.8563 33.8712 21.7896 34.0324 21.7896 34.2004C21.7896 34.3685 21.8563 34.5297 21.9751 34.6485C22.094 34.7673 22.2552 34.8341 22.4232 34.8341H37.2952C37.4632 34.8341 37.6244 34.7673 37.7433 34.6485C37.8621 34.5297 37.9289 34.3685 37.9289 34.2004Z" fill="#208E44"/>
<path d="M22.4232 38.8784C22.2552 38.8784 22.094 38.9452 21.9751 39.064C21.8563 39.1829 21.7896 39.344 21.7896 39.5121C21.7896 39.6801 21.8563 39.8413 21.9751 39.9602C22.094 40.079 22.2552 40.1457 22.4232 40.1457H33.5988C33.7669 40.1457 33.928 40.079 34.0469 39.9602C34.1657 39.8413 34.2325 39.6801 34.2325 39.5121C34.2325 39.344 34.1657 39.1829 34.0469 39.064C33.928 38.9452 33.7669 38.8784 33.5988 38.8784H22.4232Z" fill="#208E44"/>
<path d="M50.2447 25.7504C49.9358 25.4422 49.5174 25.269 49.081 25.2688C48.6447 25.2686 48.226 25.4413 47.9168 25.7492L37.2818 36.363C37.1304 36.5141 37.0245 36.7047 36.9764 36.9131L35.6484 42.6567C35.6242 42.7615 35.6269 42.8707 35.6565 42.9742C35.6862 43.0776 35.7416 43.1718 35.8177 43.2478C35.8937 43.3239 35.9879 43.3794 36.0914 43.409C36.1948 43.4386 36.304 43.4414 36.4088 43.4171L42.1524 42.0892C42.3609 42.0412 42.5518 41.9353 42.7029 41.7838L53.3168 31.1488C53.6246 30.8395 53.7972 30.4209 53.797 29.9846C53.7968 29.5483 53.6237 29.1299 53.3156 28.8209L50.2447 25.7504ZM37.9922 38.145L40.92 41.0728L37.1116 41.9533L37.9922 38.145ZM42.1661 40.5267L38.5385 36.899L46.9288 28.5255L50.5396 32.1363L42.1661 40.5267ZM52.4189 30.253L51.4348 31.2392L47.826 27.6303L48.8121 26.6461C48.8833 26.5752 48.9798 26.5353 49.0803 26.5353C49.1809 26.5353 49.2773 26.5752 49.3486 26.6461L52.4186 29.7161C52.4897 29.7873 52.5297 29.8838 52.5297 29.9845C52.5298 30.0851 52.4899 30.1817 52.4189 30.253Z" fill="#F7941D"/>
<defs>
<linearGradient id="paint0_linear_58_4497" x1="32" y1="0" x2="32" y2="64" gradientUnits="userSpaceOnUse">
<stop stop-color="#E3FAE8"/>
<stop offset="1" stop-color="#E3FAE8" stop-opacity="0"/>
</linearGradient>
</defs>
</svg>
