<svg width="16" height="16" viewBox="0 0 16 16" fill="none" xmlns="http://www.w3.org/2000/svg">
<path d="M13 4.5H3C2.17157 4.5 1.5 5.17157 1.5 6V12C1.5 12.8284 2.17157 13.5 3 13.5H13C13.8284 13.5 14.5 12.8284 14.5 12V6C14.5 5.17157 13.8284 4.5 13 4.5Z" stroke="#28AF60" stroke-width="1.5" stroke-linejoin="round"/>
<path d="M12.855 4.49998V3.56248C12.8549 3.33255 12.8041 3.10546 12.7062 2.89743C12.6082 2.6894 12.4656 2.50555 12.2884 2.35899C12.1112 2.21244 11.9039 2.10679 11.6812 2.0496C11.4585 1.9924 11.2259 1.98507 11 2.02811L2.77 3.4328C2.4126 3.5009 2.09017 3.6916 1.85833 3.97199C1.62648 4.25239 1.49975 4.6049 1.5 4.96873V6.49998" stroke="#28AF60" stroke-width="1.5" stroke-linejoin="round"/>
<path d="M11.5 10C11.3022 10 11.1089 9.94135 10.9444 9.83147C10.78 9.72159 10.6518 9.56541 10.5761 9.38268C10.5004 9.19996 10.4806 8.99889 10.5192 8.80491C10.5578 8.61093 10.653 8.43275 10.7929 8.29289C10.9327 8.15304 11.1109 8.0578 11.3049 8.01922C11.4989 7.98063 11.7 8.00043 11.8827 8.07612C12.0654 8.15181 12.2216 8.27998 12.3315 8.44443C12.4414 8.60888 12.5 8.80222 12.5 9C12.5 9.26522 12.3947 9.51957 12.2071 9.70711C12.0196 9.89464 11.7652 10 11.5 10Z" fill="#28AF60"/>
</svg>
