<svg width="154" height="154" viewBox="0 0 154 154" fill="none" xmlns="http://www.w3.org/2000/svg">
<path d="M77 154C119.526 154 154 119.526 154 77C154 34.4741 119.526 0 77 0C34.4741 0 0 34.4741 0 77C0 119.526 34.4741 154 77 154Z" fill="#E3FAE8" fill-opacity="0.5"/>
<path d="M31 84.0267H58.2611L61.9503 90.6405H91.7638L95.1741 84.0267H123L100.851 59.5708H52.5772L31 84.0267Z" fill="#268C44"/>
<path opacity="0.28" d="M38.9507 122L52.9494 77.5796H101.244L116.373 122H38.9507Z" fill="#2A5E2F"/>
<path opacity="0.28" d="M52.8204 59.5854L53.1922 77.5869" stroke="#2A5E2F" stroke-width="0.5" stroke-miterlimit="10"/>
<path opacity="0.28" d="M100.586 59.5854L100.951 77.5869" stroke="#2A5E2F" stroke-width="0.5" stroke-miterlimit="10"/>
<path d="M95.1741 84.0266L91.7638 90.6404H61.9503L58.2611 84.0266H31L38.9503 122H116.372L123 84.0266H95.1741Z" fill="#268C44"/>
<path d="M91.7642 90.6406H61.9507L60.5065 88.0544H36.5056L42.4111 118.834H112.791L117.495 88.0544H93.1012L91.7642 90.6406Z" fill="white"/>
<path d="M77.6011 106.657C82.713 106.875 86.6523 109.04 88.9902 113.8C89.648 115.133 88.9259 116.306 87.6104 116.198C86.8668 116.132 86.5451 115.618 86.2377 115.024C82.9846 108.678 74.2622 107.766 69.8438 113.3C69.4149 113.836 69.0931 114.423 68.7928 115.046C68.2781 116.125 67.4702 116.495 66.6051 116.089C65.7972 115.712 65.5899 114.792 66.1046 113.698C67.8634 109.989 70.8376 107.86 74.727 106.954C75.6778 106.73 76.6287 106.628 77.6011 106.657Z" fill="#268C44"/>
<path d="M87.3456 101.847C85.9872 101.76 84.7932 101.289 83.7994 100.34C83.1274 99.6957 82.9844 98.9134 83.5921 98.1962C84.1927 97.4791 85.0006 97.4501 85.7155 98.0368C86.8809 99.0003 88.0034 98.9351 89.1902 98.0948C90.1625 97.4066 91.0634 97.5298 91.571 98.3411C92.0428 99.1017 91.7926 99.9638 90.8918 100.601C89.8265 101.369 88.6397 101.775 87.3456 101.847Z" fill="#268C44"/>
<path d="M66.3403 101.876C64.9533 101.774 63.7521 101.296 62.7655 100.347C62.0934 99.6955 61.9862 98.9203 62.5939 98.1959C63.1659 97.515 63.9523 97.4498 64.6172 98.0003C65.8684 99.0362 67.0409 98.9566 68.2921 98.0293C69.0642 97.457 69.8864 97.4426 70.487 98.2829C71.0804 99.1159 70.8159 99.8838 70.0509 100.485C68.9498 101.354 67.6844 101.782 66.3403 101.876Z" fill="#268C44"/>
<path d="M76.342 51.117H77.6504C78.0722 51.117 78.4154 50.7693 78.4154 50.3419V32.7751C78.4154 32.3477 78.0722 32 77.6504 32H76.342C75.9202 32 75.577 32.3477 75.577 32.7751V50.3419C75.577 50.7693 75.9202 51.117 76.342 51.117Z" fill="#268C44"/>
<path d="M89.0686 52.5368C89.8121 52.7106 90.6129 52.4136 90.8559 51.8848L97.8267 36.455C98.0698 35.9189 97.6623 35.3467 96.9116 35.1728C96.168 34.999 95.3673 35.296 95.1242 35.8248L88.1534 51.2546C87.9175 51.7906 88.325 52.3629 89.0686 52.5368Z" fill="#268C44"/>
<path d="M64.9315 52.5368C64.188 52.7106 63.3872 52.4136 63.1442 51.8848L56.1734 36.455C55.9303 35.9189 56.3378 35.3467 57.0885 35.1728C57.8321 34.999 58.6328 35.296 58.8759 35.8248L65.8467 51.2546C66.0826 51.7906 65.6751 52.3629 64.9315 52.5368Z" fill="#268C44"/>
</svg>
