<svg width="48" height="48" viewBox="0 0 48 48" fill="none" xmlns="http://www.w3.org/2000/svg">
<rect width="48" height="48" rx="4" fill="#F3F2FF"/>
<path d="M33.2166 29.8563V29.0215H37.9951L38.7686 27.6355H33.9134V26.8084H39.2204L39.856 25.6674H14.1713V30.9284H36.946L37.5433 29.8563H33.2166Z" fill="#827DFE"/>
<path d="M6 32.5904H14.1404C18.6356 32.5904 22.2731 28.9453 22.2731 24.4577C22.2731 19.9625 18.628 16.325 14.1404 16.325C9.64518 16.3173 6 19.9625 6 24.45V32.5904Z" fill="#827DFE"/>
<path d="M14.148 17.8949C17.7702 17.8949 20.7109 20.8432 20.7109 24.4578C20.7109 28.08 17.7626 31.0206 14.148 31.0206C10.5258 31.0206 7.58514 28.0723 7.58514 24.4578C7.58514 20.8355 10.5258 17.8949 14.148 17.8949Z" fill="white"/>
<path d="M17.969 27.8883L18.0226 27.9342C18.8573 27.0076 19.3704 25.79 19.3704 24.4422C19.3704 21.5628 17.0347 19.2195 14.1476 19.2195V24.2737L17.969 27.8883Z" fill="#827DFE"/>
<path d="M19.0415 24.442C18.919 24.4956 18.7964 24.5416 18.6739 24.5799C18.6127 24.6028 18.5514 24.6411 18.4901 24.6182C18.4289 24.5799 18.3676 24.5569 18.3063 24.4497V24.4114C18.3676 24.3042 18.4289 24.2736 18.4901 24.2429C18.5514 24.2199 18.6127 24.2582 18.6739 24.2812C18.7964 24.3118 18.919 24.3578 19.0415 24.4114V24.442Z" fill="#827DFE"/>
<path d="M17.4716 21.6239L17.8391 21.2563" stroke="#827DFE" stroke-width="0.25" stroke-miterlimit="10" stroke-linecap="round"/>
<path d="M15.71 24.4577C15.71 25.3231 15.0131 26.0199 14.1478 26.0199C13.2824 26.0199 12.5856 25.3231 12.5856 24.4577C12.5856 23.5924 13.2824 22.8955 14.1478 22.8955C15.0131 22.8955 15.71 23.5924 15.71 24.4577Z" fill="#827DFE"/>
<path d="M14.148 25.3994C14.6683 25.3994 15.09 24.9776 15.09 24.4574C15.09 23.9372 14.6683 23.5155 14.148 23.5155C13.6278 23.5155 13.2061 23.9372 13.2061 24.4574C13.2061 24.9776 13.6278 25.3994 14.148 25.3994Z" fill="white"/>
<path d="M23.6134 24.4575C23.6134 24.7256 23.399 24.94 23.1309 24.94C22.8629 24.94 22.6485 24.7256 22.6485 24.4575C22.6485 24.1895 22.8629 23.9751 23.1309 23.9751C23.3913 23.9751 23.6134 24.1895 23.6134 24.4575Z" fill="#827DFE"/>
<path d="M23.4294 22.6503C23.4294 22.9183 23.215 23.1327 22.9469 23.1327C22.6789 23.1327 22.4645 22.9183 22.4645 22.6503C22.4645 22.3823 22.6789 22.1678 22.9469 22.1678C23.2073 22.1678 23.4294 22.3823 23.4294 22.6503Z" fill="#827DFE"/>
<path d="M22.9013 20.9656C22.9013 21.2336 22.6869 21.448 22.4189 21.448C22.1508 21.448 21.9364 21.2336 21.9364 20.9656C21.9364 20.6975 22.1508 20.4831 22.4189 20.4831C22.6869 20.4754 22.9013 20.6975 22.9013 20.9656Z" fill="#827DFE"/>
<path d="M22.0742 19.4414C22.0742 19.7094 21.8598 19.9238 21.5918 19.9238C21.3237 19.9238 21.1093 19.7094 21.1093 19.4414C21.1093 19.1734 21.3237 18.9589 21.5918 18.9589C21.8598 18.9513 22.0742 19.1734 22.0742 19.4414Z" fill="#827DFE"/>
<path d="M20.9791 18.1093C20.9791 18.3773 20.7646 18.5917 20.4966 18.5917C20.2286 18.5917 20.0142 18.3773 20.0142 18.1093C20.0142 17.8413 20.2286 17.6268 20.4966 17.6268C20.7646 17.6268 20.9791 17.8413 20.9791 18.1093Z" fill="#827DFE"/>
<path d="M19.6541 17.0139C19.6541 17.282 19.4397 17.4964 19.1717 17.4964C18.9036 17.4964 18.6892 17.282 18.6892 17.0139C18.6892 16.7459 18.9036 16.5315 19.1717 16.5315C19.4397 16.5315 19.6541 16.7459 19.6541 17.0139Z" fill="#827DFE"/>
<path d="M18.1303 16.187C18.1303 16.4551 17.9159 16.6695 17.6479 16.6695C17.3798 16.6695 17.1654 16.4551 17.1654 16.187C17.1654 15.919 17.3798 15.7046 17.6479 15.7046C17.9082 15.7046 18.1303 15.919 18.1303 16.187Z" fill="#827DFE"/>
<path d="M16.4457 15.6663C16.4457 15.9343 16.2313 16.1487 15.9633 16.1487C15.6953 16.1487 15.4808 15.9343 15.4808 15.6663C15.4808 15.3983 15.6953 15.1838 15.9633 15.1838C16.2313 15.1838 16.4457 15.3983 16.4457 15.6663Z" fill="#827DFE"/>
<path d="M14.6308 15.4825C14.6308 15.7505 14.4164 15.9649 14.1483 15.9649C13.8803 15.9649 13.6659 15.7505 13.6659 15.4825C13.6659 15.2144 13.8803 15 14.1483 15C14.4164 15 14.6308 15.2144 14.6308 15.4825Z" fill="#827DFE"/>
<path d="M41.5175 19.5717H24.2794L24.7619 18.6068H41.9999L41.5175 19.5717Z" fill="#827DFE"/>
<path d="M25.6581 20.9656H27.1131L27.5496 23.2476L28.7672 20.9656H30.2222L29.5483 24.7639H28.3613L28.6906 22.8724L27.7717 24.7639H26.7532L26.5005 22.8571L26.1712 24.7639H24.9842L25.6581 20.9656Z" fill="#827DFE"/>
<path d="M32.6265 24.1896H31.3629L31.0719 24.7639H29.8237L31.8837 20.9656H33.2544L33.9666 24.7639H32.7107L32.6265 24.1896ZM32.3355 22.2368L31.8071 23.2936H32.4963L32.3355 22.2368Z" fill="#827DFE"/>
<path d="M36.1262 23.776L35.368 24.7639H34.0126L35.6054 22.8035L34.6329 20.9656H36.0419L36.5474 21.9152L37.2749 20.9656H38.6303L37.0681 22.8877L38.0636 24.7639H36.6546L36.1262 23.776Z" fill="#827DFE"/>
<path d="M38.9979 20.9656H40.1925L39.5186 24.7639H38.3317L38.9979 20.9656Z" fill="#827DFE"/>
<path d="M23.5981 27.7811H23.0314L23.2305 26.6631H25.0454L24.3715 30.4614H23.1233L23.5981 27.7811Z" fill="white"/>
<path d="M28.4686 26.5408L28.2848 27.5899H26.7302L26.646 28.0417C26.8068 27.9192 27.0366 27.8426 27.3122 27.8426C28.078 27.8426 28.3231 28.4399 28.2082 29.1062C28.0551 29.9715 27.4501 30.4616 26.6077 30.4616C25.6658 30.4616 25.2216 29.9332 25.3595 29.2057H26.5158C26.5005 29.29 26.5235 29.4431 26.7226 29.4431C26.914 29.4431 27.0136 29.29 27.0519 29.0832C27.0902 28.8688 26.9983 28.7692 26.8298 28.7692C26.669 28.7692 26.5847 28.8611 26.5694 28.9454H25.4131L25.8343 26.5408H28.4686Z" fill="white"/>
<path d="M30.6433 26.5942C31.7767 26.5942 32.1137 27.406 31.9146 28.5164C31.7231 29.6268 31.1028 30.4385 29.9694 30.4385C28.8284 30.4385 28.5068 29.6268 28.6982 28.5164C28.8973 27.406 29.51 26.5942 30.6433 26.5942ZM30.4442 27.72C30.0537 27.72 29.9388 28.0952 29.8622 28.5164C29.7857 28.9376 29.7703 29.3128 30.1609 29.3128C30.5438 29.3128 30.6587 28.9376 30.7352 28.5164C30.8195 28.0952 30.8348 27.72 30.4442 27.72Z" fill="white"/>
</svg>
