<svg width="80" height="80" viewBox="0 0 80 80" fill="none" xmlns="http://www.w3.org/2000/svg">
<circle cx="40" cy="40" r="40" fill="url(#paint0_linear_292_12754)"/>
<path fill-rule="evenodd" clip-rule="evenodd" d="M39.9999 30.2334C40.6074 30.2334 41.0999 30.7259 41.0999 31.3334V44.3334C41.0999 44.9409 40.6074 45.4334 39.9999 45.4334C39.3924 45.4334 38.8999 44.9409 38.8999 44.3334V31.3334C38.8999 30.7259 39.3924 30.2334 39.9999 30.2334Z" fill="#F7941D"/>
<path fill-rule="evenodd" clip-rule="evenodd" d="M49.7337 46.7664C49.5864 47.3557 48.9891 47.7141 48.3998 47.5667L39.7331 45.4001C39.1437 45.2527 38.7854 44.6555 38.9327 44.0661C39.0801 43.4768 39.6773 43.1184 40.2667 43.2658L48.9333 45.4324C49.5227 45.5798 49.881 46.177 49.7337 46.7664Z" fill="#F7941D"/>
<path fill-rule="evenodd" clip-rule="evenodd" d="M60.2778 29.9448C59.8483 30.3744 59.1518 30.3744 58.7222 29.9448L54.3889 25.6115C53.9593 25.1819 53.9593 24.4854 54.3889 24.0558C54.8185 23.6263 55.5149 23.6263 55.9445 24.0558L60.2778 28.3892C60.7074 28.8188 60.7074 29.5152 60.2778 29.9448Z" fill="#F7941D"/>
<path fill-rule="evenodd" clip-rule="evenodd" d="M34.5667 18.3336C34.5667 17.7261 35.0591 17.2336 35.6667 17.2336H44.3333C44.9408 17.2336 45.4333 17.7261 45.4333 18.3336C45.4333 18.9411 44.9408 19.4336 44.3333 19.4336H35.6667C35.0591 19.4336 34.5667 18.9411 34.5667 18.3336Z" fill="#208E44"/>
<path fill-rule="evenodd" clip-rule="evenodd" d="M40 59.467C49.5545 59.467 57.3 51.7215 57.3 42.167C57.3 32.6125 49.5545 24.867 40 24.867C30.4455 24.867 22.7 32.6125 22.7 42.167C22.7 51.7215 30.4455 59.467 40 59.467ZM40 61.667C50.7696 61.667 59.5 52.9365 59.5 42.167C59.5 31.3974 50.7696 22.667 40 22.667C29.2304 22.667 20.5 31.3974 20.5 42.167C20.5 52.9365 29.2304 61.667 40 61.667Z" fill="#208E44"/>
<defs>
<linearGradient id="paint0_linear_292_12754" x1="40" y1="0" x2="40" y2="80" gradientUnits="userSpaceOnUse">
<stop stop-color="#E3FAE8"/>
<stop offset="1" stop-color="#E3FAE8" stop-opacity="0"/>
</linearGradient>
</defs>
</svg>
