<svg width="360" height="174" viewBox="0 0 360 174" fill="none" xmlns="http://www.w3.org/2000/svg">
<rect width="360" height="174" fill="white"/>
<circle cx="77" cy="77" r="77" transform="matrix(-1 0 0 1 257 10)" fill="#E9F7EE"/>
<mask id="mask0_124_5194" style="mask-type:alpha" maskUnits="userSpaceOnUse" x="103" y="10" width="154" height="154">
<circle cx="77" cy="77" r="77" transform="matrix(-1 0 0 1 257 10)" fill="#E9F7EE"/>
</mask>
<g mask="url(#mask0_124_5194)">
<path d="M152.159 168.26H208.193C213.054 168.26 217 164.293 217 159.408V38.8513C217 33.9663 213.054 30 208.193 30H152.159C147.298 30 143.352 33.9663 143.352 38.8513V159.408C143.352 164.304 147.298 168.26 152.159 168.26Z" fill="#28AF60"/>
<path d="M164.32 34.9282V36.8086C164.32 38.3541 165.568 39.597 167.095 39.597H193.246C194.784 39.597 196.021 38.3433 196.021 36.8086V34.9282C196.021 34.431 196.429 34.0203 196.924 34.0203H207.741C210.451 34.0203 212.645 36.225 212.645 38.9485V159.311C212.645 162.035 210.451 164.239 207.741 164.239H152.599C149.89 164.239 147.696 162.035 147.696 159.311V38.9485C147.696 36.225 149.89 34.0203 152.599 34.0203H163.417C163.912 34.0203 164.32 34.431 164.32 34.9282Z" fill="white"/>
<path d="M160.073 153.227H198.795C202.526 153.227 205.537 150.487 205.537 147.113C205.537 143.73 202.515 141 198.795 141H160.073C156.341 141 153.331 143.74 153.331 147.113C153.331 150.487 156.352 153.227 160.073 153.227Z" fill="#28AF60"/>
<path fill-rule="evenodd" clip-rule="evenodd" d="M203.784 76.3964H154.965C153.438 76.3964 152.191 75.1536 152.191 73.6081V62.6926C152.191 61.1579 153.427 59.9042 154.965 59.9042H203.784C205.311 59.9042 206.559 61.1471 206.559 62.6926V73.6081C206.559 75.1427 205.311 76.3964 203.784 76.3964Z" fill="#F8BF2A" fill-opacity="0.3"/>
<path d="M200.905 66.1942H168.544C167.934 66.1942 167.449 65.9456 167.449 65.643C167.449 65.3404 167.948 65.0918 168.544 65.0918H200.905C201.515 65.0918 202 65.3404 202 65.643C202 65.9456 201.515 66.1942 200.905 66.1942Z" fill="#268C44"/>
<path d="M200.766 68.6691H168.405C167.795 68.6691 167.31 68.4205 167.31 68.1179C167.31 67.8153 167.809 67.5667 168.405 67.5667H200.766C201.376 67.5667 201.861 67.8153 201.861 68.1179C201.861 68.4205 201.376 68.6691 200.766 68.6691Z" fill="#268C44"/>
<path d="M181.688 71.1439H168.419C167.809 71.1439 167.324 70.8954 167.324 70.5927C167.324 70.2901 167.823 70.0416 168.419 70.0416H181.688C182.298 70.0416 182.783 70.2901 182.783 70.5927C182.783 70.8954 182.298 71.1439 181.688 71.1439Z" fill="#268C44"/>
<path d="M200.627 71.2088H187.358C186.748 71.2088 186.263 70.9602 186.263 70.6576C186.263 70.355 186.762 70.1064 187.358 70.1064H200.627C201.237 70.1064 201.723 70.355 201.723 70.6576C201.736 70.9602 201.237 71.2088 200.627 71.2088Z" fill="#268C44"/>
<path d="M159.45 73.1866C162.104 73.1866 164.256 71.0238 164.256 68.3557C164.256 65.6877 162.104 63.5248 159.45 63.5248C156.795 63.5248 154.643 65.6877 154.643 68.3557C154.643 71.0238 156.795 73.1866 159.45 73.1866Z" fill="#268C44"/>
<path d="M157.289 72.6786C158.977 69.6525 157.912 67.5883 157.912 67.5883C156.643 67.6748 155.665 68.5502 155.665 68.5502C157.267 70.0308 156.665 72.3004 156.665 72.3004C156.665 72.3004 157.117 72.6138 157.289 72.6786Z" fill="#8EE073"/>
<path d="M157.342 72.8299L157.245 72.7975C157.062 72.7327 156.643 72.4409 156.6 72.4084L156.524 72.3544L156.546 72.2679C156.557 72.2463 157.105 70.0524 155.578 68.6366L155.481 68.5502L155.578 68.4637C155.621 68.4313 156.6 67.5559 157.901 67.4694L157.976 67.4586L158.008 67.5343C158.051 67.6207 159.084 69.6958 157.385 72.7435L157.342 72.8299ZM156.804 72.2463C156.922 72.322 157.105 72.4409 157.234 72.5165C158.621 69.9551 157.998 68.0963 157.836 67.7072C156.901 67.8045 156.127 68.3448 155.847 68.5502C157.191 69.9011 156.901 71.8248 156.804 72.2463Z" fill="#268C44"/>
<path d="M160.6 66.3672C159.117 65.9349 157.654 66.5401 157.654 66.5401C158.869 70.6037 157.289 72.6679 157.289 72.6679C157.289 72.6679 158.235 73.1867 159.643 73.1867C159.643 73.1867 161.751 68.1936 160.6 66.3672Z" fill="#8EE073"/>
<path d="M159.729 73.3164H159.643C158.213 73.3164 157.266 72.8084 157.223 72.7868L157.094 72.7219L157.18 72.6031C157.191 72.5815 158.707 70.5388 157.524 66.5833L157.492 66.4752L157.589 66.432C157.653 66.4104 159.116 65.8052 160.621 66.2483L160.664 66.2591L160.686 66.3023C161.858 68.1612 159.826 73.0246 159.74 73.2299L159.729 73.3164ZM157.471 72.6247C157.761 72.7544 158.535 73.0462 159.567 73.0678C159.826 72.441 161.503 68.1396 160.524 66.4752C159.342 66.1402 158.159 66.4968 157.804 66.6265C158.825 70.1282 157.793 72.1275 157.471 72.6247Z" fill="#268C44"/>
<path d="M163.933 66.594C162.6 64.8756 160.353 65.0702 160.353 65.0702C161.568 71.0683 157.847 72.9164 157.847 72.9164C157.847 72.9164 160.094 73.7702 162.03 72.4408C162.03 72.4408 165.288 70.355 163.933 66.594Z" fill="#8EE073"/>
<path d="M159.524 73.3163C158.567 73.3163 157.858 73.0569 157.804 73.0353L157.546 72.938L157.793 72.8083C157.804 72.8083 158.707 72.3436 159.46 71.1656C160.148 70.0849 160.847 68.1395 160.234 65.0918L160.202 64.9621L160.342 64.9513C160.438 64.9405 162.664 64.7676 164.03 66.5184L164.041 66.5292L164.052 66.5508C164.772 68.5394 164.202 70.0633 163.6 70.9927C162.944 71.9978 162.137 72.5165 162.105 72.5382C161.223 73.1434 160.299 73.3163 159.524 73.3163ZM158.148 72.8732C158.783 73.0461 160.481 73.3487 161.965 72.3328C161.976 72.322 162.772 71.8033 163.396 70.8414C164.224 69.5661 164.363 68.1503 163.826 66.6373C162.729 65.2539 160.998 65.1675 160.503 65.1675C161.094 68.226 160.374 70.1821 159.664 71.2845C159.105 72.1707 158.481 72.657 158.148 72.8732Z" fill="#268C44"/>
<path d="M159.449 73.3163C156.729 73.3163 154.514 71.09 154.514 68.3557C154.514 65.6214 156.729 63.3951 159.449 63.3951C162.17 63.3951 164.385 65.6214 164.385 68.3557C164.385 71.09 162.17 73.3163 159.449 73.3163ZM159.449 63.6437C156.868 63.6437 154.761 65.7619 154.761 68.3557C154.761 70.9495 156.868 73.0678 159.449 73.0678C162.03 73.0678 164.138 70.9495 164.138 68.3557C164.138 65.7511 162.041 63.6437 159.449 63.6437Z" fill="#268C44"/>
<path d="M158.557 73.1649L158.417 72.9596C158.729 72.7543 159.062 72.43 159.385 72.0302L159.578 72.1815C159.234 72.6029 158.89 72.938 158.557 73.1649Z" fill="#14684E"/>
<path d="M159.578 72.1815L159.385 72.0302C159.535 71.8356 159.697 71.6303 159.826 71.4142C160.428 70.4739 161.095 68.8312 160.869 66.3563L160.858 66.2374L160.976 66.2158C161.277 66.1725 161.492 65.978 161.546 65.697L161.578 65.5673L161.707 65.6106C162.826 65.9564 163.697 66.594 164.299 67.5127L164.095 67.6532C163.546 66.821 162.75 66.2266 161.75 65.8915C161.654 66.1725 161.428 66.3671 161.127 66.4427C161.331 68.9392 160.654 70.5928 160.041 71.5547C159.901 71.76 159.74 71.9869 159.578 72.1815Z" fill="#268C44"/>
<path d="M161.772 72.3869C161.707 72.3653 161.654 72.3437 161.589 72.3112C160.912 71.9546 160.686 71.0252 161.105 70.2254C161.524 69.4257 162.406 69.069 163.084 69.4256C163.514 69.6526 163.772 70.1065 163.783 70.6469H163.535C163.525 70.193 163.32 69.8147 162.976 69.6418C162.417 69.35 161.675 69.6634 161.331 70.3335C160.987 71.0035 161.159 71.7925 161.718 72.0843C161.761 72.1059 161.815 72.1275 161.858 72.1491L161.772 72.3869Z" fill="#268C44"/>
<path d="M157.815 72.8948L157.6 72.7759C158.191 71.706 158.793 70.1389 158.223 67.4371L158.202 67.329L158.309 67.2966C158.546 67.2317 158.707 67.0048 158.707 66.7562C158.707 66.7454 158.707 66.7454 158.707 66.7346L158.697 66.6049L158.804 66.5941C159.03 66.5617 159.245 66.5508 159.46 66.5508C159.772 66.5508 160.331 66.6373 160.6 66.7021L160.546 66.9399C160.299 66.8859 159.75 66.7994 159.46 66.7994C159.299 66.7994 159.116 66.8102 158.944 66.8318C158.922 67.1236 158.74 67.383 158.471 67.5019C159.03 70.2038 158.417 71.8033 157.815 72.8948Z" fill="#268C44"/>
<path d="M157.18 72.549L156.944 72.4949C157.245 71.0683 157.094 69.9227 156.471 68.9825L156.406 68.8852L156.503 68.8204C156.567 68.7663 156.61 68.7015 156.61 68.615C156.61 68.5718 156.6 68.5286 156.578 68.4853L156.514 68.3773L156.632 68.3124C156.933 68.1503 157.481 67.945 157.998 67.8801L158.03 68.1287C157.589 68.1827 157.137 68.3448 156.847 68.4853C156.858 68.5286 156.868 68.5718 156.868 68.615C156.868 68.7339 156.825 68.8528 156.75 68.9393C157.342 69.9119 157.481 71.1008 157.18 72.549Z" fill="#268C44"/>
<path fill-rule="evenodd" clip-rule="evenodd" d="M203.784 102.626H154.965C153.438 102.626 152.191 101.383 152.191 99.8378V88.9222C152.191 87.3876 153.427 86.1339 154.965 86.1339H203.784C205.311 86.1339 206.559 87.3768 206.559 88.9222V99.8378C206.559 101.372 205.311 102.626 203.784 102.626Z" fill="#F8BF2A" fill-opacity="0.3"/>
<path d="M200.905 92.413H168.544C167.934 92.413 167.449 92.1645 167.449 91.8619C167.449 91.5592 167.948 91.3107 168.544 91.3107H200.905C201.515 91.3107 202 91.5592 202 91.8619C202 92.1753 201.515 92.413 200.905 92.413Z" fill="#268C44"/>
<path d="M200.766 94.888H168.405C167.795 94.888 167.31 94.6394 167.31 94.3368C167.31 94.0342 167.809 93.7856 168.405 93.7856H200.766C201.376 93.7856 201.861 94.0342 201.861 94.3368C201.861 94.6502 201.376 94.888 200.766 94.888Z" fill="#268C44"/>
<path d="M181.688 97.3628H168.419C167.809 97.3628 167.324 97.1143 167.324 96.8117C167.324 96.5091 167.823 96.2605 168.419 96.2605H181.688C182.298 96.2605 182.783 96.5091 182.783 96.8117C182.783 97.1251 182.298 97.3628 181.688 97.3628Z" fill="#268C44"/>
<path d="M200.627 97.4385H187.358C186.748 97.4385 186.263 97.1899 186.263 96.8873C186.263 96.5847 186.762 96.3361 187.358 96.3361H200.627C201.237 96.3361 201.723 96.5847 201.723 96.8873C201.736 97.1899 201.237 97.4385 200.627 97.4385Z" fill="#268C44"/>
<path d="M159.45 99.4163C162.104 99.4163 164.256 97.2534 164.256 94.5854C164.256 91.9173 162.104 89.7545 159.45 89.7545C156.795 89.7545 154.643 91.9173 154.643 94.5854C154.643 97.2534 156.795 99.4163 159.45 99.4163Z" fill="#268C44"/>
<path d="M157.289 98.8976C158.977 95.8715 157.912 93.8073 157.912 93.8073C156.643 93.8937 155.665 94.7691 155.665 94.7691C157.267 96.2497 156.665 98.5193 156.665 98.5193C156.665 98.5193 157.117 98.8435 157.289 98.8976Z" fill="#8EE073"/>
<path d="M157.342 99.0489L157.245 99.0164C157.062 98.9516 156.643 98.6598 156.6 98.6274L156.524 98.5733L156.546 98.4869C156.557 98.4653 157.105 96.2713 155.578 94.8556L155.481 94.7691L155.578 94.6826C155.621 94.6502 156.6 93.7748 157.901 93.6884L157.976 93.6776L158.008 93.7532C158.051 93.8397 159.084 95.9147 157.385 98.9624L157.342 99.0489ZM156.804 98.4761C156.922 98.5517 157.105 98.6706 157.234 98.7462C158.621 96.1849 157.998 94.326 157.836 93.9369C156.901 94.0342 156.127 94.5746 155.847 94.7799C157.191 96.1308 156.901 98.0438 156.804 98.4761Z" fill="#268C44"/>
<path d="M160.6 92.5967C159.117 92.1644 157.654 92.7696 157.654 92.7696C158.869 96.8332 157.289 98.8975 157.289 98.8975C157.289 98.8975 158.235 99.4162 159.643 99.4162C159.643 99.4162 161.751 94.4232 160.6 92.5967Z" fill="#8EE073"/>
<path d="M159.729 99.546H159.643C158.213 99.546 157.266 99.038 157.223 99.0164L157.094 98.9515L157.18 98.8327C157.191 98.811 158.707 96.7684 157.524 92.8129L157.492 92.7048L157.589 92.6616C157.653 92.64 159.116 92.0348 160.621 92.4779L160.664 92.4887L160.686 92.5319C161.858 94.3908 159.826 99.2542 159.74 99.4595L159.729 99.546ZM157.471 98.8543C157.761 98.984 158.535 99.2758 159.567 99.2974C159.826 98.6706 161.503 94.3692 160.524 92.7048C159.342 92.3698 158.159 92.7265 157.804 92.8561C158.825 96.3578 157.793 98.3571 157.471 98.8543Z" fill="#268C44"/>
<path d="M163.933 92.8129C162.6 91.0945 160.353 91.289 160.353 91.289C161.568 97.2872 157.847 99.1353 157.847 99.1353C157.847 99.1353 160.094 99.9891 162.03 98.6597C162.03 98.6705 165.288 96.5847 163.933 92.8129Z" fill="#8EE073"/>
<path d="M159.524 99.546C158.567 99.546 157.858 99.2866 157.804 99.265L157.546 99.1677L157.793 99.038C157.804 99.038 158.707 98.5733 159.46 97.3953C160.148 96.3145 160.847 94.3692 160.234 91.3215L160.202 91.1918L160.342 91.181C160.438 91.1702 162.664 90.9973 164.03 92.7481L164.041 92.7589L164.052 92.7805C164.772 94.7691 164.202 96.2929 163.6 97.2224C162.944 98.2275 162.137 98.7462 162.105 98.7678C161.223 99.3731 160.299 99.546 159.524 99.546ZM158.148 99.1029C158.783 99.2758 160.481 99.5784 161.965 98.5625C161.976 98.5517 162.772 98.0329 163.396 97.0711C164.224 95.7958 164.363 94.38 163.826 92.867C162.729 91.4836 160.998 91.3972 160.503 91.3972C161.094 94.4557 160.374 96.4118 159.664 97.5142C159.105 98.3896 158.481 98.8867 158.148 99.1029Z" fill="#268C44"/>
<path d="M159.449 99.546C156.729 99.546 154.514 97.3197 154.514 94.5854C154.514 91.8511 156.729 89.6248 159.449 89.6248C162.17 89.6248 164.385 91.8511 164.385 94.5854C164.385 97.3197 162.17 99.546 159.449 99.546ZM159.449 89.8733C156.868 89.8733 154.761 91.9916 154.761 94.5854C154.761 97.1792 156.868 99.2974 159.449 99.2974C162.03 99.2974 164.138 97.1792 164.138 94.5854C164.138 91.9808 162.041 89.8733 159.449 89.8733Z" fill="#268C44"/>
<path d="M158.557 99.3947L158.417 99.1893C158.729 98.984 159.062 98.6598 159.385 98.2599L159.578 98.4112C159.234 98.8327 158.89 99.1677 158.557 99.3947Z" fill="#14684E"/>
<path d="M159.578 98.4112L159.385 98.2599C159.535 98.0654 159.697 97.86 159.826 97.6439C160.428 96.7036 161.095 95.0609 160.869 92.586L160.858 92.4671L160.976 92.4455C161.277 92.4023 161.492 92.2077 161.546 91.9267L161.578 91.7971L161.707 91.8403C162.826 92.1861 163.697 92.8238 164.299 93.7424L164.095 93.8829C163.546 93.0507 162.75 92.4563 161.75 92.1213C161.654 92.4023 161.428 92.5968 161.127 92.6725C161.331 95.169 160.654 96.8225 160.041 97.7844C159.901 97.9897 159.74 98.2167 159.578 98.4112Z" fill="#268C44"/>
<path d="M161.772 98.6166C161.707 98.5949 161.654 98.5733 161.589 98.5409C160.912 98.1843 160.686 97.2548 161.105 96.4551C161.524 95.6553 162.406 95.2987 163.084 95.6553C163.514 95.8823 163.772 96.3362 163.783 96.8766H163.535C163.525 96.4226 163.32 96.0444 162.976 95.8715C162.417 95.5797 161.675 95.8931 161.331 96.5631C160.987 97.2332 161.159 98.0221 161.718 98.3139C161.761 98.3356 161.815 98.3572 161.858 98.3788L161.772 98.6166Z" fill="#268C44"/>
<path d="M157.815 99.1245L157.6 99.0056C158.191 97.9357 158.793 96.3686 158.223 93.6667L158.202 93.5587L158.309 93.5262C158.546 93.4614 158.707 93.2344 158.707 92.9859C158.707 92.9751 158.707 92.9751 158.707 92.9642L158.697 92.8346L158.804 92.8237C159.03 92.7913 159.245 92.7805 159.46 92.7805C159.772 92.7805 160.331 92.867 160.6 92.9318L160.546 93.1696C160.299 93.1155 159.75 93.0291 159.46 93.0291C159.299 93.0291 159.116 93.0399 158.944 93.0615C158.922 93.3533 158.74 93.6127 158.471 93.7316C159.03 96.4334 158.417 98.0329 157.815 99.1245Z" fill="#268C44"/>
<path d="M157.18 98.7787L156.944 98.7246C157.245 97.2981 157.094 96.1525 156.471 95.2122L156.406 95.115L156.503 95.0501C156.567 94.9961 156.61 94.9312 156.61 94.8448C156.61 94.8015 156.6 94.7583 156.578 94.7151L156.514 94.607L156.632 94.5422C156.933 94.38 157.481 94.1747 157.998 94.1099L158.03 94.3584C157.589 94.4125 157.137 94.5746 156.847 94.7151C156.858 94.7583 156.868 94.8015 156.868 94.8448C156.868 94.9637 156.825 95.0825 156.75 95.169C157.342 96.1417 157.481 97.3305 157.18 98.7787Z" fill="#268C44"/>
<path fill-rule="evenodd" clip-rule="evenodd" d="M204.58 128.067H155.761C154.234 128.067 152.987 126.824 152.987 125.279V114.363C152.987 112.828 154.223 111.575 155.761 111.575H204.58C206.107 111.575 207.354 112.818 207.354 114.363V125.279C207.354 126.813 206.118 128.067 204.58 128.067Z" fill="#F8BF2A" fill-opacity="0.3"/>
<path d="M201.931 117.854H169.57C168.96 117.854 168.475 117.605 168.475 117.303C168.475 117 168.974 116.751 169.57 116.751H201.931C202.541 116.751 203.026 117 203.026 117.303C203.04 117.616 202.541 117.854 201.931 117.854Z" fill="#268C44"/>
<path d="M201.792 120.329H169.431C168.821 120.329 168.336 120.08 168.336 119.778C168.336 119.475 168.835 119.226 169.431 119.226H201.792C202.402 119.226 202.887 119.475 202.887 119.778C202.901 120.091 202.402 120.329 201.792 120.329Z" fill="#268C44"/>
<path d="M182.714 122.804H169.445C168.835 122.804 168.35 122.555 168.35 122.252C168.35 121.95 168.849 121.701 169.445 121.701H182.714C183.324 121.701 183.809 121.95 183.809 122.252C183.809 122.566 183.324 122.804 182.714 122.804Z" fill="#268C44"/>
<path d="M201.653 122.879H188.384C187.774 122.879 187.289 122.631 187.289 122.328C187.289 122.025 187.788 121.777 188.384 121.777H201.653C202.263 121.777 202.749 122.025 202.749 122.328C202.762 122.631 202.263 122.879 201.653 122.879Z" fill="#268C44"/>
<path d="M160.245 124.857C162.9 124.857 165.052 122.694 165.052 120.026C165.052 117.358 162.9 115.195 160.245 115.195C157.591 115.195 155.439 117.358 155.439 120.026C155.439 122.694 157.591 124.857 160.245 124.857Z" fill="#268C44"/>
<path d="M158.084 124.338C159.773 121.312 158.708 119.248 158.708 119.248C157.439 119.334 156.461 120.21 156.461 120.21C158.063 121.69 157.461 123.96 157.461 123.96C157.461 123.96 157.912 124.284 158.084 124.338Z" fill="#8EE073"/>
<path d="M158.137 124.49L158.04 124.457C157.858 124.392 157.438 124.101 157.395 124.068L157.32 124.014L157.342 123.928C157.352 123.906 157.901 121.712 156.374 120.296L156.277 120.21L156.374 120.123C156.417 120.091 157.395 119.216 158.696 119.129L158.772 119.118L158.804 119.194C158.847 119.28 159.879 121.355 158.18 124.403L158.137 124.49ZM157.6 123.917C157.718 123.992 157.901 124.111 158.03 124.187C159.417 121.626 158.793 119.767 158.632 119.378C157.696 119.475 156.922 120.015 156.643 120.221C157.997 121.572 157.696 123.485 157.6 123.917Z" fill="#268C44"/>
<path d="M161.396 118.038C159.912 117.605 158.45 118.21 158.45 118.21C159.665 122.274 158.084 124.338 158.084 124.338C158.084 124.338 159.03 124.857 160.439 124.857C160.439 124.857 162.547 119.864 161.396 118.038Z" fill="#8EE073"/>
<path d="M160.524 124.987H160.438C159.008 124.987 158.062 124.479 158.019 124.457L157.89 124.392L157.976 124.273C157.987 124.252 159.503 122.209 158.32 118.254L158.288 118.146L158.385 118.102C158.449 118.081 159.911 117.476 161.417 117.919L161.46 117.929L161.481 117.973C162.654 119.832 160.621 124.695 160.535 124.9L160.524 124.987ZM158.266 124.295C158.557 124.425 159.331 124.717 160.363 124.738C160.621 124.111 162.299 119.81 161.32 118.146C160.137 117.811 158.954 118.167 158.6 118.297C159.621 121.798 158.589 123.798 158.266 124.295Z" fill="#268C44"/>
<path d="M164.729 118.254C163.396 116.535 161.148 116.73 161.148 116.73C162.363 122.728 158.643 124.576 158.643 124.576C158.643 124.576 160.89 125.43 162.826 124.1C162.826 124.111 166.084 122.025 164.729 118.254Z" fill="#8EE073"/>
<path d="M160.32 124.987C159.363 124.987 158.653 124.727 158.6 124.706L158.342 124.608L158.589 124.479C158.6 124.479 159.503 124.014 160.256 122.836C160.944 121.755 161.643 119.81 161.03 116.762L160.998 116.633L161.137 116.622C161.234 116.611 163.46 116.438 164.826 118.189L164.836 118.2L164.847 118.221C165.568 120.21 164.998 121.734 164.396 122.663C163.74 123.668 162.933 124.187 162.901 124.209C162.019 124.814 161.094 124.987 160.32 124.987ZM158.944 124.544C159.578 124.717 161.277 125.019 162.761 124.003C162.772 123.992 163.568 123.474 164.191 122.512C165.019 121.237 165.159 119.821 164.621 118.308C163.525 116.924 161.793 116.838 161.299 116.838C161.89 119.896 161.17 121.853 160.46 122.955C159.901 123.83 159.277 124.327 158.944 124.544Z" fill="#268C44"/>
<path d="M160.245 124.987C157.524 124.987 155.309 122.76 155.309 120.026C155.309 117.292 157.524 115.065 160.245 115.065C162.965 115.065 165.181 117.292 165.181 120.026C165.181 122.76 162.965 124.987 160.245 124.987ZM160.245 115.314C157.664 115.314 155.557 117.432 155.557 120.026C155.557 122.62 157.664 124.738 160.245 124.738C162.826 124.738 164.933 122.62 164.933 120.026C164.944 117.422 162.836 115.314 160.245 115.314Z" fill="#268C44"/>
<path d="M159.352 124.835L159.213 124.63C159.524 124.425 159.858 124.1 160.18 123.701L160.374 123.852C160.041 124.273 159.697 124.608 159.352 124.835Z" fill="#14684E"/>
<path d="M160.374 123.852L160.18 123.701C160.331 123.506 160.492 123.301 160.621 123.085C161.223 122.144 161.89 120.502 161.664 118.027L161.654 117.908L161.772 117.886C162.073 117.843 162.288 117.648 162.342 117.367L162.374 117.238L162.503 117.281C163.621 117.627 164.492 118.265 165.095 119.183L164.89 119.324C164.342 118.491 163.546 117.897 162.546 117.562C162.449 117.843 162.224 118.038 161.922 118.113C162.127 120.61 161.449 122.263 160.836 123.225C160.697 123.43 160.535 123.657 160.374 123.852Z" fill="#268C44"/>
<path d="M162.567 124.057C162.503 124.036 162.449 124.014 162.385 123.982C161.707 123.625 161.481 122.696 161.901 121.896C162.309 121.096 163.202 120.739 163.879 121.096C164.31 121.323 164.568 121.777 164.578 122.317H164.331C164.32 121.863 164.116 121.485 163.772 121.312C163.213 121.02 162.471 121.334 162.127 122.004C161.783 122.674 161.955 123.463 162.514 123.755C162.557 123.776 162.611 123.798 162.654 123.82L162.567 124.057Z" fill="#268C44"/>
<path d="M158.61 124.565L158.395 124.446C158.987 123.376 159.589 121.809 159.019 119.107L158.998 118.999L159.105 118.967C159.342 118.902 159.503 118.675 159.503 118.427C159.503 118.416 159.503 118.416 159.503 118.405L159.492 118.275L159.6 118.264C159.826 118.232 160.041 118.221 160.256 118.221C160.568 118.221 161.127 118.308 161.396 118.373L161.342 118.61C161.094 118.556 160.546 118.47 160.256 118.47C160.094 118.47 159.912 118.481 159.74 118.502C159.718 118.794 159.535 119.053 159.266 119.172C159.826 121.874 159.213 123.474 158.61 124.565Z" fill="#268C44"/>
<path d="M157.976 124.219L157.739 124.165C158.041 122.739 157.89 121.593 157.266 120.653L157.202 120.556L157.299 120.491C157.363 120.437 157.406 120.372 157.406 120.286C157.406 120.242 157.395 120.199 157.374 120.156L157.309 120.048L157.428 119.983C157.729 119.821 158.277 119.615 158.793 119.551L158.825 119.799C158.385 119.853 157.933 120.015 157.643 120.156C157.653 120.199 157.664 120.242 157.664 120.286C157.664 120.404 157.621 120.523 157.546 120.61C158.137 121.582 158.288 122.771 157.976 124.219Z" fill="#268C44"/>
</g>
<path d="M248.638 51.4159L245.499 41L242.358 51.4159L232 54.5032L242.358 57.5841L245.499 68L248.638 57.5841L259 54.5032L248.638 51.4159Z" fill="#277F3E" fill-opacity="0.8"/>
<path d="M255.093 77.559L252.999 71L250.907 77.559L244 79.5019L250.907 81.4419L252.999 88L255.093 81.4419L262 79.5019L255.093 77.559Z" fill="#277F3E" fill-opacity="0.8"/>
<path d="M273.546 38.4718L272.498 35L271.454 38.4718L268 39.5003L271.454 40.5282L272.498 44L273.546 40.5282L277 39.5003L273.546 38.4718Z" fill="#277F3E" fill-opacity="0.8"/>
<path d="M130.079 132.441C131.697 126.598 128.273 120.549 122.433 118.93C116.592 117.312 110.546 120.737 108.929 126.581C107.311 132.424 110.735 138.473 116.575 140.092C122.416 141.71 128.461 138.285 130.079 132.441Z" fill="#F8BF2A"/>
<path d="M110.578 125.341C110.542 125.341 110.503 125.332 110.467 125.314C110.347 125.254 110.299 125.107 110.359 124.984C112.137 121.463 115.687 119.276 119.626 119.276C120.256 119.276 120.886 119.333 121.497 119.444C121.629 119.468 121.719 119.597 121.695 119.729C121.671 119.861 121.545 119.951 121.41 119.927C120.826 119.819 120.226 119.765 119.626 119.765C115.873 119.765 112.488 121.85 110.797 125.206C110.752 125.293 110.668 125.341 110.578 125.341Z" fill="#F9E27D"/>
<path d="M120.417 138.759C125.522 138.254 129.25 133.704 128.745 128.596C128.24 123.489 123.692 119.758 118.587 120.264C113.482 120.769 109.754 125.32 110.259 130.427C110.764 135.534 115.312 139.265 120.417 138.759Z" fill="#F6921E"/>
<path d="M113.978 132.718V125.704H116.551C117.111 125.704 117.573 125.8 117.939 125.989C118.301 126.178 118.574 126.436 118.754 126.76C118.934 127.084 119.024 127.444 119.024 127.837C119.024 128.263 118.913 128.656 118.688 129.01C118.463 129.364 118.116 129.622 117.642 129.781L119.093 132.718H117.621L116.32 129.952H115.258V132.718H113.978ZM115.261 129.01H116.473C116.898 129.01 117.213 128.905 117.414 128.698C117.615 128.491 117.714 128.218 117.714 127.876C117.714 127.543 117.615 127.276 117.417 127.075C117.219 126.874 116.901 126.775 116.461 126.775H115.258V129.01H115.261Z" fill="white"/>
<path d="M120.187 134.92V127.747H121.329L121.47 128.458C121.629 128.239 121.842 128.044 122.106 127.876C122.37 127.708 122.712 127.624 123.131 127.624C123.599 127.624 124.016 127.738 124.382 127.966C124.747 128.194 125.038 128.503 125.254 128.899C125.467 129.292 125.575 129.742 125.575 130.24C125.575 130.741 125.467 131.188 125.254 131.578C125.041 131.968 124.75 132.277 124.382 132.499C124.016 132.724 123.596 132.835 123.131 132.835C122.757 132.835 122.43 132.766 122.151 132.625C121.872 132.484 121.644 132.289 121.47 132.034V134.92H120.187ZM122.859 131.716C123.266 131.716 123.602 131.578 123.869 131.305C124.136 131.032 124.271 130.678 124.271 130.243C124.271 129.808 124.139 129.451 123.869 129.172C123.602 128.893 123.263 128.752 122.859 128.752C122.445 128.752 122.106 128.89 121.842 129.169C121.578 129.445 121.446 129.802 121.446 130.237C121.446 130.672 121.578 131.026 121.842 131.305C122.106 131.578 122.445 131.716 122.859 131.716Z" fill="white"/>
<path d="M141.811 119.699C142.47 117.318 141.075 114.853 138.695 114.194C136.316 113.535 133.852 114.93 133.193 117.311C132.534 119.692 133.929 122.157 136.309 122.816C138.688 123.475 141.152 122.08 141.811 119.699Z" fill="#F8BF2A"/>
<path d="M133.865 116.806C133.851 116.806 133.835 116.802 133.82 116.795C133.771 116.771 133.752 116.711 133.776 116.661C134.5 115.226 135.947 114.335 137.552 114.335C137.809 114.335 138.065 114.358 138.314 114.403C138.368 114.413 138.405 114.465 138.395 114.519C138.385 114.573 138.334 114.61 138.279 114.6C138.041 114.556 137.796 114.534 137.552 114.534C136.023 114.534 134.643 115.383 133.954 116.751C133.936 116.787 133.902 116.806 133.865 116.806Z" fill="#F9E27D"/>
<path d="M137.874 122.273C139.954 122.067 141.473 120.213 141.267 118.132C141.061 116.051 139.208 114.531 137.128 114.737C135.049 114.943 133.529 116.797 133.735 118.878C133.941 120.959 135.794 122.479 137.874 122.273Z" fill="#F6921E"/>
<path d="M135.251 119.812V116.954H136.299C136.527 116.954 136.715 116.993 136.864 117.07C137.012 117.147 137.123 117.252 137.197 117.384C137.27 117.516 137.307 117.663 137.307 117.823C137.307 117.997 137.261 118.157 137.17 118.301C137.078 118.445 136.936 118.55 136.743 118.615L137.335 119.812H136.735L136.205 118.685H135.772V119.812H135.251ZM135.773 118.301H136.267C136.44 118.301 136.569 118.258 136.651 118.174C136.732 118.089 136.773 117.978 136.773 117.839C136.773 117.703 136.732 117.594 136.652 117.513C136.571 117.431 136.442 117.39 136.262 117.39H135.772V118.301H135.773Z" fill="white"/>
<path d="M137.781 120.709V117.786H138.246L138.303 118.076C138.368 117.987 138.455 117.907 138.562 117.839C138.67 117.77 138.809 117.736 138.98 117.736C139.171 117.736 139.341 117.783 139.49 117.876C139.639 117.968 139.757 118.094 139.845 118.256C139.932 118.416 139.976 118.599 139.976 118.802C139.976 119.006 139.932 119.188 139.845 119.347C139.758 119.506 139.64 119.632 139.49 119.722C139.341 119.814 139.17 119.859 138.98 119.859C138.828 119.859 138.694 119.831 138.581 119.774C138.467 119.716 138.374 119.637 138.303 119.533V120.709H137.781ZM138.869 119.403C139.035 119.403 139.172 119.347 139.281 119.236C139.389 119.125 139.444 118.98 139.444 118.803C139.444 118.626 139.391 118.481 139.281 118.367C139.172 118.253 139.034 118.196 138.869 118.196C138.7 118.196 138.562 118.252 138.455 118.366C138.347 118.478 138.294 118.624 138.294 118.801C138.294 118.978 138.347 119.122 138.455 119.236C138.562 119.347 138.7 119.403 138.869 119.403Z" fill="white"/>
<path d="M280.614 68.3927C281.932 63.6327 279.143 58.7052 274.386 57.3869C269.628 56.0686 264.703 58.8587 263.386 63.6187C262.068 68.3787 264.857 73.3061 269.614 74.6244C274.372 75.9427 279.297 73.1527 280.614 68.3927Z" fill="#F8BF2A"/>
<path d="M264.729 62.6091C264.699 62.6091 264.668 62.6017 264.638 62.5871C264.541 62.5382 264.502 62.4185 264.55 62.3183C265.999 59.4496 268.89 57.6682 272.1 57.6682C272.612 57.6682 273.125 57.7146 273.623 57.8051C273.731 57.8246 273.804 57.9297 273.785 58.0372C273.765 58.1447 273.663 58.218 273.553 58.1985C273.076 58.1105 272.588 58.0665 272.1 58.0665C269.042 58.0665 266.284 59.7648 264.907 62.4991C264.87 62.57 264.802 62.6091 264.729 62.6091Z" fill="#F9E27D"/>
<path d="M272.744 73.5391C276.902 73.1273 279.939 69.4208 279.528 65.2604C279.116 61.1 275.411 58.0612 271.253 58.473C267.095 58.8848 264.058 62.5913 264.469 66.7517C264.881 70.9121 268.585 73.9509 272.744 73.5391Z" fill="#F6921E"/>
<path d="M267.499 68.6178V62.9048H269.594C270.051 62.9048 270.427 62.983 270.725 63.1369C271.02 63.2909 271.243 63.501 271.389 63.7649C271.536 64.0288 271.609 64.322 271.609 64.6421C271.609 64.9891 271.518 65.3092 271.335 65.5976C271.152 65.8859 270.869 66.0961 270.483 66.2256L271.665 68.6178H270.466L269.406 66.3649H268.541V68.6178H267.499ZM268.544 65.5976H269.53C269.877 65.5976 270.134 65.5121 270.297 65.3434C270.461 65.1748 270.542 64.9525 270.542 64.6739C270.542 64.4027 270.461 64.1852 270.3 64.0215C270.139 63.8578 269.88 63.7771 269.521 63.7771H268.541V65.5976H268.544Z" fill="white"/>
<path d="M272.557 70.4113V64.5688H273.487L273.602 65.1479C273.731 64.9696 273.905 64.8107 274.12 64.6739C274.335 64.5371 274.613 64.4686 274.955 64.4686C275.336 64.4686 275.675 64.5615 275.973 64.7472C276.271 64.9329 276.508 65.1846 276.684 65.5071C276.857 65.8272 276.945 66.1938 276.945 66.5994C276.945 67.0075 276.857 67.3716 276.684 67.6892C276.511 68.0069 276.274 68.2586 275.973 68.4394C275.675 68.6227 275.333 68.7131 274.955 68.7131C274.65 68.7131 274.383 68.6569 274.156 68.542C273.929 68.4272 273.744 68.2684 273.602 68.0607V70.4113H272.557ZM274.733 67.8016C275.065 67.8016 275.338 67.6892 275.556 67.4669C275.773 67.2445 275.883 66.9562 275.883 66.6019C275.883 66.2475 275.776 65.9568 275.556 65.7295C275.338 65.5023 275.062 65.3874 274.733 65.3874C274.396 65.3874 274.12 65.4998 273.905 65.7271C273.69 65.9519 273.582 66.2426 273.582 66.597C273.582 66.9513 273.69 67.2396 273.905 67.4669C274.12 67.6892 274.396 67.8016 274.733 67.8016Z" fill="white"/>
<path d="M262.921 116.209C260.81 116.193 258.706 116.464 256.668 117.015V109.674C256.668 106.606 251.226 105 245.848 105C240.47 105 235.029 106.601 235.029 109.674V124.079C233.644 123.85 232.243 123.736 230.84 123.737C225.462 123.737 220.02 125.338 220.02 128.416V149.944C220.02 153.017 225.462 154.623 230.84 154.623C236.218 154.623 241.66 153.023 241.66 149.944V148.434C243.044 148.665 244.445 148.779 245.848 148.776C247.967 148.796 250.079 148.523 252.123 147.965V151.011C252.123 154.079 257.565 155.69 262.942 155.69C268.32 155.69 273.741 154.058 273.741 151.011V120.883C273.741 117.815 268.299 116.209 262.921 116.209Z" fill="#FCD647"/>
<path d="M245.829 148.757C244.017 148.766 242.209 148.572 240.44 148.181L240.883 146.276C242.507 146.638 244.165 146.817 245.829 146.81C248.162 146.848 250.483 146.463 252.679 145.674L253.41 147.482C250.984 148.373 248.413 148.806 245.829 148.757Z" fill="#F7941D"/>
<path d="M245.829 144.459C244.017 144.467 242.209 144.274 240.44 143.882L240.883 141.978C242.507 142.339 244.165 142.518 245.829 142.511C248.172 142.56 250.505 142.179 252.711 141.385L253.453 143.194C251.013 144.088 248.427 144.517 245.829 144.459Z" fill="#F7941D"/>
<path d="M245.829 140.157C244.017 140.166 242.209 139.973 240.44 139.581L240.883 137.677C242.507 138.037 244.165 138.216 245.829 138.21C248.172 138.259 250.505 137.877 252.711 137.084L253.453 138.893C251.013 139.787 248.427 140.216 245.829 140.157Z" fill="#F7941D"/>
<path d="M245.829 135.851C244.017 135.861 242.21 135.67 240.44 135.28L240.883 133.376C242.507 133.737 244.165 133.915 245.829 133.909C248.172 133.958 250.505 133.577 252.711 132.783L253.453 134.592C251.012 135.484 248.426 135.911 245.829 135.851Z" fill="#F7941D"/>
<path d="M236.966 122.579H235.008V125.279H236.966V122.579Z" fill="#F7941D"/>
<path d="M245.829 131.553C244.017 131.564 242.209 131.371 240.44 130.977L240.883 129.072C242.506 129.436 244.165 129.615 245.829 129.606C248.172 129.655 250.505 129.273 252.711 128.48L253.453 130.289C251.013 131.182 248.427 131.611 245.829 131.553Z" fill="#F7941D"/>
<path d="M245.828 127.252C240.45 127.252 235.008 125.652 235.008 122.579V118.273H236.966V122.579C236.966 123.646 240.498 125.3 245.828 125.3C248.172 125.349 250.505 124.967 252.711 124.174L253.452 125.982C251.012 126.878 248.426 127.309 245.828 127.252Z" fill="#F7941D"/>
<path d="M245.828 122.951C240.45 122.951 235.008 121.351 235.008 118.272V113.972H236.966V118.272C236.966 119.339 240.498 120.999 245.828 120.999C248.172 121.048 250.505 120.666 252.711 119.873L253.468 121.666C251.024 122.566 248.433 123.002 245.828 122.951Z" fill="#F7941D"/>
<path d="M256.648 113.972H254.69V118.272H256.648V113.972Z" fill="#F7941D"/>
<path d="M245.828 118.65C240.45 118.65 235.008 117.05 235.008 113.971V109.671H236.966V113.971C236.966 115.038 240.498 116.698 245.828 116.698C251.158 116.698 254.69 115.06 254.69 113.971V109.671H256.669V113.971C256.669 117.044 251.206 118.65 245.828 118.65Z" fill="#F7941D"/>
<path d="M245.828 114.353C240.45 114.353 235.008 112.752 235.008 109.674C235.008 106.595 240.45 105 245.828 105C251.206 105 256.648 106.601 256.648 109.674C256.648 112.747 251.206 114.353 245.828 114.353ZM245.828 106.953C240.493 106.953 236.966 108.591 236.966 109.674C236.966 110.757 240.498 112.395 245.828 112.395C251.158 112.395 254.69 110.757 254.69 109.674C254.69 108.591 251.158 106.953 245.828 106.953Z" fill="#F7941D"/>
<path d="M230.82 154.606C225.442 154.606 220 153.005 220 149.927V145.627H221.958V149.943C221.958 151.01 225.49 152.669 230.82 152.669C236.15 152.669 239.682 151.01 239.682 149.943V145.643H241.64V149.943C241.64 153 236.198 154.606 230.82 154.606Z" fill="#F7941D"/>
<path d="M230.82 150.305C225.442 150.305 220 148.704 220 145.626V141.326H221.958V145.626C221.958 146.693 225.49 148.347 230.82 148.347C236.15 148.347 239.682 146.714 239.682 145.626V141.326H241.64V145.626C241.64 148.699 236.198 150.305 230.82 150.305Z" fill="#F7941D"/>
<path d="M230.82 146.004C225.442 146.004 220 144.403 220 141.325V137.024H221.958V141.325C221.958 142.392 225.49 144.046 230.82 144.046C236.15 144.046 239.682 142.408 239.682 141.325V137.024H241.64V141.325C241.64 144.398 236.198 146.004 230.82 146.004Z" fill="#F7941D"/>
<path d="M230.82 141.705C225.442 141.705 220 140.105 220 137.026V132.726H221.958V137.026C221.958 138.093 225.49 139.747 230.82 139.747C236.15 139.747 239.682 138.109 239.682 137.026V132.726H241.64V137.026C241.64 140.099 236.198 141.705 230.82 141.705Z" fill="#F7941D"/>
<path d="M230.82 137.404C225.442 137.404 220 135.804 220 132.725V128.425H221.958V132.725C221.958 133.792 225.49 135.446 230.82 135.446C236.15 135.446 239.682 133.808 239.682 132.725V128.425H241.64V132.725C241.64 135.798 236.198 137.404 230.82 137.404Z" fill="#F7941D"/>
<path d="M230.82 133.104C225.442 133.104 220 131.504 220 128.425C220 125.347 225.442 123.746 230.82 123.746C236.198 123.746 241.64 125.347 241.64 128.425C241.64 131.504 236.198 133.104 230.82 133.104ZM230.82 125.704C225.485 125.704 221.958 127.342 221.958 128.425C221.958 129.508 225.49 131.146 230.82 131.146C236.15 131.146 239.682 129.508 239.682 128.425C239.682 127.342 236.15 125.704 230.82 125.704Z" fill="#F7941D"/>
<path d="M262.92 155.669C257.542 155.669 252.1 154.068 252.1 150.99V146.689H254.058V151.011C254.058 152.078 257.59 153.732 262.92 153.732C268.25 153.732 271.782 152.094 271.782 151.011V146.689H273.74V151.011C273.74 154.057 268.298 155.669 262.92 155.669Z" fill="#F7941D"/>
<path d="M262.92 151.368C257.542 151.368 252.1 149.767 252.1 146.689V142.388H254.058V146.689C254.058 147.756 257.59 149.41 262.92 149.41C268.25 149.41 271.782 147.772 271.782 146.689V142.388H273.74V146.689C273.74 149.756 268.298 151.368 262.92 151.368Z" fill="#F7941D"/>
<path d="M262.92 147.061C257.542 147.061 252.1 145.461 252.1 142.388V138.087H254.058V142.388C254.058 143.455 257.59 145.109 262.92 145.109C268.25 145.109 271.782 143.471 271.782 142.388V138.087H273.74V142.388C273.74 145.455 268.298 147.061 262.92 147.061Z" fill="#F7941D"/>
<path d="M262.92 142.763C257.542 142.763 252.1 141.163 252.1 138.089V133.784H254.058V138.089C254.058 139.156 257.59 140.81 262.92 140.81C268.25 140.81 271.782 139.172 271.782 138.089V133.784H273.74V138.089C273.74 141.157 268.298 142.763 262.92 142.763Z" fill="#F7941D"/>
<path d="M262.92 138.462C257.542 138.462 252.1 136.861 252.1 133.783V129.483H254.058V133.783C254.058 134.85 257.59 136.509 262.92 136.509C268.25 136.509 271.782 134.871 271.782 133.783V129.483H273.74V133.783C273.74 136.856 268.298 138.462 262.92 138.462Z" fill="#F7941D"/>
<path d="M262.92 134.161C257.542 134.161 252.1 132.56 252.1 129.482V125.182H254.058V129.482C254.058 130.549 257.59 132.208 262.92 132.208C268.25 132.208 271.782 130.57 271.782 129.482V125.182H273.74V129.482C273.74 132.555 268.298 134.161 262.92 134.161Z" fill="#F7941D"/>
<path d="M262.92 129.862C257.542 129.862 252.1 128.262 252.1 125.183V120.883H254.058V125.183C254.058 126.25 257.59 127.91 262.92 127.91C268.25 127.91 271.782 126.266 271.782 125.183V120.883H273.74V125.183C273.74 128.257 268.298 129.862 262.92 129.862Z" fill="#F7941D"/>
<path d="M262.92 125.563C257.542 125.563 252.1 123.962 252.1 120.883C252.1 117.805 257.542 116.204 262.92 116.204C268.298 116.204 273.74 117.805 273.74 120.883C273.74 123.962 268.298 125.563 262.92 125.563ZM262.92 118.163C257.585 118.163 254.058 119.8 254.058 120.883C254.058 121.967 257.59 123.604 262.92 123.604C268.25 123.604 271.782 121.967 271.782 120.883C271.782 119.8 268.25 118.163 262.92 118.163Z" fill="#F7941D"/>
<path d="M237.012 146.003C239.767 136.05 233.936 125.748 223.988 122.991C214.041 120.235 203.743 126.068 200.988 136.021C198.233 145.974 204.064 156.277 214.012 159.033C223.959 161.79 234.257 155.956 237.012 146.003Z" fill="#F8BF2A"/>
<path d="M203.797 133.91C203.736 133.91 203.669 133.895 203.608 133.864C203.404 133.762 203.322 133.512 203.424 133.302C206.453 127.304 212.499 123.579 219.209 123.579C220.281 123.579 221.354 123.677 222.395 123.866C222.62 123.906 222.773 124.126 222.732 124.351C222.691 124.576 222.477 124.729 222.247 124.688C221.251 124.504 220.23 124.412 219.209 124.412C212.815 124.412 207.05 127.963 204.17 133.68C204.093 133.829 203.95 133.91 203.797 133.91Z" fill="#F9E27D"/>
<path d="M220.555 156.764C229.249 155.903 235.6 148.153 234.739 139.454C233.879 130.755 226.133 124.401 217.438 125.262C208.744 126.123 202.393 133.873 203.254 142.572C204.114 151.271 211.86 157.625 220.555 156.764Z" fill="#F6921E"/>
<path d="M209.588 146.474V134.529H213.97C214.925 134.529 215.711 134.692 216.334 135.014C216.952 135.336 217.417 135.775 217.723 136.327C218.03 136.879 218.183 137.492 218.183 138.161C218.183 138.887 217.994 139.556 217.611 140.159C217.228 140.762 216.635 141.201 215.829 141.472L218.3 146.474H215.793L213.577 141.763H211.769V146.474H209.588ZM211.774 140.159H213.837C214.562 140.159 215.098 139.98 215.44 139.628C215.783 139.275 215.951 138.81 215.951 138.228C215.951 137.66 215.783 137.206 215.446 136.863C215.109 136.521 214.567 136.353 213.817 136.353H211.769V140.159H211.774Z" fill="white"/>
<path d="M220.164 150.224V138.008H222.109L222.349 139.219C222.62 138.846 222.983 138.514 223.432 138.228C223.881 137.941 224.464 137.798 225.178 137.798C225.975 137.798 226.685 137.992 227.308 138.381C227.931 138.769 228.426 139.295 228.794 139.97C229.156 140.639 229.34 141.405 229.34 142.254C229.34 143.107 229.156 143.868 228.794 144.532C228.431 145.197 227.936 145.723 227.308 146.101C226.685 146.484 225.97 146.673 225.178 146.673C224.54 146.673 223.984 146.556 223.509 146.315C223.034 146.075 222.646 145.743 222.349 145.309V150.224H220.164ZM224.714 144.767C225.408 144.767 225.98 144.532 226.435 144.067C226.889 143.602 227.119 143 227.119 142.259C227.119 141.518 226.894 140.91 226.435 140.435C225.98 139.96 225.403 139.719 224.714 139.719C224.009 139.719 223.432 139.954 222.983 140.43C222.533 140.9 222.309 141.508 222.309 142.248C222.309 142.989 222.533 143.592 222.983 144.067C223.432 144.532 224.009 144.767 224.714 144.767Z" fill="white"/>
<path d="M124.639 86.4801H133.725C133.725 98.186 124.23 107.681 112.524 107.681H103.438C103.438 95.9751 112.918 86.4801 124.639 86.4801Z" fill="#27AE60"/>
<path d="M82.2219 95.5662H73.1358C73.1358 107.272 82.6308 116.767 94.3367 116.767H103.423C103.423 105.061 93.943 95.5662 82.2219 95.5662Z" fill="#27AE60"/>
<path d="M132.195 65.3096C130.523 65.3096 129.167 63.9537 129.167 62.281C129.167 60.6083 130.523 59.2523 132.195 59.2523C133.868 59.2523 135.224 60.6083 135.224 62.281C135.224 63.9537 133.868 65.3096 132.195 65.3096Z" fill="white"/>
<path d="M83.7363 88.0248C82.0636 88.0248 80.7077 86.6688 80.7077 84.9961C80.7077 83.3234 82.0636 81.9674 83.7363 81.9674C85.4091 81.9674 86.765 83.3234 86.765 84.9961C86.765 86.6688 85.4091 88.0248 83.7363 88.0248Z" fill="white"/>
<path d="M91.3082 130.426C89.6355 130.426 88.2795 129.07 88.2795 127.398C88.2795 125.725 89.6355 124.369 91.3082 124.369C92.9809 124.369 94.3369 125.725 94.3369 127.398C94.3369 129.07 92.9809 130.426 91.3082 130.426Z" fill="white"/>
<path d="M79.1934 139.513C77.5207 139.513 76.1647 138.157 76.1647 136.484C76.1647 134.811 77.5207 133.455 79.1934 133.455C80.8661 133.455 82.2221 134.811 82.2221 136.484C82.2221 138.157 80.8661 139.513 79.1934 139.513Z" fill="white"/>
<path d="M150.368 59.2522C148.695 59.2522 147.339 57.8962 147.339 56.2235C147.339 54.5508 148.695 53.1948 150.368 53.1948C152.04 53.1948 153.396 54.5508 153.396 56.2235C153.396 57.8962 152.04 59.2522 150.368 59.2522Z" fill="white"/>
<path d="M156.425 141.027C154.752 141.027 153.396 139.671 153.396 137.998C153.396 136.326 154.752 134.97 156.425 134.97C158.098 134.97 159.454 136.326 159.454 137.998C159.454 139.671 158.098 141.027 156.425 141.027Z" fill="white"/>
<path d="M103.423 148.19C104.044 148.19 104.559 147.675 104.559 147.054V83.4514C104.559 82.8306 104.044 82.3157 103.423 82.3157C102.802 82.3157 102.287 82.8306 102.287 83.4514V147.054C102.287 147.69 102.787 148.19 103.423 148.19Z" fill="#268C44"/>
<path d="M103.438 108.817H112.524C124.835 108.817 134.86 98.7918 134.86 86.4801C134.86 85.8592 134.346 85.3444 133.725 85.3444H124.639C112.327 85.3444 102.302 95.3693 102.302 107.681C102.302 108.302 102.802 108.817 103.438 108.817ZM132.543 87.6159C131.953 98.1557 123.2 106.545 112.509 106.545H104.589C105.179 96.0054 113.932 87.6159 124.623 87.6159H132.543Z" fill="#268C44"/>
<path d="M103.439 108.817C103.757 108.817 104.09 108.681 104.317 108.408C104.393 108.317 111.858 99.4734 123.413 92.6437C123.958 92.3256 124.125 91.629 123.807 91.0839C123.489 90.5387 122.792 90.3721 122.247 90.6901C110.329 97.7319 102.878 106.576 102.56 106.954C102.152 107.439 102.227 108.151 102.697 108.544C102.924 108.726 103.181 108.817 103.439 108.817Z" fill="#268C44"/>
<path d="M94.3367 117.903H103.423C104.044 117.903 104.559 117.388 104.559 116.767C104.559 104.455 94.5336 94.4304 82.2219 94.4304H73.1358C72.5149 94.4304 72.0001 94.9453 72.0001 95.5662C72.0001 107.878 82.025 117.903 94.3367 117.903ZM102.257 115.631H94.3367C83.6605 115.631 74.8925 107.242 74.3019 96.7019H82.2219C92.9132 96.7019 101.666 105.091 102.257 115.631Z" fill="#268C44"/>
<path d="M103.423 117.903C103.68 117.903 103.938 117.812 104.15 117.645C104.635 117.237 104.695 116.525 104.286 116.04C103.968 115.662 96.5176 106.818 84.6148 99.7761C84.0697 99.4581 83.3731 99.6398 83.0551 100.17C82.7371 100.715 82.9188 101.412 83.4488 101.73C95.0033 108.559 102.469 117.403 102.545 117.494C102.787 117.767 103.105 117.903 103.423 117.903Z" fill="#268C44"/>
<path d="M103.364 81.1193C111.242 81.1193 117.629 74.7326 117.629 66.8541C117.629 58.9757 111.242 52.589 103.364 52.589C95.4851 52.589 89.0984 58.9757 89.0984 66.8541C89.0984 74.7326 95.4851 81.1193 103.364 81.1193Z" fill="#F7941D"/>
<path d="M103.363 51.0291C94.6399 51.0291 87.5376 58.1314 87.5376 66.8541C87.5376 75.5767 94.6399 82.679 103.363 82.679C112.085 82.679 119.187 75.5767 119.187 66.8541C119.187 58.1314 112.1 51.0291 103.363 51.0291ZM103.363 79.1657C96.5783 79.1657 91.0509 73.6383 91.0509 66.8541C91.0509 60.0698 96.5783 54.5424 103.363 54.5424C110.147 54.5424 115.674 60.0698 115.674 66.8541C115.674 73.6383 110.147 79.1657 103.363 79.1657Z" fill="#FCD647"/>
<path d="M99.6528 61.7658C101.955 61.7658 103.136 63.0833 103.136 64.7642C103.136 65.9606 102.469 66.9903 101.152 67.4143L103.136 70.9125H99.986L98.2596 67.6263H98.2445V70.9125H95.3672V61.7658H99.6528ZM99.3954 64.1736H98.2596V65.7183H99.3954C99.9405 65.7183 100.228 65.4911 100.228 64.9459C100.213 64.4916 99.9405 64.1736 99.3954 64.1736Z" fill="white"/>
<path d="M108.922 63.5378C110.603 63.5378 111.935 64.9158 111.935 67.2782C111.935 69.6255 110.603 71.0187 108.922 71.0187C107.953 71.0187 107.271 70.5946 106.923 69.9283V74.4108H104.046V63.6286H106.923V64.6281C107.271 63.9769 107.953 63.5378 108.922 63.5378ZM107.968 66.0516C107.377 66.0516 106.908 66.4756 106.908 67.2782C106.908 68.0808 107.377 68.5048 107.968 68.5048C108.558 68.5048 109.028 68.0808 109.028 67.2782C109.028 66.4756 108.558 66.0516 107.968 66.0516Z" fill="white"/>
<path d="M103.364 53.8459C96.1705 53.8459 90.3554 59.6761 90.3554 66.8541C90.3554 74.0473 96.1857 79.8624 103.364 79.8624C110.557 79.8624 116.372 74.0321 116.372 66.8541C116.387 59.6761 110.557 53.8459 103.364 53.8459ZM103.364 79.1204C96.5946 79.1204 91.0975 73.6233 91.0975 66.8541C91.0975 60.085 96.5946 54.5879 103.364 54.5879C110.133 54.5879 115.63 60.085 115.63 66.8541C115.63 73.6384 110.148 79.1204 103.364 79.1204Z" fill="#C97120"/>
<path d="M97.3653 148.19H120.08C120.701 148.19 121.216 147.675 121.216 147.054C121.216 146.433 120.701 145.918 120.08 145.918H97.3653C96.7444 145.918 96.2295 146.433 96.2295 147.054C96.2295 147.69 96.7292 148.19 97.3653 148.19Z" fill="#268C44"/>
<path d="M86.765 148.19H91.308C91.9289 148.19 92.4438 147.675 92.4438 147.054C92.4438 146.433 91.9289 145.918 91.308 145.918H86.765C86.1441 145.918 85.6292 146.433 85.6292 147.054C85.6292 147.69 86.1289 148.19 86.765 148.19Z" fill="#268C44"/>
<path d="M103.423 84.5872C113.236 84.5872 121.216 76.6066 121.216 66.7936C121.216 56.9806 113.236 49 103.423 49C93.6097 49 85.6291 56.9806 85.6291 66.7936C85.6291 76.6066 93.6097 84.5872 103.423 84.5872ZM103.423 51.2715C111.979 51.2715 118.945 58.2375 118.945 66.7936C118.945 75.3497 111.979 82.3157 103.423 82.3157C94.8666 82.3157 87.9006 75.3497 87.9006 66.7936C87.9006 58.2375 94.8666 51.2715 103.423 51.2715Z" fill="#F7941D"/>
<path d="M83.7363 89.1606C86.0381 89.1606 87.9008 87.2979 87.9008 84.9961C87.9008 82.6943 86.0381 80.8317 83.7363 80.8317C81.4345 80.8317 79.5719 82.6943 79.5719 84.9961C79.5719 87.2979 81.4345 89.1606 83.7363 89.1606ZM83.7363 83.1032C84.7812 83.1032 85.6293 83.9512 85.6293 84.9961C85.6293 86.041 84.7812 86.8891 83.7363 86.8891C82.6914 86.8891 81.8434 86.041 81.8434 84.9961C81.8434 83.9512 82.6914 83.1032 83.7363 83.1032Z" fill="#268C44"/>
<path d="M91.3081 131.562C93.6099 131.562 95.4726 129.7 95.4726 127.398C95.4726 125.096 93.6099 123.233 91.3081 123.233C89.0063 123.233 87.1437 125.096 87.1437 127.398C87.1437 129.7 89.0063 131.562 91.3081 131.562ZM91.3081 125.505C92.353 125.505 93.2011 126.353 93.2011 127.398C93.2011 128.443 92.353 129.291 91.3081 129.291C90.2632 129.291 89.4152 128.443 89.4152 127.398C89.4152 126.353 90.2632 125.505 91.3081 125.505Z" fill="#268C44"/>
<path d="M79.1934 140.648C81.4952 140.648 83.3578 138.786 83.3578 136.484C83.3578 134.182 81.4952 132.319 79.1934 132.319C76.8916 132.319 75.0289 134.182 75.0289 136.484C75.0289 138.786 76.8916 140.648 79.1934 140.648ZM79.1934 134.591C80.2383 134.591 81.0863 135.439 81.0863 136.484C81.0863 137.529 80.2383 138.377 79.1934 138.377C78.1485 138.377 77.3005 137.529 77.3005 136.484C77.3005 135.439 78.1485 134.591 79.1934 134.591Z" fill="#268C44"/>
<path d="M169.292 88.877C167.619 88.877 166.263 87.521 166.263 85.8483C166.263 84.1756 167.619 82.8196 169.292 82.8196C170.965 82.8196 172.321 84.1756 172.321 85.8483C172.321 87.521 170.965 88.877 169.292 88.877Z" fill="white"/>
<path d="M146.141 86.1533C144.468 86.1533 143.112 84.7973 143.112 83.1246C143.112 81.4519 144.468 80.0959 146.141 80.0959C147.814 80.0959 149.17 81.4519 149.17 83.1246C149.17 84.7973 147.814 86.1533 146.141 86.1533Z" fill="white"/>
<path d="M268.164 102.329C270.466 102.329 272.329 100.466 272.329 98.1644C272.329 95.8626 270.466 93.9999 268.164 93.9999C265.862 93.9999 264 95.8626 264 98.1644C264 100.451 265.878 102.329 268.164 102.329ZM268.164 96.2715C269.209 96.2715 270.057 97.1195 270.057 98.1644C270.057 99.2093 269.209 100.057 268.164 100.057C267.119 100.057 266.271 99.2093 266.271 98.1644C266.271 97.1195 267.119 96.2715 268.164 96.2715Z" fill="#268C44"/>
</svg>
