<svg width="40" height="40" viewBox="0 0 40 40" fill="none" xmlns="http://www.w3.org/2000/svg">
<circle cx="20" cy="20" r="20" fill="url(#paint0_linear_2258_7523)"/>
<path d="M27.5135 6.45285C27.4709 6.38968 27.4132 6.33809 27.3457 6.30269C27.2782 6.26729 27.203 6.2492 27.1268 6.25004H13.4281C13.3518 6.24907 13.2766 6.2671 13.2091 6.3025C13.1416 6.33791 13.0839 6.38957 13.0414 6.45283C12.9988 6.51608 12.9727 6.58894 12.9654 6.66482C12.9581 6.74069 12.9697 6.8172 12.9994 6.88744L16.1268 14.3668C15.9091 14.2797 15.694 14.1868 15.4841 14.0859C15.4289 14.058 15.3688 14.0414 15.3071 14.037C15.2454 14.0326 15.1835 14.0406 15.125 14.0604C15.0664 14.0803 15.0124 14.1116 14.9661 14.1526C14.9199 14.1935 14.8822 14.2433 14.8554 14.2991C14.8286 14.3548 14.8132 14.4153 14.8101 14.477C14.807 14.5387 14.8162 14.6005 14.8373 14.6586C14.8583 14.7167 14.8907 14.7701 14.9327 14.8155C14.9746 14.861 15.0251 14.8976 15.0814 14.9232C15.6437 15.1932 16.2271 15.4168 16.8259 15.5919C17.8686 15.8981 18.9497 16.0539 20.0364 16.0546C21.3281 16.0537 22.6101 15.833 23.8277 15.4019C24.2217 15.264 24.6077 15.1041 24.9837 14.9228C25.0935 14.8686 25.1774 14.7731 25.2172 14.6573C25.2571 14.5415 25.2495 14.4146 25.1963 14.3043C25.1431 14.194 25.0484 14.1092 24.933 14.0683C24.8175 14.0274 24.6906 14.0337 24.5798 14.0859C24.5654 14.0928 24.5508 14.0993 24.5364 14.1062L27.5552 6.88767C27.5848 6.81741 27.5965 6.7409 27.5892 6.665C27.5819 6.58911 27.5559 6.51621 27.5135 6.45285ZM20.8494 15.0911C20.8038 15.0947 20.7583 15.0995 20.7127 15.1024C20.5829 15.1109 20.4531 15.117 20.3232 15.1207C20.287 15.1217 20.2508 15.1207 20.2148 15.1217C20.12 15.1233 20.0252 15.1249 19.9303 15.1239C19.8775 15.1233 19.8248 15.1209 19.7719 15.1196C19.7045 15.1179 19.6371 15.1205 19.5696 15.1175L18.5241 7.17931H22.0308L20.99 15.0833C20.9435 15.0876 20.8963 15.0874 20.8494 15.0911ZM17.5868 7.17931L18.6204 15.0304C18.6041 15.0281 18.5878 15.0238 18.5714 15.0215C18.4998 15.0113 18.4282 14.9999 18.3566 14.9882C18.2974 14.9785 18.2383 14.9673 18.1792 14.9566C18.1075 14.9436 18.0358 14.9299 17.9643 14.9155C17.9057 14.9036 17.8472 14.8909 17.7887 14.878C17.7167 14.8622 17.6449 14.8456 17.573 14.8282C17.5154 14.8143 17.4578 14.7998 17.4003 14.7848C17.366 14.7759 17.3318 14.7705 17.2975 14.7612L14.126 7.17931H17.5868ZM23.3276 14.5929C23.292 14.6047 23.2565 14.6147 23.2208 14.6261C23.1628 14.6447 23.1047 14.6618 23.0466 14.6793C22.9769 14.7003 22.9072 14.7197 22.8371 14.7392C22.7787 14.7554 22.7204 14.7712 22.6621 14.7865C22.5916 14.8049 22.5209 14.8218 22.4501 14.8387C22.3919 14.8526 22.3339 14.8666 22.2752 14.8795C22.2038 14.8949 22.1321 14.9094 22.0603 14.9237C22.0216 14.9314 21.9834 14.9433 21.9449 14.9505L22.9681 7.17931H26.4289L23.3276 14.5929Z" fill="#208E44"/>
<path d="M32.1255 33.0213V25.5562C32.133 23.9964 31.8308 22.4507 31.2363 21.0087C30.6418 19.5666 29.7669 18.257 28.6623 17.1557C28.1229 16.6182 27.5098 16.1599 26.8416 15.7946C26.9033 15.7117 26.9354 15.6105 26.9328 15.5072C26.9302 15.4039 26.893 15.3044 26.8271 15.2247C26.7613 15.1451 26.6706 15.0898 26.5697 15.0677C26.4687 15.0457 26.3632 15.0582 26.2702 15.1032C26.0643 15.2021 25.8579 15.2957 25.6531 15.382C22.2019 16.8544 18.3109 16.9138 14.8164 15.5474C14.4718 15.4143 14.1272 15.2649 13.7926 15.1034C13.6816 15.0499 13.5538 15.0427 13.4375 15.0834C13.3212 15.1241 13.2258 15.2093 13.1723 15.3204C13.1189 15.4314 13.1117 15.5591 13.1524 15.6754C13.193 15.7917 13.2783 15.8871 13.3893 15.9406C13.4667 15.9777 13.5596 16.014 13.6377 16.0499C10.3496 18.1648 8.42916 21.6545 8.42916 25.5561V33.0141C8.42442 34.8266 8.12766 36.6265 7.55031 38.3446C7.50282 38.4818 7.48867 38.6283 7.50905 38.7719C7.52943 38.9156 7.58375 39.0524 7.6675 39.171C7.75126 39.2895 7.86204 39.3864 7.99068 39.4536C8.11932 39.5208 8.26212 39.5564 8.40725 39.5574C8.47498 39.5574 8.5425 39.5499 8.60859 39.535L11.8598 38.8001C12.5833 38.6347 13.3227 38.5481 14.0649 38.5418H26.6428C27.4134 38.5482 28.1807 38.6411 28.9306 38.8186L31.9396 39.5175C32.0981 39.5569 32.2644 39.5524 32.4205 39.5046C32.5767 39.4567 32.7169 39.3673 32.8262 39.2459C32.9354 39.1245 33.0096 38.9757 33.0408 38.8154C33.072 38.6551 33.059 38.4893 33.0033 38.3358C32.427 36.623 32.1306 34.8285 32.1255 33.0213ZM29.1377 37.9127C28.3199 37.7197 27.483 37.619 26.6428 37.6125H14.0649C13.2551 37.6188 12.4484 37.7128 11.6589 37.8926L8.43691 38.6153C9.04268 36.8098 9.35384 34.9185 9.35843 33.0141V25.5561C9.35843 23.5737 9.85675 21.7437 10.8701 20.1177C11.822 18.6081 13.1373 17.3614 14.6956 16.4916C16.4041 17.1308 18.2133 17.459 20.0375 17.4606C22.0236 17.4587 23.9903 17.0697 25.8276 16.3155C26.6382 16.679 27.3762 17.1862 28.006 17.8128C29.0239 18.828 29.83 20.0353 30.3777 21.3645C30.9253 22.6937 31.2035 24.1185 31.1962 25.5561V33.0212C31.2014 34.9209 31.5121 36.8073 32.1167 38.6081L29.1377 37.9127Z" fill="#208E44"/>
<path d="M20.2772 20.886C18.8068 20.886 17.3695 21.322 16.147 22.1389C14.9244 22.9557 13.9716 24.1168 13.4089 25.4752C12.8462 26.8336 12.699 28.3284 12.9859 29.7704C13.2727 31.2125 13.9807 32.5372 15.0204 33.5768C16.0601 34.6165 17.3847 35.3246 18.8268 35.6114C20.2689 35.8983 21.7637 35.751 23.1221 35.1884C24.4805 34.6257 25.6415 33.6728 26.4584 32.4503C27.2753 31.2278 27.7113 29.7905 27.7113 28.3201C27.7091 26.3491 26.9251 24.4595 25.5314 23.0658C24.1378 21.6721 22.2481 20.8882 20.2772 20.886ZM20.2772 34.825C18.9906 34.825 17.733 34.4435 16.6632 33.7287C15.5935 33.014 14.7598 31.998 14.2674 30.8094C13.7751 29.6208 13.6463 28.3129 13.8973 27.0511C14.1483 25.7893 14.7678 24.6302 15.6775 23.7205C16.5872 22.8108 17.7463 22.1912 19.0081 21.9402C20.2699 21.6892 21.5779 21.8181 22.7665 22.3104C23.9551 22.8027 24.971 23.6365 25.6858 24.7062C26.4005 25.7759 26.782 27.0336 26.782 28.3201C26.78 30.0447 26.094 31.698 24.8745 32.9175C23.6551 34.1369 22.0017 34.8229 20.2772 34.825Z" fill="#F7941D"/>
<path d="M18.802 31L17.474 28.72H16.594V31H15.866V25.424H17.666C18.0873 25.424 18.442 25.496 18.73 25.64C19.0233 25.784 19.242 25.9787 19.386 26.224C19.53 26.4693 19.602 26.7493 19.602 27.064C19.602 27.448 19.49 27.7867 19.266 28.08C19.0473 28.3733 18.7167 28.568 18.274 28.664L19.674 31H18.802ZM16.594 28.136H17.666C18.0607 28.136 18.3567 28.04 18.554 27.848C18.7513 27.6507 18.85 27.3893 18.85 27.064C18.85 26.7333 18.7513 26.4773 18.554 26.296C18.362 26.1147 18.066 26.024 17.666 26.024H16.594V28.136ZM24.4612 27.056C24.4612 27.52 24.3012 27.9067 23.9812 28.216C23.6665 28.52 23.1839 28.672 22.5332 28.672H21.4612V31H20.7332V25.424H22.5332C23.1625 25.424 23.6399 25.576 23.9652 25.88C24.2959 26.184 24.4612 26.576 24.4612 27.056ZM22.5332 28.072C22.9385 28.072 23.2372 27.984 23.4292 27.808C23.6212 27.632 23.7172 27.3813 23.7172 27.056C23.7172 26.368 23.3225 26.024 22.5332 26.024H21.4612V28.072H22.5332Z" fill="#F7941D"/>
<defs>
<linearGradient id="paint0_linear_2258_7523" x1="20" y1="0" x2="20" y2="40" gradientUnits="userSpaceOnUse">
<stop stop-color="#E3FAE8"/>
<stop offset="1" stop-color="#E3FAE8" stop-opacity="0"/>
</linearGradient>
</defs>
</svg>
