<svg width="64" height="64" viewBox="0 0 64 64" fill="none" xmlns="http://www.w3.org/2000/svg">
<circle cx="32" cy="32" r="32" fill="url(#paint0_linear_59_4565)"/>
<path d="M20 16.8C14.24 18.08 13.8667 23.2 14.4 25.6L16.8 20.8L48 20V17.6C48 15.04 45.3333 13.3334 44 12.8C38.4 13.6 25.76 15.52 20 16.8Z" fill="#C9F2D2" stroke="#C9F2D2" stroke-width="1.5"/>
<path d="M23.3748 46.7678H48.3693C50.8163 46.7678 52.8 44.7841 52.8 42.3371V24.614C52.8 22.167 50.8163 20.1832 48.3693 20.1832H18.8308C16.3837 20.1832 14.4 22.167 14.4 24.614V35.9211" stroke="#208E44" stroke-width="1.5" stroke-linejoin="round"/>
<path d="M47.9409 20.1832V17.4139C47.9407 16.7348 47.7906 16.064 47.5013 15.4495C47.212 14.835 46.7906 14.2919 46.2673 13.859C45.7439 13.4261 45.1315 13.1141 44.4736 12.9451C43.8158 12.7762 43.1287 12.7545 42.4616 12.8816L18.1514 17.0309C17.0957 17.2321 16.1433 17.7953 15.4585 18.6236C14.7736 19.4518 14.3993 20.4931 14.4 21.5678V26.0909" stroke="#208E44" stroke-width="1.5" stroke-linejoin="round"/>
<path d="M43.9385 36.4293C43.3543 36.4293 42.7832 36.2561 42.2974 35.9315C41.8116 35.6069 41.433 35.1456 41.2095 34.6058C40.9859 34.0661 40.9274 33.4722 41.0414 32.8992C41.1554 32.3262 41.4367 31.7999 41.8498 31.3868C42.2629 30.9737 42.7892 30.6923 43.3622 30.5784C43.9352 30.4644 44.5291 30.5229 45.0689 30.7465C45.6086 30.97 46.0699 31.3486 46.3945 31.8344C46.7191 32.3201 46.8923 32.8912 46.8923 33.4755C46.8923 34.2589 46.5811 35.0102 46.0272 35.5641C45.4732 36.1181 44.7219 36.4293 43.9385 36.4293Z" fill="#F7951D"/>
<path d="M24.9731 43.3216C24.9731 47.8015 21.3414 51.4332 16.8615 51.4332C12.3817 51.4332 8.75 47.8015 8.75 43.3216C8.75 38.8417 12.3817 35.2101 16.8615 35.2101C21.3414 35.2101 24.9731 38.8417 24.9731 43.3216Z" stroke="#F7951D" stroke-width="1.5"/>
<rect x="11.9385" y="42.337" width="9.84615" height="1.96923" rx="0.984615" fill="#F7951D"/>
<rect x="15.877" y="48.2448" width="9.84615" height="1.96923" rx="0.984615" transform="rotate(-90 15.877 48.2448)" fill="#F7951D"/>
<defs>
<linearGradient id="paint0_linear_59_4565" x1="32" y1="0" x2="32" y2="64" gradientUnits="userSpaceOnUse">
<stop stop-color="#E3FAE8"/>
<stop offset="1" stop-color="#E3FAE8" stop-opacity="0"/>
</linearGradient>
</defs>
</svg>
