<svg width="40" height="40" viewBox="0 0 40 40" fill="none" xmlns="http://www.w3.org/2000/svg">
<circle cx="20" cy="20" r="20" fill="url(#paint0_linear_3551_16033)"/>
<path fill-rule="evenodd" clip-rule="evenodd" d="M24.3536 17.6464C24.5488 17.8417 24.5488 18.1583 24.3536 18.3536L16.3536 26.3536C16.1583 26.5488 15.8417 26.5488 15.6464 26.3536C15.4512 26.1583 15.4512 25.8417 15.6464 25.6464L23.6464 17.6464C23.8417 17.4512 24.1583 17.4512 24.3536 17.6464Z" fill="#F7941D"/>
<path fill-rule="evenodd" clip-rule="evenodd" d="M15.6464 17.6464C15.8417 17.4512 16.1583 17.4512 16.3536 17.6464L24.3536 25.6464C24.5488 25.8417 24.5488 26.1583 24.3536 26.3536C24.1583 26.5488 23.8417 26.5488 23.6464 26.3536L15.6464 18.3536C15.4512 18.1583 15.4512 17.8417 15.6464 17.6464Z" fill="#F7941D"/>
<path fill-rule="evenodd" clip-rule="evenodd" d="M22.9088 10.2053L20 7.39136L17.0912 10.2053C16.6478 10.6342 16.0313 10.8346 15.4205 10.7482L11.4132 10.1814L10.714 14.1677C10.6074 14.7753 10.2264 15.2997 9.68144 15.5888L6.10633 17.4857L7.88371 21.1217C8.15463 21.6759 8.15463 22.3241 7.88371 22.8783L6.10633 26.5143L9.68144 28.4112C10.2264 28.7003 10.6074 29.2247 10.714 29.8324L11.4132 33.8186L15.4205 33.2518C16.0313 33.1654 16.6478 33.3658 17.0912 33.7947L20 36.6087L22.9088 33.7947C23.3521 33.3658 23.9686 33.1654 24.5795 33.2518L28.5867 33.8186L29.286 29.8324C29.3926 29.2247 29.7736 28.7003 30.3185 28.4112L33.8936 26.5143L32.1163 22.8783C31.8453 22.3241 31.8453 21.6759 32.1163 21.1217L33.8936 17.4857L30.3185 15.5888C29.7736 15.2997 29.3926 14.7753 29.286 14.1677L28.5867 10.1814L24.5795 10.7482C23.9686 10.8346 23.3521 10.6342 22.9088 10.2053ZM20.6953 6.67263C20.3076 6.2976 19.6924 6.2976 19.3047 6.67263L16.3959 9.4866C16.1742 9.70106 15.866 9.80122 15.5606 9.75802L11.5533 9.19122C11.0192 9.11567 10.5215 9.47731 10.4283 10.0086L9.72902 13.9949C9.67573 14.2987 9.48522 14.5609 9.21275 14.7055L5.63764 16.6023C5.16117 16.8551 4.97104 17.4403 5.20793 17.9249L6.9853 21.5608C7.12076 21.8379 7.12076 22.1621 6.9853 22.4392L5.20793 26.0752C4.97105 26.5597 5.16117 27.1449 5.63764 27.3977L9.21275 29.2945C9.48522 29.4391 9.67573 29.7013 9.72902 30.0051L10.4283 33.9914C10.5215 34.5227 11.0192 34.8843 11.5533 34.8088L15.5606 34.242C15.866 34.1988 16.1742 34.2989 16.3959 34.5134L19.3047 37.3274C19.6924 37.7024 20.3076 37.7024 20.6953 37.3274L23.6041 34.5134C23.8258 34.2989 24.134 34.1988 24.4394 34.242L28.4467 34.8088C28.9808 34.8843 29.4785 34.5227 29.5717 33.9914L30.2709 30.0051C30.3242 29.7013 30.5147 29.4391 30.7872 29.2945L34.3623 27.3977C34.8388 27.1449 35.0289 26.5597 34.792 26.0752L33.0147 22.4392C32.8792 22.1621 32.8792 21.8379 33.0147 21.5608L34.792 17.9249C35.0289 17.4403 34.8388 16.8551 34.3623 16.6023L30.7872 14.7055C30.5147 14.5609 30.3242 14.2987 30.2709 13.9949L29.5717 10.0086C29.4785 9.47731 28.9808 9.11567 28.4467 9.19122L24.4394 9.75802C24.134 9.80122 23.8258 9.70106 23.6041 9.4866L20.6953 6.67263Z" fill="#208E44"/>
<defs>
<linearGradient id="paint0_linear_3551_16033" x1="20" y1="0" x2="20" y2="40" gradientUnits="userSpaceOnUse">
<stop stop-color="#E3FAE8"/>
<stop offset="1" stop-color="#E3FAE8" stop-opacity="0"/>
</linearGradient>
</defs>
</svg>
