<svg width="148" height="44" viewBox="0 0 148 44" fill="none" xmlns="http://www.w3.org/2000/svg">
<rect width="148" height="44" rx="8" fill="#F8F8F8"/>
<g clip-path="url(#clip0_559_3612)">
<mask id="mask0_559_3612" style="mask-type:luminance" maskUnits="userSpaceOnUse" x="12" y="-2" width="124" height="48">
<path d="M135.017 -1.15466H12.6871V45.1516H135.017V-1.15466Z" fill="white"/>
</mask>
<g mask="url(#mask0_559_3612)">
<path d="M75.6142 15.4721C75.7197 15.2653 75.8789 15.0924 76.0742 14.9725C76.2696 14.8526 76.4935 14.7905 76.7212 14.7928C76.9141 14.7883 77.1052 14.8321 77.2777 14.9206C77.4249 14.9951 77.5546 15.1014 77.6579 15.2322V14.8396H78.2235V17.6128H77.6579V17.1984C77.5568 17.3417 77.4246 17.4591 77.2717 17.5411C77.0835 17.6354 76.8753 17.6799 76.666 17.6706C76.4567 17.6614 76.253 17.5986 76.0735 17.4881C75.8776 17.3627 75.7189 17.1849 75.6142 16.974C75.4983 16.7429 75.4398 16.486 75.4439 16.2262C75.4397 15.9693 75.4982 15.7154 75.6142 15.4877M77.5454 15.7401C77.4731 15.6102 77.368 15.5026 77.2413 15.4285C77.1197 15.3549 76.981 15.3162 76.8398 15.3163C76.698 15.3157 76.5585 15.3533 76.4354 15.4254C76.308 15.4987 76.2028 15.6065 76.1312 15.737C76.0512 15.889 76.0114 16.0598 76.0157 16.2324C76.0116 16.408 76.0514 16.5818 76.1312 16.7372C76.2009 16.874 76.3062 16.9883 76.4354 17.0675C76.557 17.1409 76.6956 17.1797 76.8368 17.1797C76.978 17.1797 77.1166 17.1409 77.2382 17.0675C77.3653 16.9938 77.4704 16.8861 77.5423 16.7559C77.6222 16.6016 77.662 16.4288 77.6579 16.2542C77.6621 16.0806 77.6223 15.9088 77.5423 15.7557" fill="#1D5632"/>
<path d="M79.2484 17.5411C79.0908 17.474 78.9526 17.3667 78.847 17.2295C78.7441 17.0959 78.6856 16.9322 78.6797 16.7621H79.2605C79.2657 16.8202 79.2831 16.8764 79.3114 16.9269C79.3398 16.9775 79.3784 17.0212 79.4248 17.055C79.5341 17.1363 79.6668 17.178 79.8019 17.1734C79.9299 17.1807 80.0571 17.1481 80.1668 17.0799C80.2069 17.0548 80.2399 17.0195 80.2628 16.9775C80.2857 16.9355 80.2977 16.8881 80.2976 16.84C80.2986 16.7914 80.2856 16.7436 80.2602 16.7025C80.2347 16.6615 80.198 16.6291 80.1546 16.6094C80.0067 16.5405 79.853 16.4853 79.6954 16.4443C79.5271 16.3995 79.3616 16.3443 79.1997 16.2791C79.0717 16.2253 78.958 16.1409 78.8682 16.033C78.771 15.9101 78.7212 15.7548 78.7283 15.5967C78.7277 15.4512 78.7724 15.3093 78.8561 15.1917C78.9494 15.0625 79.0756 14.9622 79.221 14.9019C79.3945 14.8285 79.5808 14.7924 79.7684 14.7959C80.0367 14.7828 80.3008 14.8678 80.5135 15.0359C80.6038 15.1144 80.6768 15.2117 80.7276 15.3212C80.7785 15.4308 80.806 15.5502 80.8085 15.6715H80.2489C80.2483 15.6118 80.2349 15.553 80.2097 15.4991C80.1845 15.4453 80.148 15.3978 80.1029 15.3599C79.9997 15.2809 79.8728 15.2412 79.7441 15.2478C79.6255 15.2406 79.5076 15.2711 79.4065 15.335C79.3695 15.3594 79.3391 15.3931 79.3184 15.433C79.2976 15.4728 79.2871 15.5173 79.2879 15.5625C79.2871 15.5976 79.2938 15.6326 79.3074 15.6649C79.3211 15.6971 79.3414 15.726 79.367 15.7494C79.4223 15.8019 79.4875 15.8422 79.5586 15.8678C79.6346 15.8959 79.7441 15.9333 79.8931 15.9769C80.0579 16.0203 80.2194 16.0754 80.3766 16.142C80.5014 16.1972 80.6126 16.2803 80.702 16.3851C80.7983 16.5051 80.8491 16.6567 80.845 16.812C80.8472 16.9635 80.8025 17.1119 80.7172 17.2357C80.6252 17.3656 80.5 17.467 80.3553 17.5286C80.1821 17.6028 79.9956 17.6389 79.8079 17.6346C79.6113 17.638 79.4162 17.5976 79.2362 17.5162" fill="#1D5632"/>
<path d="M81.8212 17.4788C81.616 17.3606 81.4474 17.1856 81.3346 16.974C81.2136 16.7435 81.1528 16.4848 81.1582 16.223C81.1534 15.9606 81.2164 15.7016 81.3407 15.4721C81.4565 15.2603 81.6283 15.0864 81.8364 14.9704C82.0533 14.8546 82.2943 14.7942 82.5389 14.7942C82.7835 14.7942 83.0245 14.8546 83.2414 14.9704C83.4494 15.0865 83.6212 15.2604 83.7371 15.4721C83.8616 15.7015 83.9245 15.9606 83.9196 16.223C83.9248 16.4859 83.8607 16.7453 83.7341 16.974C83.6139 17.1874 83.438 17.3622 83.2262 17.4788C83.0083 17.5981 82.7646 17.6592 82.5176 17.6564C82.2753 17.6603 82.0362 17.599 81.8242 17.4788M82.9221 17.055C83.0498 16.9822 83.1551 16.8743 83.2262 16.7434C83.3092 16.5857 83.3501 16.4084 83.3448 16.2293C83.3503 16.0519 83.3116 15.876 83.2323 15.7183C83.162 15.5868 83.0565 15.4787 82.9282 15.4067C82.8055 15.3366 82.6672 15.3001 82.5267 15.3007C82.3862 15.2994 82.2478 15.336 82.1253 15.4067C81.9959 15.4772 81.89 15.5857 81.8212 15.7183C81.7456 15.8772 81.7091 16.0526 81.7148 16.2293C81.6993 16.481 81.78 16.7291 81.9398 16.921C82.0113 17.0003 82.0984 17.0629 82.1955 17.1049C82.2925 17.1468 82.3971 17.167 82.5024 17.1641C82.6438 17.1645 82.783 17.128 82.9069 17.0581" fill="#1D5632"/>
<path d="M84.762 17.5411C84.6045 17.4739 84.4663 17.3666 84.3605 17.2295C84.2634 17.0981 84.2082 16.9393 84.2024 16.7746H84.7832C84.7882 16.8327 84.8055 16.889 84.8339 16.9396C84.8622 16.9901 84.901 17.0338 84.9475 17.0675C85.0568 17.1488 85.1895 17.1904 85.3246 17.1859C85.4526 17.1932 85.5799 17.1606 85.6895 17.0924C85.7296 17.0673 85.7626 17.032 85.7855 16.99C85.8084 16.948 85.8204 16.9006 85.8203 16.8525C85.8243 16.8009 85.8123 16.7494 85.7861 16.7052C85.7599 16.6611 85.7208 16.6264 85.6743 16.6063C85.5263 16.5374 85.3726 16.4821 85.2151 16.4412C85.0468 16.3963 84.8812 16.3412 84.7194 16.276C84.5913 16.2222 84.4777 16.1378 84.3879 16.0299C84.2906 15.907 84.2408 15.7517 84.248 15.5936C84.2473 15.4481 84.2921 15.3062 84.3757 15.1886C84.4689 15.0593 84.5952 14.9589 84.7407 14.8988C84.9141 14.8253 85.1004 14.7892 85.2881 14.7928C85.5564 14.7794 85.8206 14.8644 86.0332 15.0328C86.127 15.1121 86.2029 15.2115 86.2554 15.324C86.3079 15.4364 86.3359 15.5593 86.3373 15.684H85.7777C85.7769 15.6243 85.7634 15.5655 85.7382 15.5117C85.713 15.4579 85.6767 15.4104 85.6317 15.3724C85.5285 15.2933 85.4016 15.2537 85.2729 15.2602C85.1543 15.2531 85.0364 15.2835 84.9353 15.3475C84.8983 15.3719 84.8679 15.4056 84.8472 15.4454C84.8264 15.4852 84.8159 15.5298 84.8167 15.5749C84.8161 15.6101 84.8228 15.6449 84.8365 15.6772C84.8501 15.7094 84.8703 15.7383 84.8958 15.7619C84.951 15.8144 85.0163 15.8547 85.0874 15.8803C85.1634 15.9083 85.2729 15.9457 85.4219 15.9894C85.5866 16.0328 85.7482 16.088 85.9054 16.1545C86.0302 16.2097 86.1414 16.2927 86.2308 16.3975C86.3271 16.5176 86.3778 16.6691 86.3738 16.8244C86.3758 16.9759 86.3311 17.1242 86.246 17.2482C86.154 17.3781 86.0288 17.4794 85.8841 17.5411C85.7109 17.6152 85.5244 17.6513 85.3367 17.647C85.1399 17.6548 84.9438 17.6187 84.762 17.5411Z" fill="#1D5632"/>
<path d="M87.4108 14.8396H86.8512V17.6128H87.4108V14.8396Z" fill="#1D5632"/>
<path d="M88.0069 15.4721C88.1123 15.2653 88.2715 15.0924 88.4668 14.9725C88.6622 14.8526 88.8861 14.7905 89.1138 14.7928C89.3067 14.7883 89.4978 14.8321 89.6703 14.9206C89.8175 14.9952 89.9471 15.1015 90.0505 15.2322V14.8396H90.6161V17.6128H90.0535V17.1984C89.9516 17.3421 89.8183 17.4595 89.6643 17.5411C89.4761 17.6354 89.2679 17.6799 89.0586 17.6706C88.8493 17.6614 88.6456 17.5986 88.4661 17.4881C88.2702 17.3628 88.1114 17.185 88.0069 16.974C87.8908 16.7429 87.8323 16.486 87.8365 16.2262C87.832 15.9693 87.8906 15.7153 88.0069 15.4877M89.938 15.7401C89.8655 15.6103 89.7605 15.5027 89.6339 15.4285C89.5122 15.355 89.3736 15.3163 89.2324 15.3163C89.0906 15.3159 88.9512 15.3535 88.828 15.4254C88.7006 15.4987 88.5954 15.6065 88.5238 15.737C88.4437 15.8889 88.4039 16.0597 88.4083 16.2324C88.4041 16.408 88.4439 16.5818 88.5238 16.7372C88.5934 16.874 88.6987 16.9884 88.828 17.0675C88.9496 17.1409 89.0882 17.1797 89.2294 17.1797C89.3706 17.1797 89.5092 17.1409 89.6308 17.0675C89.7578 16.9936 89.8629 16.886 89.9349 16.7559C90.0149 16.6016 90.0547 16.4288 90.0505 16.2542C90.0549 16.0806 90.015 15.9087 89.9349 15.7557" fill="#1D5632"/>
<path d="M91.641 17.5411C91.4835 17.4739 91.3453 17.3666 91.2396 17.2295C91.1424 17.0981 91.0872 16.9393 91.0814 16.7746H91.6623C91.6673 16.8327 91.6845 16.889 91.7129 16.9395C91.7413 16.9901 91.78 17.0338 91.8265 17.0675C91.9359 17.1488 92.0686 17.1904 92.2036 17.1859C92.3317 17.1933 92.459 17.1607 92.5685 17.0924C92.6086 17.0673 92.6417 17.032 92.6646 16.99C92.6875 16.9479 92.6994 16.9006 92.6993 16.8525C92.7001 16.8035 92.6867 16.7554 92.6607 16.7144C92.6347 16.6733 92.5973 16.6411 92.5533 16.6219C92.4053 16.553 92.2517 16.4977 92.0941 16.4567C91.9258 16.4118 91.7603 16.3567 91.5984 16.2916C91.4704 16.2376 91.3568 16.1532 91.2669 16.0454C91.1697 15.9225 91.1199 15.7673 91.127 15.6092C91.1264 15.4637 91.1711 15.3217 91.2548 15.2041C91.3479 15.0748 91.4742 14.9745 91.6197 14.9143C91.7931 14.8409 91.9795 14.8048 92.1671 14.8084C92.4354 14.7949 92.6996 14.88 92.9122 15.0483C93.0061 15.1277 93.0819 15.227 93.1344 15.3395C93.187 15.452 93.2149 15.5749 93.2163 15.6996H92.6689C92.6683 15.6398 92.6549 15.581 92.6297 15.5271C92.6045 15.4733 92.568 15.4258 92.5229 15.388C92.4198 15.3087 92.2928 15.269 92.1641 15.2758C92.0455 15.2686 91.9276 15.2991 91.8265 15.363C91.7895 15.3874 91.7591 15.4212 91.7384 15.461C91.7176 15.5008 91.7071 15.5454 91.7079 15.5905C91.7073 15.6256 91.714 15.6605 91.7277 15.6928C91.7413 15.725 91.7615 15.7539 91.787 15.7775C91.8423 15.8299 91.9075 15.8702 91.9786 15.8959C92.0546 15.9239 92.1641 15.9613 92.3131 16.0049C92.4778 16.0483 92.6394 16.1035 92.7966 16.1701C92.9225 16.2248 93.0347 16.3079 93.1251 16.4131C93.2213 16.5331 93.2721 16.6847 93.268 16.84C93.27 16.9915 93.2253 17.1398 93.1403 17.2638C93.0482 17.3936 92.923 17.495 92.7784 17.5567C92.6052 17.6308 92.4187 17.6669 92.231 17.6626C92.0343 17.666 91.8392 17.6256 91.6592 17.5442" fill="#1D5632"/>
<path d="M94.2928 14.8396H93.7333V17.6128H94.2928V14.8396Z" fill="#1D5632"/>
<path d="M97.1941 15.307H96.6923V17.6128H96.1267V15.307H95.8074V14.8396H96.1267V14.6433C96.1155 14.5153 96.1321 14.3864 96.1752 14.2657C96.2183 14.1451 96.2869 14.0356 96.3761 13.9453C96.6023 13.7806 96.8781 13.7033 97.1546 13.7272V14.207C97.0275 14.1938 96.9001 14.2281 96.7957 14.3036C96.757 14.3501 96.7278 14.4042 96.71 14.4626C96.6923 14.521 96.6862 14.5824 96.6923 14.6433V14.8396H97.1941V15.307Z" fill="#1D5632"/>
<path d="M98.1278 14.8396H97.5682V17.6128H98.1278V14.8396Z" fill="#1D5632"/>
<path d="M100.679 14.9299C100.848 15.0201 100.985 15.1602 101.075 15.3319C101.175 15.531 101.224 15.753 101.218 15.9769V17.6128H100.661V16.0548C100.674 15.8477 100.609 15.6435 100.479 15.4846C100.414 15.4172 100.337 15.3646 100.252 15.3302C100.166 15.2959 100.075 15.2805 99.9828 15.2851C99.8907 15.2804 99.7986 15.2958 99.7126 15.3302C99.6267 15.3645 99.5488 15.4171 99.4841 15.4846C99.3534 15.6432 99.288 15.8477 99.3016 16.0548V17.6128H98.7512V14.8396H99.3107V15.1512C99.4044 15.0341 99.5244 14.9422 99.6605 14.8832C99.8033 14.8192 99.9576 14.7863 100.114 14.7866C100.312 14.7838 100.509 14.8308 100.685 14.9237" fill="#1D5632"/>
<path d="M102.458 15.307V16.8431C102.454 16.8834 102.458 16.9242 102.47 16.9628C102.482 17.0014 102.502 17.0371 102.528 17.0675C102.598 17.1203 102.685 17.1447 102.772 17.136H103.115V17.6128H102.674C102.467 17.6269 102.261 17.5626 102.096 17.432C102.023 17.3546 101.968 17.2618 101.933 17.1602C101.898 17.0585 101.886 16.9503 101.896 16.8431V15.307H101.576V14.8396H101.896V14.1509H102.461V14.8396H103.118V15.307H102.458Z" fill="#1D5632"/>
<path d="M105.971 16.4412H103.903C103.907 16.5418 103.93 16.6406 103.971 16.7321C104.012 16.8235 104.071 16.9057 104.143 16.974C104.287 17.1089 104.477 17.1815 104.672 17.1765C104.804 17.1855 104.936 17.1535 105.05 17.0845C105.164 17.0156 105.255 16.913 105.311 16.7901H105.919C105.839 17.0408 105.684 17.259 105.475 17.4133C105.243 17.5814 104.963 17.6668 104.678 17.6564C104.435 17.661 104.195 17.5997 103.982 17.4788C103.778 17.3604 103.612 17.1854 103.501 16.974C103.382 16.7419 103.322 16.4823 103.328 16.2199C103.323 15.9589 103.381 15.7007 103.498 15.469C103.606 15.2576 103.772 15.0832 103.976 14.9673C104.192 14.8463 104.435 14.7851 104.681 14.7897C104.919 14.7858 105.154 14.8448 105.363 14.9611C105.559 15.0726 105.72 15.239 105.828 15.4409C105.942 15.6601 106 15.9059 105.995 16.1545C105.995 16.2484 105.988 16.3422 105.974 16.4349M105.405 15.9831C105.407 15.8869 105.388 15.7916 105.349 15.7038C105.311 15.616 105.254 15.5379 105.183 15.4752C105.034 15.3463 104.843 15.2786 104.648 15.2851C104.465 15.2818 104.288 15.3497 104.152 15.4752C104.017 15.61 103.935 15.7906 103.921 15.9831H105.405Z" fill="#1D5632"/>
<path d="M106.4 15.4721C106.506 15.2628 106.669 15.0889 106.868 14.9704C107.101 14.845 107.363 14.7847 107.626 14.7956C107.889 14.8065 108.145 14.8883 108.367 15.0328C108.587 15.1998 108.741 15.4418 108.802 15.7152H108.194C108.149 15.5893 108.067 15.4805 107.96 15.4036C107.839 15.3228 107.696 15.2825 107.552 15.2883C107.448 15.2841 107.345 15.3044 107.25 15.3476C107.155 15.3909 107.071 15.4558 107.005 15.5376C106.858 15.738 106.786 15.9854 106.801 16.2355C106.786 16.4865 106.858 16.7349 107.005 16.9366C107.071 17.0191 107.155 17.0848 107.25 17.1286C107.345 17.1724 107.448 17.193 107.552 17.189C107.693 17.2039 107.834 17.1682 107.952 17.088C108.069 17.0079 108.156 16.8882 108.197 16.7497H108.805C108.735 17.0181 108.58 17.255 108.364 17.4227C108.13 17.5948 107.846 17.6824 107.558 17.672C107.318 17.677 107.08 17.6157 106.871 17.4944C106.672 17.376 106.509 17.202 106.403 16.9927C106.291 16.7584 106.233 16.501 106.233 16.2402C106.233 15.9794 106.291 15.722 106.403 15.4877" fill="#1D5632"/>
<path d="M111.192 14.9299C111.356 15.0221 111.49 15.162 111.576 15.3319C111.674 15.5316 111.722 15.7533 111.716 15.9769V17.6128H111.162V16.0548C111.175 15.8477 111.11 15.6434 110.98 15.4846C110.915 15.4172 110.838 15.3646 110.753 15.3303C110.667 15.2959 110.576 15.2805 110.484 15.2852C110.392 15.2807 110.3 15.2961 110.214 15.3304C110.128 15.3648 110.05 15.4173 109.985 15.4846C109.854 15.6432 109.789 15.8477 109.803 16.0548V17.6128H109.243V13.8736H109.803V15.1481C109.9 15.029 110.024 14.936 110.165 14.877C110.317 14.8117 110.48 14.7789 110.645 14.7804C110.838 14.7771 111.028 14.8243 111.199 14.9175" fill="#1D5632"/>
<path d="M76.5783 21.0372C76.7496 20.9482 76.9396 20.9033 77.1317 20.9063C77.3605 20.9024 77.5857 20.9646 77.7815 21.0859C77.9773 21.2071 78.1358 21.3825 78.2387 21.5918C78.3535 21.8211 78.4109 22.0759 78.406 22.3334C78.4104 22.5929 78.353 22.8496 78.2387 23.0813C78.1303 23.291 77.9671 23.4658 77.7673 23.5861C77.5734 23.7079 77.3501 23.7716 77.1226 23.7699C76.9317 23.7739 76.7427 23.7301 76.5722 23.6421C76.4219 23.567 76.2883 23.4609 76.1799 23.3306V25.0506H75.6385V20.95H76.1981V21.3581C76.304 21.2263 76.4369 21.1199 76.5874 21.0466M77.7309 21.838C77.6594 21.7074 77.5542 21.5996 77.4267 21.5264C77.3034 21.4549 77.164 21.4173 77.0223 21.4174C76.8811 21.4175 76.7425 21.4562 76.6208 21.5295C76.4938 21.6032 76.3887 21.7109 76.3167 21.8411C76.2366 21.9942 76.1968 22.166 76.2012 22.3397C76.1947 22.5124 76.2313 22.684 76.3076 22.8382C76.3588 22.9351 76.4286 23.0204 76.5129 23.0889C76.5971 23.1574 76.694 23.2077 76.7977 23.2368C76.9014 23.2659 77.0098 23.2732 77.1163 23.2583C77.2229 23.2433 77.3254 23.2064 77.4176 23.1498C77.5468 23.0706 77.6521 22.9563 77.7217 22.8195C77.8011 22.665 77.8408 22.4924 77.8373 22.3179C77.8416 22.1452 77.8017 21.9744 77.7217 21.8224" fill="#1D5632"/>
<path d="M81.2981 22.5516H79.2301C79.2381 22.7538 79.3237 22.9446 79.4684 23.0824C79.6131 23.2202 79.8052 23.2937 80.0026 23.2869C80.1347 23.2964 80.2665 23.2645 80.3805 23.1955C80.4946 23.1265 80.5855 23.0237 80.6412 22.9006H81.2494C81.1695 23.1512 81.0141 23.3694 80.8054 23.5238C80.5728 23.6916 80.293 23.777 80.0087 23.7668C79.7663 23.771 79.5272 23.7097 79.3153 23.5892C79.1118 23.4709 78.9452 23.2958 78.8348 23.0844C78.7155 22.8533 78.6558 22.5948 78.6614 22.3335C78.6559 22.0725 78.7145 21.8143 78.8317 21.5825C78.9339 21.3741 79.0922 21.2 79.2879 21.0808C79.504 20.9598 79.7472 20.8986 79.9935 20.9032C80.2322 20.8986 80.468 20.9577 80.6777 21.0746C80.8742 21.1859 81.0356 21.3524 81.143 21.5545C81.2576 21.7737 81.3152 22.0194 81.3103 22.268C81.3104 22.3619 81.3033 22.4557 81.289 22.5485M80.7233 22.0842C80.7232 21.9909 80.7036 21.8987 80.6658 21.8137C80.6281 21.7288 80.573 21.6532 80.5044 21.5919C80.3548 21.4632 80.1643 21.3955 79.9691 21.4018C79.7867 21.3973 79.6095 21.4641 79.4734 21.5887C79.332 21.7216 79.2441 21.9039 79.2271 22.0998L80.7233 22.0842Z" fill="#1D5632"/>
<path d="M83.6854 21.0403C83.8536 21.1306 83.9914 21.2707 84.0808 21.4423C84.181 21.6414 84.2302 21.8634 84.2237 22.0873V23.7232H83.6672V22.1652C83.6805 21.9581 83.6151 21.7538 83.4847 21.595C83.4206 21.5276 83.3433 21.475 83.2578 21.4407C83.1723 21.4063 83.0807 21.3909 82.989 21.3956C82.8969 21.3911 82.8048 21.4065 82.7189 21.4408C82.633 21.4752 82.5551 21.5277 82.4903 21.595C82.3596 21.7536 82.2942 21.9581 82.3078 22.1652V23.7232H81.7482V20.95H82.3078V21.2616C82.4015 21.1446 82.5215 21.0526 82.6575 20.9936C82.8004 20.9297 82.9547 20.8968 83.1107 20.897C83.3093 20.8942 83.5056 20.9413 83.6824 21.0341" fill="#1D5632"/>
<path d="M84.7954 21.5919C84.9013 21.3841 85.0615 21.2106 85.258 21.0906C85.4545 20.9707 85.6797 20.909 85.9085 20.9126C86.0891 20.9133 86.2674 20.9537 86.4315 21.031C86.5912 21.0989 86.7321 21.2059 86.8421 21.3426V20.0027H87.4077V23.7419H86.8421V23.3056C86.7435 23.4466 86.6131 23.5609 86.4619 23.639C86.2897 23.7288 86.0986 23.7738 85.9054 23.7699C85.678 23.7716 85.4546 23.7079 85.2607 23.5861C85.0635 23.4614 84.9035 23.2835 84.7984 23.0719C84.6825 22.8408 84.624 22.5839 84.6281 22.3241C84.6239 22.0672 84.6824 21.8134 84.7984 21.5856M86.7296 21.838C86.6574 21.708 86.5523 21.6004 86.4255 21.5264C86.3038 21.453 86.1652 21.4142 86.024 21.4142C85.8822 21.4136 85.7427 21.4512 85.6196 21.5233C85.492 21.5964 85.3868 21.7042 85.3154 21.8349C85.2353 21.9869 85.1955 22.1577 85.1999 22.3303C85.1957 22.506 85.2355 22.6797 85.3154 22.8351C85.3848 22.9721 85.4902 23.0865 85.6196 23.1654C85.7412 23.2389 85.8798 23.2776 86.021 23.2776C86.1622 23.2776 86.3008 23.2389 86.4224 23.1654C86.5495 23.0917 86.6546 22.984 86.7265 22.8538C86.8064 22.6995 86.8462 22.5268 86.8421 22.3521C86.8463 22.1785 86.8065 22.0067 86.7265 21.8536" fill="#1D5632"/>
<path d="M88.0008 21.5918C88.1062 21.385 88.2654 21.2121 88.4608 21.0923C88.6561 20.9724 88.88 20.9102 89.1077 20.9126C89.3006 20.9081 89.4917 20.952 89.6643 21.0403C89.8115 21.1148 89.9412 21.2211 90.0444 21.3519V20.95H90.6101V23.7232H90.0444V23.3119C89.9409 23.4501 89.8077 23.5621 89.6551 23.639C89.467 23.7333 89.2588 23.7778 89.0495 23.7685C88.8402 23.7593 88.6365 23.6966 88.4569 23.5861C88.261 23.4607 88.1023 23.283 87.9977 23.0719C87.8818 22.8408 87.8233 22.5839 87.8274 22.3241C87.8232 22.0672 87.8817 21.8134 87.9977 21.5856M89.9289 21.838C89.8567 21.708 89.7516 21.6004 89.6247 21.5264C89.5031 21.453 89.3645 21.4142 89.2233 21.4142C89.0815 21.4136 88.942 21.4512 88.8188 21.5233C88.6913 21.5964 88.586 21.7042 88.5147 21.8349C88.4346 21.9868 88.3947 22.1577 88.3992 22.3303C88.395 22.5059 88.4348 22.6797 88.5147 22.8351C88.5841 22.9721 88.6894 23.0865 88.8188 23.1654C88.9425 23.2377 89.083 23.2744 89.2254 23.2717C89.3678 23.2689 89.5068 23.2268 89.6278 23.1498C89.7548 23.0761 89.8599 22.9684 89.9319 22.8382C90.0117 22.6839 90.0515 22.5112 90.0475 22.3366C90.0517 22.1629 90.0119 21.9911 89.9319 21.838" fill="#1D5632"/>
<path d="M93.1646 21.0403C93.3329 21.1305 93.4707 21.2706 93.56 21.4423C93.6601 21.6414 93.7093 21.8634 93.7029 22.0873V23.7232H93.1464V22.1652C93.1627 21.9584 93.1006 21.753 92.973 21.5919C92.8373 21.4644 92.6599 21.3937 92.4758 21.3937C92.2917 21.3937 92.1143 21.4644 91.9786 21.5919C91.8469 21.75 91.7803 21.9545 91.7931 22.1621V23.7201H91.2335V20.9469H91.7931V21.2585C91.8876 21.141 92.0087 21.049 92.1459 20.9905C92.2887 20.9264 92.443 20.8935 92.599 20.8939C92.7976 20.8911 92.9939 20.9381 93.1707 21.031" fill="#1D5632"/>
<path d="M94.2747 21.5919C94.3801 21.3851 94.5393 21.2122 94.7346 21.0923C94.93 20.9724 95.1539 20.9102 95.3816 20.9126C95.5745 20.908 95.7656 20.9519 95.9382 21.0403C96.0853 21.115 96.2149 21.2212 96.3183 21.3519V20.95H96.8839V23.7232H96.3183V23.3119C96.2146 23.45 96.0815 23.5619 95.929 23.639C95.7408 23.7333 95.5326 23.7778 95.3234 23.7686C95.1141 23.7593 94.9104 23.6966 94.7308 23.5861C94.5349 23.4607 94.3761 23.283 94.2716 23.0719C94.1556 22.8409 94.0971 22.584 94.1013 22.3241C94.0969 22.0672 94.1555 21.8133 94.2716 21.5856M96.2027 21.838C96.1305 21.708 96.0255 21.6004 95.8986 21.5264C95.777 21.4528 95.6384 21.4141 95.4972 21.4143C95.3554 21.4136 95.2159 21.4513 95.0927 21.5233C94.9653 21.5965 94.8601 21.7043 94.7886 21.8349C94.7085 21.9869 94.6686 22.1577 94.673 22.3303C94.6711 22.5078 94.7141 22.6828 94.7977 22.8382C94.8698 22.9683 94.9749 23.076 95.1018 23.1498C95.2235 23.2233 95.3621 23.262 95.5033 23.262C95.6445 23.262 95.7831 23.2233 95.9047 23.1498C96.0318 23.0761 96.1369 22.9684 96.2088 22.8382C96.2888 22.684 96.3286 22.5112 96.3244 22.3366C96.3288 22.1629 96.2889 21.9911 96.2088 21.838" fill="#1D5632"/>
<path d="M97.48 21.5919C97.5854 21.3851 97.7446 21.2122 97.94 21.0923C98.1353 20.9724 98.3592 20.9102 98.5869 20.9126C98.7798 20.908 98.9709 20.9519 99.1435 21.0403C99.2906 21.115 99.4203 21.2212 99.5236 21.3519V20.95H100.089V23.7232H99.5236V23.3119C99.42 23.45 99.2868 23.5619 99.1344 23.639C98.9462 23.7333 98.738 23.7778 98.5287 23.7686C98.3194 23.7593 98.1157 23.6966 97.9361 23.5861C97.7402 23.4607 97.5815 23.283 97.4769 23.0719C97.3609 22.8409 97.3024 22.584 97.3066 22.3241C97.3022 22.0672 97.3608 21.8133 97.4769 21.5856M99.4081 21.838C99.3359 21.708 99.2308 21.6004 99.1039 21.5264C98.9824 21.4528 98.8437 21.4141 98.7025 21.4143C98.5607 21.4136 98.4212 21.4513 98.298 21.5233C98.1706 21.5965 98.0654 21.7043 97.9939 21.8349C97.9138 21.9869 97.8739 22.1577 97.8784 22.3303C97.8742 22.506 97.914 22.6797 97.9939 22.8351C98.0633 22.9721 98.1686 23.0865 98.298 23.1654C98.4197 23.2389 98.5583 23.2776 98.6995 23.2776C98.8406 23.2776 98.9793 23.2389 99.1009 23.1654C99.2279 23.0917 99.3331 22.984 99.405 22.8538C99.485 22.6996 99.5248 22.5268 99.5206 22.3522C99.525 22.1785 99.4851 22.0067 99.405 21.8536" fill="#1D5632"/>
<path d="M102.644 21.0403C102.812 21.1305 102.95 21.2706 103.039 21.4423C103.139 21.6414 103.188 21.8634 103.182 22.0873V23.7232H102.626V22.1652C102.639 21.9582 102.573 21.754 102.443 21.595C102.379 21.5276 102.302 21.475 102.216 21.4407C102.131 21.4063 102.039 21.3909 101.947 21.3956C101.855 21.3909 101.763 21.4062 101.677 21.4406C101.591 21.4749 101.513 21.5276 101.449 21.595C101.318 21.7536 101.253 21.9581 101.266 22.1652V23.7232H100.707V20.95H101.266V21.2616C101.36 21.1446 101.48 21.0526 101.616 20.9936C101.759 20.9296 101.913 20.8967 102.069 20.897C102.268 20.8942 102.464 20.9413 102.641 21.0341" fill="#1D5632"/>
<path d="M105.874 21.0341C106.046 20.9474 106.235 20.9036 106.427 20.9063C106.655 20.9038 106.879 20.9653 107.075 21.084C107.27 21.2042 107.428 21.378 107.531 21.5856C107.646 21.8149 107.703 22.0697 107.698 22.3272C107.703 22.5867 107.645 22.8434 107.531 23.0751C107.427 23.2868 107.268 23.4649 107.072 23.5892C106.878 23.711 106.654 23.7747 106.427 23.773C106.234 23.7772 106.044 23.7345 105.87 23.6484C105.72 23.5768 105.588 23.4701 105.484 23.3368V23.7388H104.925V19.9996H105.484V21.3644C105.586 21.2239 105.72 21.1106 105.874 21.0341ZM107.014 21.8287C106.942 21.6981 106.837 21.5903 106.71 21.5171C106.587 21.4454 106.447 21.4078 106.305 21.408C106.164 21.4082 106.026 21.4469 105.904 21.5202C105.777 21.594 105.672 21.7017 105.6 21.8318C105.52 21.9849 105.48 22.1567 105.484 22.3303C105.48 22.5049 105.52 22.6777 105.6 22.832C105.668 22.9635 105.769 23.0735 105.894 23.1504C106.018 23.2272 106.16 23.268 106.305 23.2682C106.448 23.269 106.587 23.2302 106.71 23.1561C106.839 23.0769 106.944 22.9625 107.014 22.8258C107.093 22.6713 107.133 22.4987 107.13 22.3241C107.134 22.1515 107.094 21.9806 107.014 21.8287Z" fill="#1D5632"/>
<path d="M110.593 22.5516H108.525C108.533 22.7538 108.619 22.9446 108.764 23.0824C108.908 23.2201 109.1 23.2937 109.298 23.2869C109.43 23.2959 109.561 23.2639 109.675 23.1949C109.789 23.126 109.88 23.0234 109.936 22.9006H110.545C110.465 23.1512 110.309 23.3694 110.101 23.5237C109.868 23.6916 109.588 23.777 109.304 23.7668C109.061 23.7714 108.82 23.7101 108.607 23.5892C108.404 23.4707 108.237 23.2957 108.127 23.0844C108.008 22.8533 107.948 22.5948 107.954 22.3335C107.948 22.0725 108.007 21.8143 108.124 21.5825C108.232 21.3711 108.398 21.1967 108.601 21.0808C108.817 20.9598 109.061 20.8986 109.307 20.9032C109.545 20.8993 109.779 20.9583 109.988 21.0746C110.185 21.1861 110.346 21.3525 110.453 21.5545C110.568 21.7737 110.626 22.0194 110.621 22.268C110.621 22.3619 110.614 22.4557 110.599 22.5485M110.034 22.0842C110.035 21.988 110.016 21.8926 109.978 21.8048C109.94 21.7171 109.883 21.639 109.812 21.5763C109.662 21.4474 109.472 21.3797 109.276 21.3862C109.094 21.3887 108.919 21.4622 108.787 21.5919C108.646 21.7249 108.558 21.9071 108.541 22.1029L110.034 22.0842Z" fill="#1D5632"/>
<path d="M111.925 21.0247C112.074 20.9425 112.24 20.9017 112.409 20.9063V21.4984H112.266C112.176 21.4916 112.085 21.5033 112 21.5327C111.914 21.5622 111.835 21.6087 111.767 21.6697C111.636 21.8374 111.575 22.0513 111.597 22.2649V23.7232H111.037V20.95H111.597V21.3519C111.675 21.214 111.787 21.1 111.922 21.0216" fill="#1D5632"/>
<path d="M113.212 23.6515C113.054 23.5842 112.916 23.477 112.81 23.3399C112.713 23.2086 112.658 23.0497 112.652 22.885H113.233C113.238 22.9431 113.255 22.9994 113.284 23.05C113.312 23.1005 113.351 23.1442 113.397 23.1779C113.507 23.2592 113.639 23.3008 113.774 23.2963C113.902 23.3036 114.03 23.271 114.139 23.2028C114.179 23.1777 114.212 23.1424 114.235 23.1004C114.258 23.0584 114.27 23.011 114.27 22.9629C114.271 22.9139 114.257 22.8658 114.231 22.8248C114.205 22.7837 114.168 22.7515 114.124 22.7323C113.976 22.6632 113.823 22.6079 113.665 22.5672C113.497 22.5222 113.331 22.4671 113.169 22.402C113.041 22.3481 112.928 22.2638 112.838 22.1558C112.74 22.0329 112.691 21.8777 112.698 21.7196C112.697 21.5741 112.742 21.4322 112.826 21.3145C112.919 21.1854 113.045 21.0851 113.191 21.0248C113.364 20.9514 113.55 20.9154 113.738 20.9188C114.006 20.9056 114.27 20.9907 114.483 21.1587C114.577 21.2382 114.652 21.3376 114.705 21.4501C114.757 21.5625 114.786 21.6853 114.787 21.81H114.228C114.227 21.7503 114.214 21.6914 114.188 21.6376C114.163 21.5837 114.127 21.5362 114.082 21.4984C113.978 21.4202 113.851 21.3816 113.723 21.3893C113.604 21.3822 113.486 21.4126 113.385 21.4766C113.348 21.501 113.318 21.5347 113.297 21.5745C113.276 21.6143 113.266 21.6589 113.267 21.704C113.266 21.7392 113.272 21.7741 113.286 21.8064C113.3 21.8387 113.32 21.8675 113.346 21.891C113.401 21.9434 113.466 21.9837 113.537 22.0094C113.612 22.0385 113.724 22.0748 113.872 22.1185C114.036 22.1618 114.198 22.217 114.355 22.2836C114.481 22.3384 114.593 22.4214 114.684 22.5266C114.78 22.6467 114.831 22.7982 114.827 22.9535C114.829 23.105 114.784 23.2533 114.699 23.3773C114.607 23.5073 114.482 23.6087 114.337 23.6702C114.164 23.7444 113.977 23.7805 113.79 23.7761C113.593 23.7793 113.398 23.7389 113.218 23.6577" fill="#1D5632"/>
<path d="M115.286 21.5918C115.39 21.3843 115.549 21.2105 115.743 21.0895C115.938 20.9685 116.162 20.9051 116.39 20.9063C116.583 20.9018 116.774 20.9456 116.946 21.0341C117.093 21.1087 117.223 21.215 117.326 21.3457V20.95H117.91V23.7232H117.333V23.3118C117.229 23.4499 117.096 23.5619 116.943 23.639C116.755 23.7333 116.547 23.7778 116.338 23.7685C116.128 23.7593 115.925 23.6966 115.745 23.5861C115.549 23.4607 115.39 23.2829 115.286 23.0719C115.17 22.8408 115.111 22.5839 115.116 22.3241C115.111 22.0672 115.17 21.8133 115.286 21.5856M117.217 21.838C117.145 21.7079 117.04 21.6002 116.913 21.5264C116.791 21.453 116.653 21.4142 116.511 21.4142C116.37 21.4136 116.23 21.4512 116.107 21.5233C115.98 21.5966 115.874 21.7044 115.803 21.8349C115.723 21.9869 115.683 22.1577 115.687 22.3303C115.683 22.5059 115.723 22.6797 115.803 22.8351C115.872 22.972 115.978 23.0863 116.107 23.1654C116.228 23.2393 116.367 23.278 116.508 23.2776C116.65 23.2776 116.788 23.2388 116.91 23.1654C117.037 23.0918 117.142 22.9841 117.214 22.8538C117.294 22.6995 117.334 22.5268 117.329 22.3521C117.334 22.1785 117.294 22.0067 117.214 21.8536" fill="#1D5632"/>
<path d="M122.356 21.0403C122.525 21.1307 122.664 21.2707 122.755 21.4423C122.857 21.6409 122.907 21.863 122.901 22.0873V23.7232H122.347V22.1652C122.362 21.9575 122.298 21.7519 122.168 21.5918C122.104 21.5245 122.026 21.4719 121.941 21.4375C121.856 21.4031 121.764 21.3878 121.672 21.3924C121.58 21.3877 121.488 21.4031 121.402 21.4374C121.316 21.4718 121.238 21.5244 121.173 21.5918C121.041 21.7499 120.975 21.9545 120.988 22.1621V23.72H120.431V22.1621C120.445 21.955 120.379 21.7507 120.249 21.5918C120.185 21.5245 120.107 21.4719 120.022 21.4375C119.937 21.4031 119.845 21.3878 119.753 21.3924C119.661 21.3877 119.569 21.4031 119.483 21.4374C119.397 21.4718 119.319 21.5244 119.255 21.5918C119.123 21.75 119.056 21.9545 119.069 22.1621V23.72H118.519V20.9468H119.078V21.2584C119.174 21.145 119.295 21.0563 119.431 20.9998C119.574 20.9353 119.728 20.9023 119.884 20.9032C120.086 20.8998 120.286 20.948 120.465 21.0434C120.633 21.1356 120.77 21.2779 120.857 21.4516C120.942 21.2817 121.076 21.1425 121.24 21.0528C121.411 20.9544 121.604 20.9028 121.8 20.9032C121.999 20.9004 122.195 20.9475 122.372 21.0403" fill="#1D5632"/>
<path d="M123.473 21.5919C123.578 21.3851 123.737 21.2122 123.933 21.0923C124.128 20.9724 124.352 20.9102 124.579 20.9126C124.772 20.908 124.963 20.9519 125.136 21.0403C125.283 21.115 125.413 21.2212 125.516 21.3519V20.95H126.082V23.7232H125.513V23.3119C125.409 23.45 125.276 23.5619 125.124 23.639C124.936 23.7333 124.727 23.7778 124.518 23.7686C124.309 23.7593 124.105 23.6966 123.926 23.5861C123.73 23.4607 123.571 23.283 123.466 23.0719C123.35 22.8409 123.292 22.584 123.296 22.3241C123.292 22.0672 123.35 21.8133 123.466 21.5856M125.398 21.838C125.325 21.7079 125.22 21.6003 125.093 21.5264C124.972 21.453 124.833 21.4143 124.692 21.4143C124.55 21.4136 124.411 21.4513 124.288 21.5233C124.16 21.5967 124.055 21.7044 123.983 21.8349C123.903 21.9869 123.864 22.1577 123.868 22.3303C123.866 22.5078 123.909 22.6828 123.993 22.8382C124.065 22.9682 124.17 23.0759 124.297 23.1498C124.418 23.2237 124.557 23.2625 124.698 23.262C124.839 23.262 124.978 23.2233 125.1 23.1498C125.227 23.0762 125.332 22.9685 125.404 22.8382C125.484 22.684 125.523 22.5112 125.519 22.3366C125.524 22.1629 125.484 21.9911 125.404 21.838" fill="#1D5632"/>
<path d="M76.1921 27.0635H75.6325V29.8367H76.1921V27.0635Z" fill="#1D5632"/>
<path d="M78.7436 27.1507C78.9118 27.2408 79.0496 27.381 79.1389 27.5527C79.2411 27.7513 79.2924 27.9732 79.2879 28.1977V29.8336H78.7344V28.2756C78.7474 28.0685 78.6821 27.8643 78.552 27.7054C78.4879 27.638 78.4105 27.5854 78.325 27.551C78.2396 27.5167 78.148 27.5013 78.0563 27.5059C77.9641 27.5012 77.872 27.5166 77.7861 27.5509C77.7001 27.5853 77.6222 27.6379 77.5575 27.7054C77.4255 27.8634 77.3589 28.068 77.372 28.2756V29.8336H76.8124V27.0604H77.372V27.372C77.4665 27.2545 77.5876 27.1625 77.7248 27.104C77.8676 27.0399 78.022 27.007 78.1779 27.0074C78.3766 27.0046 78.5728 27.0516 78.7496 27.1445" fill="#1D5632"/>
<path d="M79.8536 27.696C79.9598 27.4885 80.12 27.3151 80.3165 27.1952C80.5129 27.0753 80.738 27.0135 80.9666 27.0167C81.1472 27.0177 81.3256 27.058 81.4897 27.1351C81.6491 27.2035 81.79 27.3104 81.9003 27.4467V26.11H82.4659V29.8491H81.9003V29.416C81.8014 29.5559 81.671 29.6692 81.5201 29.7463C81.3479 29.8361 81.1568 29.881 80.9636 29.8772C80.7361 29.8789 80.5128 29.8152 80.3189 29.6933C80.1217 29.5687 79.9617 29.3908 79.8566 29.1792C79.7407 28.9481 79.6822 28.6912 79.6863 28.4314C79.6819 28.1745 79.7405 27.9206 79.8566 27.6929M81.7878 27.9453C81.7156 27.8153 81.6105 27.7077 81.4836 27.6337C81.362 27.5602 81.2234 27.5215 81.0822 27.5215C80.9404 27.5208 80.8008 27.5584 80.6777 27.6306C80.5504 27.7039 80.4452 27.8117 80.3736 27.9422C80.2936 28.0942 80.2538 28.265 80.2581 28.4376C80.2541 28.6132 80.2939 28.7869 80.3736 28.9424C80.4431 29.0792 80.5484 29.1936 80.6777 29.2727C80.7992 29.3466 80.9379 29.3853 81.0792 29.3849C81.2204 29.3849 81.359 29.3461 81.4806 29.2727C81.6076 29.199 81.7128 29.0913 81.7847 28.9611C81.8646 28.8068 81.9044 28.634 81.9003 28.4594C81.9045 28.2858 81.8647 28.114 81.7847 27.9609" fill="#1D5632"/>
<path d="M83.5455 29.6933C83.3403 29.5752 83.1716 29.4003 83.0589 29.1885C82.9378 28.9581 82.877 28.6993 82.8826 28.4376C82.8777 28.1752 82.9407 27.9161 83.065 27.6866C83.1862 27.4788 83.3622 27.3103 83.5729 27.2006C83.7898 27.0848 84.0308 27.0243 84.2754 27.0243C84.52 27.0243 84.761 27.0848 84.9779 27.2006C85.1861 27.3164 85.358 27.4904 85.4736 27.7022C85.5982 27.9316 85.6612 28.1907 85.6561 28.4532C85.6614 28.716 85.5973 28.9755 85.4706 29.2041C85.3474 29.4122 85.1706 29.5815 84.9596 29.6933C84.7418 29.8128 84.4981 29.8739 84.2511 29.8709C84.0047 29.877 83.7611 29.8157 83.5455 29.6933ZM84.6434 29.2696C84.771 29.1966 84.8763 29.0887 84.9475 28.958C85.0299 28.8012 85.0708 28.625 85.0661 28.4469C85.0716 28.2696 85.0329 28.0937 84.9536 27.9359C84.8836 27.8042 84.778 27.696 84.6494 27.6243C84.5268 27.5542 84.3885 27.5177 84.248 27.5184C84.1075 27.5172 83.9691 27.5538 83.8466 27.6243C83.7172 27.6949 83.6113 27.8034 83.5425 27.9359C83.4669 28.0948 83.4303 28.2703 83.436 28.4469C83.4198 28.6983 83.4994 28.9463 83.658 29.1387C83.7295 29.2179 83.8167 29.2806 83.9137 29.3225C84.0107 29.3644 84.1154 29.3846 84.2206 29.3817C84.3621 29.3822 84.5013 29.3457 84.6251 29.2758" fill="#1D5632"/>
<path d="M88.0251 27.1507C88.1934 27.2408 88.3312 27.381 88.4204 27.5527C88.5204 27.7519 88.5696 27.9738 88.5634 28.1977V29.8336H88.0068V28.2756C88.0198 28.0685 87.9545 27.8643 87.8244 27.7054C87.7603 27.638 87.6829 27.5854 87.5974 27.551C87.512 27.5167 87.4204 27.5013 87.3287 27.5059C87.2365 27.5012 87.1444 27.5166 87.0585 27.5509C86.9725 27.5853 86.8946 27.6379 86.8299 27.7054C86.6993 27.864 86.6338 28.0685 86.6475 28.2756V29.8336H86.0879V27.0604H86.6475V27.372C86.7411 27.2549 86.8612 27.163 86.9972 27.104C87.1401 27.04 87.2944 27.0071 87.4503 27.0074C87.649 27.0046 87.8453 27.0516 88.022 27.1445" fill="#1D5632"/>
<path d="M91.6136 28.662H89.5457C89.5496 28.7626 89.5728 28.8614 89.6141 28.9529C89.6553 29.0443 89.7137 29.1265 89.7859 29.1948C89.9302 29.3297 90.1198 29.4023 90.3151 29.3973C90.4472 29.4068 90.579 29.3749 90.693 29.3059C90.8071 29.2369 90.898 29.134 90.9537 29.0109H91.5619C91.482 29.2616 91.3265 29.4798 91.1179 29.6341C90.8853 29.802 90.6055 29.8874 90.3212 29.8772C90.0783 29.8793 89.8392 29.8159 89.6278 29.6933C89.4243 29.575 89.2577 29.4 89.1473 29.1886C89.028 28.9575 88.9683 28.699 88.9739 28.4376C88.9684 28.1766 89.027 27.9184 89.1442 27.6867C89.256 27.48 89.424 27.3111 89.6278 27.2006C89.8439 27.0794 90.0871 27.0182 90.3333 27.023C90.571 27.0191 90.8057 27.0781 91.0145 27.1943C91.2 27.3082 91.3515 27.472 91.4525 27.668C91.5665 27.8862 91.6241 28.1308 91.6197 28.3784C91.6198 28.4723 91.6127 28.5661 91.5984 28.6588M91.0328 28.1946C91.0345 28.0984 91.0155 28.003 90.9771 27.9152C90.9387 27.8274 90.882 27.7494 90.8108 27.6867C90.6614 27.5577 90.4707 27.49 90.2755 27.4966C90.0932 27.4924 89.916 27.5592 89.7798 27.6835C89.6386 27.8166 89.5508 27.9988 89.5335 28.1946H91.0328Z" fill="#1D5632"/>
<path d="M92.4712 29.7619C92.3138 29.6946 92.1757 29.5873 92.0698 29.4503C91.9727 29.3189 91.9174 29.1601 91.9117 28.9954H92.4925C92.4975 29.0535 92.5148 29.1098 92.5432 29.1603C92.5715 29.2109 92.6103 29.2546 92.6568 29.2883C92.7661 29.3696 92.8988 29.4112 93.0339 29.4067C93.1619 29.4142 93.2892 29.3815 93.3988 29.3132C93.4388 29.2881 93.4719 29.2528 93.4948 29.2108C93.5177 29.1687 93.5297 29.1214 93.5296 29.0733C93.5304 29.0243 93.5169 28.9762 93.4909 28.9352C93.4649 28.8941 93.4275 28.8619 93.3836 28.8427C93.2357 28.7736 93.082 28.7183 92.9244 28.6775C92.7561 28.6327 92.5905 28.5775 92.4287 28.5124C92.3005 28.4587 92.1868 28.3743 92.0972 28.2662C91.9992 28.1425 91.9494 27.986 91.9573 27.8269C91.9566 27.6814 92.0014 27.5394 92.085 27.4218C92.1783 27.2926 92.3046 27.1923 92.45 27.132C92.6234 27.0585 92.8097 27.0225 92.9974 27.0261C93.2656 27.0129 93.5298 27.0979 93.7424 27.266C93.8362 27.3455 93.9119 27.4449 93.9644 27.5573C94.0169 27.6698 94.045 27.7926 94.0466 27.9172H93.487C93.4864 27.8575 93.473 27.7987 93.4478 27.7448C93.4226 27.691 93.3861 27.6435 93.341 27.6056C93.233 27.5308 93.1026 27.4977 92.973 27.5122C92.8544 27.505 92.7366 27.5355 92.6355 27.5994C92.5984 27.6238 92.5681 27.6576 92.5473 27.6974C92.5266 27.7372 92.5161 27.7818 92.5169 27.8269C92.5161 27.8621 92.5227 27.897 92.5364 27.9293C92.55 27.9615 92.5703 27.9904 92.5959 28.0138C92.6514 28.0661 92.7165 28.1064 92.7875 28.1322C92.8625 28.1613 92.974 28.1977 93.122 28.2413C93.2867 28.2837 93.4483 28.3378 93.6056 28.4033C93.7315 28.4581 93.8437 28.5412 93.934 28.6464C94.0303 28.7664 94.081 28.918 94.077 29.0733C94.0792 29.2248 94.0345 29.3732 93.9492 29.497C93.8573 29.627 93.7321 29.7284 93.5873 29.7899C93.4141 29.8641 93.2276 29.9002 93.0399 29.8959C92.8433 29.8991 92.6482 29.8587 92.4682 29.7775" fill="#1D5632"/>
<path d="M95.12 27.0635H94.5605V29.8367H95.12V27.0635Z" fill="#1D5632"/>
<path d="M95.71 27.696C95.8157 27.4894 95.975 27.3167 96.1703 27.1969C96.3656 27.077 96.5894 27.0147 96.817 27.0167C97.0099 27.0123 97.2009 27.0561 97.3735 27.1445C97.5207 27.2191 97.6503 27.3254 97.7537 27.4561V27.0603H98.3193V29.8335H97.7537V29.4222C97.6485 29.5548 97.5154 29.6613 97.3644 29.7338C97.1762 29.8281 96.968 29.8726 96.7587 29.8634C96.5495 29.8541 96.3458 29.7914 96.1662 29.6809C95.9735 29.5594 95.816 29.3872 95.71 29.1823C95.594 28.9512 95.5355 28.6943 95.5397 28.4345C95.5352 28.1776 95.5938 27.9236 95.71 27.696ZM97.6412 27.9484C97.5691 27.8183 97.464 27.7106 97.337 27.6368C97.2154 27.5634 97.0768 27.5246 96.9356 27.5246C96.7938 27.524 96.6543 27.5616 96.5311 27.6337C96.4038 27.707 96.2986 27.8148 96.227 27.9453C96.147 28.0973 96.1072 28.2681 96.1115 28.4407C96.1075 28.6163 96.1473 28.79 96.227 28.9455C96.2966 29.0824 96.4018 29.1967 96.5311 29.2758C96.6526 29.3497 96.7913 29.3884 96.9326 29.388C97.0738 29.388 97.2124 29.3492 97.334 29.2758C97.4611 29.2022 97.5663 29.0945 97.6381 28.9642C97.7181 28.8099 97.7579 28.6372 97.7537 28.4625C97.7581 28.2889 97.7182 28.1171 97.6381 27.964" fill="#1D5632"/>
<path d="M54.7642 13.3719C52.7091 13.3744 50.7388 14.212 49.2855 15.701C47.8323 17.19 47.0148 19.2088 47.0124 21.3145C47.0124 21.3395 47.0124 21.3644 47.0124 21.3893C47.0124 21.4142 47.0124 21.3893 47.0124 21.4111V35.1587C47.0132 35.3816 47.1 35.5951 47.2538 35.7527C47.4076 35.9103 47.616 35.9992 47.8335 36H49.4848C49.7024 35.9992 49.9107 35.9103 50.0646 35.7527C50.2184 35.5951 50.3051 35.3816 50.3059 35.1587V27.7988C51.3014 28.5184 52.4484 28.9874 53.6539 29.1676C54.8594 29.3479 56.0894 29.2344 57.2441 28.8363C58.3988 28.4382 59.4456 27.7668 60.2995 26.8766C61.1535 25.9863 61.7905 24.9023 62.1589 23.7125C62.5274 22.5227 62.6168 21.2606 62.42 20.0288C62.2232 18.7969 61.7457 17.63 61.0262 16.6227C60.3067 15.6153 59.3656 14.796 58.2792 14.2312C57.1927 13.6664 55.9916 13.372 54.7734 13.3719M54.7734 25.8919C53.8888 25.8968 53.0227 25.6325 52.2848 25.1326C51.5469 24.6326 50.9706 23.9195 50.6287 23.0835C50.2868 22.2476 50.1949 21.3265 50.3645 20.4369C50.5341 19.5474 50.9577 18.7294 51.5815 18.0868C52.2053 17.4441 53.0012 17.0057 53.8685 16.827C54.7357 16.6484 55.6352 16.7376 56.453 17.0833C57.2707 17.429 57.9699 18.0156 58.4618 18.7689C58.9538 19.5222 59.2164 20.4082 59.2165 21.3145C59.2149 22.5253 58.7458 23.6863 57.9116 24.5439C57.0774 25.4015 55.9459 25.8861 54.7642 25.8919" fill="#1D5632"/>
<path d="M37.1226 22.1901C37.1255 20.4072 36.5437 18.6751 35.4707 17.2715C34.3977 15.868 32.8956 14.8744 31.2055 14.4503C29.5154 14.0262 27.7352 14.1961 26.1507 14.9328C24.5661 15.6694 23.2689 16.9301 22.4674 18.5126C21.6658 20.095 21.4064 21.9075 21.7306 23.6592C22.0548 25.4108 22.9439 27.0001 24.2552 28.172C25.5666 29.344 27.2241 30.0305 28.9619 30.1216C30.6997 30.2128 32.417 29.7031 33.8382 28.6744V28.9424C33.839 29.1653 33.9258 29.3788 34.0796 29.5364C34.2334 29.694 34.4418 29.7829 34.6593 29.7837H36.3015C36.519 29.7829 36.7274 29.694 36.8812 29.5364C37.0351 29.3788 37.1218 29.1653 37.1226 28.9424V22.1901ZM29.3738 26.7675C28.4901 26.7681 27.6261 26.5001 26.891 25.9975C26.156 25.495 25.5829 24.7803 25.2443 23.9439C24.9057 23.1076 24.8168 22.1872 24.9888 21.299C25.1609 20.4109 25.5861 19.595 26.2108 18.9545C26.8354 18.3141 27.6314 17.8778 28.4981 17.701C29.3648 17.5241 30.2632 17.6145 31.0797 17.9609C31.8962 18.3073 32.5941 18.8939 33.0851 19.6468C33.5761 20.3996 33.8382 21.2847 33.8382 22.1901C33.8366 23.4031 33.3658 24.5659 32.529 25.4239C31.6922 26.2818 30.5576 26.765 29.3738 26.7675Z" fill="#1D5632"/>
<path d="M65.8704 14.6869H64.2282C63.7747 14.6869 63.4071 15.0636 63.4071 15.5282V28.9424C63.4071 29.407 63.7747 29.7837 64.2282 29.7837H65.8704C66.3239 29.7837 66.6915 29.407 66.6915 28.9424V15.5282C66.6915 15.0636 66.3239 14.6869 65.8704 14.6869Z" fill="#1D5632"/>
<path d="M51.9177 11.2562C50.9527 9.90962 49.5976 8.90938 48.0454 8.39797C46.4932 7.88657 44.8231 7.89007 43.2729 8.40799C41.7228 8.92591 40.3717 9.93184 39.412 11.2825C38.4524 12.6331 37.9333 14.2596 37.9285 15.9302V28.9424C37.9293 29.1653 38.0161 29.3788 38.1699 29.5364C38.3237 29.694 38.5321 29.7829 38.7496 29.7837H40.3918C40.6094 29.7829 40.8178 29.694 40.9716 29.5364C41.1254 29.3788 41.2122 29.1653 41.213 28.9424V21.1525H45.3246C45.5421 21.1517 45.7505 21.0628 45.9043 20.9052C46.0581 20.7476 46.1449 20.5341 46.1457 20.3112V18.6286C46.1449 18.4057 46.0581 18.1922 45.9043 18.0346C45.7505 17.877 45.5421 17.7881 45.3246 17.7873H41.213V15.9177C41.2113 14.991 41.4846 14.0857 41.9966 13.3218C42.5086 12.5579 43.2351 11.9715 44.0798 11.6403C44.9245 11.3091 45.8475 11.2488 46.7265 11.4673C47.6054 11.6859 48.3987 12.173 49.0013 12.864C49.1244 13.0093 49.2955 13.1029 49.4817 13.127C49.668 13.1512 49.8564 13.1041 50.0109 12.9949L51.6136 12.244C51.9907 12.0072 52.161 11.6675 51.9177 11.2593" fill="#1D5632"/>
</g>
</g>
<defs>
<clipPath id="clip0_559_3612">
<rect width="107.033" height="28" fill="white" transform="translate(20.4834 8)"/>
</clipPath>
</defs>
</svg>
