<svg width="75" height="28" viewBox="0 0 75 28" fill="none" xmlns="http://www.w3.org/2000/svg">
<g clip-path="url(#clip0_1955_32809)">
<path d="M56.0235 1.38416C56.0235 1.38416 50.4582 2.05069 47.104 5.23535C43.5946 8.56985 43.3798 11.73 43.3798 11.73C43.3798 11.73 45.127 11.2116 46.7009 11.2145C48.2736 11.2168 49.8104 12.2043 49.8104 12.2043C49.8104 12.2043 49.0312 10.8853 47.4817 10.5321C46.3273 10.2684 45.142 10.7495 45.142 10.7495C45.142 10.7495 46.0902 8.08286 47.6274 6.42182C49.5364 4.3579 50.5224 3.95932 51.7093 3.33073C53.199 2.54203 56.0235 1.38416 56.0235 1.38416Z" fill="white"/>
<path d="M57.6008 1.99687C57.6008 1.99687 54.7193 2.52227 52.0299 6.58964C49.8219 9.92973 50.0954 12.9935 50.0954 12.9935C50.0954 12.9935 52.5361 11.4431 54.1453 11.1924C56.1918 10.8734 58.1595 12.2188 58.1595 12.2188C58.1595 12.2188 56.9816 10.216 54.5294 10.1724C53.431 10.1526 51.9306 10.8369 51.9306 10.8369C51.9306 10.8369 51.9428 9.16971 53.2743 6.78763C54.6837 4.26536 57.6008 1.99683 57.6008 1.99683V1.99687Z" fill="white"/>
<path d="M58.948 2.44714C58.948 2.44714 59.4184 5.33427 59.3283 7.50974C59.2384 9.6853 58.9922 12.3459 58.9922 12.3459C58.9922 12.3459 60.1115 11.5951 61.943 11.6007C64.2359 11.6073 65.822 12.5846 65.822 12.5846C65.822 12.5846 65.2154 10.7831 62.6658 10.3709C60.9564 10.0943 60.0427 10.586 60.0427 10.586C60.0427 10.586 60.459 9.09198 60.2989 7.08794C60.1103 4.72741 58.948 2.44714 58.948 2.44714H58.948Z" fill="white"/>
<path d="M60.6719 2.28041C60.6719 2.28041 62.9209 4.03976 63.9413 5.46938C65.4586 7.59427 65.9638 10.1288 66.2318 11.3832C66.4583 12.4406 66.3456 12.7786 66.3456 12.7786C66.3456 12.7786 67.8226 11.4872 69.3677 11.1069C70.6064 10.8017 71.4573 10.866 72.228 11.0108C73.3326 11.2192 74.1799 11.6227 74.1799 11.6227C74.1799 11.6227 73.826 8.72798 71.5041 6.2452C69.4454 4.0439 68.1344 3.38633 65.6916 2.49842C63.7266 1.78446 61.7285 1.44116 61.7285 1.44116C61.7285 1.44116 64.45 2.42508 66.3077 3.43564C68.0017 4.35796 69.0802 5.21415 70.5489 6.93649C72.2815 8.96678 72.3473 9.82856 72.3473 9.82856C72.3473 9.82856 70.8602 9.44198 69.3981 9.82856C67.9353 10.2146 67.4657 10.8038 67.4657 10.8038C67.4657 10.8038 67.1764 9.20417 66.5644 7.68204C66.0065 6.29292 65.0708 4.99358 64.0054 4.26349C63.2577 3.7514 60.6719 2.28037 60.6719 2.28037L60.6719 2.28041Z" fill="white"/>
<path d="M60.214 0.599939C60.3884 1.08091 60.1168 1.62048 59.6075 1.80494C59.098 1.98939 58.5435 1.74868 58.3697 1.26732C58.1954 0.785803 58.4672 0.246012 58.9766 0.0614709C59.0833 0.0228381 59.1919 0.00294548 59.2986 0H59.3564C59.7367 0.0111843 60.0828 0.237431 60.2141 0.599939H60.214Z" fill="white"/>
<path d="M57.5123 27.8901H60.0911V13.7582H57.5123V27.8901Z" fill="white"/>
<path d="M61.475 27.8901V13.7582H64.41L68.0589 19.8178C69.0023 21.3902 69.8199 23.0257 70.4697 24.5563H70.5118C70.344 22.6692 70.2812 20.8451 70.2812 18.6854V13.7582H72.6712V27.8901H70.0084L66.3186 21.6837C65.4168 20.1322 64.4734 18.3918 63.7815 16.7985L63.7186 16.8193C63.823 18.6435 63.8443 20.5096 63.8443 22.837V27.8901H61.475L61.475 27.8901Z" fill="white"/>
<path d="M11.0984 16.5147C10.0974 15.4184 8.67926 14.87 6.84419 14.87C5.13845 14.87 3.79429 15.4554 2.81212 16.6262C1.88519 17.7229 1.42173 19.1168 1.42173 20.8078C1.42173 22.5178 1.87559 23.902 2.7842 24.9614C3.74815 26.1138 5.10149 26.6897 6.84419 26.6897C8.56819 26.6897 9.94894 26.1138 10.9873 24.9614C12.0066 23.865 12.5166 22.4803 12.5166 20.8078C12.5166 18.9867 12.0436 17.5557 11.0984 16.5147ZM12.5166 27.6933V25.2402C11.2713 27.0801 9.3849 28 6.85763 28C4.70158 28 3.0011 27.3031 1.75623 25.9092C0.585425 24.5899 0 22.8894 0 20.8078C0 18.6892 0.59456 16.9704 1.78406 15.6505C3.02894 14.2567 4.75734 13.5598 6.96913 13.5598C9.45926 13.5598 11.3083 14.4427 12.5166 16.208V8.79285H13.9383V27.6933H12.5166L12.5166 27.6933Z" fill="white"/>
<path d="M25.4269 16.6821C24.4259 15.6044 23.0077 15.0652 21.1726 15.0652C19.4669 15.0652 18.1136 15.6414 17.1126 16.7935C16.204 17.8716 15.7502 19.2468 15.7502 20.9194C15.7502 22.6107 16.204 23.9767 17.1126 25.0172C18.0765 26.1323 19.4299 26.6898 21.1726 26.6898C22.8966 26.6898 24.2731 26.142 25.3018 25.0451C26.3306 23.9487 26.8451 22.5737 26.8451 20.9194C26.8451 19.1353 26.372 17.723 25.4269 16.6821ZM26.8451 27.7212V25.268C25.5998 27.0896 23.7133 28 21.1861 28C19.03 28 17.3295 27.3127 16.0847 25.9371C14.9138 24.6365 14.3284 22.9638 14.3284 20.9193C14.3284 18.8194 14.9229 17.1188 16.1125 15.8178C17.3574 14.4427 19.0857 13.7549 21.2976 13.7549C23.7878 13.7549 25.6368 14.6378 26.8451 16.4032V13.7549H28.2668V27.7211H26.8451V27.7212Z" fill="white"/>
<path d="M40.2256 27.6933V18.8007C40.2256 17.5928 39.8353 16.654 39.0547 15.9851C38.2925 15.3717 37.2519 15.0651 35.9326 15.0651C34.3715 15.0651 33.1402 15.5251 32.2389 16.445C31.3373 17.3649 30.8869 18.5685 30.8869 20.055V27.6933H29.4651V14.0615H30.8869V15.9292C31.9645 14.4797 33.6371 13.7549 35.9047 13.7549C37.5586 13.7549 38.9058 14.1452 39.9468 14.9257C41.0802 15.7807 41.6472 16.9886 41.6472 18.5497V27.6933H40.2256Z" fill="white"/>
<path d="M52.9966 16.6821C51.9957 15.6044 50.5774 15.0652 48.7424 15.0652C47.0367 15.0652 45.6833 15.6414 44.6824 16.7935C43.7737 17.8716 43.3199 19.2468 43.3199 20.9194C43.3199 22.6107 43.7737 23.9767 44.6824 25.0172C45.6462 26.1323 46.9997 26.6898 48.7424 26.6898C50.4664 26.6898 51.8428 26.142 52.8716 25.0451C53.9004 23.9487 54.4148 22.5737 54.4148 20.9194C54.4148 19.1353 53.9418 17.723 52.9965 16.6821H52.9966ZM54.4149 27.7212V25.268C53.1695 27.0896 51.2831 28 48.7559 28C46.5998 28 44.8993 27.3127 43.6544 25.9371C42.4836 24.6365 41.8983 22.9638 41.8983 20.9193C41.8983 18.8194 42.4927 17.1188 43.6822 15.8178C44.9272 14.4427 46.6555 13.7549 48.8674 13.7549C51.3576 13.7549 53.2065 14.6378 54.4148 16.4032V13.7549H55.8366V27.7211H54.4148L54.4149 27.7212Z" fill="white"/>
</g>
<defs>
<clipPath id="clip0_1955_32809">
<rect width="74.1801" height="28" fill="white"/>
</clipPath>
</defs>
</svg>
