<svg width="70" height="32" viewBox="0 0 70 32" fill="none" xmlns="http://www.w3.org/2000/svg">
<path d="M18.7975 12.3689V17.8569V18.3606V23.7263C18.7361 24.6665 18.4673 25.7091 17.3774 25.7091C16.8782 25.7091 16.6599 25.5977 16.5537 25.3987C17.4567 24.0527 17.9963 22.3964 17.9963 20.5974C17.9963 19.5311 17.8049 18.5161 17.4625 17.583C17.4043 17.4249 17.3415 17.2713 17.2743 17.1177C16.0814 14.3708 13.5291 12.4662 10.5627 12.4662C6.45706 12.4662 3.12842 16.1065 3.12842 20.5967C3.12842 25.087 6.45642 28.728 10.5627 28.728C11.8369 28.728 13.0343 28.3766 14.0807 27.7596C14.9435 28.3811 15.9886 28.7472 17.1163 28.7472C19.6193 28.7472 21.7153 26.95 22.3003 24.5257H22.3079V24.4975V21.7942V12.3689H18.7975ZM12.2631 25.5081C11.7428 25.8089 11.1687 25.9798 10.5614 25.9798C8.25162 25.9798 6.37962 23.5542 6.37962 20.559C6.37962 17.5657 8.25162 15.1388 10.5614 15.1388C12.2657 15.1388 13.7281 16.4611 14.3803 18.3567C14.6119 19.03 14.7438 19.7743 14.7438 20.559C14.7438 22.7676 13.7243 24.6633 12.2631 25.5081Z" fill="url(#paint0_radial_778_389)"/>
<path d="M23.3127 18.5896V23.5202L25.4567 21.533L30.3355 28.7861H35.1604L28.2945 18.4354L34.2049 12.1365H28.8359L23.3127 18.5896Z" fill="url(#paint1_radial_778_389)"/>
<path d="M34.3936 12.2906C33.4624 12.3866 32.3482 12.3962 31.04 12.2625C30.9652 12.2548 30.8948 12.2644 30.8231 12.2439C25.4765 10.6753 23.817 8.42375 20.4288 5.82087C16.8077 3.03878 8.12804 1.15334 0.302124 7.33127C0.302124 7.33127 2.97988 8.87559 4.20612 11.4945C4.22724 11.5399 4.25092 11.5834 4.27204 11.6308C5.47844 14.331 5.673 16.6618 5.673 16.6618C5.673 16.6618 10.1108 11.5892 15.6013 11.3844C20.2349 11.2122 25.6103 13.0151 29.8682 13.4862C30.656 13.5732 31.41 13.6193 32.1082 13.5943C36.5863 13.4305 38.2996 10.8641 38.2996 10.8641C38.2996 10.8641 37.1981 12.0039 34.3936 12.2906Z" fill="#313132"/>
<path d="M17.1955 7.92383C23.7536 9.66719 25.4816 11.9513 30.8121 11.9155C30.9005 11.9142 30.9779 11.9072 31.0662 11.904C30.9913 11.8969 30.9229 11.9059 30.8512 11.8861C25.5328 10.4019 23.8822 8.27135 20.512 5.80735C16.912 3.17439 8.6643 1.31583 0.881897 7.16223C0.881897 7.16223 3.1603 8.69759 4.37886 11.1769C4.5971 10.9241 4.81534 10.6912 5.03358 10.4697C9.29086 6.06911 13.3638 6.90495 17.1955 7.92383Z" fill="url(#paint2_linear_778_389)"/>
<path d="M34.4026 11.9315C33.4759 12.0211 32.3674 12.0307 31.0669 11.9039C30.9786 11.9071 30.9012 11.9135 30.8129 11.9155C25.4823 11.9513 22.5652 9.00793 17.6103 7.40793C13.8349 6.18937 9.29094 6.06905 5.0343 10.4691C4.81606 10.695 4.59782 10.9235 4.37958 11.1763C4.4007 11.2198 4.42438 11.2607 4.4455 11.3049C5.64486 13.8604 5.83878 16.0678 5.83878 16.0678C5.83878 16.0678 10.2522 11.2659 15.7114 11.0726C20.3194 10.9094 25.6666 12.6163 29.9021 13.0611C30.6842 13.1443 31.4349 13.1884 32.1287 13.1635C36.5812 13.0086 38.3636 10.686 38.3636 10.686C38.3636 10.686 37.1911 11.6595 34.4026 11.9315Z" fill="url(#paint3_linear_778_389)"/>
<path d="M39.2409 12.1575H38.5171V28.5748H39.2409V12.1575Z" fill="#660B15"/>
<path d="M45.5712 14.5717C45.5712 14.8187 45.5251 15.0517 45.4323 15.2719C45.3395 15.4907 45.2051 15.6879 45.0285 15.86C44.8493 16.0328 44.6471 16.1653 44.4231 16.2562C44.1972 16.3483 43.9629 16.3944 43.7146 16.3944C43.465 16.3944 43.2257 16.3483 42.9997 16.2555C42.7725 16.1627 42.5722 16.0315 42.3975 15.86C42.2196 15.6872 42.0865 15.492 41.9937 15.2738C41.9028 15.0549 41.8561 14.8207 41.8561 14.5711C41.8561 14.3221 41.9022 14.0879 41.9937 13.8677C42.0865 13.6482 42.2196 13.4511 42.3975 13.277C42.5754 13.1042 42.7757 12.9717 42.9997 12.8821C43.2257 12.7919 43.4631 12.7471 43.7146 12.7471C43.9655 12.7471 44.2023 12.7919 44.4263 12.8821C44.6503 12.9717 44.8506 13.1042 45.0292 13.277C45.2058 13.4517 45.3402 13.6507 45.433 13.8715C45.5258 14.0923 45.5712 14.3253 45.5712 14.5717ZM44.9824 14.5717C44.9824 14.3951 44.9511 14.2287 44.8864 14.0699C44.8224 13.9112 44.7309 13.7711 44.61 13.6475C44.4935 13.5259 44.3572 13.4312 44.2036 13.3659C44.0493 13.3 43.8868 13.268 43.7146 13.268C43.5444 13.268 43.3812 13.3 43.2269 13.3653C43.0727 13.4306 42.9357 13.5247 42.8161 13.6482C42.6951 13.7698 42.6036 13.9099 42.5396 14.068C42.4769 14.2255 42.4455 14.3938 42.4455 14.5717C42.4455 14.7464 42.4769 14.9135 42.5396 15.0696C42.6036 15.2264 42.6951 15.3672 42.8161 15.4907C42.9357 15.6143 43.0733 15.7077 43.2257 15.773C43.3799 15.837 43.5425 15.8703 43.7146 15.8703C43.8848 15.8703 44.0468 15.8376 44.1991 15.773C44.3514 15.7071 44.489 15.6136 44.61 15.4907C44.7309 15.3672 44.8224 15.2258 44.8864 15.069C44.9511 14.9109 44.9824 14.7458 44.9824 14.5717Z" fill="#757475"/>
<path d="M47.17 13.3057V16.3022H46.6049V13.3057H45.6807V12.8257H48.0897V13.3057H47.17Z" fill="#757475"/>
<path d="M51.9123 14.5717C51.9123 14.8187 51.8643 15.0517 51.7722 15.2719C51.6807 15.4907 51.545 15.6879 51.3683 15.86C51.1891 16.0328 50.9869 16.1653 50.7629 16.2562C50.537 16.3483 50.3021 16.3944 50.0544 16.3944C49.8048 16.3944 49.5655 16.3483 49.3395 16.2555C49.1123 16.1627 48.912 16.0315 48.7373 15.86C48.5607 15.6872 48.4263 15.492 48.3335 15.2738C48.2419 15.0549 48.1959 14.8207 48.1959 14.5711C48.1959 14.3221 48.2419 14.0879 48.3335 13.8677C48.4263 13.6482 48.5607 13.4511 48.7373 13.277C48.9152 13.1042 49.1155 12.9717 49.3395 12.8821C49.5655 12.7919 49.8029 12.7471 50.0544 12.7471C50.3059 12.7471 50.5421 12.7919 50.7661 12.8821C50.9901 12.9717 51.1911 13.1042 51.3683 13.277C51.545 13.4517 51.6807 13.6507 51.7722 13.8715C51.8643 14.0923 51.9123 14.3253 51.9123 14.5717ZM51.3216 14.5717C51.3216 14.3951 51.2903 14.2287 51.2256 14.0699C51.1616 13.9112 51.0701 13.7711 50.9491 13.6475C50.8327 13.5259 50.6963 13.4312 50.5427 13.3659C50.3885 13.3 50.2259 13.268 50.0538 13.268C49.8835 13.268 49.7203 13.3 49.5661 13.3653C49.4119 13.4306 49.2743 13.5247 49.1552 13.6482C49.0343 13.7698 48.9427 13.9099 48.88 14.068C48.816 14.2255 48.784 14.3938 48.784 14.5717C48.784 14.7464 48.8154 14.9135 48.88 15.0696C48.9427 15.2264 49.0343 15.3672 49.1552 15.4907C49.2749 15.6143 49.4125 15.7077 49.5648 15.773C49.7191 15.837 49.8816 15.8703 50.0538 15.8703C50.224 15.8703 50.3859 15.8376 50.5383 15.773C50.6906 15.7071 50.8282 15.6136 50.9491 15.4907C51.0701 15.3672 51.1616 15.2258 51.2256 15.069C51.2903 14.9109 51.3216 14.7458 51.3216 14.5717Z" fill="#757475"/>
<path d="M53.0893 14.7463V16.3022H52.5601V12.8257H53.3479C53.5796 12.8257 53.7594 12.8404 53.8861 12.8711C54.0135 12.9006 54.1223 12.9505 54.2119 13.0196C54.3194 13.1041 54.4033 13.2122 54.4615 13.3454C54.5197 13.4778 54.5498 13.6238 54.5498 13.7818C54.5498 14.0602 54.4826 14.2785 54.3482 14.4359C54.2138 14.5927 54.0148 14.6881 53.7517 14.7194L54.9492 16.3015H54.3092L53.1533 14.7457H53.0893V14.7463ZM53.1252 14.3073H53.2269C53.5258 14.3073 53.7249 14.2727 53.8234 14.2023C53.922 14.1326 53.97 14.0097 53.97 13.8318C53.97 13.641 53.9175 13.5047 53.8132 13.4273C53.7069 13.3486 53.5124 13.3102 53.2269 13.3102H53.1252V14.3073Z" fill="#757475"/>
<path d="M55.2929 16.3022V12.8257H55.858V16.3022H55.2929Z" fill="#757475"/>
<path d="M57.7933 13.3057V16.3022H57.2282V13.3057H56.306V12.8257H58.713V13.3057H57.7933Z" fill="#757475"/>
<path d="M61.0867 16.3022L60.6919 15.4069H59.3152L58.9113 16.3022H58.3181L60.0019 12.6875L61.6839 16.3022H61.0867ZM59.5245 14.9365H60.4935L60.1376 14.1435C60.1165 14.0936 60.096 14.0353 60.0736 13.9694C60.0512 13.9035 60.0288 13.8305 60.0064 13.7505C59.9885 13.8261 59.9674 13.8965 59.9469 13.963C59.9258 14.0289 59.9034 14.0891 59.881 14.1441L59.5245 14.9365Z" fill="#757475"/>
<path d="M61.8105 15.6058L62.2624 15.3972C62.3059 15.552 62.3834 15.6711 62.4973 15.7517C62.6112 15.833 62.7578 15.8746 62.9338 15.8746C63.1027 15.8746 63.2358 15.8272 63.3344 15.7351C63.4329 15.6416 63.4822 15.5168 63.4822 15.36C63.4822 15.1552 63.3133 14.9735 62.9753 14.8135C62.9273 14.7904 62.8902 14.7725 62.8646 14.7616C62.4819 14.5748 62.2259 14.4058 62.0992 14.2541C61.9718 14.1031 61.9091 13.9181 61.9091 13.6992C61.9091 13.417 62.0051 13.1872 62.1965 13.0112C62.3891 12.8352 62.6419 12.7476 62.953 12.7476C63.2102 12.7476 63.424 12.7968 63.5962 12.896C63.7696 12.9946 63.8893 13.1367 63.9552 13.3216L63.5142 13.5495C63.4457 13.4413 63.3677 13.3607 63.2858 13.3101C63.2019 13.2596 63.1065 13.234 62.9984 13.234C62.8473 13.234 62.7264 13.2736 62.6368 13.353C62.5472 13.4324 62.5037 13.538 62.5037 13.6704C62.5037 13.8797 62.6995 14.0743 63.0912 14.2548C63.1213 14.2688 63.1449 14.2804 63.1629 14.2887C63.5065 14.4461 63.7427 14.601 63.8701 14.752C63.9987 14.9037 64.0627 15.0925 64.0627 15.3191C64.0627 15.648 63.9578 15.9098 63.7517 16.1031C63.5437 16.2976 63.264 16.3943 62.9113 16.3943C62.615 16.3943 62.3731 16.3264 62.183 16.1901C61.9929 16.0544 61.8688 15.8592 61.8105 15.6058Z" fill="#757475"/>
<path d="M41.9783 21.5062C42.0378 21.5759 42.0935 21.6265 42.1473 21.6579C42.201 21.6899 42.258 21.7059 42.3194 21.7059C42.4301 21.7059 42.5076 21.67 42.5524 21.5964C42.5972 21.5235 42.6196 21.3878 42.6196 21.1907V18.6614H43.1802V21.3731C43.1802 21.6675 43.1162 21.8844 42.9857 22.0227C42.8557 22.1609 42.6535 22.2307 42.377 22.2307C42.2247 22.2307 42.0884 22.2012 41.9661 22.1423C41.8433 22.0841 41.7268 21.9926 41.618 21.8697L41.9783 21.5062Z" fill="#757475"/>
<path d="M46.2203 22.1377L45.8254 21.2423H44.4481L44.0443 22.1377H43.4504L45.1342 18.5229L46.8149 22.1377H46.2203ZM44.6581 20.7719H45.627L45.2712 19.9789C45.2501 19.929 45.2277 19.8708 45.2072 19.8049C45.1848 19.7389 45.1624 19.666 45.14 19.586C45.1221 19.6615 45.1009 19.7319 45.0805 19.7985C45.0593 19.8644 45.0369 19.9245 45.0145 19.9796L44.6581 20.7719Z" fill="#757475"/>
<path d="M46.9453 21.442L47.3952 21.2333C47.4387 21.3882 47.5162 21.5073 47.6301 21.5879C47.744 21.6705 47.8899 21.7108 48.0685 21.7108C48.2362 21.7108 48.3686 21.6634 48.4678 21.5713C48.5664 21.4778 48.6176 21.353 48.6176 21.1962C48.6176 20.9921 48.4474 20.8097 48.1094 20.6497C48.0614 20.6266 48.0243 20.6087 47.9987 20.5978C47.616 20.4109 47.3619 20.242 47.2346 20.0909C47.1059 19.9393 47.0432 19.7543 47.0432 19.5354C47.0432 19.2525 47.1392 19.0234 47.3306 18.8474C47.5232 18.6714 47.776 18.5837 48.089 18.5837C48.3443 18.5837 48.5581 18.633 48.7321 18.7329C48.9043 18.8314 49.024 18.9735 49.0912 19.1591L48.6489 19.3869C48.5805 19.2775 48.5024 19.1969 48.4205 19.1469C48.3366 19.0964 48.2413 19.0708 48.1331 19.0708C47.9821 19.0708 47.8611 19.1105 47.7715 19.1898C47.6832 19.2692 47.6384 19.3748 47.6384 19.5079C47.6384 19.7172 47.8343 19.9117 48.2259 20.0922C48.2573 20.1063 48.2797 20.1178 48.2976 20.1261C48.6413 20.2842 48.8774 20.4385 49.0061 20.5895C49.1334 20.7412 49.1974 20.9293 49.1974 21.1559C49.1974 21.4849 49.0944 21.7466 48.8864 21.9399C48.6784 22.1345 48.3987 22.2317 48.0461 22.2317C47.7498 22.2317 47.5079 22.1639 47.3178 22.0276C47.1264 21.89 47.0023 21.6954 46.9453 21.442Z" fill="#757475"/>
<path d="M52.1083 22.1377L51.7153 21.2423H50.338L49.9342 22.1377H49.339L51.0241 18.5229L52.7048 22.1377H52.1083ZM50.546 20.7719H51.5163L51.1592 19.9789C51.138 19.929 51.1176 19.8708 51.0952 19.8049C51.0728 19.7389 51.0516 19.666 51.0292 19.586C51.01 19.6615 50.9889 19.7319 50.9678 19.7985C50.9467 19.8644 50.9262 19.9245 50.9038 19.9796L50.546 20.7719Z" fill="#757475"/>
<path d="M42.0071 27.9733V24.4968H42.5735V25.9349L43.8221 24.4968H44.5127L43.136 26.0431L44.6778 27.9733H43.9482L42.5741 26.1973V27.9733H42.0071Z" fill="#757475"/>
<path d="M45.0228 27.9733V24.4968H46.9632V24.9768H45.5892V25.8479H46.9632V26.3445H45.5892V27.4677H46.9632V27.9739H45.0228V27.9733Z" fill="#757475"/>
<path d="M47.5975 24.4973H48.155V26.608C48.155 26.9223 48.2279 27.1578 48.3719 27.3152C48.5185 27.472 48.7335 27.5508 49.0222 27.5508C49.3076 27.5508 49.5246 27.472 49.6699 27.3152C49.8151 27.1572 49.8868 26.9223 49.8868 26.608V24.4973H50.4519V26.6612C50.4519 27.1316 50.3323 27.4829 50.0961 27.7159C49.8587 27.9501 49.5009 28.0666 49.0228 28.0666C48.5441 28.0666 48.187 27.9501 47.9521 27.7178C47.7159 27.4848 47.5975 27.1322 47.5975 26.6612V24.4973Z" fill="#757475"/>
<path d="M53.4407 27.9734L53.0478 27.078H51.6705L51.2666 27.9734H50.6714L52.3566 24.3586L54.0372 27.9734H53.4407ZM51.8778 26.6076H52.8481L52.491 25.8146C52.4698 25.7647 52.4494 25.7065 52.427 25.6406C52.4046 25.5746 52.3834 25.5017 52.361 25.4217C52.3418 25.4972 52.3207 25.5682 52.2996 25.6342C52.2785 25.7001 52.258 25.7602 52.2356 25.8153L51.8778 26.6076Z" fill="#757475"/>
<path d="M54.3649 27.9734V24.3586L56.5736 26.4841C56.6337 26.5449 56.6945 26.6089 56.756 26.6767C56.8187 26.7446 56.8833 26.8207 56.9518 26.9071V24.4969H57.4734V28.1084L55.22 25.9446C55.1598 25.8863 55.1016 25.8242 55.0452 25.7596C54.9883 25.6943 54.9364 25.6265 54.8852 25.5548V27.9727H54.3649V27.9734Z" fill="#757475"/>
<path d="M60.1959 26.1922H61.5732C61.5732 26.2172 61.5745 26.2498 61.5764 26.2921C61.5809 26.4047 61.5841 26.4802 61.5841 26.5199C61.5841 27.0089 61.4433 27.3884 61.1636 27.6598C60.8826 27.9298 60.4878 28.0655 59.9777 28.0655C59.6922 28.0655 59.4381 28.0239 59.2154 27.9394C58.9927 27.8556 58.7969 27.7295 58.6292 27.5599C58.4647 27.3922 58.3374 27.1951 58.251 26.9692C58.1626 26.7426 58.1198 26.4994 58.1198 26.2428C58.1198 25.9798 58.1646 25.7372 58.2529 25.5164C58.3425 25.2943 58.4756 25.0985 58.6503 24.9295C58.8205 24.7638 59.0196 24.6364 59.2468 24.55C59.474 24.4623 59.7178 24.4194 59.9777 24.4194C60.2516 24.4194 60.4967 24.4694 60.713 24.5692C60.9281 24.669 61.1213 24.822 61.2903 25.0274L60.8775 25.3385C60.761 25.2022 60.6279 25.1017 60.4814 25.0351C60.3335 24.9686 60.169 24.9346 59.9866 24.9346C59.6097 24.9346 59.3031 25.0556 59.0644 25.2975C58.827 25.5388 58.7086 25.853 58.7086 26.239C58.7086 26.6313 58.827 26.95 59.0644 27.1951C59.3038 27.4396 59.6129 27.5612 59.993 27.5612C60.3162 27.5612 60.5703 27.4863 60.7553 27.3353C60.9389 27.1855 61.0317 26.9801 61.0317 26.7209V26.671H60.1959V26.1922Z" fill="#757475"/>
<path d="M64.4737 27.9734L64.0788 27.078H62.7015L62.2977 27.9734H61.7044L63.3882 24.3586L65.0689 27.9734H64.4737ZM62.9108 26.6076H63.8798L63.5239 25.8146C63.5028 25.7647 63.4804 25.7065 63.4599 25.6406C63.4375 25.5746 63.4151 25.5017 63.3927 25.4217C63.3748 25.4972 63.3537 25.5682 63.3332 25.6342C63.3121 25.7001 63.2897 25.7602 63.2673 25.8153L62.9108 26.6076Z" fill="#757475"/>
<path d="M65.3959 27.9734V24.3586L67.6057 26.4841C67.6659 26.5449 67.7254 26.6089 67.7881 26.6767C67.8496 26.7446 67.9136 26.8207 67.9827 26.9071V24.4969H68.5043V28.1084L66.2509 25.9446C66.1914 25.8863 66.1325 25.8242 66.0762 25.7596C66.0211 25.6943 65.9667 25.6265 65.9162 25.5548V27.9727H65.3959V27.9734Z" fill="#757475"/>
<defs>
<radialGradient id="paint0_radial_778_389" cx="0" cy="0" r="1" gradientUnits="userSpaceOnUse" gradientTransform="translate(20.2419 19.6951) scale(13.2581 13.2582)">
<stop stop-color="#C22026"/>
<stop offset="0.2393" stop-color="#A81C22"/>
<stop offset="0.5086" stop-color="#92191F"/>
<stop offset="0.7668" stop-color="#85181E"/>
<stop offset="1" stop-color="#80171D"/>
</radialGradient>
<radialGradient id="paint1_radial_778_389" cx="0" cy="0" r="1" gradientUnits="userSpaceOnUse" gradientTransform="translate(20.2414 19.6948) scale(13.2582 13.2582)">
<stop stop-color="#C22026"/>
<stop offset="0.2393" stop-color="#A81C22"/>
<stop offset="0.5086" stop-color="#92191F"/>
<stop offset="0.7668" stop-color="#85181E"/>
<stop offset="1" stop-color="#80171D"/>
</radialGradient>
<linearGradient id="paint2_linear_778_389" x1="28.0638" y1="10.806" x2="-1.26014" y2="5.33375" gradientUnits="userSpaceOnUse">
<stop stop-color="#E67D62"/>
<stop offset="0.0111" stop-color="#E16F59"/>
<stop offset="0.0385" stop-color="#D75347"/>
<stop offset="0.068" stop-color="#CF3D39"/>
<stop offset="0.1" stop-color="#C92D2F"/>
<stop offset="0.1367" stop-color="#C62429"/>
<stop offset="0.1882" stop-color="#C52127"/>
<stop offset="0.2248" stop-color="#C7262A"/>
<stop offset="0.2654" stop-color="#CB3332"/>
<stop offset="0.3078" stop-color="#D34941"/>
<stop offset="0.3513" stop-color="#DE6854"/>
<stop offset="0.3763" stop-color="#E67D62"/>
<stop offset="0.4143" stop-color="#E16F59"/>
<stop offset="0.5041" stop-color="#D75347"/>
<stop offset="0.6007" stop-color="#CF3D39"/>
<stop offset="0.7064" stop-color="#C92D2F"/>
<stop offset="0.8277" stop-color="#C62429"/>
<stop offset="1" stop-color="#C52127"/>
</linearGradient>
<linearGradient id="paint3_linear_778_389" x1="-8.97277" y1="12.0773" x2="31.6058" y2="10.5285" gradientUnits="userSpaceOnUse">
<stop stop-color="#7F8082"/>
<stop offset="0.1525" stop-color="#828385"/>
<stop offset="0.2598" stop-color="#8B8C8E"/>
<stop offset="0.3534" stop-color="#9B9B9D"/>
<stop offset="0.4389" stop-color="#B1B1B2"/>
<stop offset="0.5191" stop-color="#CDCDCE"/>
<stop offset="0.5943" stop-color="#EFEFF0"/>
<stop offset="0.6237" stop-color="white"/>
<stop offset="0.6404" stop-color="#F2F2F2"/>
<stop offset="0.6861" stop-color="#D3D4D5"/>
<stop offset="0.7307" stop-color="#BDBEC0"/>
<stop offset="0.7733" stop-color="#B0B0B3"/>
<stop offset="0.8118" stop-color="#ABACAF"/>
<stop offset="0.865" stop-color="#AEAFB2"/>
<stop offset="0.903" stop-color="#B7B8BB"/>
<stop offset="0.9362" stop-color="#C7C7C9"/>
<stop offset="0.9667" stop-color="#DDDDDF"/>
<stop offset="0.9951" stop-color="#F9F9FA"/>
<stop offset="1" stop-color="white"/>
</linearGradient>
</defs>
</svg>
