<svg width="80" height="80" viewBox="0 0 80 80" fill="none" xmlns="http://www.w3.org/2000/svg">
<circle cx="40" cy="40" r="40" fill="url(#paint0_linear_470_27286)"/>
<path d="M59.1799 60.4498H20.8199V27.9998L39.9999 15.8198L59.1799 27.9998V60.4498Z" fill="#FFC800"/>
<path d="M59.1799 60.4498H20.8199V27.9998L39.9999 15.8198L59.1799 27.9998V60.4498Z" fill="#163832"/>
<path d="M57.02 57.97H22.98V14.27H48.25L57.02 22.6V57.97Z" fill="#DAF1DE" stroke="#24663F" stroke-width="1.5" stroke-miterlimit="10"/>
<path d="M48.6299 14.6399L56.4999 22.0599C56.5399 22.0999 56.5099 22.1699 56.4599 22.1699H48.5699V14.6699C48.5799 14.6299 48.6099 14.6199 48.6299 14.6399Z" fill="#C3E0C7" stroke="#24663F" stroke-width="1.5" stroke-miterlimit="10"/>
<path d="M26.3083 22.7227L45.2283 22.7227V21.6027L26.3083 21.6027V22.7227Z" fill="#288C50"/>
<path d="M26.3083 25.5566L45.2283 25.5566V24.4366L26.3083 24.4366V25.5566Z" fill="#288C50"/>
<path d="M26.3083 28.3906L45.2283 28.3906V27.2706L26.3083 27.2706V28.3906Z" fill="#288C50"/>
<path d="M26.3014 31.2241L54.0314 31.2241V30.1041L26.3014 30.1041V31.2241Z" fill="#288C50"/>
<path d="M26.3014 34.0581H54.0314V32.9381H26.3014V34.0581Z" fill="#288C50"/>
<path d="M26.3014 36.8921H54.0314V35.7721H26.3014V36.8921Z" fill="#288C50"/>
<path d="M26.3014 39.7158H54.0314V38.5958H26.3014V39.7158Z" fill="#288C50"/>
<path d="M26.3014 42.5498H54.0314V41.4298H26.3014V42.5498Z" fill="#288C50"/>
<path d="M26.3014 45.3838H54.0314V44.2638H26.3014V45.3838Z" fill="#288C50"/>
<path d="M26.3014 48.2173H54.0314V47.0973H26.3014V48.2173Z" fill="#DCDCDC"/>
<path d="M26.3014 51.0513H54.0314V49.9313H26.3014V51.0513Z" fill="#DCDCDC"/>
<path d="M26.3014 53.875H54.0314V52.755H26.3014V53.875Z" fill="#DCDCDC"/>
<path d="M59.1799 36.1201V60.4501H20.8199V36.1201C22.4699 37.0501 24.0899 38.0301 25.7199 38.9901C27.3399 39.9601 28.9699 40.9401 30.5799 41.9301C32.3799 43.0201 34.1799 44.1401 35.9699 45.2601C35.9899 45.2501 36.0099 45.2401 36.0299 45.2301C36.0099 45.2401 35.9999 45.2601 35.9799 45.2701C37.3199 46.1101 38.6599 46.9501 40.0099 47.7901C41.3499 46.9501 42.6899 46.1001 44.0299 45.2701C44.0099 45.2601 43.9999 45.2401 43.9799 45.2301C43.9999 45.2401 44.0199 45.2501 44.0399 45.2601C45.8299 44.1401 47.6199 43.0301 49.4299 41.9301C51.0399 40.9401 52.6599 39.9701 54.2899 39.0001C55.9199 38.0301 57.5299 37.0501 59.1799 36.1201Z" fill="#24663F"/>
<g opacity="0.2">
<path d="M59.1799 36.1201C57.6299 37.2101 56.0499 38.2501 54.4899 39.3201C52.9199 40.3701 51.3399 41.4201 49.7499 42.4501C48.0999 43.5301 46.4399 44.6001 44.7799 45.6701C44.7299 45.7001 44.6799 45.7401 44.6299 45.7701C43.1599 46.7101 41.6899 47.6501 40.2099 48.5901L39.9999 48.7301L39.7899 48.6001C38.3199 47.6601 36.8499 46.7201 35.3799 45.7801C35.3299 45.7501 35.2799 45.7201 35.2199 45.6801C33.5499 44.6101 31.8999 43.5401 30.2399 42.4501C28.6599 41.4201 27.0799 40.3701 25.5099 39.3201C23.9499 38.2501 22.3699 37.2101 20.8199 36.1201C22.4699 37.0501 24.0899 38.0301 25.7199 38.9901C27.3399 39.9601 28.9699 40.9401 30.5799 41.9301C32.3799 43.0201 34.1799 44.1401 35.9699 45.2601C35.9799 45.2601 35.9799 45.2601 35.9799 45.2701C37.3199 46.1101 38.6599 46.9501 40.0099 47.7901C41.3499 46.9501 42.6899 46.1001 44.0299 45.2701C44.0399 45.2601 44.0399 45.2601 44.0399 45.2601C45.8299 44.1401 47.6199 43.0301 49.4299 41.9301C51.0399 40.9401 52.6599 39.9701 54.2899 39.0001C55.9199 38.0301 57.5299 37.0501 59.1799 36.1201Z" fill="#163832"/>
<path d="M36.0199 45.2202C35.9999 45.2302 35.9899 45.2502 35.9699 45.2602C35.7699 45.4302 35.5699 45.6102 35.3599 45.7702C34.3999 46.5802 33.4099 47.3602 32.4099 48.1102C31.1899 49.0402 29.9399 49.9402 28.6799 50.8202C27.4199 51.6902 26.1499 52.5502 24.8499 53.3802C23.5499 54.2102 22.2499 55.0202 20.8899 55.7702C22.0499 54.7502 23.2599 53.8002 24.4899 52.8702C25.7199 51.9402 26.9699 51.0402 28.2199 50.1602C29.4899 49.2802 30.7499 48.4202 32.0499 47.5902C33.0799 46.9302 34.1299 46.2802 35.1999 45.6702C35.4499 45.5302 35.6999 45.3902 35.9499 45.2502C35.9799 45.2502 35.9999 45.2402 36.0199 45.2202Z" fill="#163832"/>
<path d="M59.09 55.7802C57.74 55.0402 56.42 54.2202 55.13 53.3902C53.83 52.5602 52.57 51.7002 51.3 50.8302C50.04 49.9402 48.79 49.0502 47.57 48.1202C46.57 47.3702 45.59 46.5902 44.63 45.7802C44.42 45.6102 44.22 45.4302 44.02 45.2602C44 45.2502 43.99 45.2302 43.97 45.2202C43.99 45.2302 44.01 45.2402 44.03 45.2502C44.28 45.3902 44.53 45.5302 44.78 45.6802C45.85 46.2902 46.89 46.9402 47.93 47.6002C49.23 48.4302 50.49 49.2902 51.76 50.1702C53.02 51.0602 54.27 51.9502 55.49 52.8802C56.72 53.8102 57.93 54.7602 59.09 55.7802Z" fill="#163832"/>
</g>
<path d="M13.24 63.6602H66.76" stroke="#24663F" stroke-width="0.7" stroke-miterlimit="10"/>
<path d="M22.54 65.73H57.46" stroke="#24663F" stroke-width="0.7" stroke-miterlimit="10"/>
<path d="M40.64 52.1199L40.74 51.6599H41.83L41.2 54.6199C41.16 54.8099 41.14 54.9299 41.14 54.9899C41.14 55.0499 41.16 55.0999 41.19 55.1399C41.22 55.1799 41.26 55.1899 41.3 55.1899C41.45 55.1899 41.64 55.0899 41.88 54.8999C42.12 54.7099 42.32 54.4399 42.49 54.1099C42.66 53.7799 42.75 53.4099 42.75 53.0099C42.75 52.6799 42.69 52.3699 42.56 52.0799C42.43 51.7899 42.25 51.5399 42.02 51.3199C41.79 51.0999 41.49 50.9399 41.14 50.8199C40.79 50.6999 40.4 50.6399 39.96 50.6399C39.51 50.6399 39.1 50.6999 38.73 50.8199C38.36 50.9399 38.03 51.0999 37.74 51.3199C37.45 51.5399 37.22 51.8099 37.03 52.1299C36.86 52.4099 36.73 52.7199 36.65 53.0599C36.56 53.3999 36.52 53.7499 36.52 54.0999C36.52 54.5699 36.61 55.0099 36.8 55.3999C36.99 55.7899 37.26 56.1199 37.62 56.3899C37.98 56.6599 38.41 56.8399 38.92 56.9599C39.43 57.0799 40 57.0899 40.64 57.0299C41.15 56.9699 41.58 56.8499 41.93 56.6799C42.28 56.5099 42.58 56.2699 42.83 55.9599H43.71C43.57 56.2499 43.38 56.5199 43.15 56.7499C42.92 56.9799 42.65 57.1799 42.34 57.3299C42.03 57.4899 41.69 57.6099 41.3 57.6899C40.91 57.7699 40.5 57.8099 40.05 57.8099C39.37 57.8099 38.76 57.7199 38.22 57.5399C37.68 57.3599 37.22 57.1099 36.85 56.7699C36.48 56.4399 36.2 56.0399 36.01 55.5699C35.82 55.1099 35.73 54.5899 35.73 54.0299C35.73 53.4399 35.83 52.8999 36.02 52.3899C36.22 51.8799 36.5 51.4399 36.86 51.0599C37.23 50.6799 37.68 50.3899 38.2 50.1799C38.73 49.9699 39.31 49.8599 39.95 49.8599C40.47 49.8599 40.95 49.9399 41.39 50.0899C41.83 50.2399 42.2 50.4599 42.51 50.7499C42.82 51.0399 43.06 51.3699 43.22 51.7699C43.38 52.1599 43.47 52.5899 43.47 53.0699C43.47 53.4399 43.4 53.7999 43.27 54.1499C43.14 54.4999 42.95 54.8199 42.7 55.0999C42.45 55.3799 42.16 55.5999 41.83 55.7699C41.5 55.9299 41.14 56.0199 40.75 56.0199C40.53 56.0199 40.35 55.9799 40.23 55.9099C40.11 55.8399 40.02 55.7099 39.98 55.5499C39.74 55.7899 39.47 55.9399 39.16 55.9999C38.85 56.0599 38.55 56.0299 38.26 55.9099C37.97 55.7899 37.73 55.5899 37.55 55.3099C37.37 55.0299 37.28 54.6799 37.28 54.2599C37.28 53.8299 37.37 53.3999 37.56 52.9899C37.75 52.5799 38.01 52.2299 38.35 51.9599C38.69 51.6899 39.08 51.5599 39.51 51.5599C40.04 51.5699 40.4 51.7499 40.64 52.1199ZM38.38 54.2599C38.38 54.5899 38.45 54.8399 38.59 55.0199C38.73 55.1999 38.91 55.2799 39.13 55.2799C39.39 55.2799 39.62 55.1799 39.81 54.9699C40.01 54.7599 40.16 54.4999 40.26 54.1899C40.36 53.8799 40.41 53.5699 40.41 53.2799C40.41 53.1299 40.39 52.9999 40.36 52.8899C40.33 52.7699 40.27 52.6699 40.21 52.5799C40.14 52.4899 40.06 52.4299 39.97 52.3799C39.88 52.3299 39.77 52.3099 39.65 52.3099C39.41 52.3099 39.19 52.3999 39 52.5899C38.81 52.7799 38.66 53.0199 38.55 53.3199C38.43 53.6299 38.38 53.9399 38.38 54.2599Z" fill="#DAF1DE"/>
<defs>
<linearGradient id="paint0_linear_470_27286" x1="40" y1="0" x2="40" y2="80" gradientUnits="userSpaceOnUse">
<stop stop-color="#E1FFED"/>
<stop offset="1" stop-color="#E1FFED" stop-opacity="0"/>
</linearGradient>
</defs>
</svg>
