<svg width="80" height="80" viewBox="0 0 80 80" fill="none" xmlns="http://www.w3.org/2000/svg">
<circle cx="40" cy="40" r="40" fill="url(#paint0_linear_1228_27085)"/>
<path d="M12.9999 39.4193C12.9999 39.0674 13.1758 38.8915 13.5277 38.7156L62.783 14.088H62.871L62.9589 14C63.0469 14 63.1348 14 63.1348 14C63.2228 14 63.2228 14 63.3108 14C63.3987 14 63.3987 14 63.4866 14.088H63.5746C63.5746 14.088 63.5746 14.088 63.6626 14.088L63.7506 14.176L63.8384 14.2638V14.3518C63.8384 14.4398 63.9264 14.4398 63.9264 14.5278C63.9264 14.6158 63.9264 14.6158 63.9264 14.7037C64.0144 14.7916 64.0144 14.8796 64.0144 14.8796C64.0144 14.9675 64.0144 14.9675 64.0144 15.0555V15.1434L49.9415 64.3988C49.8535 64.6627 49.5897 64.9266 49.3258 65.0145C49.2378 65.0145 49.1499 65.0145 49.062 65.0145C48.7981 65.0145 48.6222 64.9265 48.4463 64.7507L38.6832 54.9876L32.2625 64.6627C32.1745 64.7507 32.1745 64.8386 32.0865 64.8386C32.0865 64.8386 32.0865 64.8386 31.9985 64.8386C31.9105 64.8386 31.9105 64.9266 31.8226 64.9266H31.7346C31.6466 64.9266 31.5586 64.9266 31.4707 64.9266C31.4707 64.9266 31.4707 64.9266 31.3828 64.9266C31.2948 64.9266 31.2068 64.9266 31.2068 64.9266C31.2068 64.9266 31.1188 64.9266 31.1188 64.8386C31.1188 64.8386 31.0308 64.8386 31.0308 64.7507C30.9429 64.6627 30.9429 64.6627 30.8549 64.5747C30.8549 64.5747 30.8549 64.4867 30.7669 64.4867C30.6789 64.3987 30.6789 64.3107 30.6789 64.2229L27.2486 47.0714L13.5275 40.2109C13.2638 40.035 12.9999 39.7711 12.9999 39.4193ZM48.6221 62.4638L61.1119 18.8376L36.2203 49.9741L48.6221 62.4638ZM37.2757 53.7561L35.4287 51.8211L33.4936 59.4732L37.2757 53.7561ZM31.5586 60.089L34.1094 49.8861C34.1094 49.7981 34.1973 49.7101 34.1973 49.6223V49.5343L55.7466 22.7076L28.92 46.8076L31.5586 60.089ZM27.7765 45.4883L57.6815 18.5737L15.8145 39.5072L27.7765 45.4883Z" fill="#27AE60"/>
<path d="M62.4764 34.6619C62.5644 34.2221 63.0921 33.8703 63.5319 34.0463C63.9717 34.1343 64.3235 34.6619 64.1476 35.1017L60.6294 49.1747C60.6294 49.5265 60.1896 49.7903 59.8377 49.7903C59.7498 49.7903 59.6618 49.7903 59.6618 49.7903C59.222 49.7024 58.8702 49.1747 59.0461 48.7349L62.4764 34.6619Z" fill="#F7941D"/>
<path d="M49.5013 15.5836L42.4648 19.1018C42.2888 19.2777 42.201 19.2777 42.025 19.2777C41.6732 19.2777 41.4093 19.1018 41.2334 18.75C41.0574 18.3102 41.2334 17.7825 41.5852 17.6065L48.7097 14.0883C49.1495 13.9124 49.6772 14.0883 49.8531 14.4401C50.029 14.8799 49.8531 15.4076 49.5013 15.5836Z" fill="#F7941D"/>
<path d="M23.8179 49.446C24.1698 49.0942 24.6975 49.0942 25.0494 49.446C25.4012 49.7978 25.4012 50.3256 25.0494 50.6774L21.5312 54.1956C21.3552 54.3716 21.0914 54.4595 20.9155 54.4595C20.7395 54.4595 20.4757 54.3715 20.2998 54.1956C19.948 53.8438 19.948 53.316 20.2998 52.9642L23.8179 49.446Z" fill="#F7941D"/>
<path d="M23.8177 56.4836C24.1695 56.1318 24.6973 56.1318 25.0491 56.4836C25.4009 56.8354 25.4009 57.3632 25.0491 57.715L21.5309 61.2332C21.355 61.4092 21.0911 61.4971 20.9153 61.4971C20.7393 61.4971 20.4755 61.4091 20.2996 61.2332C19.9478 60.8814 19.9478 60.3536 20.2996 60.0018L23.8177 56.4836Z" fill="#F7941D"/>
<path d="M13.2636 52.9639L20.3001 45.9274C20.6519 45.5756 21.1797 45.5756 21.5315 45.9274C21.8834 46.2793 21.8834 46.807 21.5315 47.1589L14.495 54.1954C14.3191 54.3713 14.0552 54.4592 13.8794 54.4592C13.7034 54.4592 13.4396 54.3712 13.2637 54.1954C12.9118 53.8435 12.9118 53.3158 13.2636 52.9639Z" fill="#F7941D"/>
<defs>
<linearGradient id="paint0_linear_1228_27085" x1="40" y1="0" x2="40" y2="80" gradientUnits="userSpaceOnUse">
<stop stop-color="#E3FAE8"/>
<stop offset="1" stop-color="#E3FAE8" stop-opacity="0"/>
</linearGradient>
</defs>
</svg>
