<svg width="80" height="80" viewBox="0 0 80 80" fill="none" xmlns="http://www.w3.org/2000/svg">
<circle cx="40" cy="40" r="40" fill="url(#paint0_linear_470_27316)"/>
<path d="M13 39.4193C13 39.0674 13.1759 38.8915 13.5278 38.7156L62.7831 14.088H62.8711L62.9591 14C63.047 14 63.1349 14 63.1349 14C63.2229 14 63.2229 14 63.3109 14C63.3989 14 63.3989 14 63.4867 14.088H63.5747C63.5747 14.088 63.5747 14.088 63.6627 14.088L63.7507 14.176L63.8386 14.2638V14.3518C63.8386 14.4398 63.9265 14.4398 63.9265 14.5278C63.9265 14.6158 63.9265 14.6158 63.9265 14.7037C64.0145 14.7916 64.0145 14.8796 64.0145 14.8796C64.0145 14.9675 64.0145 14.9675 64.0145 15.0555V15.1434L49.9416 64.3988C49.8536 64.6627 49.5898 64.9266 49.3259 65.0145C49.238 65.0145 49.15 65.0145 49.0621 65.0145C48.7983 65.0145 48.6223 64.9265 48.4464 64.7507L38.6833 54.9876L32.2626 64.6627C32.1746 64.7507 32.1746 64.8386 32.0866 64.8386C32.0866 64.8386 32.0866 64.8386 31.9986 64.8386C31.9107 64.8386 31.9107 64.9266 31.8227 64.9266H31.7347C31.6467 64.9266 31.5588 64.9266 31.4709 64.9266C31.4709 64.9266 31.4709 64.9266 31.3829 64.9266C31.2949 64.9266 31.2069 64.9266 31.2069 64.9266C31.2069 64.9266 31.1189 64.9266 31.1189 64.8386C31.1189 64.8386 31.031 64.8386 31.031 64.7507C30.943 64.6627 30.943 64.6627 30.855 64.5747C30.855 64.5747 30.855 64.4867 30.767 64.4867C30.679 64.3987 30.679 64.3107 30.679 64.2229L27.2487 47.0714L13.5276 40.2109C13.2639 40.035 13 39.7711 13 39.4193ZM48.6222 62.4638L61.112 18.8376L36.2204 49.9741L48.6222 62.4638ZM37.2759 53.7561L35.4288 51.8211L33.4937 59.4732L37.2759 53.7561ZM31.5587 60.089L34.1095 49.8861C34.1095 49.7981 34.1975 49.7101 34.1975 49.6223V49.5343L55.7467 22.7076L28.9201 46.8076L31.5587 60.089ZM27.7766 45.4883L57.6817 18.5737L15.8146 39.5072L27.7766 45.4883Z" fill="#24663F"/>
<path d="M62.4766 34.6619C62.5645 34.2221 63.0922 33.8703 63.532 34.0463C63.9718 34.1343 64.3236 34.6619 64.1477 35.1017L60.6295 49.1747C60.6295 49.5265 60.1897 49.7903 59.8379 49.7903C59.7499 49.7903 59.6619 49.7903 59.6619 49.7903C59.2221 49.7024 58.8703 49.1747 59.0462 48.7349L62.4766 34.6619Z" fill="#288C50"/>
<path d="M49.5014 15.5838L42.4649 19.102C42.2889 19.278 42.201 19.278 42.0251 19.278C41.6732 19.278 41.4094 19.102 41.2334 18.7502C41.0575 18.3104 41.2334 17.7827 41.5853 17.6068L48.7097 14.0886C49.1495 13.9126 49.6772 14.0886 49.8532 14.4404C50.0291 14.8802 49.8532 15.4079 49.5014 15.5838Z" fill="#288C50"/>
<path d="M23.8181 49.446C24.1699 49.0942 24.6977 49.0942 25.0495 49.446C25.4013 49.7978 25.4013 50.3256 25.0495 50.6774L21.5313 54.1956C21.3553 54.3716 21.0915 54.4595 20.9156 54.4595C20.7397 54.4595 20.4758 54.3715 20.3 54.1956C19.9481 53.8438 19.9481 53.316 20.3 52.9642L23.8181 49.446Z" fill="#288C50"/>
<path d="M23.8179 56.4836C24.1697 56.1318 24.6975 56.1318 25.0493 56.4836C25.4011 56.8354 25.4011 57.3632 25.0493 57.715L21.5311 61.2332C21.3551 61.4092 21.0913 61.4971 20.9154 61.4971C20.7395 61.4971 20.4756 61.4091 20.2998 61.2332C19.948 60.8814 19.948 60.3536 20.2998 60.0018L23.8179 56.4836Z" fill="#288C50"/>
<path d="M13.2638 52.9639L20.3003 45.9274C20.6521 45.5756 21.1799 45.5756 21.5317 45.9274C21.8835 46.2793 21.8835 46.807 21.5317 47.1589L14.4952 54.1954C14.3193 54.3713 14.0554 54.4592 13.8796 54.4592C13.7036 54.4592 13.4398 54.3712 13.2639 54.1954C12.912 53.8435 12.912 53.3158 13.2638 52.9639Z" fill="#288C50"/>
<defs>
<linearGradient id="paint0_linear_470_27316" x1="40" y1="0" x2="40" y2="80" gradientUnits="userSpaceOnUse">
<stop stop-color="#E1FFED"/>
<stop offset="1" stop-color="#E1FFED" stop-opacity="0"/>
</linearGradient>
</defs>
</svg>
