<svg width="80" height="80" viewBox="0 0 80 80" fill="none" xmlns="http://www.w3.org/2000/svg">
<circle cx="40" cy="40" r="40" fill="url(#paint0_linear_1228_27466)"/>
<path d="M39.1791 14.644L15 34.1814V37.8225H40.5H66V34.1814L41.8209 14.644C41.0504 14.0213 39.9496 14.0213 39.1791 14.644Z" fill="#103479"/>
<path d="M61.7969 58.015H19.2035C18.0428 58.015 17.1018 57.074 17.1018 55.9133V16.1017C17.1018 14.941 18.0427 14 19.2035 14H61.7969C62.9575 14 63.8985 14.941 63.8985 16.1017V55.9134C63.8985 57.0742 62.9576 58.015 61.7969 58.015Z" fill="url(#paint1_linear_1228_27466)"/>
<path d="M63.8984 54.7427V55.5608C63.8984 56.9156 62.7988 58.0152 61.444 58.0152H19.5562C18.2013 58.0152 17.1018 56.9155 17.1018 55.5608V54.7427H63.8984Z" fill="url(#paint2_linear_1228_27466)"/>
<path d="M53.7016 20.655H27.2984C27.1222 20.655 26.9792 20.7979 26.9792 20.9742C26.9792 21.1505 27.1222 21.2934 27.2984 21.2934H53.7016C53.8779 21.2934 54.0208 21.1505 54.0208 20.9742C54.0208 20.7979 53.8779 20.655 53.7016 20.655Z" fill="#F7941D"/>
<path d="M53.7016 26.8198H27.2984C27.1222 26.8198 26.9792 26.9627 26.9792 27.139C26.9792 27.3153 27.1222 27.4582 27.2984 27.4582H53.7016C53.8779 27.4582 54.0208 27.3153 54.0208 27.139C54.0208 26.9627 53.8779 26.8198 53.7016 26.8198Z" fill="#F7941D"/>
<path d="M53.7016 33.1245H27.2984C27.1222 33.1245 26.9792 33.2674 26.9792 33.4437C26.9792 33.62 27.1222 33.7629 27.2984 33.7629H53.7016C53.8779 33.7629 54.0208 33.62 54.0208 33.4437C54.0208 33.2674 53.8779 33.1245 53.7016 33.1245Z" fill="#F7941D"/>
<path d="M53.7016 39.4297H27.2984C27.1222 39.4297 26.9792 39.5726 26.9792 39.7489C26.9792 39.9252 27.1222 40.0681 27.2984 40.0681H53.7016C53.8779 40.0681 54.0208 39.9252 54.0208 39.7489C54.0208 39.5726 53.8779 39.4297 53.7016 39.4297Z" fill="#F7941D"/>
<path d="M66 34.2273V62.968C66 64.1282 65.0585 65.0697 63.8983 65.0697H17.1017C15.9415 65.0697 15 64.1282 15 62.968V34.2273L40.7803 54.5615L66 34.2273Z" fill="url(#paint3_linear_1228_27466)"/>
<path d="M65.7166 64.0187L42.0994 44.9765C41.3296 44.3558 40.231 44.3558 39.4612 44.9765L15.4839 64.3089C15.8695 64.7734 16.4509 65.0695 17.1018 65.0695H63.8984C64.6759 65.0695 65.3532 64.6463 65.7166 64.0187Z" fill="url(#paint4_linear_1228_27466)"/>
<path d="M17.757 56.5687V16.7568C17.757 15.5961 18.698 14.6551 19.8587 14.6551H62.4521C62.8645 14.6551 63.2481 14.7757 63.5726 14.981C63.2003 14.3922 62.5451 14 61.7969 14H19.2035C18.0428 14 17.1018 14.941 17.1018 16.1017V55.9134C17.1018 56.6617 17.494 57.3169 18.0829 57.6893C17.8776 57.3646 17.757 56.9811 17.757 56.5687Z" fill="url(#paint5_linear_1228_27466)"/>
<defs>
<linearGradient id="paint0_linear_1228_27466" x1="40" y1="0" x2="40" y2="80" gradientUnits="userSpaceOnUse">
<stop stop-color="#E3FAE8"/>
<stop offset="1" stop-color="#E3FAE8" stop-opacity="0"/>
</linearGradient>
<linearGradient id="paint1_linear_1228_27466" x1="21.8289" y1="17.3341" x2="70.8374" y2="66.3436" gradientUnits="userSpaceOnUse">
<stop stop-color="white"/>
<stop offset="1" stop-color="#E8EFEE"/>
</linearGradient>
<linearGradient id="paint2_linear_1228_27466" x1="64.3072" y1="54.3672" x2="14.8646" y2="58.3476" gradientUnits="userSpaceOnUse">
<stop stop-color="#C2CECE" stop-opacity="0"/>
<stop offset="0.179" stop-color="#AFBCBC" stop-opacity="0.179"/>
<stop offset="1" stop-color="#5B6A6A"/>
</linearGradient>
<linearGradient id="paint3_linear_1228_27466" x1="40.5008" y1="44.0355" x2="40.5008" y2="62.965" gradientUnits="userSpaceOnUse">
<stop stop-color="#27AE60"/>
<stop offset="1" stop-color="#27823B"/>
</linearGradient>
<linearGradient id="paint4_linear_1228_27466" x1="40.601" y1="44.6415" x2="40.601" y2="65.0695" gradientUnits="userSpaceOnUse">
<stop stop-color="#27AE60"/>
<stop offset="1" stop-color="#27AE60"/>
</linearGradient>
<linearGradient id="paint5_linear_1228_27466" x1="28.621" y1="24.1269" x2="-7.24619" y2="-11.7392" gradientUnits="userSpaceOnUse">
<stop stop-color="#C2CECE" stop-opacity="0"/>
<stop offset="0.179" stop-color="#AFBCBC" stop-opacity="0.179"/>
<stop offset="1" stop-color="#5B6A6A"/>
</linearGradient>
</defs>
</svg>
