<svg width="194" height="140" viewBox="0 0 194 140" fill="none" xmlns="http://www.w3.org/2000/svg">
<path d="M10.0267 105.189C10.0267 105.189 26.4705 96.6778 35.1469 95.1078C43.8233 93.5378 53.6565 98.9915 73.4055 99.6525C93.072 100.314 114.061 90.3977 126.786 89.9846C139.511 89.6541 160.83 102.875 160.83 102.875C160.83 102.875 164.383 107.007 153.724 107.668C143.064 108.329 131.165 109.238 131.083 110.395C130.917 111.469 156.203 113.865 155.872 115.187C155.624 116.509 151.162 119.236 138.189 119.567C125.216 119.897 121.828 117.418 117.779 116.427C117.779 116.427 113.895 116.262 115.052 118.823C116.209 121.385 125.299 121.22 124.472 125.021C123.646 128.822 95.3857 127.417 85.7177 127.582C76.0498 127.747 65.8034 130.805 48.9464 130.805C32.0895 130.805 17.1331 129.979 16.472 129.4C15.7283 128.739 32.2548 117.832 43.9059 116.509C43.9059 116.509 17.8768 118.493 8.86988 117.832C-0.137017 117.171 -0.715443 112.213 0.441407 110.643C1.59826 108.742 9.11778 105.685 10.0267 105.189Z" fill="#F9CC95"/>
<path d="M121.745 135.102C121.745 135.102 106.128 130.061 98.691 129.648C91.2541 129.235 74.645 135.515 74.645 135.515C74.645 135.515 76.6282 139.564 90.3451 139.977C103.897 140.39 121.745 135.102 121.745 135.102Z" fill="#F9CC95"/>
<path d="M121.745 135.102C121.745 135.102 115.548 137.25 111.086 137.333C106.706 137.415 101.17 134.689 100.839 132.292C100.509 129.896 98.1123 129.731 98.1123 129.731C98.1123 129.731 101.004 129.648 109.185 131.383C117.283 133.119 121.745 135.102 121.745 135.102Z" fill="#C49A72"/>
<path d="M74.5625 135.432C74.5625 135.432 76.9588 137.167 87.2878 137.25C97.6169 137.333 99.5174 133.201 99.6 131.383C99.6827 129.565 96.6253 129.565 96.6253 129.565C96.6253 129.565 88.5273 130.392 74.5625 135.432Z" fill="url(#paint0_linear_1154_6798)"/>
<path d="M121.745 135.102C121.745 135.102 115.961 136.672 113.4 137.085C110.838 137.581 106.789 137.333 103.484 135.432C100.178 133.532 101.005 131.714 100.261 130.722C99.5174 129.731 98.1953 129.648 98.1953 129.648C98.1953 129.648 101.005 129.4 101.914 131.053C102.823 132.705 103.484 134.854 110.838 135.267C118.192 135.68 121.745 135.102 121.745 135.102Z" fill="url(#paint1_linear_1154_6798)"/>
<path d="M101.087 133.284C101.087 133.284 102.327 135.928 106.789 136.92C111.251 137.911 115.217 136.754 115.217 136.754L121.663 135.019C121.663 135.019 117.779 136.011 111.747 136.589C105.715 137.25 101.418 134.11 101.087 133.284Z" fill="#A57C59"/>
<path d="M39.0308 94.8599C39.0308 94.8599 45.0629 102.71 60.1846 104.197C75.3063 105.685 83.9 99.4873 83.9 99.4873C83.9 99.4873 74.0668 99.1568 65.473 99.0741C56.9619 98.9915 44.6497 94.2815 39.0308 94.8599Z" fill="#C49A72"/>
<path d="M39.0308 121.385C39.0308 121.385 44.3192 125.351 54.0698 127.582C63.8204 129.813 73.3231 128.656 73.3231 128.656C73.3231 128.656 63.6551 122.707 39.0308 121.385Z" fill="#C49A72"/>
<path d="M160.83 102.875C160.83 102.875 151.328 102.958 140.916 99.6525C130.422 96.3473 129.43 89.9846 129.43 89.9846C129.43 89.9846 138.602 90.3977 146.618 94.9425C154.137 99.2394 160.83 102.875 160.83 102.875Z" fill="#C49A72"/>
<path d="M155.79 115.105C155.79 115.105 156.038 114.692 153.476 114.03C150.914 113.369 131.826 110.89 131.661 110.395C131.496 109.899 135.627 108.99 144.386 108.246C153.146 107.585 156.864 107.916 159.508 106.924C162.07 105.933 161.822 103.701 160.748 102.793C160.748 102.793 161.822 105.437 157.525 105.933C153.228 106.428 131.331 106.759 128.191 108.659C125.051 110.56 126.868 112.13 132.487 112.874C138.106 113.7 151.989 113.617 155.79 115.105Z" fill="#C49A72"/>
<path d="M0.524107 110.395C0.524107 110.395 0.358843 109.816 5.89519 106.842C11.4315 103.867 25.9748 97.6693 31.4285 96.0993C36.8822 94.5293 39.1133 94.8599 39.1133 94.8599C39.1133 94.8599 42.8317 99.9004 42.997 102.131C43.1623 104.28 40.3528 108.907 27.2143 112.378C14.0758 115.848 4.98624 115.766 1.92885 114.278C-1.12853 112.791 0.524107 110.395 0.524107 110.395Z" fill="url(#paint2_linear_1154_6798)"/>
<path d="M39.0307 121.385C39.0307 121.385 29.4454 122.128 16.4722 129.235C16.4722 129.235 23.3306 129.978 33.9075 129.565C44.4844 129.152 44.3192 128.574 43.906 126.508C43.4929 124.442 39.0307 121.385 39.0307 121.385Z" fill="url(#paint3_linear_1154_6798)"/>
<path d="M117.2 113.452C117.2 113.452 97.7819 114.939 90.5102 116.262C83.2386 117.584 77.1238 118.741 77.1238 118.741L70.1001 119.98C70.1001 119.98 79.4375 125.434 94.5592 125.351C109.598 125.351 117.283 123.368 117.283 123.368C117.283 123.368 110.672 121.054 111.664 116.923C112.242 114.278 117.2 113.452 117.2 113.452Z" fill="url(#paint4_linear_1154_6798)"/>
<path d="M96.9556 97.9999C96.9556 97.9999 98.3603 98.5783 99.6824 97.9173L100.013 97.091C100.013 97.091 112.821 94.6946 118.853 93.7857C124.885 92.7941 128.686 92.0504 134.14 92.2983C134.14 92.2983 131.331 94.8599 137.115 97.5867C142.899 100.314 144.552 100.727 144.552 100.727C144.552 100.727 104.723 100.479 101.418 100.066C98.1124 99.6525 96.9556 97.9999 96.9556 97.9999Z" fill="#C49A72"/>
<path d="M130.587 93.4551C123.563 92.9593 100.013 97.0909 100.013 97.0909L99.7651 97.5867C99.7651 97.5867 98.8561 98.6609 96.9556 97.9999C96.9556 97.9999 97.6993 98.7436 99.6824 98.5783C101.666 98.413 132.074 98.3304 134.966 97.9173C137.941 97.4215 130.587 93.4551 130.587 93.4551Z" fill="#A57C59"/>
<path d="M99.9302 97.3388L99.8476 97.5867C99.8476 97.5867 99.4344 98.2478 98.1123 98.1652C98.1123 98.1652 129.265 97.0909 129.265 96.0167C129.265 94.8599 125.711 94.6946 123.398 94.7772C121.084 94.7772 99.9302 97.3388 99.9302 97.3388Z" fill="#8C6A50"/>
<path d="M6.22559 117.253C6.22559 117.253 7.13454 118.575 19.1162 118.327C31.0978 118.08 35.6426 117.336 35.8905 117.832C36.221 118.245 32.7505 119.071 24.9831 123.368C24.9831 123.368 36.1384 118.823 42.9142 117.832C49.6901 116.923 50.6817 116.84 50.1859 115.27C49.6074 113.7 29.1147 115.022 20.6862 116.096C12.2577 117.171 8.86981 117.584 6.22559 117.253Z" fill="url(#paint5_linear_1154_6798)"/>
<path d="M125.96 106.263C125.96 106.263 115.878 108.907 105.467 111.386C95.0551 113.865 87.2051 113.948 87.2051 113.948C87.2051 113.948 98.6909 115.766 109.846 113.948C121.002 112.13 125.216 116.014 132.818 116.096C140.42 116.096 142.238 115.766 142.238 115.766C142.238 115.766 128.604 114.361 124.307 111.799C120.01 109.073 125.96 106.263 125.96 106.263Z" fill="url(#paint6_linear_1154_6798)"/>
<path d="M129.348 89.9846C129.348 89.9846 129.513 93.2899 136.289 97.5867C143.065 101.884 158.352 103.04 160.748 102.875C160.748 102.875 152.815 98.4131 152.65 98.3304C152.567 98.3304 154.055 100.148 152.98 100.314C151.989 100.479 138.85 96.7604 135.793 94.6946C132.736 92.6288 132.983 90.3977 132.983 90.3977L129.348 89.9846Z" fill="url(#paint7_linear_1154_6798)"/>
<path d="M92.9069 135.019C92.2458 133.78 89.7669 134.441 90.4279 135.597C91.089 136.754 93.5679 136.176 92.9069 135.019Z" fill="#D1A67C"/>
<path d="M100.178 137.333C99.8478 136.672 98.6083 137.085 98.9388 137.663C99.1867 138.159 100.426 137.911 100.178 137.333Z" fill="#C49A72"/>
<path d="M90.4278 136.837C90.0973 136.176 88.8578 136.589 89.1883 137.168C89.4362 137.746 90.6757 137.415 90.4278 136.837Z" fill="#D1A67C"/>
<path d="M24.0744 111.056C23.4133 109.568 20.9343 110.395 21.5954 111.799C22.2565 113.122 24.7354 112.46 24.0744 111.056Z" fill="#D1A67C"/>
<path d="M31.3458 113.865C31.0152 113.122 29.7758 113.535 30.1063 114.196C30.3542 114.939 31.6763 114.526 31.3458 113.865Z" fill="#C49A72"/>
<path d="M21.5953 113.287C21.2648 112.543 20.0253 112.956 20.3558 113.617C20.6037 114.361 21.9258 113.948 21.5953 113.287Z" fill="#D1A67C"/>
<path d="M68.3649 119.815C67.7038 118.327 65.2249 119.154 65.8859 120.558C66.4644 121.881 68.9433 121.219 68.3649 119.815Z" fill="#D1A67C"/>
<path d="M75.3887 124.607C75.0582 123.864 73.8187 124.277 74.1493 124.938C74.4798 125.599 75.7193 125.351 75.3887 124.607Z" fill="#C49A72"/>
<path d="M65.8033 121.963C65.4728 121.22 64.2333 121.633 64.5638 122.294C64.8943 123.037 66.1338 122.707 65.8033 121.963Z" fill="#D1A67C"/>
<path d="M122.571 102.297C121.91 100.809 119.431 101.636 120.092 103.04C120.754 104.445 123.232 103.784 122.571 102.297Z" fill="#D1A67C"/>
<path d="M129.843 105.106C129.513 104.363 128.273 104.776 128.604 105.437C128.852 106.18 130.174 105.85 129.843 105.106Z" fill="#C49A72"/>
<path d="M120.093 104.528C119.762 103.784 118.523 104.197 118.853 104.858C119.101 105.602 120.423 105.272 120.093 104.528Z" fill="#D1A67C"/>
<path d="M105.136 122.376C104.475 120.889 101.996 121.715 102.657 123.12C103.318 124.525 105.797 123.864 105.136 122.376Z" fill="#D1A67C"/>
<path d="M112.408 125.186C112.077 124.442 110.838 124.855 111.168 125.516C111.416 126.26 112.656 125.93 112.408 125.186Z" fill="#C49A72"/>
<path d="M102.657 124.607C102.327 123.864 101.087 124.277 101.418 124.938C101.666 125.682 102.905 125.351 102.657 124.607Z" fill="#D1A67C"/>
<path d="M129.348 89.9846C129.348 89.9846 129.43 93.5378 136.454 97.6694C143.478 101.801 159.426 102.793 160.748 102.875L156.699 100.644C156.699 100.644 157.773 101.057 157.525 101.553C157.195 101.966 152.733 101.966 145.048 99.9831C134.801 97.3388 131.083 94.7773 129.348 89.9846Z" fill="#A57C59"/>
<path d="M39.0308 121.385C39.0308 121.385 47.2113 127.086 57.7056 128.574C68.1999 130.061 73.3231 128.739 73.3231 128.739C73.3231 128.739 67.8694 126.177 61.0935 124.442C61.0935 124.442 64.3162 125.268 64.0683 126.177C63.903 127.086 59.2756 127.582 50.7645 125.268C42.2534 122.955 41.0966 121.385 40.9313 121.467L39.0308 121.385Z" fill="url(#paint8_linear_1154_6798)"/>
<path d="M39.0308 94.8599C39.0308 94.8599 44.0713 101.553 56.053 103.619C68.1173 105.685 83.6521 101.14 83.6521 101.14L77.2068 98.9915C77.2068 98.9915 69.1088 99.8178 64.3988 99.5699C64.3988 99.5699 72.4141 99.2394 71.5878 100.975C70.7615 102.71 63.6551 102.627 53.0782 100.727C42.5013 98.8262 39.0308 94.8599 39.0308 94.8599Z" fill="url(#paint9_linear_1154_6798)"/>
<path d="M153.724 116.923C153.724 116.923 148.931 119.154 138.437 119.484C127.943 119.815 123.894 118.245 122.324 117.749C120.754 117.253 117.779 116.344 117.779 116.344C117.779 116.344 115.135 116.014 114.804 117.749C114.556 119.484 117.201 120.558 120.01 121.22C122.819 121.881 125.051 122.955 124.472 124.938C123.894 126.921 116.209 127.417 111.582 127.5C106.954 127.582 94.394 127.5 94.394 127.5C94.394 127.5 109.268 127.582 114.143 127.004C118.936 126.425 121.828 126.012 121.911 124.277C121.993 122.542 116.87 122.294 113.647 119.897C110.507 117.501 114.226 113.369 119.432 114.774C124.637 116.179 129.182 118.575 139.346 118.575C149.51 118.575 153.724 116.923 153.724 116.923Z" fill="#C49A72"/>
<path d="M35.0642 99.322C33.4942 97.0083 30.189 99.5699 31.6763 101.718C33.1637 103.867 36.5516 101.553 35.0642 99.322Z" fill="#D1A67C"/>
<path d="M33.9902 104.61C33.4944 103.949 32.3375 104.693 32.8333 105.272C33.3291 105.933 34.486 105.272 33.9902 104.61Z" fill="#D1A67C"/>
<path d="M8.95259 113.039C8.4568 112.378 7.29995 113.122 7.79574 113.7C8.29153 114.361 9.44839 113.7 8.95259 113.039Z" fill="#D1A67C"/>
<path d="M50.7641 117.088C49.7726 115.766 47.5415 117.253 48.5331 118.41C49.442 119.649 51.6731 118.327 50.7641 117.088Z" fill="#D1A67C"/>
<path d="M52.9956 114.196C52.4998 113.535 51.3429 114.278 51.8387 114.857C52.4171 115.518 53.4913 114.857 52.9956 114.196Z" fill="#D1A67C"/>
<path d="M45.3105 99.8178C45.3105 99.8178 48.2853 102.214 56.7138 103.784C65.0596 105.354 73.4881 103.784 73.4881 103.784L85.635 101.057L78.8592 99.0741L73.1576 99.4046C73.1576 99.4046 77.785 99.1567 77.785 100.561C77.785 101.966 71.7528 103.288 62.8285 103.536C53.8217 103.784 46.3848 100.396 45.3105 99.8178Z" fill="#A57C59"/>
<path d="M154.137 114.278C154.137 114.278 153.476 113.865 146.205 112.956C139.016 112.047 132.322 111.138 132.322 110.395C132.322 109.651 142.321 108.494 146.535 108.329C150.749 108.081 155.542 107.916 157.69 107.668C159.839 107.337 161.739 106.594 161.574 104.693C161.574 104.693 161.492 106.842 157.608 107.337C153.724 107.833 133.397 108.329 131 109.568C128.521 110.808 130.257 111.221 133.231 111.717C136.206 112.047 150.915 113.7 154.137 114.278Z" fill="#A57C59"/>
<path d="M121.745 126.425C121.745 126.425 124.472 125.93 124.72 125.269C125.216 124.029 125.299 122.707 121.498 121.633C117.779 120.558 113.648 119.65 115.3 117.171C117.035 114.692 121.58 119.236 131.909 119.732C142.238 120.228 150.254 117.997 150.254 117.997C150.254 117.997 145.378 119.484 134.884 119.071C124.472 118.575 121.745 116.757 118.44 116.096C115.135 115.435 113.978 116.757 113.978 118.245C113.978 119.732 116.953 120.889 120.01 121.633C123.068 122.376 124.142 122.79 123.977 124.36C123.811 125.93 121.745 126.425 121.745 126.425Z" fill="#A57C59"/>
<path d="M36.2212 121.22C36.2212 121.22 52.8302 120.972 53.4087 120.145C53.9871 119.319 43.9886 119.236 43.6581 119.236L43.3276 118.079L36.2212 121.22Z" fill="#C49A72"/>
<path d="M43.2449 118.079L42.7491 120.063C42.7491 120.063 41.8401 121.137 36.9648 121.22C36.9648 121.22 42.0054 121.054 43.8233 120.724C46.7154 120.228 51.4255 120.063 51.3428 119.897C51.2602 119.732 43.4101 119.402 43.4101 119.402L43.2449 118.079Z" fill="url(#paint10_linear_1154_6798)"/>
<path d="M43.2448 118.079L42.749 120.063C42.749 120.063 42.0053 121.054 37.0474 121.22C37.0474 121.22 39.9395 121.054 42.5011 120.806C45.0627 120.476 48.8638 120.145 48.7811 119.98C48.6985 119.815 43.3274 119.815 43.3274 119.815L43.2448 118.079Z" fill="#8C6A50"/>
<path d="M20.3556 1.8161C20.3556 1.8161 16.5545 -1.32393 16.5545 27.432C16.5545 53.1306 16.5545 53.048 16.5545 101.966C16.5545 101.966 16.0587 110.147 20.6035 110.725L20.3556 1.8161Z" fill="#313131"/>
<path d="M18.3726 104.693C18.3726 108.99 21.2647 111.799 24.6526 110.973L55.2265 103.288C57.7054 102.71 59.6886 99.322 59.6886 95.7688V15.781C59.6886 12.2278 57.7054 8.83985 55.2265 8.26143L24.6526 0.576645C21.182 -0.249676 18.3726 2.47718 18.3726 6.85668V104.693Z" fill="url(#paint11_linear_1154_6798)"/>
<path d="M18.042 104.776V6.77403C18.042 2.22927 21.0994 -0.745487 24.6526 0.163467L55.2264 7.84825C57.788 8.50931 59.8538 12.0625 59.8538 15.7809V95.6862C59.8538 99.4046 57.788 102.958 55.2264 103.619L24.6526 111.304C21.0167 112.213 18.042 109.32 18.042 104.776ZM24.6526 0.989788C21.4299 0.163467 18.703 2.80769 18.703 6.9393V104.61C18.703 108.742 21.4299 111.386 24.6526 110.56L55.2264 102.958C57.5401 102.379 59.4407 99.1567 59.4407 95.7688V15.6983C59.4407 12.3104 57.5401 9.08773 55.2264 8.50931L24.6526 0.989788Z" fill="#0A293A"/>
<path d="M18.3726 104.693C18.3726 108.99 21.2647 111.799 24.6526 110.973L55.2265 103.288C57.7054 102.71 59.6886 99.322 59.6886 95.7688V15.781C59.6886 12.2278 57.7054 8.83985 55.2265 8.26143L24.6526 0.576645C21.182 -0.249676 18.3726 2.47718 18.3726 6.85668V104.693Z" fill="#E0E0E0"/>
<path opacity="0.3" d="M21.8428 7.60035V103.949C21.8428 106.098 23.2475 107.503 24.9002 107.089L55.474 99.983C56.7135 99.7351 57.7051 97.9999 57.7051 96.182V15.3678C57.7051 13.5499 56.7135 11.8972 55.474 11.5667L47.624 9.74879C47.3761 9.83142 47.2108 10.2446 47.2108 10.6577C47.2108 10.7404 47.2108 10.823 47.2108 10.9056V11.6493C47.2108 12.5583 46.715 13.302 46.1366 13.1367L36.2208 10.9883C35.5597 10.823 35.0639 9.91405 35.0639 8.92246V7.60035C34.9813 7.26982 34.816 6.93929 34.5681 6.77403L24.9002 4.46033C23.2475 4.04717 21.8428 5.45192 21.8428 7.60035Z" fill="white"/>
<path opacity="0.3" d="M21.8428 17.2683L57.7051 39.579V35.0342L21.8428 12.7236V17.2683Z" fill="white"/>
<path opacity="0.3" d="M21.8428 39.1658L57.7051 61.4765V42.8843L21.8428 20.5736V39.1658Z" fill="white"/>
<path opacity="0.3" d="M21.8428 76.185V80.7298L53.4909 100.396L55.474 99.9004C56.2177 99.7351 56.8788 99.0741 57.2919 98.1651L21.8428 76.185Z" fill="white"/>
<path opacity="0.1" d="M150.18 115.283C150.18 116.411 120.034 117.327 82.7848 117.327C45.5359 117.327 48.0137 116.129 48.0137 115.001C48.0137 113.873 45.5359 113.239 82.7848 113.239C120.034 113.239 150.18 114.155 150.18 115.283Z" fill="#12364D"/>
<path d="M144.452 35.8256L141.585 34.5447L108.924 107.649L111.791 108.93L144.452 35.8256Z" fill="#D1D1D1"/>
<path d="M144.482 35.7928L143.652 35.4221L110.992 108.526L111.821 108.897L144.482 35.7928Z" fill="#B5B5B5"/>
<path d="M142.494 34.906L141.664 34.5353L109.003 107.64L109.833 108.01L142.494 34.906Z" fill="#E2E2E2"/>
<path d="M118.027 9.99669C134.471 6.19561 151.162 13.1367 152.567 13.8804H152.65C152.65 13.8804 137.859 5.53455 119.432 5.61719C95.7162 5.78245 89.3535 15.9462 89.3535 15.9462L98.3604 19.9952C98.4431 19.9952 101.418 13.7978 118.027 9.99669Z" fill="#262261"/>
<path d="M152.567 13.8804C151.163 13.1367 134.471 6.19564 118.027 9.99672C101.418 13.7978 98.4434 19.9952 98.4434 19.9952L108.607 24.54C108.938 24.3747 125.464 7.60039 152.567 13.8804Z" fill="#F05A28"/>
<path d="M108.607 24.54L119.928 29.5805C131.496 16.1115 151.162 13.9631 152.65 13.7978C125.464 7.60038 108.937 24.3747 108.607 24.54Z" fill="#F05A28"/>
<path d="M119.928 29.5805L132.901 35.3647C140.999 21.7304 152.072 14.2935 152.65 13.8804C152.65 13.8804 152.65 13.8804 152.567 13.8804C151.163 13.963 131.414 16.1114 119.928 29.5805Z" fill="#268C44"/>
<path d="M132.818 35.3647L141.164 39.0832L152.402 13.8804H152.485C151.906 14.2935 140.999 21.7304 132.818 35.3647Z" fill="#268C44"/>
<path d="M89.3537 15.9462C89.3537 15.9462 89.271 18.3425 89.4363 18.5904C89.6016 18.7557 95.7163 21.3999 95.8816 21.4825C96.1295 21.4825 98.3606 20.0778 98.3606 20.0778L89.3537 15.9462Z" fill="#262261"/>
<path d="M108.607 24.5399L119.928 29.5805L117.118 30.9852L98.6913 22.8873L98.4434 19.9952L108.607 24.5399Z" fill="#F05A28"/>
<path d="M119.845 32.39L119.927 29.5805L132.818 35.3648L150.171 43.1322L162.731 48.6685L160.5 50.6517L119.845 32.39Z" fill="#268C44"/>
<path d="M152.733 13.1367C152.733 13.1367 148.105 11.3188 146.866 11.1536C146.866 11.1536 147.114 12.8062 151.824 15.1199L152.733 13.1367Z" fill="#F6921E"/>
<path d="M178.514 37.0174C170.333 22.2262 154.055 14.4588 152.567 13.8804C152.567 13.8804 168.681 19.2515 180.828 33.1336C196.528 50.8996 193.222 62.3854 193.222 62.3854L184.133 58.3364C184.133 58.3364 186.777 51.9738 178.514 37.0174Z" fill="#262261"/>
<path d="M152.567 13.8804C154.055 14.4588 170.333 22.2262 178.514 37.0174C186.777 51.9738 184.133 58.3364 184.133 58.3364L173.969 53.7917C173.886 53.3785 175.374 29.911 152.567 13.8804Z" fill="#EC1C24"/>
<path d="M173.969 53.7091L162.648 48.6685C165.045 31.0679 153.476 14.9546 152.567 13.7978C175.374 29.9111 173.886 53.3786 173.969 53.7091Z" fill="#EC1C24"/>
<path d="M162.731 48.6685L149.758 42.8843C154.468 27.7626 152.65 14.5415 152.567 13.7978C152.567 13.7978 152.567 13.7978 152.65 13.7978C153.476 15.0373 165.045 31.0679 162.731 48.6685Z" fill="#268C44"/>
<path d="M149.758 42.8842L141.164 39.0832L152.402 13.8804H152.485C152.65 14.5414 154.468 27.7626 149.758 42.8842Z" fill="#268C44"/>
<path d="M193.222 62.3028C193.222 62.3028 191.487 63.9555 191.239 63.9555C190.991 63.9555 184.959 61.2286 184.794 61.0633C184.629 60.8981 184.215 58.2538 184.215 58.2538L193.222 62.3028Z" fill="#268C44"/>
<path d="M173.969 53.7091L162.731 48.6685L163.557 51.7259L181.241 59.7412L184.133 58.3365L173.969 53.7091Z" fill="#EC1C24"/>
<path d="M152.733 13.1367C152.733 13.1367 157.195 15.3678 158.104 16.1941C158.104 16.1941 156.699 17.1031 151.824 15.1199L152.733 13.1367Z" fill="#F6921E"/>
<path d="M154.881 11.5667C154.881 11.5667 155.211 9.25301 154.798 9.00512C154.302 8.83985 152.815 10.5751 152.815 10.5751L153.641 10.9883L154.881 11.5667Z" fill="#F6921E"/>
<path d="M154.798 11.3188L153.972 10.9057H153.889L153.063 10.4925C152.154 10.0793 149.096 11.4015 150.088 12.4757C150.914 13.3846 152.154 13.8804 152.567 14.0457C152.98 14.2109 154.22 14.7894 155.377 14.7894C156.781 14.872 155.707 11.6493 154.798 11.3188Z" fill="#F6921E"/>
<path d="M152.898 10.823C152.402 10.5751 150.997 10.9882 150.502 11.7319C150.006 12.4756 151.576 13.7977 152.815 13.7151C154.055 13.6325 154.468 12.4756 154.385 11.8972C154.385 11.3188 152.898 10.823 152.898 10.823Z" fill="#F4A351"/>
<path d="M149.675 12.2277C149.592 12.0625 147.774 11.4841 147.526 11.5667C147.279 11.6493 148.353 13.1367 150.832 14.4588C153.311 15.7809 154.385 15.2025 154.468 15.1199C154.468 15.0372 153.641 15.0372 151.989 14.2109C150.419 13.3846 149.84 12.5583 149.675 12.2277Z" fill="#F4A351"/>
<path d="M154.716 9.17037C154.633 9.08774 154.055 9.5009 153.559 9.99669C153.063 10.4925 153.393 10.7404 153.559 10.823C153.724 10.9056 154.137 10.9883 154.385 10.4925C154.633 10.0793 154.798 9.253 154.716 9.17037Z" fill="#F4A351"/>
<path opacity="0.28" d="M59.9364 19.582L30.1888 12.9714C28.4536 12.5583 27.0488 13.7151 27.0488 15.533V24.2094C27.0488 26.0273 28.4536 27.5973 30.1888 27.8452L59.9364 30.9852C60.928 31.0679 61.6717 30.0763 61.6717 28.7542V22.3915C61.6717 21.0694 60.8454 19.8299 59.9364 19.582Z" fill="#A7CE55"/>
<path d="M63.9852 21.5652L34.2377 14.9546C32.5024 14.5414 31.0977 15.6983 31.0977 17.5162V26.1926C31.0977 28.0105 32.5024 29.5805 34.2377 29.8284L63.9852 32.9684C64.9768 33.051 65.7205 32.0594 65.7205 30.7373V24.3747C65.8031 22.9699 64.9768 21.7304 63.9852 21.5652Z" fill="white"/>
<path d="M35.312 19.7473C35.312 20.1604 35.6425 20.6562 36.0557 20.7389C36.4689 20.8215 36.7994 20.491 36.7994 20.0778C36.7994 19.6647 36.4689 19.1689 36.0557 19.0862C35.7252 19.0036 35.312 19.3341 35.312 19.7473Z" fill="#268C44"/>
<path d="M40.6006 20.8215C40.6006 21.2347 40.9311 21.6478 41.3443 21.7304C41.7574 21.8131 42.088 21.4825 42.088 21.0694C42.088 20.6562 41.7574 20.2431 41.3443 20.1604C40.9311 20.0778 40.6006 20.3257 40.6006 20.8215Z" fill="#268C44"/>
<path d="M38.6997 25.862C40.2698 26.1099 41.5092 24.9531 41.5092 23.2178C41.5092 23.1352 41.4266 23.0526 41.344 22.9699C41.2613 22.9699 41.1787 23.0525 41.1787 23.1352C41.1787 24.6226 40.1045 25.6968 38.6997 25.4489C37.295 25.201 36.1381 23.7962 36.1381 22.2262C36.1381 22.1436 36.0555 21.9783 35.9729 21.9783C35.8902 21.9783 35.8076 22.061 35.8076 22.1436C35.8076 23.9615 37.1297 25.6141 38.6997 25.862Z" fill="#268C44"/>
<path d="M47.6243 20.5736L48.1201 21.8957L49.277 22.2263L48.4506 23.0526L48.6159 24.3747L47.6243 23.631L46.6327 24.0442L46.798 22.722L45.9717 21.6478H47.1285L47.6243 20.5736Z" fill="#F6921E"/>
<path d="M51.5905 21.3173L52.0863 22.5567L53.1605 22.9699L52.3342 23.7136L52.5821 25.0357L51.5905 24.292L50.5989 24.7052L50.8468 23.4657L50.0205 22.3915H51.0947L51.5905 21.3173Z" fill="#F6921E"/>
<path d="M55.3092 22.061L55.7223 23.3005L56.7139 23.631L55.9702 24.3747L56.1355 25.6968L55.3092 24.9531L54.4002 25.3663L54.5655 24.1268L53.8218 23.1352H54.8134L55.3092 22.061Z" fill="#F6921E"/>
<path d="M58.7797 22.722L59.1929 23.9615L60.1019 24.2921L59.4408 25.0357L59.6061 26.1926L58.7797 25.5315L57.8708 25.9447L58.0361 24.7878L57.375 23.7963H58.284L58.7797 22.722Z" fill="#F6921E"/>
<path d="M62.0023 23.3831L62.3328 24.5399L63.2418 24.8704L62.5807 25.5315L62.746 26.771L62.0023 26.1099L61.176 26.5231L61.3412 25.3662L60.6802 24.3746H61.5891L62.0023 23.3831Z" fill="#F6921E"/>
<path d="M63.1592 29.7458L46.6328 27.5147V26.4405L63.1592 28.8368V29.7458Z" fill="#268C44"/>
<path opacity="0.55" d="M54.4573 105.063H58.6082C58.6082 105.063 58.1365 106.785 57.3818 107.42C56.6271 108.054 53.7026 105.335 53.7026 105.335L54.4573 105.063Z" fill="#C6674A"/>
<path d="M94.064 62.3855C94.064 62.3855 97.1213 61.4765 98.0303 62.6334C99.2698 64.286 98.774 66.3518 98.774 66.3518L100.013 69.9876L98.3608 71.3924L96.7908 67.1781C96.7908 67.1781 94.064 64.3686 96.3777 63.4597C96.295 63.4597 93.4029 63.2944 94.064 62.3855Z" fill="#E5B995"/>
<path d="M39.8573 102.793L35.6431 115.435H37.5436L45.5589 103.867L39.8573 102.793Z" fill="#51281F"/>
<path d="M102.162 102.793L106.293 115.435H104.393L96.3774 103.867L102.162 102.793Z" fill="#51281F"/>
<path d="M29.2803 101.884C29.2803 103.619 30.685 104.941 32.3377 104.941H106.128C107.616 104.941 109.103 104.363 110.177 103.288L130.67 82.7956C133.562 79.9035 132.322 74.9456 128.439 73.7887C128.108 73.7061 127.86 73.7061 127.778 73.7061C127.365 74.2019 104.393 94.612 104.393 94.612L32.255 98.7436C30.5198 98.9089 29.2803 100.231 29.2803 101.884Z" fill="#F8BF2A"/>
<path d="M120.506 80.4819C120.506 80.4819 122.82 73.1277 124.803 72.6319C126.786 72.1361 128.356 73.8714 128.356 73.8714C128.356 73.8714 120.589 89.4888 107.533 95.9341C90.9239 104.032 31.7593 98.8262 31.7593 98.8262L104.228 94.6946L120.506 80.4819Z" fill="#E8AB23"/>
<path d="M96.708 69.6571L100.013 69.2439L106.376 80.3993L101.005 81.3908L96.708 69.6571Z" fill="#2A5E2F"/>
<path d="M113.896 78.2508C113.73 77.9203 115.961 74.3671 115.961 74.3671C115.961 74.3671 112.243 75.0282 112.326 73.2929C112.408 71.5576 113.648 62.9639 117.201 62.3028C120.754 61.5591 124.803 69.4092 122.985 72.136C121.167 74.8629 119.101 76.5155 119.101 76.5155L117.284 80.8124C117.366 80.8124 115.466 81.3908 113.896 78.2508Z" fill="#F4CBA6"/>
<path d="M118.606 77.2592C118.853 77.5898 126.208 72.7145 126.869 69.7397C127.53 66.765 126.538 61.146 121.498 60.237C116.374 59.3281 114.226 60.6502 116.374 63.1291C118.523 65.6081 120.01 66.3518 120.01 66.3518L118.275 69.4092L122.076 67.9218C122.076 67.9218 117.449 75.524 118.606 77.2592Z" fill="black"/>
<path d="M56.5489 76.5156L54.3179 77.6724C53.4089 76.2677 52.6652 73.2929 52.6652 73.2929C52.6652 73.2929 51.5084 73.2103 51.3431 73.2103C51.1778 73.2103 52.5826 79.2424 52.5826 79.2424C52.5826 79.2424 52.9131 80.5646 52.9957 80.6472C53.161 80.7298 57.5405 79.2424 57.5405 79.2424L56.5489 76.5156Z" fill="#F8C2A3"/>
<path d="M53.4917 80.8951C53.1612 80.9777 52.6654 80.9777 52.4175 80.9777C52.0044 81.0603 46.0548 70.8139 48.5338 69.2439C48.6991 69.1613 48.7817 69.0787 48.947 69.0787C52.6654 68.5002 53.8223 73.7061 53.657 73.954C52.9133 74.8629 51.7565 74.2845 51.7565 74.2845C51.7565 74.2845 52.8307 77.9203 53.657 80.3993C53.9049 80.7298 53.7396 80.8951 53.4917 80.8951Z" fill="#12364D"/>
<path d="M83.239 83.4567C83.239 83.4567 77.62 69.1613 73.2405 67.9218C68.4478 66.5171 55.144 76.2677 55.144 76.2677L56.4662 80.5645L67.8694 76.7635C67.8694 76.7635 74.7278 91.6372 81.9168 91.472C89.1885 91.3893 83.239 83.4567 83.239 83.4567Z" fill="#3A3A3A"/>
<path d="M47.8726 92.5462L44.7326 94.3641C43.0799 94.612 40.5183 94.2815 40.5183 94.2815C40.5183 94.2815 39.9399 95.2731 39.8573 95.4383C39.7746 95.6036 45.8894 97.0083 45.8894 97.0083C45.8894 97.0083 47.0463 96.6778 47.0463 96.5952C47.2115 96.4299 50.1037 94.4467 50.1037 94.4467L47.8726 92.5462Z" fill="#F8C2A3"/>
<path d="M41.0968 95.4383C41.0968 95.4383 42.0884 94.612 41.5926 93.5378C41.51 93.2899 36.0562 92.0504 35.1473 95.6862C34.4862 98.3305 47.2942 99.0741 47.4595 98.661C47.6247 98.2478 48.2032 96.4299 47.4595 96.3473C44.8979 96.0168 41.0968 95.4383 41.0968 95.4383Z" fill="#12364D"/>
<path d="M45.8066 92.6288C46.3851 92.7115 48.9467 95.7689 48.9467 95.7689C48.9467 95.7689 59.6888 89.6541 63.5725 85.1093C63.5725 85.1093 72.4968 92.7941 72.9926 93.6204C73.4884 94.4467 76.711 97.752 84.8916 96.0994C93.1548 94.5294 82.8258 84.944 82.8258 84.944L67.7868 71.8055L45.8066 92.6288Z" fill="#313131"/>
<path d="M55.144 76.2677L56.4662 80.5645L69.0262 76.9287C69.0262 76.9287 74.9757 69.6571 73.2405 67.9218C69.6873 64.3687 55.144 76.2677 55.144 76.2677Z" fill="#3A3A3A"/>
<path d="M69.0264 76.9287L82.4954 84.7788L70.4311 73.954L56.4663 80.5645L69.0264 76.9287Z" fill="#061E28"/>
<path d="M53.4917 80.8951C53.1612 80.9777 52.6654 80.9777 52.4175 80.9777C52.0044 81.0603 46.0548 70.8139 48.5338 69.2439C48.6991 69.4092 51.5912 74.1192 53.4091 80.8124C53.4917 80.8124 53.4917 80.8951 53.4917 80.8951Z" fill="#0A293A"/>
<path d="M116.209 84.1177L104.31 94.6946C104.31 94.6946 87.2878 100.396 83.8173 95.9341C80.2641 91.5546 83.1562 82.4651 83.1562 82.4651C87.2052 83.9525 91.1715 84.0351 94.5594 83.6219C95.3858 83.5393 96.2121 83.374 97.0384 83.2088C102.079 82.1346 105.384 80.1514 105.384 80.1514C105.384 80.1514 113.813 75.0282 116.54 77.8377C119.68 81.143 116.209 84.1177 116.209 84.1177Z" fill="#208E44"/>
<path opacity="0.3" d="M113.896 84.8614L95.6339 88.993L94.4771 83.7045C95.3034 83.6219 96.1297 83.4566 96.956 83.2914L113.896 84.8614Z" fill="#0A293A"/>
<path d="M92.9067 57.2623C93.4025 57.1797 93.8157 57.5102 93.8157 58.006L94.3115 65.3602L93.3199 65.5255L92.2457 58.1712C92.163 57.7581 92.4936 57.3449 92.9067 57.2623Z" fill="#12364D"/>
<path d="M92.9067 57.2623C92.9067 57.2623 94.3941 65.856 94.3115 65.3602C94.2288 64.8644 93.8157 56.9318 93.8157 56.9318L92.9067 57.2623Z" fill="#214B63"/>
<path d="M92.7413 61.0634C92.7413 61.0634 91.006 62.3028 91.7497 64.7818C92.4934 67.2608 92.9066 68.996 92.9066 68.996H94.394C94.394 68.996 94.4766 66.9302 95.2203 66.2692C95.964 65.6081 96.2945 63.6249 96.1292 63.6249C95.964 63.6249 95.2203 63.5423 95.055 64.3686C94.8071 65.195 94.2287 64.6992 94.2287 64.6992C94.2287 64.6992 92.7413 62.3855 92.7413 61.0634Z" fill="#F4CBA6"/>
<path d="M93.2373 68.335L92.9067 68.9134L93.2373 74.7803L95.3857 76.9287L94.4767 68.5003L93.2373 68.335Z" fill="#F4CBA6"/>
<path d="M114.639 77.094C117.696 77.5898 119.597 82.3825 116.539 84.2004C113.399 86.0183 96.5424 86.1835 96.5424 86.1835L91.5845 70.4008L95.5508 69.9876L99.5998 80.0688C99.5998 80.0688 110.838 76.4329 114.639 77.094Z" fill="#268C44"/>
<path d="M91.0889 69.7398L91.502 71.1445L95.9642 70.1529L95.6336 68.9961L91.0889 69.7398Z" fill="#1A471E"/>
<path d="M96.3774 69.3266L96.4601 70.1529L100.013 69.2439V68.5829L96.3774 69.3266Z" fill="#1A471E"/>
<path opacity="0.28" d="M59.9364 51.7259L30.1888 54.866C28.4536 55.0312 27.0488 56.6839 27.0488 58.5018V67.1781C27.0488 68.996 28.4536 70.1529 30.1888 69.7397L59.9364 63.1292C60.928 62.8813 61.6717 61.6418 61.6717 60.3197V53.957C61.6717 52.5523 60.8454 51.5607 59.9364 51.7259Z" fill="#A7CE55"/>
<path d="M63.9852 53.6265L34.2377 56.7665C32.5024 56.9317 31.0977 58.5844 31.0977 60.4023V69.0787C31.0977 70.8966 32.5024 72.0534 34.2377 71.6402L63.9852 65.0297C64.9768 64.7818 65.7205 63.5423 65.7205 62.2202V55.8575C65.8031 54.5354 64.9768 53.5438 63.9852 53.6265Z" fill="white"/>
<path d="M47.6243 58.006L48.1201 59.1628H49.277L48.4506 60.2371L48.6159 61.5592L47.6243 61.0634L46.6327 61.8897L46.798 60.4849L45.9717 59.6586L47.1285 59.3281L47.6243 58.006Z" fill="#F6921E"/>
<path d="M51.5905 57.5102L52.0863 58.5844L53.1605 58.667L52.3342 59.6586L52.5821 60.8981L51.5905 60.4849L50.5989 61.2286L50.8468 59.9065L50.0205 59.0802L51.0947 58.7497L51.5905 57.5102Z" fill="#F6921E"/>
<path d="M55.3092 57.0144L55.7223 58.0886L56.7139 58.1713L55.9702 59.0802L56.1355 60.3197L55.3092 59.9065L54.4002 60.6502L54.5655 59.3281L53.8218 58.5018L54.8134 58.2539L55.3092 57.0144Z" fill="#F6921E"/>
<path d="M58.7797 56.6012L59.1929 57.5928L60.1019 57.6754L59.4408 58.5844L59.6061 59.7412L58.7797 59.3281L57.8708 60.0717L58.0361 58.8323L57.375 58.0059L58.284 57.758L58.7797 56.6012Z" fill="#F6921E"/>
<path d="M62.0023 56.188L62.3328 57.1796H63.2418L62.5807 58.0886L62.746 59.2454L62.0023 58.8323L61.176 59.4933L61.3412 58.3365L60.6802 57.5928L61.5891 57.2623L62.0023 56.188Z" fill="#F6921E"/>
<path d="M63.1592 62.1375L46.6328 65.2776V64.2033L63.1592 61.2286V62.1375Z" fill="#268C44"/>
<path d="M35.2295 61.6418C35.3122 62.0549 35.6427 62.3854 36.0559 62.3854C36.469 62.3854 36.7996 61.9723 36.7169 61.5591C36.6343 61.146 36.3038 60.8154 35.8906 60.8154C35.4774 60.8981 35.1469 61.2286 35.2295 61.6418Z" fill="#268C44"/>
<path d="M40.3525 61.3112C40.4352 61.7244 40.7657 62.0549 41.1789 62.0549C41.592 62.0549 41.8399 61.6418 41.8399 61.2286C41.7573 60.8155 41.4268 60.4849 41.0136 60.4849C40.6004 60.5676 40.3525 60.8981 40.3525 61.3112Z" fill="#268C44"/>
<path d="M39.0308 66.6823C40.6008 66.5171 41.675 65.0297 41.5097 63.3771C41.5097 63.2944 41.4271 63.2118 41.3445 63.2118C41.2618 63.2118 41.1792 63.2944 41.1792 63.3771C41.3445 64.8644 40.3529 66.1039 38.9481 66.2692C37.5434 66.4344 36.3039 65.2776 36.1386 63.7902C36.1386 63.7076 36.056 63.625 35.9734 63.625C35.8907 63.625 35.8081 63.7076 35.8081 63.7902C36.056 65.6081 37.4607 66.8476 39.0308 66.6823Z" fill="#268C44"/>
<path d="M117.779 94.5294C109.929 94.5294 103.483 100.892 103.483 108.825C103.483 116.675 109.846 123.12 117.779 123.12C125.629 123.12 132.074 116.757 132.074 108.825C131.991 100.975 125.629 94.5294 117.779 94.5294ZM117.696 115.435C114.143 115.435 111.168 112.543 111.168 108.907C111.168 105.354 114.06 102.379 117.696 102.379C121.249 102.379 124.224 105.272 124.224 108.907C124.224 112.543 121.332 115.435 117.696 115.435Z" fill="#F05A28"/>
<path d="M120.754 94.8599C131.496 98.8262 130.752 108.659 129.678 112.378C128.604 115.766 124.637 120.724 118.275 121.054C111.912 121.385 105.88 116.675 104.723 109.982C103.566 103.288 107.284 99.1567 107.284 99.1567C105.053 101.305 103.566 105.106 103.483 108.577C103.483 112.047 104.558 115.518 107.037 118.162C109.433 120.806 113.399 123.368 118.688 123.037C123.976 122.624 128.769 119.484 131 114.031C133.231 108.577 131.661 102.958 128.356 99.322C125.133 95.6036 120.754 94.8599 120.754 94.8599Z" fill="#EC1C24"/>
<path d="M114.804 101.223C111.003 102.545 108.937 107.089 110.507 110.808C112.077 114.526 115.795 115.105 115.795 115.105C115.795 115.105 112.573 114.361 111.499 110.725C110.424 107.089 112.903 103.123 116.456 102.545C120.092 101.966 121.91 103.867 122.489 104.445C123.067 105.024 124.72 107.255 124.059 110.229C124.059 110.229 125.133 107.916 123.976 104.61C122.737 101.388 118.688 99.9004 114.804 101.223Z" fill="#EC1C24"/>
<g opacity="0.5">
<path opacity="0.5" d="M114.474 96.7604C109.433 97.752 106.624 101.801 105.88 104.776C105.136 107.75 106.128 110.643 106.789 110.973C107.45 111.304 107.698 110.89 107.946 110.56C108.194 110.229 107.285 107.007 108.772 103.949C110.259 100.975 113.565 98.6609 117.366 98.413C121.167 98.1651 122.241 98.5783 122.406 98.3304C122.737 97.8346 119.514 95.7688 114.474 96.7604Z" fill="white"/>
</g>
<g opacity="0.5">
<path opacity="0.5" d="M117.283 116.923C111.829 117.171 111.416 112.46 109.102 113.617C107.946 114.196 110.672 119.98 117.366 119.402C124.059 118.823 126.207 113.369 125.794 112.708C125.381 112.047 122.737 116.675 117.283 116.923Z" fill="white"/>
</g>
<g opacity="0.5">
<path opacity="0.5" d="M124.307 98.7436C123.232 98.8262 123.15 99.9831 123.728 100.644C124.307 101.305 126.207 102.462 126.703 101.801C127.199 101.14 125.959 98.5783 124.307 98.7436Z" fill="white"/>
</g>
<path d="M117.2 93.4551C114.721 93.5378 113.73 94.1162 113.565 94.3641C113.399 94.612 113.317 95.1078 113.895 97.8346C114.474 100.561 115.217 103.123 115.63 103.206C116.622 103.536 119.927 103.454 120.093 103.371C120.258 103.288 120.836 102.131 121.167 99.7352C121.497 97.2562 121.828 95.0251 121.663 94.6946C121.415 94.3641 119.597 93.3725 117.2 93.4551Z" fill="#EDEDED"/>
<path d="M132.818 105.767C132.653 105.767 130.917 105.519 128.273 105.685C125.629 105.85 123.646 106.346 123.563 106.594C123.398 107.007 123.646 110.477 123.646 110.56C123.646 110.643 124.224 111.469 127.86 111.799C131.496 112.13 132.57 112.047 132.653 112.047C132.735 112.047 133.231 110.56 133.231 108.742C133.231 106.842 132.983 105.767 132.818 105.767Z" fill="#EDEDED"/>
<path d="M120.258 114.444C120.01 114.196 116.209 114.278 115.631 114.609C115.3 114.774 114.887 116.509 114.474 118.575C114.061 120.724 113.813 122.872 113.895 123.12C113.978 123.368 115.548 124.029 118.027 123.946C120.506 123.864 122.241 123.12 122.324 122.79C122.406 122.459 121.993 120.724 121.58 118.906C121.249 117.088 120.506 114.692 120.258 114.444Z" fill="#EDEDED"/>
<path d="M107.037 105.85C104.971 105.767 103.153 105.85 102.905 106.511C102.905 106.511 102.161 108.329 102.492 110.064C102.822 111.799 103.566 113.122 103.566 113.122C103.566 113.122 104.64 113.452 107.532 112.543C110.425 111.634 111.995 110.725 112.242 110.56C112.49 110.395 112.49 107.337 112.242 107.007C112.077 106.759 109.102 105.933 107.037 105.85Z" fill="#EDEDED"/>
<path d="M114.639 100.975C114.639 100.975 115.134 102.875 115.548 103.206C115.961 103.536 119.679 103.536 120.01 103.371C120.34 103.206 120.753 101.47 120.836 100.892C120.919 100.892 117.613 99.8178 114.639 100.975Z" fill="#CECECE"/>
<path d="M117.613 93.4551C115.63 93.4551 113.895 93.8683 113.564 94.2815C113.234 94.6946 113.482 95.7688 113.482 95.7688C113.482 95.7688 114.473 94.9425 117.696 94.9425C120.836 94.9425 121.58 96.182 121.58 96.182C121.58 96.182 121.745 94.9425 121.58 94.612C121.415 94.3641 119.597 93.4551 117.613 93.4551Z" fill="#CECECE"/>
<path d="M111.085 106.594C110.507 106.428 109.929 106.263 109.929 106.263C109.929 106.263 109.598 107.337 109.929 109.073C110.259 110.808 110.755 111.469 110.755 111.469C110.755 111.469 112.242 110.89 112.325 110.643C112.408 110.395 112.49 109.651 112.49 108.907C112.49 108.081 112.408 107.172 112.325 107.089C112.242 107.007 111.664 106.759 111.085 106.594Z" fill="#CECECE"/>
<path d="M115.63 114.609C115.382 114.857 115.052 116.096 115.052 116.096C119.018 116.675 120.753 115.601 120.753 115.601C120.505 114.857 120.258 114.444 120.258 114.444C119.679 114.113 115.878 114.361 115.63 114.609Z" fill="#CECECE"/>
<path d="M132.818 105.767C132.57 105.685 131 105.685 131 105.685C131 105.685 131.661 107.007 131.496 108.99C131.33 110.973 130.752 112.047 130.752 112.047C131.413 112.13 132.322 112.047 132.57 112.047C132.818 112.047 133.066 110.56 133.148 109.073C133.314 107.503 133.066 105.85 132.818 105.767Z" fill="#CECECE"/>
<path d="M114.143 121.22C114.143 121.22 113.895 122.955 113.978 123.12C114.06 123.285 115.217 124.112 118.44 123.946C121.663 123.781 122.406 123.037 122.406 122.872C122.406 122.707 122.076 121.137 122.076 121.137C122.076 121.137 118.523 122.955 114.143 121.22Z" fill="#CECECE"/>
<path d="M106.541 106.511C106.293 106.759 105.549 107.668 105.88 109.486C106.21 111.386 107.202 112.047 107.698 112.047C108.193 112.047 109.102 111.717 109.35 111.469C109.598 111.221 109.02 107.337 108.689 106.759C108.359 106.263 107.036 106.015 106.541 106.511Z" fill="white"/>
<path d="M114.473 96.4299C114.473 96.4299 114.226 97.0083 114.391 98.1652C114.556 99.322 114.804 99.4047 115.134 99.4873C115.465 99.5699 117.035 98.9915 120.506 99.5699C120.506 99.5699 121.084 98.7436 121.001 97.5867C120.919 96.4299 117.696 95.8515 114.473 96.4299Z" fill="white"/>
<path d="M120.175 117.418C119.183 117.336 116.457 117.088 115.382 117.418C114.721 117.584 114.473 119.154 114.804 119.732C115.134 120.311 119.927 121.054 120.836 119.897C121.745 118.741 121.167 117.501 120.175 117.418Z" fill="white"/>
<path d="M129.678 106.263C129.017 105.85 127.529 105.933 126.951 106.428C126.29 106.924 126.042 111.056 128.273 111.221C130.422 111.386 130.587 106.842 129.678 106.263Z" fill="white"/>
<path opacity="0.28" d="M64.6467 35.0342L31.1807 32.8858C29.1976 32.7205 27.5449 34.2905 27.5449 36.439V46.3548C27.5449 48.4206 29.1976 49.9906 31.1807 49.908L64.6467 47.7596C65.721 47.6769 66.5473 46.4374 66.5473 44.9501V37.9263C66.5473 36.3563 65.721 35.1168 64.6467 35.0342Z" fill="#A7CE55"/>
<path d="M72.7449 36.9347L39.2789 34.7863C37.2957 34.621 35.6431 36.191 35.6431 38.3395V48.2553C35.6431 50.3211 37.2957 51.8911 39.2789 51.8085L72.7449 49.6601C73.8191 49.5774 74.6454 48.3379 74.6454 46.8506V39.8268C74.6454 38.2568 73.8191 37.0174 72.7449 36.9347Z" fill="white"/>
<path d="M54.5656 38.7526L55.144 40.1574L56.4661 40.4053L55.4745 41.3969L55.7224 42.9669L54.5656 42.2232L53.4087 42.9669L53.6566 41.3969L52.665 40.3226L53.9872 40.1574L54.5656 38.7526Z" fill="#F6921E"/>
<path d="M59.0278 38.9179L59.6062 40.24L60.763 40.4879L59.9367 41.4795L60.102 42.9669L59.0278 42.2232L57.9535 42.9669L58.2014 41.4795L57.2925 40.4053L58.532 40.24L59.0278 38.9179Z" fill="#F6921E"/>
<path d="M63.1595 39.0832L63.6553 40.4053L64.7295 40.6532L63.9858 41.5622L64.1511 42.9669L63.1595 42.3058L62.1679 42.9669L62.3332 41.5622L61.5068 40.5706L62.6637 40.3227L63.1595 39.0832Z" fill="#F6921E"/>
<path d="M66.9605 39.2485L67.4563 40.488L68.4479 40.7359L67.7042 41.6448L67.8695 42.9669L66.9605 42.3059L66.0516 42.9669L66.2168 41.6448L65.4731 40.6532L66.5474 40.488L66.9605 39.2485Z" fill="#F6921E"/>
<path d="M70.5136 39.4137L70.9268 40.5705L71.9184 40.8184L71.2573 41.7274L71.4226 42.9669L70.5136 42.3885L69.6873 42.9669L69.8526 41.6448L69.1089 40.7358L70.1005 40.5705L70.5136 39.4137Z" fill="#F8BF2A"/>
<path d="M71.8357 46.1895L53.4087 46.7679V45.6111L71.8357 45.1979V46.1895Z" fill="#268C44"/>
<path d="M41.0142 40.6532C41.0142 41.0663 41.3447 41.4795 41.7579 41.4795C42.171 41.4795 42.5015 41.149 42.5015 40.7358C42.5015 40.3226 42.171 39.9095 41.7579 39.9095C41.3447 39.9095 41.0142 40.24 41.0142 40.6532Z" fill="#268C44"/>
<path d="M46.2202 40.8184C46.2202 41.2316 46.5507 41.6447 46.9639 41.6447C47.3771 41.6447 47.7076 41.3142 47.7076 40.901C47.7076 40.4879 47.3771 40.0747 46.9639 40.0747C46.5507 40.0747 46.2202 40.4052 46.2202 40.8184Z" fill="#268C44"/>
<path d="M44.4019 46.0242C45.9719 46.0242 47.2114 44.6195 47.2114 42.9668C47.2114 42.8842 47.1287 42.8016 47.0461 42.8016C46.9635 42.8016 46.8809 42.8842 46.8809 42.9668C46.8809 44.4542 45.8066 45.6111 44.4019 45.6111C42.9971 45.6111 41.8403 44.3716 41.8403 42.8842C41.8403 42.8016 41.7577 42.7189 41.675 42.7189C41.5924 42.7189 41.5098 42.8016 41.5098 42.8842C41.5098 44.7021 42.8319 46.0242 44.4019 46.0242Z" fill="#268C44"/>
<defs>
<linearGradient id="paint0_linear_1154_6798" x1="89.5892" y1="138.921" x2="85.9926" y2="130.828" gradientUnits="userSpaceOnUse">
<stop offset="0.32" stop-color="#F9CC95"/>
<stop offset="1" stop-color="#FFE7C0"/>
</linearGradient>
<linearGradient id="paint1_linear_1154_6798" x1="108.056" y1="127.174" x2="110.819" y2="134.808" gradientUnits="userSpaceOnUse">
<stop offset="0.23" stop-color="#C49A72"/>
<stop offset="0.92" stop-color="#B7906E"/>
</linearGradient>
<linearGradient id="paint2_linear_1154_6798" x1="26.5026" y1="116.323" x2="18.5068" y2="101.151" gradientUnits="userSpaceOnUse">
<stop offset="0.32" stop-color="#F9CC95"/>
<stop offset="1" stop-color="#FFE7C0"/>
</linearGradient>
<linearGradient id="paint3_linear_1154_6798" x1="33.9796" y1="134.944" x2="28.109" y2="123.805" gradientUnits="userSpaceOnUse">
<stop offset="0.32" stop-color="#F9CC95"/>
<stop offset="1" stop-color="#FFE7C0"/>
</linearGradient>
<linearGradient id="paint4_linear_1154_6798" x1="102.779" y1="134.04" x2="90.4825" y2="110.707" gradientUnits="userSpaceOnUse">
<stop offset="0.32" stop-color="#F9CC95"/>
<stop offset="1" stop-color="#FFE7C0"/>
</linearGradient>
<linearGradient id="paint5_linear_1154_6798" x1="34.0544" y1="127.335" x2="24.319" y2="108.863" gradientUnits="userSpaceOnUse">
<stop offset="0.32" stop-color="#F9CC95"/>
<stop offset="1" stop-color="#FFE7C0"/>
</linearGradient>
<linearGradient id="paint6_linear_1154_6798" x1="114.699" y1="114.813" x2="112.477" y2="104.938" gradientUnits="userSpaceOnUse">
<stop offset="0.32" stop-color="#F9CC95"/>
<stop offset="1" stop-color="#FFE7C0"/>
</linearGradient>
<linearGradient id="paint7_linear_1154_6798" x1="144.998" y1="92.5844" x2="145.144" y2="97.9673" gradientUnits="userSpaceOnUse">
<stop offset="0.23" stop-color="#C49A72"/>
<stop offset="0.92" stop-color="#B7906E"/>
</linearGradient>
<linearGradient id="paint8_linear_1154_6798" x1="56.1544" y1="122.814" x2="56.2455" y2="126.184" gradientUnits="userSpaceOnUse">
<stop offset="0.23" stop-color="#C49A72"/>
<stop offset="0.92" stop-color="#B7906E"/>
</linearGradient>
<linearGradient id="paint9_linear_1154_6798" x1="61.3288" y1="96.4567" x2="61.4344" y2="100.363" gradientUnits="userSpaceOnUse">
<stop offset="0.23" stop-color="#C49A72"/>
<stop offset="0.92" stop-color="#B7906E"/>
</linearGradient>
<linearGradient id="paint10_linear_1154_6798" x1="39.7691" y1="117.367" x2="44.8148" y2="121.056" gradientUnits="userSpaceOnUse">
<stop offset="0.23" stop-color="#C49A72"/>
<stop offset="0.92" stop-color="#B7906E"/>
</linearGradient>
<linearGradient id="paint11_linear_1154_6798" x1="39.0175" y1="3.03536" x2="39.0175" y2="24.8661" gradientUnits="userSpaceOnUse">
<stop stop-color="#FBE0B8"/>
<stop offset="1" stop-color="#F1F7DE"/>
</linearGradient>
</defs>
</svg>
