<svg width="56" height="56" viewBox="0 0 56 56" fill="none" xmlns="http://www.w3.org/2000/svg">
<g clip-path="url(#clip0_540_28302)">
<g clip-path="url(#clip1_540_28302)">
<path d="M51.9999 27.5693C51.9999 28.2417 51.7785 28.8619 51.4063 29.3603L51.0647 29.1005C51.383 28.6743 51.5718 28.1444 51.5718 27.5693C51.5718 27.0111 51.3935 26.4952 51.0913 26.0753L51.4382 25.8215C51.7915 26.3122 51.9999 26.9162 51.9999 27.5693ZM50.6538 28.1302C50.5958 28.3008 50.5116 28.4586 50.4058 28.5999C50.3402 28.6883 50.2658 28.7705 50.1838 28.8437C50.1025 28.9182 50.0142 28.9838 49.9195 29.0408C49.665 29.1948 49.3675 29.2829 49.0498 29.2829C48.1122 29.2829 47.3523 28.5153 47.3523 27.5691C47.3523 26.6234 48.1122 25.8561 49.0498 25.8561C49.2942 25.8561 49.5261 25.9082 49.7358 26.0026C49.8736 26.0636 50.0014 26.1426 50.117 26.2372C50.2331 26.3321 50.3367 26.4417 50.4237 26.5636C50.5213 26.6984 50.5991 26.848 50.6537 27.0087H51.0737C51.0062 26.7601 50.8949 26.5291 50.7485 26.3262C50.6403 26.175 50.5126 26.0395 50.369 25.9222C50.2268 25.8056 50.0682 25.7075 49.8985 25.632C49.6387 25.5159 49.3517 25.4514 49.0498 25.4514V25.024C49.4129 25.024 49.7579 25.1014 50.0699 25.2409L50.2424 24.8464C49.8776 24.6828 49.4743 24.5925 49.0497 24.5925C47.4207 24.5925 46.0996 25.9252 46.0996 27.5691C46.0996 29.2137 47.4207 30.5462 49.0497 30.5462C49.6021 30.5462 50.1191 30.3932 50.5613 30.1259L50.3417 29.7554C49.9641 29.9841 49.522 30.1148 49.0497 30.1148V29.6874C49.4424 29.6874 49.8107 29.5785 50.125 29.3885C50.2416 29.318 50.3515 29.2366 50.452 29.1451C50.5525 29.0537 50.6448 28.9528 50.7261 28.8432C50.8836 28.6329 51.0026 28.3918 51.0736 28.1303H50.6535L50.6538 28.1302ZM50.9479 27.3671C50.8372 27.3671 50.7474 27.4578 50.7474 27.5695C50.7474 27.6813 50.8371 27.7719 50.9479 27.7719C51.0586 27.7719 51.1484 27.6813 51.1484 27.5695C51.1484 27.4578 51.0587 27.3671 50.9479 27.3671ZM50.6133 25.2956C50.5437 25.3825 50.5571 25.51 50.6433 25.5802C50.7295 25.6505 50.8555 25.637 50.9252 25.55C50.9948 25.463 50.9814 25.3356 50.8953 25.2654C50.8091 25.1952 50.6829 25.2086 50.6133 25.2956ZM51.0264 29.488C50.9524 29.4047 50.8256 29.3979 50.7432 29.4726C50.6608 29.5474 50.6539 29.6753 50.728 29.7584C50.8021 29.8416 50.9288 29.8485 51.0112 29.7737C51.0936 29.699 51.1005 29.5711 51.0264 29.488Z" fill="#E62129"/>
<path d="M23.6981 33.5273V28.8269H24.4664C24.6229 28.8269 24.7265 28.8997 24.778 29.0457L24.8547 29.374C24.9481 29.2829 25.0453 29.1991 25.1463 29.1234C25.247 29.0475 25.3541 28.9822 25.4669 28.9274C25.5798 28.8725 25.7017 28.8301 25.8328 28.7997C25.964 28.7693 26.1062 28.7539 26.2596 28.7539C26.5126 28.7539 26.7369 28.7982 26.9329 28.8863C27.1286 28.9746 27.2932 29.0976 27.4275 29.2557C27.5615 29.4138 27.6622 29.6019 27.7302 29.8208C27.798 30.0397 27.8318 30.2801 27.8318 30.5412V33.5275H26.5894V30.5412C26.5894 30.2801 26.5292 30.077 26.4088 29.9325C26.2882 29.7883 26.1109 29.7159 25.8756 29.7159C25.6981 29.7159 25.5332 29.7547 25.3812 29.8323C25.229 29.9096 25.0838 30.0153 24.945 30.149V33.5273H23.6983H23.6981Z" fill="#097671"/>
<path d="M35.6997 33.5417C35.5822 33.5417 35.4926 33.5249 35.431 33.4916C35.3692 33.4581 35.3187 33.3883 35.2798 33.2818L35.1801 32.9856C35.0628 33.0889 34.9491 33.1792 34.839 33.2569C34.7292 33.3342 34.6147 33.3995 34.4959 33.4528C34.3766 33.5062 34.2503 33.5464 34.116 33.5736C33.9824 33.6011 33.8339 33.6147 33.6714 33.6147C33.4667 33.6147 33.2795 33.5872 33.1109 33.5327C32.9422 33.4779 32.7971 33.3967 32.6751 33.2887C32.5532 33.1807 32.4591 33.0464 32.3929 32.8852C32.3266 32.7243 32.2932 32.539 32.2932 32.3291C32.2932 32.156 32.3368 31.9835 32.4244 31.8118C32.5119 31.6401 32.6617 31.4834 32.874 31.3421C33.0862 31.2009 33.3694 31.083 33.7232 30.9886C34.0772 30.8945 34.5206 30.8413 35.0537 30.8291V30.5876C35.0537 30.2927 34.9919 30.0761 34.8684 29.938C34.745 29.7995 34.5671 29.7303 34.3353 29.7303C34.1638 29.7303 34.0207 29.7509 33.9062 29.792C33.7918 29.8328 33.6916 29.8771 33.6059 29.9241C33.52 29.9712 33.4396 30.0153 33.3641 30.0565C33.2889 30.0976 33.2017 30.1182 33.1021 30.1182C33.0146 30.1182 32.9419 30.0962 32.8833 30.0519C32.8243 30.0079 32.7754 29.9555 32.7365 29.8946L32.515 29.4935C32.7889 29.2445 33.0916 29.0581 33.4233 28.9349C33.7543 28.8119 34.1125 28.7502 34.4982 28.7502C34.7753 28.7502 35.0229 28.7959 35.2414 28.8872C35.4594 28.9784 35.6447 29.1052 35.7968 29.2679C35.9488 29.4304 36.0658 29.6243 36.147 29.8492C36.2282 30.0741 36.2689 30.3203 36.2689 30.5877V33.542H35.6997V33.5417ZM34.06 32.7667C34.2648 32.7667 34.4438 32.7294 34.5976 32.655C34.7511 32.5805 34.9031 32.4659 35.0538 32.3108V31.5814C34.7496 31.5935 34.4966 31.6193 34.2947 31.6586C34.0931 31.6983 33.9327 31.7476 33.814 31.8068C33.6945 31.8661 33.6105 31.9345 33.5609 32.0121C33.511 32.0894 33.4862 32.1738 33.4862 32.2651C33.4862 32.4476 33.5367 32.5767 33.6377 32.6525C33.7384 32.7286 33.8793 32.7666 34.06 32.7666V32.7667Z" fill="#097671"/>
<path d="M22.5522 33.5392C22.4345 33.5392 22.3449 33.5223 22.2834 33.4891C22.2217 33.4555 22.1712 33.3858 22.1321 33.2791L22.0326 32.983C21.9153 33.0863 21.8014 33.1765 21.6914 33.2542C21.5816 33.3315 21.4672 33.397 21.3484 33.4503C21.2289 33.5035 21.1028 33.5439 20.9685 33.5711C20.8348 33.5986 20.6862 33.612 20.5238 33.612C20.319 33.612 20.1318 33.5847 19.9632 33.5302C19.7945 33.4753 19.6495 33.3941 19.5275 33.2861C19.4056 33.1781 19.3115 33.0439 19.2452 32.8826C19.1791 32.7216 19.1457 32.5365 19.1457 32.3265C19.1457 32.1533 19.1893 31.9808 19.2769 31.8091C19.3644 31.6374 19.514 31.4808 19.7264 31.3396C19.9386 31.1983 20.2218 31.0805 20.5756 30.9861C20.9296 30.8919 21.373 30.8386 21.906 30.8265V30.585C21.906 30.2901 21.8444 30.0736 21.7207 29.9354C21.5974 29.797 21.4196 29.7278 21.1877 29.7278C21.0162 29.7278 20.8729 29.7482 20.7584 29.7895C20.644 29.8303 20.5439 29.8746 20.4581 29.9216C20.3725 29.9687 20.2918 30.0127 20.2164 30.0538C20.1411 30.0949 20.0539 30.1156 19.9545 30.1156C19.867 30.1156 19.7941 30.0937 19.7357 30.0494C19.6765 30.0053 19.6278 29.9529 19.5887 29.8921L19.3672 29.4908C19.6413 29.2419 19.944 29.0554 20.2755 28.9323C20.6065 28.8094 20.9649 28.7476 21.3504 28.7476C21.6276 28.7476 21.8752 28.7933 22.0938 28.8846C22.3116 28.9758 22.4969 29.1025 22.6491 29.2653C22.8011 29.4279 22.918 29.6218 22.9994 29.8467C23.0806 30.0716 23.1212 30.3177 23.1212 30.5852V33.5394H22.552L22.5522 33.5392ZM20.9123 32.7642C21.1172 32.7642 21.2961 32.7267 21.4501 32.6523C21.6034 32.5779 21.7555 32.4632 21.9062 32.3081V31.5787C21.6021 31.591 21.3491 31.6167 21.1472 31.656C20.9455 31.6958 20.7851 31.7449 20.6663 31.8043C20.547 31.8636 20.463 31.932 20.4133 32.0095C20.3633 32.0868 20.3387 32.1713 20.3387 32.2626C20.3387 32.445 20.3892 32.574 20.4902 32.65C20.5909 32.7261 20.7316 32.764 20.9123 32.764V32.7642Z" fill="#097671"/>
<path d="M37.2365 33.5546V28.854H38.0044C38.1612 28.854 38.265 28.9269 38.3163 29.0728L38.3885 29.3783C38.4697 29.2932 38.5535 29.2141 38.6393 29.1411C38.7249 29.0683 38.8177 29.0054 38.9172 28.9521C39.0166 28.8989 39.1242 28.8571 39.24 28.8267C39.3562 28.7962 39.4818 28.7809 39.6172 28.7809C39.9035 28.7809 40.1398 28.8579 40.3263 29.0114C40.5134 29.1648 40.6546 29.3692 40.7513 29.6246C40.8265 29.4755 40.919 29.3472 41.029 29.2392C41.1389 29.1312 41.2593 29.0439 41.3904 28.9771C41.5216 28.9102 41.6598 28.8608 41.8062 28.829C41.9521 28.7968 42.0988 28.7808 42.2464 28.7808C42.5083 28.7808 42.7405 28.8205 42.942 28.8995C43.144 28.9786 43.3132 29.0948 43.4504 29.2482C43.5875 29.4018 43.6919 29.5896 43.7642 29.8113C43.8363 30.0334 43.8726 30.2856 43.8726 30.5682V33.5546H42.6259V30.5682C42.6259 30.0181 42.3923 29.7429 41.9256 29.7429C41.8203 29.7429 41.7231 29.7607 41.6345 29.7953C41.5454 29.8305 41.4672 29.8829 41.3992 29.9526C41.3315 30.0226 41.2787 30.1092 41.2414 30.2126C41.2035 30.3159 41.1845 30.4347 41.1845 30.5682V33.5546H39.9378V30.5682C39.9378 30.2706 39.8799 30.0583 39.7641 29.9324C39.6482 29.8061 39.4771 29.7429 39.251 29.7429C39.1064 29.7429 38.9705 29.7771 38.8426 29.8454C38.7144 29.9141 38.5948 30.009 38.4833 30.1306V33.5546H37.2363H37.2365Z" fill="#097671"/>
<path fill-rule="evenodd" clip-rule="evenodd" d="M28.2253 28.7612H31.8526V29.7208H30.6709V33.5546H29.4068V29.7208H28.2253V28.7612Z" fill="#097671"/>
<path d="M4 27.9585C6.34464 27.8501 8.78623 27.7945 11.2584 27.7945C13.7306 27.7945 16.1721 27.8501 18.5166 27.9585C18.5166 27.9585 13.8536 27.1174 11.2584 27.1174C8.66234 27.1174 4 27.9585 4 27.9585Z" fill="#097671"/>
<path d="M7.13358 28.1299H6.34458L6.34054 28.2795L6.3396 28.3229C6.3396 30.2029 6.99891 31.9278 8.10222 32.9365L8.18436 33.0119L8.26705 32.9365C8.74026 32.5042 9.13603 31.9148 9.43633 31.2311C9.78579 32.6859 10.3915 33.9397 11.1689 34.7862L11.2583 34.8838L11.3486 34.7862C12.1245 33.9397 12.7304 32.6859 13.0812 31.2311C13.3802 31.9149 13.7762 32.5042 14.2496 32.9365L14.3318 33.0119L14.4145 32.9365C15.5187 31.9278 16.1769 30.2029 16.1769 28.3229L16.1721 28.1322L16.0529 28.13H15.2585L15.2616 28.3229C15.2616 29.7161 14.9141 30.9883 14.3316 31.7802C13.809 31.0661 13.4663 29.9308 13.4119 28.6882L13.4196 28.323L13.4178 28.2508L13.4155 28.1309L13.2957 28.1302H12.4919L12.4888 28.2798L12.4876 28.3232C12.4876 28.3232 12.5032 28.7844 12.5047 28.802C12.44 30.7196 11.9752 32.4739 11.2585 33.5613C10.5426 32.4739 10.0769 30.7196 10.0123 28.8031C10.0132 28.785 10.0294 28.3233 10.0294 28.3233L10.0248 28.1311L9.90631 28.1304H9.10102L9.09792 28.3233L9.10425 28.6966C9.05039 29.9312 8.70821 31.0665 8.1845 31.7807C7.60248 30.9887 7.25505 29.7165 7.25505 28.3233L7.25895 28.1296L7.13371 28.1304L7.13358 28.1299Z" fill="#F4AA2D"/>
<path d="M11.1689 21.0975C10.3916 21.944 9.78579 23.1984 9.43633 24.6525C9.13603 23.9689 8.74039 23.3801 8.26705 22.9473L8.18436 22.8717L8.10222 22.9473C6.99878 23.9563 6.3396 25.681 6.3396 27.561L6.34458 27.7408L6.46282 27.7432H7.25801L7.25505 27.5609C7.25505 26.1675 7.60261 24.8952 8.1845 24.1032C8.70807 24.8172 9.05025 25.9545 9.10425 27.1972L9.09792 27.5609L9.10102 27.7416L9.22101 27.7431H10.0247L10.0293 27.5607C10.0293 27.5607 10.0131 27.0993 10.0122 27.0819C10.0768 25.1643 10.5425 23.41 11.2583 22.3226C11.975 23.41 12.4399 25.1643 12.5045 27.0819C12.5032 27.0994 12.4874 27.5607 12.4874 27.5607L12.4915 27.7415L12.6113 27.7429H13.4157L13.4188 27.5982L13.4197 27.5606L13.412 27.1875C13.4664 25.9525 13.809 24.817 14.3318 24.103C14.9143 24.8949 15.2618 26.1672 15.2618 27.5606L15.261 27.6181L15.2579 27.7429H15.3823H16.1722L16.1763 27.5994L16.1771 27.5606C16.1771 25.6806 15.5187 23.9559 14.4146 22.9469L14.3319 22.8713L14.2498 22.9469C13.7764 23.379 13.3804 23.9686 13.0813 24.6521C12.7306 23.198 12.1248 21.9443 11.3487 21.0971L11.2585 20.9995L11.1691 21.0971L11.1689 21.0975Z" fill="#097671"/>
</g>
</g>
<rect x="0.5" y="0.5" width="55" height="55" rx="3.5" stroke="#DDDDDD"/>
<defs>
<clipPath id="clip0_540_28302">
<rect width="56" height="56" rx="4" fill="white"/>
</clipPath>
<clipPath id="clip1_540_28302">
<rect width="48" height="13.884" fill="white" transform="translate(4 21)"/>
</clipPath>
</defs>
</svg>
