<svg width="56" height="56" viewBox="0 0 56 56" fill="none" xmlns="http://www.w3.org/2000/svg">
<g clip-path="url(#clip0_540_28305)">
<g clip-path="url(#clip1_540_28305)">
<path fill-rule="evenodd" clip-rule="evenodd" d="M14.0001 36.9869L32.7678 36.9904C32.8432 36.7603 33.5579 35.3578 33.7404 34.9671C33.923 34.5756 34.6399 33.1896 34.7173 32.9175L21.2714 32.9182C21.2814 32.7569 23.3296 28.7848 23.5967 28.1994L28.3127 18.7406C29.1147 17.1378 29.8984 15.5926 30.6685 14.0133L25.4055 14.0005L23.9797 16.8543C22.6149 19.7117 21.0398 22.6565 19.6957 25.4884C18.7799 27.4165 17.7476 29.3191 16.8482 31.2223C16.1705 32.6567 15.4188 34.106 14.7098 35.5411C14.5919 35.7798 14.4711 36.0079 14.3524 36.248C14.2516 36.4526 14.0569 36.7986 14.0001 36.9876L14.0001 36.9869Z" fill="#E52529"/>
<path fill-rule="evenodd" clip-rule="evenodd" d="M27.306 29.4328L33.0449 29.4335C33.6602 30.62 34.2868 31.9919 34.9077 33.1975L36.7797 36.9877L42.0505 36.9898C41.9596 36.6872 41.6356 36.1352 41.485 35.8169L39.7572 32.3343C38.1907 29.2197 36.7094 26.1122 35.1414 23.0033C34.3742 21.4816 33.6261 19.8596 32.829 18.3442C32.7309 18.4473 28.8881 26.2181 28.6821 26.6287C28.5698 26.8532 27.3493 29.2567 27.3074 29.4321L27.306 29.4328Z" fill="#E52529"/>
<path d="M14.8339 40.8926V38.967H15.0375V40.7165H16.1158V40.8926H14.8339Z" fill="#E52529"/>
<path d="M17.9283 40.9092C17.7834 40.9092 17.6486 40.8854 17.5239 40.8377C17.4011 40.7882 17.2938 40.7194 17.2021 40.6314C17.1122 40.5415 17.0416 40.4379 16.9903 40.3206C16.9408 40.2014 16.916 40.0712 16.916 39.93C16.916 39.7888 16.9408 39.6595 16.9903 39.5421C17.0416 39.4229 17.1122 39.3193 17.2021 39.2313C17.2938 39.1414 17.4011 39.0726 17.5239 39.025C17.6468 38.9754 17.7816 38.9507 17.9283 38.9507C18.0732 38.9507 18.207 38.9754 18.3299 39.025C18.4528 39.0726 18.5591 39.1405 18.649 39.2285C18.7407 39.3165 18.8113 39.4201 18.8608 39.5393C18.9122 39.6585 18.9378 39.7888 18.9378 39.93C18.9378 40.0712 18.9122 40.2014 18.8608 40.3206C18.8113 40.4398 18.7407 40.5434 18.649 40.6314C18.5591 40.7194 18.4528 40.7882 18.3299 40.8377C18.207 40.8854 18.0732 40.9092 17.9283 40.9092ZM17.9283 40.7277C18.0438 40.7277 18.1502 40.7084 18.2474 40.6699C18.3464 40.6296 18.4317 40.5736 18.5032 40.5021C18.5766 40.4288 18.6334 40.3444 18.6738 40.249C18.7141 40.1519 18.7343 40.0455 18.7343 39.93C18.7343 39.8144 18.7141 39.709 18.6738 39.6136C18.6334 39.5164 18.5766 39.4321 18.5032 39.3605C18.4317 39.2872 18.3464 39.2313 18.2474 39.1928C18.1502 39.1524 18.0438 39.1322 17.9283 39.1322C17.8128 39.1322 17.7055 39.1524 17.6065 39.1928C17.5074 39.2313 17.4212 39.2872 17.3479 39.3605C17.2764 39.4321 17.2195 39.5164 17.1773 39.6136C17.137 39.709 17.1168 39.8144 17.1168 39.93C17.1168 40.0437 17.137 40.1491 17.1773 40.2463C17.2195 40.3435 17.2764 40.4288 17.3479 40.5021C17.4212 40.5736 17.5074 40.6296 17.6065 40.6699C17.7055 40.7084 17.8128 40.7277 17.9283 40.7277Z" fill="#E52529"/>
<path d="M20.597 40.8926V39.1431H19.9203V38.967H21.4773V39.1431H20.8006V40.8926H20.597Z" fill="#E52529"/>
<path d="M23.2258 40.9091C22.98 40.9091 22.7865 40.8385 22.6453 40.6973C22.5041 40.5561 22.4335 40.347 22.4335 40.0701V38.967H22.6371V40.0618C22.6371 40.2892 22.6884 40.457 22.7911 40.5652C22.8938 40.6734 23.0387 40.7275 23.2258 40.7275C23.4146 40.7275 23.5604 40.6734 23.6631 40.5652C23.7658 40.457 23.8172 40.2892 23.8172 40.0618V38.967H24.0152V40.0701C24.0152 40.347 23.9446 40.5561 23.8034 40.6973C23.664 40.8385 23.4715 40.9091 23.2258 40.9091Z" fill="#E52529"/>
<path d="M25.9798 40.9092C25.8367 40.9092 25.6992 40.8863 25.5672 40.8405C25.437 40.7928 25.3361 40.7323 25.2646 40.6589L25.3444 40.5021C25.4122 40.5681 25.503 40.6241 25.6167 40.6699C25.7322 40.7139 25.8533 40.7359 25.9798 40.7359C26.1008 40.7359 26.1989 40.7213 26.2741 40.6919C26.3511 40.6607 26.4071 40.6195 26.4419 40.5681C26.4786 40.5168 26.4969 40.4599 26.4969 40.3976C26.4969 40.3224 26.4749 40.2619 26.4309 40.216C26.3887 40.1702 26.3328 40.1344 26.2631 40.1088C26.1934 40.0812 26.1164 40.0574 26.0321 40.0372C25.9477 40.0171 25.8633 39.996 25.779 39.974C25.6946 39.9501 25.6167 39.919 25.5452 39.8804C25.4755 39.8419 25.4186 39.7915 25.3746 39.7292C25.3324 39.665 25.3114 39.5815 25.3114 39.4788C25.3114 39.3835 25.3361 39.2964 25.3856 39.2175C25.437 39.1368 25.5149 39.0726 25.6194 39.025C25.724 38.9754 25.8578 38.9507 26.021 38.9507C26.1292 38.9507 26.2365 38.9663 26.3429 38.9974C26.4493 39.0268 26.5409 39.068 26.618 39.1212L26.5492 39.2835C26.4667 39.2285 26.3786 39.1882 26.2851 39.1625C26.1934 39.1368 26.1045 39.124 26.0183 39.124C25.9028 39.124 25.8074 39.1396 25.7322 39.1707C25.657 39.2019 25.6011 39.2441 25.5644 39.2973C25.5296 39.3486 25.5122 39.4073 25.5122 39.4733C25.5122 39.5485 25.5332 39.609 25.5754 39.6549C25.6194 39.7007 25.6763 39.7365 25.746 39.7622C25.8175 39.7878 25.8954 39.8108 25.9798 39.8309C26.0641 39.8511 26.1476 39.8731 26.2301 39.8969C26.3145 39.9208 26.3915 39.952 26.4612 39.9905C26.5327 40.0272 26.5895 40.0767 26.6317 40.139C26.6757 40.2014 26.6977 40.283 26.6977 40.3838C26.6977 40.4774 26.6721 40.5645 26.6207 40.6452C26.5694 40.724 26.4905 40.7882 26.3841 40.8377C26.2796 40.8854 26.1448 40.9092 25.9798 40.9092Z" fill="#E52529"/>
<path d="M28.4603 40.8926L29.3185 38.967H29.7586L30.6196 40.8926H30.152L29.4478 39.1926H29.6238L28.9169 40.8926H28.4603ZM28.8894 40.48L29.0077 40.1416H29.9979L30.119 40.48H28.8894Z" fill="#E52529"/>
<path d="M31.7089 40.8926V38.967H32.5423C32.7147 38.967 32.8633 38.9955 32.988 39.0523C33.1127 39.1073 33.2089 39.1871 33.2768 39.2916C33.3447 39.3962 33.3786 39.5209 33.3786 39.6657C33.3786 39.8088 33.3447 39.9326 33.2768 40.0371C33.2089 40.1398 33.1127 40.2186 32.988 40.2737C32.8633 40.3287 32.7147 40.3562 32.5423 40.3562H31.9564L32.1545 40.1609V40.8926H31.7089ZM32.933 40.8926L32.4516 40.1939H32.9275L33.4143 40.8926H32.933ZM32.1545 40.2104L31.9564 40.0013H32.5176C32.6551 40.0013 32.7578 39.972 32.8257 39.9133C32.8935 39.8528 32.9275 39.7703 32.9275 39.6657C32.9275 39.5594 32.8935 39.4768 32.8257 39.4182C32.7578 39.3595 32.6551 39.3301 32.5176 39.3301H31.9564L32.1545 39.1183V40.2104Z" fill="#E52529"/>
<path d="M35.462 40.9256C35.3135 40.9256 35.175 40.9018 35.0467 40.8541C34.9201 40.8046 34.8101 40.7349 34.7166 40.6451C34.6231 40.5552 34.5497 40.4498 34.4965 40.3287C34.4452 40.2077 34.4195 40.0747 34.4195 39.9299C34.4195 39.785 34.4452 39.652 34.4965 39.531C34.5497 39.41 34.6231 39.3045 34.7166 39.2147C34.8119 39.1248 34.9229 39.056 35.0494 39.0084C35.176 38.9588 35.3144 38.9341 35.4648 38.9341C35.6317 38.9341 35.782 38.9634 35.9159 39.0221C36.0516 39.079 36.1653 39.1633 36.257 39.2752L35.9709 39.5393C35.9049 39.4641 35.8316 39.4081 35.7509 39.3715C35.6702 39.3329 35.5822 39.3137 35.4868 39.3137C35.3969 39.3137 35.3144 39.3284 35.2392 39.3577C35.164 39.387 35.0989 39.4292 35.0439 39.4842C34.9889 39.5393 34.9458 39.6044 34.9146 39.6795C34.8853 39.7547 34.8706 39.8382 34.8706 39.9299C34.8706 40.0216 34.8853 40.105 34.9146 40.1802C34.9458 40.2554 34.9889 40.3205 35.0439 40.3755C35.0989 40.4305 35.164 40.4727 35.2392 40.502C35.3144 40.5314 35.3969 40.546 35.4868 40.546C35.5822 40.546 35.6702 40.5277 35.7509 40.491C35.8316 40.4525 35.9049 40.3947 35.9709 40.3177L36.257 40.5818C36.1653 40.6937 36.0516 40.7789 35.9159 40.8376C35.782 40.8963 35.6307 40.9256 35.462 40.9256Z" fill="#E52529"/>
<path d="M38.6859 38.967H39.1315V40.8926H38.6859V38.967ZM37.8112 40.8926H37.3655V38.967H37.8112V40.8926ZM38.7189 40.1031H37.7782V39.7263H38.7189V40.1031Z" fill="#E52529"/>
<path d="M40.4327 40.8926V38.967H40.8784V40.8926H40.4327Z" fill="#E52529"/>
</g>
</g>
<rect x="0.5" y="0.5" width="55" height="55" rx="3.5" stroke="#DDDDDD"/>
<defs>
<clipPath id="clip0_540_28305">
<rect width="56" height="56" rx="4" fill="white"/>
</clipPath>
<clipPath id="clip1_540_28305">
<rect width="28.0499" height="28" fill="white" transform="translate(14 14)"/>
</clipPath>
</defs>
</svg>
