<svg width="56" height="56" viewBox="0 0 56 56" fill="none" xmlns="http://www.w3.org/2000/svg">
<path d="M28 56C43.464 56 56 43.464 56 28C56 12.536 43.464 0 28 0C12.536 0 0 12.536 0 28C0 43.464 12.536 56 28 56Z" fill="#E3FAE8" fill-opacity="0.5"/>
<path d="M11.2727 30.5552H21.1858L22.5273 32.9602H33.3686L34.6087 30.5552H44.7272L36.673 21.6621H19.119L11.2727 30.5552Z" fill="#268C44"/>
<path opacity="0.28" d="M14.1638 44.3636L19.2543 28.2107H36.8161L42.3173 44.3636H14.1638Z" fill="#2A5E2F"/>
<path opacity="0.28" d="M19.2075 21.6674L19.3427 28.2133" stroke="#2A5E2F" stroke-width="0.5" stroke-miterlimit="10"/>
<path opacity="0.28" d="M36.5769 21.6674L36.7095 28.2133" stroke="#2A5E2F" stroke-width="0.5" stroke-miterlimit="10"/>
<path d="M34.6087 30.5552L33.3686 32.9602H22.5273L21.1858 30.5552H11.2727L14.1637 44.3636H42.3172L44.7272 30.5552H34.6087Z" fill="#268C44"/>
<path d="M33.3687 32.9602H22.5274L22.0023 32.0198H13.2747L15.4221 43.2125H41.0148L42.7255 32.0198H33.8549L33.3687 32.9602Z" fill="white"/>
<path d="M28.2185 38.7844C30.0774 38.8634 31.5099 39.651 32.36 41.3817C32.5992 41.8664 32.3366 42.2931 31.8582 42.2536C31.5879 42.2299 31.4709 42.0429 31.3591 41.8268C30.1762 39.5193 27.0044 39.1874 25.3977 41.1999C25.2417 41.3948 25.1247 41.6082 25.0155 41.8348C24.8283 42.2272 24.5345 42.3616 24.22 42.2141C23.9262 42.0771 23.8508 41.7426 24.038 41.3448C24.6775 39.9961 25.7591 39.2216 27.1734 38.8924C27.5191 38.8107 27.8649 38.7738 28.2185 38.7844Z" fill="#268C44"/>
<path d="M31.762 37.0353C31.2681 37.0037 30.8339 36.8325 30.4725 36.4874C30.2282 36.253 30.1762 35.9685 30.3971 35.7077C30.6155 35.4469 30.9093 35.4364 31.1693 35.6498C31.5931 36.0001 32.0012 35.9764 32.4328 35.6708C32.7864 35.4206 33.114 35.4654 33.2985 35.7604C33.4701 36.037 33.3791 36.3505 33.0516 36.5823C32.6642 36.8615 32.2326 37.009 31.762 37.0353Z" fill="#268C44"/>
<path d="M24.1237 37.0458C23.6193 37.0089 23.1825 36.8351 22.8237 36.49C22.5794 36.2529 22.5404 35.9711 22.7613 35.7076C22.9693 35.46 23.2553 35.4363 23.4971 35.6365C23.9521 36.0132 24.3784 35.9842 24.8334 35.6471C25.1142 35.439 25.4132 35.4337 25.6316 35.7393C25.8473 36.0422 25.7511 36.3214 25.473 36.5401C25.0726 36.8562 24.6124 37.0116 24.1237 37.0458Z" fill="#268C44"/>
<path d="M27.7606 18.588H28.2364C28.3898 18.588 28.5146 18.4616 28.5146 18.3061V11.9182C28.5146 11.7628 28.3898 11.6364 28.2364 11.6364H27.7606C27.6072 11.6364 27.4824 11.7628 27.4824 11.9182V18.3061C27.4824 18.4616 27.6072 18.588 27.7606 18.588Z" fill="#268C44"/>
<path d="M32.3886 19.1042C32.659 19.1675 32.9502 19.0595 33.0386 18.8672L35.5734 13.2563C35.6618 13.0614 35.5136 12.8533 35.2406 12.7901C34.9702 12.7268 34.679 12.8349 34.5907 13.0271L32.0558 18.638C31.97 18.8329 32.1182 19.041 32.3886 19.1042Z" fill="#268C44"/>
<path d="M23.6115 19.1042C23.3411 19.1675 23.0499 19.0595 22.9615 18.8672L20.4267 13.2563C20.3383 13.0614 20.4865 12.8533 20.7595 12.7901C21.0298 12.7268 21.321 12.8349 21.4094 13.0271L23.9442 18.638C24.03 18.8329 23.8818 19.041 23.6115 19.1042Z" fill="#268C44"/>
</svg>
