<svg width="56" height="56" viewBox="0 0 56 56" fill="none" xmlns="http://www.w3.org/2000/svg">
<g clip-path="url(#clip0_540_28308)">
<g clip-path="url(#clip1_540_28308)">
<path d="M22.7619 22.1001H25.0438L23.6991 26.8639C23.5124 27.5239 23.4172 27.956 23.5352 28.1546C23.6514 28.3513 23.9714 28.4506 24.4933 28.4506H24.8991C25.4172 28.4506 25.7848 28.3531 26.0038 28.1601C26.2229 27.9652 26.421 27.535 26.6 26.8639L27.8724 22.1001H30.0819L28.7638 27.0349C28.5676 27.7666 28.3791 28.3053 28.1962 28.6491C28.0133 28.9929 27.7791 29.2926 27.4933 29.5427C27.1543 29.8405 26.7733 30.052 26.3505 30.1788C25.9295 30.3075 25.3886 30.3719 24.7276 30.3719H23.6343C22.9733 30.3719 22.4667 30.3075 22.1143 30.1788C21.7619 30.052 21.4952 29.8405 21.3181 29.5427C21.1638 29.2871 21.0876 28.9837 21.0857 28.6344C21.0838 28.2851 21.1695 27.7501 21.3714 27.0349L22.7619 22.1001ZM38.8362 27.6048H41.0686L41.0457 27.6876C40.9619 27.9836 40.9886 28.3292 41.1238 28.445C41.2591 28.5627 41.5352 28.6215 41.96 28.6215H42.5429C42.8972 28.6215 43.1562 28.5774 43.3219 28.4873C43.4876 28.3991 43.6038 28.2391 43.6667 28.013L43.7657 27.6563C43.8191 27.4632 43.8038 27.3235 43.7124 27.2408C43.6248 27.1562 43.3886 27.09 43.0038 27.0477L41.1695 26.8547C40.4876 26.7811 40.0305 26.5752 39.8019 26.2332C39.5733 25.8913 39.5543 25.382 39.7429 24.7109L39.8838 24.2053C39.9905 23.8247 40.1486 23.4864 40.3619 23.1867C40.5733 22.8889 40.8286 22.6425 41.1257 22.455C41.381 22.2895 41.6686 22.1718 41.9848 22.1038C42.3029 22.0358 42.7581 22.0027 43.3524 22.0027H44.7467C45.6133 22.0027 46.2286 22.1682 46.5943 22.4973C46.96 22.8282 47.0229 23.2952 46.8819 23.9277L46.7257 24.6263H44.4952L44.52 24.5381C44.5886 24.2935 44.5752 23.9828 44.48 23.8872C44.3848 23.7916 44.1752 23.7457 43.8572 23.7457H43.32C42.9505 23.7457 42.6857 23.7861 42.5238 23.8688C42.3638 23.9516 42.2533 24.0931 42.1981 24.2935L42.1029 24.6355C42.0191 24.9352 42.28 25.1191 42.8876 25.1853L44.5543 25.3673C45.2762 25.4482 45.7714 25.6504 46.0457 25.9777C46.32 26.3049 46.3733 26.7664 46.2076 27.3584L45.9886 28.1435C45.8 28.8201 45.4248 29.3607 44.8629 29.7688C44.301 30.1751 43.6438 30.3792 42.8895 30.3792H40.9943C39.9829 30.3792 39.2895 30.2138 38.9238 29.8846C38.5562 29.5555 38.5105 29.0389 38.6743 28.3127L38.8324 27.6103L38.8362 27.6048ZM32 22.1001H36.0838C37.1543 22.1001 37.8667 22.2435 38.221 22.5304C38.5772 22.8172 38.6552 23.3062 38.4629 23.9975L38.3162 24.5234C38.1867 24.9849 37.9676 25.3397 37.6591 25.5897C37.3505 25.8379 36.9429 25.9887 36.4343 26.0457C36.92 26.1413 37.3391 26.2627 37.5429 26.5495C37.7467 26.8363 37.7162 27.2665 37.5943 27.6986L37.4591 28.1821C37.2419 28.958 36.8648 29.5004 36.3314 29.8111C35.7962 30.12 34.9314 30.2744 33.7372 30.2744H29.7143L32.0019 22.102L32 22.1001ZM33.8076 23.9093L33.4019 25.3599H35.0457C35.2933 25.3599 35.6286 25.3158 35.76 25.2294C35.8914 25.1411 35.9867 24.9977 36.0419 24.801L36.1333 24.4719C36.1886 24.2733 36.1752 24.1318 36.0914 24.0435C36.0095 23.9553 35.6991 23.913 35.4514 23.913H33.8057L33.8076 23.9093ZM32.9638 26.9227L32.5352 28.4524H34.2667C34.5276 28.4524 34.8705 28.4046 35.0133 28.3127C35.1562 28.2189 35.2572 28.07 35.3143 27.8585L35.4095 27.5166C35.4686 27.307 35.4514 27.158 35.3619 27.0624C35.2724 26.9687 34.9543 26.9227 34.6933 26.9227H32.9619H32.9638Z" fill="#004882"/>
<path d="M8.53905 32.5263C8.59429 32.53 8.72952 32.5355 8.78667 32.5355C9.17333 32.5355 9.53333 32.381 9.53333 31.9343C9.53333 31.4728 9.20762 31.3661 8.79619 31.3661C8.66286 31.3661 8.53333 31.3845 8.4 31.3845C8.33714 31.3845 8.17333 31.379 8.01333 31.3661C8.02857 31.5096 8.04 31.6438 8.04 32.2101C8.04 32.5042 8.04 33.1532 8 33.3923C8.07619 33.3812 8.16 33.3739 8.26286 33.3739C8.3619 33.3739 8.46286 33.3794 8.56 33.3923C8.54857 33.2341 8.53905 33.0337 8.53905 32.9216V32.5281V32.5263ZM8.55048 31.5757C8.58286 31.5721 8.61714 31.5702 8.64952 31.5702C8.88762 31.5702 9.00381 31.6953 9.00381 31.9379C9.00381 32.2965 8.77143 32.3369 8.61714 32.3369C8.59048 32.3369 8.56571 32.3369 8.54476 32.3332L8.55048 31.5739V31.5757ZM9.91048 32.6348C9.91048 32.7635 9.91048 32.9731 10.0857 33.1808C10.2457 33.3702 10.5371 33.4235 10.821 33.4235C11.0171 33.4235 11.1924 33.3923 11.3352 33.3095C11.7124 33.0944 11.7276 32.7396 11.7276 32.4546C11.7276 32.1714 11.739 31.6162 11.7848 31.3661C11.739 31.3753 11.6705 31.3845 11.6057 31.3845C11.5448 31.3845 11.4667 31.379 11.4114 31.3661C11.4362 31.5757 11.4381 31.6493 11.4381 31.892V32.2413C11.4381 32.5005 11.4343 32.6789 11.3924 32.8223C11.3105 33.0999 11.0743 33.1661 10.9181 33.1661C10.7371 33.1661 10.5695 33.0815 10.4971 32.951C10.4419 32.8517 10.4133 32.6973 10.4133 32.3645C10.4133 32.1126 10.4229 31.5996 10.4533 31.3661C10.3714 31.3809 10.2686 31.3845 10.1752 31.3845C10.0933 31.3845 10 31.379 9.8819 31.3661C9.89714 31.4691 9.90857 31.7081 9.90857 31.8736V32.6348H9.91048ZM13.3638 31.8295C13.3695 31.7559 13.4057 31.5849 13.4629 31.4857C13.3448 31.425 13.1905 31.3459 12.9029 31.3459C12.4457 31.3459 12.1676 31.5739 12.1676 31.9766C12.1676 32.2983 12.3543 32.4491 12.6305 32.5667C13 32.7212 13.1048 32.769 13.1048 32.9308C13.1048 33.0797 12.9962 33.2231 12.741 33.2231C12.56 33.2231 12.3295 33.144 12.2819 32.8811H12.2057C12.2057 32.9841 12.179 33.1679 12.1429 33.2838C12.24 33.3371 12.4152 33.4272 12.72 33.4272C13.2438 33.4272 13.5238 33.1404 13.5238 32.7616C13.5238 32.6476 13.5029 32.5318 13.4324 32.4325C13.3505 32.313 13.2305 32.2431 13.1429 32.2082C12.6952 32.0354 12.56 31.9839 12.56 31.8001C12.56 31.5518 12.8419 31.5463 12.901 31.5463C13.059 31.5463 13.2362 31.6107 13.2933 31.8331H13.36L13.3638 31.8295ZM13.6514 33.3904C13.7181 33.372 13.7905 33.372 13.821 33.372C13.8819 33.372 13.9295 33.3812 13.9867 33.3904C14.0381 33.1753 14.1162 32.9584 14.1676 32.8149C14.2857 32.8094 14.4038 32.8057 14.5162 32.8057C14.6248 32.8057 14.7276 32.8113 14.8305 32.8149C14.8629 32.9032 14.9371 33.0871 15.0248 33.3904C15.1181 33.372 15.2457 33.372 15.3448 33.372C15.4381 33.372 15.5352 33.3757 15.6286 33.3904C15.4419 32.9639 15.0933 32.1475 14.8095 31.3422C14.7619 31.3533 14.7105 31.3606 14.661 31.3606C14.6095 31.3606 14.5543 31.3551 14.5029 31.3422C14.2933 31.9177 13.8343 33.0153 13.6495 33.3904H13.6514ZM14.7543 32.5943C14.6705 32.598 14.5848 32.6035 14.501 32.6035C14.419 32.6035 14.3371 32.5998 14.2552 32.5943L14.5124 31.9545L14.7543 32.5943ZM16.0362 32.7249C16.0362 32.8885 16.0362 33.2525 16.0057 33.3904C16.0876 33.3812 16.1905 33.372 16.2743 33.372C16.3581 33.372 16.4857 33.3775 16.5733 33.3904C16.5581 33.2305 16.5524 33.0687 16.5524 32.894C16.5524 32.701 16.5562 32.3369 16.5562 32.1641C16.5562 31.9416 16.5562 31.7431 16.5619 31.6162C16.7314 31.6162 16.9238 31.6217 17.1029 31.6419C17.0971 31.6107 17.0876 31.5518 17.0876 31.504C17.0876 31.4599 17.0933 31.4158 17.1029 31.3643C16.9067 31.3827 16.661 31.3882 16.2857 31.3882C15.9295 31.3882 15.6229 31.3827 15.4686 31.3643C15.4781 31.4048 15.4838 31.4489 15.4838 31.493C15.4838 31.5427 15.48 31.5923 15.4686 31.6419C15.6914 31.618 15.8857 31.6162 16.0305 31.6162C16.0343 31.9674 16.0343 32.3571 16.0343 32.7249H16.0362ZM18.0857 32.8057C18.0857 32.9657 18.0743 33.247 18.0457 33.3886C18.2152 33.3775 18.4114 33.3647 18.6057 33.3647C18.8152 33.3647 19.0952 33.3702 19.2895 33.3886C19.28 33.3353 19.2743 33.2856 19.2743 33.236C19.2743 33.1955 19.28 33.1477 19.2895 33.0981C19.08 33.1385 18.76 33.1422 18.6095 33.1422C18.6057 33.1018 18.6038 33.0613 18.6038 33.0172V32.4362C18.8819 32.4362 19.0552 32.4362 19.2781 32.4601C19.2724 32.416 19.2629 32.37 19.2629 32.3222C19.2629 32.2762 19.2686 32.2284 19.2781 32.1825C19.0457 32.2137 18.8495 32.2137 18.6038 32.2137V31.9159C18.6038 31.8111 18.6076 31.7081 18.6133 31.6033C18.8133 31.6033 19.101 31.607 19.299 31.6419C19.2876 31.596 19.2838 31.5463 19.2838 31.4967C19.2838 31.4507 19.2895 31.4066 19.299 31.3625C19.0876 31.3809 18.9295 31.3864 18.7638 31.3864C18.5771 31.3864 18.3257 31.3753 18.0629 31.3625C18.0819 31.4857 18.0895 31.6162 18.0895 31.7486L18.0857 32.8057ZM21.88 31.7431C21.8686 31.6383 21.8552 31.4746 21.8476 31.3643C21.7848 31.3753 21.739 31.3827 21.661 31.3827C21.5886 31.3827 21.5162 31.379 21.4438 31.3643C21.4133 31.4544 21.3962 31.5096 21.3219 31.6769C21.1714 32.0262 21.0076 32.3737 20.8381 32.7193C20.7086 32.4601 20.3295 31.5849 20.2629 31.3661C20.2057 31.3717 20.1276 31.3845 20.0629 31.3845C20.0019 31.3845 19.9029 31.3753 19.8419 31.3661C19.8381 31.4801 19.8267 31.5941 19.8095 31.7044L19.6 33.0466C19.581 33.1661 19.5581 33.2764 19.5295 33.3904C19.5867 33.3812 19.6476 33.372 19.699 33.372C19.7543 33.372 19.8076 33.3775 19.8629 33.3904C19.8629 33.2213 19.8781 33.0632 19.8895 32.9124C19.9143 32.6256 19.9524 32.3369 19.9962 32.0519C20.139 32.3498 20.2781 32.6495 20.4133 32.951C20.5219 33.1937 20.5562 33.2948 20.5848 33.3923C20.6114 33.3867 20.6457 33.3831 20.6971 33.3831C20.7448 33.3831 20.7848 33.3886 20.8057 33.3923C20.8514 33.2727 20.8667 33.2341 20.9848 32.9657C21.1867 32.5079 21.2076 32.4546 21.4171 32.0427C21.4267 32.1457 21.48 32.6403 21.4933 32.7543C21.5333 33.1036 21.539 33.2599 21.541 33.3904C21.6286 33.3794 21.699 33.3702 21.8305 33.3702C21.9295 33.3702 22.0095 33.3757 22.1048 33.3904C22.059 33.1624 22.0229 32.9289 21.9962 32.6991L21.8781 31.7449L21.88 31.7431ZM22.2571 33.3886C22.3238 33.3702 22.3962 33.3702 22.4267 33.3702C22.4876 33.3702 22.5352 33.3794 22.5924 33.3886C22.6438 33.1735 22.7219 32.9565 22.7733 32.8131C22.8914 32.8076 23.0095 32.8039 23.1219 32.8039C23.2305 32.8039 23.3333 32.8094 23.4362 32.8131C23.4686 32.9014 23.5429 33.0852 23.6305 33.3886C23.7238 33.3702 23.8514 33.3702 23.9505 33.3702C24.0438 33.3702 24.141 33.3739 24.2343 33.3886C24.0476 32.962 23.699 32.1457 23.4152 31.3404C23.3676 31.3514 23.3162 31.3588 23.2667 31.3588C23.2152 31.3588 23.16 31.3533 23.1086 31.3404C22.899 31.9159 22.44 33.0135 22.2552 33.3886H22.2571ZM23.36 32.5925C23.2762 32.5962 23.1905 32.6017 23.1067 32.6017C23.0248 32.6017 22.9429 32.598 22.861 32.5925L23.1181 31.9527L23.36 32.5925ZM25.6362 31.8276C25.6419 31.7541 25.6781 31.5831 25.7352 31.4838C25.6171 31.4231 25.4629 31.3441 25.1752 31.3441C24.7181 31.3441 24.44 31.5721 24.44 31.9747C24.44 32.2965 24.6267 32.4472 24.9029 32.5649C25.2724 32.7193 25.3771 32.7671 25.3771 32.9289C25.3771 33.0779 25.2686 33.2213 25.0133 33.2213C24.8324 33.2213 24.6019 33.1422 24.5543 32.8793H24.4781C24.4781 32.9823 24.4514 33.1661 24.4152 33.2819C24.5124 33.3353 24.6876 33.4253 24.9924 33.4253C25.5162 33.4253 25.7962 33.1385 25.7962 32.7598C25.7962 32.6458 25.7752 32.53 25.7048 32.4307C25.6229 32.3112 25.5029 32.2413 25.4152 32.2064C24.9676 32.0335 24.8324 31.9821 24.8324 31.7982C24.8324 31.55 25.1143 31.5445 25.1733 31.5445C25.3314 31.5445 25.5086 31.6088 25.5657 31.8313H25.6324L25.6362 31.8276ZM29.1867 31.7431C29.1752 31.6383 29.1619 31.4746 29.1543 31.3643C29.0914 31.3753 29.0457 31.3827 28.9676 31.3827C28.8952 31.3827 28.8229 31.379 28.7505 31.3643C28.72 31.4544 28.7029 31.5096 28.6286 31.6769C28.4781 32.0262 28.3143 32.3737 28.1448 32.7193C28.0152 32.4601 27.6362 31.5849 27.5695 31.3661C27.5124 31.3717 27.4343 31.3845 27.3695 31.3845C27.3086 31.3845 27.2095 31.3753 27.1486 31.3661C27.1448 31.4801 27.1333 31.5941 27.1162 31.7044L26.9067 33.0466C26.8876 33.1661 26.8648 33.2764 26.8362 33.3904C26.8933 33.3812 26.9543 33.372 27.0057 33.372C27.061 33.372 27.1143 33.3775 27.1695 33.3904C27.1695 33.2213 27.1848 33.0632 27.1962 32.9124C27.221 32.6256 27.259 32.3369 27.3029 32.0519C27.4457 32.3498 27.5848 32.6495 27.72 32.951C27.8286 33.1937 27.8629 33.2948 27.8914 33.3923C27.9181 33.3867 27.9524 33.3831 28.0038 33.3831C28.0514 33.3831 28.0914 33.3886 28.1124 33.3923C28.1581 33.2727 28.1733 33.2341 28.2914 32.9657C28.4933 32.5079 28.5143 32.4546 28.7238 32.0427C28.7333 32.1457 28.7867 32.6403 28.8 32.7543C28.84 33.1036 28.8457 33.2599 28.8476 33.3904C28.9352 33.3794 29.0057 33.3702 29.1371 33.3702C29.2362 33.3702 29.3162 33.3757 29.4114 33.3904C29.3657 33.1624 29.3295 32.9289 29.3029 32.6991L29.1848 31.7449L29.1867 31.7431ZM32.0038 32.3351C32.0038 31.6603 31.4838 31.322 30.8343 31.322C30.0724 31.322 29.6552 31.7743 29.6552 32.3902C29.6552 33.076 30.1429 33.4272 30.8171 33.4272C31.4248 33.4272 32.0057 33.0852 32.0057 32.3351H32.0038ZM31.4533 32.3406C31.4533 32.8977 31.2 33.2194 30.8152 33.2194C30.501 33.2194 30.2038 32.9859 30.2038 32.4049C30.2038 31.9471 30.379 31.5298 30.8381 31.5298C31.2305 31.5298 31.4514 31.8589 31.4514 32.3406H31.4533ZM32.4 32.8113C32.4 33.0043 32.3886 33.1974 32.3695 33.3886C32.5124 33.3739 32.6895 33.3702 32.7448 33.3702C32.8267 33.3702 33.1352 33.3886 33.24 33.3886C34.0057 33.3886 34.3733 32.9069 34.3733 32.3388C34.3733 31.6916 33.9219 31.3643 33.3448 31.3643C33.1124 31.3643 32.8819 31.3827 32.6495 31.3827C32.5562 31.3827 32.4629 31.3772 32.3676 31.3643C32.3886 31.5518 32.3981 31.7412 32.3981 31.9269V32.8113H32.4ZM32.901 31.9674C32.901 31.8681 32.9105 31.6401 32.9105 31.5794C32.9467 31.5757 32.9981 31.5739 33.1524 31.5739C33.2819 31.5739 33.4419 31.5776 33.6 31.7081C33.7962 31.8736 33.8305 32.1567 33.8305 32.3351C33.8305 32.4436 33.8114 32.7984 33.619 33.0006C33.4762 33.1459 33.2781 33.179 33.1086 33.179C33.0095 33.179 32.9448 33.1698 32.9086 33.1643C32.9048 33.0907 32.9029 33.0153 32.9029 32.9418V31.9674H32.901ZM34.7219 32.8057C34.7219 32.9657 34.7105 33.247 34.6819 33.3886C34.8514 33.3775 35.0476 33.3647 35.2419 33.3647C35.4514 33.3647 35.7314 33.3702 35.9257 33.3886C35.9162 33.3353 35.9105 33.2856 35.9105 33.236C35.9105 33.1955 35.9162 33.1477 35.9257 33.0981C35.7162 33.1385 35.3962 33.1422 35.2457 33.1422C35.2419 33.1018 35.24 33.0613 35.24 33.0172V32.4362C35.5181 32.4362 35.6914 32.4362 35.9143 32.4601C35.9086 32.416 35.899 32.37 35.899 32.3222C35.899 32.2762 35.9048 32.2284 35.9143 32.1825C35.6819 32.2137 35.4857 32.2137 35.24 32.2137V31.9159C35.24 31.8111 35.2438 31.7081 35.2495 31.6033C35.4495 31.6033 35.7371 31.607 35.9352 31.6419C35.9238 31.596 35.92 31.5463 35.92 31.4967C35.92 31.4507 35.9257 31.4066 35.9352 31.3625C35.7238 31.3809 35.5657 31.3864 35.4 31.3864C35.2133 31.3864 34.9619 31.3753 34.699 31.3625C34.7181 31.4857 34.7257 31.6162 34.7257 31.7486L34.7219 32.8057ZM36.2648 32.8591C36.2648 33.0668 36.2552 33.236 36.2381 33.3904C36.5124 33.3812 36.7581 33.3665 36.9695 33.3665C37.139 33.3665 37.3352 33.3775 37.4857 33.3904C37.48 33.35 37.4705 33.2948 37.4705 33.2507C37.4705 33.2158 37.4743 33.1808 37.4857 33.111C37.301 33.1496 36.9714 33.1496 36.7752 33.1496C36.7714 33.065 36.7695 32.9767 36.7695 32.8922V31.9435C36.7695 31.824 36.781 31.5794 36.8019 31.3661C36.7105 31.3772 36.621 31.3845 36.5276 31.3845C36.4286 31.3845 36.3314 31.3809 36.2343 31.3661C36.2495 31.482 36.2648 31.6438 36.2648 31.8295V32.8591ZM39.4838 32.2965C39.6133 32.267 39.9467 32.188 39.9467 31.8442C39.9467 31.5298 39.6533 31.3661 39.2914 31.3661C39.0952 31.3661 38.8952 31.3845 38.7467 31.3845C38.6533 31.3845 38.5562 31.3809 38.4857 31.3661C38.4952 31.4544 38.5067 31.55 38.5124 31.7375C38.5219 32.017 38.5219 32.3001 38.5219 32.5814C38.5219 32.8352 38.5162 33.1514 38.4971 33.3923C38.6 33.3831 38.7029 33.3739 38.8 33.3739C38.9276 33.3739 39.1695 33.3923 39.2514 33.3923C39.6895 33.3923 40.0019 33.1698 40.0019 32.8168C40.0019 32.3957 39.6057 32.3332 39.4857 32.3112V32.2965H39.4838ZM39.021 31.8001C39.021 31.7614 39.0248 31.5923 39.0248 31.5574C39.0552 31.5537 39.0724 31.5537 39.0914 31.5537C39.3238 31.5537 39.4362 31.6566 39.4362 31.8828C39.4362 32.1402 39.2571 32.2303 39.0819 32.2303C39.061 32.2303 39.0419 32.2303 39.021 32.2266V31.7982V31.8001ZM39.4648 32.7947C39.4648 33.0135 39.3619 33.1882 39.1162 33.1882C39.0838 33.1882 39.0533 33.1845 39.0248 33.1827C39.019 32.9933 39.019 32.8958 39.019 32.4215C39.301 32.4215 39.4629 32.4895 39.4629 32.7947H39.4648ZM40.0781 33.3904C40.1448 33.372 40.2171 33.372 40.2476 33.372C40.3086 33.372 40.3562 33.3812 40.4133 33.3904C40.4648 33.1753 40.5429 32.9584 40.5943 32.8149C40.7124 32.8094 40.8305 32.8057 40.9429 32.8057C41.0514 32.8057 41.1543 32.8113 41.2571 32.8149C41.2895 32.9032 41.3638 33.0871 41.4514 33.3904C41.5448 33.372 41.6724 33.372 41.7714 33.372C41.8648 33.372 41.9619 33.3757 42.0552 33.3904C41.8686 32.9639 41.52 32.1475 41.2362 31.3422C41.1886 31.3533 41.1371 31.3606 41.0876 31.3606C41.0362 31.3606 40.981 31.3551 40.9295 31.3422C40.72 31.9177 40.261 33.0153 40.0762 33.3904H40.0781ZM41.181 32.5943C41.0971 32.598 41.0114 32.6035 40.9276 32.6035C40.8457 32.6035 40.7638 32.5998 40.6819 32.5943L40.939 31.9545L41.181 32.5943ZM43.8686 31.8846C43.8686 31.3643 43.3181 31.3643 43.2095 31.3643C43.0229 31.3643 42.8324 31.3827 42.6438 31.3827C42.5676 31.3827 42.4476 31.3772 42.3143 31.3643C42.339 31.5371 42.339 31.8074 42.339 32.2597C42.339 32.8462 42.3429 33.1201 42.3143 33.3886C42.3905 33.3794 42.5105 33.3702 42.5886 33.3702C42.6762 33.3702 42.7733 33.3757 42.8571 33.3886C42.8457 33.304 42.8457 33.2158 42.8419 33.1293C42.8362 32.9142 42.8324 32.7524 42.8324 32.4785C42.8324 32.4693 42.8324 32.4601 42.8362 32.4601C42.8419 32.4601 42.8457 32.4638 42.8476 32.4656L43.259 33.0815C43.3714 33.2452 43.4229 33.361 43.4343 33.3886C43.5486 33.3775 43.621 33.3702 43.7524 33.3702C43.859 33.3702 43.9638 33.3739 44.0667 33.3886L44.0762 33.3702C44.0152 33.3242 43.9067 33.1808 43.859 33.1073L43.3905 32.3921C43.5638 32.3718 43.8686 32.2284 43.8686 31.8809V31.8846ZM42.84 31.5721C42.88 31.5666 42.9162 31.5666 42.9543 31.5666C43.1276 31.5666 43.3467 31.5849 43.3467 31.9159C43.3467 32.3038 43.0362 32.3038 42.9238 32.3038C42.8876 32.3038 42.8571 32.3038 42.8324 32.3001L42.8381 31.5702L42.84 31.5721ZM44.3276 32.6348C44.3276 32.7635 44.3276 32.9731 44.5029 33.1808C44.6629 33.3702 44.9543 33.4235 45.2381 33.4235C45.4343 33.4235 45.6095 33.3923 45.7524 33.3095C46.1295 33.0944 46.1448 32.7396 46.1448 32.4546C46.1448 32.1714 46.1562 31.6162 46.2019 31.3661C46.1562 31.3753 46.0876 31.3845 46.0229 31.3845C45.9619 31.3845 45.8838 31.379 45.8286 31.3661C45.8533 31.5757 45.8552 31.6493 45.8552 31.892V32.2413C45.8552 32.5005 45.8514 32.6789 45.8095 32.8223C45.7276 33.0999 45.4914 33.1661 45.3352 33.1661C45.1543 33.1661 44.9867 33.0815 44.9143 32.951C44.859 32.8517 44.8305 32.6973 44.8305 32.3645C44.8305 32.1126 44.84 31.5996 44.8705 31.3661C44.7886 31.3809 44.6857 31.3845 44.5924 31.3845C44.5105 31.3845 44.4171 31.379 44.299 31.3661C44.3143 31.4691 44.3257 31.7081 44.3257 31.8736V32.6348H44.3276Z" fill="#004882"/>
<path d="M47.0229 31.443H47.4C47.4591 31.443 47.5086 31.4614 47.5486 31.5C47.5867 31.5368 47.6076 31.5901 47.6076 31.6563C47.6076 31.7225 47.5886 31.7739 47.5486 31.8126C47.5276 31.8328 47.4972 31.8456 47.4591 31.8512L47.6343 32.1839H47.5219L47.36 31.864H47.1276V32.1839H47.0248V31.443H47.0229ZM47.3105 31.1433C47.501 31.1433 47.6724 31.2187 47.7981 31.3382C47.9219 31.4577 48 31.625 48 31.8089C48 31.9927 47.9219 32.1582 47.7981 32.2795C47.6743 32.3991 47.501 32.4744 47.3105 32.4744C47.12 32.4744 46.9486 32.3991 46.8229 32.2795C46.6991 32.16 46.621 31.9927 46.621 31.8089C46.621 31.625 46.6991 31.4595 46.8229 31.3382C46.9467 31.2187 47.12 31.1433 47.3105 31.1433ZM47.6953 31.4375C47.5962 31.3419 47.461 31.283 47.3105 31.283C47.16 31.283 47.0248 31.3419 46.9257 31.4375C46.8267 31.5331 46.7657 31.6636 46.7657 31.8089C46.7657 31.9541 46.8267 32.0847 46.9257 32.1803C47.0248 32.2759 47.16 32.3347 47.3105 32.3347C47.461 32.3347 47.5981 32.2759 47.6953 32.1803C47.7943 32.0847 47.8553 31.9541 47.8553 31.8089C47.8553 31.6636 47.7943 31.5312 47.6953 31.4375ZM47.1257 31.5257V31.7813H47.3905C47.421 31.7813 47.4457 31.7703 47.4667 31.75C47.4876 31.7298 47.4972 31.6986 47.4972 31.6544C47.4972 31.614 47.4857 31.5827 47.461 31.5588C47.4362 31.5349 47.4095 31.5239 47.3753 31.5239H47.1238L47.1257 31.5257Z" fill="#004882"/>
<path fill-rule="evenodd" clip-rule="evenodd" d="M8.19796 24.3925L10.7084 22.1182H11.3446L9.45129 24.3741C9.37891 24.4605 9.37129 24.5837 9.45129 24.6628L14.1618 29.3272C14.2418 29.4063 14.3732 29.4063 14.4532 29.3272L19.1637 24.6628C19.2437 24.5837 19.2361 24.4605 19.1637 24.3741L17.2703 22.1182H17.9065L20.417 24.3925C20.518 24.4844 20.518 24.6333 20.417 24.7253L14.4913 30.0957C14.3903 30.1877 14.2246 30.1877 14.1256 30.0957L8.19986 24.7253C8.09891 24.6333 8.09891 24.4844 8.19986 24.3925H8.19796ZM17.3161 24.8448L15.318 26.7992V25.4497C15.318 25.3633 15.2361 25.2474 15.1446 25.2474H14.7256C14.5313 25.2474 14.5237 25.3633 14.5237 25.4405V28.2186C14.5237 28.5274 14.6818 28.4337 15.0703 28.0421L18.4284 24.7529C18.7656 24.4182 18.7675 24.1314 18.3884 24.1314H15.318V22.8536H16.4284L17.1656 23.7545H17.737C18.078 23.7545 17.8932 23.5247 17.8227 23.4401L16.9027 22.3167C16.838 22.2211 16.7275 22.1163 16.5999 22.1163H14.7408C14.5408 22.1163 14.5237 22.1733 14.5237 22.3664V24.6278C14.5237 24.7308 14.5465 24.8466 14.7122 24.8466C15.5561 24.8466 16.4703 24.8466 17.3141 24.8466L17.3161 24.8448ZM11.3732 24.8448L13.4437 26.7992V25.4129L12.9637 24.8448H11.3732ZM13.0151 24.1296L13.4418 23.6681V22.8518H12.3313L11.2856 24.1296H13.0132H13.0151ZM13.5446 28.0402L10.1141 24.751C9.99224 24.6278 9.97891 24.4329 10.0913 24.295L11.857 22.3149C11.9218 22.2193 12.0322 22.1145 12.1599 22.1145H13.8741C14.0741 22.1145 14.1637 22.1715 14.1637 22.3645V23.7986H14.1618C14.1618 23.8814 14.1313 23.9641 14.0703 24.0303L13.617 24.5194L14.0646 25.0489C14.1256 25.1114 14.1637 25.196 14.1637 25.2897L14.1618 28.2149C14.1618 28.5238 13.9313 28.43 13.5427 28.0384L13.5446 28.0402Z" fill="#004882"/>
</g>
</g>
<rect x="0.5" y="0.5" width="55" height="55" rx="3.5" stroke="#DDDDDD"/>
<defs>
<clipPath id="clip0_540_28308">
<rect width="56" height="56" rx="4" fill="white"/>
</clipPath>
<clipPath id="clip1_540_28308">
<rect width="40" height="11.4286" fill="white" transform="translate(8 22)"/>
</clipPath>
</defs>
</svg>
