<svg width="16" height="16" viewBox="0 0 16 16" fill="none" xmlns="http://www.w3.org/2000/svg">
<g clip-path="url(#clip0_8049_26117)">
<path d="M13.3334 14V12.6667C13.3334 11.9594 13.0525 11.2811 12.5524 10.781C12.0523 10.281 11.374 10 10.6667 10H5.33341C4.62617 10 3.94789 10.281 3.4478 10.781C2.9477 11.2811 2.66675 11.9594 2.66675 12.6667V14" stroke="#24663F" stroke-width="1.5" stroke-linecap="round" stroke-linejoin="round"/>
<path d="M8.00016 7.33333C9.47292 7.33333 10.6668 6.13943 10.6668 4.66667C10.6668 3.19391 9.47292 2 8.00016 2C6.5274 2 5.3335 3.19391 5.3335 4.66667C5.3335 6.13943 6.5274 7.33333 8.00016 7.33333Z" stroke="#24663F" stroke-width="1.5" stroke-linecap="round" stroke-linejoin="round"/>
<g clip-path="url(#clip1_8049_26117)">
<!--<path d="M11.5 15.9625C13.4123 15.9625 14.9625 14.4123 14.9625 12.5C14.9625 10.5877 13.4123 9.0375 11.5 9.0375C9.58771 9.0375 8.0375 10.5877 8.0375 12.5C8.0375 14.4123 9.58771 15.9625 11.5 15.9625Z" fill="#24663F"  stroke-width="1.3" stroke-linecap="round" stroke-linejoin="round"/>-->
<!--<path d="M11.5 15.3125C13.0533 15.3125 14.3125 14.0533 14.3125 12.5C14.3125 10.9467 13.0533 9.6875 11.5 9.6875C9.9467 9.6875 8.6875 10.9467 8.6875 12.5C8.6875 14.0533 9.9467 15.3125 11.5 15.3125Z" fill="white" stroke="#24663F" stroke-width="1.2" stroke-linecap="round" stroke-linejoin="round"/>-->
<path d="M12.3438 11.6562L10.6562 13.3438" stroke="#24663F" stroke-width="0.95" stroke-linecap="round" stroke-linejoin="round"/>
<path d="M10.6562 11.6562L12.3438 13.3438" stroke="#24663F" stroke-width="0.95" stroke-linecap="round" stroke-linejoin="round"/>
</g>
</g>
<defs>
<clipPath id="clip0_8049_26117">
<rect width="16" height="16" fill="white"/>
</clipPath>
<clipPath id="clip1_8049_26117">
<rect width="9" height="9" fill="white" transform="translate(7 8)"/>
</clipPath>
</defs>
</svg>
