<svg width="66" height="24" viewBox="0 0 66 24" fill="none" xmlns="http://www.w3.org/2000/svg">
<g clip-path="url(#clip0_582_38924)">
<path d="M49.1614 1.18648C49.1614 1.18648 44.2778 1.75779 41.3345 4.4875C38.2549 7.34564 38.0664 10.0544 38.0664 10.0544C38.0664 10.0544 39.5996 9.61 40.9807 9.61253C42.3608 9.61443 43.7093 10.4609 43.7093 10.4609C43.7093 10.4609 43.0256 9.33027 41.6659 9.02757C40.6528 8.80159 39.6127 9.21395 39.6127 9.21395C39.6127 9.21395 40.4448 6.92822 41.7937 5.50448C43.4689 3.7354 44.3341 3.39376 45.3756 2.85497C46.6829 2.17894 49.1614 1.18648 49.1614 1.18648V1.18648Z" fill="#2C2E67"/>
<path d="M50.5457 1.71164C50.5457 1.71164 48.0172 2.16198 45.6572 5.6483C43.7196 8.51123 43.9597 11.1373 43.9597 11.1373C43.9597 11.1373 46.1014 9.80837 47.5134 9.59352C49.3093 9.32008 51.036 10.4732 51.036 10.4732C51.036 10.4732 50.0024 8.75664 47.8505 8.71921C46.8866 8.70226 45.57 9.28876 45.57 9.28876C45.57 9.28876 45.5807 7.85978 46.7491 5.818C47.9859 3.65605 50.5457 1.7116 50.5457 1.7116V1.71164Z" fill="#EA5B2A"/>
<path d="M51.7278 2.09759C51.7278 2.09759 52.1406 4.57227 52.0615 6.43696C51.9827 8.30172 51.7666 10.5823 51.7666 10.5823C51.7666 10.5823 52.7488 9.93868 54.356 9.94351C56.368 9.94914 57.7598 10.7869 57.7598 10.7869C57.7598 10.7869 57.2276 9.2427 54.9902 8.88936C53.4902 8.65233 52.6884 9.07373 52.6884 9.07373C52.6884 9.07373 53.0537 7.79316 52.9132 6.07542C52.7477 4.05211 51.7278 2.09759 51.7278 2.09759H51.7278Z" fill="#158E44"/>
<path d="M53.2405 1.95465C53.2405 1.95465 55.214 3.46266 56.1094 4.68805C57.4409 6.50938 57.8842 8.68187 58.1194 9.75702C58.3181 10.6634 58.2193 10.9531 58.2193 10.9531C58.2193 10.9531 59.5153 9.84615 60.8712 9.52017C61.9582 9.25863 62.7048 9.3137 63.3812 9.43785C64.3505 9.61644 65.094 9.96233 65.094 9.96233C65.094 9.96233 64.7834 7.48113 62.7459 5.35303C60.9394 3.46621 59.789 2.90258 57.6454 2.14151C55.9211 1.52955 54.1677 1.23529 54.1677 1.23529C54.1677 1.23529 56.5559 2.07865 58.186 2.94484C59.6725 3.7354 60.619 4.46928 61.9077 5.94557C63.4281 7.68582 63.4858 8.42449 63.4858 8.42449C63.4858 8.42449 62.1809 8.09314 60.8978 8.42449C59.6143 8.75537 59.2022 9.26042 59.2022 9.26042C59.2022 9.26042 58.9483 7.88929 58.4113 6.58461C57.9217 5.39394 57.1006 4.28022 56.1657 3.65443C55.5096 3.21549 53.2405 1.95461 53.2405 1.95461L53.2405 1.95465Z" fill="#E62129"/>
<path d="M52.8388 0.514235C52.9918 0.926492 52.7534 1.38899 52.3065 1.54709C51.8595 1.7052 51.3729 1.49887 51.2203 1.08628C51.0674 0.673547 51.3059 0.210869 51.7529 0.0526908C51.8465 0.019577 51.9419 0.00252613 52.0355 1.43051e-06H52.0862C52.4199 0.00958796 52.7237 0.203514 52.8388 0.514235H52.8388Z" fill="#F39910"/>
<path d="M50.468 23.9058H52.731V11.7927H50.468V23.9058Z" fill="#F39910"/>
<path d="M53.9453 23.9058V11.7927H56.5208L59.7228 16.9866C60.5506 18.3344 61.2681 19.7363 61.8384 21.0482H61.8753C61.728 19.4307 61.6729 17.8672 61.6729 16.016V11.7927H63.7702V23.9057H61.4335L58.1957 18.586C57.4043 17.2562 56.5765 15.7644 55.9693 14.3986L55.9141 14.4165C56.0057 15.9801 56.0245 17.5796 56.0245 19.5745V23.9057H53.9453L53.9453 23.9058Z" fill="#F39910"/>
<path d="M9.73902 14.1555C8.86067 13.2158 7.61619 12.7457 6.00588 12.7457C4.50908 12.7457 3.32955 13.2475 2.46768 14.251C1.65429 15.1911 1.24759 16.3858 1.24759 17.8353C1.24759 19.301 1.64586 20.4874 2.44318 21.3955C3.28906 22.3833 4.47664 22.8769 6.00588 22.8769C7.51872 22.8769 8.73035 22.3833 9.64155 21.3955C10.536 20.4558 10.9835 19.2689 10.9835 17.8353C10.9835 16.2743 10.5685 15.0477 9.73902 14.1555V14.1555ZM10.9835 23.7371V21.6345C9.89077 23.2115 8.2354 24 6.01768 24C4.12572 24 2.63352 23.4026 1.54112 22.2079C0.51372 21.0771 0 19.6195 0 17.8353C0 16.0193 0.521736 14.546 1.56555 13.4147C2.65794 12.22 4.17464 11.6227 6.11553 11.6227C8.30065 11.6227 9.92321 12.3795 10.9835 13.8926V7.53674H12.2311V23.7371H10.9835L10.9835 23.7371Z" fill="#158E44"/>
<path d="M22.3125 14.2989C21.4342 13.3752 20.1896 12.913 18.5794 12.913C17.0826 12.913 15.895 13.4069 15.0166 14.3944C14.2193 15.3184 13.8211 16.4972 13.8211 17.9308C13.8211 19.3805 14.2193 20.5514 15.0166 21.4433C15.8625 22.3991 17.0501 22.8769 18.5794 22.8769C20.0922 22.8769 21.3001 22.4073 22.2028 21.4672C23.1056 20.5274 23.5571 19.3488 23.5571 17.9308C23.5571 16.4016 23.1419 15.1911 22.3125 14.2989ZM23.5571 23.7609V21.6583C22.4643 23.2196 20.8088 23.9999 18.5912 23.9999C16.6992 23.9999 15.207 23.4108 14.1146 22.2318C13.0872 21.1169 12.5735 19.6832 12.5735 17.9307C12.5735 16.1308 13.0952 14.6732 14.1391 13.5581C15.2314 12.3794 16.7481 11.7898 18.6891 11.7898C20.8742 11.7898 22.4967 12.5466 23.5571 14.0598V11.7898H24.8046V23.7609H23.5571V23.7609Z" fill="#158E44"/>
<path d="M35.2987 23.7371V16.1149C35.2987 15.0795 34.9562 14.2749 34.2712 13.7015C33.6024 13.1758 32.6892 12.913 31.5315 12.913C30.1616 12.913 29.0811 13.3072 28.2902 14.0957C27.499 14.8842 27.1038 15.9159 27.1038 17.19V23.7371H25.8562V12.0528H27.1038V13.6537C28.0494 12.4112 29.5171 11.7899 31.507 11.7899C32.9583 11.7899 34.1405 12.1245 35.054 12.7935C36.0486 13.5264 36.5462 14.5617 36.5462 15.8998V23.7371H35.2987V23.7371Z" fill="#158E44"/>
<path d="M46.5053 14.2989C45.627 13.3752 44.3825 12.913 42.7722 12.913C41.2754 12.913 40.0878 13.4069 39.2095 14.3944C38.4121 15.3184 38.0139 16.4972 38.0139 17.9308C38.0139 19.3805 38.4121 20.5514 39.2095 21.4433C40.0553 22.3991 41.2429 22.8769 42.7722 22.8769C44.285 22.8769 45.4928 22.4073 46.3956 21.4672C47.2985 20.5274 47.7499 19.3488 47.7499 17.9308C47.7499 16.4016 47.3348 15.1911 46.5053 14.2989H46.5053ZM47.7499 23.7609V21.6583C46.6571 23.2196 45.0017 23.9999 42.784 23.9999C40.892 23.9999 39.3998 23.4108 38.3074 22.2318C37.28 21.1169 36.7664 19.6832 36.7664 17.9307C36.7664 16.1308 37.288 14.6732 38.3318 13.5581C39.4243 12.3794 40.941 11.7898 42.8819 11.7898C45.067 11.7898 46.6895 12.5466 47.7499 14.0598V11.7898H48.9975V23.7609H47.7499L47.7499 23.7609Z" fill="#158E44"/>
</g>
<defs>
<clipPath id="clip0_582_38924">
<rect width="65.0942" height="24" fill="white"/>
</clipPath>
</defs>
</svg>
