<svg width="165" height="94" viewBox="0 0 165 94" fill="none" xmlns="http://www.w3.org/2000/svg">
<g filter="url(#filter0_d_7862_40140)">
<rect x="54.5" y="2" width="56" height="56" rx="28" fill="url(#paint0_linear_7862_40140)"/>
<path d="M78.6494 33.3471C81.1424 35.8401 87.1941 33.8189 92.1742 28.8389C92.1171 29.4472 92.1953 30.0606 92.4032 30.6351C92.611 31.2096 92.9435 31.731 93.3766 32.1619C93.8097 32.5928 94.3328 32.9225 94.9084 33.1274C95.484 33.3324 96.0978 33.4074 96.7058 33.3471C95.521 34.5341 94.1137 35.4758 92.5645 36.1184C91.0154 36.7609 89.3547 37.0916 87.6776 37.0916C86.0005 37.0916 84.3398 36.7609 82.7906 36.1184C81.2415 35.4758 79.8342 34.5341 78.6494 33.3471Z" fill="#DAF1DE" fill-opacity="0.2"/>
<path d="M83.1638 19.8167C83.0986 20.4283 83.1727 21.0469 83.3805 21.6259C83.5883 22.2049 83.9244 22.7293 84.3636 23.16C84.7937 23.5881 85.3138 23.9149 85.8862 24.1164C86.4585 24.3179 87.0686 24.3892 87.672 24.3249L78.6497 33.3473C76.1567 30.8543 78.1779 24.8025 83.1579 19.8225L83.1638 19.8167Z" fill="#DAF1DE" fill-opacity="0.2"/>
<path d="M74.3861 18.6345C74.6809 18.3396 74.8817 17.9639 74.963 17.5549C75.0443 17.1459 75.0026 16.7219 74.843 16.3367C74.6834 15.9514 74.4131 15.6221 74.0664 15.3905C73.7196 15.1588 73.312 15.0352 72.895 15.0352C72.478 15.0352 72.0703 15.1588 71.7236 15.3905C71.3769 15.6221 71.1066 15.9514 70.947 16.3367C70.7874 16.7219 70.7456 17.1459 70.827 17.5549C70.9083 17.9639 71.1091 18.3396 71.4039 18.6345C71.4322 18.6628 71.4658 18.6852 71.5028 18.7005C71.5397 18.7158 71.5794 18.7237 71.6194 18.7237C71.6594 18.7237 71.6991 18.7158 71.736 18.7005C71.773 18.6852 71.8066 18.6628 71.8349 18.6345C71.8632 18.6062 71.8857 18.5726 71.901 18.5356C71.9163 18.4986 71.9242 18.459 71.9242 18.4189C71.9242 18.3789 71.9163 18.3393 71.901 18.3023C71.8857 18.2653 71.8632 18.2317 71.8349 18.2034C71.624 17.9936 71.4802 17.7258 71.4216 17.4341C71.3631 17.1424 71.3924 16.8399 71.5059 16.5649C71.6195 16.2899 71.8121 16.0548 72.0594 15.8893C72.3066 15.7239 72.5975 15.6356 72.895 15.6356C73.1925 15.6356 73.4833 15.7239 73.7306 15.8893C73.9779 16.0548 74.1705 16.2899 74.284 16.5649C74.3976 16.8399 74.4269 17.1424 74.3683 17.4341C74.3098 17.7258 74.166 17.9936 73.9551 18.2034L68.3518 23.8067C68.3233 23.8349 68.3006 23.8685 68.2851 23.9055C68.2697 23.9424 68.2617 23.9821 68.2617 24.0222C68.2617 24.0623 68.2697 24.102 68.2851 24.139C68.3006 24.176 68.3233 24.2096 68.3518 24.2378C68.4094 24.294 68.4868 24.3254 68.5673 24.3254C68.6478 24.3254 68.7252 24.294 68.7828 24.2378L74.3861 18.6345Z" fill="white"/>
<path d="M72.8249 28.5246C73.1198 28.2297 73.3205 27.854 73.4019 27.445C73.4832 27.036 73.4414 26.6121 73.2818 26.2268C73.1222 25.8416 72.8519 25.5123 72.5052 25.2806C72.1585 25.0489 71.7508 24.9253 71.3338 24.9253C70.9168 24.9253 70.5092 25.0489 70.1624 25.2806C69.8157 25.5123 69.5454 25.8416 69.3858 26.2268C69.2262 26.6121 69.1845 27.036 69.2658 27.445C69.3471 27.854 69.5479 28.2297 69.8427 28.5246C69.9004 28.5808 69.9777 28.6123 70.0582 28.6123C70.1387 28.6123 70.2161 28.5808 70.2737 28.5246C70.3023 28.4964 70.3249 28.4629 70.3404 28.4259C70.3558 28.3889 70.3638 28.3492 70.3638 28.3091C70.3638 28.269 70.3558 28.2293 70.3404 28.1923C70.3249 28.1553 70.3023 28.1217 70.2737 28.0936C70.0629 27.8837 69.919 27.6159 69.8605 27.3242C69.8019 27.0325 69.8312 26.73 69.9448 26.455C70.0583 26.18 70.2509 25.9449 70.4982 25.7794C70.7455 25.614 71.0363 25.5257 71.3338 25.5257C71.6313 25.5257 71.9222 25.614 72.1694 25.7794C72.4167 25.9449 72.6093 26.18 72.7229 26.455C72.8364 26.73 72.8657 27.0325 72.8072 27.3242C72.7486 27.6159 72.6048 27.8837 72.3939 28.0936L68.2409 32.2232C68.2124 32.2514 68.1898 32.285 68.1743 32.322C68.1588 32.359 68.1509 32.3987 68.1509 32.4387C68.1509 32.4788 68.1588 32.5185 68.1743 32.5555C68.1898 32.5925 68.2124 32.6261 68.2409 32.6543C68.2993 32.7091 68.3764 32.7397 68.4565 32.7397C68.5365 32.7397 68.6136 32.7091 68.672 32.6543L72.8249 28.5246Z" fill="white"/>
<path d="M80.9503 41.1406C81.2964 41.1396 81.637 41.0534 81.9419 40.8896C82.2468 40.7258 82.5067 40.4895 82.6987 40.2014C82.8906 39.9134 83.0087 39.5826 83.0426 39.2381C83.0764 38.8936 83.0249 38.5461 82.8926 38.2263C82.7603 37.9064 82.5513 37.6241 82.2841 37.4041C82.0168 37.1841 81.6995 37.0333 81.3602 36.965C81.0209 36.8967 80.67 36.913 80.3384 37.0125C80.0069 37.1119 79.7049 37.2914 79.4592 37.5352L73.4831 43.5112C73.4546 43.5394 73.4319 43.573 73.4165 43.61C73.401 43.647 73.3931 43.6866 73.3931 43.7267C73.3931 43.7668 73.401 43.8065 73.4165 43.8435C73.4319 43.8805 73.4546 43.9141 73.4831 43.9423C73.5415 43.9971 73.6185 44.0277 73.6986 44.0277C73.7787 44.0277 73.8558 43.9971 73.9142 43.9423L79.8902 37.9662C80.1004 37.7561 80.3682 37.6131 80.6597 37.5552C80.9511 37.4973 81.2532 37.5271 81.5278 37.6409C81.8023 37.7547 82.0369 37.9473 82.202 38.1944C82.3671 38.4415 82.4552 38.732 82.4552 39.0292C82.4552 39.3263 82.3671 39.6168 82.202 39.864C82.0369 40.1111 81.8023 40.3037 81.5278 40.4174C81.2532 40.5312 80.9511 40.561 80.6597 40.5031C80.3682 40.4452 80.1004 40.3022 79.8902 40.0922C79.8331 40.035 79.7555 40.0029 79.6747 40.0029C79.5939 40.0029 79.5164 40.035 79.4592 40.0922C79.402 40.1493 79.3699 40.2269 79.3699 40.3077C79.3699 40.3885 79.402 40.466 79.4592 40.5232C79.6546 40.7195 79.887 40.8751 80.143 40.9811C80.3989 41.0871 80.6733 41.1413 80.9503 41.1406Z" fill="white"/>
<path d="M94.8654 41.1406C95.2115 41.1396 95.5521 41.0534 95.857 40.8896C96.1619 40.7258 96.4218 40.4895 96.6138 40.2014C96.8057 39.9134 96.9238 39.5826 96.9576 39.2381C96.9915 38.8936 96.94 38.5461 96.8077 38.2263C96.6754 37.9064 96.4664 37.6241 96.1992 37.4041C95.9319 37.1841 95.6146 37.0333 95.2753 36.965C94.936 36.8967 94.5851 36.913 94.2535 37.0125C93.922 37.1119 93.62 37.2914 93.3743 37.5352L87.3866 43.5112C87.358 43.5394 87.3354 43.573 87.3199 43.61C87.3045 43.647 87.2965 43.6866 87.2965 43.7267C87.2965 43.7668 87.3045 43.8065 87.3199 43.8435C87.3354 43.8805 87.358 43.9141 87.3866 43.9423C87.4449 43.9971 87.522 44.0277 87.6021 44.0277C87.6822 44.0277 87.7593 43.9971 87.8176 43.9423L93.7937 37.9662C94.0039 37.7561 94.2716 37.6131 94.5631 37.5552C94.8546 37.4973 95.1567 37.5271 95.4312 37.6409C95.7057 37.7547 95.9404 37.9473 96.1055 38.1944C96.2705 38.4415 96.3586 38.732 96.3586 39.0292C96.3586 39.3263 96.2705 39.6168 96.1055 39.864C95.9404 40.1111 95.7057 40.3037 95.4312 40.4174C95.1567 40.5312 94.8546 40.561 94.5631 40.5031C94.2716 40.4452 94.0039 40.3022 93.7937 40.0922C93.7365 40.035 93.659 40.0029 93.5782 40.0029C93.4973 40.0029 93.4198 40.035 93.3626 40.0922C93.3055 40.1493 93.2734 40.2269 93.2734 40.3077C93.2734 40.3885 93.3055 40.466 93.3626 40.5232C93.5595 40.7209 93.7938 40.8773 94.0518 40.9834C94.3098 41.0894 94.5864 41.1428 94.8654 41.1406Z" fill="white"/>
<path d="M93.5145 35.9159C93.5892 35.9463 93.6728 35.9463 93.7475 35.9159C94.9132 35.3032 95.9795 34.5177 96.9102 33.586C96.9414 33.5552 96.9655 33.5179 96.9809 33.4767C96.9962 33.4356 97.0025 33.3917 96.9991 33.3479C96.9958 33.3041 96.983 33.2616 96.9616 33.2233C96.9402 33.1849 96.9108 33.1517 96.8753 33.1259C96.8135 33.0797 96.7364 33.0589 96.6598 33.0676C96.0993 33.1186 95.5346 33.0458 95.0054 32.8542C94.4763 32.6627 93.9957 32.3571 93.5978 31.9592C93.1999 31.5613 92.8943 31.0807 92.7028 30.5516C92.5112 30.0224 92.4384 29.4576 92.4893 28.8972C92.495 28.8515 92.4902 28.8051 92.4752 28.7615C92.4602 28.7179 92.4355 28.6784 92.4029 28.6458C92.3704 28.6132 92.3308 28.5885 92.2872 28.5735C92.2436 28.5586 92.1972 28.5537 92.1515 28.5594C91.588 28.6127 91.0197 28.5408 90.4873 28.3487C89.9548 28.1567 89.4715 27.8492 89.0718 27.4484C88.6721 27.0477 88.366 26.5634 88.1755 26.0305C87.9849 25.4975 87.9145 24.929 87.9694 24.3657C87.9748 24.32 87.9698 24.2737 87.9546 24.2303C87.9395 24.187 87.9147 24.1476 87.8821 24.1152C87.8494 24.0829 87.81 24.0583 87.7667 24.0432C87.7234 24.0281 87.6772 24.0229 87.6316 24.0278C87.0712 24.0788 86.5064 24.0059 85.9772 23.8144C85.4481 23.6228 84.9676 23.3173 84.5696 22.9194C84.1717 22.5214 83.8661 22.0409 83.6746 21.5117C83.483 20.9826 83.4102 20.4178 83.4612 19.8574C83.4668 19.8117 83.462 19.7653 83.447 19.7217C83.432 19.6781 83.4073 19.6385 83.3748 19.606C83.3422 19.5734 83.3026 19.5487 83.259 19.5337C83.2155 19.5187 83.1691 19.5139 83.1233 19.5196C82.5625 19.5743 81.9965 19.5034 81.4666 19.312C80.9366 19.1205 80.4559 18.8134 80.0596 18.4129C79.6583 18.0161 79.3511 17.5343 79.1605 17.0031C78.97 16.4719 78.9011 15.9047 78.9587 15.3433C78.9673 15.28 78.9556 15.2157 78.9253 15.1594C78.8951 15.1032 78.8478 15.0579 78.7903 15.0302C78.7328 15.0024 78.668 14.9935 78.6052 15.0047C78.5423 15.016 78.4846 15.0468 78.4403 15.0928C77.2248 16.3027 76.2612 17.7415 75.6053 19.3262C74.9494 20.9109 74.6143 22.6099 74.6194 24.3249C74.6043 27.3767 75.6736 30.3347 77.6365 32.6716L77.7239 32.7764L77.5259 32.9745C77.3768 33.1242 77.2756 33.315 77.2352 33.5224C77.1947 33.7298 77.2168 33.9446 77.2987 34.1394L77.3395 34.2326L74.6077 36.9643L74.5145 36.9235C74.315 36.8356 74.0935 36.8102 73.8793 36.8507C73.6651 36.8913 73.4682 36.9959 73.3147 37.1507L70.9382 39.533C70.7333 39.7313 70.4603 39.8438 70.1752 39.8475C70.0416 39.8473 69.9094 39.8205 69.7864 39.7684C69.6633 39.7164 69.552 39.6403 69.4588 39.5446C69.3173 39.3984 69.2229 39.2132 69.1876 39.0129C69.1523 38.8125 69.1778 38.6062 69.2607 38.4205C69.3284 38.2555 69.3546 38.0764 69.3369 37.899C69.3193 37.7215 69.2583 37.5511 69.1594 37.4027C69.0604 37.2544 68.9266 37.1325 68.7696 37.048C68.6126 36.9634 68.4372 36.9187 68.2589 36.9177C68.1911 36.9114 68.1228 36.9114 68.055 36.9177C67.8787 36.9506 67.7134 37.0269 67.5741 37.1398C67.4347 37.2527 67.3258 37.3986 67.2571 37.5643C67.0033 38.16 66.9354 38.8185 67.0622 39.4535C67.189 40.0885 67.5046 40.6705 67.9677 41.1231C68.5596 41.6953 69.3519 42.013 70.1752 42.0084C70.6072 42.0136 71.036 41.9323 71.4361 41.7692C71.8362 41.6062 72.1997 41.3647 72.505 41.059L74.8757 38.6884C75.0305 38.5349 75.1351 38.338 75.1756 38.1238C75.2162 37.9095 75.1908 37.688 75.1028 37.4885L75.0621 37.3953L77.788 34.6694L77.8812 34.7102C78.0764 34.7898 78.2906 34.8107 78.4975 34.7703C78.7044 34.73 78.8951 34.6301 79.0461 34.483L79.2325 34.285L79.3373 34.3724C81.6888 36.3216 84.6471 37.3888 87.7015 37.3895C89.275 37.3934 90.8362 37.1111 92.3088 36.5566C92.347 36.5424 92.3821 36.5209 92.412 36.4932C92.4419 36.4655 92.4661 36.4322 92.4831 36.3951C92.5002 36.3581 92.5098 36.318 92.5113 36.2773C92.5129 36.2365 92.5064 36.1959 92.4923 36.1576C92.4781 36.1194 92.4566 36.0843 92.4289 36.0544C92.4011 36.0244 92.3678 36.0003 92.3308 35.9832C92.2937 35.9662 92.2537 35.9566 92.2129 35.9551C92.1722 35.9535 92.1315 35.96 92.0933 35.9741C90.3263 36.6347 88.4332 36.8887 86.5546 36.7173C84.676 36.5459 82.8602 35.9534 81.242 34.9839L80.7527 34.6869H81.3352C82.4457 34.7109 83.5512 34.5313 84.597 34.1569C87.2324 33.1867 89.6395 31.6838 91.6681 29.7418L91.8719 29.5554L91.9127 29.8292C92.0421 30.7734 92.4685 31.652 93.1302 32.3379C93.792 33.0237 94.6548 33.4813 95.5939 33.6443L95.9084 33.6967L95.6638 33.9006C94.9845 34.4706 94.2465 34.9665 93.4621 35.38C93.3996 35.4031 93.3465 35.4461 93.3109 35.5023C93.2753 35.5586 93.2593 35.625 93.2652 35.6913C93.2712 35.7576 93.2989 35.8201 93.3439 35.8691C93.389 35.9182 93.4489 35.951 93.5145 35.9625V35.9159ZM74.4213 38.2457L72.0507 40.6338C71.5549 41.1298 70.8823 41.4084 70.181 41.4085C69.5163 41.411 68.8768 41.154 68.3987 40.6921C68.0223 40.3262 67.7652 39.8551 67.6613 39.3406C67.5573 38.8261 67.6113 38.2922 67.8162 37.8089C67.8463 37.7367 67.8941 37.6733 67.9552 37.6244C68.0163 37.5755 68.0887 37.5428 68.1657 37.5293C68.2494 37.5132 68.3358 37.5198 68.4161 37.5484C68.4964 37.577 68.5676 37.6266 68.6222 37.6919C68.6769 37.7573 68.7131 37.8361 68.727 37.9202C68.741 38.0042 68.7322 38.0905 68.7016 38.17C68.5695 38.4668 68.5295 38.7964 68.5866 39.1161C68.6437 39.4359 68.7953 39.7312 69.0219 39.964C69.1728 40.1203 69.3538 40.2442 69.5541 40.3284C69.7544 40.4125 69.9696 40.455 70.1868 40.4533C70.6358 40.4555 71.0673 40.2796 71.3867 39.964L73.769 37.5876C73.86 37.5007 73.981 37.4522 74.1068 37.4522C74.2326 37.4522 74.3536 37.5007 74.4446 37.5876C74.489 37.6319 74.5242 37.6846 74.5483 37.7425C74.5723 37.8005 74.5846 37.8626 74.5846 37.9254C74.5846 37.9881 74.5723 38.0503 74.5483 38.1082C74.5242 38.1662 74.489 38.2189 74.4446 38.2632L74.4213 38.2457ZM78.6034 34.0404C78.5631 34.0911 78.5125 34.1328 78.4549 34.1626C78.3973 34.1924 78.3341 34.2098 78.2694 34.2134C78.2046 34.2171 78.1399 34.2071 78.0793 34.184C78.0187 34.1609 77.9637 34.1253 77.9178 34.0794C77.872 34.0336 77.8363 33.9786 77.8133 33.918C77.7902 33.8574 77.7801 33.7926 77.7838 33.7279C77.7875 33.6631 77.8048 33.5999 77.8347 33.5423C77.8645 33.4848 77.9061 33.4342 77.9569 33.3938L78.1258 33.2249L78.2307 33.3356L78.4462 33.5569L78.6675 33.7724L78.7782 33.8773L78.6034 34.0404ZM78.6675 32.8754L78.5685 32.7356C77.7006 31.5241 77.6773 29.5962 78.4928 27.3129C78.5061 27.2747 78.5119 27.2342 78.5096 27.1937C78.5073 27.1532 78.4971 27.1136 78.4795 27.0771C78.462 27.0406 78.4374 27.0079 78.4072 26.9809C78.3769 26.9539 78.3417 26.9331 78.3035 26.9198C78.2652 26.9064 78.2247 26.9006 78.1843 26.9029C78.1438 26.9052 78.1042 26.9154 78.0677 26.933C78.0312 26.9506 77.9985 26.9751 77.9715 27.0054C77.9445 27.0356 77.9237 27.0708 77.9103 27.1091C77.4735 28.2397 77.2598 29.4443 77.2812 30.6562V31.2387L76.9842 30.7494C75.6534 28.5267 75.0482 25.9446 75.2528 23.362C75.4574 20.7794 76.4616 18.3248 78.1258 16.3393L78.3297 16.0947L78.3821 16.4092C78.5374 17.3291 78.9751 18.178 79.6344 18.8381C80.3139 19.5178 81.1941 19.961 82.1448 20.102L82.4186 20.1428L82.2322 20.3467C80.7679 21.9096 79.536 23.6751 78.5743 25.5888C78.5565 25.6247 78.5459 25.6638 78.5433 25.7038C78.5407 25.7438 78.546 25.784 78.559 25.8219C78.572 25.8598 78.5924 25.8948 78.619 25.9248C78.6457 25.9548 78.678 25.9791 78.7141 25.9965C78.7871 26.0295 78.8699 26.0334 78.9457 26.0075C79.0214 25.9815 79.0844 25.9276 79.1218 25.8568C80.0426 24.0222 81.2192 22.3278 82.6166 20.8243L82.8205 20.6029L82.8671 20.9C83.0183 21.8364 83.4621 22.7009 84.1349 23.3695C84.8077 24.0382 85.6749 24.4766 86.6123 24.6219L86.8977 24.6627L78.6675 32.8754ZM91.1963 29.3341C89.242 31.1974 86.9267 32.6405 84.3931 33.5744C83.4982 33.8922 82.5583 34.0652 81.6089 34.087C80.7683 34.1282 79.9363 33.9019 79.2325 33.4404L79.0927 33.3414L87.352 25.0821L87.3928 25.3675C87.5381 26.3048 87.9766 27.1721 88.6452 27.8449C89.3138 28.5177 90.1783 28.9615 91.1147 29.1127L91.4118 29.1593L91.1963 29.3341Z" fill="white"/>
<path d="M72.4058 30.8602L68.2063 35.0655C68.1777 35.0937 68.1551 35.1273 68.1396 35.1643C68.1242 35.2013 68.1162 35.241 68.1162 35.2811C68.1162 35.3211 68.1242 35.3608 68.1396 35.3978C68.1551 35.4348 68.1777 35.4684 68.2063 35.4966C68.2646 35.5514 68.3417 35.582 68.4218 35.582C68.5019 35.582 68.579 35.5514 68.6373 35.4966L72.8252 31.3145C72.8824 31.2573 72.9145 31.1798 72.9145 31.099C72.9145 31.0181 72.8824 30.9406 72.8252 30.8835C72.768 30.8263 72.6905 30.7942 72.6097 30.7942C72.5289 30.7942 72.4513 30.8263 72.3942 30.8835L72.4058 30.8602Z" fill="white"/>
<path d="M87.305 39.1543C87.3333 39.126 87.3557 39.0924 87.3711 39.0554C87.3864 39.0185 87.3943 38.9788 87.3943 38.9388C87.3943 38.8988 87.3864 38.8592 87.3711 38.8222C87.3557 38.7852 87.3333 38.7516 87.305 38.7233C87.2767 38.695 87.2431 38.6725 87.2061 38.6572C87.1691 38.6419 87.1295 38.634 87.0895 38.634C87.0495 38.634 87.0098 38.6419 86.9728 38.6572C86.9359 38.6725 86.9023 38.695 86.874 38.7233L82.6744 42.9229C82.6459 42.951 82.6232 42.9846 82.6078 43.0216C82.5923 43.0586 82.5844 43.0983 82.5844 43.1384C82.5844 43.1785 82.5923 43.2182 82.6078 43.2552C82.6232 43.2921 82.6459 43.3257 82.6744 43.3539C82.7328 43.4088 82.8098 43.4393 82.8899 43.4393C82.97 43.4393 83.0471 43.4088 83.1054 43.3539L87.305 39.1543Z" fill="white"/>
</g>
<path d="M6.22434 79.636V80.524H3.94434V88H2.85234V80.524H0.560344V79.636H6.22434ZM13.5685 84.46C13.5685 84.668 13.5565 84.888 13.5325 85.12H8.27653C8.31653 85.768 8.53653 86.276 8.93653 86.644C9.34453 87.004 9.83653 87.184 10.4125 87.184C10.8845 87.184 11.2765 87.076 11.5885 86.86C11.9085 86.636 12.1325 86.34 12.2605 85.972H13.4365C13.2605 86.604 12.9085 87.12 12.3805 87.52C11.8525 87.912 11.1965 88.108 10.4125 88.108C9.78853 88.108 9.22853 87.968 8.73253 87.688C8.24453 87.408 7.86053 87.012 7.58053 86.5C7.30053 85.98 7.16053 85.38 7.16053 84.7C7.16053 84.02 7.29653 83.424 7.56853 82.912C7.84053 82.4 8.22053 82.008 8.70853 81.736C9.20453 81.456 9.77253 81.316 10.4125 81.316C11.0365 81.316 11.5885 81.452 12.0685 81.724C12.5485 81.996 12.9165 82.372 13.1725 82.852C13.4365 83.324 13.5685 83.86 13.5685 84.46ZM12.4405 84.232C12.4405 83.816 12.3485 83.46 12.1645 83.164C11.9805 82.86 11.7285 82.632 11.4085 82.48C11.0965 82.32 10.7485 82.24 10.3645 82.24C9.81253 82.24 9.34053 82.416 8.94853 82.768C8.56453 83.12 8.34453 83.608 8.28853 84.232H12.4405ZM16.1019 82.492C16.2939 82.116 16.5659 81.824 16.9179 81.616C17.2779 81.408 17.7139 81.304 18.2259 81.304V82.432H17.9379C16.7139 82.432 16.1019 83.096 16.1019 84.424V88H15.0099V81.424H16.1019V82.492ZM20.0745 80.356C19.8665 80.356 19.6905 80.284 19.5465 80.14C19.4105 79.996 19.3425 79.82 19.3425 79.612C19.3425 79.404 19.4105 79.228 19.5465 79.084C19.6905 78.94 19.8665 78.868 20.0745 78.868C20.2825 78.868 20.4545 78.94 20.5905 79.084C20.7345 79.228 20.8065 79.404 20.8065 79.612C20.8065 79.82 20.7345 79.996 20.5905 80.14C20.4545 80.284 20.2825 80.356 20.0745 80.356ZM20.6145 89.428C20.6145 90.012 20.4665 90.44 20.1705 90.712C19.8745 90.984 19.4425 91.12 18.8745 91.12H18.2385V90.196H18.6945C18.9985 90.196 19.2105 90.136 19.3305 90.016C19.4585 89.896 19.5225 89.692 19.5225 89.404V81.424H20.6145V89.428ZM22.0551 84.688C22.0551 84.016 22.1911 83.428 22.4631 82.924C22.7351 82.412 23.1071 82.016 23.5791 81.736C24.0591 81.456 24.5911 81.316 25.1751 81.316C25.7511 81.316 26.2511 81.44 26.6751 81.688C27.0991 81.936 27.4151 82.248 27.6231 82.624V81.424H28.7271V88H27.6231V86.776C27.4071 87.16 27.0831 87.48 26.6511 87.736C26.2271 87.984 25.7311 88.108 25.1631 88.108C24.5791 88.108 24.0511 87.964 23.5791 87.676C23.1071 87.388 22.7351 86.984 22.4631 86.464C22.1911 85.944 22.0551 85.352 22.0551 84.688ZM27.6231 84.7C27.6231 84.204 27.5231 83.772 27.3231 83.404C27.1231 83.036 26.8511 82.756 26.5071 82.564C26.1711 82.364 25.7991 82.264 25.3911 82.264C24.9831 82.264 24.6111 82.36 24.2751 82.552C23.9391 82.744 23.6711 83.024 23.4711 83.392C23.2711 83.76 23.1711 84.192 23.1711 84.688C23.1711 85.192 23.2711 85.632 23.4711 86.008C23.6711 86.376 23.9391 86.66 24.2751 86.86C24.6111 87.052 24.9831 87.148 25.3911 87.148C25.7991 87.148 26.1711 87.052 26.5071 86.86C26.8511 86.66 27.1231 86.376 27.3231 86.008C27.5231 85.632 27.6231 85.196 27.6231 84.7ZM30.1644 84.688C30.1644 84.016 30.3004 83.428 30.5724 82.924C30.8444 82.412 31.2164 82.016 31.6884 81.736C32.1684 81.456 32.7044 81.316 33.2964 81.316C33.8084 81.316 34.2844 81.436 34.7244 81.676C35.1644 81.908 35.5004 82.216 35.7324 82.6V79.12H36.8364V88H35.7324V86.764C35.5164 87.156 35.1964 87.48 34.7724 87.736C34.3484 87.984 33.8524 88.108 33.2844 88.108C32.7004 88.108 32.1684 87.964 31.6884 87.676C31.2164 87.388 30.8444 86.984 30.5724 86.464C30.3004 85.944 30.1644 85.352 30.1644 84.688ZM35.7324 84.7C35.7324 84.204 35.6324 83.772 35.4324 83.404C35.2324 83.036 34.9604 82.756 34.6164 82.564C34.2804 82.364 33.9084 82.264 33.5004 82.264C33.0924 82.264 32.7204 82.36 32.3844 82.552C32.0484 82.744 31.7804 83.024 31.5804 83.392C31.3804 83.76 31.2804 84.192 31.2804 84.688C31.2804 85.192 31.3804 85.632 31.5804 86.008C31.7804 86.376 32.0484 86.66 32.3844 86.86C32.7204 87.052 33.0924 87.148 33.5004 87.148C33.9084 87.148 34.2804 87.052 34.6164 86.86C34.9604 86.66 35.2324 86.376 35.4324 86.008C35.6324 85.632 35.7324 85.196 35.7324 84.7ZM39.2458 80.356C39.0378 80.356 38.8618 80.284 38.7178 80.14C38.5738 79.996 38.5018 79.82 38.5018 79.612C38.5018 79.404 38.5738 79.228 38.7178 79.084C38.8618 78.94 39.0378 78.868 39.2458 78.868C39.4458 78.868 39.6138 78.94 39.7498 79.084C39.8938 79.228 39.9658 79.404 39.9658 79.612C39.9658 79.82 39.8938 79.996 39.7498 80.14C39.6138 80.284 39.4458 80.356 39.2458 80.356ZM39.7738 81.424V88H38.6818V81.424H39.7738ZM51.1702 82.06C50.9382 81.572 50.6022 81.196 50.1622 80.932C49.7222 80.66 49.2102 80.524 48.6262 80.524C48.0422 80.524 47.5142 80.66 47.0422 80.932C46.5782 81.196 46.2102 81.58 45.9382 82.084C45.6742 82.58 45.5422 83.156 45.5422 83.812C45.5422 84.468 45.6742 85.044 45.9382 85.54C46.2102 86.036 46.5782 86.42 47.0422 86.692C47.5142 86.956 48.0422 87.088 48.6262 87.088C49.4422 87.088 50.1142 86.844 50.6422 86.356C51.1702 85.868 51.4782 85.208 51.5662 84.376H48.2302V83.488H52.7302V84.328C52.6662 85.016 52.4502 85.648 52.0822 86.224C51.7142 86.792 51.2302 87.244 50.6302 87.58C50.0302 87.908 49.3622 88.072 48.6262 88.072C47.8502 88.072 47.1422 87.892 46.5022 87.532C45.8622 87.164 45.3542 86.656 44.9782 86.008C44.6102 85.36 44.4262 84.628 44.4262 83.812C44.4262 82.996 44.6102 82.264 44.9782 81.616C45.3542 80.96 45.8622 80.452 46.5022 80.092C47.1422 79.724 47.8502 79.54 48.6262 79.54C49.5142 79.54 50.2982 79.76 50.9782 80.2C51.6662 80.64 52.1662 81.26 52.4782 82.06H51.1702ZM53.766 84.688C53.766 84.016 53.902 83.428 54.174 82.924C54.446 82.412 54.818 82.016 55.29 81.736C55.77 81.456 56.302 81.316 56.886 81.316C57.462 81.316 57.962 81.44 58.386 81.688C58.81 81.936 59.126 82.248 59.334 82.624V81.424H60.438V88H59.334V86.776C59.118 87.16 58.794 87.48 58.362 87.736C57.938 87.984 57.442 88.108 56.874 88.108C56.29 88.108 55.762 87.964 55.29 87.676C54.818 87.388 54.446 86.984 54.174 86.464C53.902 85.944 53.766 85.352 53.766 84.688ZM59.334 84.7C59.334 84.204 59.234 83.772 59.034 83.404C58.834 83.036 58.562 82.756 58.218 82.564C57.882 82.364 57.51 82.264 57.102 82.264C56.694 82.264 56.322 82.36 55.986 82.552C55.65 82.744 55.382 83.024 55.182 83.392C54.982 83.76 54.882 84.192 54.882 84.688C54.882 85.192 54.982 85.632 55.182 86.008C55.382 86.376 55.65 86.66 55.986 86.86C56.322 87.052 56.694 87.148 57.102 87.148C57.51 87.148 57.882 87.052 58.218 86.86C58.562 86.66 58.834 86.376 59.034 86.008C59.234 85.632 59.334 85.196 59.334 84.7ZM65.4874 81.304C66.2874 81.304 66.9354 81.548 67.4314 82.036C67.9274 82.516 68.1754 83.212 68.1754 84.124V88H67.0954V84.28C67.0954 83.624 66.9314 83.124 66.6034 82.78C66.2754 82.428 65.8274 82.252 65.2594 82.252C64.6834 82.252 64.2234 82.432 63.8794 82.792C63.5434 83.152 63.3754 83.676 63.3754 84.364V88H62.2834V81.424H63.3754V82.36C63.5914 82.024 63.8834 81.764 64.2514 81.58C64.6274 81.396 65.0394 81.304 65.4874 81.304ZM72.6712 81.316C73.2392 81.316 73.7352 81.44 74.1592 81.688C74.5912 81.936 74.9112 82.248 75.1192 82.624V81.424H76.2232V88.144C76.2232 88.744 76.0952 89.276 75.8392 89.74C75.5832 90.212 75.2152 90.58 74.7352 90.844C74.2632 91.108 73.7112 91.24 73.0792 91.24C72.2152 91.24 71.4952 91.036 70.9192 90.628C70.3432 90.22 70.0032 89.664 69.8992 88.96H70.9792C71.0992 89.36 71.3472 89.68 71.7232 89.92C72.0992 90.168 72.5512 90.292 73.0792 90.292C73.6792 90.292 74.1672 90.104 74.5432 89.728C74.9272 89.352 75.1192 88.824 75.1192 88.144V86.764C74.9032 87.148 74.5832 87.468 74.1592 87.724C73.7352 87.98 73.2392 88.108 72.6712 88.108C72.0872 88.108 71.5552 87.964 71.0752 87.676C70.6032 87.388 70.2312 86.984 69.9592 86.464C69.6872 85.944 69.5512 85.352 69.5512 84.688C69.5512 84.016 69.6872 83.428 69.9592 82.924C70.2312 82.412 70.6032 82.016 71.0752 81.736C71.5552 81.456 72.0872 81.316 72.6712 81.316ZM75.1192 84.7C75.1192 84.204 75.0192 83.772 74.8192 83.404C74.6192 83.036 74.3472 82.756 74.0032 82.564C73.6672 82.364 73.2952 82.264 72.8872 82.264C72.4792 82.264 72.1072 82.36 71.7712 82.552C71.4352 82.744 71.1672 83.024 70.9672 83.392C70.7672 83.76 70.6672 84.192 70.6672 84.688C70.6672 85.192 70.7672 85.632 70.9672 86.008C71.1672 86.376 71.4352 86.66 71.7712 86.86C72.1072 87.052 72.4792 87.148 72.8872 87.148C73.2952 87.148 73.6672 87.052 74.0032 86.86C74.3472 86.66 74.6192 86.376 74.8192 86.008C75.0192 85.632 75.1192 85.196 75.1192 84.7ZM80.7805 81.316C81.3485 81.316 81.8445 81.44 82.2685 81.688C82.7005 81.936 83.0205 82.248 83.2285 82.624V81.424H84.3325V88.144C84.3325 88.744 84.2045 89.276 83.9485 89.74C83.6925 90.212 83.3245 90.58 82.8445 90.844C82.3725 91.108 81.8205 91.24 81.1885 91.24C80.3245 91.24 79.6045 91.036 79.0285 90.628C78.4525 90.22 78.1125 89.664 78.0085 88.96H79.0885C79.2085 89.36 79.4565 89.68 79.8325 89.92C80.2085 90.168 80.6605 90.292 81.1885 90.292C81.7885 90.292 82.2765 90.104 82.6525 89.728C83.0365 89.352 83.2285 88.824 83.2285 88.144V86.764C83.0125 87.148 82.6925 87.468 82.2685 87.724C81.8445 87.98 81.3485 88.108 80.7805 88.108C80.1965 88.108 79.6645 87.964 79.1845 87.676C78.7125 87.388 78.3405 86.984 78.0685 86.464C77.7965 85.944 77.6605 85.352 77.6605 84.688C77.6605 84.016 77.7965 83.428 78.0685 82.924C78.3405 82.412 78.7125 82.016 79.1845 81.736C79.6645 81.456 80.1965 81.316 80.7805 81.316ZM83.2285 84.7C83.2285 84.204 83.1285 83.772 82.9285 83.404C82.7285 83.036 82.4565 82.756 82.1125 82.564C81.7765 82.364 81.4045 82.264 80.9965 82.264C80.5885 82.264 80.2165 82.36 79.8805 82.552C79.5445 82.744 79.2765 83.024 79.0765 83.392C78.8765 83.76 78.7765 84.192 78.7765 84.688C78.7765 85.192 78.8765 85.632 79.0765 86.008C79.2765 86.376 79.5445 86.66 79.8805 86.86C80.2165 87.052 80.5885 87.148 80.9965 87.148C81.4045 87.148 81.7765 87.052 82.1125 86.86C82.4565 86.66 82.7285 86.376 82.9285 86.008C83.1285 85.632 83.2285 85.196 83.2285 84.7ZM92.0099 81.424V88H90.9179V87.028C90.7099 87.364 90.4179 87.628 90.0419 87.82C89.6739 88.004 89.2659 88.096 88.8179 88.096C88.3059 88.096 87.8459 87.992 87.4379 87.784C87.0299 87.568 86.7059 87.248 86.4659 86.824C86.2339 86.4 86.1179 85.884 86.1179 85.276V81.424H87.1979V85.132C87.1979 85.78 87.3619 86.28 87.6899 86.632C88.0179 86.976 88.4659 87.148 89.0339 87.148C89.6179 87.148 90.0779 86.968 90.4139 86.608C90.7499 86.248 90.9179 85.724 90.9179 85.036V81.424H92.0099ZM93.4457 84.688C93.4457 84.016 93.5817 83.428 93.8537 82.924C94.1257 82.412 94.4977 82.016 94.9697 81.736C95.4497 81.456 95.9817 81.316 96.5657 81.316C97.1417 81.316 97.6417 81.44 98.0657 81.688C98.4897 81.936 98.8057 82.248 99.0137 82.624V81.424H100.118V88H99.0137V86.776C98.7977 87.16 98.4737 87.48 98.0417 87.736C97.6177 87.984 97.1217 88.108 96.5537 88.108C95.9697 88.108 95.4417 87.964 94.9697 87.676C94.4977 87.388 94.1257 86.984 93.8537 86.464C93.5817 85.944 93.4457 85.352 93.4457 84.688ZM99.0137 84.7C99.0137 84.204 98.9137 83.772 98.7137 83.404C98.5137 83.036 98.2417 82.756 97.8977 82.564C97.5617 82.364 97.1897 82.264 96.7817 82.264C96.3737 82.264 96.0017 82.36 95.6657 82.552C95.3297 82.744 95.0617 83.024 94.8617 83.392C94.6617 83.76 94.5617 84.192 94.5617 84.688C94.5617 85.192 94.6617 85.632 94.8617 86.008C95.0617 86.376 95.3297 86.66 95.6657 86.86C96.0017 87.052 96.3737 87.148 96.7817 87.148C97.1897 87.148 97.5617 87.052 97.8977 86.86C98.2417 86.66 98.5137 86.376 98.7137 86.008C98.9137 85.632 99.0137 85.196 99.0137 84.7ZM105.167 81.304C105.967 81.304 106.615 81.548 107.111 82.036C107.607 82.516 107.855 83.212 107.855 84.124V88H106.775V84.28C106.775 83.624 106.611 83.124 106.283 82.78C105.955 82.428 105.507 82.252 104.939 82.252C104.363 82.252 103.903 82.432 103.559 82.792C103.223 83.152 103.055 83.676 103.055 84.364V88H101.963V81.424H103.055V82.36C103.271 82.024 103.563 81.764 103.931 81.58C104.307 81.396 104.719 81.304 105.167 81.304ZM117.374 88L113.93 84.184V88H112.838V79.636H113.93V83.512L117.386 79.636H118.766L114.974 83.824L118.802 88H117.374ZM122.89 88.108C122.274 88.108 121.714 87.968 121.21 87.688C120.714 87.408 120.322 87.012 120.034 86.5C119.754 85.98 119.614 85.38 119.614 84.7C119.614 84.028 119.758 83.436 120.046 82.924C120.342 82.404 120.742 82.008 121.246 81.736C121.75 81.456 122.314 81.316 122.938 81.316C123.562 81.316 124.126 81.456 124.63 81.736C125.134 82.008 125.53 82.4 125.818 82.912C126.114 83.424 126.262 84.02 126.262 84.7C126.262 85.38 126.11 85.98 125.806 86.5C125.51 87.012 125.106 87.408 124.594 87.688C124.082 87.968 123.514 88.108 122.89 88.108ZM122.89 87.148C123.282 87.148 123.65 87.056 123.994 86.872C124.338 86.688 124.614 86.412 124.822 86.044C125.038 85.676 125.146 85.228 125.146 84.7C125.146 84.172 125.042 83.724 124.834 83.356C124.626 82.988 124.354 82.716 124.018 82.54C123.682 82.356 123.318 82.264 122.926 82.264C122.526 82.264 122.158 82.356 121.822 82.54C121.494 82.716 121.23 82.988 121.03 83.356C120.83 83.724 120.73 84.172 120.73 84.7C120.73 85.236 120.826 85.688 121.018 86.056C121.218 86.424 121.482 86.7 121.81 86.884C122.138 87.06 122.498 87.148 122.89 87.148ZM130.901 81.304C131.701 81.304 132.349 81.548 132.845 82.036C133.341 82.516 133.589 83.212 133.589 84.124V88H132.509V84.28C132.509 83.624 132.345 83.124 132.017 82.78C131.689 82.428 131.241 82.252 130.673 82.252C130.097 82.252 129.637 82.432 129.293 82.792C128.957 83.152 128.789 83.676 128.789 84.364V88H127.697V81.424H128.789V82.36C129.005 82.024 129.297 81.764 129.665 81.58C130.041 81.396 130.453 81.304 130.901 81.304ZM141.373 84.46C141.373 84.668 141.361 84.888 141.337 85.12H136.081C136.121 85.768 136.341 86.276 136.741 86.644C137.149 87.004 137.641 87.184 138.217 87.184C138.689 87.184 139.081 87.076 139.393 86.86C139.713 86.636 139.937 86.34 140.065 85.972H141.241C141.065 86.604 140.713 87.12 140.185 87.52C139.657 87.912 139.001 88.108 138.217 88.108C137.593 88.108 137.033 87.968 136.537 87.688C136.049 87.408 135.665 87.012 135.385 86.5C135.105 85.98 134.965 85.38 134.965 84.7C134.965 84.02 135.101 83.424 135.373 82.912C135.645 82.4 136.025 82.008 136.513 81.736C137.009 81.456 137.577 81.316 138.217 81.316C138.841 81.316 139.393 81.452 139.873 81.724C140.353 81.996 140.721 82.372 140.977 82.852C141.241 83.324 141.373 83.86 141.373 84.46ZM140.245 84.232C140.245 83.816 140.153 83.46 139.969 83.164C139.785 82.86 139.533 82.632 139.213 82.48C138.901 82.32 138.553 82.24 138.169 82.24C137.617 82.24 137.145 82.416 136.753 82.768C136.369 83.12 136.149 83.608 136.093 84.232H140.245ZM146.487 88L143.907 85.096V88H142.815V79.12H143.907V84.34L146.439 81.424H147.963L144.867 84.7L147.975 88H146.487ZM151.318 88.108C150.814 88.108 150.362 88.024 149.962 87.856C149.562 87.68 149.246 87.44 149.014 87.136C148.782 86.824 148.654 86.468 148.63 86.068H149.758C149.79 86.396 149.942 86.664 150.214 86.872C150.494 87.08 150.858 87.184 151.306 87.184C151.722 87.184 152.05 87.092 152.29 86.908C152.53 86.724 152.65 86.492 152.65 86.212C152.65 85.924 152.522 85.712 152.266 85.576C152.01 85.432 151.614 85.292 151.078 85.156C150.59 85.028 150.19 84.9 149.878 84.772C149.574 84.636 149.31 84.44 149.086 84.184C148.87 83.92 148.762 83.576 148.762 83.152C148.762 82.816 148.862 82.508 149.062 82.228C149.262 81.948 149.546 81.728 149.914 81.568C150.282 81.4 150.702 81.316 151.174 81.316C151.902 81.316 152.49 81.5 152.938 81.868C153.386 82.236 153.626 82.74 153.658 83.38H152.566C152.542 83.036 152.402 82.76 152.146 82.552C151.898 82.344 151.562 82.24 151.138 82.24C150.746 82.24 150.434 82.324 150.202 82.492C149.97 82.66 149.854 82.88 149.854 83.152C149.854 83.368 149.922 83.548 150.058 83.692C150.202 83.828 150.378 83.94 150.586 84.028C150.802 84.108 151.098 84.2 151.474 84.304C151.946 84.432 152.33 84.56 152.626 84.688C152.922 84.808 153.174 84.992 153.382 85.24C153.598 85.488 153.71 85.812 153.718 86.212C153.718 86.572 153.618 86.896 153.418 87.184C153.218 87.472 152.934 87.7 152.566 87.868C152.206 88.028 151.79 88.108 151.318 88.108ZM155.824 80.356C155.616 80.356 155.44 80.284 155.296 80.14C155.152 79.996 155.08 79.82 155.08 79.612C155.08 79.404 155.152 79.228 155.296 79.084C155.44 78.94 155.616 78.868 155.824 78.868C156.024 78.868 156.192 78.94 156.328 79.084C156.472 79.228 156.544 79.404 156.544 79.612C156.544 79.82 156.472 79.996 156.328 80.14C156.192 80.284 156.024 80.356 155.824 80.356ZM156.352 81.424V88H155.26V81.424H156.352ZM158.561 88.072C158.353 88.072 158.177 88 158.033 87.856C157.889 87.712 157.817 87.536 157.817 87.328C157.817 87.12 157.889 86.944 158.033 86.8C158.177 86.656 158.353 86.584 158.561 86.584C158.761 86.584 158.929 86.656 159.065 86.8C159.209 86.944 159.281 87.12 159.281 87.328C159.281 87.536 159.209 87.712 159.065 87.856C158.929 88 158.761 88.072 158.561 88.072ZM161.081 88.072C160.873 88.072 160.697 88 160.553 87.856C160.409 87.712 160.337 87.536 160.337 87.328C160.337 87.12 160.409 86.944 160.553 86.8C160.697 86.656 160.873 86.584 161.081 86.584C161.281 86.584 161.449 86.656 161.585 86.8C161.729 86.944 161.801 87.12 161.801 87.328C161.801 87.536 161.729 87.712 161.585 87.856C161.449 88 161.281 88.072 161.081 88.072ZM163.6 88.072C163.392 88.072 163.216 88 163.072 87.856C162.928 87.712 162.856 87.536 162.856 87.328C162.856 87.12 162.928 86.944 163.072 86.8C163.216 86.656 163.392 86.584 163.6 86.584C163.8 86.584 163.968 86.656 164.104 86.8C164.248 86.944 164.32 87.12 164.32 87.328C164.32 87.536 164.248 87.712 164.104 87.856C163.968 88 163.8 88.072 163.6 88.072Z" fill="url(#paint1_linear_7862_40140)"/>
<defs>
<filter id="filter0_d_7862_40140" x="51.5" y="0" width="62" height="62" filterUnits="userSpaceOnUse" color-interpolation-filters="sRGB">
<feFlood flood-opacity="0" result="BackgroundImageFix"/>
<feColorMatrix in="SourceAlpha" type="matrix" values="0 0 0 0 0 0 0 0 0 0 0 0 0 0 0 0 0 0 127 0" result="hardAlpha"/>
<feOffset dy="1"/>
<feGaussianBlur stdDeviation="1.5"/>
<feColorMatrix type="matrix" values="0 0 0 0 0.231373 0 0 0 0 0.290196 0 0 0 0 0.454902 0 0 0 0.24 0"/>
<feBlend mode="normal" in2="BackgroundImageFix" result="effect1_dropShadow_7862_40140"/>
<feBlend mode="normal" in="SourceGraphic" in2="effect1_dropShadow_7862_40140" result="shape"/>
</filter>
<linearGradient id="paint0_linear_7862_40140" x1="82.5" y1="2" x2="82.5" y2="58" gradientUnits="userSpaceOnUse">
<stop stop-color="#288C50"/>
<stop offset="1" stop-color="#24663F"/>
</linearGradient>
<linearGradient id="paint1_linear_7862_40140" x1="82.5" y1="74" x2="82.5" y2="94" gradientUnits="userSpaceOnUse">
<stop stop-color="#288C50"/>
<stop offset="1" stop-color="#24663F"/>
</linearGradient>
</defs>
</svg>
