<svg width="32" height="32" viewBox="0 0 32 32" fill="none" xmlns="http://www.w3.org/2000/svg">
<rect width="32" height="32" rx="16" fill="#E9F6EB"/>
<g clip-path="url(#clip0_1182_39564)">
<path d="M9.99999 22.6667H9.24999V23.4167H9.99999V22.6667ZM22 22.6667V23.4167H22.75V22.6667H22ZM18 14V13.25H17.25V14H18ZM13 12.25C12.5858 12.25 12.25 12.5858 12.25 13C12.25 13.4143 12.5858 13.75 13 13.75V12.25ZM15 13.75C15.4142 13.75 15.75 13.4143 15.75 13C15.75 12.5858 15.4142 12.25 15 12.25V13.75ZM13 15.25C12.5858 15.25 12.25 15.5858 12.25 16C12.25 16.4143 12.5858 16.75 13 16.75V15.25ZM15 16.75C15.4142 16.75 15.75 16.4143 15.75 16C15.75 15.5858 15.4142 15.25 15 15.25V16.75ZM13 18.25C12.5858 18.25 12.25 18.5858 12.25 19C12.25 19.4143 12.5858 19.75 13 19.75V18.25ZM15 19.75C15.4142 19.75 15.75 19.4143 15.75 19C15.75 18.5858 15.4142 18.25 15 18.25V19.75ZM11 10.0834H17V8.58337H11V10.0834ZM17.25 10.3334V22.6667H18.75V10.3334H17.25ZM18 21.9167H9.99999V23.4167H18V21.9167ZM10.75 22.6667V10.3334H9.24999V22.6667H10.75ZM17 10.0834C17.1381 10.0834 17.25 10.1953 17.25 10.3334H18.75C18.75 9.36688 17.9665 8.58337 17 8.58337V10.0834ZM11 8.58337C10.0335 8.58337 9.24999 9.36688 9.24999 10.3334H10.75C10.75 10.1953 10.8619 10.0834 11 10.0834V8.58337ZM8.66666 23.4167H23.3333V21.9167H8.66666V23.4167ZM22 21.9167H18V23.4167H22V21.9167ZM21.25 15V22.6667H22.75V15H21.25ZM21 14.75C21.1381 14.75 21.25 14.862 21.25 15H22.75C22.75 14.0335 21.9665 13.25 21 13.25V14.75ZM18 14.75H21V13.25H18V14.75ZM17.25 14V22.6667H18.75V14H17.25ZM13 13.75H15V12.25H13V13.75ZM13 16.75H15V15.25H13V16.75ZM13 19.75H15V18.25H13V19.75Z" fill="#24663F"/>
</g>
<defs>
<clipPath id="clip0_1182_39564">
<rect width="16" height="16" fill="white" transform="translate(8 8)"/>
</clipPath>
</defs>
</svg>
