<svg width="40" height="40" viewBox="0 0 40 40" fill="none" xmlns="http://www.w3.org/2000/svg">
<path d="M27.5 8.33331H11L4 20.8333V28.8333L7 33.3333H12V29.8333H26.5V33.3333H31.5L34 28.3333V19L27.5 8.33331Z" fill="#8EB69B"/>
<path d="M24.5 8L12 8.33331L5 20.8333V28.8333L8 33.3333H13V29.8333H23.5L27 30L29 33.3333L31.5 28.5V20L24.5 8Z" fill="#DAF1DE"/>
<path d="M27.3666 6.66669C27.9077 6.66664 28.4407 6.79832 28.9195 7.05037C29.3984 7.30242 29.8086 7.66725 30.1149 8.11335L30.2599 8.34669L36.2266 18.7884C36.4661 19.2076 36.6117 19.6739 36.6533 20.155L36.6666 20.4434V27.94C36.6666 28.3534 36.5897 28.7631 36.4399 29.1484L36.3149 29.4317L34.4516 33.1567C34.1953 33.6699 33.8109 34.1083 33.3356 34.4295C32.8602 34.7507 32.3101 34.9437 31.7383 34.99L31.4699 35H28.3333C27.4923 35.0003 26.6823 34.6827 26.0657 34.1109C25.449 33.539 25.0713 32.7553 25.0083 31.9167L24.9999 31.6667H14.9999C15.0002 32.5077 14.6826 33.3176 14.1108 33.9343C13.5389 34.5509 12.7552 34.9286 11.9166 34.9917L11.6666 35H8.52992C7.95683 34.9998 7.39347 34.8518 6.89424 34.5704C6.39502 34.289 5.97678 33.8836 5.67992 33.3934L5.54825 33.1567L3.68492 29.43C3.50044 29.0604 3.38628 28.6597 3.34825 28.2484L3.33325 27.94V20.4434C3.33324 19.9611 3.43787 19.4846 3.63992 19.0467L3.77325 18.7884L9.73992 8.34669C10.0084 7.87681 10.3872 7.47937 10.8437 7.1887C11.3002 6.89803 11.8206 6.72287 12.3599 6.67835L12.6333 6.66669H27.3666ZM27.3666 10H12.6333L6.66659 20.4434V27.94L8.52992 31.6667H11.6666V30.1667C11.6664 29.7149 11.8329 29.279 12.1344 28.9425C12.4358 28.606 12.8509 28.3926 13.2999 28.3434L13.4999 28.3334H26.4999C26.9517 28.3331 27.3876 28.4997 27.7241 28.8011C28.0606 29.1026 28.274 29.5176 28.3232 29.9667L28.3333 30.1667V31.6667H31.4699L33.3333 27.94V20.4434L27.3666 10ZM27.5899 18.5084C27.9852 18.3116 28.4423 18.2798 28.861 18.4198C29.2797 18.5597 29.6258 18.8601 29.8232 19.255C30.0165 19.6513 30.0466 20.1077 29.907 20.5259C29.7673 20.9442 29.4692 21.291 29.0766 21.4917C26.3366 22.8584 23.0166 23.3334 19.9999 23.3334C16.9233 23.3334 13.7166 22.8634 10.9299 21.495C10.5375 21.2932 10.2392 20.9463 10.0985 20.528C9.95782 20.1097 9.98583 19.653 10.1766 19.255C10.3628 18.8909 10.6755 18.6072 11.056 18.4572C11.4365 18.3071 11.8586 18.301 12.2433 18.44L12.6883 18.6317L13.0949 18.7934L13.4599 18.9267L13.8933 19.07L14.3966 19.2234L14.9633 19.375L15.5916 19.525L16.2766 19.6617C17.5049 19.8866 18.7511 19.9999 19.9999 20C22.5266 20 25.2799 19.6134 27.5899 18.5084Z" fill="#235347"/>
</svg>
