<svg width="16" height="16" viewBox="0 0 16 16" fill="none" xmlns="http://www.w3.org/2000/svg">
<path d="M8.07285 16C7.99448 16 7.91611 15.9804 7.83778 15.9608L7.07376 15.6278C3.99817 14.2761 2 11.2396 2 7.87019V3.59963C2 3.38414 2.11755 3.18826 2.31343 3.09029L7.81817 0.073455C7.99448 -0.024485 8.20997 -0.024485 8.38628 0.073455L14.0281 3.09029C14.224 3.18823 14.3416 3.38414 14.3416 3.59963V7.79186C14.3416 11.2005 12.3042 14.2565 9.16983 15.5886L8.30787 15.9609C8.22954 15.9804 8.15121 16 8.07285 16ZM3.17539 3.95225V7.87023C3.17539 10.7499 4.89932 13.375 7.54392 14.5504L8.07285 14.7854L8.69971 14.5112C11.4227 13.3554 13.1662 10.7303 13.1662 7.79186V3.95225L8.09242 1.24885L3.17539 3.95225Z" fill="#333333"/>
<path d="M7.28922 10.2013C7.13249 10.2013 6.95618 10.1229 6.83867 9.98578L5.34985 8.24229C5.13436 7.98761 5.17354 7.61543 5.4086 7.41951C5.66328 7.20402 6.03547 7.2432 6.23138 7.47826L7.34802 8.79078L10.3648 6.32245C10.6195 6.12657 10.9917 6.14614 11.1876 6.40081C11.3835 6.65549 11.3639 7.02767 11.1093 7.22359L7.66145 10.0641C7.5439 10.1621 7.42635 10.2013 7.28922 10.2013Z" fill="#59AC5A"/>
</svg>
