<svg width="40" height="40" viewBox="0 0 40 40" fill="none" xmlns="http://www.w3.org/2000/svg">
<circle cx="20" cy="20" r="20" fill="url(#paint0_linear_4140_6071)"/>
<path fill-rule="evenodd" clip-rule="evenodd" d="M9.5 28.7998C9.5 28.5237 9.72386 28.2998 10 28.2998H31C31.2761 28.2998 31.5 28.5237 31.5 28.7998C31.5 29.0759 31.2761 29.2998 31 29.2998H10C9.72386 29.2998 9.5 29.0759 9.5 28.7998Z" fill="#24663F"/>
<path fill-rule="evenodd" clip-rule="evenodd" d="M26 10.5C25.3825 10.5 24.7902 10.7453 24.3536 11.182L11.7848 23.7507L10.6872 28.1412L15.0777 27.0436L27.6465 14.4749C28.0831 14.0382 28.3284 13.446 28.3284 12.8284C28.3284 12.2109 28.0831 11.6186 27.6465 11.182C27.2098 10.7453 26.6175 10.5 26 10.5ZM23.6465 10.4749C24.2707 9.85067 25.1173 9.5 26 9.5C26.8828 9.5 27.7294 9.85067 28.3536 10.4749C28.9778 11.0991 29.3284 11.9457 29.3284 12.8284C29.3284 13.7112 28.9778 14.5578 28.3536 15.182L15.6869 27.8486C15.6228 27.9127 15.5425 27.9582 15.4546 27.9802L10.1213 29.3135C9.95089 29.3561 9.77065 29.3062 9.64646 29.182C9.52227 29.0578 9.47234 28.8775 9.51494 28.7072L10.8483 23.3738C10.8703 23.2859 10.9157 23.2056 10.9798 23.1415L23.6465 10.4749Z" fill="#24663F"/>
<defs>
<linearGradient id="paint0_linear_4140_6071" x1="20" y1="0" x2="20" y2="40" gradientUnits="userSpaceOnUse">
<stop stop-color="#E1FFED"/>
<stop offset="1" stop-color="#E1FFED" stop-opacity="0"/>
</linearGradient>
</defs>
</svg>
