<svg width="40" height="40" viewBox="0 0 40 40" fill="none" xmlns="http://www.w3.org/2000/svg">
<circle cx="20" cy="20" r="20" fill="url(#paint0_linear_4439_11156)"/>
<path d="M18.0049 10.5031L8.12324 26.9998C7.9195 27.3526 7.8117 27.7526 7.81056 28.16C7.80942 28.5674 7.91497 28.9681 8.11673 29.322C8.31849 29.676 8.60942 29.971 8.96056 30.1776C9.31171 30.3842 9.71083 30.4953 10.1182 30.4998H29.8816C30.289 30.4953 30.6881 30.3842 31.0392 30.1776C31.3904 29.971 31.6813 29.676 31.8831 29.322C32.0848 28.9681 32.1904 28.5674 32.1893 28.16C32.1881 27.7526 32.0803 27.3526 31.8766 26.9998L21.9949 10.5031C21.7869 10.1602 21.4941 9.87672 21.1446 9.67998C20.7952 9.48324 20.4009 9.37988 19.9999 9.37988C19.5989 9.37988 19.2046 9.48324 18.8552 9.67998C18.5057 9.87672 18.2129 10.1602 18.0049 10.5031V10.5031Z" stroke="#EB5757" stroke-linecap="round" stroke-linejoin="round"/>
<path d="M20 16.5V21.1667" stroke="#EB5757" stroke-linecap="round" stroke-linejoin="round"/>
<path d="M20 25.833H20.0112" stroke="#EB5757" stroke-linecap="round" stroke-linejoin="round"/>
<defs>
<linearGradient id="paint0_linear_4439_11156" x1="20" y1="0" x2="20" y2="40" gradientUnits="userSpaceOnUse">
<stop stop-color="#FFD5D5"/>
<stop offset="1" stop-color="#FFD5D5" stop-opacity="0"/>
</linearGradient>
</defs>
</svg>
