<svg width="360" height="174" viewBox="0 0 360 174" fill="none" xmlns="http://www.w3.org/2000/svg">
<rect width="360" height="174" fill="white"/>
<path opacity="0.7" d="M297.78 76.7208C297.78 76.7208 278.588 41.1813 239.987 32.9611C201.385 24.7409 182.274 44.6946 156.445 49.8763C130.616 55.0309 117.451 25.487 87.044 48.5062C56.6369 71.5255 46.262 129.311 74.7051 145.846C103.148 162.382 131.727 163.06 168.974 158.38C206.221 153.7 226.429 164.878 252.867 165C279.319 165.122 316.891 127.019 297.78 76.7208Z" fill="#DAF1DE"/>
<path d="M202.81 40.0198L219.51 39.3097C222.54 39.1798 225.08 41.5698 225.15 44.5998L225.74 70.3998C225.8 73.2198 223.69 75.6198 220.89 75.9098C219.95 76.0098 219.24 76.8198 219.28 77.7698L221.38 132.26C221.52 135.97 218.64 139.11 214.93 139.27L151.13 142.1C150.13 142.14 149.28 141.36 149.25 140.36L146.43 45.7798C146.4 44.8198 147.14 43.9998 148.1 43.9298L202.81 40.0198Z" fill="#235347"/>
<g opacity="0.3">
<path d="M149.19 138.57L149.24 140.36L217.92 134.04L216.61 39.4399C216.61 39.4399 199.94 41.9699 199.63 41.9699C199.33 41.9699 149.19 138.57 149.19 138.57Z" fill="black"/>
</g>
<path d="M194.11 34.9495L214.05 33.7295L216.1 131.779L145.95 138.899L135.62 41.3595L194.11 34.9495Z" fill="#8EB69B" stroke="#235347" stroke-miterlimit="10"/>
<path d="M194.11 34.9497C194.11 34.9497 193.76 34.9997 193.08 35.0697C192.39 35.1497 191.38 35.2597 190.05 35.4097C187.38 35.7097 183.45 36.1397 178.4 36.7097C168.28 37.8297 153.66 39.4397 135.63 41.4297L135.69 41.3597C138.46 67.4897 142.07 101.44 146.04 138.9L145.94 138.82C150.95 138.31 156.28 137.77 161.66 137.22C180.74 135.29 199.1 133.43 216.09 131.7L216.01 131.79C215.13 88.9197 214.41 53.7597 214 33.7397L214.04 33.7797C207.55 34.1697 202.57 34.4597 199.21 34.6597C197.53 34.7597 196.26 34.8297 195.4 34.8797C194.55 34.9297 194.11 34.9497 194.11 34.9497C194.11 34.9497 194.54 34.9197 195.4 34.8597C196.26 34.8097 197.53 34.7197 199.21 34.6197C202.57 34.4097 207.55 34.0997 214.04 33.6997H214.08V33.7397C214.51 53.7597 215.26 88.9197 216.18 131.79V131.87L216.1 131.88C199.11 133.6 180.76 135.47 161.67 137.4C156.28 137.95 150.96 138.49 145.95 138.99L145.87 139L145.86 138.91C141.9 101.45 138.31 67.4997 135.55 41.3697L135.54 41.2997L135.61 41.2897C153.65 39.3197 168.27 37.7297 178.39 36.6297C183.45 36.0797 187.38 35.6597 190.05 35.3697C191.38 35.2297 192.4 35.1197 193.08 35.0497C193.76 34.9797 194.11 34.9497 194.11 34.9497Z" fill="#1A2E35"/>
<path d="M132.13 38.0998L141.63 136.78L215.1 129.86L204.51 31.2598L132.13 38.0998Z" fill="#DAF1DE" stroke="#235347" stroke-miterlimit="10"/>
<path d="M132.13 38.0999C132.73 38.0399 160.63 35.3699 204.5 31.1799L204.57 31.1699L204.58 31.2399C207.56 58.9199 211.23 93.0199 215.19 129.85L215.2 129.94L215.11 129.95C214.95 129.97 214.77 129.98 214.59 130C188.39 132.46 163.57 134.8 141.64 136.86L141.56 136.87L141.55 136.79C135.97 78.3599 132.2 38.8199 132.13 38.0999C132.2 38.8199 136.04 78.3499 141.71 136.77L141.62 136.7C163.55 134.63 188.38 132.29 214.57 129.82C214.75 129.8 214.93 129.79 215.09 129.77L215.01 129.87C211.06 93.0399 207.4 58.9399 204.43 31.2599L204.51 31.3299C160.64 35.4299 132.74 38.0499 132.13 38.0999Z" fill="#1A2E35"/>
<path d="M202.77 56.6401C202.77 56.6901 188.91 58.0401 171.81 59.6501C154.7 61.2701 140.83 62.5301 140.83 62.4801C140.83 62.4301 154.69 61.0801 171.8 59.4701C188.89 57.8601 202.76 56.5901 202.77 56.6401Z" stroke="#235347" stroke-miterlimit="10"/>
<path d="M169.15 55.8698C169.15 55.9198 162.76 56.5598 154.86 57.3098C146.96 58.0598 140.56 58.6198 140.55 58.5698C140.55 58.5198 146.94 57.8798 154.84 57.1298C162.74 56.3798 169.15 55.8198 169.15 55.8698Z" stroke="#235347" stroke-miterlimit="10"/>
<path d="M203.04 60.6601C203.04 60.7101 189.18 62.0601 172.08 63.6701C154.97 65.2901 141.1 66.5501 141.1 66.5001C141.1 66.4501 154.96 65.1001 172.07 63.4901C189.16 61.8801 203.03 60.6101 203.04 60.6601Z" stroke="#235347" stroke-miterlimit="10"/>
<path d="M203.31 64.6801C203.31 64.7301 189.45 66.0801 172.35 67.6901C155.24 69.3101 141.37 70.5701 141.37 70.5201C141.37 70.4701 155.23 69.1201 172.34 67.5101C189.43 65.9001 203.3 64.6301 203.31 64.6801Z" stroke="#235347" stroke-miterlimit="10"/>
<path d="M203.58 68.7002C203.58 68.7502 189.72 70.1002 172.62 71.7102C155.51 73.3302 141.64 74.5902 141.64 74.5402C141.64 74.4902 155.5 73.1402 172.61 71.5302C189.7 69.9202 203.57 68.6502 203.58 68.7002Z" stroke="#235347" stroke-miterlimit="10"/>
<path d="M203.85 72.73C203.85 72.78 189.99 74.13 172.89 75.74C155.78 77.36 141.91 78.62 141.91 78.57C141.91 78.52 155.77 77.17 172.88 75.56C189.97 73.94 203.84 72.68 203.85 72.73Z" stroke="#235347" stroke-miterlimit="10"/>
<path d="M204.12 76.75C204.12 76.8 190.26 78.15 173.16 79.76C156.05 81.38 142.18 82.64 142.18 82.59C142.18 82.54 156.04 81.19 173.15 79.58C190.24 77.97 204.11 76.7 204.12 76.75Z" stroke="#235347" stroke-miterlimit="10"/>
<path d="M204.39 80.77C204.39 80.82 190.71 82.15 173.83 83.75C156.94 85.34 143.26 86.6 143.25 86.55C143.25 86.5 156.93 85.17 173.81 83.57C190.69 81.97 204.38 80.72 204.39 80.77Z" stroke="#235347" stroke-miterlimit="10"/>
<path d="M180.52 88.5001C180.52 88.5501 172.26 89.3301 162.07 90.2501C151.87 91.1701 143.61 91.8701 143.6 91.8201C143.6 91.7701 151.85 90.9901 162.05 90.0701C172.24 89.1501 180.51 88.4501 180.52 88.5001Z" stroke="#235347" stroke-miterlimit="10"/>
<path fill-rule="evenodd" clip-rule="evenodd" d="M192.63 124.58C196.24 124.58 199.59 123.49 202.38 121.62L213.79 132.51L217.93 127.71L206.92 117.2C208.95 114.34 210.15 110.84 210.15 107.06C210.15 97.39 202.31 89.54 192.63 89.54C182.96 89.54 175.11 97.38 175.11 107.06C175.11 116.74 182.96 124.58 192.63 124.58ZM207.57 107.07C207.57 115.26 200.93 121.9 192.74 121.9C184.55 121.9 177.91 115.26 177.91 107.07C177.91 98.88 184.55 92.24 192.74 92.24C200.93 92.24 207.57 98.88 207.57 107.07Z" fill="#288C50"/>
<path d="M192.74 122.18C201.18 122.18 208.02 115.4 208.02 107.05C208.02 98.6999 201.18 91.9199 192.74 91.9199C184.3 91.9199 177.46 98.6999 177.46 107.05C177.46 115.4 184.3 122.18 192.74 122.18Z" fill="#235347" fill-opacity="0.3"/>
<path d="M195.72 107.07L199.69 103.12C200.06 102.73 200.27 102.21 200.26 101.67C200.25 101.13 200.03 100.62 199.65 100.24C199.27 99.8601 198.75 99.6401 198.21 99.6401C197.67 99.6301 197.15 99.8301 196.75 100.2L192.77 104.15L188.8 100.2C188.61 100 188.38 99.8401 188.13 99.7301C187.88 99.6201 187.6 99.5601 187.32 99.5601C187.04 99.5601 186.77 99.6101 186.51 99.7101C186.25 99.8101 186.02 99.9701 185.82 100.16C185.62 100.36 185.47 100.59 185.36 100.84C185.26 101.1 185.2 101.37 185.21 101.65C185.21 101.93 185.27 102.2 185.39 102.45C185.5 102.7 185.66 102.93 185.87 103.12L189.84 107.07L185.87 111.02C185.67 111.21 185.51 111.44 185.39 111.69C185.28 111.94 185.22 112.22 185.21 112.49C185.21 112.77 185.26 113.04 185.36 113.3C185.46 113.56 185.62 113.79 185.82 113.98C186.02 114.18 186.25 114.33 186.51 114.43C186.77 114.53 187.04 114.59 187.32 114.58C187.6 114.58 187.87 114.52 188.13 114.41C188.38 114.3 188.61 114.14 188.8 113.94L192.78 109.99L196.76 113.94C197.16 114.29 197.67 114.47 198.2 114.45C198.73 114.43 199.23 114.22 199.6 113.84C199.97 113.47 200.19 112.97 200.21 112.44C200.23 111.91 200.04 111.4 199.69 111.01L195.72 107.07Z" fill="#0B2B26"/>
</svg>
