<svg width="32" height="32" viewBox="0 0 32 32" fill="none" xmlns="http://www.w3.org/2000/svg">
<rect width="32" height="32" rx="16" fill="#E9F6EB"/>
<g clip-path="url(#clip0_1182_39543)">
<path d="M16 18C17.1046 18 18 17.1046 18 16C18 14.8954 17.1046 14 16 14C14.8954 14 14 14.8954 14 16C14 17.1046 14.8954 18 16 18Z" stroke="#24663F" stroke-width="1.5" stroke-linecap="round" stroke-linejoin="round"/>
<path d="M20.9333 18.0001C20.8446 18.2012 20.8181 18.4242 20.8573 18.6405C20.8965 18.8567 20.9996 19.0563 21.1533 19.2134L21.1933 19.2534C21.3173 19.3772 21.4156 19.5243 21.4827 19.6862C21.5498 19.848 21.5844 20.0215 21.5844 20.1967C21.5844 20.372 21.5498 20.5455 21.4827 20.7073C21.4156 20.8692 21.3173 21.0162 21.1933 21.1401C21.0695 21.264 20.9224 21.3624 20.7606 21.4295C20.5987 21.4966 20.4252 21.5311 20.25 21.5311C20.0748 21.5311 19.9013 21.4966 19.7394 21.4295C19.5775 21.3624 19.4305 21.264 19.3067 21.1401L19.2667 21.1001C19.1095 20.9464 18.91 20.8433 18.6937 20.8041C18.4775 20.7649 18.2544 20.7913 18.0533 20.8801C17.8561 20.9646 17.688 21.1049 17.5695 21.2838C17.4511 21.4626 17.3875 21.6722 17.3867 21.8867V22.0001C17.3867 22.3537 17.2462 22.6928 16.9961 22.9429C16.7461 23.1929 16.4069 23.3334 16.0533 23.3334C15.6997 23.3334 15.3606 23.1929 15.1105 22.9429C14.8605 22.6928 14.72 22.3537 14.72 22.0001V21.9401C14.7148 21.7194 14.6434 21.5054 14.515 21.3259C14.3866 21.1464 14.2071 21.0096 14 20.9334C13.7989 20.8447 13.5759 20.8182 13.3596 20.8574C13.1433 20.8966 12.9438 20.9997 12.7867 21.1534L12.7467 21.1934C12.6228 21.3174 12.4758 21.4157 12.3139 21.4828C12.152 21.5499 11.9785 21.5845 11.8033 21.5845C11.6281 21.5845 11.4546 21.5499 11.2927 21.4828C11.1309 21.4157 10.9838 21.3174 10.86 21.1934C10.736 21.0696 10.6377 20.9225 10.5706 20.7607C10.5035 20.5988 10.4689 20.4253 10.4689 20.2501C10.4689 20.0749 10.5035 19.9014 10.5706 19.7395C10.6377 19.5776 10.736 19.4306 10.86 19.3067L10.9 19.2667C11.0537 19.1096 11.1568 18.9101 11.196 18.6938C11.2352 18.4775 11.2087 18.2545 11.12 18.0534C11.0355 17.8562 10.8952 17.6881 10.7163 17.5696C10.5374 17.4512 10.3278 17.3876 10.1133 17.3867H9.99999C9.64637 17.3867 9.30723 17.2463 9.05718 16.9962C8.80713 16.7462 8.66666 16.407 8.66666 16.0534C8.66666 15.6998 8.80713 15.3607 9.05718 15.1106C9.30723 14.8606 9.64637 14.7201 9.99999 14.7201H10.06C10.2807 14.7149 10.4947 14.6435 10.6742 14.5151C10.8537 14.3867 10.9905 14.2072 11.0667 14.0001C11.1554 13.799 11.1819 13.576 11.1427 13.3597C11.1034 13.1434 11.0003 12.9439 10.8467 12.7867L10.8067 12.7467C10.6827 12.6229 10.5843 12.4759 10.5172 12.314C10.4501 12.1521 10.4156 11.9786 10.4156 11.8034C10.4156 11.6282 10.4501 11.4547 10.5172 11.2928C10.5843 11.131 10.6827 10.9839 10.8067 10.8601C10.9305 10.7361 11.0775 10.6378 11.2394 10.5707C11.4013 10.5036 11.5748 10.469 11.75 10.469C11.9252 10.469 12.0987 10.5036 12.2606 10.5707C12.4224 10.6378 12.5695 10.7361 12.6933 10.8601L12.7333 10.9001C12.8904 11.0538 13.09 11.1569 13.3063 11.1961C13.5225 11.2353 13.7456 11.2088 13.9467 11.1201H14C14.1972 11.0356 14.3653 10.8953 14.4838 10.7164C14.6022 10.5375 14.6658 10.3279 14.6667 10.1134V10.0001C14.6667 9.64646 14.8071 9.30732 15.0572 9.05727C15.3072 8.80722 15.6464 8.66675 16 8.66675C16.3536 8.66675 16.6927 8.80722 16.9428 9.05727C17.1928 9.30732 17.3333 9.64646 17.3333 10.0001V10.0601C17.3342 10.2746 17.3977 10.4842 17.5162 10.6631C17.6346 10.8419 17.8028 10.9822 18 11.0667C18.2011 11.1555 18.4241 11.182 18.6404 11.1428C18.8566 11.1035 19.0562 11.0004 19.2133 10.8467L19.2533 10.8067C19.3772 10.6828 19.5242 10.5844 19.6861 10.5173C19.8479 10.4502 20.0214 10.4157 20.1967 10.4157C20.3719 10.4157 20.5454 10.4502 20.7072 10.5173C20.8691 10.5844 21.0162 10.6828 21.14 10.8067C21.264 10.9306 21.3623 11.0776 21.4294 11.2395C21.4965 11.4014 21.531 11.5749 21.531 11.7501C21.531 11.9253 21.4965 12.0988 21.4294 12.2607C21.3623 12.4225 21.264 12.5696 21.14 12.6934L21.1 12.7334C20.9463 12.8905 20.8432 13.0901 20.804 13.3064C20.7648 13.5226 20.7912 13.7457 20.88 13.9467V14.0001C20.9645 14.1973 21.1048 14.3654 21.2837 14.4839C21.4625 14.6023 21.6721 14.6659 21.8867 14.6667H22C22.3536 14.6667 22.6927 14.8072 22.9428 15.0573C23.1928 15.3073 23.3333 15.6465 23.3333 16.0001C23.3333 16.3537 23.1928 16.6928 22.9428 16.9429C22.6927 17.1929 22.3536 17.3334 22 17.3334H21.94C21.7255 17.3343 21.5159 17.3978 21.337 17.5163C21.1582 17.6347 21.0178 17.8029 20.9333 18.0001V18.0001Z" stroke="#24663F" stroke-width="1.5" stroke-linecap="round" stroke-linejoin="round"/>
</g>
<defs>
<clipPath id="clip0_1182_39543">
<rect width="16" height="16" fill="white" transform="translate(8 8)"/>
</clipPath>
</defs>
</svg>
