<svg width="22" height="20" viewBox="0 0 22 20" fill="none" xmlns="http://www.w3.org/2000/svg">
<path d="M19 9.55557C19.003 10.7288 18.7289 11.8861 18.2 12.9333C17.5728 14.1882 16.6086 15.2437 15.4155 15.9816C14.2223 16.7195 12.8473 17.1106 11.4444 17.1111C10.2712 17.1142 9.11387 16.8401 8.06666 16.3111L3 18L4.68889 12.9333C4.15994 11.8861 3.88583 10.7288 3.88889 9.55557C3.88943 8.15269 4.28054 6.77766 5.01841 5.58451C5.75629 4.39135 6.81178 3.42719 8.06666 2.80002C9.11387 2.27107 10.2712 1.99697 11.4444 2.00003H11.8889C13.7416 2.10224 15.4916 2.88426 16.8037 4.19634C18.1157 5.50843 18.8978 7.25837 19 9.11113V9.55557Z" stroke="#AAAAAA" stroke-width="1.5" stroke-linecap="round" stroke-linejoin="round"/>
<circle cx="7.75" cy="9.75" r="0.75" fill="#AAAAAA"/>
<circle cx="11.3057" cy="9.75" r="0.75" fill="#AAAAAA"/>
<circle cx="14.8613" cy="9.75" r="0.75" fill="#AAAAAA"/>
</svg>
