<svg width="22" height="20" viewBox="0 0 22 20" fill="none" xmlns="http://www.w3.org/2000/svg">
<path d="M14.0901 3.83337H15.6317C16.0406 3.83337 16.4327 3.9958 16.7219 4.28492C17.011 4.57404 17.1734 4.96616 17.1734 5.37504V16.1667C17.1734 16.5756 17.011 16.9677 16.7219 17.2568C16.4327 17.5459 16.0406 17.7084 15.6317 17.7084H6.38175C5.97288 17.7084 5.58075 17.5459 5.29163 17.2568C5.00251 16.9677 4.84009 16.5756 4.84009 16.1667V5.37504C4.84009 4.96616 5.00251 4.57404 5.29163 4.28492C5.58075 3.9958 5.97288 3.83337 6.38175 3.83337H7.92342" stroke="#AAAAAA" stroke-width="1.5" stroke-linecap="round" stroke-linejoin="round"/>
<path d="M13.3192 2.29169H8.69417C8.26845 2.29169 7.92334 2.6368 7.92334 3.06252V4.60418C7.92334 5.0299 8.26845 5.37502 8.69417 5.37502H13.3192C13.7449 5.37502 14.09 5.0299 14.09 4.60418V3.06252C14.09 2.6368 13.7449 2.29169 13.3192 2.29169Z" stroke="#AAAAAA" stroke-width="1.5" stroke-linecap="round" stroke-linejoin="round"/>
<path d="M7.92334 8.67859L14.09 8.67859" stroke="#AAAAAA" stroke-width="1.5" stroke-linecap="round"/>
<path d="M7.92334 11.3214L14.09 11.3214" stroke="#AAAAAA" stroke-width="1.5" stroke-linecap="round"/>
<path d="M7.92334 13.9643L14.09 13.9643" stroke="#AAAAAA" stroke-width="1.5" stroke-linecap="round"/>
</svg>
