<svg width="32" height="32" viewBox="0 0 32 32" fill="none" xmlns="http://www.w3.org/2000/svg">
<rect width="32" height="32" rx="16" fill="#24663F"/>
<g clip-path="url(#clip0_496_24408)">
<path d="M22.6667 19.2802V21.2802C22.6675 21.4659 22.6294 21.6497 22.555 21.8198C22.4807 21.9899 22.3716 22.1426 22.2348 22.2681C22.0979 22.3937 21.9364 22.4892 21.7605 22.5487C21.5847 22.6082 21.3983 22.6303 21.2134 22.6136C19.1619 22.3907 17.1914 21.6897 15.46 20.5669C13.8493 19.5433 12.4836 18.1777 11.46 16.5669C10.3334 14.8277 9.6322 12.8476 9.41337 10.7869C9.39671 10.6025 9.41862 10.4167 9.4777 10.2413C9.53679 10.0659 9.63175 9.90469 9.75655 9.76797C9.88134 9.63126 10.0332 9.52203 10.2026 9.44724C10.3719 9.37245 10.5549 9.33374 10.74 9.33356H12.74C13.0636 9.33038 13.3772 9.44495 13.6225 9.65592C13.8679 9.86689 14.0281 10.1599 14.0734 10.4802C14.1578 11.1203 14.3143 11.7487 14.54 12.3536C14.6297 12.5922 14.6491 12.8515 14.596 13.1008C14.5428 13.3501 14.4193 13.579 14.24 13.7602L13.3934 14.6069C14.3424 16.2759 15.7243 17.6579 17.3934 18.6069L18.24 17.7602C18.4213 17.581 18.6501 17.4575 18.8994 17.4043C19.1488 17.3511 19.4081 17.3705 19.6467 17.4602C20.2516 17.6859 20.88 17.8425 21.52 17.9269C21.8439 17.9726 22.1396 18.1357 22.3511 18.3852C22.5625 18.6348 22.6748 18.9533 22.6667 19.2802Z" stroke="white" stroke-width="1.3" stroke-linecap="round" stroke-linejoin="round"/>
</g>
<defs>
<clipPath id="clip0_496_24408">
<rect width="16" height="16" fill="white" transform="translate(8 8)"/>
</clipPath>
</defs>
</svg>
