<svg width="40" height="40" viewBox="0 0 40 40" fill="none" xmlns="http://www.w3.org/2000/svg">
<rect width="40" height="40" rx="20" fill="#24663F"/>
<g clip-path="url(#clip0_496_25403)">
<path d="M24.42 12C24.7447 12 25.0645 12.079 25.3518 12.2302C25.6391 12.3814 25.8852 12.6003 26.069 12.868L26.156 13.008L29.736 19.273C29.8797 19.5246 29.9671 19.8044 29.992 20.093L30 20.266V24.764C30 25.012 29.9539 25.2579 29.864 25.489L29.789 25.659L28.671 27.894C28.5172 28.2019 28.2866 28.465 28.0014 28.6577C27.7162 28.8504 27.3861 28.9662 27.043 28.994L26.882 29H25C24.4954 29.0002 24.0094 28.8096 23.6395 28.4665C23.2695 28.1234 23.0428 27.6532 23.005 27.15L23 27H17C17.0002 27.5046 16.8096 27.9906 16.4665 28.3605C16.1234 28.7305 15.6532 28.9572 15.15 28.995L15 29H13.118C12.7741 28.9999 12.4361 28.9111 12.1366 28.7422C11.8371 28.5734 11.5861 28.3301 11.408 28.036L11.329 27.894L10.211 25.658C10.1003 25.4362 10.0318 25.1958 10.009 24.949L10 24.764V20.266C9.99999 19.9766 10.0628 19.6907 10.184 19.428L10.264 19.273L13.844 13.008C14.0051 12.7261 14.2324 12.4876 14.5063 12.3132C14.7802 12.1388 15.0924 12.0337 15.416 12.007L15.58 12H24.42ZM24.42 14H15.58L12 20.266V24.764L13.118 27H15V26.1C14.9999 25.8289 15.0998 25.5674 15.2807 25.3655C15.4615 25.1636 15.7106 25.0356 15.98 25.006L16.1 25H23.9C24.1711 24.9999 24.4326 25.0998 24.6345 25.2807C24.8364 25.4615 24.9644 25.7106 24.994 25.98L25 26.1V27H26.882L28 24.764V20.266L24.42 14ZM24.554 19.105C24.7911 18.987 25.0654 18.9678 25.3167 19.0518C25.5679 19.1358 25.7755 19.3161 25.894 19.553C26.01 19.7908 26.028 20.0646 25.9442 20.3155C25.8605 20.5665 25.6816 20.7746 25.446 20.895C23.802 21.715 21.81 22 20 22C18.154 22 16.23 21.718 14.558 20.897C14.3225 20.7759 14.1436 20.5677 14.0591 20.3168C13.9747 20.0658 13.9915 19.7918 14.106 19.553C14.2177 19.3345 14.4053 19.1643 14.6336 19.0743C14.8619 18.9843 15.1152 18.9806 15.346 19.064L15.613 19.179L15.857 19.276L16.076 19.356L16.336 19.442L16.638 19.534L16.978 19.625L17.355 19.715L17.766 19.797C18.503 19.932 19.2507 19.9999 20 20C21.516 20 23.168 19.768 24.554 19.105Z" fill="white"/>
</g>
<defs>
<clipPath id="clip0_496_25403">
<rect width="24" height="24" fill="white" transform="translate(8 8)"/>
</clipPath>
</defs>
</svg>
