<svg width="48" height="48" viewBox="0 0 48 48" fill="none" xmlns="http://www.w3.org/2000/svg">
<path d="M17.1901 15.8579H15.1021V19.1159H17.1901V15.8579Z" stroke="#235347" stroke-width="1.5" stroke-miterlimit="10" stroke-linecap="round" stroke-linejoin="round"/>
<path d="M36.534 15.8398H34.446V19.0978H36.534V15.8398Z" stroke="#235347" stroke-width="1.5" stroke-miterlimit="10" stroke-linecap="round" stroke-linejoin="round"/>
<path d="M38.124 9.42578H13.512V15.8578H38.124V9.42578Z" fill="#DAF1DE" stroke="#235347" stroke-width="1.5" stroke-miterlimit="10" stroke-linecap="round" stroke-linejoin="round"/>
<path d="M23.0094 11.2871V13.694H22.4231V12.2505L21.8848 13.694H21.4117L20.87 12.2471V13.694H20.2837V11.2871H20.9763L21.6517 12.9534L22.3203 11.2871H23.0094Z" fill="#235347"/>
<path d="M24.0173 11.2871V13.694H23.431V11.2871H24.0173Z" fill="#235347"/>
<path d="M26.1736 11.2871V11.7568H25.5359V13.694H24.9496V11.7568H24.3119V11.2871H26.1736Z" fill="#235347"/>
<path d="M27.6953 13.694L27.1947 12.7854H27.0541V13.694H26.4678V11.2871H27.4518C27.6416 11.2871 27.8027 11.3203 27.9353 11.3865C28.0701 11.4528 28.1707 11.5443 28.237 11.6608C28.3033 11.7751 28.3364 11.9031 28.3364 12.0448C28.3364 12.2048 28.2907 12.3477 28.1993 12.4734C28.1101 12.5991 27.9776 12.6883 27.8016 12.7408L28.357 13.694H27.6953ZM27.0541 12.3705H27.4176C27.525 12.3705 27.605 12.3443 27.6576 12.2917C27.7124 12.2391 27.7398 12.1648 27.7398 12.0688C27.7398 11.9774 27.7124 11.9054 27.6576 11.8528C27.605 11.8003 27.525 11.774 27.4176 11.774H27.0541V12.3705Z" fill="#235347"/>
<path d="M30.2027 13.2688H29.3045L29.1604 13.694H28.5467L29.4176 11.2871H30.0964L30.9673 13.694H30.3467L30.2027 13.2688ZM30.0519 12.8163L29.7536 11.9351L29.4587 12.8163H30.0519Z" fill="#235347"/>
<path d="M8.18994 40.188H43.4519" stroke="#235347" stroke-width="1.5" stroke-miterlimit="10" stroke-linecap="round" stroke-linejoin="round"/>
<path d="M42.5758 19.5239H8.89185V21.9359H42.5758V19.5239Z" stroke="#235347" stroke-width="1.5" stroke-miterlimit="10" stroke-linecap="round" stroke-linejoin="round"/>
<path d="M14.154 21.936H10.8V24.27H14.154V21.936Z" stroke="#235347" stroke-width="1.5" stroke-miterlimit="10" stroke-linecap="round" stroke-linejoin="round"/>
<path d="M17.5081 21.936H14.1541V24.27H17.5081V21.936Z" stroke="#235347" stroke-width="1.5" stroke-miterlimit="10" stroke-linecap="round" stroke-linejoin="round"/>
<path d="M20.8621 21.936H17.5081V24.27H20.8621V21.936Z" stroke="#235347" stroke-width="1.5" stroke-miterlimit="10" stroke-linecap="round" stroke-linejoin="round"/>
<path d="M40.9021 24.7319V39.8699" stroke="#235347" stroke-width="1.5" stroke-miterlimit="10" stroke-linecap="round" stroke-linejoin="round"/>
<path d="M10.8 24.2759V39.4139" stroke="#235347" stroke-width="1.5" stroke-miterlimit="10" stroke-linecap="round" stroke-linejoin="round"/>
<path d="M24.144 21.936H20.79V24.27H24.144V21.936Z" stroke="#235347" stroke-width="1.5" stroke-miterlimit="10" stroke-linecap="round" stroke-linejoin="round"/>
<path d="M27.498 21.936H24.144V24.27H27.498V21.936Z" stroke="#235347" stroke-width="1.5" stroke-miterlimit="10" stroke-linecap="round" stroke-linejoin="round"/>
<path d="M30.8459 21.936H27.4919V24.27H30.8459V21.936Z" stroke="#235347" stroke-width="1.5" stroke-miterlimit="10" stroke-linecap="round" stroke-linejoin="round"/>
<path d="M34.1999 21.936H30.8459V24.27H34.1999V21.936Z" stroke="#235347" stroke-width="1.5" stroke-miterlimit="10" stroke-linecap="round" stroke-linejoin="round"/>
<path d="M37.554 21.936H34.2V24.27H37.554V21.936Z" stroke="#235347" stroke-width="1.5" stroke-miterlimit="10" stroke-linecap="round" stroke-linejoin="round"/>
<path d="M40.908 21.936H37.554V24.27H40.908V21.936Z" stroke="#235347" stroke-width="1.5" stroke-miterlimit="10" stroke-linecap="round" stroke-linejoin="round"/>
<path d="M30.1619 27.7677C30.8039 27.8577 31.2839 28.4097 31.2839 29.0577V29.9157C31.2839 36.3297 27.3839 38.0577 26.1239 38.4537C25.8719 38.5317 25.6019 38.5317 25.3499 38.4537C24.0899 38.0637 20.1899 36.3297 20.1899 29.9157V29.0637C20.1899 28.4157 20.6699 27.8577 21.3119 27.7737C23.0099 27.5517 24.2579 26.8557 24.9899 26.3337C25.4399 26.0097 26.0399 26.0037 26.4959 26.3217C27.2399 26.8377 28.5059 27.5337 30.1619 27.7677Z" fill="#DAF1DE" stroke="#235347" stroke-width="1.5" stroke-miterlimit="10" stroke-linecap="round" stroke-linejoin="round"/>
<path d="M25.71 32.8555C25.9287 32.8555 26.106 32.6782 26.106 32.4595C26.106 32.2408 25.9287 32.0635 25.71 32.0635C25.4913 32.0635 25.314 32.2408 25.314 32.4595C25.314 32.6782 25.4913 32.8555 25.71 32.8555Z" fill="#DAF1DE" stroke="#235347" stroke-width="1.5" stroke-miterlimit="10" stroke-linecap="round" stroke-linejoin="round"/>
<path d="M27.396 31.0857H24.072V30.4857C24.072 29.5677 24.816 28.8237 25.734 28.8237C26.652 28.8237 27.396 29.5677 27.396 30.4857V31.0857Z" stroke="#235347" stroke-width="1.5" stroke-miterlimit="10" stroke-linecap="round" stroke-linejoin="round"/>
<path d="M25.734 34.9136C24.534 34.9136 23.562 33.9416 23.562 32.7416V32.0036C23.562 31.4936 23.976 31.0796 24.486 31.0796H26.976C27.486 31.0796 27.9 31.4936 27.9 32.0036V32.7416C27.906 33.9476 26.934 34.9136 25.734 34.9136Z" stroke="#235347" stroke-width="1.5" stroke-miterlimit="10" stroke-linecap="round" stroke-linejoin="round"/>
<path d="M25.71 32.8618V33.7438" stroke="#235347" stroke-width="1.5" stroke-miterlimit="10" stroke-linecap="round" stroke-linejoin="round"/>
</svg>
