<svg width="48" height="48" viewBox="0 0 48 48" fill="none" xmlns="http://www.w3.org/2000/svg">
<g clip-path="url(#clip0_2766_22996)">
<path fill-rule="evenodd" clip-rule="evenodd" d="M34.9028 41.5791H43.6528C44.7574 41.5791 45.6528 40.6837 45.6528 39.5791V7.5791C45.6528 6.47453 44.7574 5.5791 43.6528 5.5791H24.9028V7.0791H43.6528C43.929 7.0791 44.1528 7.30296 44.1528 7.5791V39.5791C44.1528 39.8552 43.929 40.0791 43.6528 40.0791H34.9028V41.5791Z" fill="#235347"/>
<path d="M30.9028 14.8291H32.9653" stroke="#235347" stroke-width="2" stroke-linecap="round" stroke-linejoin="round"/>
<path d="M29.9028 10.8291H32.9653" stroke="#235347" stroke-width="2" stroke-linecap="round" stroke-linejoin="round"/>
<mask id="path-4-inside-1_2766_22996" fill="white">
<rect x="35.9028" y="9.5791" width="6" height="6" rx="1"/>
</mask>
<rect x="35.9028" y="9.5791" width="6" height="6" rx="1" stroke="#235347" stroke-width="3" mask="url(#path-4-inside-1_2766_22996)"/>
<path d="M30.9028 22.8291H32.9653" stroke="#235347" stroke-width="2" stroke-linecap="round" stroke-linejoin="round"/>
<path d="M29.9028 18.8291H32.9653" stroke="#235347" stroke-width="2" stroke-linecap="round" stroke-linejoin="round"/>
<mask id="path-7-inside-2_2766_22996" fill="white">
<rect x="35.9028" y="17.5791" width="6" height="6" rx="1"/>
</mask>
<rect x="35.9028" y="17.5791" width="6" height="6" rx="1" stroke="#235347" stroke-width="3" mask="url(#path-7-inside-2_2766_22996)"/>
<path d="M30.9028 30.8291H32.9653" stroke="#235347" stroke-width="2" stroke-linecap="round" stroke-linejoin="round"/>
<path d="M29.9028 26.8291H32.9653" stroke="#235347" stroke-width="2" stroke-linecap="round" stroke-linejoin="round"/>
<mask id="path-10-inside-3_2766_22996" fill="white">
<rect x="35.9028" y="25.5791" width="6" height="6" rx="1"/>
</mask>
<rect x="35.9028" y="25.5791" width="6" height="6" rx="1" stroke="#235347" stroke-width="3" mask="url(#path-10-inside-3_2766_22996)"/>
<mask id="mask0_2766_22996" style="mask-type:alpha" maskUnits="userSpaceOnUse" x="2" y="5" width="28" height="38">
<path d="M28 5H4C2.89543 5 2 5.89543 2 7V40.7082C2 41.8128 2.89543 42.7082 4 42.7082H28C29.1046 42.7082 30 41.8128 30 40.7082V7C30 5.89543 29.1046 5 28 5Z" fill="#12701B"/>
</mask>
<g mask="url(#mask0_2766_22996)">
<path d="M12.1383 30.0371L12.1382 34.9746C12.1382 36.1178 13.0948 37.0285 14.2367 36.9722L18.73 36.7508C19.7305 36.7014 20.5102 35.9183 20.5132 34.9166C20.519 32.914 20.4773 30.0371 20.4773 30.0371" stroke="#235347" stroke-width="0.97"/>
<path d="M32.7883 45.9127C32.7883 45.9127 38.8158 52.1341 40.9428 51.2093C46.3518 48.8569 50.817 44.072 52.6887 41.9122C52.9163 41.6495 53.0697 41.3308 53.1256 40.9878C53.163 40.7585 53.1998 40.507 53.2335 40.2308C53.2848 39.7992 53.2592 39.3626 53.1618 38.9413C53.0439 38.4276 52.8645 37.7443 52.6544 37.4001C52.393 36.9737 52.7723 36.46 53.1874 36.6346C53.5908 36.8043 54.5553 37.8711 54.8073 39.3875C54.8221 39.4767 54.8377 39.5668 54.8807 39.6463C54.9755 39.8214 55.2136 40.1011 55.7245 39.9328C56.7701 39.5886 60.3219 38.2067 60.9575 38.0577C61.5213 37.9292 62.1927 37.9601 61.8186 38.3711V38.3711C61.787 38.4057 61.9671 38.7248 62.0124 38.7127C62.2623 38.6462 62.4402 38.6451 62.4951 38.7461C62.5235 38.797 62.5325 38.8578 62.5198 38.9282C62.4809 39.1439 62.6618 39.3987 62.8795 39.4242V39.4242C63.1679 39.4571 63.1403 39.6288 62.9447 39.863C62.9338 39.876 63.0986 40.3621 63.1102 40.3746V40.3746C63.3049 40.5801 62.8898 41.0579 61.7212 42.0134C60.8089 42.7598 60.0105 43.7012 58.7234 44.8924C58.6212 44.9869 58.5365 45.0798 58.454 45.1919C57.0862 47.0498 43.834 64.5955 35.3305 58.8126C30.4973 55.5247 29.1647 53.8653 26.4175 51.3737" fill="#FCDEBE"/>
<path d="M21.7925 36.5921L21.795 36.5924C23.7007 36.8156 24.9703 37.1241 26.0946 37.6891C27.2194 38.2543 28.2342 39.0937 29.6033 40.4423L38.6588 50.5716C39.0622 51.0228 39.1583 51.6708 38.9033 52.2197L36.5393 57.3076C36.1228 58.2038 34.9736 58.4678 34.2077 57.8431L33.123 56.9583C31.4466 55.5908 28.9445 56.8701 29.0716 59.0299L29.7966 71.3539C29.8479 72.2258 29.1532 72.9604 28.2798 72.9578L7.95537 72.8983C7.09143 72.8957 6.40452 72.1724 6.44661 71.3095L6.73926 65.3094L6.74026 65.2889L6.73952 65.2684L6.58351 60.931C6.49556 58.4859 3.29895 57.6263 1.99647 59.6975L0.282297 62.4235C-0.207565 63.2025 -1.27309 63.3685 -1.97667 62.7753L-6.0001 59.3836C-6.53886 58.9295 -6.69336 58.1638 -6.37288 57.5363L1.10826 42.8868C1.17862 42.7491 1.23221 42.6103 1.27604 42.478C2.02184 40.2261 4.48126 37.772 7.90358 37.1163C8.3072 37.04 8.71259 36.9386 9.108 36.8397C9.25198 36.8037 9.39464 36.768 9.5354 36.734C10.0738 36.6039 10.6113 36.4907 11.1857 36.4412C11.3389 36.428 11.5058 36.4494 11.6845 36.5006C14.4791 37.3008 17.2794 37.3137 20.0754 36.5306C20.2939 36.4694 20.5186 36.4491 20.7371 36.473C20.7925 36.4791 20.8495 36.4853 20.9083 36.4917C21.1679 36.5198 21.4613 36.5516 21.7925 36.5921Z" fill="#24663F" stroke="#235347" stroke-width="0.97"/>
<g opacity="0.3">
<path opacity="0.3" d="M9.00194 73.444C8.96606 73.444 8.94043 65.1421 8.94043 54.9084C8.94043 44.6697 8.96606 36.3677 9.00194 36.3677C9.03782 36.3677 9.06345 44.6645 9.06345 54.9084C9.06345 65.1421 9.0327 73.444 9.00194 73.444Z" fill="white"/>
</g>
<g opacity="0.3">
<path opacity="0.3" d="M23.2306 73.3513C23.2306 73.3687 23.2205 73.3687 23.2204 73.3513C23.2204 73.3496 23.2204 73.3479 23.2204 73.3461C23.2204 73.2742 23.2153 73.1817 23.2153 73.0636C23.2101 72.8067 23.2101 72.4471 23.205 71.9796C23.1999 71.0343 23.1845 69.6729 23.1743 67.9981C23.1435 64.628 23.1025 59.9839 23.0564 54.8568C23.0102 49.7245 22.9795 45.0752 22.9744 41.7103C22.9795 40.0355 22.9795 38.6741 22.9846 37.7288C22.9897 37.2613 22.9949 36.9017 22.9949 36.6448C22.9949 36.5267 23 36.4342 23 36.3623V36.3623C23 36.345 23.0102 36.345 23.0102 36.3623V36.3623C23.0102 36.4342 23.0154 36.5267 23.0154 36.6448C23.0205 36.9017 23.0205 37.2613 23.0256 37.7288C23.0307 38.6741 23.0461 40.0355 23.0564 41.7103C23.0871 45.0804 23.1281 49.7245 23.1743 54.8568C23.2204 59.989 23.2511 64.6383 23.2563 67.9981C23.2511 69.6729 23.2511 71.0343 23.246 71.9847C23.2409 72.4522 23.2358 72.8118 23.2358 73.0687C23.2358 73.1869 23.2306 73.2793 23.2306 73.3513V73.3513Z" fill="white"/>
</g>
<path d="M10.5762 36.2648L10.9103 35.5607C11.4425 34.4393 12.8568 34.0684 13.8707 34.7843L15.2409 35.7517C15.9194 36.2307 16.8232 36.2406 17.5119 35.7766L19.4836 34.4483C20.1716 33.9848 21.1072 34.1872 21.542 34.8938V34.8938C21.9569 35.568 21.7587 36.4499 21.0953 36.8818L18.3979 38.638C18.0732 38.8494 17.6941 38.9619 17.3067 38.9619H15.4679C15.1368 38.9619 14.8109 38.8797 14.5194 38.7227L10.5762 36.5987" fill="#24663F"/>
<path d="M16.3674 36.5474C16.3674 36.5525 16.3367 36.5576 16.2854 36.5731C16.2642 36.5794 16.2369 36.5832 16.2056 36.5886C16.1018 36.6067 16.0023 36.6473 15.9102 36.6985C15.7432 36.7912 15.5548 36.9582 15.3936 37.1947C15.1783 37.5029 14.9887 37.919 14.7837 38.3865C14.6812 38.6177 14.5735 38.8694 14.4403 39.116C14.307 39.3626 14.1584 39.6246 13.9277 39.8353L13.9249 39.8378C13.9006 39.8594 13.8636 39.8583 13.8406 39.8353V39.8353C13.7586 39.7531 13.6766 39.6606 13.5894 39.5733C12.7079 38.6485 11.9647 37.7701 11.4419 37.1176C11.1805 36.794 10.9755 36.5217 10.8371 36.3367C10.6987 36.1467 10.627 36.0439 10.6321 36.0388C10.6372 36.0336 10.7244 36.1312 10.873 36.311C11.037 36.5063 11.2523 36.7631 11.5085 37.0662C12.0467 37.7033 12.8001 38.5715 13.6766 39.4911C13.7522 39.5713 13.824 39.6477 13.8953 39.7203C13.9066 39.7318 13.8978 39.7513 13.8816 39.7504V39.7504C13.8662 39.7495 13.8593 39.7304 13.8704 39.7195C14.0649 39.5291 14.2055 39.2946 14.3275 39.0647C14.4608 38.8232 14.5684 38.5766 14.6709 38.3454C14.881 37.8831 15.0809 37.4618 15.3116 37.1536C15.4733 36.9288 15.6615 36.7674 15.8344 36.6752C15.9575 36.6096 16.094 36.5633 16.2335 36.5595C16.2472 36.5591 16.2595 36.5587 16.27 36.5576C16.3367 36.5422 16.3674 36.5422 16.3674 36.5474Z" fill="#235347"/>
<path d="M22.2055 36.1569C22.2106 36.1621 22.1337 36.2648 21.9902 36.4446C21.8416 36.6193 21.6212 36.8762 21.3342 37.1741C20.7653 37.7701 19.9196 38.551 18.8894 39.2805C18.6946 39.4192 18.505 39.5476 18.3204 39.6709V39.6709C18.2809 39.6965 18.2277 39.6716 18.2231 39.6247V39.6247C18.1769 39.0904 18.0232 38.592 17.8643 38.1605C17.6951 37.729 17.4953 37.3694 17.2749 37.1074C17.0545 36.8453 16.8238 36.6861 16.6444 36.6296C16.4702 36.5679 16.3625 36.5628 16.3625 36.5525C16.3625 36.5474 16.3882 36.5474 16.4394 36.5525C16.4907 36.5628 16.5676 36.5525 16.6598 36.5885C16.8495 36.6347 17.1006 36.7888 17.3364 37.0508C17.5721 37.3128 17.7874 37.6827 17.9617 38.1194C18.1255 38.5423 18.2797 39.0231 18.3404 39.5616C18.343 39.5845 18.3192 39.6009 18.2987 39.5906V39.5906C18.2787 39.5806 18.2769 39.5527 18.2955 39.5403C18.4668 39.4255 18.6422 39.3064 18.8176 39.1828C19.8427 38.4585 20.6884 37.693 21.2727 37.1176C21.5648 36.8299 21.7955 36.5833 21.9544 36.4189C22.1132 36.2443 22.2004 36.1518 22.2055 36.1569Z" fill="#235347"/>
<path d="M18.0631 73.3527C18.0592 73.406 18.0482 73.405 18.0482 73.3515V73.3515C18.0482 73.2847 18.0431 73.1922 18.0431 73.0741C18.038 72.8224 18.0329 72.4627 18.0277 72.0055C18.0175 71.0705 18.0021 69.7245 17.9816 68.0703C17.9355 64.7464 17.8279 60.1536 17.5972 55.0882C17.3614 50.0176 17.0488 45.4351 16.7925 42.1215C16.6593 40.4672 16.5516 39.1315 16.4799 38.1965C16.444 37.7393 16.4133 37.3797 16.3979 37.128C16.3876 37.0098 16.3825 36.9173 16.3774 36.8505C16.3772 36.849 16.3771 36.8474 16.377 36.8459C16.3738 36.8069 16.3863 36.8067 16.3928 36.8454V36.8454C16.3979 36.9122 16.4133 37.0047 16.4235 37.1228C16.4491 37.3746 16.485 37.729 16.5311 38.1863C16.6234 39.111 16.7464 40.4518 16.8848 42.1061C17.1616 45.4197 17.4896 50.0022 17.7253 55.0728C17.956 60.1433 18.0482 64.7361 18.0739 68.06C18.0893 69.7245 18.0892 71.0705 18.079 72.0004C18.0739 72.4576 18.0739 72.8172 18.0687 73.0689C18.0687 73.1871 18.0636 73.2796 18.0636 73.3464C18.0635 73.3485 18.0633 73.3506 18.0631 73.3527Z" fill="#1A2E35"/>
<g opacity="0.2">
<path opacity="0.2" d="M17.6692 37.6146C17.3753 37.1067 17.0032 37.5944 17.0032 38.1812V38.1812C17.0032 38.8028 16.8597 39.4193 16.9109 40.0358C16.9366 40.3594 17.0442 40.7088 17.321 40.8783C17.6951 41.1044 18.1769 40.8937 18.5613 40.6831C19.3916 40.2259 20.2271 39.7635 20.9036 39.1008C20.9235 39.0813 20.9431 39.0616 20.9624 39.0416C21.647 38.3322 20.602 37.7688 19.8177 38.3662V38.3662C19.1456 38.8782 18.1356 38.4392 17.7203 37.7033C17.7086 37.6827 17.6968 37.6622 17.6849 37.6418C17.6797 37.6327 17.6745 37.6237 17.6692 37.6146Z" fill="black"/>
</g>
<g opacity="0.2">
<path opacity="0.2" d="M12.1853 37.9653C12.6056 38.7924 13.0464 39.6452 13.7742 40.2206C14.0971 40.4775 14.5635 40.6676 14.9018 40.4312C15.1683 40.2412 15.2144 39.8661 15.24 39.5373C15.2408 39.5255 15.2417 39.5136 15.2426 39.5016C15.3052 38.6481 14.7346 38.4198 14.3218 39.1694V39.1694C14.0984 39.575 13.5653 39.6825 13.254 39.3397C12.8792 38.9271 12.581 38.433 12.2366 37.9807" fill="#24663F"/>
</g>
<g opacity="0.2">
<path opacity="0.2" d="M15.5476 39.7476C14.6711 46.7498 14.1022 53.788 13.8357 60.8416C13.7947 61.9461 13.764 63.0815 14.1586 64.1141C14.6148 65.3162 15.5886 66.2358 16.5265 67.1092C16.9263 67.479 17.4747 67.8798 17.9668 67.6486C18.1615 67.5561 18.2999 67.3866 18.4281 67.217C19.0226 66.4464 19.5813 65.6193 19.7965 64.674C20.4833 61.7046 17.69 58.7661 18.3204 55.7864" fill="black"/>
</g>
<path d="M14.9819 38.0005C15.1912 37.5775 15.6178 37.3054 16.0896 37.2938L16.6658 37.2798C17.1283 37.2685 17.5612 37.5366 17.7658 37.9515V37.9515C17.908 38.2397 17.9217 38.5622 17.8142 38.8651L17.6209 39.4093C17.4351 39.9325 16.94 40.282 16.3849 40.282V40.282C15.9011 40.282 15.4566 40.0157 15.2284 39.5892L15.0005 39.1633C14.8068 38.8015 14.7999 38.3683 14.9819 38.0005V38.0005Z" fill="#313131"/>
<path d="M16.4882 40.2822C15.9912 40.2822 15.5828 40.6743 15.5625 41.1708L14.6485 63.531C14.6269 64.0593 14.8154 64.5747 15.1727 64.9644L15.7875 65.6348C16.6513 66.5768 18.1649 66.478 18.8989 65.4317L19.6649 64.3398C19.9477 63.9366 20.0718 63.4434 20.0135 62.9544L17.4081 41.099C17.3525 40.6331 16.9574 40.2822 16.4882 40.2822V40.2822Z" fill="#313131"/>
<path d="M17.2081 40.3125C17.2029 40.3485 16.8493 40.3177 16.4136 40.3125C15.978 40.3023 15.6243 40.3228 15.6192 40.2868C15.6141 40.256 15.9677 40.1841 16.4136 40.1892C16.8647 40.1944 17.2132 40.2817 17.2081 40.3125Z" fill="#3F3F3F"/>
<path d="M17.6641 37.662C17.6744 37.6723 17.5821 37.8162 17.3976 38.0268C17.2131 38.2374 16.9414 38.5097 16.6083 38.7768C16.2751 39.0389 15.9471 39.2443 15.7011 39.3728C15.4551 39.5012 15.2911 39.5629 15.2859 39.5475C15.2706 39.5115 15.8753 39.1981 16.5314 38.6792C17.1875 38.1604 17.6334 37.6364 17.6641 37.662Z" fill="#3F3F3F"/>
<path d="M17.5721 42.6299C17.5978 42.6556 17.1365 43.1488 16.5471 43.7345C15.9576 44.3201 15.4554 44.7774 15.4349 44.7517C15.4092 44.726 15.8705 44.2328 16.4599 43.6471C17.0493 43.0615 17.5465 42.6043 17.5721 42.6299Z" fill="#3F3F3F"/>
<path d="M17.3565 41.0168C17.3821 41.0425 16.9721 41.4843 16.4493 42.0083C15.9214 42.5323 15.4755 42.933 15.455 42.9125C15.4294 42.8868 15.8394 42.445 16.3622 41.921C16.8901 41.3969 17.336 40.9911 17.3565 41.0168Z" fill="#EBEBEB"/>
<g opacity="0.5">
<path opacity="0.5" d="M13.6514 34.7542C13.6822 34.7748 13.3183 35.3861 12.8416 36.1259C12.365 36.8657 11.9601 37.4513 11.9293 37.4308C11.8986 37.4102 12.2625 36.7989 12.7391 36.0591C13.2158 35.3245 13.6207 34.7388 13.6514 34.7542Z" fill="#EBEBEB"/>
</g>
<g opacity="0.5">
<path opacity="0.5" d="M20.7088 37.5237C20.678 37.5391 20.3551 36.9072 19.9912 36.116C19.6273 35.3249 19.3557 34.6724 19.3864 34.657C19.4172 34.6416 19.7401 35.2735 20.104 36.0647C20.4679 36.8558 20.7395 37.5083 20.7088 37.5237Z" fill="#EBEBEB"/>
</g>
<path d="M9.28257 22.7483C9.25191 21.9949 8.75028 21.2881 8.01743 21.4657C7.47125 21.5981 6.95523 22.0187 6.99264 23.1437C7.0644 25.4555 9.36569 24.9007 9.36569 24.8339C9.36569 24.7979 9.32036 23.6767 9.28257 22.7483Z" stroke="#235347" stroke-width="0.97"/>
<path d="M23.0926 22.7483C23.1233 21.9949 23.6249 21.2881 24.3578 21.4657C24.904 21.5981 25.42 22.0187 25.3826 23.1437C25.3108 25.4555 23.0095 24.9007 23.0095 24.8339C23.0095 24.7979 23.0549 23.6767 23.0926 22.7483Z" stroke="#235347" stroke-width="0.97"/>
<path d="M8.848 17.1115C8.84039 17.1721 8.83829 17.2272 8.83891 17.2883C8.84629 18.0157 8.91583 23.0409 9.44293 25.1114C10.017 27.3462 11.0831 32.3346 16.7056 32.3346C22.2154 32.3346 22.8817 26.6013 23.2251 23.1079C23.5685 19.6093 23.3379 10.958 16.3622 10.8398C9.87336 10.7346 8.94528 16.3367 8.848 17.1115Z" fill="white" stroke="#235347" stroke-width="0.97"/>
<path d="M24.3168 15.6533C24.327 14.5487 24.6192 13.2644 24.0708 12.5092C24.0366 12.462 24.0012 12.4176 23.9647 12.3755C23.7908 12.1744 23.8029 11.8672 23.958 11.6513V11.6513C24.3065 11.1889 24.3783 10.5313 24.0605 10.0484V10.0484C23.7626 9.60758 22.4916 8.37392 22.0886 8.02646C22.0797 8.01878 22.0707 8.0112 22.0616 8.00373C21.5798 7.60302 20.9033 7.46945 20.2626 7.50541C19.9269 7.5256 19.5978 7.58765 19.2739 7.66993C18.9614 7.7493 18.632 7.65123 18.3639 7.47215V7.47215C18.2532 7.39817 18.1569 7.30586 18.0689 7.20585C17.9197 7.03625 17.7292 6.89513 17.5205 6.79645C17.0541 6.57555 16.5108 6.53959 15.9931 6.59096C15.0039 6.68857 14.0557 7.09442 13.3279 7.72632C12.8615 8.13217 12.4617 8.64591 11.8672 8.8514C11.6571 8.92332 11.4367 8.95415 11.2111 8.96956C11.1138 8.9747 11.0113 8.97983 10.9139 8.98497C10.6832 8.99525 10.4577 9.00552 10.2322 9.04662C9.36088 9.20588 8.64845 9.86346 8.31017 10.6341C8.01242 11.3136 7.98078 12.0711 8.09817 12.8003C8.12593 12.9727 8.14382 13.1475 8.12266 13.3209C8.06517 13.7918 7.93218 14.258 7.82839 14.7131C7.71563 15.232 7.92577 15.643 7.87964 16.1773C7.85402 16.4958 7.97702 17.1739 7.9719 17.4924C7.96677 17.7853 7.99753 17.9856 8.10516 18.6484C8.20767 19.2597 8.15641 19.1775 8.3358 19.7734C8.42293 20.0714 8.44856 20.3848 8.47931 20.6879C8.51007 20.9653 8.54082 21.2479 8.5767 21.5304C8.59207 21.6588 8.61257 21.7821 8.63308 21.9106C8.6792 22.1829 8.69458 22.4603 8.86884 22.6812C9.03285 22.8918 9.26863 22.9586 9.44289 22.7223C9.61203 22.4962 9.61202 22.1931 9.61202 21.9157C9.60177 21.2376 9.44801 20.5235 9.69403 19.8762C9.80166 19.5885 9.97593 19.3419 10.1297 19.085C10.2014 18.9669 10.2783 18.8744 10.3347 18.746C10.3911 18.6021 10.4423 18.4583 10.509 18.3196C10.7755 17.7956 10.878 17.2253 10.9241 16.6294C10.9498 16.2903 10.8575 15.9615 10.8882 15.6173C10.9139 15.345 10.96 15.0727 11.0369 14.8056C11.1496 14.4254 11.3547 14.071 11.6468 13.8295C11.9748 13.5572 12.3695 13.5315 12.7641 13.5007C13.1434 13.475 13.5022 13.4904 13.8763 13.5778C14.64 13.7524 15.3883 14.0915 16.1777 14.1069C16.4852 14.1121 16.7978 14.0607 17.0797 13.9323C17.9818 13.5264 18.9351 13.4545 19.9038 13.5161C20.0422 13.5264 20.1345 13.5161 20.278 13.5264C20.8776 13.5726 21.5337 13.8346 21.8515 14.4203C22.2 15.0625 22.1539 15.7714 22.1539 16.4752C22.1539 16.9273 22.1795 17.3435 22.2769 17.7904C22.364 18.1911 22.4973 18.6227 22.7125 18.9617C23.1277 19.6193 23.2507 20.4824 23.2712 21.2581C23.2763 21.4945 23.1994 22.7685 23.6043 22.7017C23.7273 22.6812 23.8145 22.5116 23.8504 22.4038C23.8914 22.2753 23.9067 22.1469 23.917 22.0133C23.9272 21.8438 23.9426 21.6177 23.9324 21.4482C23.9272 21.3968 23.9272 21.3455 23.9272 21.2941C23.8965 20.5903 24.0964 19.9378 24.1938 19.2392C24.2706 18.6997 24.286 18.5096 24.3168 18.2117C24.368 17.6979 24.3321 17.477 24.3168 17.0095C24.3065 16.5369 24.3116 16.1156 24.3168 15.6533Z" fill="#24663F" stroke="#235347" stroke-width="0.97"/>
<path d="M20.2985 21.1043C20.3447 21.3406 20.2678 21.5923 20.1396 21.7875C19.9961 22.0033 19.6784 22.0341 19.4426 21.9673C18.9147 21.8235 18.7609 21.1967 19.1299 20.8012C19.3247 20.5905 19.663 20.4415 19.9346 20.5905C20.1038 20.683 20.2626 20.9193 20.2985 21.1043Z" fill="#235347"/>
<path d="M14.0246 21.0579C14.0707 21.2942 13.9939 21.5459 13.8657 21.7411C13.7222 21.9569 13.4044 21.9877 13.1687 21.921C12.6407 21.7771 12.487 21.1503 12.856 20.7548C13.0559 20.5441 13.3891 20.3952 13.6607 20.5441C13.8298 20.6315 13.9887 20.8729 14.0246 21.0579Z" fill="#235347"/>
<path d="M15.2091 26.9659C15.2911 26.8939 15.7472 27.4539 16.557 27.459C17.3668 27.4693 17.9101 26.9145 17.9819 26.9864C18.0178 27.0172 17.9358 27.2073 17.6897 27.4179C17.4488 27.6286 17.0183 27.8443 16.5263 27.8443C16.0342 27.8392 15.6396 27.6132 15.4346 27.3974C15.2142 27.1868 15.1681 26.9967 15.2091 26.9659Z" fill="#235347"/>
<path d="M20.7493 18.4068C20.6314 18.5609 20.1701 18.4017 19.6166 18.3914C19.063 18.3657 18.5915 18.4942 18.4839 18.3349C18.4378 18.2578 18.5095 18.1037 18.7145 17.9599C18.9144 17.816 19.2527 17.6979 19.6371 17.7081C20.0164 17.7184 20.3495 17.8571 20.5392 18.0164C20.7339 18.1756 20.8006 18.3349 20.7493 18.4068Z" fill="#235347"/>
<path d="M14.3326 18.6175C14.2557 18.6997 14.0866 18.6689 13.8662 18.6226C13.6406 18.5764 13.3587 18.525 13.041 18.5147C12.7232 18.5045 12.4362 18.5404 12.2107 18.5713C11.9851 18.6021 11.8109 18.6226 11.7443 18.5353C11.6776 18.4582 11.7443 18.263 11.9749 18.0729C12.2055 17.8829 12.6104 17.7236 13.0666 17.7339C13.5228 17.7493 13.9174 17.9342 14.1327 18.1397C14.3531 18.3504 14.4043 18.5456 14.3326 18.6175Z" fill="#235347"/>
<path d="M16.8537 24.6747C16.7615 24.6747 16.6743 24.6387 16.618 24.5719C16.577 24.5257 16.577 24.4538 16.6282 24.4127C16.6743 24.3716 16.7461 24.3716 16.7871 24.4229C16.8025 24.4383 16.823 24.4486 16.8537 24.4486C16.905 24.4486 16.9562 24.4229 16.9921 24.387C17.0639 24.3048 17.0844 24.1712 17.0997 24.053C17.2022 23.1437 17.0639 22.219 16.6948 21.3816C16.6692 21.3251 16.6948 21.2583 16.7512 21.2326C16.8076 21.2069 16.8742 21.2326 16.8999 21.2891C17.2843 22.1625 17.4329 23.1283 17.3253 24.0787C17.3048 24.2431 17.274 24.4127 17.1613 24.536C17.0895 24.6182 16.9716 24.6747 16.8537 24.6747C16.8588 24.6747 16.8588 24.6747 16.8537 24.6747Z" fill="#235347"/>
<path d="M17.8178 12.3706C17.7922 12.3706 17.7666 12.3603 17.7461 12.3398C17.7051 12.3038 17.7051 12.237 17.7461 12.2011C18.4636 11.4716 18.7917 10.516 19.0223 9.6735C19.0377 9.62213 19.0889 9.5913 19.1453 9.60158C19.1966 9.61699 19.2273 9.66836 19.2171 9.72487C18.7968 11.2661 18.3099 11.9134 17.8896 12.3398C17.8691 12.3603 17.8435 12.3706 17.8178 12.3706Z" fill="#235347"/>
<path d="M20.8265 13.1462C20.7855 13.1462 20.7496 13.1205 20.7342 13.0794C20.7137 13.028 20.7445 12.9715 20.7957 12.951C21.3185 12.766 21.79 12.4938 22.1949 12.1393C22.2359 12.1033 22.2974 12.1085 22.3333 12.1496C22.3692 12.1907 22.3641 12.2523 22.3231 12.2883C21.8977 12.6582 21.4056 12.9458 20.8623 13.1359C20.8521 13.1411 20.8367 13.1462 20.8265 13.1462Z" fill="#235347"/>
<path d="M14.9528 12.1856C14.9118 12.1856 14.8708 12.1548 14.8657 12.1085C14.6607 11.081 14.1276 10.3002 13.3998 9.97137C13.3537 9.95083 13.3332 9.89431 13.3486 9.84294C13.3691 9.79157 13.4203 9.77102 13.4664 9.79157C14.2506 10.146 14.8195 10.9732 15.0399 12.0674C15.0492 12.1137 15.0252 12.1641 14.9829 12.1812C14.9746 12.1845 14.9617 12.1856 14.9528 12.1856V12.1856Z" fill="#235347"/>
<path d="M11.7196 12.9958C11.6876 12.9992 11.6546 12.9833 11.6368 12.9565V12.9565C11.2678 12.4274 10.8424 12.0883 10.3606 11.9547C10.3094 11.9393 10.2837 11.888 10.2991 11.8366C10.3145 11.7852 10.3657 11.7544 10.417 11.7647C10.9347 11.9136 11.3959 12.2733 11.7855 12.8384C11.8162 12.8795 11.806 12.9411 11.765 12.9771C11.7518 12.9876 11.736 12.9941 11.7196 12.9958Z" fill="#235347"/>
</g>
</g>
<defs>
<clipPath id="clip0_2766_22996">
<rect width="43.9028" height="37.7082" fill="white" transform="translate(2 5)"/>
</clipPath>
</defs>
</svg>
