<svg width="16" height="20" viewBox="0 0 16 20" fill="none" xmlns="http://www.w3.org/2000/svg">
<g clip-path="url(#clip0_47_30304)">
<path fill-rule="evenodd" clip-rule="evenodd" d="M6.87796 2.46572L5.67274 3.66988C5.57542 3.76724 5.44349 3.82208 5.30583 3.8224H3.40946C2.53274 3.8224 1.8224 4.53274 1.8224 5.40946V7.30583C1.82213 7.44381 1.7673 7.57609 1.66988 7.6738L0.464653 8.87796C0.167136 9.17558 0 9.57918 0 10C0 10.4208 0.167136 10.8244 0.464653 11.122L1.66988 12.3273C1.76724 12.4246 1.82208 12.5565 1.8224 12.6942V14.5905C1.8224 15.4673 2.53274 16.1776 3.40946 16.1776H5.30583C5.44381 16.1779 5.57609 16.2327 5.6738 16.3301L6.87796 17.5353C7.17558 17.8329 7.57918 18 8 18C8.42082 18 8.82442 17.8329 9.12204 17.5353L10.3273 16.3301C10.4246 16.2328 10.5565 16.1779 10.6942 16.1776H12.5905C13.4673 16.1776 14.1776 15.4673 14.1776 14.5905V12.6942C14.1779 12.5562 14.2327 12.4239 14.3301 12.3262L15.5353 11.122C15.8329 10.8244 16 10.4208 16 10C16 9.57918 15.8329 9.17558 15.5353 8.87796L14.3301 7.67274C14.2328 7.57542 14.1779 7.44349 14.1776 7.30583V5.40946C14.1776 4.53274 13.4673 3.8224 12.5905 3.8224H10.6942C10.5561 3.82236 10.4238 3.7675 10.3262 3.66988L9.12204 2.46465C8.82442 2.16714 8.42082 2 8 2C7.57918 2 7.17558 2.1682 6.87796 2.46572Z" fill="#288C50"/>
<path d="M10.5 7.5L5.5 12.5" stroke="white" stroke-width="1.5" stroke-linecap="round" stroke-linejoin="round"/>
<path d="M5.5 8C5.77614 8 6 7.77614 6 7.5C6 7.22386 5.77614 7 5.5 7C5.22386 7 5 7.22386 5 7.5C5 7.77614 5.22386 8 5.5 8Z" stroke="white" stroke-linecap="round" stroke-linejoin="round"/>
<path d="M10.5 13C10.7761 13 11 12.7761 11 12.5C11 12.2239 10.7761 12 10.5 12C10.2239 12 10 12.2239 10 12.5C10 12.7761 10.2239 13 10.5 13Z" stroke="white" stroke-linecap="round" stroke-linejoin="round"/>
</g>
<defs>
<clipPath id="clip0_47_30304">
<rect width="16" height="16" fill="white" transform="translate(0 2)"/>
</clipPath>
</defs>
</svg>
