<svg width="63" height="62" viewBox="0 0 63 62" fill="none" xmlns="http://www.w3.org/2000/svg">
<g filter="url(#filter0_d_47_28916)">
<rect x="3.5" y="2" width="56" height="56" rx="28" fill="url(#paint0_linear_47_28916)"/>
</g>
<path d="M25.9 44.7V42.6C30.94 39.24 31.7333 31.8667 31.5 28.6C33.6 39.1 28 42.6 25.9 44.7Z" fill="white"/>
<path d="M28.7436 17.3842C28.7436 17.3842 23.1783 18.0507 19.8242 21.2354C16.3148 24.5698 16.1 27.73 16.1 27.73C16.1 27.73 17.8471 27.2116 19.4211 27.2145C20.9937 27.2167 22.5306 28.2043 22.5306 28.2043C22.5306 28.2043 21.7513 26.8852 20.2018 26.5321C19.0474 26.2684 17.8622 26.7495 17.8622 26.7495C17.8622 26.7495 18.8103 24.0829 20.3475 22.4218C22.2566 20.3579 23.2425 19.9593 24.4294 19.3308C25.9191 18.5421 28.7436 17.3842 28.7436 17.3842Z" fill="white"/>
<path d="M30.3209 17.9969C30.3209 17.9969 27.4395 18.5223 24.7501 22.5896C22.542 25.9297 22.8156 28.9934 22.8156 28.9934C22.8156 28.9934 25.2563 27.443 26.8654 27.1924C28.912 26.8734 30.8796 28.2187 30.8796 28.2187C30.8796 28.2187 29.7018 26.216 27.2496 26.1724C26.1511 26.1526 24.6507 26.8368 24.6507 26.8368C24.6507 26.8368 24.663 25.1697 25.9944 22.7876C27.4038 20.2654 30.3209 17.9969 30.3209 17.9969V17.9969Z" fill="white"/>
<path d="M31.6682 18.4472C31.6682 18.4472 32.1385 21.3343 32.0484 23.5097C31.9586 25.6853 31.7123 28.3459 31.7123 28.3459C31.7123 28.3459 32.8316 27.5951 34.6631 27.6007C36.956 27.6073 38.5421 28.5846 38.5421 28.5846C38.5421 28.5846 37.9355 26.7831 35.3859 26.3708C33.6765 26.0943 32.7629 26.586 32.7629 26.586C32.7629 26.586 33.1791 25.092 33.019 23.0879C32.8304 20.7274 31.6681 18.4472 31.6681 18.4472H31.6682Z" fill="white"/>
<path d="M33.392 18.2804C33.392 18.2804 35.641 20.0398 36.6614 21.4694C38.1787 23.5943 38.6839 26.1288 38.9519 27.3831C39.1784 28.4406 39.0657 28.7785 39.0657 28.7785C39.0657 28.7785 40.5427 27.4871 42.0879 27.1068C43.3265 26.8017 44.1773 26.8659 44.9481 27.0108C46.0527 27.2191 46.9 27.6227 46.9 27.6227C46.9 27.6227 46.546 24.728 44.2242 22.2452C42.1655 20.0439 40.8546 19.3863 38.4117 18.4984C36.4468 17.7845 34.4486 17.4412 34.4486 17.4412C34.4486 17.4412 37.1702 18.4251 39.0278 19.4356C40.7218 20.358 41.8003 21.2141 43.269 22.9365C45.0016 24.9668 45.0674 25.8285 45.0674 25.8285C45.0674 25.8285 43.5803 25.442 42.1182 25.8285C40.6554 26.2146 40.1858 26.8038 40.1858 26.8038C40.1858 26.8038 39.8965 25.2041 39.2845 23.682C38.7266 22.2929 37.791 20.9936 36.7255 20.2635C35.9778 19.7514 33.3921 18.2804 33.3921 18.2804L33.392 18.2804Z" fill="white"/>
<path d="M32.9341 16.5999C33.1085 17.0809 32.8369 17.6205 32.3276 17.8049C31.8181 17.9894 31.2636 17.7487 31.0898 17.2673C30.9156 16.7858 31.1873 16.246 31.6967 16.0615C31.8034 16.0228 31.9121 16.0029 32.0187 16H32.0765C32.4568 16.0112 32.803 16.2374 32.9342 16.5999H32.9341Z" fill="white"/>
<defs>
<filter id="filter0_d_47_28916" x="0.5" y="0" width="62" height="62" filterUnits="userSpaceOnUse" color-interpolation-filters="sRGB">
<feFlood flood-opacity="0" result="BackgroundImageFix"/>
<feColorMatrix in="SourceAlpha" type="matrix" values="0 0 0 0 0 0 0 0 0 0 0 0 0 0 0 0 0 0 127 0" result="hardAlpha"/>
<feOffset dy="1"/>
<feGaussianBlur stdDeviation="1.5"/>
<feColorMatrix type="matrix" values="0 0 0 0 0.231373 0 0 0 0 0.290196 0 0 0 0 0.454902 0 0 0 0.24 0"/>
<feBlend mode="normal" in2="BackgroundImageFix" result="effect1_dropShadow_47_28916"/>
<feBlend mode="normal" in="SourceGraphic" in2="effect1_dropShadow_47_28916" result="shape"/>
</filter>
<linearGradient id="paint0_linear_47_28916" x1="31.5" y1="2" x2="31.5" y2="58" gradientUnits="userSpaceOnUse">
<stop stop-color="#288C50"/>
<stop offset="1" stop-color="#24663F"/>
</linearGradient>
</defs>
</svg>
