<svg width="360" height="174" viewBox="0 0 360 174" fill="none" xmlns="http://www.w3.org/2000/svg">
<g opacity="0.7">
<path d="M107.632 74.81C107.632 74.81 92.3324 98.65 103.21 134.61C114.087 170.57 145.703 179.74 164.458 169.74C183.213 159.74 185.952 146.76 201.107 137.33C216.252 127.9 247.529 128.23 259.568 102.29C271.607 76.35 246.639 39.98 218.361 19.04C190.074 -1.91003 128.69 22.87 107.632 74.81Z" fill="#DAF1DE"/>
<path opacity="0.7" d="M107.632 74.81C107.632 74.81 92.3324 98.65 103.21 134.61C114.087 170.57 145.703 179.74 164.458 169.74C183.213 159.74 185.952 146.76 201.107 137.33C216.252 127.9 247.529 128.23 259.568 102.29C271.607 76.35 246.639 39.98 218.361 19.04C190.074 -1.91003 128.69 22.87 107.632 74.81Z" fill="#DAF1DE"/>
</g>
<g opacity="0.5">
<path d="M149.379 125.956L124.145 133.884L112.866 101.244L131.606 95.3632L140.256 99.5359L149.379 125.956Z" fill="#8EB69B"/>
<path d="M131.606 95.3632L140.256 99.5359L133.755 101.576L131.606 95.3632Z" fill="#7BA386"/>
<path d="M130.701 119.408L130.393 118.688C129.702 117.206 129.637 115.364 130.475 113.217C131.234 111.316 131.565 109.984 131.132 108.707C130.642 107.256 129.406 106.568 127.614 107.08C126.601 107.395 125.583 108.08 125.057 108.836L123.775 107.25C124.478 106.281 125.937 105.33 127.428 104.865C130.679 103.86 132.833 105.431 133.563 107.597C134.218 109.53 133.618 111.256 132.817 113.298C132.077 115.161 132.046 116.557 132.622 117.976L132.901 118.712L130.701 119.408ZM131.426 123.589C131.067 122.531 131.527 121.578 132.519 121.271C133.511 120.963 134.442 121.499 134.794 122.55C135.134 123.549 134.749 124.514 133.699 124.839C132.707 125.146 131.767 124.588 131.426 123.589Z" fill="#ACDCBA"/>
</g>
<path d="M239.494 61.39L207.994 57.47C206.658 57.3 206.019 55.65 206.861 54.53L225.578 29.66C226.371 28.6 227.949 28.79 228.481 30.01L241.255 58.8C241.845 60.09 240.839 61.56 239.494 61.39Z" fill="#221F1F"/>
<path d="M239.329 62.83L207.829 58.91C207.258 58.84 206.726 58.61 206.29 58.24C205.874 57.89 205.555 57.44 205.352 56.92C205.148 56.4 205.081 55.83 205.148 55.28C205.216 54.69 205.448 54.12 205.807 53.65L224.523 28.78C225.19 27.89 226.236 27.43 227.3 27.56H227.31C228.374 27.69 229.274 28.38 229.729 29.4L242.503 58.19C242.978 59.26 242.861 60.53 242.203 61.5C241.545 62.45 240.442 62.97 239.329 62.83ZM226.971 30.41C226.874 30.4 226.748 30.41 226.642 30.55L207.926 55.42C207.819 55.57 207.839 55.71 207.877 55.8C207.916 55.89 207.994 56.01 208.168 56.03L239.668 59.95C239.842 59.97 239.948 59.88 240.007 59.79C240.065 59.71 240.113 59.57 240.045 59.4L227.271 30.61C227.184 30.47 227.068 30.42 226.971 30.41Z" fill="#45CE7C"/>
<path d="M239.494 61.39L207.994 57.47C206.658 57.3 206.019 55.65 206.861 54.53L225.578 29.66C226.371 28.6 227.949 28.79 228.481 30.01L241.255 58.8C241.845 60.09 240.839 61.56 239.494 61.39Z" fill="#45CE7C"/>
<path d="M220.43 43.2988C220.031 42.5793 220.154 41.8941 220.685 41.4549C221.623 40.6623 222.628 41.5004 223.132 42.3067C223.664 43.0662 224.194 43.8504 224.808 44.6942C225.715 43.7732 226.599 43.0494 227.466 42.2738C227.935 41.9774 228.407 41.8561 228.995 42.1226C229.824 42.4913 230.119 43.5236 229.605 44.2144C229.493 44.4014 229.272 44.5262 229.14 44.686C228.168 45.5747 227.253 46.3698 226.412 47.3232C227.287 48.696 227.99 49.9743 228.845 51.12C229.293 51.82 229.243 52.4636 228.777 52.9351C228.24 53.4236 227.477 53.4869 226.852 52.9415C226.6 52.7382 226.336 52.4336 226.164 52.1394C225.637 51.3305 225.09 50.4944 224.458 49.5987C224.193 49.9182 223.956 50.191 223.719 50.4638C223.092 51.1418 222.502 51.8989 221.847 52.6237C221.427 53.1004 220.861 53.2361 220.245 53.0163C219.388 52.6944 219.028 51.8295 219.394 51.0221C219.53 50.8377 219.671 50.604 219.823 50.4714C220.851 49.2895 221.853 48.1296 222.909 46.9009C221.997 45.6489 221.068 44.5447 220.43 43.2988Z" fill="#24663F"/>
<path d="M239.426 61.99L207.926 58.07C207.094 57.97 206.397 57.41 206.087 56.59C205.768 55.77 205.894 54.86 206.416 54.16L225.132 29.29C225.636 28.63 226.4 28.29 227.194 28.38H227.203C227.987 28.48 228.665 28.99 229.003 29.75L241.778 58.54C242.136 59.35 242.058 60.27 241.555 61C241.061 61.72 240.268 62.1 239.426 61.99ZM227.068 29.58C226.661 29.53 226.274 29.7 226.023 30.04L207.307 54.9C207.045 55.25 206.978 55.71 207.142 56.12C207.307 56.53 207.645 56.81 208.071 56.87L239.571 60.79C239.997 60.84 240.394 60.66 240.645 60.29C240.897 59.92 240.936 59.46 240.761 59.05L227.987 30.26C227.803 29.88 227.474 29.63 227.068 29.58Z" fill="#24663F"/>
<path d="M230.621 147.097L219.62 104.277C219.263 102.853 217.895 101.857 216.318 101.857H193.936L181.547 121.647L169.178 101.857H146.44C144.862 101.857 143.474 102.872 143.116 104.316L132.514 147.136C132.031 149.107 133.65 151 135.838 151H227.319C229.507 151 231.126 149.087 230.621 147.097Z" fill="#C2DDC6"/>
<path d="M145.495 146.211C145.327 146.211 145.095 146.148 144.948 146.085C144.422 145.832 144.212 145.201 144.485 144.675C144.59 144.486 144.738 144.339 144.906 144.234C144.99 144.002 145.074 143.687 145.158 143.392C145.348 142.74 145.579 141.92 145.916 140.994C146.126 140.447 146.715 140.174 147.262 140.363C147.809 140.573 148.082 141.162 147.893 141.709C147.578 142.572 147.367 143.35 147.178 143.96C146.799 145.264 146.526 146.211 145.495 146.211ZM148.756 138.638C148.566 138.638 148.356 138.575 148.167 138.47C147.683 138.154 147.556 137.502 147.872 137.018C148.692 135.777 149.681 134.641 150.796 133.653C151.238 133.274 151.89 133.295 152.29 133.737C152.668 134.179 152.647 134.831 152.205 135.23C151.217 136.114 150.354 137.103 149.639 138.196C149.45 138.47 149.113 138.638 148.756 138.638ZM154.94 133.085C154.561 133.085 154.204 132.895 154.014 132.538C153.741 132.033 153.93 131.381 154.435 131.107C155.676 130.434 157.044 129.866 158.474 129.403C159.021 129.235 159.61 129.53 159.799 130.098C159.968 130.645 159.673 131.234 159.105 131.423C157.78 131.844 156.539 132.369 155.424 132.98C155.298 133.043 155.108 133.085 154.94 133.085ZM162.891 130.476C162.387 130.476 161.945 130.119 161.861 129.593C161.756 129.025 162.155 128.478 162.723 128.373C164.069 128.141 165.521 127.973 167.014 127.889C167.603 127.826 168.087 128.289 168.129 128.878C168.171 129.467 167.73 129.95 167.141 129.992C165.731 130.077 164.364 130.245 163.081 130.455C163.018 130.476 162.955 130.476 162.891 130.476ZM171.474 129.782C170.906 129.782 170.359 129.34 170.317 128.793C170.296 128.204 170.633 127.721 171.222 127.7L175.429 127.489C175.976 127.426 176.502 127.91 176.544 128.478C176.565 129.067 176.123 129.551 175.555 129.593L171.537 129.803C171.516 129.782 171.495 129.782 171.474 129.782ZM179.678 129.34C179.131 129.34 178.668 128.899 178.626 128.352C178.584 127.763 179.026 127.279 179.615 127.237C181.024 127.153 182.413 127.068 183.801 126.963C184.39 126.921 184.895 127.363 184.937 127.931C184.979 128.499 184.537 129.025 183.969 129.067C182.581 129.172 181.172 129.256 179.762 129.34C179.72 129.34 179.699 129.34 179.678 129.34ZM188.071 128.709C187.545 128.709 187.083 128.31 187.019 127.763C186.956 127.195 187.398 126.669 187.966 126.627C189.375 126.501 190.764 126.353 192.131 126.185C192.699 126.101 193.225 126.522 193.309 127.111C193.372 127.679 192.973 128.204 192.384 128.289C191.016 128.457 189.607 128.604 188.176 128.73C188.155 128.709 188.113 128.709 188.071 128.709ZM196.443 127.679C195.939 127.679 195.497 127.321 195.413 126.795C195.329 126.227 195.707 125.68 196.296 125.596C197.706 125.365 199.073 125.112 200.377 124.839C200.966 124.712 201.513 125.07 201.639 125.638C201.765 126.206 201.408 126.774 200.84 126.9C199.494 127.195 198.105 127.447 196.633 127.7C196.549 127.679 196.485 127.679 196.443 127.679ZM204.647 125.848C204.206 125.848 203.785 125.554 203.638 125.112C203.469 124.565 203.764 123.976 204.332 123.787C205.741 123.345 207.003 122.84 208.097 122.314C208.623 122.062 209.254 122.272 209.507 122.798C209.759 123.324 209.549 123.955 209.023 124.208C207.845 124.797 206.477 125.323 204.963 125.806C204.858 125.827 204.753 125.848 204.647 125.848ZM212.052 121.999C211.757 121.999 211.484 121.894 211.274 121.662C210.874 121.221 210.916 120.568 211.337 120.169C212.325 119.264 213.02 118.276 213.398 117.182C213.588 116.635 214.198 116.34 214.744 116.551C215.291 116.74 215.586 117.35 215.376 117.897C214.871 119.306 213.987 120.611 212.746 121.746C212.557 121.915 212.304 121.999 212.052 121.999Z" fill="#235347"/>
<path d="M232.844 147.038L221.805 104.602C221.214 102.32 218.998 100.714 216.423 100.714H195.211L192.762 104.583H216.444C217.056 104.583 217.584 104.97 217.711 105.492L228.749 147.928C228.876 148.412 228.644 148.779 228.496 148.953C228.348 149.127 228.032 149.417 227.462 149.417H135.669C135.12 149.417 134.803 149.127 134.656 148.973C134.508 148.818 134.276 148.45 134.402 147.967L145.04 105.531C145.167 104.989 145.695 104.602 146.307 104.602H170.284L167.835 100.734H146.328C143.732 100.734 141.515 102.358 140.946 104.66L130.287 147.077C129.907 148.586 130.287 150.152 131.342 151.371C132.397 152.589 133.98 153.286 135.669 153.286H227.462C229.171 153.286 230.733 152.589 231.789 151.352C232.865 150.133 233.245 148.566 232.844 147.038Z" fill="#235347"/>
<path d="M182.109 129.286L155.987 84.3147C150.501 74.8885 150.477 63.5966 155.937 54.1458C161.373 44.695 171.163 39.0245 182.084 39C182.109 39 182.134 39 182.134 39C193.08 39 202.845 44.6459 208.33 54.0967C213.815 63.5721 213.791 74.8639 208.281 84.3392L182.109 129.286ZM182.134 43.9095C182.109 43.9095 182.109 43.9095 182.084 43.9095C172.934 43.9341 164.743 48.6717 160.193 56.576C155.642 64.4803 155.642 73.9311 160.242 81.8354L182.109 119.516L204.025 81.8845C208.625 73.9556 208.65 64.5049 204.075 56.576C199.475 48.6472 191.284 43.9095 182.134 43.9095Z" fill="#235347"/>
<path d="M168 66.5436H196L182 58L168 66.5436Z" fill="#DAF1DE" stroke="#235347" stroke-width="1.2" stroke-miterlimit="10" stroke-linecap="round" stroke-linejoin="round"/>
<path d="M185.307 68.675H178.593V75.0462H185.307V68.675Z" stroke="#235347" stroke-width="1.2" stroke-miterlimit="10"/>
<path d="M181.044 68.8948V70.9118L181.982 70.2166L182.832 70.9118V68.8948H181.044Z" fill="#DAF1DE" stroke="#235347" stroke-width="1.2" stroke-miterlimit="10" stroke-linecap="round" stroke-linejoin="round"/>
<path d="M181.95 75.4348H175.236V81.8059H181.95V75.4348Z" stroke="#235347" stroke-width="1.2" stroke-miterlimit="10"/>
<path d="M177.687 75.6543V77.6759L178.625 76.9807L179.475 77.6759V75.6543H177.687Z" fill="#DAF1DE" stroke="#235347" stroke-width="1.2" stroke-miterlimit="10" stroke-linecap="round" stroke-linejoin="round"/>
<path d="M188.664 75.4348H181.95V81.8059H188.664V75.4348Z" stroke="#235347" stroke-width="1.2" stroke-miterlimit="10"/>
<path d="M184.402 75.6543V77.6759L185.339 76.9807L186.19 77.6759V75.6543H184.402Z" fill="#DAF1DE" stroke="#235347" stroke-width="1.2" stroke-miterlimit="10" stroke-linecap="round" stroke-linejoin="round"/>
<path d="M172.519 66.7083H170.214V82.0026H172.519V66.7083Z" stroke="#235347" stroke-width="1.2" stroke-miterlimit="10"/>
<path d="M168.352 82.0024H195.648" stroke="#235347" stroke-width="1.2" stroke-miterlimit="10" stroke-linecap="round" stroke-linejoin="round"/>
<path d="M193.7 66.7083H191.395V82.0026H193.7V66.7083Z" stroke="#235347" stroke-width="1.2" stroke-miterlimit="10"/>
</svg>
