<svg width="30" height="30" viewBox="0 0 30 30" fill="none" xmlns="http://www.w3.org/2000/svg">
<rect width="30" height="30" rx="15" fill="url(#paint0_linear_2601_87692)"/>
<path d="M11.0838 10.9395H10.1364V12.4178H11.0838V10.9395Z" stroke="#235347" stroke-width="0.6" stroke-miterlimit="10" stroke-linecap="round" stroke-linejoin="round"/>
<path d="M19.861 10.9314H18.9136V12.4097H19.861V10.9314Z" stroke="#235347" stroke-width="0.6" stroke-miterlimit="10" stroke-linecap="round" stroke-linejoin="round"/>
<path d="M20.5824 8.021H9.41479V10.9395H20.5824V8.021Z" fill="#DAF1DE" stroke="#235347" stroke-width="0.6" stroke-miterlimit="10" stroke-linecap="round" stroke-linejoin="round"/>
<path d="M13.7243 8.86548V9.95758H13.4583V9.30263L13.2141 9.95758H12.9994L12.7536 9.30107V9.95758H12.4875V8.86548H12.8018L13.1083 9.62155L13.4116 8.86548H13.7243Z" fill="#235347"/>
<path d="M14.1817 8.86548V9.95758H13.9156V8.86548H14.1817Z" fill="#235347"/>
<path d="M15.1601 8.86548V9.07861H14.8707V9.95758H14.6047V9.07861H14.3153V8.86548H15.1601Z" fill="#235347"/>
<path d="M15.8505 9.95758L15.6234 9.54532H15.5596V9.95758H15.2936V8.86548H15.7401C15.8262 8.86548 15.8993 8.88052 15.9594 8.91059C16.0206 8.94067 16.0662 8.98216 16.0963 9.03505C16.1264 9.08691 16.1414 9.14499 16.1414 9.20929C16.1414 9.28189 16.1207 9.34671 16.0792 9.40375C16.0388 9.46079 15.9786 9.50124 15.8988 9.5251L16.1508 9.95758H15.8505ZM15.5596 9.35708H15.7245C15.7733 9.35708 15.8096 9.34515 15.8334 9.3213C15.8583 9.29744 15.8707 9.26374 15.8707 9.22018C15.8707 9.17869 15.8583 9.14602 15.8334 9.12217C15.8096 9.09832 15.7733 9.08639 15.7245 9.08639H15.5596V9.35708Z" fill="#235347"/>
<path d="M16.9883 9.76467H16.5807L16.5153 9.95758H16.2369L16.632 8.86548H16.9401L17.3352 9.95758H17.0536L16.9883 9.76467ZM16.9198 9.55932L16.7845 9.15951L16.6507 9.55932H16.9198Z" fill="#235347"/>
<path d="M7 21.9792H23" stroke="#235347" stroke-width="0.6" stroke-miterlimit="10" stroke-linecap="round" stroke-linejoin="round"/>
<path d="M22.6025 12.603H7.31848V13.6975H22.6025V12.603Z" stroke="#235347" stroke-width="0.6" stroke-miterlimit="10" stroke-linecap="round" stroke-linejoin="round"/>
<path d="M9.70619 13.6975H8.18433V14.7566H9.70619V13.6975Z" stroke="#235347" stroke-width="0.6" stroke-miterlimit="10" stroke-linecap="round" stroke-linejoin="round"/>
<path d="M11.228 13.6975H9.70618V14.7566H11.228V13.6975Z" stroke="#235347" stroke-width="0.6" stroke-miterlimit="10" stroke-linecap="round" stroke-linejoin="round"/>
<path d="M12.7499 13.6975H11.228V14.7566H12.7499V13.6975Z" stroke="#235347" stroke-width="0.6" stroke-miterlimit="10" stroke-linecap="round" stroke-linejoin="round"/>
<path d="M21.843 14.9661V21.8349" stroke="#235347" stroke-width="0.6" stroke-miterlimit="10" stroke-linecap="round" stroke-linejoin="round"/>
<path d="M8.18433 14.759V21.6278" stroke="#235347" stroke-width="0.6" stroke-miterlimit="10" stroke-linecap="round" stroke-linejoin="round"/>
<path d="M14.2392 13.6975H12.7173V14.7566H14.2392V13.6975Z" stroke="#235347" stroke-width="0.6" stroke-miterlimit="10" stroke-linecap="round" stroke-linejoin="round"/>
<path d="M15.761 13.6975H14.2391V14.7566H15.761V13.6975Z" stroke="#235347" stroke-width="0.6" stroke-miterlimit="10" stroke-linecap="round" stroke-linejoin="round"/>
<path d="M17.2802 13.6975H15.7583V14.7566H17.2802V13.6975Z" stroke="#235347" stroke-width="0.6" stroke-miterlimit="10" stroke-linecap="round" stroke-linejoin="round"/>
<path d="M18.802 13.6975H17.2802V14.7566H18.802V13.6975Z" stroke="#235347" stroke-width="0.6" stroke-miterlimit="10" stroke-linecap="round" stroke-linejoin="round"/>
<path d="M20.3239 13.6975H18.802V14.7566H20.3239V13.6975Z" stroke="#235347" stroke-width="0.6" stroke-miterlimit="10" stroke-linecap="round" stroke-linejoin="round"/>
<path d="M21.8457 13.6975H20.3239V14.7566H21.8457V13.6975Z" stroke="#235347" stroke-width="0.6" stroke-miterlimit="10" stroke-linecap="round" stroke-linejoin="round"/>
<path d="M16.9697 16.3435C17.261 16.3843 17.4788 16.6348 17.4788 16.9288V17.3181C17.4788 20.2284 15.7092 21.0125 15.1375 21.1922C15.0231 21.2276 14.9006 21.2276 14.7863 21.1922C14.2146 21.0152 12.4449 20.2284 12.4449 17.3181V16.9315C12.4449 16.6375 12.6627 16.3843 12.954 16.3462C13.7245 16.2455 14.2908 15.9296 14.6229 15.6928C14.8271 15.5458 15.0994 15.5431 15.3063 15.6873C15.6439 15.9215 16.2183 16.2373 16.9697 16.3435Z" fill="#DAF1DE" stroke="#235347" stroke-width="0.6" stroke-miterlimit="10" stroke-linecap="round" stroke-linejoin="round"/>
<path d="M14.9497 18.6523C15.0489 18.6523 15.1294 18.5719 15.1294 18.4727C15.1294 18.3734 15.0489 18.293 14.9497 18.293C14.8505 18.293 14.77 18.3734 14.77 18.4727C14.77 18.5719 14.8505 18.6523 14.9497 18.6523Z" fill="#DAF1DE" stroke="#235347" stroke-width="0.5" stroke-miterlimit="10" stroke-linecap="round" stroke-linejoin="round"/>
<path d="M15.7147 17.8491H14.2064V17.5769C14.2064 17.1603 14.544 16.8228 14.9605 16.8228C15.3771 16.8228 15.7147 17.1603 15.7147 17.5769V17.8491Z" stroke="#235347" stroke-width="0.5" stroke-miterlimit="10" stroke-linecap="round" stroke-linejoin="round"/>
<path d="M14.9605 19.5861C14.416 19.5861 13.975 19.1451 13.975 18.6006V18.2657C13.975 18.0343 14.1628 17.8464 14.3942 17.8464H15.5241C15.7555 17.8464 15.9433 18.0343 15.9433 18.2657V18.6006C15.946 19.1478 15.505 19.5861 14.9605 19.5861Z" stroke="#235347" stroke-width="0.5" stroke-miterlimit="10" stroke-linecap="round" stroke-linejoin="round"/>
<path d="M14.9496 18.655V19.0552" stroke="#235347" stroke-width="0.5" stroke-miterlimit="10" stroke-linecap="round" stroke-linejoin="round"/>
<defs>
<linearGradient id="paint0_linear_2601_87692" x1="15" y1="0" x2="15" y2="30" gradientUnits="userSpaceOnUse">
<stop stop-color="#E1FFED"/>
<stop offset="1" stop-color="#E1FFED" stop-opacity="0"/>
</linearGradient>
</defs>
</svg>
