<svg width="32" height="32" viewBox="0 0 32 32" fill="none" xmlns="http://www.w3.org/2000/svg">
<rect width="32" height="32" rx="16" fill="#E9F6EB"/>
<path d="M13.737 12.0625L13.0255 12.2997L13.1965 12.8125H13.737V12.0625ZM12.862 9.4375L13.0091 8.70206C12.747 8.64963 12.4767 8.74072 12.2998 8.94115C12.1228 9.14158 12.066 9.42104 12.1505 9.67467L12.862 9.4375ZM18.987 9.4375L19.6985 9.67467C19.7831 9.42104 19.7262 9.14158 19.5493 8.94115C19.3724 8.74072 19.1021 8.64963 18.8399 8.70206L18.987 9.4375ZM18.112 12.0625V12.8125H18.6526L18.8235 12.2997L18.112 12.0625ZM14.4485 11.8253L13.5735 9.20033L12.1505 9.67467L13.0255 12.2997L14.4485 11.8253ZM18.2755 9.20033L17.4005 11.8253L18.8235 12.2997L19.6985 9.67467L18.2755 9.20033ZM18.112 11.3125H13.737V12.8125H18.112V11.3125ZM12.7149 10.1729C13.9086 10.4117 14.5739 10.3148 15.1177 10.0638C15.6539 9.8163 15.597 9.75 15.9245 9.75V8.25C15.1583 8.25 14.6639 8.6212 14.4891 8.70184C14.322 8.77897 14.0029 8.90082 13.0091 8.70206L12.7149 10.1729ZM15.9245 9.75C16.252 9.75 16.1951 9.8163 16.7313 10.0638C17.2752 10.3148 17.9404 10.4117 19.1341 10.1729L18.8399 8.70206C17.8461 8.90082 17.527 8.77897 17.3599 8.70184C17.1852 8.6212 16.6908 8.25 15.9245 8.25V9.75Z" fill="#24663F"/>
<path d="M18.112 12.0625L21.1745 17.75C22.1954 19.5 22.9245 23 17.6745 23H14.1745" stroke="#24663F" stroke-width="1.5"/>
<path d="M13.6897 12.0625L10.7066 17.75C9.71228 19.5 9.00204 23 14.1158 23H14.612" stroke="#24663F" stroke-width="1.5"/>
<path d="M13.868 19.02C13.8173 19.02 13.7747 19.0027 13.74 18.968C13.7053 18.9333 13.688 18.8907 13.688 18.84V16.392C13.688 16.3413 13.7053 16.2987 13.74 16.264C13.7747 16.2267 13.8173 16.208 13.868 16.208H14.8C15.1627 16.208 15.4347 16.2827 15.616 16.432C15.7973 16.5813 15.888 16.7773 15.888 17.02C15.888 17.18 15.8427 17.3267 15.752 17.46C15.664 17.5907 15.5347 17.6853 15.364 17.744C15.556 17.7947 15.6867 17.9147 15.756 18.104C15.828 18.2907 15.864 18.4747 15.864 18.656V18.84C15.864 18.8907 15.8467 18.9333 15.812 18.968C15.7773 19.0027 15.7347 19.02 15.684 19.02C15.628 19.02 15.5827 19.004 15.548 18.972C15.516 18.9373 15.5 18.8933 15.5 18.84V18.72C15.5 18.5867 15.488 18.464 15.464 18.352C15.44 18.2373 15.3827 18.136 15.292 18.048C15.2013 17.9573 15.064 17.912 14.88 17.912H14.052V18.84C14.052 18.8907 14.0333 18.9333 13.996 18.968C13.9613 19.0027 13.9187 19.02 13.868 19.02ZM14.776 17.568C15.0053 17.568 15.1867 17.5227 15.32 17.432C15.456 17.3413 15.524 17.2133 15.524 17.048C15.524 16.888 15.4653 16.7653 15.348 16.68C15.2333 16.5947 15.036 16.552 14.756 16.552H14.052V17.568H14.776Z" fill="#24663F"/>
<path d="M16.6436 19.94C16.593 19.94 16.5503 19.9213 16.5156 19.884C16.481 19.8493 16.4636 19.8067 16.4636 19.756V17.12C16.4636 17.0693 16.481 17.0267 16.5156 16.992C16.5503 16.9573 16.593 16.94 16.6436 16.94C16.6943 16.94 16.737 16.9573 16.7716 16.992C16.809 17.0267 16.8276 17.0693 16.8276 17.12V17.224C17.0223 17.0213 17.2503 16.92 17.5116 16.92C17.677 16.92 17.833 16.9627 17.9796 17.048C18.129 17.1307 18.249 17.2533 18.3396 17.416C18.433 17.576 18.4796 17.764 18.4796 17.98C18.4796 18.196 18.433 18.3853 18.3396 18.548C18.249 18.708 18.129 18.8307 17.9796 18.916C17.833 18.9987 17.677 19.04 17.5116 19.04C17.2503 19.04 17.0223 18.9387 16.8276 18.736V19.756C16.8276 19.8093 16.8103 19.8533 16.7756 19.888C16.741 19.9227 16.697 19.94 16.6436 19.94ZM17.4596 18.7C17.657 18.7 17.8156 18.6373 17.9356 18.512C18.0556 18.3867 18.1156 18.2093 18.1156 17.98C18.1156 17.7507 18.0556 17.5733 17.9356 17.448C17.8156 17.3227 17.657 17.26 17.4596 17.26C17.337 17.26 17.221 17.288 17.1116 17.344C17.005 17.3973 16.9103 17.4693 16.8276 17.56V18.4C16.9103 18.4907 17.005 18.564 17.1116 18.62C17.221 18.6733 17.337 18.7 17.4596 18.7Z" fill="#24663F"/>
<path fill-rule="evenodd" clip-rule="evenodd" d="M15.348 16.6801C15.2333 16.5947 15.036 16.5521 14.756 16.5521H14.052V17.5681H14.776C15.0053 17.5681 15.1867 17.5227 15.32 17.4321C15.456 17.3414 15.524 17.2134 15.524 17.0481C15.524 16.8881 15.4653 16.7654 15.348 16.6801ZM15.292 18.0481C15.2013 17.9574 15.064 17.9121 14.88 17.9121H14.052V18.8401C14.052 18.8907 14.0333 18.9334 13.996 18.9681C13.9613 19.0027 13.9187 19.0201 13.868 19.0201C13.8173 19.0201 13.7747 19.0027 13.74 18.9681C13.7053 18.9334 13.688 18.8907 13.688 18.8401V16.3921C13.688 16.3414 13.7053 16.2987 13.74 16.2641C13.7747 16.2267 13.8173 16.2081 13.868 16.2081H14.8C15.1627 16.2081 15.4347 16.2827 15.616 16.4321C15.7973 16.5814 15.888 16.7774 15.888 17.0201C15.888 17.1801 15.8427 17.3267 15.752 17.4601C15.71 17.5224 15.6586 17.5765 15.5979 17.6225C15.5312 17.6728 15.4533 17.7134 15.364 17.7441C15.4543 17.7679 15.531 17.807 15.5941 17.8615C15.6653 17.9229 15.7193 18.0037 15.756 18.1041C15.828 18.2907 15.864 18.4747 15.864 18.6561V18.8401C15.864 18.8907 15.8467 18.9334 15.812 18.9681C15.7773 19.0027 15.7347 19.0201 15.684 19.0201C15.628 19.0201 15.5827 19.0041 15.548 18.9721C15.516 18.9374 15.5 18.8934 15.5 18.8401V18.7201C15.5 18.5867 15.488 18.4641 15.464 18.3521C15.44 18.2374 15.3827 18.1361 15.292 18.0481ZM15.9432 18.0336C16.0228 18.2404 16.064 18.4482 16.064 18.6561V18.8401C16.064 18.9418 16.027 19.0359 15.9534 19.1095C15.8799 19.183 15.7857 19.2201 15.684 19.2201C15.5877 19.2201 15.4907 19.1913 15.4124 19.119L15.4065 19.1136L15.401 19.1077C15.3304 19.0312 15.3 18.9366 15.3 18.8401V18.7201C15.3 18.5986 15.2891 18.4902 15.2684 18.394C15.2533 18.3214 15.2171 18.2541 15.1527 18.1916L15.1506 18.1895C15.1111 18.1501 15.0342 18.1121 14.88 18.1121H14.252V18.8401C14.252 18.9455 14.2109 19.0401 14.1348 19.1121C14.0616 19.1839 13.9685 19.2201 13.868 19.2201C13.7663 19.2201 13.6721 19.183 13.5986 19.1095C13.525 19.0359 13.488 18.9418 13.488 18.8401V16.3921C13.488 16.2915 13.5242 16.1984 13.596 16.1253C13.6679 16.0492 13.7626 16.0081 13.868 16.0081H14.8C15.1851 16.0081 15.5111 16.0865 15.7431 16.2777C15.9723 16.4664 16.088 16.7199 16.088 17.0201C16.088 17.2203 16.0305 17.406 15.9176 17.5721C15.8735 17.6377 15.8218 17.6955 15.7633 17.7459C15.841 17.8236 15.9014 17.9201 15.9432 18.0336ZM14.252 17.3681H14.776C14.9815 17.3681 15.1187 17.3271 15.2075 17.2667L15.2091 17.2656C15.2887 17.2126 15.324 17.1474 15.324 17.0481C15.324 16.9444 15.2901 16.8852 15.2304 16.8418L15.2286 16.8405C15.1686 16.7959 15.0278 16.7521 14.756 16.7521H14.252V17.3681ZM16.8277 18.7361C16.8908 18.8018 16.9575 18.8569 17.0277 18.9013C17.1738 18.9938 17.3351 19.0401 17.5117 19.0401C17.677 19.0401 17.833 18.9987 17.9797 18.9161C18.129 18.8307 18.249 18.7081 18.3397 18.5481C18.433 18.3854 18.4797 18.1961 18.4797 17.9801C18.4797 17.7641 18.433 17.5761 18.3397 17.4161C18.249 17.2534 18.129 17.1307 17.9797 17.0481C17.833 16.9627 17.677 16.9201 17.5117 16.9201C17.3334 16.9201 17.1706 16.9672 17.0233 17.0616C16.9955 17.0794 16.9682 17.0989 16.9415 17.1201C16.9024 17.1511 16.8644 17.1858 16.8277 17.2241V17.1201C16.8277 17.0717 16.8107 17.0307 16.7767 16.9969C16.7751 16.9953 16.7734 16.9937 16.7717 16.9921C16.737 16.9574 16.6943 16.9401 16.6437 16.9401C16.593 16.9401 16.5503 16.9574 16.5157 16.9921C16.481 17.0267 16.4637 17.0694 16.4637 17.1201V19.7561C16.4637 19.8067 16.481 19.8494 16.5157 19.8841C16.5503 19.9214 16.593 19.9401 16.6437 19.9401C16.697 19.9401 16.741 19.9227 16.7757 19.8881C16.8103 19.8534 16.8277 19.8094 16.8277 19.7561V18.7361ZM17.0277 19.1301V19.7561C17.0277 19.8573 16.9927 19.9538 16.9171 20.0295C16.8414 20.1051 16.7449 20.1401 16.6437 20.1401C16.5383 20.1401 16.4436 20.0989 16.3716 20.0228C16.2998 19.9497 16.2637 19.8566 16.2637 19.7561V17.1201C16.2637 17.0183 16.3007 16.9242 16.3742 16.8506C16.4478 16.7771 16.5419 16.7401 16.6437 16.7401C16.7442 16.7401 16.8373 16.7762 16.9104 16.848C16.9207 16.8577 16.9303 16.8678 16.9393 16.8783C17.1109 16.7742 17.3025 16.7201 17.5117 16.7201C17.7126 16.7201 17.9026 16.7722 18.0784 16.8741C18.2619 16.9762 18.4067 17.1262 18.5134 17.317C18.6267 17.5119 18.6797 17.7353 18.6797 17.9801C18.6797 18.2254 18.6264 18.45 18.5134 18.6472C18.4063 18.836 18.2614 18.9854 18.0789 19.0897L18.0779 19.0903C17.9018 19.1895 17.7121 19.2401 17.5117 19.2401C17.3377 19.2401 17.1759 19.2026 17.0277 19.1301ZM17.2011 17.5229C17.1383 17.5543 17.0806 17.594 17.0277 17.6424V18.3179C17.0807 18.367 17.1388 18.4081 17.202 18.4416C17.283 18.4806 17.3681 18.5001 17.4597 18.5001C17.6106 18.5001 17.7142 18.4541 17.7912 18.3737C17.8653 18.2964 17.9157 18.1749 17.9157 17.9801C17.9157 17.7852 17.8653 17.6637 17.7912 17.5864C17.7142 17.506 17.6106 17.4601 17.4597 17.4601C17.3687 17.4601 17.284 17.4805 17.2028 17.5221L17.2011 17.5229ZM16.8277 18.4001V17.5601C16.9103 17.4694 17.005 17.3974 17.1117 17.3441C17.221 17.2881 17.337 17.2601 17.4597 17.2601C17.657 17.2601 17.8157 17.3227 17.9357 17.4481C18.0557 17.5734 18.1157 17.7507 18.1157 17.9801C18.1157 18.2094 18.0557 18.3867 17.9357 18.5121C17.8157 18.6374 17.657 18.7001 17.4597 18.7001C17.337 18.7001 17.221 18.6734 17.1117 18.6201C17.005 18.5641 16.9103 18.4907 16.8277 18.4001Z" fill="#24663F"/>
</svg>
