<svg width="40" height="40" viewBox="0 0 40 40" fill="none" xmlns="http://www.w3.org/2000/svg">
<rect x="15" y="15" width="11" height="11" fill="#DAF1DE"/>
<circle cx="20" cy="10" r="4" fill="#8EB69B"/>
<path fill-rule="evenodd" clip-rule="evenodd" d="M19.9998 15.5294C21.5287 15.5294 22.995 14.9221 24.0761 13.841C25.1572 12.7599 25.7645 11.2936 25.7645 9.76471C25.7645 8.23581 25.1572 6.76954 24.0761 5.68844C22.995 4.60735 21.5287 4 19.9998 4C18.4709 4 17.0046 4.60735 15.9236 5.68844C14.8425 6.76954 14.2351 8.23581 14.2351 9.76471C14.2351 11.2936 14.8425 12.7599 15.9236 13.841C17.0046 14.9221 18.4709 15.5294 19.9998 15.5294ZM19.9998 7.29412C20.6551 7.29412 21.2835 7.55441 21.7468 8.01774C22.2101 8.48106 22.4704 9.10947 22.4704 9.76471C22.4704 10.4199 22.2101 11.0484 21.7468 11.5117C21.2835 11.975 20.6551 12.2353 19.9998 12.2353C19.3446 12.2353 18.7162 11.975 18.2528 11.5117C17.7895 11.0484 17.5292 10.4199 17.5292 9.76471C17.5292 9.10947 17.7895 8.48106 18.2528 8.01774C18.7162 7.55441 19.3446 7.29412 19.9998 7.29412Z" fill="#235347"/>
<path d="M20.0002 25.4122C20.8738 25.4122 21.7117 25.7593 22.3295 26.3771C22.9472 26.9948 23.2943 27.8327 23.2943 28.7063V31.1769C23.2943 32.0506 22.9472 32.8885 22.3295 33.5062C21.7117 34.124 20.8738 34.4711 20.0002 34.4711C19.1265 34.4711 18.2886 34.124 17.6709 33.5062C17.0531 32.8885 16.7061 32.0506 16.7061 31.1769V28.7063C16.7061 27.8327 17.0531 26.9948 17.6709 26.3771C18.2886 25.7593 19.1265 25.4122 20.0002 25.4122Z" fill="#235347"/>
<path fill-rule="evenodd" clip-rule="evenodd" d="M28.2355 20.4721C28.2355 18.2879 27.3678 16.1932 25.8234 14.6488C24.279 13.1044 22.1843 12.2368 20.0002 12.2368C17.8161 12.2368 15.7214 13.1044 14.177 14.6488C12.6325 16.1932 11.7649 18.2879 11.7649 20.4721V24.5897C11.7649 25.6818 12.1987 26.7291 12.9709 27.5013C13.7431 28.2735 14.7905 28.7073 15.8825 28.7073H24.1178C25.2099 28.7073 26.2572 28.2735 27.0295 27.5013C27.8017 26.7291 28.2355 25.6818 28.2355 24.5897V20.4721ZM15.059 20.4721C15.059 19.1616 15.5796 17.9048 16.5062 16.9781C17.4329 16.0515 18.6897 15.5309 20.0002 15.5309C21.3107 15.5309 22.5675 16.0515 23.4941 16.9781C24.4208 17.9048 24.9414 19.1616 24.9414 20.4721V24.5897C24.9414 24.8081 24.8546 25.0176 24.7002 25.172C24.5457 25.3265 24.3362 25.4132 24.1178 25.4132H15.8825C15.6641 25.4132 15.4547 25.3265 15.3002 25.172C15.1458 25.0176 15.059 24.8081 15.059 24.5897V20.4721Z" fill="#235347"/>
<path d="M29.0588 9.76555C28.622 9.76555 28.2031 9.59202 27.8942 9.28314C27.5853 8.97426 27.4118 8.55532 27.4118 8.11849C27.4118 7.68167 27.5853 7.26273 27.8942 6.95385C28.2031 6.64496 28.622 6.47144 29.0588 6.47144H32.3529C32.7898 6.47144 33.2087 6.64496 33.5176 6.95385C33.8265 7.26273 34 7.68167 34 8.11849C34 8.55532 33.8265 8.97426 33.5176 9.28314C33.2087 9.59202 32.7898 9.76555 32.3529 9.76555H29.0588ZM7.64706 9.76555C7.21023 9.76555 6.7913 9.59202 6.48241 9.28314C6.17353 8.97426 6 8.55532 6 8.11849C6 7.68167 6.17353 7.26273 6.48241 6.95385C6.7913 6.64496 7.21023 6.47144 7.64706 6.47144H10.9412C11.378 6.47144 11.7969 6.64496 12.1058 6.95385C12.4147 7.26273 12.5882 7.68167 12.5882 8.11849C12.5882 8.55532 12.4147 8.97426 12.1058 9.28314C11.7969 9.59202 11.378 9.76555 10.9412 9.76555H7.64706Z" fill="#235347"/>
<path d="M9.146 9.01518L9.93 6.61871L17.3813 8.04013L16.5956 10.4382L9.146 9.01518ZM22.6189 8.04013L23.4046 10.4382L30.8542 9.01518L30.0702 6.61871L22.6189 8.04013Z" fill="#235347"/>
</svg>
