<svg width="154" height="154" viewBox="0 0 154 154" fill="none" xmlns="http://www.w3.org/2000/svg">
<path d="M77 154C119.526 154 154 119.526 154 77C154 34.4741 119.526 0 77 0C34.4741 0 0 34.4741 0 77C0 119.526 34.4741 154 77 154Z" fill="#E3FAE8" fill-opacity="0.5"/>
<path d="M31 84.0267H58.2611L61.9503 90.6405H91.7638L95.1741 84.0267H123L100.851 59.5708H52.5772L31 84.0267Z" fill="#268C44"/>
<path opacity="0.28" d="M38.9507 122L52.9494 77.5796H101.244L116.373 122H38.9507Z" fill="#2A5E2F"/>
<path opacity="0.28" d="M52.8203 59.5854L53.1921 77.5869" stroke="#2A5E2F" stroke-width="0.5" stroke-miterlimit="10"/>
<path opacity="0.28" d="M100.586 59.5854L100.951 77.5869" stroke="#2A5E2F" stroke-width="0.5" stroke-miterlimit="10"/>
<path d="M95.1741 84.0269L91.7638 90.6407H61.9503L58.2611 84.0269H31L38.9503 122H116.372L123 84.0269H95.1741Z" fill="#268C44"/>
<path d="M91.764 90.6403H61.9505L60.5063 88.0542H36.5054L42.4109 118.834H112.791L117.495 88.0542H93.101L91.764 90.6403Z" fill="white"/>
<path d="M77.6011 106.657C82.7131 106.875 86.6524 109.04 88.9903 113.8C89.6481 115.133 88.926 116.306 87.6105 116.198C86.8669 116.132 86.5452 115.618 86.2378 115.024C82.9847 108.678 74.2623 107.766 69.8439 113.3C69.4149 113.836 69.0932 114.423 68.7929 115.046C68.2782 116.125 67.4703 116.495 66.6052 116.089C65.7973 115.712 65.59 114.792 66.1047 113.698C67.8635 109.989 70.8377 107.86 74.727 106.954C75.6779 106.73 76.6288 106.628 77.6011 106.657Z" fill="#268C44"/>
<path d="M87.3457 101.847C85.9873 101.76 84.7933 101.289 83.7995 100.34C83.1275 99.6957 82.9845 98.9134 83.5922 98.1962C84.1928 97.4791 85.0007 97.4501 85.7156 98.0368C86.881 99.0003 88.0035 98.9351 89.1903 98.0948C90.1626 97.4066 91.0635 97.5298 91.5711 98.3411C92.0429 99.1017 91.7927 99.9638 90.8919 100.601C89.8266 101.369 88.6398 101.775 87.3457 101.847Z" fill="#268C44"/>
<path d="M66.3405 101.876C64.9535 101.774 63.7523 101.296 62.7657 100.347C62.0937 99.6955 61.9864 98.9203 62.5941 98.1959C63.1661 97.515 63.9525 97.4498 64.6174 98.0003C65.8686 99.0362 67.0411 98.9566 68.2923 98.0293C69.0644 97.457 69.8866 97.4426 70.4872 98.2829C71.0806 99.1159 70.8161 99.8838 70.0511 100.485C68.95 101.354 67.6846 101.782 66.3405 101.876Z" fill="#268C44"/>
<path d="M76.3421 51.117H77.6505C78.0723 51.117 78.4155 50.7693 78.4155 50.3419V32.7751C78.4155 32.3477 78.0723 32 77.6505 32H76.3421C75.9203 32 75.5771 32.3477 75.5771 32.7751V50.3419C75.5771 50.7693 75.9203 51.117 76.3421 51.117Z" fill="#268C44"/>
<path d="M89.0685 52.5368C89.812 52.7106 90.6128 52.4136 90.8559 51.8848L97.8266 36.455C98.0697 35.9189 97.6622 35.3467 96.9115 35.1728C96.1679 34.999 95.3672 35.296 95.1241 35.8248L88.1533 51.2546C87.9174 51.7906 88.3249 52.3629 89.0685 52.5368Z" fill="#268C44"/>
<path d="M64.9315 52.5368C64.1879 52.7106 63.3872 52.4136 63.1441 51.8848L56.1733 36.455C55.9302 35.9189 56.3377 35.3467 57.0884 35.1728C57.832 34.999 58.6327 35.296 58.8758 35.8248L65.8466 51.2546C66.0825 51.7906 65.675 52.3629 64.9315 52.5368Z" fill="#268C44"/>
</svg>
