<svg width="24" height="24" viewBox="0 0 24 24" fill="none" xmlns="http://www.w3.org/2000/svg">
<path d="M19.8158 16.0942C18.5557 15.0292 17.8332 13.4725 17.8332 11.8233V9.5C17.8332 6.56757 15.6549 4.14005 12.8332 3.7334V2.83328C12.8332 2.37247 12.4598 2 11.9999 2C11.5399 2 11.1665 2.37247 11.1665 2.83328V3.7334C8.34409 4.14005 6.1665 6.56757 6.1665 9.5V11.8233C6.1665 13.4725 5.444 15.0292 4.17661 16.1008C3.85236 16.3784 3.6665 16.7816 3.6665 17.2083C3.6665 18.0126 4.32065 18.6667 5.12494 18.6667H18.8749C19.6791 18.6667 20.3332 18.0126 20.3332 17.2083C20.3332 16.7816 20.1474 16.3784 19.8158 16.0942V16.0942Z" fill="white"/>
<path d="M12.0002 22C13.5092 22 14.7718 20.9241 15.0618 19.5H8.93848C9.22839 20.9241 10.4909 22 12.0002 22Z" fill="white"/>
<circle cx="16.5" cy="5.5" r="3.5" fill="#EB5757"/>
</svg>
