<svg width="22" height="21" viewBox="0 0 22 21" fill="none" xmlns="http://www.w3.org/2000/svg">
<path d="M7 20.5V19C10.6 16.6 11.1667 11.3333 11 9C12.5 16.5 8.5 19 7 20.5Z" fill="white"/>
<path d="M9.03114 0.988708C9.03114 0.988708 5.05593 1.4648 2.66013 3.73955C0.153435 6.12132 0 8.37859 0 8.37859C0 8.37859 1.24795 8.00828 2.3722 8.01038C3.49553 8.01196 4.59325 8.71735 4.59325 8.71735C4.59325 8.71735 4.03666 7.77517 2.92989 7.52291C2.10531 7.3346 1.25869 7.67824 1.25869 7.67824C1.25869 7.67824 1.93596 5.77347 3.03395 4.58702C4.39756 3.1128 5.10182 2.8281 5.94957 2.37911C7.01365 1.81576 9.03114 0.988708 9.03114 0.988708Z" fill="white"/>
<path d="M10.1578 1.42636C10.1578 1.42636 8.09966 1.80165 6.17867 4.70689C4.60147 7.09266 4.79689 9.28102 4.79689 9.28102C4.79689 9.28102 6.54021 8.17361 7.68961 7.99456C9.15143 7.7667 10.5569 8.72767 10.5569 8.72767C10.5569 8.72767 9.71558 7.29716 7.964 7.26597C7.1794 7.25185 6.10769 7.7406 6.10769 7.7406C6.10769 7.7406 6.11641 6.54979 7.06746 4.84831C8.07417 3.0467 10.1578 1.42633 10.1578 1.42633V1.42636Z" fill="white"/>
<path d="M11.1201 1.74799C11.1201 1.74799 11.4561 3.81021 11.3917 5.36411C11.3276 6.91807 11.1517 8.8185 11.1517 8.8185C11.1517 8.8185 11.9512 8.28219 13.2594 8.28622C14.8972 8.29091 16.0301 8.98901 16.0301 8.98901C16.0301 8.98901 15.5968 7.70221 13.7757 7.40776C12.5547 7.21024 11.9021 7.56141 11.9021 7.56141C11.9021 7.56141 12.1994 6.49427 12.085 5.06282C11.9503 3.37674 11.1201 1.74799 11.1201 1.74799H11.1201Z" fill="white"/>
<path d="M12.3514 1.62888C12.3514 1.62888 13.9578 2.88555 14.6867 3.9067C15.7705 5.42447 16.1313 7.23487 16.3228 8.13082C16.4845 8.88612 16.4041 9.12752 16.4041 9.12752C16.4041 9.12752 17.459 8.2051 18.5627 7.93345C19.4475 7.7155 20.0552 7.76139 20.6058 7.86485C21.3948 8.01368 22 8.30191 22 8.30191C22 8.30191 21.7472 6.23426 20.0887 4.46085C18.6182 2.88851 17.6818 2.41882 15.9369 1.7846C14.5334 1.27463 13.1062 1.02942 13.1062 1.02942C13.1062 1.02942 15.0501 1.73221 16.377 2.45404C17.587 3.11283 18.3574 3.7244 19.4064 4.95463C20.644 6.40483 20.691 7.02039 20.691 7.02039C20.691 7.02039 19.6288 6.74426 18.5844 7.02039C17.5396 7.29612 17.2041 7.71699 17.2041 7.71699C17.2041 7.71699 16.9975 6.57439 16.5604 5.48716C16.1619 4.49494 15.4935 3.56685 14.7325 3.04535C14.1984 2.67958 12.3515 1.62885 12.3515 1.62885L12.3514 1.62888Z" fill="white"/>
<path d="M12.0243 0.428525C12.1489 0.772071 11.9549 1.15748 11.5911 1.28924C11.2272 1.42099 10.8311 1.24905 10.707 0.905227C10.5825 0.561285 10.7766 0.175722 11.1405 0.0439075C11.2167 0.0163129 11.2943 0.0021039 11.3705 0H11.4117C11.6834 0.00798873 11.9306 0.169593 12.0244 0.428525H12.0243Z" fill="white"/>
</svg>
