<svg width="32" height="32" viewBox="0 0 32 32" fill="none" xmlns="http://www.w3.org/2000/svg">
<rect width="32" height="32" rx="16" fill="#E9F6EB"/>
<g clip-path="url(#clip0_1182_39571)">
<path d="M22.6667 19.28V21.28C22.6674 21.4657 22.6294 21.6494 22.555 21.8195C22.4806 21.9897 22.3715 22.1424 22.2347 22.2679C22.0979 22.3934 21.9364 22.489 21.7605 22.5485C21.5846 22.6079 21.3983 22.63 21.2133 22.6133C19.1619 22.3904 17.1913 21.6894 15.46 20.5667C13.8492 19.5431 12.4836 18.1774 11.46 16.5667C10.3333 14.8275 9.63217 12.8473 9.41334 10.7866C9.39668 10.6023 9.41859 10.4165 9.47767 10.2411C9.53676 10.0656 9.63172 9.90444 9.75652 9.76773C9.88131 9.63102 10.0332 9.52179 10.2025 9.447C10.3719 9.37221 10.5549 9.33349 10.74 9.33332H12.74C13.0635 9.33013 13.3772 9.4447 13.6225 9.65567C13.8678 9.86664 14.0281 10.1596 14.0733 10.48C14.1578 11.12 14.3143 11.7485 14.54 12.3533C14.6297 12.5919 14.6491 12.8513 14.5959 13.1006C14.5428 13.3499 14.4192 13.5787 14.24 13.76L13.3933 14.6066C14.3424 16.2757 15.7243 17.6576 17.3933 18.6067L18.24 17.76C18.4213 17.5807 18.6501 17.4572 18.8994 17.404C19.1487 17.3509 19.4081 17.3703 19.6467 17.46C20.2515 17.6857 20.88 17.8422 21.52 17.9267C21.8439 17.9723 22.1396 18.1355 22.351 18.385C22.5624 18.6345 22.6748 18.953 22.6667 19.28Z" stroke="#24663F" stroke-width="1.5" stroke-linecap="round" stroke-linejoin="round"/>
</g>
<defs>
<clipPath id="clip0_1182_39571">
<rect width="16" height="16" fill="white" transform="translate(8 8)"/>
</clipPath>
</defs>
</svg>
