<svg width="22" height="20" viewBox="0 0 22 20" fill="none" xmlns="http://www.w3.org/2000/svg">
<g clip-path="url(#clip0_1947_8643)">
<path d="M18.3671 13.2847C17.8609 14.4542 17.0691 15.4848 16.061 16.2863C15.0529 17.0878 13.8592 17.6359 12.5842 17.8826C11.3092 18.1293 9.99172 18.0671 8.747 17.7015C7.50228 17.3359 6.36819 16.6779 5.44388 15.7852C4.51957 14.8925 3.83318 13.7921 3.44473 12.5804C3.05628 11.3686 2.97758 10.0823 3.21553 8.834C3.45348 7.58567 4.00082 6.41328 4.80971 5.41935C5.6186 4.42541 6.6644 3.64019 7.85568 3.13232" stroke="#AAAAAA" stroke-width="1.5" stroke-linecap="round" stroke-linejoin="round"/>
<path d="M18.9958 10.2609C18.9958 9.24009 18.7899 8.22924 18.39 7.2861C17.9902 6.34296 17.404 5.486 16.6651 4.76415C15.9263 4.0423 15.0491 3.4697 14.0837 3.07904C13.1182 2.68838 12.0835 2.4873 11.0386 2.4873V10.2609H18.9958Z" stroke="#AAAAAA" stroke-width="1.5" stroke-linecap="round" stroke-linejoin="round"/>
</g>
<defs>
<clipPath id="clip0_1947_8643">
<rect width="22" height="20" fill="white"/>
</clipPath>
</defs>
</svg>
