<svg width="80" height="80" viewBox="0 0 80 80" fill="none" xmlns="http://www.w3.org/2000/svg">
<circle cx="40" cy="40" r="40" fill="url(#paint0_linear_1644_20486)"/>
<mask id="mask0_1644_20486" style="mask-type:alpha" maskUnits="userSpaceOnUse" x="0" y="0" width="80" height="80">
<circle cx="40" cy="40" r="40" fill="url(#paint1_linear_1644_20486)"/>
</mask>
<g mask="url(#mask0_1644_20486)">
<mask id="path-3-inside-1_1644_20486" fill="white">
<path fill-rule="evenodd" clip-rule="evenodd" d="M23.551 87.5311C20.6389 91.5179 16.5403 94 12 94C3.16344 94 -4 84.598 -4 73C-4 61.402 3.16344 52 12 52C17.3866 52 22.1514 55.4936 25.051 60.8487C25.5234 60.744 26.0073 60.6897 26.5 60.6897C28.6993 60.6897 30.7241 61.772 32.3342 63.589C32.8365 63.076 33.4009 62.6818 34.0078 62.4346C34.1612 58.2341 36.5615 54.8966 39.5 54.8966C39.6685 54.8966 39.8353 54.9075 40 54.929C40.1647 54.9075 40.3315 54.8966 40.5 54.8966C43.4385 54.8966 45.8388 58.2341 45.9922 62.4346C46.5991 62.6818 47.1635 63.076 47.6658 63.589C49.2759 61.772 51.3007 60.6897 53.5 60.6897C53.9927 60.6897 54.4766 60.744 54.949 60.8487C57.8486 55.4936 62.6134 52 68 52C76.8366 52 84 61.402 84 73C84 84.598 76.8366 94 68 94C63.4597 94 59.3611 91.5179 56.449 87.5311C55.5206 87.9698 54.5294 88.2069 53.5 88.2069C49.1176 88.2069 45.4283 83.9093 44.3317 78.0653C42.5409 77.9874 40.9652 76.6696 40 74.6845C39.0348 76.6696 37.4591 77.9874 35.6683 78.0653C34.5717 83.9093 30.8824 88.2069 26.5 88.2069C25.4706 88.2069 24.4794 87.9697 23.551 87.5311Z"/>
</mask>
<path fill-rule="evenodd" clip-rule="evenodd" d="M23.551 87.5311C20.6389 91.5179 16.5403 94 12 94C3.16344 94 -4 84.598 -4 73C-4 61.402 3.16344 52 12 52C17.3866 52 22.1514 55.4936 25.051 60.8487C25.5234 60.744 26.0073 60.6897 26.5 60.6897C28.6993 60.6897 30.7241 61.772 32.3342 63.589C32.8365 63.076 33.4009 62.6818 34.0078 62.4346C34.1612 58.2341 36.5615 54.8966 39.5 54.8966C39.6685 54.8966 39.8353 54.9075 40 54.929C40.1647 54.9075 40.3315 54.8966 40.5 54.8966C43.4385 54.8966 45.8388 58.2341 45.9922 62.4346C46.5991 62.6818 47.1635 63.076 47.6658 63.589C49.2759 61.772 51.3007 60.6897 53.5 60.6897C53.9927 60.6897 54.4766 60.744 54.949 60.8487C57.8486 55.4936 62.6134 52 68 52C76.8366 52 84 61.402 84 73C84 84.598 76.8366 94 68 94C63.4597 94 59.3611 91.5179 56.449 87.5311C55.5206 87.9698 54.5294 88.2069 53.5 88.2069C49.1176 88.2069 45.4283 83.9093 44.3317 78.0653C42.5409 77.9874 40.9652 76.6696 40 74.6845C39.0348 76.6696 37.4591 77.9874 35.6683 78.0653C34.5717 83.9093 30.8824 88.2069 26.5 88.2069C25.4706 88.2069 24.4794 87.9697 23.551 87.5311Z" fill="url(#paint2_linear_1644_20486)"/>
<path d="M23.551 87.5311L23.7646 87.079L23.391 86.9025L23.1473 87.2362L23.551 87.5311ZM25.051 60.8487L24.6113 61.0868L24.7909 61.4185L25.1592 61.3368L25.051 60.8487ZM32.3342 63.589L31.9599 63.9206L32.3159 64.3223L32.6914 63.9389L32.3342 63.589ZM34.0078 62.4346L34.1964 62.8977L34.4957 62.7758L34.5075 62.4528L34.0078 62.4346ZM40 54.929L39.9353 55.4248L40 55.4333L40.0647 55.4248L40 54.929ZM45.9922 62.4346L45.4925 62.4528L45.5043 62.7758L45.8036 62.8977L45.9922 62.4346ZM47.6658 63.589L47.3086 63.9389L47.6841 64.3223L48.0401 63.9206L47.6658 63.589ZM54.949 60.8487L54.8408 61.3368L55.2091 61.4185L55.3887 61.0868L54.949 60.8487ZM56.449 87.5311L56.8527 87.2362L56.609 86.9025L56.2354 87.0791L56.449 87.5311ZM44.3317 78.0653L44.8231 77.9731L44.7499 77.583L44.3534 77.5658L44.3317 78.0653ZM40 74.6845L40.4497 74.4658L40 73.541L39.5503 74.4658L40 74.6845ZM35.6683 78.0653L35.6466 77.5658L35.2501 77.583L35.1769 77.9731L35.6683 78.0653ZM12 94.5C16.7351 94.5 20.9714 91.9103 23.9548 87.8261L23.1473 87.2362C20.3063 91.1255 16.3454 93.5 12 93.5V94.5ZM-4.5 73C-4.5 78.8986 -2.67896 84.2574 0.288576 88.1523C3.25643 92.0476 7.39243 94.5 12 94.5V93.5C7.77101 93.5 3.90702 91.2514 1.08401 87.5462C-1.73931 83.8406 -3.5 78.6994 -3.5 73H-4.5ZM12 51.5C7.39243 51.5 3.25643 53.9524 0.288576 57.8477C-2.67896 61.7426 -4.5 67.1014 -4.5 73H-3.5C-3.5 67.3006 -1.73931 62.1594 1.08401 58.4538C3.90702 54.7486 7.77101 52.5 12 52.5V51.5ZM25.4907 60.6106C22.5305 55.1437 17.6202 51.5 12 51.5V52.5C17.1529 52.5 21.7723 55.8436 24.6113 61.0868L25.4907 60.6106ZM26.5 60.1897C25.9704 60.1897 25.4502 60.2481 24.9428 60.3605L25.1592 61.3368C25.5967 61.2399 26.0443 61.1897 26.5 61.1897V60.1897ZM32.7084 63.2574C31.0269 61.3598 28.8744 60.1897 26.5 60.1897V61.1897C28.5243 61.1897 30.4212 62.1842 31.9599 63.9206L32.7084 63.2574ZM33.8192 61.9715C33.1404 62.248 32.5203 62.6843 31.9769 63.2392L32.6914 63.9389C33.1528 63.4677 33.6614 63.1156 34.1964 62.8977L33.8192 61.9715ZM39.5 54.3966C37.8269 54.3966 36.3564 55.3476 35.3048 56.7967C34.2524 58.2469 33.5879 60.2306 33.5081 62.4163L34.5075 62.4528C34.581 60.4381 35.1934 58.6528 36.1141 57.3841C37.0356 56.1143 38.2345 55.3966 39.5 55.3966V54.3966ZM40.0647 54.4332C39.8787 54.409 39.6903 54.3966 39.5 54.3966V55.3966C39.6468 55.3966 39.7919 55.4061 39.9353 55.4248L40.0647 54.4332ZM40.5 54.3966C40.3097 54.3966 40.1213 54.409 39.9353 54.4332L40.0647 55.4248C40.2081 55.4061 40.3532 55.3966 40.5 55.3966V54.3966ZM46.4919 62.4163C46.4121 60.2306 45.7476 58.2469 44.6952 56.7967C43.6436 55.3476 42.1731 54.3966 40.5 54.3966V55.3966C41.7655 55.3966 42.9644 56.1143 43.8859 57.3841C44.8066 58.6528 45.419 60.4381 45.4925 62.4528L46.4919 62.4163ZM48.0231 63.2392C47.4797 62.6843 46.8596 62.248 46.1808 61.9715L45.8036 62.8977C46.3386 63.1156 46.8472 63.4677 47.3086 63.9389L48.0231 63.2392ZM53.5 60.1897C51.1256 60.1897 48.9731 61.3598 47.2916 63.2574L48.0401 63.9206C49.5788 62.1842 51.4757 61.1897 53.5 61.1897V60.1897ZM55.0572 60.3605C54.5498 60.2481 54.0296 60.1897 53.5 60.1897V61.1897C53.9557 61.1897 54.4033 61.2399 54.8408 61.3368L55.0572 60.3605ZM68 51.5C62.3798 51.5 57.4695 55.1436 54.5093 60.6106L55.3887 61.0868C58.2277 55.8436 62.8471 52.5 68 52.5V51.5ZM84.5 73C84.5 67.1014 82.679 61.7426 79.7114 57.8477C76.7436 53.9524 72.6076 51.5 68 51.5V52.5C72.229 52.5 76.093 54.7486 78.916 58.4538C81.7393 62.1594 83.5 67.3006 83.5 73H84.5ZM68 94.5C72.6076 94.5 76.7436 92.0476 79.7114 88.1523C82.679 84.2574 84.5 78.8986 84.5 73H83.5C83.5 78.6994 81.7393 83.8406 78.916 87.5462C76.093 91.2514 72.229 93.5 68 93.5V94.5ZM56.0452 87.8261C59.0286 91.9103 63.2649 94.5 68 94.5V93.5C63.6546 93.5 59.6937 91.1255 56.8527 87.2362L56.0452 87.8261ZM53.5 88.7069C54.608 88.7069 55.6718 88.4513 56.6626 87.9832L56.2354 87.0791C55.3694 87.4882 54.4509 87.7069 53.5 87.7069V88.7069ZM43.8403 78.1575C44.9551 84.0986 48.7589 88.7069 53.5 88.7069V87.7069C49.4764 87.7069 45.9015 83.72 44.8231 77.9731L43.8403 78.1575ZM39.5503 74.9031C40.5626 76.985 42.2707 78.4761 44.31 78.5648L44.3534 77.5658C42.8111 77.4986 41.3679 76.3542 40.4497 74.4658L39.5503 74.9031ZM35.69 78.5648C37.7294 78.4761 39.4374 76.985 40.4497 74.9031L39.5503 74.4658C38.6321 76.3542 37.1889 77.4986 35.6466 77.5658L35.69 78.5648ZM26.5 88.7069C31.2411 88.7069 35.0449 84.0986 36.1597 78.1575L35.1769 77.9731C34.0985 83.72 30.5236 87.7069 26.5 87.7069V88.7069ZM23.3374 87.9832C24.3282 88.4513 25.392 88.7069 26.5 88.7069V87.7069C25.5491 87.7069 24.6306 87.4882 23.7646 87.079L23.3374 87.9832Z" fill="#73DCA0" mask="url(#path-3-inside-1_1644_20486)"/>
</g>
<path d="M39.4547 15.4188C39.2587 13.9486 39.2342 12.4702 39.3731 11C39.5691 12.4702 39.6018 13.9486 39.4547 15.4188Z" fill="#24663F"/>
<path d="M29.3589 18.2368C28.4523 17.0606 27.6927 15.7946 27.0801 14.4469C27.9867 15.6231 28.7463 16.8891 29.3589 18.2368Z" fill="#24663F"/>
<path d="M22.0244 25.7266C20.6522 25.1631 19.3617 24.4443 18.1528 23.5867C19.525 24.1503 20.8156 24.869 22.0244 25.7266Z" fill="#24663F"/>
<path d="M19.4188 35.8793C17.9486 36.0753 16.4702 36.0998 15 35.961C16.462 35.7649 17.9404 35.7404 19.4188 35.8793Z" fill="#24663F"/>
<path d="M22.2367 45.9747C21.0605 46.8814 19.7945 47.641 18.4468 48.2536C19.6229 47.3551 20.889 46.5955 22.2367 45.9747Z" fill="#24663F"/>
<path d="M57.3096 45.6154C58.6818 46.1789 59.9723 46.8977 61.1811 47.7553C59.8089 47.1918 58.5184 46.473 57.3096 45.6154Z" fill="#24663F"/>
<path d="M59.915 35.4628C61.3853 35.2668 62.8636 35.2423 64.3338 35.3811C62.8718 35.5771 61.3934 35.6016 59.915 35.4628Z" fill="#24663F"/>
<path d="M57.0972 25.3673C58.2733 24.4607 59.5394 23.7011 60.8871 23.0885C59.7109 23.987 58.4449 24.7466 57.0972 25.3673Z" fill="#24663F"/>
<path d="M49.6074 18.0326C50.171 16.6604 50.8898 15.3699 51.7474 14.161C51.1838 15.5332 50.4732 16.8237 49.6074 18.0326Z" fill="#24663F"/>
<g opacity="0.5">
<path opacity="0.7" d="M57.5466 36.9901C56.6563 48.0902 47.4102 51.4391 47.4102 51.4391C46.7323 53.1298 45.842 57.4179 45.842 57.4179H33.4922C33.4922 57.4179 32.6019 53.1216 31.924 51.4391C31.924 51.4391 22.678 48.0902 21.7877 36.9901C21.1751 29.2796 26.6639 17.8691 39.5936 17.8691H39.7243C52.6622 17.8691 58.1592 29.2715 57.5466 36.9901Z" fill="#A7F9B3"/>
</g>
<path d="M55.9064 36.6552C55.0978 46.8079 46.6359 49.8708 46.6359 49.8708C46.0151 51.4146 45.2065 57.0259 45.2065 57.0259H33.9103C33.9103 57.0259 33.1017 51.4146 32.481 49.8708C32.481 49.8708 24.0191 46.8079 23.2105 36.6552C22.6469 29.5982 27.6701 19.1678 39.4972 19.1678H39.6197C51.4468 19.1678 56.47 29.5982 55.9064 36.6552Z" fill="#EBFBEF" stroke="#24663F" stroke-miterlimit="10" stroke-linecap="round" stroke-linejoin="round"/>
<path d="M36.6694 58.4634L33.0347 39.0239" stroke="#F7941D" stroke-width="3" stroke-miterlimit="10"/>
<path d="M42.6729 58.4634L46.2994 39.0239" stroke="#F7941D" stroke-width="3" stroke-miterlimit="10"/>
<path d="M33.3452 39.7672C33.3452 39.7672 34.064 43.5734 35.7874 43.5734C37.5108 43.5734 39.1281 37.8967 36.8656 37.8967C34.6031 37.8967 36.792 45.3295 39.6671 45.3295C42.5422 45.3295 44.1921 37.8967 42.1828 37.8967C40.1735 37.8967 40.8106 43.8266 43.5714 43.8184C45.0579 43.8184 46.1116 40.004 46.1116 40.004" stroke="#F7941D" stroke-miterlimit="10"/>
<path d="M47.4021 57.4343H31.9321V65.9452H47.4021V57.4343Z" fill="#24663F"/>
<path d="M45.6462 65.9452C44.7396 67.5543 42.9917 69 39.6673 69C36.343 69 34.5951 67.5543 33.6885 65.9452H45.6462Z" fill="#24663F"/>
<path d="M45.6461 65.9452C45.3847 66.4026 45.058 66.8518 44.6414 67.252L33.9906 66.4353C33.8762 66.2719 33.7782 66.1085 33.6802 65.9452H45.6461Z" fill="#235347" fill-opacity="0.5"/>
<path d="M47.4021 59.0597L31.4829 60.5707V59.8275L47.4021 58.3164V59.0597Z" fill="#235347" fill-opacity="0.5"/>
<path d="M47.8513 61.3059L31.4829 62.817V62.0737L47.8513 60.5626V61.3059Z" fill="#235347" fill-opacity="0.5"/>
<path d="M47.8513 63.552L31.9321 65.063V64.3198L47.8513 62.8087V63.552Z" fill="#235347" fill-opacity="0.5"/>
<g opacity="0.5">
<path d="M25.6837 34.3927C26.2473 34.4908 26.9824 31.5585 30.1352 28.177C31.5319 26.6741 36.8329 24.7873 36.4571 23.0557C36.0732 21.316 31.3441 23.1048 28.9672 25.8655C25.1283 30.2925 25.1691 34.3029 25.6837 34.3927Z" fill="white"/>
<path d="M53.5932 35.0053C54.6387 35.0053 54.6387 33.3881 53.5932 33.3881C52.5477 33.3799 52.5477 35.0053 53.5932 35.0053Z" fill="white"/>
<path d="M48.4886 47.1918C49.0604 47.6247 51.8293 45.0763 53.0789 42.0215C54.1163 39.4895 54.296 36.2959 53.5935 36.108C52.8993 35.9202 52.4418 40.3145 51.6087 41.9235C50.5469 43.9737 47.876 46.7344 48.4886 47.1918Z" fill="white"/>
</g>
<defs>
<linearGradient id="paint0_linear_1644_20486" x1="40" y1="0" x2="40" y2="80" gradientUnits="userSpaceOnUse">
<stop stop-color="#E3FAE8"/>
<stop offset="1" stop-color="#E3FAE8" stop-opacity="0"/>
</linearGradient>
<linearGradient id="paint1_linear_1644_20486" x1="40" y1="0" x2="40" y2="80" gradientUnits="userSpaceOnUse">
<stop stop-color="#E3FAE8"/>
<stop offset="1" stop-color="#E3FAE8" stop-opacity="0"/>
</linearGradient>
<linearGradient id="paint2_linear_1644_20486" x1="40" y1="52" x2="40" y2="94" gradientUnits="userSpaceOnUse">
<stop stop-color="#7DDEA6"/>
<stop offset="1" stop-color="white"/>
</linearGradient>
</defs>
</svg>
