<svg width="40" height="40" viewBox="0 0 40 40" fill="none" xmlns="http://www.w3.org/2000/svg">
<rect width="40" height="40" rx="8" fill="#24663F"/>
<path fill-rule="evenodd" clip-rule="evenodd" d="M19.9998 17.7736C20.9172 17.7736 21.7969 17.4092 22.4456 16.7605C23.0943 16.1119 23.4587 15.2321 23.4587 14.3148C23.4587 13.3974 23.0943 12.5177 22.4456 11.869C21.7969 11.2204 20.9172 10.856 19.9998 10.856C19.0825 10.856 18.2027 11.2204 17.5541 11.869C16.9054 12.5177 16.541 13.3974 16.541 14.3148C16.541 15.2321 16.9054 16.1119 17.5541 16.7605C18.2027 17.4092 19.0825 17.7736 19.9998 17.7736ZM19.9998 12.8324C20.393 12.8324 20.77 12.9886 21.048 13.2666C21.326 13.5446 21.4822 13.9216 21.4822 14.3148C21.4822 14.7079 21.326 15.085 21.048 15.363C20.77 15.641 20.393 15.7971 19.9998 15.7971C19.6067 15.7971 19.2297 15.641 18.9517 15.363C18.6737 15.085 18.5175 14.7079 18.5175 14.3148C18.5175 13.9216 18.6737 13.5446 18.9517 13.2666C19.2297 12.9886 19.6067 12.8324 19.9998 12.8324Z" fill="white"/>
<path d="M20.0004 23.7031C20.5246 23.7031 21.0273 23.9114 21.398 24.282C21.7686 24.6527 21.9769 25.1554 21.9769 25.6796V27.1619C21.9769 27.6861 21.7686 28.1889 21.398 28.5595C21.0273 28.9302 20.5246 29.1384 20.0004 29.1384C19.4762 29.1384 18.9735 28.9302 18.6028 28.5595C18.2322 28.1889 18.0239 27.6861 18.0239 27.1619V25.6796C18.0239 25.1554 18.2322 24.6527 18.6028 24.282C18.9735 23.9114 19.4762 23.7031 20.0004 23.7031Z" fill="white"/>
<path fill-rule="evenodd" clip-rule="evenodd" d="M24.9414 20.739C24.9414 19.4285 24.4208 18.1717 23.4942 17.2451C22.5675 16.3184 21.3107 15.7979 20.0003 15.7979C18.6898 15.7979 17.433 16.3184 16.5063 17.2451C15.5797 18.1717 15.0591 19.4285 15.0591 20.739V23.2096C15.0591 23.8649 15.3194 24.4933 15.7827 24.9566C16.246 25.4199 16.8744 25.6802 17.5297 25.6802H22.4708C23.1261 25.6802 23.7545 25.4199 24.2178 24.9566C24.6811 24.4933 24.9414 23.8649 24.9414 23.2096V20.739ZM17.0356 20.739C17.0356 19.9527 17.3479 19.1987 17.9039 18.6427C18.4599 18.0867 19.214 17.7743 20.0003 17.7743C20.7865 17.7743 21.5406 18.0867 22.0966 18.6427C22.6526 19.1987 22.965 19.9527 22.965 20.739V23.2096C22.965 23.3407 22.9129 23.4663 22.8202 23.559C22.7276 23.6517 22.6019 23.7037 22.4708 23.7037H17.5297C17.3986 23.7037 17.2729 23.6517 17.1803 23.559C17.0876 23.4663 17.0356 23.3407 17.0356 23.2096V20.739Z" fill="white"/>
<path d="M25.4354 14.3153C25.1733 14.3153 24.9219 14.2112 24.7366 14.0259C24.5513 13.8406 24.4472 13.5892 24.4472 13.3271C24.4472 13.065 24.5513 12.8136 24.7366 12.6283C24.9219 12.443 25.1733 12.3389 25.4354 12.3389H27.4119C27.674 12.3389 27.9253 12.443 28.1106 12.6283C28.296 12.8136 28.4001 13.065 28.4001 13.3271C28.4001 13.5892 28.296 13.8406 28.1106 14.0259C27.9253 14.2112 27.674 14.3153 27.4119 14.3153H25.4354ZM12.5883 14.3153C12.3262 14.3153 12.0749 14.2112 11.8895 14.0259C11.7042 13.8406 11.6001 13.5892 11.6001 13.3271C11.6001 13.065 11.7042 12.8136 11.8895 12.6283C12.0749 12.443 12.3262 12.3389 12.5883 12.3389H14.5648C14.8269 12.3389 15.0783 12.443 15.2636 12.6283C15.4489 12.8136 15.553 13.065 15.553 13.3271C15.553 13.5892 15.4489 13.8406 15.2636 14.0259C15.0783 14.2112 14.8269 14.3153 14.5648 14.3153H12.5883Z" fill="white"/>
<path d="M13.4878 13.8651L13.9582 12.4272L18.429 13.2801L17.9576 14.719L13.4878 13.8651ZM21.5716 13.2801L22.0429 14.719L26.5127 13.8651L26.0423 12.4272L21.5716 13.2801Z" fill="white"/>
</svg>
