<svg width="56" height="57" viewBox="0 0 56 57" fill="none" xmlns="http://www.w3.org/2000/svg">
<rect y="0.5" width="56" height="56" rx="8" fill="#24663F"/>
<g clip-path="url(#clip0_773_19245)">
<path d="M34.188 17.3003C34.6425 17.3002 35.0903 17.4109 35.4925 17.6226C35.8947 17.8343 36.2393 18.1408 36.4966 18.5155L36.6184 18.7115L41.6304 27.4825C41.8316 27.8347 41.9539 28.2264 41.9888 28.6305L42 28.8727V35.1699C42 35.5171 41.9354 35.8613 41.8096 36.1849L41.7046 36.4229L40.1394 39.5519C39.9241 39.983 39.6012 40.3513 39.2019 40.6211C38.8027 40.8909 38.3405 41.053 37.8602 41.0919L37.6348 41.1003H35C34.2936 41.1005 33.6132 40.8337 33.0952 40.3534C32.5773 39.8731 32.26 39.2147 32.207 38.5103L32.2 38.3003H23.8C23.8002 39.0067 23.5334 39.6871 23.0531 40.2051C22.5728 40.723 21.9144 41.0403 21.21 41.0933L21 41.1003H18.3652C17.8838 41.1001 17.4106 40.9758 16.9912 40.7394C16.5719 40.503 16.2206 40.1625 15.9712 39.7507L15.8606 39.5519L14.2954 36.4215C14.1404 36.111 14.0445 35.7744 14.0126 35.4289L14 35.1699V28.8727C14 28.4676 14.0879 28.0673 14.2576 27.6995L14.3696 27.4825L19.3816 18.7115C19.6071 18.3168 19.9254 17.9829 20.3088 17.7388C20.6922 17.4946 21.1294 17.3475 21.5824 17.3101L21.812 17.3003H34.188ZM34.188 20.1003H21.812L16.8 28.8727V35.1699L18.3652 38.3003H21V37.0403C20.9998 36.6608 21.1397 36.2946 21.3929 36.012C21.6461 35.7293 21.9948 35.5501 22.372 35.5087L22.54 35.5003H33.46C33.8395 35.5001 34.2057 35.64 34.4883 35.8932C34.771 36.1464 34.9502 36.4951 34.9916 36.8723L35 37.0403V38.3003H37.6348L39.2 35.1699V28.8727L34.188 20.1003ZM34.3756 27.2473C34.7076 27.082 35.0916 27.0553 35.4433 27.1729C35.795 27.2905 36.0857 27.5428 36.2516 27.8745C36.414 28.2074 36.4392 28.5907 36.3219 28.9421C36.2046 29.2934 35.9542 29.5847 35.6244 29.7533C33.3228 30.9013 30.534 31.3003 28 31.3003C25.4156 31.3003 22.722 30.9055 20.3812 29.7561C20.0515 29.5866 19.801 29.2951 19.6828 28.9438C19.5646 28.5924 19.5882 28.2088 19.7484 27.8745C19.9048 27.5686 20.1675 27.3303 20.4871 27.2043C20.8067 27.0783 21.1613 27.0731 21.4844 27.1899L21.8582 27.3509L22.1998 27.4867L22.5064 27.5987L22.8704 27.7191L23.2932 27.8479L23.7692 27.9753L24.297 28.1013L24.8724 28.2161C25.9042 28.405 26.951 28.5002 28 28.5003C30.1224 28.5003 32.4352 28.1755 34.3756 27.2473Z" fill="white"/>
</g>
<defs>
<clipPath id="clip0_773_19245">
<rect width="33.6" height="33.6" fill="white" transform="translate(11.2 11.7002)"/>
</clipPath>
</defs>
</svg>
