<svg width="80" height="80" viewBox="0 0 80 80" fill="none" xmlns="http://www.w3.org/2000/svg">
<circle cx="40" cy="40" r="40" fill="url(#paint0_linear_2222_14731)"/>
<mask id="mask0_2222_14731" style="mask-type:alpha" maskUnits="userSpaceOnUse" x="0" y="0" width="80" height="80">
<circle cx="40" cy="40" r="40" fill="url(#paint1_linear_2222_14731)"/>
</mask>
<g mask="url(#mask0_2222_14731)">
<mask id="path-3-inside-1_2222_14731" fill="white">
<path fill-rule="evenodd" clip-rule="evenodd" d="M23.551 87.5311C20.6389 91.5179 16.5403 94 12 94C3.16344 94 -4 84.598 -4 73C-4 61.402 3.16344 52 12 52C17.3866 52 22.1514 55.4936 25.051 60.8487C25.5234 60.744 26.0073 60.6897 26.5 60.6897C28.6993 60.6897 30.7241 61.772 32.3342 63.589C32.8365 63.076 33.4009 62.6818 34.0078 62.4346C34.1612 58.2341 36.5615 54.8966 39.5 54.8966C39.6685 54.8966 39.8353 54.9075 40 54.929C40.1647 54.9075 40.3315 54.8966 40.5 54.8966C43.4385 54.8966 45.8388 58.2341 45.9922 62.4346C46.5991 62.6818 47.1635 63.076 47.6658 63.589C49.2759 61.772 51.3007 60.6897 53.5 60.6897C53.9927 60.6897 54.4766 60.744 54.949 60.8487C57.8486 55.4936 62.6134 52 68 52C76.8366 52 84 61.402 84 73C84 84.598 76.8366 94 68 94C63.4597 94 59.3611 91.5179 56.449 87.5311C55.5206 87.9698 54.5294 88.2069 53.5 88.2069C49.1176 88.2069 45.4283 83.9093 44.3317 78.0653C42.5409 77.9874 40.9652 76.6696 40 74.6845C39.0348 76.6696 37.4591 77.9874 35.6683 78.0653C34.5717 83.9093 30.8824 88.2069 26.5 88.2069C25.4706 88.2069 24.4794 87.9697 23.551 87.5311Z"/>
</mask>
<path fill-rule="evenodd" clip-rule="evenodd" d="M23.551 87.5311C20.6389 91.5179 16.5403 94 12 94C3.16344 94 -4 84.598 -4 73C-4 61.402 3.16344 52 12 52C17.3866 52 22.1514 55.4936 25.051 60.8487C25.5234 60.744 26.0073 60.6897 26.5 60.6897C28.6993 60.6897 30.7241 61.772 32.3342 63.589C32.8365 63.076 33.4009 62.6818 34.0078 62.4346C34.1612 58.2341 36.5615 54.8966 39.5 54.8966C39.6685 54.8966 39.8353 54.9075 40 54.929C40.1647 54.9075 40.3315 54.8966 40.5 54.8966C43.4385 54.8966 45.8388 58.2341 45.9922 62.4346C46.5991 62.6818 47.1635 63.076 47.6658 63.589C49.2759 61.772 51.3007 60.6897 53.5 60.6897C53.9927 60.6897 54.4766 60.744 54.949 60.8487C57.8486 55.4936 62.6134 52 68 52C76.8366 52 84 61.402 84 73C84 84.598 76.8366 94 68 94C63.4597 94 59.3611 91.5179 56.449 87.5311C55.5206 87.9698 54.5294 88.2069 53.5 88.2069C49.1176 88.2069 45.4283 83.9093 44.3317 78.0653C42.5409 77.9874 40.9652 76.6696 40 74.6845C39.0348 76.6696 37.4591 77.9874 35.6683 78.0653C34.5717 83.9093 30.8824 88.2069 26.5 88.2069C25.4706 88.2069 24.4794 87.9697 23.551 87.5311Z" fill="url(#paint2_linear_2222_14731)"/>
<path d="M23.551 87.5311L23.7646 87.079L23.391 86.9025L23.1473 87.2362L23.551 87.5311ZM25.051 60.8487L24.6113 61.0868L24.7909 61.4185L25.1592 61.3368L25.051 60.8487ZM32.3342 63.589L31.9599 63.9206L32.3159 64.3223L32.6914 63.9389L32.3342 63.589ZM34.0078 62.4346L34.1964 62.8977L34.4957 62.7758L34.5075 62.4528L34.0078 62.4346ZM40 54.929L39.9353 55.4248L40 55.4333L40.0647 55.4248L40 54.929ZM45.9922 62.4346L45.4925 62.4528L45.5043 62.7758L45.8036 62.8977L45.9922 62.4346ZM47.6658 63.589L47.3086 63.9389L47.6841 64.3223L48.0401 63.9206L47.6658 63.589ZM54.949 60.8487L54.8408 61.3368L55.2091 61.4185L55.3887 61.0868L54.949 60.8487ZM56.449 87.5311L56.8527 87.2362L56.609 86.9025L56.2354 87.0791L56.449 87.5311ZM44.3317 78.0653L44.8231 77.9731L44.7499 77.583L44.3534 77.5658L44.3317 78.0653ZM40 74.6845L40.4497 74.4658L40 73.541L39.5503 74.4658L40 74.6845ZM35.6683 78.0653L35.6466 77.5658L35.2501 77.583L35.1769 77.9731L35.6683 78.0653ZM12 94.5C16.7351 94.5 20.9714 91.9103 23.9548 87.8261L23.1473 87.2362C20.3063 91.1255 16.3454 93.5 12 93.5V94.5ZM-4.5 73C-4.5 78.8986 -2.67896 84.2574 0.288576 88.1523C3.25643 92.0476 7.39243 94.5 12 94.5V93.5C7.77101 93.5 3.90702 91.2514 1.08401 87.5462C-1.73931 83.8406 -3.5 78.6994 -3.5 73H-4.5ZM12 51.5C7.39243 51.5 3.25643 53.9524 0.288576 57.8477C-2.67896 61.7426 -4.5 67.1014 -4.5 73H-3.5C-3.5 67.3006 -1.73931 62.1594 1.08401 58.4538C3.90702 54.7486 7.77101 52.5 12 52.5V51.5ZM25.4907 60.6106C22.5305 55.1437 17.6202 51.5 12 51.5V52.5C17.1529 52.5 21.7723 55.8436 24.6113 61.0868L25.4907 60.6106ZM26.5 60.1897C25.9704 60.1897 25.4502 60.2481 24.9428 60.3605L25.1592 61.3368C25.5967 61.2399 26.0443 61.1897 26.5 61.1897V60.1897ZM32.7084 63.2574C31.0269 61.3598 28.8744 60.1897 26.5 60.1897V61.1897C28.5243 61.1897 30.4212 62.1842 31.9599 63.9206L32.7084 63.2574ZM33.8192 61.9715C33.1404 62.248 32.5203 62.6843 31.9769 63.2392L32.6914 63.9389C33.1528 63.4677 33.6614 63.1156 34.1964 62.8977L33.8192 61.9715ZM39.5 54.3966C37.8269 54.3966 36.3564 55.3476 35.3048 56.7967C34.2524 58.2469 33.5879 60.2306 33.5081 62.4163L34.5075 62.4528C34.581 60.4381 35.1934 58.6528 36.1141 57.3841C37.0356 56.1143 38.2345 55.3966 39.5 55.3966V54.3966ZM40.0647 54.4332C39.8787 54.409 39.6903 54.3966 39.5 54.3966V55.3966C39.6468 55.3966 39.7919 55.4061 39.9353 55.4248L40.0647 54.4332ZM40.5 54.3966C40.3097 54.3966 40.1213 54.409 39.9353 54.4332L40.0647 55.4248C40.2081 55.4061 40.3532 55.3966 40.5 55.3966V54.3966ZM46.4919 62.4163C46.4121 60.2306 45.7476 58.2469 44.6952 56.7967C43.6436 55.3476 42.1731 54.3966 40.5 54.3966V55.3966C41.7655 55.3966 42.9644 56.1143 43.8859 57.3841C44.8066 58.6528 45.419 60.4381 45.4925 62.4528L46.4919 62.4163ZM48.0231 63.2392C47.4797 62.6843 46.8596 62.248 46.1808 61.9715L45.8036 62.8977C46.3386 63.1156 46.8472 63.4677 47.3086 63.9389L48.0231 63.2392ZM53.5 60.1897C51.1256 60.1897 48.9731 61.3598 47.2916 63.2574L48.0401 63.9206C49.5788 62.1842 51.4757 61.1897 53.5 61.1897V60.1897ZM55.0572 60.3605C54.5498 60.2481 54.0296 60.1897 53.5 60.1897V61.1897C53.9557 61.1897 54.4033 61.2399 54.8408 61.3368L55.0572 60.3605ZM68 51.5C62.3798 51.5 57.4695 55.1436 54.5093 60.6106L55.3887 61.0868C58.2277 55.8436 62.8471 52.5 68 52.5V51.5ZM84.5 73C84.5 67.1014 82.679 61.7426 79.7114 57.8477C76.7436 53.9524 72.6076 51.5 68 51.5V52.5C72.229 52.5 76.093 54.7486 78.916 58.4538C81.7393 62.1594 83.5 67.3006 83.5 73H84.5ZM68 94.5C72.6076 94.5 76.7436 92.0476 79.7114 88.1523C82.679 84.2574 84.5 78.8986 84.5 73H83.5C83.5 78.6994 81.7393 83.8406 78.916 87.5462C76.093 91.2514 72.229 93.5 68 93.5V94.5ZM56.0452 87.8261C59.0286 91.9103 63.2649 94.5 68 94.5V93.5C63.6546 93.5 59.6937 91.1255 56.8527 87.2362L56.0452 87.8261ZM53.5 88.7069C54.608 88.7069 55.6718 88.4513 56.6626 87.9832L56.2354 87.0791C55.3694 87.4882 54.4509 87.7069 53.5 87.7069V88.7069ZM43.8403 78.1575C44.9551 84.0986 48.7589 88.7069 53.5 88.7069V87.7069C49.4764 87.7069 45.9015 83.72 44.8231 77.9731L43.8403 78.1575ZM39.5503 74.9031C40.5626 76.985 42.2707 78.4761 44.31 78.5648L44.3534 77.5658C42.8111 77.4986 41.3679 76.3542 40.4497 74.4658L39.5503 74.9031ZM35.69 78.5648C37.7294 78.4761 39.4374 76.985 40.4497 74.9031L39.5503 74.4658C38.6321 76.3542 37.1889 77.4986 35.6466 77.5658L35.69 78.5648ZM26.5 88.7069C31.2411 88.7069 35.0449 84.0986 36.1597 78.1575L35.1769 77.9731C34.0985 83.72 30.5236 87.7069 26.5 87.7069V88.7069ZM23.3374 87.9832C24.3282 88.4513 25.392 88.7069 26.5 88.7069V87.7069C25.5491 87.7069 24.6306 87.4882 23.7646 87.079L23.3374 87.9832Z" fill="#73DCA0" mask="url(#path-3-inside-1_2222_14731)"/>
</g>
<path d="M40.5 10.3309C40.2782 10.331 40.0667 10.4223 39.9152 10.5856C39.792 10.7179 36.873 13.8814 34.5355 18.7745C32.6614 22.6943 31.7112 26.5735 31.7113 30.3042C31.7113 31.1402 31.7478 31.9902 31.8191 32.8399C28.889 33.5986 27.7515 35.417 27.3172 36.8513C26.3172 40.154 28.1117 44.6117 30.3477 46.8476C30.5763 47.0759 30.92 47.1443 31.2184 47.0206C31.3173 46.9797 31.4048 46.9204 31.4776 46.8476C31.6246 46.7005 31.7116 46.4986 31.7117 46.2825C31.7117 44.0134 33.182 42.685 33.6993 42.288L34.095 42.288C34.6321 43.6038 35.2397 44.8388 35.9057 45.9648C36.1469 46.3721 36.5181 46.6873 36.9554 46.8777C36.6622 47.6723 36.5055 48.5651 36.5055 49.4789C36.5055 52.3873 39.7543 56.2267 39.8925 56.3887C40.0443 56.5665 40.2664 56.669 40.5001 56.669C40.7128 56.6689 40.9159 56.5842 41.065 56.435C41.0798 56.4202 41.0941 56.4048 41.1078 56.3887C41.2461 56.2268 44.495 52.3873 44.495 49.479C44.495 48.5655 44.3383 47.6728 44.0451 46.8783C44.5081 46.6767 44.8662 46.3508 45.0949 45.9644C45.7606 44.8388 46.3682 43.6041 46.9054 42.2881L47.3011 42.2881C47.8183 42.6852 49.2887 44.0137 49.2886 46.2826C49.2887 46.6057 49.4833 46.897 49.7818 47.0206C50.0803 47.1443 50.4239 47.076 50.6524 46.8475C52.8884 44.6115 54.6829 40.1538 53.6829 36.8512C53.2487 35.417 52.1111 33.5986 49.181 32.8398C49.2523 31.9906 49.2888 31.1405 49.2888 30.3042C49.2888 26.5734 48.3385 22.6943 46.4647 18.7747C44.1271 13.8814 41.2079 10.7178 41.0848 10.5856C40.9337 10.4232 40.7219 10.331 40.5 10.3309ZM30.3956 44.3695C29.0482 42.3202 28.2039 39.4372 28.8466 37.3141C29.2763 35.8954 30.3349 34.9337 31.9969 34.4476C32.2853 36.566 32.7863 38.658 33.4923 40.6902C33.4787 40.6934 33.2492 40.6673 33.0177 40.8136C32.9224 40.8737 31.1062 42.0469 30.3956 44.3695ZM42.8971 49.4789C42.8971 51.0325 41.4846 53.2643 40.5001 54.5833C39.5157 53.2642 38.1033 51.0324 38.1033 49.4789C38.1033 48.6089 38.2779 47.7748 38.5991 47.082H42.4013C42.7225 47.7748 42.8971 48.6089 42.8971 49.4789ZM43.7198 45.1506C43.5982 45.3559 43.3473 45.4839 43.066 45.4841C41.6043 45.4841 41.0325 45.4841 40.8531 45.4841C40.5241 45.4841 39.7172 45.4841 37.9351 45.4841C37.653 45.4838 37.4022 45.3559 37.2808 45.151C36.757 44.2654 36.2707 43.3057 35.8285 42.288L45.1719 42.288C44.7296 43.3059 44.2434 44.2654 43.7198 45.1506ZM52.1537 37.3141C52.7964 39.4372 51.9522 42.3201 50.6048 44.3693C50.1273 42.8089 48.9496 41.3923 47.9652 40.8036C47.7365 40.6669 47.5255 40.6942 47.508 40.6901C48.214 38.658 48.7149 36.5661 49.0035 34.4475C50.6655 34.9338 51.7242 35.8956 52.1537 37.3141ZM47.6911 30.3041C47.691 31.3221 47.6346 32.3621 47.5234 33.3949C47.2555 35.8773 46.6798 38.3288 45.8117 40.6902L35.1888 40.6903C34.3205 38.3288 33.7449 35.8773 33.477 33.3952C33.3658 32.3615 33.3093 31.3216 33.3094 30.304C33.3093 26.9567 34.1373 23.4648 35.7665 19.9179L45.2338 19.9179C46.8632 23.4646 47.6911 26.9566 47.6911 30.3041ZM44.4488 18.32L36.5516 18.32C38.0347 15.5005 39.656 13.3787 40.5002 12.3546C41.3446 13.3789 42.9659 15.5008 44.4488 18.32Z" fill="#27AE60"/>
<circle cx="40.2092" cy="27.5087" r="2.91461" stroke="#F7941D" stroke-width="1.5"/>
<line x1="40.552" y1="33.552" x2="40.552" y2="38.5669" stroke="#F7941D" stroke-width="1.5" stroke-linecap="round" stroke-linejoin="round"/>
<defs>
<linearGradient id="paint0_linear_2222_14731" x1="40" y1="0" x2="40" y2="80" gradientUnits="userSpaceOnUse">
<stop stop-color="#E3FAE8"/>
<stop offset="1" stop-color="#E3FAE8" stop-opacity="0"/>
</linearGradient>
<linearGradient id="paint1_linear_2222_14731" x1="40" y1="0" x2="40" y2="80" gradientUnits="userSpaceOnUse">
<stop stop-color="#E3FAE8"/>
<stop offset="1" stop-color="#E3FAE8" stop-opacity="0"/>
</linearGradient>
<linearGradient id="paint2_linear_2222_14731" x1="40" y1="52" x2="40" y2="94" gradientUnits="userSpaceOnUse">
<stop stop-color="#7DDEA6"/>
<stop offset="1" stop-color="white"/>
</linearGradient>
</defs>
</svg>
