<svg width="56" height="56" viewBox="0 0 56 56" fill="none" xmlns="http://www.w3.org/2000/svg">
<path d="M47.7377 38.8451C46.9296 37.0304 46.1003 35.2299 45.2922 33.4223C45.0795 32.9403 44.7251 32.7205 44.2005 32.7276C43.3286 32.7347 42.4567 32.7205 41.5848 32.7347C41.3438 32.7418 41.2375 32.6567 41.1382 32.437C40.3656 30.7003 39.5646 28.9706 38.799 27.2339C38.5438 26.6456 38.161 26.3762 37.5089 26.4046C36.637 26.44 35.7651 26.3975 34.8932 26.4187C34.6167 26.4258 34.4891 26.3408 34.3757 26.0927C33.603 24.356 32.7949 22.6334 32.0365 20.8896C31.7813 20.3084 31.3985 20.0673 30.7747 20.0744C28.3362 20.0886 25.8906 20.0886 23.4522 20.0744C22.8284 20.0673 22.4385 20.3154 22.1904 20.8896C21.4177 22.6405 20.6167 24.3843 19.837 26.1352C19.7377 26.3549 19.6243 26.4258 19.3904 26.4258C18.4334 26.4116 17.4835 26.4258 16.5266 26.4187C16.0516 26.4116 15.7256 26.6243 15.5271 27.0567C15.442 27.241 15.357 27.4253 15.2719 27.6167C15.0592 28.1058 15.0947 28.2618 15.4916 28.6091C16.0233 28.6871 16.1934 28.6162 16.399 28.0916C16.5337 27.7443 16.718 27.638 17.0866 27.6451C18.7311 27.6734 20.3757 27.6663 22.0203 27.6663C22.0841 27.6947 22.1266 27.7301 22.1691 27.7727C22.6441 27.7656 23.1261 27.7797 23.601 27.7585C23.9129 27.7514 24.1043 27.8648 24.2319 28.1554C24.8344 29.5165 25.444 30.8633 26.0608 32.2172C26.2167 32.5575 26.1884 32.6 25.7914 32.6071C25.3094 32.6142 24.8344 32.6071 24.3595 32.6071C24.3524 32.6425 24.3453 32.678 24.317 32.7134C21.439 32.7205 18.5539 32.7205 15.676 32.7276C15.2435 32.7276 14.8111 32.7276 14.3291 32.7276C14.4638 32.4228 14.5843 32.1534 14.7048 31.8841C14.9246 31.3808 14.8891 31.2106 14.478 30.8633C14.0314 30.7641 13.7549 30.9484 13.5848 31.3595C13.4359 31.721 13.2516 32.0684 13.1099 32.437C13.0248 32.6567 12.9043 32.7347 12.6562 32.7347C11.7063 32.7205 10.7494 32.7489 9.79949 32.7205C9.15443 32.6992 8.77165 32.9686 8.51646 33.557C7.69418 35.4142 6.84354 37.2572 6 39.1003C6 39.2633 6 39.4263 6 39.5894C6.25519 40.1494 6.70886 40.2982 7.29013 40.2982C11.841 40.2841 16.3919 40.2911 20.9357 40.2911C24.9691 40.2911 29.0025 40.2911 33.0359 40.2911C33.277 40.2911 33.5251 40.2557 33.7661 40.2628C35.1838 40.3266 36.6015 40.277 38.0121 40.2911C38.4162 40.2982 38.6856 40.1139 38.7494 39.6886C38.6359 39.1853 38.4729 39.0506 37.92 39.0506C36.8425 39.0435 35.7722 39.0506 34.6947 39.0435C34.5671 39.0435 34.3403 39.1144 34.4678 38.838C35.198 37.236 35.9352 35.6339 36.6724 34.0319C36.7858 33.961 36.9134 33.9965 37.0268 33.9965C38.6076 33.9965 40.1884 34.0035 41.762 33.9823C41.918 33.9823 42.0314 34.0106 42.1306 34.0603C42.6268 34.0603 43.123 34.0603 43.6192 34.0603C43.9524 34.0603 44.1509 34.1878 44.2785 34.4856C44.8881 35.8537 45.5048 37.2218 46.1286 38.5757C46.2562 38.8522 46.164 38.9018 45.9018 38.9018C45.3985 38.8947 44.8952 38.8947 44.3919 38.9018C44.3848 38.9443 44.3777 38.9797 44.3494 39.0223C43.6192 39.0294 42.8891 39.0365 42.159 39.0435C41.6203 39.0506 41.4714 39.157 41.3154 39.6673C41.3934 40.0714 41.6344 40.2841 42.0527 40.2841C43.6476 40.2841 45.2425 40.2982 46.8375 40.277C47.6881 40.2699 48.0851 39.6177 47.7377 38.8451ZM21.5737 26.3762C21.4248 26.3762 21.276 26.4116 21.1342 26.3408C21.3468 25.6673 21.6871 25.0506 21.9706 24.4056C22.3818 23.4628 22.8213 22.5271 23.2466 21.5843C23.3104 21.4496 23.3529 21.3149 23.5514 21.322C25.3094 21.3362 27.0603 21.3433 28.8182 21.3504C28.9529 21.4284 29.0238 21.563 29.0876 21.6977C29.7256 23.0516 30.3139 24.4268 30.9448 25.7878C30.9732 25.8516 30.9944 25.9154 31.0157 25.9792C31.1291 26.3337 31.0937 26.3833 30.718 26.3833C29.6122 26.3833 28.5134 26.3833 27.4076 26.3833C25.4653 26.3762 23.523 26.3762 21.5737 26.3762ZM25.4866 27.6592C26.5924 27.6592 27.6486 27.6592 28.7403 27.6592C28.2015 28.8572 27.6699 30.0268 27.1099 31.2673C26.557 30.0197 26.0253 28.8501 25.4866 27.6592ZM17.363 39.0223C16.803 39.0294 16.2501 39.0435 15.6901 39.0435C13.0886 39.0435 10.4871 39.0435 7.88557 39.0435C7.7438 39.0435 7.58785 39.0861 7.41772 38.9868C7.69418 38.3701 7.97063 37.7534 8.25418 37.1367C8.72911 36.1018 9.20405 35.0668 9.68608 34.0319C9.78532 33.9681 9.89873 33.9965 10.0051 33.9965C11.6142 33.9965 13.2162 34.0035 14.8253 33.9894C15.1301 33.9894 15.2932 34.0886 15.4208 34.3651C16.0446 35.7261 16.6471 37.0942 17.2709 38.4552C17.3489 38.6253 17.4835 38.8096 17.363 39.0223ZM20.1914 37.5904C19.6314 36.357 19.0997 35.1803 18.5468 33.961C19.603 33.961 20.5954 33.961 21.5808 33.961C21.7367 33.961 21.8218 33.9823 21.7367 34.1666C21.2334 35.2795 20.723 36.4066 20.1914 37.5904ZM30.8597 39.0223C30.4132 39.0294 29.9666 39.0435 29.5129 39.0435C26.7767 39.0435 24.0405 39.0435 21.3114 39.0506C21.0137 39.0506 20.879 39.0365 21.042 38.6891C21.7651 37.1438 22.4739 35.5843 23.1828 34.0319C23.282 33.9681 23.3954 33.9965 23.5018 33.9965C25.1109 33.9965 26.7129 34.0035 28.322 33.9894C28.6268 33.9894 28.7899 34.0886 28.9175 34.3651C29.5484 35.7261 30.1509 37.0942 30.7676 38.4552C30.8456 38.6253 30.9873 38.8096 30.8597 39.0223ZM33.681 37.5691C33.1281 36.3428 32.6035 35.1803 32.0577 33.9823C33.1423 33.9823 34.1914 33.9823 35.2972 33.9823C34.7656 35.1661 34.241 36.3357 33.681 37.5691ZM37.8137 32.7063C35.5524 32.7134 33.2911 32.7134 31.0299 32.7205C29.9808 32.7205 28.9316 32.7205 27.8825 32.7205C27.84 32.5716 27.9322 32.4795 27.9818 32.3732C28.6481 30.8987 29.3073 29.4243 29.9737 27.9499C30.0446 27.7939 30.08 27.6309 30.3281 27.638C32.0861 27.6522 33.8441 27.6522 35.602 27.6592C35.8997 28.0208 36.0132 28.4744 36.2116 28.8927C36.7575 30.041 37.2678 31.2106 37.7924 32.3661C37.842 32.4724 37.9129 32.5858 37.8137 32.7063Z" fill="#235347"/>
<path d="M21.1342 26.3407C24.2815 26.3407 27.4288 26.3407 30.5762 26.3407C31.0299 26.3407 31.0511 26.3337 30.8668 25.9225C30.3068 24.6537 29.7326 23.3919 29.1655 22.1301C29.0521 21.8678 28.9316 21.6056 28.8182 21.3504C29.4278 21.3433 30.0445 21.3362 30.6542 21.3291C30.8101 21.3291 30.8952 21.3716 30.9661 21.5276C31.6891 23.1367 32.4192 24.7458 33.1493 26.3691C33.0217 26.4542 32.9012 26.4187 32.7878 26.4187C29.0309 26.4187 25.2668 26.4258 21.5099 26.4187C21.3823 26.4045 21.2334 26.4825 21.1342 26.3407Z" fill="#8EB69B"/>
<path d="M44.3565 39.0223C43.9595 38.1149 43.5626 37.2076 43.1585 36.3073C42.8821 35.6906 42.5772 35.081 42.3221 34.4501C42.1874 34.1311 42.0102 34.0177 41.6486 34.0177C39.9899 34.039 38.3312 34.0248 36.6653 34.0248C36.7362 33.8901 36.8567 33.9539 36.956 33.9539C39.2598 33.9539 41.5636 33.9539 43.8674 33.9468C44.0942 33.9468 44.2005 34.0106 44.2927 34.2162C44.959 35.719 45.6395 37.2218 46.3271 38.7104C46.4547 38.9939 46.398 39.0506 46.1074 39.0435C45.5261 39.0294 44.9448 39.0294 44.3565 39.0223Z" fill="#8EB69B"/>
<path d="M30.8598 39.0223C30.5904 38.2071 30.1793 37.4557 29.839 36.6689C29.5058 35.882 29.1089 35.1235 28.7757 34.3296C28.6694 34.0744 28.5347 34.0177 28.2866 34.0177C26.5853 34.0248 24.8841 34.0177 23.1757 34.0177C23.275 33.8759 23.4238 33.9468 23.5514 33.9468C25.8127 33.9397 28.0669 33.9468 30.3281 33.9468C30.5124 33.9468 30.6826 33.9185 30.7889 34.1595C31.4765 35.7261 32.1924 37.2785 32.8942 38.838C32.9155 38.8876 32.9226 38.9372 32.9367 39.0081C32.242 39.0223 31.5474 39.0223 30.8598 39.0223Z" fill="#8EB69B"/>
<path d="M17.3631 39.0223C17.0653 38.1433 16.6188 37.3352 16.2572 36.4845C15.9453 35.7615 15.5838 35.0597 15.2861 34.3296C15.1798 34.0673 15.038 34.0177 14.797 34.0177C13.0957 34.0248 11.3945 34.0177 9.6861 34.0177C9.75698 33.8901 9.87749 33.9468 9.97673 33.9468C12.2805 33.9468 14.5843 33.9468 16.8881 33.9397C17.115 33.9397 17.2213 34.0106 17.3134 34.2162C17.9939 35.7473 18.6886 37.2643 19.3762 38.7954C19.4046 38.8521 19.4188 38.923 19.4542 39.0152C18.7382 39.0223 18.0507 39.0223 17.3631 39.0223Z" fill="#8EB69B"/>
<path d="M24.3099 32.7063C23.8846 31.7494 23.4663 30.7924 23.0339 29.8425C22.7008 29.1124 22.3605 28.3894 22.0203 27.6592C22.6441 27.6521 23.2679 27.6521 23.8917 27.6451C24.0476 27.6451 24.1398 27.6947 24.2036 27.8364C24.9124 29.4172 25.6284 30.998 26.3372 32.5858C26.3514 32.6213 26.3372 32.6638 26.3372 32.7134C25.6638 32.7063 24.9904 32.7063 24.3099 32.7063Z" fill="#8EB69B"/>
<path d="M37.8137 32.7063C37.3813 31.7281 36.9347 30.757 36.5094 29.7787C36.2046 29.0699 35.8147 28.4035 35.6021 27.6592C36.1975 27.6521 36.8 27.6521 37.3955 27.638C37.5514 27.638 37.6436 27.6734 37.7074 27.8223C38.4162 29.4101 39.1322 30.9909 39.8481 32.5716C39.8623 32.6071 39.8481 32.6496 39.8481 32.6992C39.1676 32.7063 38.4871 32.7063 37.8137 32.7063Z" fill="#8EB69B"/>
<path d="M24.3453 32.7063C21.4674 32.7134 18.5823 32.7134 15.7043 32.7205C15.2719 32.7205 14.8395 32.7205 14.3575 32.7205C14.4922 32.4157 14.6127 32.1463 14.7332 31.877C14.9529 31.3737 14.9175 31.2035 14.5063 30.8562C14.8466 30.0977 15.1939 29.3463 15.5342 28.5879C16.0658 28.6658 16.236 28.5949 16.4415 28.0704C16.5762 27.723 16.7605 27.6167 17.1291 27.6238C18.7737 27.6522 20.4182 27.6451 22.0628 27.6451C22.2613 27.7301 22.3251 27.9144 22.4031 28.0846C23.041 29.5094 23.679 30.9342 24.3312 32.3519C24.3666 32.4724 24.4446 32.5858 24.3453 32.7063Z" fill="#DAF1DE"/>
<path d="M44.3919 39.0223C43.6618 39.0294 42.9316 39.0365 42.2015 39.0435C41.6628 39.0506 41.5139 39.157 41.358 39.6673C40.5002 39.6744 39.6425 39.6744 38.7848 39.6815C38.6714 39.1782 38.5083 39.0435 37.9554 39.0435C36.878 39.0365 35.8076 39.0435 34.7301 39.0365C34.6025 39.0365 34.3757 39.1073 34.5033 38.8309C35.2334 37.2289 35.9706 35.6268 36.7078 34.0248C36.8213 33.9539 36.9488 33.9894 37.0623 33.9894C38.643 33.9894 40.2238 33.9965 41.7975 33.9752C42.1448 33.9681 42.322 34.0957 42.4496 34.3934C43.0734 35.8111 43.7397 37.2147 44.3564 38.6395C44.4202 38.76 44.484 38.8876 44.3919 39.0223Z" fill="#DAF1DE"/>
<path d="M37.842 32.7063C35.5807 32.7134 33.3195 32.7134 31.0582 32.7205C30.0091 32.7205 28.96 32.7205 27.9109 32.7205C27.8683 32.5716 27.9605 32.4795 28.0101 32.3732C28.6764 30.8987 29.3357 29.4243 30.002 27.9499C30.0729 27.7939 30.1083 27.6309 30.3564 27.638C32.1144 27.6522 33.8724 27.6522 35.6304 27.6592C35.9281 28.0208 36.0415 28.4744 36.24 28.8927C36.7858 30.041 37.2962 31.2106 37.8207 32.3732C37.8704 32.4724 37.9413 32.5858 37.842 32.7063Z" fill="#DAF1DE"/>
<path d="M17.3914 39.0223C16.8314 39.0294 16.2785 39.0436 15.7185 39.0436C13.117 39.0436 10.5155 39.0436 7.91395 39.0436C7.77218 39.0436 7.61623 39.0861 7.44611 38.9868C7.72256 38.3701 7.99902 37.7534 8.28256 37.1367C8.7575 36.1018 9.23244 35.0668 9.71446 34.0319C9.8137 33.9681 9.92712 33.9965 10.0334 33.9965C11.6426 33.9965 13.2446 34.0036 14.8537 33.9894C15.1585 33.9894 15.3215 34.0886 15.4491 34.3651C16.0729 35.7261 16.6755 37.0942 17.2993 38.4552C17.3772 38.6253 17.5119 38.8096 17.3914 39.0223Z" fill="#DAF1DE"/>
<path d="M30.8881 39.0223C30.4415 39.0294 29.9949 39.0436 29.5413 39.0436C26.8051 39.0436 24.0689 39.0436 21.3398 39.0506C21.042 39.0506 20.9073 39.0365 21.0704 38.6891C21.7934 37.1438 22.5023 35.5843 23.2111 34.0319C23.3104 33.9681 23.4238 33.9965 23.5301 33.9965C25.1392 33.9965 26.7413 34.0036 28.3504 33.9894C28.6552 33.9894 28.8182 34.0886 28.9458 34.3651C29.5767 35.7261 30.1792 37.0942 30.796 38.4552C30.8739 38.6253 31.0157 38.8096 30.8881 39.0223Z" fill="#DAF1DE"/>
<path d="M21.1625 26.3407C21.3752 25.6673 21.7154 25.0506 21.999 24.4056C22.4101 23.4628 22.8496 22.5271 23.2749 21.5843C23.3387 21.4496 23.3813 21.3149 23.5798 21.322C25.3377 21.3362 27.0886 21.3433 28.8466 21.3504C28.9813 21.4283 29.0522 21.563 29.116 21.6977C29.7539 23.0516 30.3423 24.4268 30.9732 25.7878C31.0015 25.8516 31.0228 25.9154 31.0441 25.9792C31.1575 26.3337 31.122 26.3833 30.7463 26.3833C29.6405 26.3833 28.5418 26.3833 27.436 26.3833C25.4866 26.3833 23.5443 26.3833 21.5949 26.3833C21.4532 26.3762 21.3043 26.4116 21.1625 26.3407Z" fill="#DAF1DE"/>
<path d="M35.3894 23.64C35.3823 23.5762 35.4248 23.4911 35.4674 23.399C36.3393 21.6765 37.2183 19.961 38.0901 18.2385C38.4233 17.5792 38.7636 16.92 39.0967 16.2608C39.2102 16.0339 39.3945 15.9347 39.6213 15.963C39.919 15.9985 40.1175 16.3175 40.0183 16.601C40.0041 16.6435 39.9899 16.679 39.9686 16.7144C38.7565 19.0962 37.5514 21.4709 36.3393 23.8527C36.1833 24.1646 35.8572 24.2567 35.595 24.0724C35.4603 23.9803 35.3894 23.8456 35.3894 23.64Z" fill="#235347"/>
<path d="M42.0456 21.5063C41.9889 21.0952 41.8188 20.7478 41.5352 20.443C41.0177 19.8901 40.1317 19.7058 39.437 20.0248C38.4304 20.4785 38.0264 21.6197 38.5226 22.6051C38.877 23.3068 39.6142 23.6967 40.3939 23.6046C41.2091 23.5053 41.8117 22.9524 42.0101 22.1585C42.0243 22.0947 42.0172 22.0238 42.0598 21.9671C42.0598 21.8253 42.0598 21.6835 42.0598 21.5418C42.0456 21.5347 42.0527 21.5205 42.0456 21.5063ZM40.1884 22.6192C39.7064 22.6192 39.3023 22.2152 39.3023 21.7261C39.3094 21.244 39.7064 20.8471 40.1884 20.8471C40.6704 20.8471 41.0674 21.244 41.0745 21.7261C41.0815 22.2223 40.6704 22.6263 40.1884 22.6192Z" fill="#235347"/>
<path d="M35.2759 16.516C34.2623 16.4947 33.4116 17.3311 33.3904 18.3661C33.3762 19.3939 34.2056 20.2446 35.2547 20.2587C36.2967 20.2587 37.1261 19.4223 37.1403 18.4015C37.1544 17.3808 36.3251 16.5372 35.2759 16.516ZM35.2547 19.2734C34.7727 19.2663 34.3686 18.8552 34.3828 18.3803C34.3899 17.8841 34.801 17.4942 35.2972 17.5013C35.7722 17.5084 36.1691 17.9266 36.1549 18.4086C36.1408 18.8906 35.7296 19.2805 35.2547 19.2734Z" fill="#235347"/>
<path d="M37.7215 13C33.8157 13 30.64 16.2041 30.6612 20.1099C30.6825 23.9944 33.8582 27.1347 37.7428 27.1347C41.6415 27.1276 44.8172 23.9519 44.8101 20.0603C44.7888 16.1615 41.6202 13 37.7215 13ZM37.6364 25.6106C34.6309 25.5752 32.1498 23.0587 32.1782 20.0673C32.2066 16.9413 34.7088 14.4886 37.8349 14.5241C40.8263 14.5595 43.3002 17.083 43.279 20.0886C43.2648 23.1792 40.7483 25.6461 37.6364 25.6106Z" fill="#235347"/>
</svg>
