<svg width="56" height="56" viewBox="0 0 56 56" fill="none" xmlns="http://www.w3.org/2000/svg">
<g id="Icon/Pinjaman 1">
<path id="Vector" d="M45.0198 27.844C45.0056 27.7235 44.9772 27.603 45.0836 27.5038C45.0836 27.6172 45.0836 27.7235 45.0836 27.8369C45.0623 27.8369 45.041 27.8369 45.0198 27.844Z" fill="#2F2F2F"/>
<g id="Group 13966">
<g id="Group 13964">
<g id="Group 13967">
<path id="Vector_2" d="M15.1235 33.7792C15.1235 33.7792 17.3965 33.1915 19.4358 33.85C21.1282 34.3953 22.6081 35.7477 22.6081 35.7477C22.6081 35.7477 26.793 37.2064 27.7136 37.6101C28.8819 38.1199 28.7545 39.7556 27.1683 39.614C24.69 39.3945 21.985 39.0333 21.985 39.0333" stroke="#235347" stroke-width="1.24609" stroke-miterlimit="10" stroke-linecap="round" stroke-linejoin="round"/>
<path id="Vector_3" d="M28.3579 38.0137C28.3579 38.0137 31.2612 37.6455 32.7836 37.596C33.4705 37.5747 34.0299 37.7163 34.3981 38.1908C34.7096 38.5944 34.8017 39.0688 34.8017 39.0688C34.8017 39.0688 25.044 41.5755 24.1093 41.7667C23.4154 41.9154 22.7002 41.9225 21.7726 41.618C20.5334 41.2144 18.2887 40.3859 17.177 40.0106C16.2989 39.7203 14.649 39.7203 14.649 39.7203" stroke="#235347" stroke-width="1.24609" stroke-miterlimit="10" stroke-linecap="round" stroke-linejoin="round"/>
<path id="Vector_4" d="M10.1314 41.7312L14.1818 40.9594L15.0881 32.8162H11.7034L10.1314 41.7312Z" stroke="#235347" stroke-width="1.24609" stroke-miterlimit="10"/>
<path id="Vector_5" d="M8.07081 31.1381L8 43.3175L11.4626 42.6943L12.7514 32.0019L8.07081 31.1381Z" fill="#DAF1DE" stroke="#235347" stroke-width="1.24609" stroke-miterlimit="10" stroke-linecap="round" stroke-linejoin="round"/>
</g>
<g id="Group">
<g id="Group_2">
<path id="Vector_6" d="M26.9802 30.931L25.1533 34.7264H33.7497L32.0007 30.931H26.9802Z" fill="#DAF1DE" stroke="#235347" stroke-width="1.24609" stroke-miterlimit="10" stroke-linecap="round" stroke-linejoin="round"/>
<path id="Vector_7" d="M35.4634 30.931L33.6365 34.7264H42.2399L40.4838 30.931H35.4634Z" fill="#DAF1DE" stroke="#235347" stroke-width="1.24609" stroke-miterlimit="10" stroke-linecap="round" stroke-linejoin="round"/>
<path id="Vector_8" d="M30.7402 26.8948L28.9133 30.6902H37.5097L35.7607 26.8948H30.7402Z" fill="#DAF1DE" stroke="#235347" stroke-width="1.24609" stroke-miterlimit="10" stroke-linecap="round" stroke-linejoin="round"/>
</g>
<path id="Vector_9" d="M40.1015 31.5258L41.2911 34.1316H40.2077C40.2077 34.1316 39.1668 31.7595 39.1314 31.717C39.096 31.6745 39.1243 31.5683 38.5649 31.5754C38.0055 31.5754 35.8316 31.5683 35.8316 31.5683V31.5329H40.1015V31.5258Z" fill="#8EB69B"/>
<path id="Vector_10" d="M31.6112 31.5258L32.8009 34.1316H31.7175C31.7175 34.1316 30.6765 31.7595 30.6411 31.717C30.6057 31.6674 30.6341 31.5683 30.0747 31.5754C29.5153 31.5754 27.3414 31.5683 27.3414 31.5683V31.5329H31.6112V31.5258Z" fill="#8EB69B"/>
<path id="Vector_11" d="M35.3642 27.4967L36.5538 30.1025H35.4704C35.4704 30.1025 34.4295 27.7303 34.3941 27.6879C34.3587 27.6383 34.387 27.5392 33.8276 27.5462C33.2682 27.5462 31.0943 27.5392 31.0943 27.5392V27.5038H35.3642V27.4967Z" fill="#8EB69B"/>
</g>
</g>
<g id="Group 13965">
<path id="Vector_12" d="M26.1375 18.668C26.4884 20.9848 29.4847 19.5323 29.4019 20.6159C29.2166 23.0168 27.7614 25.2474 25.4074 26.2972C21.9928 27.8201 17.9904 26.2866 16.4676 22.872C14.9448 19.4574 16.4783 15.455 19.8929 13.9322C23.2105 12.4527 27.0854 13.8569 28.6964 17.0694C28.7461 17.1635 25.9337 17.3245 26.1375 18.668Z" fill="#DAF1DE"/>
<g id="Group_3">
<path id="Vector_13" d="M48 23.1146L43.6911 13.4528L40.892 13.887L41.5144 23.2623L48 23.1146Z" fill="#8EB69B" stroke="#235347" stroke-width="1.24609" stroke-miterlimit="10"/>
<path id="Vector_14" d="M26.1825 14.4228C26.1825 14.4228 29.9367 12.5314 31.3251 11.9588C31.9093 11.7215 32.5915 11.6343 33.4762 11.9841C36.1615 13.0505 40.6293 14.8106 40.6293 14.8106" stroke="#235347" stroke-width="1.24609" stroke-miterlimit="10"/>
<g id="Group_4">
<path id="Vector_15" d="M29.6023 18.0227C29.1891 17.1137 28.5762 16.2783 27.7701 15.5834C24.7629 12.9781 20.2122 13.3096 17.6069 16.3167C15.0016 19.3239 15.3331 23.8746 18.3403 26.4799C21.3475 29.0852 25.8981 28.7537 28.5034 25.7465C29.6256 24.4553 30.1994 22.8735 30.26 21.2881" stroke="#235347" stroke-width="1.24609" stroke-miterlimit="10"/>
</g>
<path id="Vector_16" d="M41.3467 21.4609C41.3467 21.4609 39.8979 22.5412 37.8322 22.5165C35.8141 22.4939 33.5176 21.3084 33.5176 21.3084C33.5176 21.3084 29.6107 21.2752 28.0511 21.2032C26.2133 21.1157 25.8702 18.7643 27.9103 18.436C29.7203 18.1483 33.489 17.5065 33.489 17.5065" stroke="#235347" stroke-width="1.24609" stroke-miterlimit="10"/>
</g>
<g id="Group_5">
<path id="Vector_17" d="M21.9236 22.0669L20.6163 21.3784L20.352 21.5506L21.0429 22.6303L20.4883 22.9862L18.7153 20.2103L19.7591 19.5432C19.9775 19.4071 20.1809 19.3241 20.3815 19.3045C20.582 19.2848 20.7582 19.3148 20.9165 19.3915C21.0748 19.4682 21.2058 19.5881 21.3095 19.7512C21.4284 19.9308 21.4797 20.1328 21.467 20.3477C21.4543 20.5627 21.3597 20.7678 21.1867 20.9535L22.5694 21.6549L21.9236 22.0669ZM20.0854 21.1267L20.5488 20.827C20.6989 20.7291 20.7894 20.6189 20.8165 20.506C20.8473 20.3838 20.8148 20.2587 20.7348 20.1315C20.6549 20.0044 20.5505 19.9269 20.434 19.909C20.3146 19.8848 20.1766 19.923 20.0265 20.021L19.5631 20.3207L20.0854 21.1267Z" fill="#235347" stroke="#235347" stroke-width="0.383412" stroke-miterlimit="10"/>
<path id="Vector_18" d="M22.5268 18.6733C22.6093 18.528 22.7292 18.397 22.8923 18.2932C23.0784 18.1715 23.2839 18.1108 23.4902 18.1041C23.7059 18.1009 23.9066 18.151 24.1073 18.2708C24.3052 18.3842 24.4751 18.5565 24.6206 18.7785C24.7661 19.0004 24.8477 19.2354 24.8724 19.4648C24.8971 19.6941 24.8593 19.9048 24.7682 20.1005C24.6772 20.2961 24.5372 20.4516 24.3482 20.5669C24.1852 20.6706 24.0242 20.7269 23.8588 20.7386C23.6935 20.7504 23.5389 20.734 23.3986 20.6803L24.2703 22.0438L23.7157 22.3996L21.6345 19.141L22.1891 18.7852L22.3936 19.1048C22.4028 18.9689 22.4443 18.8186 22.5268 18.6733ZM23.7551 18.8543C23.6407 18.7891 23.5213 18.7648 23.4005 18.7721C23.2797 18.7795 23.164 18.8156 23.0627 18.884C22.9614 18.9524 22.8817 19.0345 22.8294 19.1431C22.777 19.2517 22.7528 19.3711 22.7594 19.5077C22.766 19.6443 22.8144 19.7701 22.8972 19.9037C22.9801 20.0373 23.0837 20.1307 23.1981 20.1959C23.3125 20.2612 23.4348 20.292 23.5556 20.2846C23.6763 20.2773 23.7856 20.2441 23.8898 20.1821C23.991 20.1137 24.0708 20.0316 24.1296 19.9201C24.1819 19.8115 24.2062 19.6921 24.1996 19.5555C24.1929 19.4189 24.1417 19.2867 24.0588 19.1531C23.9731 19.013 23.8666 18.9132 23.7551 18.8543Z" fill="#235347" stroke="#235347" stroke-width="0.383412" stroke-miterlimit="10"/>
</g>
</g>
</g>
</g>
</svg>
