<svg width="53" height="52" viewBox="0 0 53 52" fill="none" xmlns="http://www.w3.org/2000/svg">
<circle cx="26.5" cy="26" r="26" fill="url(#paint0_linear_1185_3049)"/>
<path d="M39.2516 34.1418H30.958C30.8304 34.1418 30.7392 34.0202 30.7757 33.8987L31.8754 30.2471C31.8997 30.1681 31.9726 30.1134 32.0577 30.1134H38.1519C38.2369 30.1134 38.3099 30.1681 38.3342 30.2471L39.4339 33.8987C39.4704 34.0142 39.3792 34.1418 39.2516 34.1418Z" fill="#DAF1DE" stroke="#235347" stroke-width="1.33" stroke-miterlimit="10"/>
<path d="M33.7529 39.8228H25.4531C25.3255 39.8228 25.2344 39.7012 25.2709 39.5797L26.3706 35.9281C26.3949 35.8491 26.4678 35.7944 26.5529 35.7944H32.6531C32.7382 35.7944 32.8111 35.8491 32.8354 35.9281L33.9352 39.5797C33.9716 39.7012 33.8805 39.8228 33.7529 39.8228Z" fill="#DAF1DE" stroke="#235347" stroke-width="1.33" stroke-miterlimit="10"/>
<path d="M44.1488 39.8228H35.8491C35.7215 39.8228 35.6303 39.7012 35.6668 39.5797L36.7665 35.9281C36.7908 35.8491 36.8638 35.7944 36.9488 35.7944H43.0491C43.1341 35.7944 43.207 35.8491 43.2313 35.9281L44.3311 39.5797C44.3676 39.7012 44.2764 39.8228 44.1488 39.8228Z" fill="#DAF1DE" stroke="#235347" stroke-width="1.33" stroke-miterlimit="10"/>
<path d="M14.4253 21.9899V18.9458C14.4253 14.6015 17.9433 11.0836 22.2876 11.0836C26.6319 11.0836 30.1499 14.6015 30.1499 18.9458V22.4334" stroke="#235347" stroke-width="1.33" stroke-miterlimit="10"/>
<path d="M17.9493 22.4334V19.7661C17.9493 17.0562 19.8693 14.8628 22.239 14.8628C24.6086 14.8628 26.5286 17.0562 26.5286 19.7661V22.4334" stroke="#235347" stroke-width="1.33" stroke-miterlimit="10"/>
<path d="M24.5964 41.2628H19.2192C14.7959 41.2628 11.2111 37.678 11.2111 33.2547V26.2552C11.2111 23.8977 13.119 21.9899 15.4764 21.9899H29.038C31.3954 21.9899 33.3033 23.8977 33.3033 26.2552V27.3246" stroke="#235347" stroke-width="1.33" stroke-miterlimit="10" stroke-linecap="round"/>
<path d="M22.2572 33.8137C24.3042 33.8137 25.9636 32.1543 25.9636 30.1073C25.9636 28.0604 24.3042 26.401 22.2572 26.401C20.2103 26.401 18.5509 28.0604 18.5509 30.1073C18.5509 32.1543 20.2103 33.8137 22.2572 33.8137Z" stroke="#235347" stroke-width="1.33" stroke-miterlimit="10"/>
<path d="M21.5585 30.7149L21.1271 29.9554H20.9448V30.7149H20.556V28.7646H21.2851C21.437 28.7646 21.5646 28.7889 21.6679 28.8435C21.7712 28.8982 21.8562 28.9711 21.9048 29.0562C21.9595 29.1473 21.9838 29.2446 21.9838 29.36C21.9838 29.4876 21.9474 29.603 21.8744 29.7063C21.8015 29.8096 21.6922 29.8825 21.5403 29.919L22.0081 30.7089H21.5585V30.7149ZM20.9448 29.6638H21.2729C21.3762 29.6638 21.4552 29.6395 21.5099 29.5848C21.5646 29.5362 21.5889 29.4633 21.5889 29.3722C21.5889 29.281 21.5646 29.2142 21.5099 29.1656C21.4552 29.117 21.3762 29.0927 21.2729 29.0927H20.9448V29.6638Z" fill="#235347"/>
<path d="M22.9438 29.2142C23.035 29.1656 23.1322 29.1413 23.2476 29.1413C23.3813 29.1413 23.4967 29.1716 23.6061 29.2385C23.7155 29.3053 23.8005 29.3965 23.8613 29.518C23.9221 29.6395 23.9524 29.7792 23.9524 29.9372C23.9524 30.0952 23.9221 30.2349 23.8613 30.3565C23.8005 30.478 23.7155 30.5752 23.6061 30.642C23.4967 30.7089 23.3813 30.7453 23.2476 30.7453C23.1322 30.7453 23.035 30.721 22.9499 30.6724C22.8648 30.6238 22.7919 30.5691 22.7372 30.4962V31.4562H22.3484V29.1716H22.7372V29.3965C22.7859 29.3235 22.8527 29.2628 22.9438 29.2142ZM23.4967 29.6942C23.4603 29.6273 23.4056 29.5727 23.3448 29.5423C23.2841 29.5058 23.2172 29.4876 23.1443 29.4876C23.0714 29.4876 23.0046 29.5058 22.9438 29.5423C22.8831 29.5787 22.8284 29.6334 22.7919 29.7003C22.7555 29.7671 22.7372 29.8522 22.7372 29.9433C22.7372 30.0344 22.7555 30.1195 22.7919 30.1863C22.8284 30.2532 22.8831 30.3079 22.9438 30.3443C23.0046 30.3808 23.0714 30.399 23.1443 30.399C23.2172 30.399 23.2841 30.3808 23.3448 30.3443C23.4056 30.3079 23.4603 30.2532 23.4967 30.1863C23.5332 30.1195 23.5514 30.0344 23.5514 29.9433C23.5514 29.8461 23.5332 29.761 23.4967 29.6942Z" fill="#235347"/>
<defs>
<linearGradient id="paint0_linear_1185_3049" x1="26.5" y1="0" x2="26.5" y2="52" gradientUnits="userSpaceOnUse">
<stop stop-color="#E1FFED"/>
<stop offset="1" stop-color="#E1FFED" stop-opacity="0"/>
</linearGradient>
</defs>
</svg>
