<svg width="49" height="49" viewBox="0 0 49 49" fill="none" xmlns="http://www.w3.org/2000/svg">
<rect width="49" height="49" rx="4" fill="#24663F"/>
<path d="M35.7525 31.3325V30.3587H41.3275L42.2298 28.7416H36.5655V27.7767H42.7569L43.4985 26.4455H13.533V32.5833H40.1035L40.8003 31.3325H35.7525Z" fill="white"/>
<path d="M4 34.5219H13.4971C18.7415 34.5219 22.9853 30.2692 22.9853 25.0337C22.9853 19.7893 18.7326 15.5455 13.4971 15.5455C8.25271 15.5366 4 19.7893 4 25.0248V34.5219Z" fill="white"/>
<path d="M13.506 17.3774C17.7319 17.3774 21.1627 20.8171 21.1627 25.034C21.1627 29.2599 17.723 32.6907 13.506 32.6907C9.28012 32.6907 5.84937 29.251 5.84937 25.034C5.84937 20.8081 9.28012 17.3774 13.506 17.3774Z" fill="#288C50"/>
<path d="M17.9643 29.0366L18.0268 29.0902C19.0007 28.0091 19.5993 26.5886 19.5993 25.0161C19.5993 21.6569 16.8743 18.923 13.5061 18.923V24.8196L17.9643 29.0366Z" fill="white"/>
<path d="M19.215 25.016C19.072 25.0785 18.9291 25.1322 18.7861 25.1768C18.7147 25.2036 18.6432 25.2483 18.5717 25.2215C18.5002 25.1768 18.4288 25.15 18.3573 25.0249V24.9803C18.4288 24.8552 18.5002 24.8195 18.5717 24.7837C18.6432 24.7569 18.7147 24.8016 18.7861 24.8284C18.9291 24.8641 19.072 24.9177 19.215 24.9803V25.016Z" fill="#8EB69B"/>
<path d="M13.5328 19.2537C13.5954 19.3966 13.649 19.5396 13.6937 19.6825C13.7205 19.754 13.7651 19.8255 13.7383 19.8969C13.6937 19.9684 13.6669 20.0399 13.5328 20.1114H13.4882C13.3631 20.0399 13.3274 19.9684 13.2827 19.8969C13.2559 19.8255 13.3005 19.754 13.3274 19.6825C13.3631 19.5396 13.4167 19.3966 13.4792 19.2537H13.5328Z" fill="#8EB69B"/>
<path d="M17.3834 21.7286L17.8123 21.2997" stroke="#8EB69B" stroke-width="0.25" stroke-miterlimit="10" stroke-linecap="round"/>
<path d="M17.3834 28.5002L17.8123 28.9291" stroke="#8EB69B" stroke-width="0.25" stroke-miterlimit="10" stroke-linecap="round"/>
<path d="M15.3287 25.0338C15.3287 26.0434 14.5156 26.8564 13.5061 26.8564C12.4965 26.8564 11.6835 26.0434 11.6835 25.0338C11.6835 24.0243 12.4965 23.2112 13.5061 23.2112C14.5156 23.2112 15.3287 24.0243 15.3287 25.0338Z" fill="white"/>
<path d="M13.506 26.1325C14.1129 26.1325 14.6049 25.6405 14.6049 25.0335C14.6049 24.4266 14.1129 23.9346 13.506 23.9346C12.8991 23.9346 12.4071 24.4266 12.4071 25.0335C12.4071 25.6405 12.8991 26.1325 13.506 26.1325Z" fill="#288C50"/>
<path d="M24.5488 25.0338C24.5488 25.3465 24.2987 25.5967 23.986 25.5967C23.6733 25.5967 23.4231 25.3465 23.4231 25.0338C23.4231 24.7211 23.6733 24.4709 23.986 24.4709C24.2897 24.4709 24.5488 24.7211 24.5488 25.0338Z" fill="white"/>
<path d="M24.3343 22.9252C24.3343 23.2379 24.0842 23.4881 23.7715 23.4881C23.4588 23.4881 23.2086 23.2379 23.2086 22.9252C23.2086 22.6125 23.4588 22.3624 23.7715 22.3624C24.0752 22.3624 24.3343 22.6125 24.3343 22.9252Z" fill="white"/>
<path d="M23.7179 20.9595C23.7179 21.2722 23.4677 21.5224 23.155 21.5224C22.8423 21.5224 22.5922 21.2722 22.5922 20.9595C22.5922 20.6468 22.8423 20.3966 23.155 20.3966C23.4677 20.3877 23.7179 20.6468 23.7179 20.9595Z" fill="white"/>
<path d="M22.7532 19.182C22.7532 19.4947 22.503 19.7449 22.1903 19.7449C21.8776 19.7449 21.6274 19.4947 21.6274 19.182C21.6274 18.8693 21.8776 18.6192 22.1903 18.6192C22.503 18.6102 22.7532 18.8693 22.7532 19.182Z" fill="white"/>
<path d="M21.4753 17.6273C21.4753 17.9399 21.2252 18.1901 20.9125 18.1901C20.5998 18.1901 20.3496 17.9399 20.3496 17.6273C20.3496 17.3146 20.5998 17.0644 20.9125 17.0644C21.2252 17.0644 21.4753 17.3146 21.4753 17.6273Z" fill="white"/>
<path d="M19.9298 16.3494C19.9298 16.6621 19.6796 16.9122 19.3669 16.9122C19.0542 16.9122 18.8041 16.6621 18.8041 16.3494C18.8041 16.0367 19.0542 15.7865 19.3669 15.7865C19.6796 15.7865 19.9298 16.0367 19.9298 16.3494Z" fill="white"/>
<path d="M18.152 15.385C18.152 15.6977 17.9018 15.9479 17.5891 15.9479C17.2764 15.9479 17.0262 15.6977 17.0262 15.385C17.0262 15.0723 17.2764 14.8221 17.5891 14.8221C17.8929 14.8221 18.152 15.0723 18.152 15.385Z" fill="white"/>
<path d="M16.1864 14.7771C16.1864 15.0898 15.9362 15.34 15.6235 15.34C15.3108 15.34 15.0607 15.0898 15.0607 14.7771C15.0607 14.4644 15.3108 14.2142 15.6235 14.2142C15.9362 14.2142 16.1864 14.4644 16.1864 14.7771Z" fill="white"/>
<path d="M14.069 14.5629C14.069 14.8756 13.8188 15.1257 13.5061 15.1257C13.1934 15.1257 12.9432 14.8756 12.9432 14.5629C12.9432 14.2502 13.1934 14 13.5061 14C13.8188 14 14.069 14.2502 14.069 14.5629Z" fill="white"/>
<path d="M45.4371 19.3338H25.326L25.8889 18.2081H45.9999L45.4371 19.3338Z" fill="white"/>
<path d="M26.9343 20.9598H28.6318L29.141 23.6222L30.5616 20.9598H32.2591L31.4729 25.3912H30.0881L30.4723 23.1844L29.4001 25.3912H28.2119L27.9171 23.1665L27.5329 25.3912H26.1481L26.9343 20.9598Z" fill="white"/>
<path d="M35.0645 24.7208H33.5903L33.2508 25.3909H31.7946L34.1979 20.9595H35.7971L36.628 25.3909H35.1628L35.0645 24.7208ZM34.725 22.4426L34.1085 23.6755H34.9126L34.725 22.4426Z" fill="white"/>
<path d="M39.1475 24.2383L38.263 25.3909H36.6816L38.54 23.1037L37.4053 20.9595H39.0492L39.6389 22.0673L40.4876 20.9595H42.069L40.2464 23.202L41.4079 25.3909H39.764L39.1475 24.2383Z" fill="white"/>
<path d="M42.4977 20.9595H43.8915L43.1053 25.3909H41.7205L42.4977 20.9595Z" fill="white"/>
<path d="M24.5309 28.9112H23.8698L24.102 27.6068H26.2195L25.4332 32.0381H23.977L24.5309 28.9112Z" fill="#288C50"/>
<path d="M30.213 27.4636L29.9986 28.6876H28.185L28.0867 29.2147C28.2743 29.0718 28.5423 28.9824 28.864 28.9824C29.7574 28.9824 30.0433 29.6793 29.9093 30.4566C29.7306 31.4662 29.0248 32.038 28.042 32.038C26.9431 32.038 26.4249 31.4215 26.5857 30.5727H27.9348C27.9169 30.671 27.9437 30.8497 28.176 30.8497C28.3994 30.8497 28.5155 30.671 28.5602 30.4298C28.6049 30.1796 28.4977 30.0635 28.3011 30.0635C28.1135 30.0635 28.0152 30.1707 27.9974 30.269H26.6483L27.1397 27.4636H30.213Z" fill="#288C50"/>
<path d="M32.7504 27.5261C34.0727 27.5261 34.4658 28.4732 34.2335 29.7686C34.0102 31.0641 33.2865 32.0111 31.9642 32.0111C30.633 32.0111 30.2578 31.0641 30.4811 29.7686C30.7134 28.4732 31.4282 27.5261 32.7504 27.5261ZM32.5182 28.8395C32.0625 28.8395 31.9285 29.2772 31.8391 29.7686C31.7498 30.26 31.7319 30.6978 32.1876 30.6978C32.6343 30.6978 32.7683 30.26 32.8576 29.7686C32.9559 29.2772 32.9738 28.8395 32.5182 28.8395Z" fill="#288C50"/>
</svg>
