<svg width="53" height="52" viewBox="0 0 53 52" fill="none" xmlns="http://www.w3.org/2000/svg">
<circle cx="26.5" cy="26" r="26" fill="url(#paint0_linear_1185_2726)"/>
<path d="M25.8785 41.7367C25.4592 41.5727 25.0157 41.5848 24.5843 41.4998C21.8137 40.959 19.4319 39.683 17.4815 37.6415C14.8567 34.8952 13.6172 31.602 13.757 27.8167C13.8724 24.7484 14.9661 22.0324 16.959 19.6932C17.0501 19.5838 17.1473 19.4744 17.2385 19.359C17.1534 19.2618 17.0562 19.3043 16.9711 19.3043C16.157 19.2982 15.3428 19.2922 14.5286 19.3043C14.3038 19.3104 14.2491 19.2314 14.2491 19.0187C14.2491 18.2289 14.243 18.2289 15.0451 18.2289C16.1509 18.2289 17.2567 18.2289 18.3625 18.2289C18.5995 18.2289 18.8182 18.2653 18.9883 18.4537C19.1281 18.5327 19.1342 18.6724 19.1402 18.8122C19.1463 20.1185 19.1463 21.4187 19.1402 22.7251C19.1402 23.041 19.0673 23.0957 18.7392 23.1079C17.9068 23.1443 17.9068 23.1443 17.9068 22.3119C17.9068 21.6861 17.9129 21.0603 17.9068 20.3858C17.7306 20.5499 17.6091 20.7139 17.4876 20.8719C15.9808 22.8223 15.124 25.0279 14.9296 27.4825C14.9175 27.677 14.9721 27.756 15.1605 27.756C15.3185 27.756 15.4704 27.756 15.6283 27.762C15.8289 27.7681 15.9382 27.8592 15.9443 28.0658C15.9443 28.0841 15.9504 28.1084 15.9504 28.1266C15.9564 29.0258 15.999 29.0198 15.1909 28.9954C14.9721 28.9894 14.9175 29.0684 14.9296 29.2992C15.1301 31.9787 16.1083 34.3423 17.8704 36.3656C19.6081 38.3706 21.7833 39.6891 24.3777 40.2846C24.9792 40.4243 25.5868 40.5154 26.2005 40.558C26.4071 40.5701 26.4921 40.5154 26.4861 40.3089C26.48 40.2056 26.4861 40.1023 26.4861 39.999C26.4921 39.5858 26.5408 39.5372 26.9661 39.5372C27.7316 39.5311 27.7316 39.5068 27.7256 40.2542C27.7256 40.5762 27.7316 40.5762 28.0719 40.5458C31.1342 40.2906 33.7408 39.0572 35.8673 36.8577C37.7752 34.883 38.8932 32.5134 39.197 29.7732C39.2152 29.6091 39.2516 29.4451 39.2516 29.2749C39.2516 29.0927 39.1787 29.0015 38.9904 29.0076C38.9478 29.0076 38.9053 29.0076 38.8628 29.0076C38.2552 28.9954 38.2491 28.9954 38.2491 28.4C38.2491 28.3089 38.2491 28.2116 38.2491 28.1205C38.2491 27.8835 38.3646 27.7803 38.5954 27.7803C38.6866 27.7803 38.7838 27.7803 38.8749 27.7803C39.2213 27.7742 39.2759 27.7195 39.2395 27.3671C38.9357 24.4932 37.8299 21.9899 35.7944 19.9058C34.081 18.156 32.0334 17.0258 29.6516 16.4911C29.1534 16.3818 28.643 16.3149 28.1387 16.2542C27.7681 16.2116 27.7134 16.2663 27.7073 16.6309C27.6952 17.2506 27.6952 17.2506 27.0694 17.2506C26.9964 17.2506 26.9235 17.2506 26.8506 17.2506C26.5468 17.2324 26.48 17.1777 26.48 16.8739C26.48 16.4182 26.4921 15.9625 26.5164 15.5008C26.5529 14.6501 26.5529 13.7934 26.5104 12.9367C25.842 12.9306 25.1797 12.9185 24.5114 12.9124C23.764 12.9063 23.3509 12.4992 23.3387 11.758C23.3327 11.436 23.3266 11.1139 23.3387 10.7858C23.363 10.1418 23.7944 9.71646 24.4385 9.71038C26.1883 9.70431 27.9443 9.70431 29.6942 9.71038C30.3625 9.71038 30.8061 10.16 30.8121 10.8284C30.8182 11.1382 30.8121 11.4542 30.8121 11.7641C30.8061 12.4628 30.3808 12.9003 29.6881 12.9063C29.0805 12.9124 28.479 12.9124 27.8714 12.9003C27.6709 12.8942 27.604 12.9428 27.604 13.1554C27.6162 13.7084 27.6223 14.2613 27.604 14.8142C27.598 15.0329 27.677 15.0694 27.8714 15.0815C31.2678 15.2942 34.1782 16.6127 36.5721 19.0248C38.6015 21.0663 39.8289 23.5271 40.2663 26.3767C41.1899 32.3797 37.9635 38.0729 32.6835 40.5154C31.28 41.1656 29.8096 41.5544 28.2724 41.6942C28.2177 41.7003 28.1448 41.6699 28.1144 41.7549C27.9504 41.7549 27.7802 41.7549 27.6162 41.7549C27.519 41.6881 27.4096 41.7367 27.3063 41.7246C27.203 41.7367 27.0937 41.6942 26.9904 41.7549C26.802 41.7549 26.6137 41.7549 26.4253 41.7549C26.3402 41.7063 26.2613 41.7063 26.1762 41.7549C26.0911 41.7367 25.9818 41.7367 25.8785 41.7367Z" fill="#235347"/>
<path d="M27.0086 41.7367C27.0997 41.6334 27.2152 41.6881 27.3246 41.676C27.3428 41.6881 27.3489 41.7063 27.3428 41.7185C27.3367 41.7306 27.3306 41.7367 27.3246 41.7367C27.2152 41.7367 27.1119 41.7367 27.0086 41.7367Z" fill="#235347"/>
<path d="M27.3185 41.7367C27.3185 41.7185 27.3185 41.6942 27.3185 41.676C27.4218 41.6881 27.5433 41.6273 27.6284 41.7367C27.5311 41.7367 27.4218 41.7367 27.3185 41.7367Z" fill="#235347"/>
<path d="M26.1944 41.7367C26.2795 41.6273 26.3584 41.6577 26.4435 41.7367C26.3584 41.7367 26.2795 41.7367 26.1944 41.7367Z" fill="#235347"/>
<path d="M27.0815 11.8187C26.2795 11.8187 25.4774 11.8127 24.6693 11.8248C24.4871 11.8248 24.4202 11.7823 24.4142 11.5818C24.3959 10.7555 24.3898 10.7555 25.204 10.7555C26.6197 10.7555 28.0415 10.7615 29.4572 10.7494C29.6881 10.7494 29.761 10.798 29.7549 11.041C29.7488 11.8248 29.7549 11.8248 28.9833 11.8248C28.3574 11.8187 27.7195 11.8187 27.0815 11.8187Z" fill="#8EB69B"/>
<path d="M27.1058 20.9023C22.9802 20.8901 19.6202 24.238 19.6142 28.3696C19.602 32.5013 22.9438 35.8552 27.0754 35.8613C31.2071 35.8673 34.561 32.5317 34.5732 28.4061C34.5853 24.2866 31.2253 20.9144 27.1058 20.9023ZM27.0754 34.7919C23.5332 34.7919 20.6714 31.9241 20.6775 28.3879C20.6835 24.8517 23.5514 21.9717 27.0754 21.9717C30.6116 21.9656 33.5099 24.8699 33.4977 28.4061C33.4916 31.9362 30.6177 34.798 27.0754 34.7919Z" fill="#235347"/>
<path d="M27.0937 22.5124C23.8491 22.5063 21.2182 25.1251 21.2 28.3696C21.1878 31.602 23.8552 34.2754 27.0937 34.2694C30.3261 34.2694 32.957 31.6263 32.957 28.3879C32.957 25.1372 30.3443 22.5185 27.0937 22.5124ZM27.0329 33.2C24.3473 33.121 22.2147 30.9458 22.2754 28.3575C22.3423 25.5808 24.5296 23.5089 27.3124 23.5879C29.9129 23.6608 31.9666 25.9149 31.8876 28.6248C31.8147 31.1463 29.5544 33.2729 27.0329 33.2Z" fill="#235347"/>
<path d="M26.2126 29.7428L25.5321 28.5458H25.2405V29.7428H24.6207V26.6684H25.7752C26.0121 26.6684 26.2187 26.7109 26.3828 26.796C26.5529 26.881 26.6744 26.9904 26.7595 27.1362C26.8445 27.282 26.8871 27.44 26.8871 27.6162C26.8871 27.8167 26.8263 27.999 26.7109 28.163C26.5954 28.3271 26.4192 28.4365 26.1883 28.5033L26.9235 29.7489H26.2126V29.7428ZM25.2405 28.0841H25.7569C25.9271 28.0841 26.0486 28.0415 26.1336 27.9625C26.2187 27.8835 26.2552 27.7681 26.2552 27.6223C26.2552 27.4825 26.2126 27.3732 26.1336 27.2942C26.0486 27.2152 25.9271 27.1787 25.7569 27.1787H25.2405V28.0841Z" fill="#235347"/>
<path d="M28.3939 27.3732C28.5336 27.3003 28.6916 27.2638 28.8739 27.2638C29.0805 27.2638 29.2688 27.3124 29.439 27.4157C29.6091 27.519 29.7428 27.6648 29.84 27.8532C29.9372 28.0415 29.9858 28.2603 29.9858 28.5094C29.9858 28.7585 29.9372 28.9833 29.84 29.1716C29.7428 29.3661 29.6091 29.5119 29.439 29.6213C29.2688 29.7246 29.0805 29.7792 28.8739 29.7792C28.6916 29.7792 28.5336 29.7428 28.4 29.6699C28.2663 29.597 28.1509 29.5058 28.0658 29.3904V30.9033H27.446V27.2942H28.0658V27.6466C28.1448 27.5433 28.2541 27.4522 28.3939 27.3732ZM29.2688 28.1327C29.2081 28.0233 29.1291 27.9443 29.0319 27.8896C28.9347 27.8349 28.8253 27.8046 28.7098 27.8046C28.6005 27.8046 28.4911 27.8349 28.3939 27.8896C28.2967 27.9443 28.2177 28.0294 28.1569 28.1387C28.0962 28.2481 28.0658 28.3757 28.0658 28.5215C28.0658 28.6673 28.0962 28.7949 28.1569 28.9043C28.2177 29.0137 28.2967 29.0987 28.3939 29.1534C28.4911 29.2081 28.5944 29.2385 28.7098 29.2385C28.8253 29.2385 28.9286 29.2081 29.0319 29.1473C29.1291 29.0866 29.2081 29.0076 29.2688 28.8982C29.3296 28.7889 29.36 28.6613 29.36 28.5094C29.36 28.3696 29.3296 28.242 29.2688 28.1327Z" fill="#235347"/>
<defs>
<linearGradient id="paint0_linear_1185_2726" x1="26.5" y1="0" x2="26.5" y2="52" gradientUnits="userSpaceOnUse">
<stop stop-color="#E1FFED"/>
<stop offset="1" stop-color="#E1FFED" stop-opacity="0"/>
</linearGradient>
</defs>
</svg>
