<svg width="360" height="174" viewBox="0 0 360 174" fill="none" xmlns="http://www.w3.org/2000/svg">
<g clip-path="url(#clip0_668_30840)">
<path d="M360 0H0V174H360V0Z" fill="#F2F9F3"/>
<mask id="mask0_668_30840" style="mask-type:luminance" maskUnits="userSpaceOnUse" x="0" y="0" width="360" height="174">
<path d="M360 0H0V174H360V0Z" fill="white"/>
</mask>
<g mask="url(#mask0_668_30840)">
<path d="M72 15.15C72.12 15.04 72.25 14.93 72.37 14.82C106.34 -15.76 151.45 -17.14 184.32 15.78C201.45 32.94 231.87 29.66 253.63 35.86C328.66 57.26 315.69 159.06 278.63 208.28C245.18 252.69 172.71 262.72 124.02 240.87C81.23 221.67 51.11 178.78 40.39 133.93C39.31 129.43 38.43 124.89 37.75 120.31C32.11 82.13 42.94 41.58 72 15.15Z" fill="#DAF1DE"/>
<path opacity="0.7" d="M72 15.15C72.12 15.04 72.25 14.93 72.37 14.82C106.34 -15.76 151.45 -17.14 184.32 15.78C201.45 32.94 231.87 29.66 253.63 35.86C328.66 57.26 315.69 159.06 278.63 208.28C245.18 252.69 172.71 262.72 124.02 240.87C81.23 221.67 51.11 178.78 40.39 133.93C39.31 129.43 38.43 124.89 37.75 120.31C32.11 82.13 42.94 41.58 72 15.15Z" fill="#DAF1DE"/>
</g>
<path d="M17.7 155.2H348.77" stroke="#235347" stroke-miterlimit="10" stroke-linecap="round" stroke-linejoin="round"/>
<path d="M267.6 63.73C267.6 63.73 267.3 63.83 266.78 64.03C264.08 65.06 255.61 68.69 254.9 73.59C254.06 79.43 260.09 83.84 260.09 83.84C260.09 83.84 263.13 91.87 262.25 95.33C261.38 98.79 256.23 99.93 257.38 105.6C258.53 111.28 264.56 115.95 279.9 115.05C295.25 114.15 299.6 113.42 300.44 102.68C301.12 94.02 293.39 88.36 291.31 82.3C289.23 76.24 291.55 72.23 285.24 66.24C278.93 60.24 267.6 63.73 267.6 63.73Z" fill="#15332A" stroke="#235347" stroke-miterlimit="10"/>
<path d="M267.23 72C267.23 72 260.16 75.86 260.05 77.12C259.94 78.37 257.58 87.29 258.65 92.03C259.72 96.77 266.86 96.78 266.86 96.78C266.86 96.78 266.49 99.28 263.03 101.84C259.57 104.4 252.91 110.18 252.91 110.18C252.91 110.18 259.9 113.97 273.76 112.51C287.63 111.05 286.8 108.23 286.8 108.23C286.8 108.23 282.51 105.92 279.08 102.72C275.65 99.52 274.2 94.66 274.54 92.28C274.88 89.9 274.61 88.4 272.15 83.18C269.7 77.97 267.23 72 267.23 72Z" fill="#F9EDCF" stroke="#235347" stroke-miterlimit="10"/>
<path d="M264.59 79.68C264.59 79.68 264.87 81.3 263.64 83.2C262.42 85.1 260.55 85.62 261.31 86.11C262.07 86.6 264.2 86.69 264.2 86.69" stroke="#235347" stroke-miterlimit="10" stroke-linecap="round" stroke-linejoin="round"/>
<path d="M262.48 88.34C262.48 88.34 265.13 89.93 268.09 87.13" stroke="#235347" stroke-miterlimit="10" stroke-linecap="round" stroke-linejoin="round"/>
<path d="M260.6 79.55C260.6 79.55 261.86 77.31 264 78.67" stroke="#235347" stroke-miterlimit="10" stroke-linecap="round" stroke-linejoin="round"/>
<path d="M266.68 78.71C266.68 78.71 268.89 78.12 270.3 79.86" stroke="#235347" stroke-miterlimit="10" stroke-linecap="round" stroke-linejoin="round"/>
<path d="M262.65 81.08C262.66 81.64 262.42 82.1 262.11 82.1C261.8 82.1 261.55 81.65 261.54 81.09C261.53 80.53 261.77 80.07 262.08 80.07C262.39 80.07 262.64 80.52 262.65 81.08Z" fill="#235347"/>
<path d="M268.41 82.664C268.714 82.6593 268.953 82.1989 268.944 81.6356C268.935 81.0723 268.682 80.6195 268.378 80.6242C268.075 80.6288 267.836 81.0892 267.844 81.6525C267.853 82.2158 268.106 82.6686 268.41 82.664Z" fill="#235347"/>
<path d="M267.15 96.3L271.8 95.78C271.8 95.78 271.72 96.52 269.8 97.84C267.88 99.16 265.62 100.1 265.62 100.1C265.62 100.1 267.63 97.69 267.15 96.3Z" fill="#24663F" stroke="#235347" stroke-miterlimit="10" stroke-linecap="round" stroke-linejoin="round"/>
<path d="M243.84 155.6L250.21 115.99L260.8 118.88L256.08 155.47L243.84 155.6Z" fill="#F9EDCF" stroke="#235347" stroke-miterlimit="10"/>
<path d="M250.9 111.89L246.53 138.07C248.43 139.06 252.11 140.36 257.95 140.03C258.04 140.02 258.13 140.02 258.22 140.01L260.8 118.88L250.9 111.89Z" fill="#45CE7C" stroke="#235347" stroke-miterlimit="10" stroke-linecap="round" stroke-linejoin="round"/>
<path d="M253.67 155.44L255.75 137.38C255.75 137.38 253.31 134.45 252.22 130.95C250.54 125.56 254.83 114.73 254.83 114.73C254.83 114.73 260.47 116.42 270.01 117.04C279.55 117.66 288.19 112.84 288.19 112.84L284.26 138.59L287.57 155.01L253.67 155.44Z" fill="#45CE7C" stroke="#235347" stroke-miterlimit="10" stroke-linecap="round" stroke-linejoin="round"/>
<path d="M294.34 154.88L288.83 139.55L299.58 135.69L304.47 154.7L294.34 154.88Z" fill="#F9EDCF" stroke="#235347" stroke-miterlimit="10"/>
<path d="M283.13 124L288.84 139.55C288.84 139.55 289.37 140.81 293.41 139.35C297.46 137.89 299.58 135.7 299.58 135.7L291.5 114.72C291.5 114.72 289.19 113.36 286.41 114.29C283.63 115.22 282.88 116.25 282.88 116.25" fill="#45CE7C"/>
<path d="M283.13 124L288.84 139.55C288.84 139.55 289.37 140.81 293.41 139.35C297.46 137.89 299.58 135.7 299.58 135.7L291.5 114.72C291.5 114.72 289.19 113.36 286.41 114.29C283.63 115.22 282.88 116.25 282.88 116.25" stroke="#235347" stroke-miterlimit="10" stroke-linecap="round" stroke-linejoin="round"/>
<path d="M264.39 100.44C264.39 100.44 264.27 102.66 269.86 102.93C278.13 103.33 277.34 101.06 277.97 100.92C278.6 100.78 292.49 112.85 292.49 112.85C292.49 112.85 282.95 118.3 271.51 118.6C259.38 118.92 250.53 112.2 250.53 112.2L264.39 100.44Z" fill="#24663F" stroke="#235347" stroke-miterlimit="10" stroke-linecap="round" stroke-linejoin="round"/>
<path d="M92.87 133.34L102.5 109.45C102.5 109.45 100.98 102.72 101.3 101.65C101.62 100.58 102.92 98.44 103 97.69C103.08 96.95 101.67 94.49 102.65 93.91C103.63 93.33 104.38 94.23 104.88 95.46C105.38 96.69 104.98 97.68 104.82 98.58C104.66 99.48 104.58 100.31 104.58 100.31C104.58 100.31 108.91 95.85 110.46 94.69C112.01 93.53 113.73 91.46 114.38 91.54C115.04 91.62 115.2 91.86 114.88 92.69C114.56 93.51 111.94 95.83 111.94 95.83L110.07 98.47C110.07 98.47 111.15 100.19 111.9 102.16C112.65 104.13 113.07 105.03 112.09 106.35C111.11 107.67 107.03 111.48 107.03 111.48C107.03 111.48 104.46 133.52 103.97 134.75C103.48 135.99 101.3 141.18 98.19 143.33C97.13 144.06 94.16 143.44 92.85 142.95C91.53 142.47 89.88 141.41 89.88 141.41L89.18 135.33L92.87 133.34Z" fill="#F9EDCF" stroke="#235347" stroke-miterlimit="10"/>
<path d="M110.07 98.47C110.07 98.47 105.65 100.88 105.98 101.62C106.31 102.36 107.14 102.85 107.14 102.85C107.14 102.85 106.56 104 107.08 104.73C107.44 105.24 108.23 105.39 108.23 105.39C108.23 105.39 106.92 106.06 108.4 106.7C109.88 107.35 112.59 106.67 113.24 106.09C113.89 105.51 113.39 104.03 113.39 104.03C113.39 104.03 113.55 103.13 113.38 102.3C113.21 101.48 112.8 100.82 112.8 100.82C112.8 100.82 112.87 99.26 112.21 98.61C111.55 97.97 110.07 98.47 110.07 98.47Z" fill="#F9EDCF" stroke="#235347" stroke-miterlimit="10"/>
<path d="M107.14 102.84L112.8 100.83" stroke="#235347" stroke-miterlimit="10"/>
<path d="M108.23 105.38L113.39 104.04" stroke="#235347" stroke-miterlimit="10"/>
<path d="M84.09 108.99C84.09 108.99 86.23 110.13 87.49 113.41C88.74 116.69 94.43 133.01 94.43 133.01L88.12 135.43L83.61 110.72L81.62 107.86C81.62 107.85 83.59 108.5 84.09 108.99Z" fill="#45CE7C" stroke="#235347" stroke-miterlimit="10" stroke-linecap="round" stroke-linejoin="round"/>
<path d="M55.44 107.49C55.44 107.49 46.72 114.63 46.35 116.83C45.98 119.02 51.88 155.2 51.88 155.2L94.28 154.93C94.28 154.93 86.8 113.61 84.85 110.14C82.89 106.67 79.54 105.66 75.02 105.05C70.5 104.44 66.12 104.59 66.12 104.59C66.12 104.59 58.9 104.9 55.44 107.49Z" fill="#45CE7C" stroke="#235347" stroke-miterlimit="10" stroke-linecap="round" stroke-linejoin="round"/>
<path d="M59.26 101.41C59.26 101.41 56.43 101.94 55.66 103.11C54.89 104.27 54.28 109.3 54.28 109.3C54.28 109.3 58.83 116.23 61.3 118.15C63.76 120.07 65.7 121.47 65.7 121.47C65.7 121.47 68.74 113.46 69.13 113.07C69.51 112.68 78.04 116.62 78.04 116.62C78.04 116.62 77.89 113.66 74.9 108.39C71.9 103.14 62.86 99.72 59.26 101.41Z" fill="#24663F" stroke="#235347" stroke-miterlimit="10" stroke-linecap="round" stroke-linejoin="round"/>
<path d="M75.52 79.37C75.52 79.37 76.54 86.37 77.62 89.2C78.7 92.03 78.46 96.38 76.17 98.88C73.88 101.38 70.07 101.58 70.07 101.58C70.07 101.58 70.17 104.06 70.45 105.66C70.73 107.25 71.44 108.23 71.29 111.6C71.13 114.97 70.61 116.57 70.61 116.57C70.61 116.57 67.31 113.49 64.28 111.2C61.25 108.91 59.1 105.02 59.1 105.02C59.1 105.02 56.47 95.19 55.3 92.71C54.13 90.23 53.68 88.73 53.59 88.46C53.5 88.19 49.49 85.38 53.44 78.44C57.39 71.5 67.06 72.68 70.44 74.25C73.82 75.83 75.52 79.37 75.52 79.37Z" fill="#F9EDCF" stroke="#235347" stroke-miterlimit="10"/>
<path d="M59.86 71.31C59.86 71.31 58.43 69.28 55.42 69.92C52.41 70.56 48.98 75.9 50.62 81.75C52.25 87.59 54.84 90.15 54.84 90.15C54.84 90.15 58.31 91.81 59.9 90.56C61.49 89.31 57.3 86.05 58.71 85.16C60.12 84.26 65.08 83.26 63.56 81.4C62.04 79.55 59.11 79.74 62.03 77.77C64.94 75.8 67.61 76.4 69.13 77.64C70.65 78.87 73.24 82.23 78.19 79.62C83.14 77.02 80.1 73.13 78.14 71.99C76.18 70.85 74.41 70.86 74.41 70.86C74.41 70.86 71.18 65.11 66.74 64.52C62.3 63.93 59.94 69.62 59.86 71.31Z" fill="#15332A" stroke="#235347" stroke-miterlimit="10"/>
<path d="M72.44 82.14C72.44 82.14 72.64 86.22 73.89 87.72C75.14 89.22 77.37 90.45 76.4 91.16C75.43 91.88 73.21 92.16 73.21 92.16" stroke="#235347" stroke-miterlimit="10" stroke-linecap="round" stroke-linejoin="round"/>
<path d="M73.58 95.17C73.58 95.17 70.84 96.52 68.25 94.23" stroke="#235347" stroke-miterlimit="10" stroke-linecap="round" stroke-linejoin="round"/>
<path d="M69.15 94.93C69.15 94.93 69.43 97.68 70.59 97.76C71.74 97.84 72.35 95.62 72.35 95.62C72.35 95.62 70.04 95.64 69.15 94.93Z" fill="#15332A" stroke="#235347" stroke-miterlimit="10"/>
<path d="M66.42 84.48C66.42 84.48 66.85 82.88 68.98 82.69" stroke="#235347" stroke-miterlimit="10" stroke-linecap="round" stroke-linejoin="round"/>
<path d="M73.5 82.05C73.5 82.05 74.91 81.33 75.9 82.21" stroke="#235347" stroke-miterlimit="10" stroke-linecap="round" stroke-linejoin="round"/>
<path d="M69.7001 86.41C69.8401 87.06 69.6601 87.64 69.3001 87.72C68.9401 87.8 68.5401 87.33 68.4001 86.69C68.2601 86.04 68.4401 85.46 68.8001 85.38C69.1601 85.3 69.5601 85.77 69.7001 86.41Z" fill="#235347"/>
<path d="M75.61 84.89C75.75 85.54 75.57 86.12 75.21 86.2C74.85 86.28 74.45 85.81 74.31 85.17C74.17 84.52 74.35 83.94 74.71 83.86C75.07 83.78 75.47 84.25 75.61 84.89Z" fill="#235347"/>
<path d="M59.11 92.43C59.11 92.43 55.71 87.84 53.86 89.62C52.01 91.4 54.7 95.47 56.56 96.26C58.43 97.05 59.3 95.09 59.3 95.09" fill="#F9EDCF"/>
<path d="M59.11 92.43C59.11 92.43 55.71 87.84 53.86 89.62C52.01 91.4 54.7 95.47 56.56 96.26C58.43 97.05 59.3 95.09 59.3 95.09" stroke="#235347" stroke-miterlimit="10"/>
<path d="M70.08 101.58C70.08 101.58 68.57 102.03 66.71 101.42C64.84 100.81 63.78 100.37 63.78 100.37C63.78 100.37 65.74 102.49 67.35 103.54C68.95 104.59 70.47 105.65 70.47 105.65L70.08 101.58Z" fill="#24663F" stroke="#235347" stroke-miterlimit="10" stroke-linecap="round" stroke-linejoin="round"/>
<path d="M101.85 155.86L86.39 154.48C85.29 154.38 84.49 153.42 84.58 152.32L86.58 129.93C86.68 128.83 87.64 128.03 88.74 128.12L104.2 129.5C105.3 129.6 106.1 130.56 106.01 131.66L104.01 154.05C103.91 155.15 102.95 155.96 101.85 155.86Z" fill="#15332A" stroke="#235347" stroke-miterlimit="10"/>
<path d="M48.22 146.68C48.22 146.68 49.72 156.58 50.4 156.8C51.08 157.02 82.95 150.55 82.95 150.55C82.95 150.55 84.61 150.46 85.82 150.08C87.03 149.69 92.68 146.18 92.68 146.18C92.68 146.18 94.87 146.09 95.4 145.48C95.93 144.87 96.38 144.49 95.92 144.42C95.47 144.35 86.39 144.63 86.62 144.63C86.85 144.63 93.79 142.77 94.7 142.61C95.61 142.45 96.36 141.69 96.28 141.09C96.2 140.49 94.31 141.18 93.48 141.33C92.65 141.49 86.23 142.59 86.23 142.59C86.23 142.59 90 140.37 91.13 140.06C92.26 139.75 94.52 138.75 94.82 138.3C95.12 137.84 94.74 137.17 94.21 137.25C93.68 137.33 86.06 139.95 85.46 140.33C84.86 140.71 80.13 146.94 80.13 146.94L60.01 146.24L59.63 145.26L48.22 146.68Z" fill="#F9EDCF" stroke="#235347" stroke-miterlimit="10"/>
<path d="M92.14 146.17L85.95 147.27" stroke="#235347" stroke-miterlimit="10" stroke-linecap="round" stroke-linejoin="round"/>
<path d="M52.36 110.35C52.36 110.35 45.68 113.1 44.67 117.36C43.67 121.62 46.66 147.73 46.66 147.73L60.3 145.2L57.21 123.34" fill="#45CE7C"/>
<path d="M52.36 110.35C52.36 110.35 45.68 113.1 44.67 117.36C43.67 121.62 46.66 147.73 46.66 147.73L60.3 145.2L57.21 123.34" stroke="#235347" stroke-miterlimit="10" stroke-linecap="round" stroke-linejoin="round"/>
<path d="M218.39 52.95C220.224 52.95 221.71 51.4636 221.71 49.63C221.71 47.7964 220.224 46.31 218.39 46.31C216.556 46.31 215.07 47.7964 215.07 49.63C215.07 51.4636 216.556 52.95 218.39 52.95Z" stroke="#235347" stroke-miterlimit="10" stroke-linecap="round" stroke-linejoin="round"/>
<path d="M219.47 52.77C219.47 52.77 221.6 58 221.85 66.65C222.1 75.29 219.04 81.19 219.04 81.19" stroke="#235347" stroke-miterlimit="10" stroke-linecap="round" stroke-linejoin="round"/>
<path d="M217.97 83.97L217.72 84.76" stroke="#235347" stroke-miterlimit="10" stroke-linecap="round" stroke-linejoin="round"/>
<path d="M142.32 84.76C144.154 84.76 145.64 83.2736 145.64 81.44C145.64 79.6064 144.154 78.12 142.32 78.12C140.486 78.12 139 79.6064 139 81.44C139 83.2736 140.486 84.76 142.32 84.76Z" stroke="#235347" stroke-miterlimit="10" stroke-linecap="round" stroke-linejoin="round"/>
<path d="M141.21 78.31C141.21 78.31 139.02 73.11 138.67 64.46C138.32 55.82 141.31 49.89 141.31 49.89" stroke="#235347" stroke-miterlimit="10" stroke-linecap="round" stroke-linejoin="round"/>
<path d="M142.33 47.09L142.58 46.3" stroke="#235347" stroke-miterlimit="10" stroke-linecap="round" stroke-linejoin="round"/>
<path d="M177.4 51.95L175.48 48.61H174.44V51.95H173.07V43.61H175.95C176.59 43.61 177.13 43.72 177.58 43.95C178.02 44.17 178.36 44.47 178.58 44.85C178.8 45.23 178.91 45.65 178.91 46.11C178.91 46.65 178.75 47.15 178.44 47.59C178.12 48.03 177.64 48.34 176.98 48.5L179.04 51.96H177.4V51.95ZM174.44 47.52H175.95C176.46 47.52 176.85 47.39 177.11 47.14C177.37 46.88 177.5 46.54 177.5 46.11C177.5 45.68 177.37 45.34 177.12 45.1C176.87 44.86 176.48 44.73 175.96 44.73H174.45V47.52H174.44Z" fill="#235347"/>
<path d="M182.97 45.54C183.37 45.33 183.82 45.23 184.33 45.23C184.91 45.23 185.43 45.37 185.91 45.66C186.39 45.94 186.76 46.34 187.03 46.85C187.3 47.36 187.44 47.95 187.44 48.61C187.44 49.27 187.3 49.87 187.03 50.39C186.76 50.91 186.38 51.32 185.91 51.61C185.44 51.9 184.91 52.05 184.33 52.05C183.83 52.05 183.38 51.95 182.99 51.74C182.6 51.54 182.28 51.28 182.03 50.98V55.08H180.66V45.32H182.03V46.29C182.25 46 182.57 45.75 182.97 45.54ZM185.76 47.43C185.57 47.1 185.32 46.85 185.02 46.67C184.71 46.5 184.38 46.41 184.03 46.41C183.69 46.41 183.36 46.5 183.05 46.67C182.74 46.85 182.49 47.1 182.31 47.44C182.13 47.78 182.03 48.17 182.03 48.63C182.03 49.09 182.12 49.48 182.31 49.82C182.5 50.16 182.75 50.42 183.05 50.59C183.36 50.77 183.68 50.85 184.03 50.85C184.38 50.85 184.71 50.76 185.02 50.58C185.33 50.4 185.58 50.14 185.76 49.79C185.95 49.45 186.04 49.05 186.04 48.59C186.04 48.13 185.95 47.76 185.76 47.43Z" fill="#235347"/>
<path d="M189.77 62.44C187.1 64.39 183.81 65.54 180.25 65.54C171.31 65.54 164.07 58.29 164.07 49.36C164.07 40.43 171.32 33.18 180.25 33.18C189.18 33.18 196.43 40.43 196.43 49.36C196.43 52.82 195.35 56.02 193.5 58.65" stroke="#235347" stroke-miterlimit="10" stroke-linecap="round" stroke-linejoin="round"/>
<path d="M173.64 82.45L175.71 96.08H184.82L187.25 110.09H214.48L212.09 96.19L205.24 96.08L202.99 82.45H173.64Z" fill="#8EB69B"/>
<path d="M162.03 96.19L164.5 110.09H169.04L171.23 96.08L162.03 96.19Z" fill="#8EB69B"/>
<path d="M148.27 96.16L162.03 96.19L164.5 110.09H146.02L148.27 96.16Z" stroke="#235347" stroke-miterlimit="10" stroke-linecap="round" stroke-linejoin="round"/>
<path d="M171.23 96.08L169.04 110.09H164.5L161.87 96.16L171.23 96.08Z" stroke="#235347" stroke-miterlimit="10" stroke-linecap="round" stroke-linejoin="round"/>
<path d="M184.82 96.08L187.25 110.09H169.04L171.23 96.08H184.82Z" stroke="#235347" stroke-miterlimit="10" stroke-linecap="round" stroke-linejoin="round"/>
<path d="M190.85 96.16L212.09 96.19L214.48 110.09H187.25L184.82 96.08H187.84H175.71L173.64 82.45H202.99L205.24 96.08L190.85 96.16Z" stroke="#235347" stroke-miterlimit="10" stroke-linecap="round" stroke-linejoin="round"/>
<path d="M159.77 82.45L157.38 96.08H175.71L173.64 82.45H159.77Z" stroke="#235347" stroke-miterlimit="10" stroke-linecap="round" stroke-linejoin="round"/>
</g>
<defs>
<clipPath id="clip0_668_30840">
<rect width="360" height="174" fill="white"/>
</clipPath>
</defs>
</svg>
