<svg width="48" height="48" viewBox="0 0 48 48" fill="none" xmlns="http://www.w3.org/2000/svg">
<g clip-path="url(#clip0_547_16712)">
<circle cx="24" cy="24" r="24" fill="url(#paint0_linear_547_16712)"/>
<path d="M31.4639 15.8571V23.2188H16.9312V10.4286C16.9312 9.87628 17.3789 9.42857 17.9312 9.42857H30.4639C31.0162 9.42857 31.4639 9.87628 31.4639 10.4286V12" stroke="#235347" stroke-width="1.3" stroke-miterlimit="10" stroke-linecap="round"/>
<path d="M21.5405 18.5126H27.5966" stroke="#235347" stroke-width="1.3" stroke-linecap="round"/>
<path d="M22.2373 9.90377V14.2695L24.2667 12.7648L26.1081 14.2695V9.90377H22.2373Z" fill="#8EB69B" stroke="#235347" stroke-width="1.3" stroke-miterlimit="10" stroke-linecap="round" stroke-linejoin="round"/>
<rect x="9.42871" y="24" width="12.8571" height="13.7143" rx="2" fill="#DAF1DE"/>
<path d="M9.66504 32.5714V25.0603C9.66504 24.508 10.1128 24.0603 10.665 24.0603H24.1978V37.8506H9.66504V36" stroke="#235347" stroke-width="1.3" stroke-miterlimit="10" stroke-linecap="round"/>
<path d="M13.4663 32.6433H19.5224" stroke="#235347" stroke-width="1.3" stroke-linecap="round"/>
<path d="M14.9712 24.5355V28.9112L17.0006 27.4064L18.842 28.9112V24.5355H14.9712Z" fill="#8EB69B" stroke="#235347" stroke-width="1.3" stroke-miterlimit="10" stroke-linecap="round" stroke-linejoin="round"/>
<rect x="24" y="24" width="12.8571" height="13.7143" rx="2" fill="#DAF1DE"/>
<path d="M37.73 24.0603H24.1973V37.8506H38.73V25.0603C38.73 24.508 38.2823 24.0603 37.73 24.0603Z" stroke="#235347" stroke-width="1.3" stroke-miterlimit="10"/>
<path d="M28.606 32.6433H34.662" stroke="#235347" stroke-width="1.3" stroke-linecap="round"/>
<path d="M29.5039 24.5355V28.9112L31.5333 27.4064L33.3747 28.9112V24.5355H29.5039Z" fill="#8EB69B" stroke="#235347" stroke-width="1.3" stroke-miterlimit="10" stroke-linecap="round" stroke-linejoin="round"/>
<path d="M5.74219 38.1086H41.5502" stroke="#235347" stroke-width="1.3" stroke-miterlimit="10" stroke-linecap="round" stroke-linejoin="round"/>
</g>
<defs>
<linearGradient id="paint0_linear_547_16712" x1="24" y1="0" x2="24" y2="48" gradientUnits="userSpaceOnUse">
<stop stop-color="#E1FFED"/>
<stop offset="1" stop-color="#E1FFED" stop-opacity="0"/>
</linearGradient>
<clipPath id="clip0_547_16712">
<rect width="48" height="48" fill="white"/>
</clipPath>
</defs>
</svg>
