<svg width="360" height="174" viewBox="0 0 360 174" fill="none" xmlns="http://www.w3.org/2000/svg">
<g clip-path="url(#clip0_681_28041)">
<path d="M360.05 -0.710022H0.0499878V174.35H360.05V-0.710022Z" fill="#F2F9F3"/>
<g opacity="0.7">
<path fill-rule="evenodd" clip-rule="evenodd" d="M165 173.37C194.09 173.37 220.85 173.81 242.1 174.53C294.09 144.82 276.09 86.9 257.42 54.13C231.44 8.52999 170.06 -7.86001 144.67 28.52C110.2 77.91 76.96 60.68 59 98.18C41.05 135.68 68.31 171.64 87.9 174.53C109.14 173.8 135.91 173.37 165 173.37ZM119.45 46.92C106.14 57.05 84.13 64.89 76.82 54.13C71.36 46.09 78.09 30.99 91.26 19.55C104.42 8.11999 122.06 1.19999 131.67 9.60999C143.08 19.61 129.7 39.12 119.45 46.92Z" fill="#DAF1DE"/>
</g>
<path fill-rule="evenodd" clip-rule="evenodd" d="M91.68 96.85L166.2 99.85C167.68 99.91 168.86 101.07 168.89 102.55L170.05 152.3C170.09 153.78 167.68 155.68 166.19 155.73L90.45 158.12C88.97 158.17 87.76 156.91 87.76 155.43V100.89C87.77 99.39 90.2 96.79 91.68 96.85Z" fill="#235347"/>
<path fill-rule="evenodd" clip-rule="evenodd" d="M91.99 96.84L167.72 98.51C169.2 98.54 170.42 99.73 170.42 101.21V151.69C170.42 153.17 169.2 154.34 167.72 154.38L91.99 156.78C90.51 156.83 89.29 155.56 89.29 154.08V99.53C89.3 98.05 90.51 96.8 91.99 96.84Z" fill="#DAF1DE" stroke="#235347" stroke-miterlimit="10"/>
<path fill-rule="evenodd" clip-rule="evenodd" d="M91.99 96.73L167.73 98.4C168.5 98.42 169.21 98.74 169.72 99.25C170.22 99.75 170.54 100.45 170.54 101.21V151.69C170.54 152.46 170.23 153.14 169.72 153.64C169.21 154.15 168.5 154.47 167.73 154.49L91.99 156.88C91.96 156.88 91.93 156.88 91.91 156.88C91.17 156.88 90.5 156.57 90.01 156.08C89.52 155.59 89.21 154.9 89.18 154.16C89.17 154.13 89.17 154.1 89.17 154.08V99.53V99.47C89.19 98.72 89.5 98.03 90 97.54C90.5 97.04 91.17 96.73 91.92 96.73H91.93H91.99ZM167.73 98.62L92 96.95H91.94C91.26 96.95 90.63 97.24 90.17 97.69C89.71 98.15 89.43 98.79 89.41 99.47V99.53V154.08C89.41 154.11 89.41 154.14 89.41 154.16C89.44 154.84 89.72 155.47 90.17 155.92C90.63 156.38 91.24 156.67 91.92 156.67L92 156.66L167.72 154.27C168.45 154.24 169.09 153.95 169.57 153.48C170.03 153.02 170.32 152.39 170.32 151.68V101.2C170.32 100.49 170.03 99.85 169.57 99.39C169.09 98.93 168.44 98.64 167.73 98.62Z" fill="#235347"/>
<path fill-rule="evenodd" clip-rule="evenodd" d="M96.21 115.05C98.73 115.02 101.28 114.99 103.81 114.95C104.1 114.94 104.35 115.17 104.35 115.46C104.36 118.02 104.37 120.59 104.37 123.16C104.37 123.44 104.12 123.67 103.82 123.68C101.28 123.73 98.73 123.78 96.2 123.83C95.9 123.83 95.67 123.6 95.67 123.32C95.67 120.74 95.67 118.15 95.67 115.57C95.68 115.28 95.91 115.05 96.21 115.05ZM96.21 128.91C98.75 128.85 101.3 128.79 103.84 128.74C104.14 128.73 104.39 128.95 104.39 129.23C104.4 131.79 104.4 134.36 104.41 136.93C104.41 137.21 104.16 137.44 103.87 137.45C101.32 137.53 98.77 137.61 96.22 137.68C95.92 137.69 95.69 137.46 95.69 137.19C95.69 134.61 95.69 132.02 95.69 129.43C95.68 129.15 95.91 128.91 96.21 128.91ZM157.43 127.46C159.97 127.4 162.52 127.34 165.06 127.28C165.36 127.27 165.61 127.48 165.61 127.75C165.66 130.19 165.71 132.63 165.75 135.06C165.76 135.33 165.51 135.55 165.21 135.57C162.66 135.65 160.11 135.72 157.56 135.8C157.27 135.81 157.02 135.6 157.01 135.33C156.97 132.87 156.92 130.42 156.88 127.96C156.88 127.7 157.13 127.47 157.43 127.46ZM145.18 127.76C147.72 127.7 150.27 127.64 152.8 127.58C153.11 127.57 153.35 127.79 153.35 128.05C153.39 130.52 153.43 132.98 153.47 135.45C153.47 135.72 153.23 135.95 152.92 135.95C150.37 136.03 147.82 136.11 145.27 136.18C144.98 136.19 144.72 135.97 144.72 135.71C144.69 133.23 144.66 130.75 144.62 128.26C144.64 127.99 144.88 127.76 145.18 127.76ZM132.94 128.04C135.48 127.98 138.02 127.92 140.56 127.86C140.86 127.85 141.11 128.07 141.11 128.34C141.14 130.83 141.17 133.32 141.2 135.81C141.21 136.08 140.96 136.32 140.66 136.32C138.11 136.4 135.55 136.48 133.01 136.55C132.72 136.56 132.47 136.33 132.46 136.07C132.44 133.56 132.41 131.05 132.39 128.54C132.4 128.28 132.64 128.05 132.94 128.04ZM120.7 128.33C123.24 128.27 125.79 128.21 128.33 128.15C128.62 128.14 128.87 128.36 128.87 128.63C128.9 131.15 128.92 133.67 128.94 136.18C128.94 136.45 128.69 136.69 128.41 136.69C125.85 136.77 123.3 136.85 120.75 136.92C120.45 136.93 120.2 136.71 120.2 136.44C120.18 133.91 120.17 131.37 120.15 128.84C120.16 128.58 120.4 128.34 120.7 128.33ZM108.45 128.62C110.99 128.57 113.54 128.5 116.08 128.44C116.38 128.43 116.62 128.66 116.62 128.93C116.64 131.47 116.65 134.01 116.67 136.55C116.67 136.83 116.42 137.06 116.12 137.07C113.57 137.15 111.02 137.23 108.47 137.3C108.17 137.31 107.92 137.09 107.92 136.81C107.91 134.25 107.9 131.69 107.9 129.13C107.91 128.86 108.16 128.63 108.45 128.62ZM96.21 142.77C98.77 142.69 101.32 142.6 103.87 142.5C104.17 142.49 104.42 142.71 104.42 142.99C104.43 145.55 104.43 148.12 104.43 150.69C104.43 150.97 104.19 151.2 103.88 151.22C101.32 151.32 98.77 151.44 96.21 151.54C95.91 151.55 95.67 151.34 95.67 151.05C95.67 148.47 95.67 145.88 95.67 143.3C95.68 143.02 95.91 142.78 96.21 142.77ZM157.63 140.65C160.17 140.56 162.73 140.47 165.29 140.38C165.6 140.37 165.84 140.57 165.84 140.84C165.9 143.28 165.93 145.72 165.99 148.16C165.99 148.43 165.75 148.65 165.45 148.67C162.89 148.78 160.33 148.88 157.78 148.99C157.48 149 157.22 148.79 157.22 148.53C157.17 146.07 157.13 143.61 157.09 141.15C157.09 140.89 157.34 140.66 157.63 140.65ZM145.35 141.07C147.89 140.98 150.44 140.89 153.01 140.81C153.3 140.8 153.55 141.01 153.56 141.27C153.61 143.74 153.63 146.21 153.67 148.67C153.68 148.94 153.44 149.16 153.14 149.18C150.58 149.28 148.02 149.39 145.47 149.49C145.16 149.5 144.91 149.3 144.9 149.03C144.87 146.54 144.85 144.06 144.81 141.58C144.8 141.31 145.05 141.08 145.35 141.07ZM133.07 141.5C135.61 141.41 138.16 141.32 140.72 141.24C141.02 141.23 141.27 141.44 141.27 141.71C141.3 144.2 141.32 146.69 141.35 149.18C141.35 149.45 141.12 149.68 140.82 149.69C138.26 149.8 135.7 149.91 133.14 150.02C132.85 150.03 132.59 149.82 132.59 149.55C132.56 147.04 132.54 144.53 132.52 142.02C132.52 141.74 132.77 141.5 133.07 141.5ZM120.79 141.92C123.34 141.84 125.89 141.75 128.44 141.66C128.74 141.65 128.99 141.86 128.99 142.13C129.02 144.65 129.04 147.17 129.05 149.68C129.05 149.95 128.81 150.18 128.52 150.19C125.96 150.3 123.4 150.41 120.85 150.51C120.55 150.52 120.3 150.31 120.29 150.04C120.28 147.5 120.25 144.97 120.24 142.44C120.24 142.17 120.49 141.93 120.79 141.92ZM108.49 142.34C111.05 142.26 113.6 142.17 116.16 142.08C116.46 142.07 116.71 142.29 116.71 142.57C116.72 145.11 116.74 147.65 116.75 150.19C116.75 150.46 116.51 150.7 116.22 150.71C113.66 150.82 111.09 150.92 108.54 151.02C108.23 151.03 107.98 150.83 107.98 150.55C107.98 147.99 107.97 145.42 107.97 142.87C107.95 142.59 108.2 142.35 108.49 142.34ZM157.2 114.28C159.73 114.24 162.27 114.21 164.8 114.18C165.11 114.18 165.35 114.39 165.37 114.65C165.41 117.1 165.45 119.53 165.5 121.98C165.5 122.25 165.26 122.47 164.96 122.47C162.42 122.52 159.88 122.57 157.34 122.62C157.04 122.63 156.79 122.41 156.78 122.14C156.75 119.68 156.71 117.22 156.67 114.76C156.67 114.51 156.91 114.28 157.2 114.28ZM145.01 114.43C147.54 114.39 150.07 114.37 152.61 114.33C152.91 114.32 153.16 114.55 153.17 114.81C153.21 117.28 153.24 119.75 153.28 122.21C153.29 122.48 153.05 122.7 152.74 122.71C150.2 122.76 147.65 122.81 145.12 122.85C144.82 122.86 144.57 122.64 144.57 122.38C144.53 119.89 144.51 117.42 144.48 114.92C144.47 114.66 144.7 114.43 145.01 114.43ZM132.81 114.58C135.33 114.54 137.87 114.52 140.41 114.48C140.71 114.48 140.96 114.7 140.97 114.97C141 117.46 141.02 119.95 141.05 122.44C141.06 122.71 140.81 122.94 140.51 122.94C137.97 122.99 135.42 123.05 132.89 123.09C132.6 123.1 132.35 122.88 132.35 122.6C132.33 120.09 132.3 117.58 132.28 115.08C132.28 114.82 132.51 114.58 132.81 114.58ZM120.61 114.73C123.14 114.7 125.68 114.67 128.21 114.64C128.5 114.63 128.75 114.86 128.75 115.13C128.77 117.64 128.78 120.17 128.81 122.68C128.82 122.95 128.58 123.18 128.28 123.19C125.74 123.24 123.2 123.29 120.67 123.35C120.36 123.35 120.12 123.13 120.12 122.86C120.1 120.32 120.08 117.79 120.07 115.26C120.07 114.97 120.31 114.74 120.61 114.73ZM108.41 114.89C110.94 114.86 113.47 114.83 116.01 114.79C116.31 114.79 116.56 115.01 116.56 115.29C116.57 117.83 116.59 120.37 116.61 122.91C116.61 123.18 116.36 123.42 116.06 123.42C113.52 123.47 110.97 123.52 108.44 123.57C108.14 123.58 107.89 123.35 107.89 123.08C107.88 120.52 107.88 117.95 107.86 115.4C107.87 115.12 108.11 114.89 108.41 114.89Z" fill="#8EB69B"/>
<path fill-rule="evenodd" clip-rule="evenodd" d="M91.99 96.84L167.72 98.51C169.2 98.54 170.42 99.73 170.42 101.21V111.28H170.4L90.67 112.21C90.16 112.22 89.7 112.08 89.29 111.84V99.53C89.3 98.05 90.51 96.8 91.99 96.84Z" stroke="#235347" stroke-miterlimit="10"/>
<path fill-rule="evenodd" clip-rule="evenodd" d="M91.99 96.73L167.73 98.4C168.5 98.42 169.21 98.74 169.72 99.25C170.22 99.75 170.54 100.45 170.54 101.21V111.28V111.39H170.43H170.41L90.68 112.32C90.42 112.33 90.17 112.29 89.93 112.23C89.69 112.17 89.46 112.06 89.24 111.94L89.18 111.91V111.84V99.53V99.47C89.2 98.72 89.51 98.03 90.01 97.54C90.51 97.04 91.18 96.73 91.93 96.73H91.94H91.99ZM167.73 98.62L92 96.95H91.94C91.26 96.95 90.63 97.24 90.17 97.69C89.71 98.15 89.43 98.79 89.41 99.47V99.53V111.77C89.59 111.88 89.79 111.96 89.99 112.01C90.21 112.07 90.44 112.1 90.67 112.09L170.31 111.16V101.2C170.31 100.49 170.02 99.85 169.56 99.39C169.09 98.93 168.44 98.64 167.73 98.62Z" fill="#235347"/>
<path fill-rule="evenodd" clip-rule="evenodd" d="M152.16 98.18C152.26 97.15 152.51 95.74 153.03 94.65C153.56 93.53 154.36 92.69 155.55 92.69C156.62 92.69 157.53 93.5 158.14 94.79C158.67 95.91 158.99 97.43 158.99 99.1C158.99 100.76 158.67 102.28 158.14 103.39C157.53 104.69 156.62 105.49 155.55 105.49C155.11 105.49 154.74 105.13 154.74 104.68C154.74 104.24 155.1 103.88 155.55 103.88C155.94 103.88 156.35 103.43 156.69 102.7C157.12 101.79 157.39 100.51 157.39 99.09C157.39 97.66 157.12 96.38 156.69 95.47C156.35 94.74 155.94 94.29 155.55 94.29C155.11 94.29 154.76 94.73 154.48 95.32C154.07 96.19 153.86 97.33 153.77 98.2L152.16 98.18ZM104.71 97.16C104.83 96.17 105.07 94.93 105.54 93.95C106.07 92.82 106.87 91.99 108.06 91.99C109.13 91.99 110.04 92.79 110.65 94.09C111.18 95.2 111.51 96.72 111.51 98.39C111.51 100.05 111.18 101.57 110.65 102.68C110.04 103.98 109.13 104.78 108.06 104.78C107.62 104.78 107.26 104.42 107.26 103.98C107.26 103.53 107.62 103.17 108.06 103.17C108.45 103.17 108.85 102.72 109.2 101.99C109.64 101.08 109.9 99.8 109.9 98.38C109.9 96.95 109.64 95.67 109.2 94.76C108.86 94.04 108.45 93.58 108.06 93.58C107.62 93.58 107.27 94.02 106.99 94.61C106.63 95.38 106.42 96.35 106.32 97.17L104.71 97.16ZM120.5 97.5C120.6 96.46 120.85 95.06 121.37 93.97C121.9 92.84 122.7 92.01 123.89 92.01C124.96 92.01 125.87 92.81 126.48 94.11C127.01 95.22 127.33 96.74 127.33 98.41C127.33 100.07 127.01 101.59 126.48 102.7C125.87 104 124.96 104.81 123.89 104.81C123.45 104.81 123.09 104.45 123.09 104C123.09 103.55 123.45 103.19 123.89 103.19C124.28 103.19 124.69 102.74 125.03 102.01C125.46 101.1 125.73 99.83 125.73 98.4C125.73 96.97 125.46 95.69 125.03 94.78C124.69 94.05 124.28 93.6 123.89 93.6C123.45 93.6 123.1 94.04 122.82 94.64C122.41 95.5 122.19 96.65 122.11 97.52L120.5 97.5ZM136.32 97.84C136.42 96.81 136.68 95.4 137.19 94.31C137.72 93.18 138.52 92.35 139.71 92.35C140.78 92.35 141.69 93.15 142.3 94.45C142.83 95.56 143.16 97.09 143.16 98.75C143.16 100.41 142.83 101.93 142.3 103.05C141.69 104.34 140.78 105.15 139.71 105.15C139.27 105.15 138.9 104.79 138.9 104.34C138.9 103.89 139.26 103.53 139.71 103.53C140.1 103.53 140.5 103.08 140.85 102.35C141.29 101.44 141.55 100.16 141.55 98.74C141.55 97.31 141.29 96.03 140.85 95.12C140.51 94.4 140.1 93.95 139.71 93.95C139.27 93.95 138.92 94.39 138.64 94.98C138.23 95.85 138.01 96.98 137.93 97.85L136.32 97.84Z" fill="#235347"/>
<path d="M238.96 155.37C238.96 155.37 242.43 155.19 242.98 152.48C243.53 149.77 245.55 118.12 245.55 118.12L248.9 74.21C249.07 71.99 247.35 70.05 245.12 70.03C245.09 70.03 245.05 70.03 245.02 70.03C239.65 69.58 205.99 67.34 205.76 67.32C205.53 67.3 203.65 67.72 202.85 68.63C202.05 69.54 201.86 69.57 201.7 71.68C201.54 73.79 238.96 155.37 238.96 155.37Z" fill="#21894B" stroke="#235347" stroke-miterlimit="10" stroke-linecap="round" stroke-linejoin="round"/>
<path d="M238.41 155.48L198.16 152.47C196.78 152.37 195.75 151.17 195.85 149.79L201.76 70.78C201.86 69.4 203.06 68.37 204.44 68.47L244.69 71.48C246.07 71.58 247.1 72.78 247 74.16L241.09 153.17C240.99 154.55 239.79 155.58 238.41 155.48Z" fill="#45CE7C" stroke="#235347" stroke-miterlimit="10" stroke-linecap="round" stroke-linejoin="round"/>
<path opacity="0.58" d="M241.46 104.65L201.98 101.7L204.15 72.65C204.2 71.94 204.82 71.41 205.53 71.46L242.44 74.22C243.15 74.27 243.68 74.89 243.63 75.6L241.46 104.65Z" fill="#DAF1DE"/>
<path d="M222.61 91.07C221.19 90.96 219.78 90.86 218.36 90.76C218.23 90.75 218.18 90.7 218.15 90.58C217.48 87.81 216.8 85.04 216.12 82.27C216.09 82.15 216.12 82.1 216.22 82.03C218.64 80.54 221.06 79.05 223.47 77.55C223.6 77.47 223.67 77.46 223.8 77.57C225.97 79.42 228.14 81.25 230.32 83.09C230.4 83.15 230.44 83.2 230.39 83.32C229.32 85.9 228.26 88.48 227.2 91.07C227.06 91.4 227.06 91.4 226.71 91.38C225.34 91.27 223.98 91.17 222.61 91.07Z" fill="#45CE7C"/>
<path d="M215.37 104.84L218.11 105.05L218.07 105.6L215.99 105.44L215.86 107.13L217.78 107.27L217.74 107.81L215.82 107.67L215.65 109.97L214.98 109.92L215.37 104.84Z" fill="#235347"/>
<path d="M219.72 105.17L219.34 110.26L218.67 110.21L219.05 105.12L219.72 105.17Z" fill="#235347"/>
<path d="M220.48 110.35L220.86 105.26L221.59 105.31L223.02 108.01C223.35 108.63 223.61 109.19 223.8 109.73L223.82 109.72C223.81 109.04 223.84 108.41 223.9 107.62L224.06 105.49L224.68 105.54L224.3 110.63L223.63 110.58L222.21 107.87C221.9 107.28 221.6 106.67 221.39 106.1L221.37 106.11C221.36 106.75 221.32 107.37 221.26 108.21L221.1 110.39L220.48 110.35Z" fill="#235347"/>
<path d="M228.27 108.53L226.3 108.38L226.16 110.22L228.37 110.39L228.33 110.94L225.46 110.73L225.84 105.64L228.6 105.85L228.56 106.4L226.47 106.24L226.35 107.85L228.32 108L228.27 108.53Z" fill="#235347"/>
<path d="M214.27 118.45C213.85 118.58 213.02 118.74 212.07 118.67C211.01 118.59 210.15 118.25 209.51 117.55C208.95 116.92 208.64 115.95 208.73 114.86C208.89 112.76 210.45 111.34 212.81 111.52C213.62 111.58 214.26 111.81 214.55 111.97L214.27 112.69C213.91 112.49 213.45 112.32 212.74 112.27C211.03 112.14 209.84 113.12 209.7 114.88C209.57 116.66 210.55 117.8 212.2 117.92C212.79 117.96 213.21 117.91 213.42 117.82L213.58 115.72L212.16 115.61L212.21 114.88L214.52 115.05L214.27 118.45Z" fill="#235347"/>
<path d="M221.9 115.73C221.72 118.14 220.15 119.32 218.36 119.19C216.49 119.05 215.31 117.5 215.47 115.38C215.64 113.15 217.12 111.79 219 111.93C220.93 112.07 222.06 113.64 221.9 115.73ZM216.43 115.43C216.32 116.94 217.03 118.35 218.47 118.45C219.91 118.56 220.82 117.29 220.94 115.7C221.05 114.29 220.42 112.78 218.91 112.67C217.4 112.55 216.55 113.9 216.43 115.43Z" fill="#235347"/>
<path d="M223.33 112.38L224.25 112.45L223.78 118.72L226.78 118.94L226.72 119.7L222.8 119.41L223.33 112.38Z" fill="#235347"/>
<path d="M228.26 112.85C228.82 112.8 229.48 112.78 230.2 112.84C231.5 112.94 232.41 113.32 232.98 113.93C233.57 114.55 233.88 115.39 233.79 116.53C233.7 117.68 233.27 118.59 232.57 119.19C231.85 119.8 230.74 120.07 229.38 119.97C228.72 119.92 228.19 119.85 227.74 119.76L228.26 112.85ZM228.7 119.13C228.93 119.18 229.26 119.21 229.61 119.24C231.56 119.39 232.68 118.38 232.82 116.48C232.96 114.82 232.1 113.7 230.18 113.56C229.71 113.52 229.35 113.54 229.11 113.57L228.7 119.13Z" fill="#235347"/>
<path d="M212.45 126.66C212.59 126.69 212.76 126.68 212.99 126.68C213.38 126.66 213.76 126.53 214.06 126.28C214.41 126.01 214.68 125.59 214.81 125.02H214.79C214.49 125.33 214.08 125.5 213.58 125.46C212.7 125.39 212.18 124.68 212.24 123.84C212.31 122.9 213.05 122.13 214.06 122.21C215.07 122.29 215.64 123.15 215.54 124.43C215.46 125.51 215.04 126.25 214.51 126.68C214.1 127.02 213.56 127.21 213.02 127.23C212.77 127.25 212.56 127.24 212.4 127.22L212.45 126.66ZM212.91 123.83C212.86 124.45 213.2 124.91 213.78 124.95C214.23 124.98 214.6 124.79 214.79 124.51C214.83 124.44 214.86 124.38 214.87 124.26C214.93 123.41 214.67 122.74 213.96 122.69C213.4 122.65 212.96 123.13 212.91 123.83Z" fill="#235347"/>
<path d="M216.36 126.95C216.5 126.98 216.67 126.97 216.9 126.97C217.29 126.95 217.67 126.82 217.97 126.57C218.32 126.3 218.59 125.88 218.72 125.31H218.7C218.4 125.62 217.99 125.79 217.49 125.75C216.61 125.68 216.09 124.97 216.15 124.13C216.22 123.19 216.96 122.42 217.97 122.5C218.98 122.58 219.55 123.44 219.45 124.72C219.37 125.8 218.95 126.54 218.42 126.97C218.01 127.31 217.47 127.5 216.93 127.52C216.68 127.54 216.47 127.53 216.31 127.51L216.36 126.95ZM216.81 124.13C216.76 124.75 217.1 125.21 217.68 125.25C218.13 125.28 218.5 125.09 218.69 124.81C218.73 124.74 218.76 124.68 218.77 124.56C218.83 123.71 218.57 123.04 217.86 122.99C217.31 122.95 216.87 123.42 216.81 124.13Z" fill="#235347"/>
<path d="M220.27 127.24C220.41 127.27 220.58 127.26 220.81 127.26C221.2 127.24 221.58 127.11 221.88 126.86C222.23 126.59 222.5 126.17 222.63 125.6H222.61C222.31 125.91 221.9 126.08 221.4 126.04C220.52 125.97 220 125.26 220.06 124.42C220.13 123.48 220.87 122.71 221.88 122.79C222.89 122.87 223.46 123.73 223.36 125.01C223.28 126.09 222.86 126.83 222.33 127.26C221.92 127.6 221.38 127.79 220.84 127.81C220.59 127.83 220.38 127.82 220.22 127.8L220.27 127.24ZM220.72 124.42C220.67 125.04 221.01 125.5 221.59 125.54C222.04 125.57 222.41 125.38 222.6 125.1C222.64 125.03 222.67 124.97 222.68 124.85C222.74 124 222.48 123.33 221.77 123.28C221.22 123.24 220.77 123.71 220.72 124.42Z" fill="#235347"/>
<path d="M223.46 128.9C223.66 128.46 223.93 127.66 224.05 127.11L224.8 127.09C224.57 127.72 224.17 128.54 223.93 128.89L223.46 128.9Z" fill="#235347"/>
<path d="M225.75 127.65C225.89 127.68 226.06 127.67 226.29 127.67C226.68 127.65 227.06 127.52 227.36 127.27C227.71 127 227.98 126.58 228.11 126.01H228.09C227.79 126.32 227.38 126.49 226.88 126.45C226 126.38 225.48 125.67 225.54 124.83C225.61 123.89 226.35 123.12 227.36 123.2C228.37 123.28 228.94 124.14 228.84 125.42C228.76 126.5 228.34 127.24 227.81 127.67C227.4 128.01 226.86 128.2 226.32 128.22C226.07 128.24 225.86 128.23 225.7 128.21L225.75 127.65ZM226.21 124.83C226.16 125.45 226.5 125.91 227.08 125.95C227.53 125.98 227.9 125.79 228.09 125.51C228.13 125.44 228.16 125.38 228.17 125.26C228.23 124.41 227.97 123.74 227.26 123.69C226.7 123.65 226.26 124.12 226.21 124.83Z" fill="#235347"/>
<path d="M211.53 140.57H211.51L210.39 141.07L210.28 140.42L211.69 139.8L212.4 139.85L211.94 146.04L211.13 145.98L211.53 140.57Z" fill="#235347"/>
<path d="M217.42 143.27C217.26 145.37 216.39 146.48 215.02 146.38C213.81 146.29 213.07 145.09 213.2 143.05C213.36 140.96 214.35 139.9 215.6 139.99C216.91 140.08 217.57 141.3 217.42 143.27ZM214.05 143.11C213.93 144.72 214.36 145.67 215.12 145.73C215.97 145.79 216.45 144.82 216.57 143.24C216.68 141.72 216.38 140.69 215.5 140.62C214.78 140.57 214.18 141.43 214.05 143.11Z" fill="#235347"/>
<path d="M222.31 143.63C222.15 145.73 221.28 146.84 219.91 146.74C218.7 146.65 217.96 145.45 218.09 143.41C218.25 141.32 219.24 140.26 220.49 140.35C221.79 140.44 222.46 141.66 222.31 143.63ZM218.94 143.48C218.82 145.09 219.25 146.04 220.01 146.1C220.86 146.16 221.34 145.19 221.46 143.61C221.57 142.09 221.27 141.06 220.39 140.99C219.67 140.94 219.07 141.79 218.94 143.48Z" fill="#235347"/>
<path d="M227.36 146.51C227.28 147.58 227.01 148.2 226.54 148.57C226.05 148.94 225.39 149.04 224.81 149C224.26 148.96 223.66 148.78 223.31 148.5L223.57 147.87C223.86 148.09 224.32 148.3 224.89 148.34C225.75 148.4 226.41 148 226.5 146.83L226.54 146.33H226.52C226.24 146.74 225.71 147.04 225 146.99C223.86 146.9 223.11 145.87 223.21 144.6C223.33 143.04 224.41 142.24 225.48 142.32C226.28 142.38 226.68 142.82 226.86 143.22H226.88L226.96 142.53L227.7 142.59C227.65 142.91 227.61 143.29 227.57 143.84L227.36 146.51ZM226.68 144.33C226.69 144.19 226.69 144.06 226.66 143.96C226.54 143.45 226.17 143.02 225.56 142.98C224.76 142.92 224.14 143.55 224.06 144.62C223.99 145.52 224.4 146.31 225.3 146.38C225.82 146.42 226.31 146.13 226.53 145.61C226.59 145.47 226.62 145.31 226.63 145.17L226.68 144.33Z" fill="#235347"/>
<path d="M215.07 104.62L217.81 104.83L217.77 105.38L215.69 105.22L215.56 106.91L217.48 107.05L217.44 107.59L215.52 107.45L215.35 109.75L214.68 109.7L215.07 104.62Z" fill="#288C50"/>
<path d="M219.41 104.94L219.03 110.03L218.36 109.98L218.74 104.89L219.41 104.94Z" fill="#288C50"/>
<path d="M220.18 110.12L220.56 105.03L221.29 105.08L222.72 107.78C223.05 108.4 223.31 108.96 223.5 109.5L223.52 109.49C223.51 108.81 223.54 108.19 223.6 107.39L223.76 105.26L224.38 105.31L224 110.4L223.33 110.35L221.91 107.64C221.6 107.05 221.3 106.44 221.09 105.87L221.07 105.88C221.06 106.52 221.02 107.14 220.96 107.98L220.8 110.16L220.18 110.12Z" fill="#288C50"/>
<path d="M227.96 108.3L225.99 108.15L225.85 109.99L228.06 110.16L228.02 110.71L225.15 110.5L225.53 105.41L228.29 105.62L228.25 106.17L226.16 106.01L226.04 107.62L228.01 107.77L227.96 108.3Z" fill="#288C50"/>
<path d="M213.95 118.5C213.53 118.63 212.7 118.79 211.75 118.72C210.69 118.64 209.83 118.3 209.19 117.6C208.63 116.97 208.32 116 208.41 114.91C208.57 112.81 210.13 111.39 212.49 111.57C213.3 111.63 213.94 111.86 214.23 112.02L213.95 112.74C213.59 112.53 213.13 112.37 212.42 112.32C210.71 112.19 209.52 113.17 209.38 114.93C209.25 116.71 210.23 117.84 211.88 117.97C212.47 118.01 212.89 117.96 213.1 117.87L213.26 115.77L211.84 115.66L211.89 114.93L214.2 115.1L213.95 118.5Z" fill="#288C50"/>
<path d="M221.58 115.78C221.4 118.19 219.83 119.37 218.04 119.24C216.17 119.1 214.99 117.55 215.15 115.43C215.32 113.2 216.8 111.84 218.68 111.98C220.61 112.12 221.74 113.68 221.58 115.78ZM216.11 115.47C216 116.98 216.71 118.39 218.15 118.5C219.59 118.61 220.5 117.34 220.62 115.75C220.73 114.34 220.1 112.83 218.59 112.72C217.08 112.6 216.22 113.94 216.11 115.47Z" fill="#288C50"/>
<path d="M223.01 112.42L223.93 112.49L223.46 118.76L226.46 118.98L226.4 119.74L222.48 119.45L223.01 112.42Z" fill="#288C50"/>
<path d="M227.93 112.9C228.49 112.85 229.15 112.83 229.87 112.89C231.17 112.99 232.08 113.37 232.65 113.98C233.24 114.6 233.55 115.44 233.46 116.58C233.37 117.73 232.94 118.64 232.24 119.24C231.52 119.85 230.41 120.12 229.05 120.02C228.39 119.97 227.86 119.9 227.41 119.81L227.93 112.9ZM228.38 119.18C228.61 119.23 228.94 119.26 229.29 119.29C231.24 119.44 232.36 118.43 232.5 116.53C232.64 114.87 231.78 113.75 229.86 113.61C229.39 113.57 229.03 113.59 228.79 113.62L228.38 119.18Z" fill="#288C50"/>
<path d="M212.25 126.43C212.39 126.46 212.56 126.45 212.79 126.45C213.18 126.43 213.56 126.3 213.86 126.05C214.21 125.78 214.48 125.36 214.61 124.79H214.59C214.29 125.1 213.88 125.27 213.38 125.23C212.5 125.16 211.98 124.45 212.04 123.61C212.11 122.67 212.85 121.9 213.86 121.98C214.87 122.06 215.44 122.92 215.34 124.2C215.26 125.28 214.84 126.02 214.31 126.45C213.9 126.79 213.36 126.98 212.82 127C212.57 127.02 212.36 127.01 212.2 126.99L212.25 126.43ZM212.71 123.6C212.66 124.22 213 124.68 213.58 124.72C214.03 124.75 214.4 124.56 214.59 124.27C214.63 124.2 214.66 124.14 214.67 124.02C214.73 123.17 214.47 122.5 213.76 122.45C213.2 122.42 212.76 122.89 212.71 123.6Z" fill="#288C50"/>
<path d="M216.16 126.72C216.3 126.75 216.47 126.74 216.7 126.74C217.09 126.72 217.47 126.59 217.77 126.34C218.12 126.07 218.39 125.65 218.52 125.08H218.5C218.2 125.39 217.79 125.56 217.29 125.52C216.41 125.45 215.89 124.74 215.95 123.9C216.02 122.96 216.76 122.19 217.77 122.27C218.78 122.35 219.35 123.21 219.25 124.49C219.17 125.57 218.75 126.31 218.22 126.74C217.81 127.08 217.27 127.27 216.73 127.29C216.48 127.31 216.27 127.3 216.11 127.28L216.16 126.72ZM216.62 123.9C216.57 124.52 216.91 124.98 217.49 125.02C217.94 125.05 218.31 124.86 218.5 124.57C218.54 124.5 218.57 124.44 218.58 124.32C218.64 123.47 218.38 122.8 217.67 122.75C217.11 122.72 216.67 123.19 216.62 123.9Z" fill="#288C50"/>
<path d="M220.07 127.01C220.21 127.04 220.38 127.03 220.61 127.03C221 127.01 221.38 126.88 221.68 126.63C222.03 126.36 222.3 125.94 222.43 125.37H222.41C222.11 125.68 221.7 125.85 221.2 125.81C220.32 125.74 219.8 125.03 219.86 124.19C219.93 123.25 220.67 122.48 221.68 122.56C222.69 122.64 223.26 123.5 223.16 124.78C223.08 125.86 222.66 126.6 222.13 127.03C221.72 127.37 221.18 127.56 220.64 127.58C220.39 127.6 220.18 127.59 220.02 127.57L220.07 127.01ZM220.52 124.19C220.47 124.81 220.81 125.27 221.39 125.31C221.84 125.34 222.21 125.15 222.4 124.86C222.44 124.79 222.47 124.73 222.48 124.61C222.54 123.76 222.28 123.09 221.57 123.04C221.02 123.01 220.58 123.48 220.52 124.19Z" fill="#288C50"/>
<path d="M223.26 128.67C223.46 128.23 223.73 127.43 223.85 126.88L224.6 126.86C224.37 127.49 223.97 128.31 223.73 128.66L223.26 128.67Z" fill="#288C50"/>
<path d="M225.55 127.42C225.69 127.45 225.86 127.44 226.09 127.44C226.48 127.42 226.86 127.29 227.16 127.04C227.51 126.77 227.78 126.35 227.91 125.78H227.89C227.59 126.09 227.18 126.26 226.68 126.22C225.8 126.15 225.28 125.44 225.34 124.6C225.41 123.66 226.15 122.89 227.16 122.97C228.17 123.05 228.74 123.91 228.64 125.19C228.56 126.27 228.14 127.01 227.61 127.44C227.2 127.78 226.66 127.97 226.12 127.99C225.87 128.01 225.66 128 225.5 127.98L225.55 127.42ZM226.01 124.6C225.96 125.22 226.3 125.68 226.88 125.72C227.33 125.75 227.7 125.56 227.89 125.27C227.93 125.2 227.96 125.14 227.97 125.02C228.03 124.17 227.77 123.5 227.06 123.45C226.5 123.42 226.06 123.89 226.01 124.6Z" fill="#288C50"/>
<path d="M211.34 140.39H211.32L210.2 140.89L210.09 140.24L211.5 139.62L212.21 139.67L211.75 145.86L210.94 145.8L211.34 140.39Z" fill="#288C50"/>
<path d="M217.23 143.09C217.07 145.19 216.2 146.3 214.83 146.2C213.62 146.11 212.88 144.91 213.01 142.87C213.17 140.78 214.16 139.72 215.41 139.81C216.71 139.9 217.38 141.12 217.23 143.09ZM213.86 142.93C213.74 144.54 214.17 145.49 214.93 145.55C215.78 145.61 216.26 144.64 216.38 143.06C216.49 141.54 216.19 140.51 215.31 140.44C214.59 140.39 213.99 141.25 213.86 142.93Z" fill="#288C50"/>
<path d="M222.11 143.45C221.95 145.55 221.08 146.66 219.71 146.56C218.5 146.47 217.76 145.27 217.89 143.23C218.05 141.14 219.04 140.08 220.29 140.17C221.6 140.26 222.26 141.48 222.11 143.45ZM218.75 143.3C218.63 144.91 219.06 145.86 219.82 145.92C220.67 145.98 221.15 145.01 221.27 143.43C221.38 141.91 221.08 140.88 220.2 140.81C219.47 140.76 218.87 141.61 218.75 143.3Z" fill="#288C50"/>
<path d="M227.17 146.33C227.09 147.4 226.82 148.02 226.35 148.39C225.86 148.76 225.2 148.86 224.62 148.82C224.07 148.78 223.47 148.6 223.12 148.32L223.38 147.69C223.67 147.91 224.13 148.12 224.7 148.16C225.56 148.22 226.22 147.82 226.31 146.65L226.35 146.15H226.33C226.05 146.56 225.52 146.86 224.81 146.81C223.67 146.72 222.92 145.69 223.02 144.42C223.14 142.86 224.22 142.06 225.29 142.14C226.09 142.2 226.49 142.64 226.67 143.04H226.69L226.77 142.35L227.51 142.41C227.46 142.73 227.42 143.11 227.38 143.66L227.17 146.33ZM226.49 144.15C226.5 144.01 226.5 143.88 226.47 143.78C226.35 143.27 225.98 142.84 225.37 142.8C224.57 142.74 223.95 143.37 223.87 144.44C223.8 145.34 224.21 146.13 225.11 146.2C225.63 146.24 226.12 145.95 226.34 145.43C226.4 145.29 226.43 145.13 226.44 144.99L226.49 144.15Z" fill="#288C50"/>
<path opacity="0.2" d="M236.93 153.85L199.86 151.08C198.48 150.98 197.45 149.78 197.55 148.4L203.22 72.69C203.32 71.31 204.52 70.28 205.9 70.38L242.97 73.15C244.35 73.25 245.38 74.45 245.28 75.83L239.61 151.54C239.51 152.92 238.31 153.96 236.93 153.85Z" fill="black" fill-opacity="0.7"/>
<path d="M228.85 129.33C228.85 129.33 229.37 131.78 229.92 132.77C230.38 133.6 233.08 133.84 233.08 133.84C233.08 133.84 230.7 134.52 230.08 134.98C228.99 135.56 228.89 138.64 228.89 138.64C228.89 138.64 228.52 135.56 227.84 134.83C227.2 134.14 224.63 133.91 224.63 133.91C224.63 133.91 227.07 133.29 227.56 132.84C228.4 132.05 228.85 129.33 228.85 129.33Z" fill="#DAF1DE" stroke="#235347" stroke-width="0.5" stroke-miterlimit="10" stroke-linecap="round" stroke-linejoin="round"/>
<path d="M250.4 60.43C250.4 60.43 251.01 63.32 251.66 64.49C252.2 65.47 255.39 65.76 255.39 65.76C255.39 65.76 252.44 66.27 251.7 66.82C250.41 67.51 250.44 71.42 250.44 71.42C250.44 71.42 250 67.78 249.2 66.92C248.44 66.1 245.42 65.83 245.42 65.83C245.42 65.83 248.3 65.1 248.88 64.56C249.86 63.64 250.4 60.43 250.4 60.43Z" fill="#DAF1DE" stroke="#235347" stroke-width="0.5" stroke-miterlimit="10" stroke-linecap="round" stroke-linejoin="round"/>
<path d="M164.12 83.08C164.12 83.08 164.52 84.96 164.94 85.72C165.29 86.36 167.36 86.54 167.36 86.54C167.36 86.54 165.44 86.87 164.96 87.23C164.12 87.68 164.14 90.22 164.14 90.22C164.14 90.22 163.85 87.85 163.33 87.3C162.84 86.77 160.87 86.59 160.87 86.59C160.87 86.59 162.74 86.11 163.12 85.77C163.77 85.16 164.12 83.08 164.12 83.08Z" fill="#DAF1DE" stroke="#235347" stroke-width="0.5" stroke-miterlimit="10" stroke-linecap="round" stroke-linejoin="round"/>
<path d="M170.92 78.96C170.92 78.96 171.32 80.84 171.74 81.6C172.09 82.24 174.16 82.42 174.16 82.42C174.16 82.42 172.24 82.75 171.76 83.11C170.92 83.56 170.94 86.1 170.94 86.1C170.94 86.1 170.65 83.73 170.13 83.18C169.64 82.65 167.67 82.47 167.67 82.47C167.67 82.47 169.54 81.99 169.92 81.65C170.57 81.04 170.92 78.96 170.92 78.96Z" fill="#DAF1DE" stroke="#235347" stroke-width="0.5" stroke-miterlimit="10" stroke-linecap="round" stroke-linejoin="round"/>
<path d="M258.62 121.13C258.62 121.13 259.23 124.02 259.88 125.19C260.42 126.17 263.61 126.46 263.61 126.46C263.61 126.46 260.66 126.97 259.92 127.52C258.63 128.21 258.66 132.12 258.66 132.12C258.66 132.12 258.22 128.48 257.42 127.62C256.66 126.8 253.64 126.53 253.64 126.53C253.64 126.53 256.52 125.8 257.1 125.26C258.08 124.34 258.62 121.13 258.62 121.13Z" fill="#DAF1DE" stroke="#235347" stroke-width="0.5" stroke-miterlimit="10" stroke-linecap="round" stroke-linejoin="round"/>
<path d="M263.61 113.1C263.61 113.1 264.01 114.98 264.43 115.74C264.78 116.38 266.85 116.56 266.85 116.56C266.85 116.56 264.93 116.89 264.45 117.25C263.61 117.7 263.63 120.24 263.63 120.24C263.63 120.24 263.34 117.87 262.82 117.32C262.33 116.79 260.36 116.61 260.36 116.61C260.36 116.61 262.23 116.13 262.61 115.79C263.26 115.19 263.61 113.1 263.61 113.1Z" fill="#DAF1DE" stroke="#235347" stroke-width="0.5" stroke-miterlimit="10" stroke-linecap="round" stroke-linejoin="round"/>
<path d="M186.41 106.74C193.573 106.74 199.38 100.933 199.38 93.77C199.38 86.6068 193.573 80.8 186.41 80.8C179.247 80.8 173.44 86.6068 173.44 93.77C173.44 100.933 179.247 106.74 186.41 106.74Z" stroke="#235347" stroke-miterlimit="10"/>
<path d="M184.04 98.41L188.96 88.8" stroke="#235347" stroke-miterlimit="10" stroke-linecap="round" stroke-linejoin="round"/>
<path d="M183.86 91.98C184.738 91.98 185.45 91.2681 185.45 90.39C185.45 89.5119 184.738 88.8 183.86 88.8C182.982 88.8 182.27 89.5119 182.27 90.39C182.27 91.2681 182.982 91.98 183.86 91.98Z" stroke="#235347" stroke-miterlimit="10" stroke-linecap="round" stroke-linejoin="round"/>
<path d="M188.96 98.82C189.838 98.82 190.55 98.1082 190.55 97.23C190.55 96.3519 189.838 95.64 188.96 95.64C188.082 95.64 187.37 96.3519 187.37 97.23C187.37 98.1082 188.082 98.82 188.96 98.82Z" stroke="#235347" stroke-miterlimit="10" stroke-linecap="round" stroke-linejoin="round"/>
<path d="M183.92 139.34H151.12C150.61 139.34 150.25 138.85 150.4 138.37L154.75 123.94C154.85 123.62 155.14 123.4 155.47 123.4H179.57C179.9 123.4 180.2 123.62 180.29 123.94L184.64 138.37C184.79 138.85 184.43 139.34 183.92 139.34Z" fill="#DAF1DE" stroke="#235347" stroke-miterlimit="10"/>
<path d="M166.25 156.37H133.45C132.94 156.37 132.58 155.88 132.73 155.4L137.08 140.97C137.18 140.65 137.47 140.43 137.8 140.43H161.9C162.23 140.43 162.53 140.65 162.62 140.97L166.97 155.4C167.12 155.88 166.76 156.37 166.25 156.37Z" fill="#DAF1DE" stroke="#235347" stroke-miterlimit="10"/>
<path d="M201.07 156.37H168.27C167.76 156.37 167.4 155.88 167.55 155.4L171.9 140.97C172 140.65 172.29 140.43 172.62 140.43H196.72C197.05 140.43 197.35 140.65 197.44 140.97L201.79 155.4C201.94 155.88 201.58 156.37 201.07 156.37Z" fill="#DAF1DE" stroke="#235347" stroke-miterlimit="10"/>
<path d="M218.23 139.54H185.43C184.92 139.54 184.56 139.05 184.71 138.57L189.06 124.14C189.16 123.82 189.45 123.6 189.78 123.6H213.88C214.21 123.6 214.51 123.82 214.6 124.14L218.95 138.57C219.09 139.06 218.73 139.54 218.23 139.54Z" fill="#DAF1DE" stroke="#235347" stroke-miterlimit="10"/>
<path d="M235.38 156.37H202.58C202.07 156.37 201.71 155.88 201.86 155.4L206.21 140.97C206.31 140.65 206.6 140.43 206.93 140.43H231.03C231.36 140.43 231.66 140.65 231.75 140.97L236.1 155.4C236.25 155.88 235.89 156.37 235.38 156.37Z" fill="#DAF1DE" stroke="#235347" stroke-miterlimit="10"/>
<path d="M201.14 122.47H168.34C167.83 122.47 167.47 121.98 167.62 121.5L171.97 107.07C172.07 106.75 172.36 106.53 172.69 106.53H196.79C197.12 106.53 197.42 106.75 197.51 107.07L201.86 121.5C202.01 121.98 201.64 122.47 201.14 122.47Z" fill="#DAF1DE" stroke="#235347" stroke-miterlimit="10"/>
<path d="M188.33 107.08C188.33 107.08 189.93 107.14 190.42 108.77C190.91 110.4 192.72 120.98 192.81 121.26C192.9 121.54 192.68 121.91 192 121.9C191.4 121.89 199.26 121.9 201.11 121.9C201.3 121.9 201.44 121.71 201.38 121.53L198.22 111.5L196.94 107.27C196.91 107.16 196.81 107.09 196.7 107.09H188.33V107.08Z" fill="#8EB69B"/>
<path d="M205.5 124.17C205.5 124.17 207.1 124.23 207.59 125.86C208.08 127.49 209.89 138.07 209.98 138.35C210.07 138.63 209.85 139 209.17 138.99C208.57 138.98 216.43 138.99 218.28 138.99C218.47 138.99 218.61 138.8 218.55 138.62L215.39 128.59L214.11 124.36C214.08 124.25 213.98 124.18 213.87 124.18H205.5V124.17Z" fill="#8EB69B"/>
<path d="M171.15 123.96C171.15 123.96 172.75 124.02 173.24 125.65C173.73 127.28 175.54 137.86 175.63 138.14C175.72 138.42 175.5 138.79 174.82 138.78C174.22 138.77 182.08 138.78 183.93 138.78C184.12 138.78 184.26 138.59 184.2 138.41L181.04 128.38L179.76 124.15C179.73 124.04 179.63 123.97 179.52 123.97H171.15V123.96Z" fill="#8EB69B"/>
<path d="M153.45 140.99C153.45 140.99 155.05 141.05 155.54 142.68C156.03 144.31 157.84 154.89 157.93 155.17C158.02 155.45 157.8 155.82 157.12 155.81C156.52 155.8 164.38 155.81 166.23 155.81C166.42 155.81 166.56 155.62 166.5 155.44L163.34 145.41L162.06 141.18C162.03 141.07 161.93 141 161.82 141H153.45V140.99Z" fill="#8EB69B"/>
<path d="M188.28 140.99C188.28 140.99 189.88 141.05 190.37 142.68C190.86 144.31 192.67 154.89 192.76 155.17C192.85 155.45 192.63 155.82 191.95 155.81C191.35 155.8 199.21 155.81 201.06 155.81C201.25 155.81 201.39 155.62 201.33 155.44L198.17 145.41L196.89 141.18C196.86 141.07 196.76 141 196.65 141H188.28V140.99Z" fill="#8EB69B"/>
<path d="M222.52 140.99C222.52 140.99 224.12 141.05 224.61 142.68C225.1 144.31 226.91 154.89 227 155.17C227.09 155.45 226.87 155.82 226.19 155.81C225.59 155.8 233.45 155.81 235.3 155.81C235.49 155.81 235.63 155.62 235.57 155.44L232.41 145.41L231.13 141.18C231.1 141.07 231 141 230.89 141H222.52V140.99Z" fill="#8EB69B"/>
<path d="M332.57 156.98H33.88C33.71 156.98 33.56 156.9 33.56 156.8C33.56 156.7 33.7 156.62 33.88 156.62H332.57C332.74 156.62 332.89 156.7 332.89 156.8C332.88 156.9 332.74 156.98 332.57 156.98Z" stroke="#235347" stroke-miterlimit="10" stroke-linecap="round" stroke-linejoin="round"/>
<path fill-rule="evenodd" clip-rule="evenodd" d="M115.14 75.59C106.63 84.98 94.4 92.38 79.64 95.4C77.12 91.19 75.07 86.85 73.49 82.47C86.39 80.73 97.08 74.93 104.41 67.42C107.6 70.44 111.18 73.19 115.14 75.59Z" fill="#45CE7C" stroke="#235347" stroke-miterlimit="10" stroke-linecap="round" stroke-linejoin="round"/>
<path fill-rule="evenodd" clip-rule="evenodd" d="M111.5 76.35C104.65 83.67 92.75 90.97 81.16 93.45C79.34 90.39 77.81 87.25 76.59 84.07C86.89 82.5 97.71 76.31 103.72 70.3C106.07 72.51 108.67 74.54 111.5 76.35Z" stroke="#235347" stroke-width="0.75" stroke-miterlimit="10" stroke-linecap="round" stroke-linejoin="round"/>
<path fill-rule="evenodd" clip-rule="evenodd" d="M97.33 81.29C98.71 82.78 98.59 84.87 96.73 85.92C94.88 86.97 92.16 86.36 90.98 84.65C89.8 82.94 90.41 80.96 92.06 80.12C93.71 79.3 95.93 79.79 97.33 81.29Z" stroke="#235347" stroke-miterlimit="10" stroke-linecap="round" stroke-linejoin="round"/>
<path d="M82.04 91.33C82.04 91.33 87.29 89.93 88.35 89.74" stroke="#235347" stroke-width="0.5" stroke-miterlimit="10" stroke-linecap="round" stroke-linejoin="round"/>
<path d="M81.9 90.13L84.8 89.4" stroke="#235347" stroke-width="0.5" stroke-miterlimit="10" stroke-linecap="round" stroke-linejoin="round"/>
<path d="M102.65 81.36L101.64 79.44L102.24 79.12L102.71 79.56L103.49 80.72L102.65 81.36Z" stroke="#235347" stroke-width="0.5" stroke-miterlimit="10" stroke-linecap="round" stroke-linejoin="round"/>
<path d="M103.83 80.59L103.04 79.21L103.02 78.75L103.83 78.36L104.71 80L103.83 80.59Z" stroke="#235347" stroke-width="0.5" stroke-miterlimit="10" stroke-linecap="round" stroke-linejoin="round"/>
<path d="M104.98 79.7L104.03 78.15L104.64 77.85L105.32 78.49L105.71 79.34L104.98 79.7Z" stroke="#235347" stroke-width="0.5" stroke-miterlimit="10" stroke-linecap="round" stroke-linejoin="round"/>
<path d="M105.95 79.07L105.34 77.74L105.61 77.44H106.08L106.76 78.57L106.3 79.07H105.95Z" stroke="#235347" stroke-width="0.5" stroke-miterlimit="10" stroke-linecap="round" stroke-linejoin="round"/>
<path d="M106.34 76.96C106.48 76.81 106.62 76.65 106.76 76.5C106.85 76.4 106.97 76.29 107.11 76.31C107.22 76.33 107.31 76.43 107.35 76.53C107.39 76.64 107.41 76.75 107.46 76.85C107.6 77.16 108 77.31 108.1 77.64C107.84 77.92 107.52 78.47 107.16 78.14C107.11 78.1 106.43 76.86 106.34 76.96Z" stroke="#235347" stroke-width="0.5" stroke-miterlimit="10" stroke-linecap="round" stroke-linejoin="round"/>
<path d="M107.81 76.2C107.92 76.11 108.03 76.02 108.15 75.94C108.31 75.84 108.51 75.75 108.67 75.84C108.76 75.89 108.81 75.97 108.87 76.05C109.08 76.38 109.29 76.71 109.5 77.04C109.51 77.05 108.98 77.34 108.92 77.36C108.66 77.42 108.7 77.45 108.49 77.28C108.16 77.01 108.18 76.46 107.81 76.2Z" stroke="#235347" stroke-width="0.5" stroke-miterlimit="10" stroke-linecap="round" stroke-linejoin="round"/>
<path d="M104.36 72.75C104.36 72.75 98.85 76.81 98.34 77.26" stroke="#235347" stroke-width="0.5" stroke-miterlimit="10" stroke-linecap="round" stroke-linejoin="round"/>
<path d="M104.94 73.86C104.94 73.86 102.12 76.01 101.62 76.38" stroke="#235347" stroke-width="0.5" stroke-miterlimit="10" stroke-linecap="round" stroke-linejoin="round"/>
<path d="M79.02 87.29L78.44 85.2L79.09 85.02L79.46 85.54L79.98 86.84L79.02 87.29Z" stroke="#235347" stroke-width="0.5" stroke-miterlimit="10" stroke-linecap="round" stroke-linejoin="round"/>
<path d="M80.33 86.79L79.85 85.27L79.93 84.82L80.8 84.6L81.32 86.39L80.33 86.79Z" stroke="#235347" stroke-width="0.5" stroke-miterlimit="10" stroke-linecap="round" stroke-linejoin="round"/>
<path d="M81.65 86.16L81.04 84.44L81.7 84.28L82.24 85.04L82.43 85.96L81.65 86.16Z" stroke="#235347" stroke-width="0.5" stroke-miterlimit="10" stroke-linecap="round" stroke-linejoin="round"/>
<path d="M82.73 85.75L82.41 84.31L82.74 84.08L83.19 84.18L83.63 85.42L83.07 85.81L82.73 85.75Z" stroke="#235347" stroke-width="0.5" stroke-miterlimit="10" stroke-linecap="round" stroke-linejoin="round"/>
<path d="M83.55 83.76C83.72 83.64 83.89 83.52 84.06 83.4C84.17 83.32 84.31 83.24 84.44 83.28C84.55 83.32 84.61 83.44 84.63 83.55C84.65 83.66 84.64 83.78 84.67 83.89C84.75 84.22 85.1 84.45 85.13 84.79C84.81 85.01 84.39 85.48 84.11 85.09C84.07 85.04 83.66 83.68 83.55 83.76Z" stroke="#235347" stroke-width="0.5" stroke-miterlimit="10" stroke-linecap="round" stroke-linejoin="round"/>
<path d="M85.15 83.33C85.28 83.26 85.41 83.2 85.54 83.15C85.71 83.08 85.93 83.04 86.07 83.16C86.15 83.22 86.18 83.32 86.22 83.41C86.36 83.78 86.5 84.14 86.63 84.51C86.63 84.52 86.06 84.7 85.99 84.7C85.72 84.7 85.75 84.74 85.58 84.53C85.32 84.19 85.45 83.66 85.15 83.33Z" stroke="#235347" stroke-width="0.5" stroke-miterlimit="10" stroke-linecap="round" stroke-linejoin="round"/>
<path fill-rule="evenodd" clip-rule="evenodd" d="M104.35 149.45C92.35 153.52 78.06 154.02 63.7 149.47C63.55 144.56 63.87 139.78 64.63 135.18C76.74 139.94 88.9 140.08 98.96 137.09C100.27 141.29 102.07 145.43 104.35 149.45Z" fill="#45CE7C" stroke="#235347" stroke-miterlimit="10" stroke-linecap="round" stroke-linejoin="round"/>
<path fill-rule="evenodd" clip-rule="evenodd" d="M98.52 140.4C99.19 142.56 99.95 144.71 100.81 146.83C100.81 146.83 99.77 146.91 98.91 147.39C98.05 147.87 98.52 148.89 98.52 148.89C92.25 149.97 74.46 150.3 67.62 149C67.62 149 67.77 148.56 67.44 147.75C66.91 146.46 65.77 146.96 65.77 146.96L65.85 139.25C67.19 139.64 67.87 139.4 68.65 138.64C79.88 140.95 88.63 140.98 94.24 140.21C94.24 140.21 94.99 140.88 95.9 140.95C96.81 141.02 98.52 140.4 98.52 140.4Z" stroke="#235347" stroke-miterlimit="10" stroke-linecap="round" stroke-linejoin="round"/>
<path fill-rule="evenodd" clip-rule="evenodd" d="M86.71 145.15C87.12 146.8 86.17 148.29 84.38 148.29C82.6 148.3 80.86 146.75 80.7 145.03C80.53 143.3 81.79 142.1 83.33 142.16C84.88 142.22 86.3 143.49 86.71 145.15Z" stroke="#235347" stroke-miterlimit="10" stroke-linecap="round" stroke-linejoin="round"/>
<path d="M68.36 142.58L68.6 140.48L69.26 140.56L69.4 141.16L69.39 142.52L68.36 142.58Z" stroke="#235347" stroke-width="0.5" stroke-miterlimit="10" stroke-linecap="round" stroke-linejoin="round"/>
<path d="M69.72 142.61L69.85 141.06L70.09 140.69L70.95 140.81L70.76 142.61H69.72Z" stroke="#235347" stroke-width="0.5" stroke-miterlimit="10" stroke-linecap="round" stroke-linejoin="round"/>
<path d="M71.14 142.52L71.22 140.75L71.88 140.85L72.08 141.73L71.92 142.63L71.14 142.52Z" stroke="#235347" stroke-width="0.5" stroke-miterlimit="10" stroke-linecap="round" stroke-linejoin="round"/>
<path d="M72.2601 142.55L72.5001 141.14L72.8801 141.05L73.2601 141.31L73.1901 142.58L72.5401 142.73L72.2601 142.55Z" stroke="#235347" stroke-width="0.5" stroke-miterlimit="10" stroke-linecap="round" stroke-linejoin="round"/>
<path d="M68.53 146.37L72.04 146.41L72.13 145.95L68.63 145.72L68.53 146.37Z" stroke="#235347" stroke-width="0.5" stroke-miterlimit="10" stroke-linecap="round" stroke-linejoin="round"/>
<path d="M93.4 143.11L97.51 143.14L97.36 142.34L93.29 142.52L93.4 143.11Z" stroke="#235347" stroke-width="0.5" stroke-miterlimit="10" stroke-linecap="round" stroke-linejoin="round"/>
<path d="M92.35 148.17L92.28 146.06L92.94 146.04L93.16 146.62L93.35 147.96L92.35 148.17Z" stroke="#235347" stroke-width="0.5" stroke-miterlimit="10" stroke-linecap="round" stroke-linejoin="round"/>
<path d="M93.7 147.99L93.6 146.45L93.77 146.04H94.65L94.73 147.84L93.7 147.99Z" stroke="#235347" stroke-width="0.5" stroke-miterlimit="10" stroke-linecap="round" stroke-linejoin="round"/>
<path d="M95.09 147.7L94.9 145.93H95.57L95.9 146.78L95.88 147.68L95.09 147.7Z" stroke="#235347" stroke-width="0.5" stroke-miterlimit="10" stroke-linecap="round" stroke-linejoin="round"/>
<path d="M96.2 147.56L96.23 146.13L96.59 145.99L97 146.18L97.12 147.45L96.51 147.7L96.2 147.56Z" stroke="#235347" stroke-width="0.5" stroke-miterlimit="10" stroke-linecap="round" stroke-linejoin="round"/>
<path fill-rule="evenodd" clip-rule="evenodd" d="M236.56 39.18C236.56 32.07 242.32 26.31 249.43 26.31C256.54 26.31 262.3 32.07 262.3 39.18C262.3 46.29 256.54 52.05 249.43 52.05C242.33 52.05 236.56 46.29 236.56 39.18Z" fill="#DAF1DE" stroke="#235347" stroke-miterlimit="10"/>
<g opacity="0.32">
<path fill-rule="evenodd" clip-rule="evenodd" d="M256.17 28.2C257.45 30.2 258.2 32.58 258.2 35.13C258.2 42.24 252.44 48 245.33 48C242.86 48 240.56 47.3 238.6 46.1C240.89 49.67 244.89 52.04 249.45 52.04C256.56 52.04 262.32 46.28 262.32 39.17C262.31 34.53 259.85 30.46 256.17 28.2Z" fill="#45CE7C"/>
</g>
<path fill-rule="evenodd" clip-rule="evenodd" d="M238.82 40.36C238.82 34.08 243.91 29 250.18 29C253.85 29 257.11 30.74 259.19 33.44C257.23 30.04 253.55 27.74 249.34 27.74C243.06 27.74 237.97 32.83 237.97 39.1C237.97 41.71 238.85 44.11 240.33 46.02C239.37 44.36 238.82 42.42 238.82 40.36Z" fill="#C7E2CB"/>
<path d="M243.88 35.33C244.4 34.89 245.09 34.68 245.95 34.68C246.53 34.68 247.03 34.78 247.45 34.99C247.87 35.2 248.18 35.47 248.39 35.82C248.6 36.17 248.71 36.56 248.71 37C248.71 37.5 248.58 37.93 248.32 38.28C248.06 38.63 247.75 38.86 247.39 38.98V39.03C247.85 39.17 248.22 39.43 248.48 39.8C248.74 40.17 248.87 40.64 248.87 41.22C248.87 41.7 248.76 42.13 248.54 42.5C248.32 42.88 248 43.17 247.57 43.38C247.14 43.59 246.63 43.7 246.03 43.7C245.13 43.7 244.39 43.47 243.82 43.02C243.25 42.56 242.95 41.89 242.92 41H244.55C244.57 41.39 244.7 41.71 244.95 41.94C245.2 42.18 245.55 42.29 245.99 42.29C246.4 42.29 246.71 42.18 246.93 41.95C247.15 41.72 247.26 41.43 247.26 41.07C247.26 40.59 247.11 40.25 246.8 40.04C246.5 39.83 246.02 39.73 245.38 39.73H245.03V38.35H245.38C246.52 38.35 247.08 37.97 247.08 37.21C247.08 36.87 246.98 36.6 246.77 36.41C246.57 36.22 246.27 36.12 245.89 36.12C245.51 36.12 245.22 36.22 245.02 36.43C244.82 36.63 244.7 36.89 244.67 37.2H243.03C243.07 36.38 243.36 35.77 243.88 35.33Z" fill="#235347"/>
<path d="M254.06 43.63L252.69 41.57L251.48 43.63H249.68L251.85 40.29L249.65 36.98H251.55L252.91 39.03L254.13 36.98H255.93L253.75 40.29L255.96 43.63H254.06Z" fill="#235347"/>
<path fill-rule="evenodd" clip-rule="evenodd" d="M265.42 56.11C265.42 51.06 269.52 46.96 274.57 46.96C279.62 46.96 283.71 51.05 283.71 56.11C283.71 61.16 279.61 65.25 274.57 65.25C269.51 65.26 265.42 61.16 265.42 56.11Z" fill="#DAF1DE" stroke="#235347" stroke-miterlimit="10"/>
<g opacity="0.32">
<path fill-rule="evenodd" clip-rule="evenodd" d="M279.35 48.31C280.26 49.73 280.79 51.42 280.79 53.24C280.79 58.29 276.7 62.39 271.64 62.39C269.89 62.39 268.25 61.89 266.86 61.04C268.48 63.58 271.33 65.26 274.57 65.26C279.62 65.26 283.71 61.17 283.71 56.12C283.71 52.81 281.96 49.92 279.35 48.31Z" fill="#45CE7C"/>
</g>
<path fill-rule="evenodd" clip-rule="evenodd" d="M267.02 56.95C267.02 52.49 270.63 48.88 275.09 48.88C277.7 48.88 280.01 50.12 281.49 52.03C280.1 49.61 277.48 47.98 274.49 47.98C270.03 47.98 266.42 51.59 266.42 56.05C266.42 57.9 267.05 59.61 268.09 60.97C267.41 59.79 267.02 58.42 267.02 56.95Z" fill="#C7E2CB"/>
<path d="M272.54 53.97C272.39 53.84 272.18 53.78 271.91 53.78C271.5 53.78 271.19 53.95 271 54.28C270.81 54.61 270.7 55.15 270.7 55.9C270.84 55.66 271.05 55.47 271.33 55.34C271.61 55.21 271.91 55.14 272.23 55.14C272.62 55.14 272.97 55.22 273.27 55.39C273.57 55.56 273.8 55.8 273.97 56.12C274.14 56.44 274.22 56.83 274.22 57.28C274.22 57.71 274.13 58.09 273.96 58.42C273.79 58.75 273.54 59.01 273.21 59.2C272.88 59.39 272.49 59.48 272.03 59.48C271.41 59.48 270.92 59.34 270.56 59.07C270.2 58.79 269.95 58.41 269.81 57.91C269.67 57.42 269.6 56.81 269.6 56.08C269.6 54.98 269.79 54.15 270.17 53.59C270.55 53.03 271.14 52.75 271.96 52.75C272.59 52.75 273.08 52.92 273.43 53.26C273.78 53.6 273.98 54.03 274.03 54.54H272.86C272.79 54.29 272.69 54.1 272.54 53.97ZM271.14 56.45C270.92 56.64 270.82 56.91 270.82 57.26C270.82 57.61 270.92 57.89 271.12 58.1C271.32 58.31 271.6 58.41 271.97 58.41C272.29 58.41 272.55 58.31 272.74 58.11C272.93 57.91 273.02 57.65 273.02 57.31C273.02 56.96 272.93 56.69 272.75 56.48C272.57 56.28 272.3 56.17 271.94 56.17C271.62 56.18 271.35 56.27 271.14 56.45Z" fill="#235347"/>
<path d="M278.11 59.46L277.08 57.91L276.17 59.46H274.82L276.45 56.96L274.8 54.48H276.22L277.24 56.02L278.16 54.48H279.51L277.87 56.96L279.53 59.46H278.11Z" fill="#235347"/>
<path fill-rule="evenodd" clip-rule="evenodd" d="M262.5 79.19C262.5 75.39 265.58 72.31 269.38 72.31C273.18 72.31 276.26 75.39 276.26 79.19C276.26 82.99 273.18 86.07 269.38 86.07C265.58 86.07 262.5 82.99 262.5 79.19Z" fill="#DAF1DE" stroke="#235347" stroke-miterlimit="10"/>
<g opacity="0.32">
<path fill-rule="evenodd" clip-rule="evenodd" d="M272.98 73.31C273.67 74.38 274.06 75.65 274.06 77.02C274.06 80.82 270.98 83.9 267.18 83.9C265.86 83.9 264.63 83.53 263.58 82.88C264.8 84.79 266.94 86.05 269.38 86.05C273.18 86.05 276.26 82.97 276.26 79.17C276.26 76.7 274.95 74.52 272.98 73.31Z" fill="#45CE7C"/>
</g>
<path fill-rule="evenodd" clip-rule="evenodd" d="M263.71 79.82C263.71 76.47 266.43 73.74 269.78 73.74C271.74 73.74 273.49 74.67 274.6 76.11C273.55 74.29 271.59 73.06 269.33 73.06C265.97 73.06 263.25 75.78 263.25 79.14C263.25 80.53 263.72 81.82 264.51 82.84C264 81.95 263.71 80.92 263.71 79.82Z" fill="#C7E2CB"/>
<path d="M265.08 77.82V77.05H266.53V81.42H265.67V77.82H265.08Z" fill="#235347"/>
<path d="M267.62 80.47C268 80.15 268.31 79.88 268.54 79.67C268.77 79.46 268.96 79.23 269.11 79C269.26 78.77 269.34 78.54 269.34 78.32C269.34 78.12 269.29 77.96 269.2 77.84C269.1 77.72 268.96 77.67 268.76 77.67C268.56 77.67 268.41 77.74 268.3 77.87C268.19 78 268.14 78.19 268.13 78.42H267.31C267.33 77.94 267.47 77.58 267.74 77.33C268.01 77.08 268.35 76.96 268.77 76.96C269.23 76.96 269.58 77.08 269.82 77.32C270.06 77.56 270.19 77.88 270.19 78.28C270.19 78.59 270.11 78.89 269.94 79.17C269.77 79.45 269.58 79.7 269.36 79.91C269.14 80.12 268.86 80.37 268.51 80.67H270.28V81.37H267.32V80.75L267.62 80.47Z" fill="#235347"/>
<path d="M272.73 81.42L272.05 80.39L271.44 81.42H270.54L271.63 79.75L270.53 78.09H271.48L272.16 79.12L272.77 78.09H273.67L272.58 79.75L273.68 81.42H272.73Z" fill="#235347"/>
</g>
<defs>
<clipPath id="clip0_681_28041">
<rect width="360" height="174" fill="white"/>
</clipPath>
</defs>
</svg>
