<svg width="40" height="40" viewBox="0 0 40 40" fill="none" xmlns="http://www.w3.org/2000/svg">
<g clip-path="url(#clip0_617_29722)">
<circle cx="20" cy="20" r="20" fill="url(#paint0_linear_617_29722)"/>
<path d="M22.5215 19.9999L24.8506 15.8987H29.7367L32.0709 19.7822L29.7367 24.2025L25.0987 24.1367L22.5215 19.9999Z" fill="#DAF1DE"/>
<path d="M15.3265 24.3646L17.6506 20.2633H22.5417L24.8759 24.1468L22.5417 28.5671L17.9038 28.5013L15.3265 24.3646Z" fill="#8EB69B"/>
<path d="M27.2861 16.2785C26.6532 16.2785 26.0203 16.2836 25.3874 16.2734C25.2203 16.2734 25.119 16.319 25.0329 16.4709C24.395 17.5899 23.7519 18.7089 23.0988 19.8228C23.0228 19.9544 23.0279 20.0506 23.1038 20.1772C23.7469 21.2861 24.3899 22.3949 25.0228 23.5038C25.1089 23.6506 25.2 23.7114 25.3722 23.7063C26.0912 23.6962 26.8102 23.7013 27.5342 23.7013C27.6152 23.7013 27.6912 23.7013 27.7722 23.7114C28.0861 23.7519 28.2633 23.9494 28.2431 24.238C28.2279 24.5063 28.0304 24.6886 27.7266 24.6886C26.9519 24.6937 26.1823 24.6987 25.4076 24.6886C25.2152 24.6836 25.114 24.7443 25.0177 24.9114C24.3393 26.1063 23.6405 27.2962 22.9621 28.4962C22.795 28.7899 22.5874 28.9165 22.2431 28.9114C20.7393 28.8962 19.2405 28.9013 17.7367 28.9114C17.4177 28.9114 17.2152 28.7949 17.0583 28.5165C16.3747 27.3114 15.6709 26.1165 14.9874 24.9114C14.8912 24.7443 14.7848 24.6886 14.5924 24.6886C13.2051 24.6987 11.8177 24.6886 10.4304 24.6987C10.1215 24.6987 9.92408 24.5874 9.77218 24.319C9.02281 23.0025 8.26332 21.6861 7.4937 20.3747C7.33673 20.1114 7.33167 19.8785 7.48863 19.6152C7.91395 18.9013 8.32408 18.1722 8.73927 17.4532C8.76458 17.4076 8.7899 17.362 8.82028 17.3165C8.99749 17.0582 9.26585 16.9823 9.50382 17.1241C9.73674 17.2608 9.81775 17.5443 9.66585 17.8177C9.41268 18.2785 9.14433 18.7291 8.88104 19.1848C8.72914 19.4532 8.46078 19.7165 8.46078 19.9848C8.46078 20.2532 8.71901 20.5215 8.87598 20.7899C9.39749 21.6962 9.92408 22.5975 10.4355 23.5038C10.5215 23.6506 10.6127 23.7063 10.7848 23.7063C12.0658 23.6962 13.3469 23.7013 14.6329 23.7063C14.795 23.7063 14.881 23.6557 14.9621 23.5139C15.595 22.4 16.238 21.2911 16.8861 20.1874C16.9722 20.0355 16.9621 19.9291 16.876 19.7823C16.2329 18.6836 15.595 17.5848 14.9671 16.476C14.876 16.3089 14.7696 16.2684 14.5924 16.2684C13.8279 16.2734 13.0633 16.2734 12.2988 16.2684C12.0203 16.2633 11.8329 16.1013 11.7975 15.8532C11.7671 15.6152 11.8684 15.4329 12.081 15.3418C12.1874 15.2962 12.319 15.2962 12.4405 15.2962C13.1494 15.2911 13.8633 15.2861 14.5722 15.3013C14.7798 15.3063 14.881 15.2304 14.9823 15.0582C15.6658 13.8633 16.3595 12.6734 17.038 11.4734C17.195 11.1949 17.3924 11.0785 17.7114 11.0785C19.2304 11.0886 20.7494 11.0886 22.2684 11.0785C22.5823 11.0785 22.7747 11.2 22.9215 11.4633C23.6051 12.6684 24.3089 13.8633 24.9924 15.0684C25.0886 15.2355 25.1899 15.2962 25.3823 15.2962C26.7443 15.2861 28.1064 15.3013 29.4633 15.2861C29.8481 15.281 30.0709 15.4228 30.2583 15.7519C30.9823 17.038 31.7215 18.3089 32.4659 19.5798C32.638 19.8734 32.6329 20.1215 32.4608 20.4101C32.0405 21.1089 31.6405 21.8228 31.2304 22.5266C31.1848 22.6025 31.1443 22.6785 31.0886 22.7494C30.9215 22.957 30.6684 23.0076 30.4557 22.881C30.2481 22.7595 30.1621 22.5063 30.2633 22.2633C30.3089 22.1519 30.3747 22.0456 30.4355 21.9393C30.7798 21.3468 31.1241 20.7595 31.4583 20.157C31.5038 20.0709 31.5089 19.9139 31.4633 19.8279C30.8203 18.6886 30.1671 17.5595 29.5038 16.4355C29.4532 16.3544 29.3165 16.2836 29.2203 16.2785C28.5874 16.2734 27.9393 16.2785 27.2861 16.2785ZM20 27.9139C20.6481 27.9139 21.2962 27.9089 21.9494 27.919C22.1013 27.919 22.1823 27.8684 22.2583 27.7418C22.9013 26.6177 23.5494 25.4937 24.2026 24.3696C24.2734 24.243 24.2684 24.157 24.1975 24.0405C23.5443 22.9215 22.8962 21.7975 22.2532 20.6684C22.1772 20.5367 22.0962 20.4861 21.9443 20.4861C20.6481 20.4911 19.3469 20.4861 18.0507 20.4962C17.9545 20.4962 17.8228 20.5772 17.7722 20.6633C17.1089 21.7874 16.4557 22.9215 15.8127 24.0557C15.7671 24.1317 15.7671 24.2836 15.8127 24.3595C16.4557 25.4937 17.1089 26.6279 17.7722 27.7519C17.8228 27.8329 17.9595 27.9089 18.0557 27.9089C18.6988 27.9241 19.3519 27.9139 20 27.9139ZM20.0051 19.5038C20.6481 19.5038 21.2861 19.4987 21.9291 19.5089C22.0912 19.5089 22.1823 19.4582 22.2633 19.3165C22.9013 18.1975 23.5443 17.0785 24.1975 15.9646C24.2734 15.8329 24.2734 15.7367 24.1975 15.6101C23.5494 14.4962 22.9013 13.3823 22.2633 12.2582C22.1823 12.1165 22.0912 12.0709 21.9291 12.0709C20.6481 12.076 19.3671 12.076 18.0861 12.0709C17.9291 12.0709 17.8329 12.1165 17.7519 12.2582C17.119 13.3722 16.476 14.481 15.8279 15.5848C15.7418 15.7317 15.7418 15.843 15.8279 15.9899C16.4709 17.0886 17.1089 18.1874 17.7367 19.2962C17.8279 19.4582 17.9342 19.5089 18.1114 19.5038C18.7393 19.4987 19.3722 19.5038 20.0051 19.5038Z" fill="#235347"/>
<path d="M19.5292 15.3924C19.5292 14.9418 19.519 14.5114 19.5342 14.0861C19.5444 13.8228 19.7368 13.6405 19.9849 13.6304C20.2532 13.6152 20.4456 13.7772 20.4912 14.0557C20.5064 14.1671 20.5064 14.2835 20.5114 14.3949C20.5114 14.719 20.5114 15.043 20.5114 15.4076C20.7393 15.4076 20.9469 15.4076 21.1494 15.4076C21.3773 15.4076 21.6051 15.4025 21.833 15.4177C22.1165 15.438 22.2887 15.6354 22.2836 15.8987C22.2836 16.162 22.1064 16.3646 21.8279 16.3747C21.4937 16.3899 21.1595 16.3848 20.8304 16.3848C20.7342 16.3848 20.6431 16.3848 20.5114 16.3848C20.5114 16.724 20.5114 17.038 20.5114 17.3519C20.5114 17.4835 20.5114 17.6152 20.4912 17.7468C20.4507 18.0253 20.2532 18.1823 19.9849 18.1671C19.7368 18.1519 19.5444 17.9747 19.5342 17.7063C19.519 17.3215 19.5292 16.9367 19.5241 16.5468C19.5241 16.5063 19.514 16.4608 19.5089 16.3848C19.1849 16.3848 18.8608 16.3848 18.5418 16.3848C18.4203 16.3848 18.2937 16.3899 18.1722 16.3747C17.914 16.3443 17.7418 16.1468 17.7418 15.8987C17.7418 15.6506 17.914 15.438 18.1722 15.4228C18.5368 15.4025 18.9064 15.4127 19.276 15.4076C19.3469 15.4076 19.4127 15.3975 19.5292 15.3924Z" fill="#235347"/>
<path d="M12.1367 20.6329C12.7038 19.9342 13.2608 19.2456 13.8177 18.5569C14.1114 18.1924 14.3798 18.1164 14.638 18.319C14.9013 18.5266 14.881 18.8152 14.5823 19.1899C13.9696 19.9494 13.357 20.7038 12.7443 21.4633C12.4203 21.8633 12.238 21.8886 11.8026 21.6C11.4633 21.3772 11.1241 21.1595 10.7899 20.9367C10.4962 20.7392 10.4203 20.4658 10.5722 20.2177C10.7291 19.9645 11.0279 19.919 11.3367 20.1164C11.6 20.2785 11.8633 20.4557 12.1367 20.6329Z" fill="#235347"/>
<path d="M10.8455 15.9697C10.8404 16.238 10.6329 16.4456 10.3544 16.4507C10.0911 16.4557 9.84804 16.2076 9.85311 15.9443C9.85817 15.676 10.0759 15.4684 10.3442 15.4684C10.6278 15.4684 10.8506 15.6962 10.8455 15.9697Z" fill="#235347"/>
<path d="M30.2329 24.1418C30.2278 24.4203 30 24.638 29.7215 24.6279C29.4734 24.6178 29.2405 24.3747 29.2456 24.1216C29.2456 23.8583 29.4684 23.6355 29.7316 23.6355C30.0051 23.6406 30.238 23.8735 30.2329 24.1418Z" fill="#235347"/>
<path d="M20.0963 24.6987C19.5089 24.6987 18.9216 24.6987 18.3292 24.6987C18.1115 24.6987 17.9039 24.6126 17.8583 24.4C17.8228 24.243 17.8532 24.0253 17.9444 23.8936C18.0152 23.7873 18.2127 23.7215 18.3545 23.7215C19.5039 23.7063 20.6532 23.7063 21.8026 23.7164C22.152 23.7215 22.3596 23.9291 22.3545 24.2227C22.3494 24.5164 22.1317 24.6987 21.7773 24.7038C21.2203 24.6987 20.6583 24.6987 20.0963 24.6987Z" fill="#235347"/>
<path d="M28.8911 17.8075C28.9266 17.7012 28.9165 17.5797 28.8557 17.4835C28.7949 17.3822 28.6937 17.3164 28.5772 17.3063C28.4 17.286 28.2532 17.367 28.1671 17.5341L26.0608 21.6708C26.0304 21.7316 26 21.7974 26.0051 21.8632C26.0101 22.0101 26.0658 22.1215 26.1671 22.1924C26.238 22.243 26.3139 22.2683 26.3899 22.2683C26.4203 22.2683 26.4506 22.2632 26.476 22.2582C26.5874 22.2278 26.6836 22.1468 26.7443 22.0303L28.8506 17.8936C28.8658 17.8632 28.881 17.8329 28.8911 17.8075Z" fill="#235347"/>
<path d="M30.0608 20.5518C30.0203 20.3189 29.914 20.1062 29.7469 19.929C29.4127 19.5746 28.8557 19.4632 28.4152 19.6607C28.1064 19.8024 27.8735 20.0505 27.7671 20.3594C27.6608 20.6632 27.6861 20.9974 27.838 21.2961C28.0406 21.6961 28.4406 21.9392 28.8811 21.9392C28.9266 21.9392 28.9773 21.9341 29.0228 21.929C29.5342 21.8683 29.919 21.529 30.0456 21.0126C30.0507 20.9974 30.0507 20.9771 30.0557 20.9619C30.0557 20.9518 30.0557 20.9417 30.0557 20.9366L30.076 20.9113V20.5569L30.0608 20.5518ZM28.4811 20.7493C28.4811 20.5265 28.6735 20.3392 28.8912 20.3392C29.119 20.3392 29.3013 20.5265 29.3013 20.7493C29.3013 20.8556 29.2608 20.9619 29.1798 21.0379C29.0988 21.1189 28.9975 21.1594 28.8861 21.1594C28.7747 21.1594 28.6735 21.1138 28.5975 21.0379C28.5216 20.9619 28.476 20.8556 28.4811 20.7493Z" fill="#235347"/>
<path d="M27.2253 18.8252C27.2355 18.1771 26.7038 17.6404 26.0456 17.6252C25.7418 17.6303 25.4431 17.7366 25.2152 17.9544C24.9823 18.1771 24.8507 18.4759 24.8456 18.7999C24.8355 19.4531 25.3621 19.9898 26.0254 19.9999C26.6785 19.9949 27.2152 19.4683 27.2253 18.8252ZM26.4507 18.8202C26.4456 19.0379 26.2583 19.2202 26.0405 19.2202C26.0405 19.2202 26.0355 19.2202 26.0304 19.2202C25.8076 19.2151 25.6203 19.0278 25.6203 18.805C25.6203 18.6936 25.6659 18.5923 25.7469 18.5113C25.8279 18.4354 25.9393 18.3847 26.0456 18.3949C26.1519 18.3949 26.2532 18.4404 26.3291 18.5214C26.4102 18.6075 26.4507 18.7139 26.4507 18.8202Z" fill="#235347"/>
</g>
<defs>
<linearGradient id="paint0_linear_617_29722" x1="20" y1="0" x2="20" y2="40" gradientUnits="userSpaceOnUse">
<stop stop-color="#E1FFED"/>
<stop offset="1" stop-color="#E1FFED" stop-opacity="0"/>
</linearGradient>
<clipPath id="clip0_617_29722">
<rect width="40" height="40" fill="white"/>
</clipPath>
</defs>
</svg>
