<svg width="41" height="40" viewBox="0 0 41 40" fill="none" xmlns="http://www.w3.org/2000/svg">
<g clip-path="url(#clip0_617_29667)">
<circle cx="20.5" cy="20" r="20" fill="url(#paint0_linear_617_29667)"/>
<path d="M12.2114 9.96456V14.724L22.4493 14.9367C22.4493 14.9367 22.0797 13.281 22.4493 11.924C22.819 10.5671 23.2342 9.96456 23.2342 9.96456H12.2114Z" fill="#DAF1DE"/>
<path d="M25.7 15.3975C25.695 15.357 25.7253 15.2962 25.7507 15.2405C26.3279 14.1013 26.9051 12.9671 27.4874 11.8279C27.7101 11.3924 27.9329 10.957 28.1507 10.5215C28.2266 10.3747 28.3481 10.3038 28.5 10.3241C28.6975 10.3494 28.8291 10.557 28.7633 10.7494C28.7532 10.7747 28.7431 10.8 28.7279 10.8253C27.9279 12.4 27.1279 13.9747 26.3279 15.5443C26.2215 15.7519 26.0089 15.8127 25.8317 15.6912C25.7507 15.6203 25.7051 15.5342 25.7 15.3975Z" fill="#235347"/>
<path d="M30.1051 13.9798C30.0697 13.7063 29.9532 13.4734 29.7709 13.276C29.4266 12.9063 28.8443 12.7899 28.3836 12.9975C27.7203 13.3013 27.4469 14.0506 27.776 14.7038C28.0089 15.1646 28.495 15.4279 29.0114 15.3671C29.5532 15.3013 29.9481 14.9367 30.0798 14.4101C30.0899 14.3696 30.0848 14.3241 30.1102 14.2836C30.1102 14.1924 30.1102 14.0962 30.1102 14.0051C30.1051 14 30.1102 13.9899 30.1051 13.9798ZM28.8798 14.7241C28.5608 14.7241 28.2924 14.4557 28.2975 14.1367C28.2975 13.8177 28.5659 13.5544 28.8848 13.5544C29.2038 13.5544 29.4671 13.8177 29.4671 14.1367C29.4671 14.4557 29.1988 14.7241 28.8798 14.7241Z" fill="#235347"/>
<path d="M25.6291 10.6836C24.9557 10.6684 24.3937 11.2253 24.3836 11.9089C24.3734 12.5874 24.9253 13.1494 25.6139 13.1595C26.3076 13.1595 26.8494 12.6076 26.8595 11.9342C26.8696 11.2557 26.3228 10.6987 25.6291 10.6836ZM25.6139 12.5063C25.295 12.5013 25.0317 12.2329 25.0367 11.919C25.0418 11.5899 25.3101 11.3317 25.6393 11.3367C25.9532 11.3418 26.2165 11.6203 26.2063 11.9393C26.2013 12.2532 25.9279 12.5114 25.6139 12.5063Z" fill="#235347"/>
<mask id="path-6-inside-1_617_29667" fill="white">
<path fill-rule="evenodd" clip-rule="evenodd" d="M23.6031 9.43866C23.4491 9.34177 23.2668 9.28573 23.0714 9.28573H13.6428C13.0905 9.28573 12.6428 9.73344 12.6428 10.2857V14C12.6428 14.5523 13.0905 15 13.6428 15H23.0714C23.1331 15 23.1935 14.9944 23.2521 14.9837C22.863 14.2413 22.6428 13.3964 22.6428 12.5C22.6428 11.3618 22.9978 10.3064 23.6031 9.43866Z"/>
</mask>
<path fill-rule="evenodd" clip-rule="evenodd" d="M23.6031 9.43866C23.4491 9.34177 23.2668 9.28573 23.0714 9.28573H13.6428C13.0905 9.28573 12.6428 9.73344 12.6428 10.2857V14C12.6428 14.5523 13.0905 15 13.6428 15H23.0714C23.1331 15 23.1935 14.9944 23.2521 14.9837C22.863 14.2413 22.6428 13.3964 22.6428 12.5C22.6428 11.3618 22.9978 10.3064 23.6031 9.43866Z" fill="#DAF1DE"/>
<path d="M23.6031 9.43866L24.5053 10.068L25.1653 9.12184L24.1888 8.50757L23.6031 9.43866ZM23.2521 14.9837L23.4497 16.0658L24.9206 15.7973L24.2264 14.473L23.2521 14.9837ZM23.0714 10.3857C23.0535 10.3857 23.0337 10.38 23.0174 10.3698L24.1888 8.50757C23.8645 8.30356 23.48 8.18573 23.0714 8.18573V10.3857ZM13.6428 10.3857H23.0714V8.18573H13.6428V10.3857ZM13.7428 10.2857C13.7428 10.341 13.6981 10.3857 13.6428 10.3857V8.18573C12.483 8.18573 11.5428 9.12593 11.5428 10.2857H13.7428ZM13.7428 14V10.2857H11.5428V14H13.7428ZM13.6428 13.9C13.6981 13.9 13.7428 13.9448 13.7428 14H11.5428C11.5428 15.1598 12.483 16.1 13.6428 16.1V13.9ZM23.0714 13.9H13.6428V16.1H23.0714V13.9ZM23.0546 13.9016C23.0608 13.9005 23.0665 13.9 23.0714 13.9V16.1C23.1997 16.1 23.3262 16.0884 23.4497 16.0658L23.0546 13.9016ZM24.2264 14.473C23.9178 13.8844 23.7428 13.2143 23.7428 12.5H21.5428C21.5428 13.5785 21.8081 14.5982 22.2779 15.4944L24.2264 14.473ZM23.7428 12.5C23.7428 11.594 24.0246 10.7571 24.5053 10.068L22.7009 8.80933C21.971 9.8557 21.5428 11.1295 21.5428 12.5H23.7428Z" fill="#235347" mask="url(#path-6-inside-1_617_29667)"/>
<path fill-rule="evenodd" clip-rule="evenodd" d="M25.6428 31.92H11.7857C11.4157 31.92 11.1157 31.62 11.1157 31.25V9.14287C11.1157 8.77284 11.4157 8.47287 11.7857 8.47287H23.7527C24.6958 7.64488 25.9321 7.14287 27.2857 7.14287H11.7857C10.6811 7.14287 9.78571 8.0383 9.78571 9.14287V31.25C9.78571 32.3546 10.6811 33.25 11.7857 33.25H25.6428C26.7474 33.25 27.6428 32.3546 27.6428 31.25V19.4822V17.8454C27.5248 17.8532 27.4057 17.8572 27.2857 17.8572C26.9535 17.8572 26.6283 17.8269 26.3128 17.769V19.4822V31.25C26.3128 31.62 26.0129 31.92 25.6428 31.92Z" fill="#235347"/>
<circle cx="27.2857" cy="12.5" r="4.69214" stroke="#235347" stroke-width="1.33"/>
<path d="M15.7455 18.1772H14.662C14.4341 18.1772 14.2519 18.3595 14.2519 18.5873V20.2177H12.6164C12.3886 20.2177 12.2063 20.4 12.2063 20.6278V21.7114C12.2063 21.9392 12.3886 22.1215 12.6164 22.1215H14.2519V23.7519C14.2519 23.9797 14.4341 24.162 14.662 24.162H15.7455C15.9734 24.162 16.1557 23.9797 16.1557 23.7519V22.1215H17.786C18.0139 22.1215 18.1962 21.9392 18.1962 21.7114V20.6278C18.1962 20.4 18.0139 20.2177 17.786 20.2177H16.1557V18.5873C16.1557 18.3595 15.9734 18.1772 15.7455 18.1772ZM17.6493 20.7646V21.5747H15.8822C15.7303 21.5747 15.6088 21.6962 15.6088 21.8481V23.6152H14.7987V21.8481C14.7987 21.6962 14.6772 21.5747 14.5253 21.5747H12.7582V20.7646H14.5253C14.6772 20.7646 14.7987 20.643 14.7987 20.4911V18.7241H15.6088V20.4911C15.6088 20.643 15.7303 20.7646 15.8822 20.7646H17.6493Z" fill="#235347"/>
<path d="M19.3354 27.2861V28.3696C19.3354 28.5975 19.5177 28.7797 19.7455 28.7797H24.9101C25.1379 28.7797 25.3202 28.5975 25.3202 28.3696V27.2861C25.3202 27.0582 25.1379 26.876 24.9101 26.876H19.7405C19.5177 26.881 19.3354 27.0633 19.3354 27.2861ZM19.8772 27.4228H24.7734V28.2329H19.8772V27.4228Z" fill="#235347"/>
<path d="M25.4417 21.7114V20.6278C25.4417 20.4 25.2594 20.2177 25.0316 20.2177H19.867C19.6392 20.2177 19.4569 20.4 19.4569 20.6278V21.7114C19.4569 21.9392 19.6392 22.1215 19.867 22.1215H25.0316C25.2594 22.1215 25.4417 21.9342 25.4417 21.7114ZM24.8949 21.5747H19.9987V20.7646H24.8949V21.5747Z" fill="#235347"/>
<path d="M22.3177 24.6228C21.7962 24.6228 21.3759 25.0481 21.3759 25.5646V25.5797C21.3759 26.1013 21.8012 26.5266 22.3329 26.5266C22.8544 26.5266 23.2746 26.1013 23.2746 25.5848V25.5696C23.2746 25.0481 22.8493 24.6278 22.3329 24.6278H22.3177V24.6228ZM22.7329 25.5696V25.5848C22.7329 25.8025 22.5557 25.9848 22.3177 25.9848C22.1 25.9848 21.9177 25.8076 21.9177 25.5848V25.5696C21.9177 25.3519 22.0949 25.1696 22.3177 25.1696H22.3329C22.5557 25.1696 22.7329 25.3468 22.7329 25.5696Z" fill="#235347"/>
<path d="M22.3177 29.1291C21.7962 29.1291 21.3759 29.5544 21.3759 30.076V30.0911C21.3759 30.6127 21.8012 31.0329 22.3329 31.0329C22.8544 31.0329 23.2746 30.6076 23.2746 30.0911V30.076C23.2746 29.5544 22.8493 29.1291 22.3329 29.1291H22.3177ZM22.7329 30.076V30.0911C22.7329 30.3089 22.5557 30.4911 22.3177 30.4911C22.1 30.4911 21.9177 30.3139 21.9177 30.0911V30.076C21.9177 29.8532 22.0949 29.676 22.3177 29.676H22.3329C22.5557 29.676 22.7329 29.8532 22.7329 30.076Z" fill="#235347"/>
<path d="M13.4164 30.2481C13.5278 30.3089 13.6443 30.3342 13.7607 30.3342C13.9379 30.3342 14.1152 30.2633 14.2468 30.1316L15.2038 29.1747L16.1607 30.1316C16.424 30.3949 16.8696 30.3949 17.1379 30.1316L17.705 29.5646C17.781 29.4886 17.8266 29.3823 17.8266 29.2759C17.8266 29.1646 17.786 29.0633 17.705 28.9873L16.5506 27.8329L17.705 26.6785C17.781 26.6025 17.8266 26.4962 17.8266 26.3899C17.8266 26.2785 17.786 26.1772 17.705 26.1013L16.9405 25.3367C16.8645 25.2608 16.7582 25.2152 16.6519 25.2152C16.5405 25.2152 16.4392 25.2557 16.3633 25.3367L15.2088 26.4911L14.0544 25.3367C13.9785 25.2608 13.8721 25.2152 13.7658 25.2152C13.6544 25.2152 13.5531 25.2557 13.4772 25.3367L12.7076 26.1013C12.5506 26.2633 12.5506 26.5215 12.7076 26.6785L13.862 27.8329L12.8747 28.8203C12.8392 28.8557 12.8139 28.8911 12.7886 28.9316C12.6417 29.2101 12.6873 29.5443 12.905 29.762L13.3101 30.1671C13.3405 30.1975 13.3759 30.2278 13.4164 30.2481ZM13.2645 29.1949L14.4392 28.0203C14.4898 27.9696 14.5202 27.8987 14.5202 27.8278C14.5202 27.757 14.4898 27.6861 14.4392 27.6354L13.1886 26.3848L13.7607 25.8127L15.0114 27.0633C15.1177 27.1696 15.2898 27.1696 15.3962 27.0633L16.6468 25.8127L17.219 26.3848L15.9683 27.6354C15.862 27.7418 15.862 27.9139 15.9683 28.0203L17.219 29.2709L16.7481 29.7418C16.6974 29.7924 16.5962 29.7924 16.5405 29.7418L15.3911 28.5924C15.2898 28.4911 15.1076 28.4911 15.0063 28.5924L13.8569 29.7418C13.8114 29.7873 13.7455 29.7975 13.6747 29.7671L13.2797 29.3722C13.2392 29.3266 13.2341 29.2608 13.2645 29.1949Z" fill="#235347"/>
</g>
<defs>
<linearGradient id="paint0_linear_617_29667" x1="20.5" y1="0" x2="20.5" y2="40" gradientUnits="userSpaceOnUse">
<stop stop-color="#E1FFED"/>
<stop offset="1" stop-color="#E1FFED" stop-opacity="0"/>
</linearGradient>
<clipPath id="clip0_617_29667">
<rect width="40" height="40" fill="white" transform="translate(0.5)"/>
</clipPath>
</defs>
</svg>
