<svg width="53" height="52" viewBox="0 0 53 52" fill="none" xmlns="http://www.w3.org/2000/svg">
<circle cx="26.5" cy="26" r="26" fill="url(#paint0_linear_1185_3008)"/>
<path d="M25.8177 41.6334C17.3235 41.6334 10.4152 34.7251 10.4152 26.2309C10.4152 17.7367 17.3235 10.8284 25.8177 10.8284C34.3119 10.8284 41.2202 17.7367 41.2202 26.2309C41.2202 34.7251 34.3119 41.6334 25.8177 41.6334ZM25.8177 11.8613C17.8947 11.8613 11.4481 18.3078 11.4481 26.2309C11.4481 34.1539 17.8947 40.6005 25.8177 40.6005C33.7407 40.6005 40.1873 34.1539 40.1873 26.2309C40.1873 18.3078 33.7468 11.8613 25.8177 11.8613Z" fill="#235347"/>
<path d="M23.0288 28.6734L21.2972 25.6172H20.5559V28.6734H18.9822V20.8233H21.9291C22.5367 20.8233 23.0531 20.9327 23.4784 21.1453C23.9038 21.358 24.2258 21.6496 24.4384 22.0081C24.6511 22.3727 24.7605 22.7797 24.7605 23.2294C24.7605 23.7458 24.6086 24.2137 24.3108 24.6268C24.0131 25.04 23.5635 25.3316 22.9741 25.4896L24.8516 28.6734H23.0288ZM20.5559 24.4324H21.8683C22.2936 24.4324 22.6157 24.3291 22.8222 24.1225C23.0349 23.9159 23.1382 23.6304 23.1382 23.2597C23.1382 22.9013 23.0349 22.6218 22.8222 22.4213C22.6157 22.2208 22.2936 22.1235 21.8683 22.1235H20.5559V24.4324Z" fill="#235347"/>
<path d="M28.5944 22.6278C28.9529 22.4395 29.3539 22.3423 29.8157 22.3423C30.3443 22.3423 30.8304 22.4759 31.2617 22.7372C31.6931 22.9985 32.0334 23.3691 32.2825 23.8552C32.5316 24.3352 32.6592 24.9002 32.6592 25.5382C32.6592 26.1762 32.5316 26.7413 32.2825 27.2273C32.0334 27.7195 31.6931 28.0962 31.2617 28.3696C30.8304 28.637 30.3504 28.7767 29.8157 28.7767C29.36 28.7767 28.9529 28.6795 28.6066 28.4972C28.2602 28.3089 27.9747 28.0719 27.7559 27.7863V31.6445H26.1823V22.4456H27.7559V23.3448C27.9625 23.0592 28.242 22.8223 28.5944 22.6278ZM30.8243 24.5661C30.6724 24.2926 30.4658 24.0861 30.2167 23.9402C29.9676 23.8005 29.6941 23.7276 29.4025 23.7276C29.1169 23.7276 28.8496 23.8005 28.6005 23.9463C28.3514 24.0921 28.1448 24.3048 27.9929 24.5782C27.841 24.8577 27.762 25.1797 27.762 25.5564C27.762 25.9332 27.841 26.2552 27.9929 26.5347C28.1448 26.8142 28.3514 27.0268 28.6005 27.1726C28.8496 27.3185 29.1169 27.3914 29.4025 27.3914C29.6941 27.3914 29.9676 27.3185 30.2167 27.1666C30.4658 27.0147 30.6724 26.802 30.8243 26.5286C30.9762 26.2491 31.0552 25.921 31.0552 25.5382C31.0491 25.1615 30.9762 24.8395 30.8243 24.5661Z" fill="#235347"/>
<path d="M25.8177 39.3367C18.5873 39.3367 12.7119 33.4552 12.7119 26.2309C12.7119 19.0066 18.5934 13.1251 25.8177 13.1251C33.042 13.1251 38.9235 19.0066 38.9235 26.2309C38.9235 33.4552 33.0481 39.3367 25.8177 39.3367ZM25.8177 14.0365C19.0916 14.0365 13.6232 19.5048 13.6232 26.2309C13.6232 32.957 19.0916 38.4253 25.8177 38.4253C32.5438 38.4253 38.0121 32.957 38.0121 26.2309C38.0121 19.5048 32.5438 14.0365 25.8177 14.0365Z" fill="#235347"/>
<path d="M36.0921 41.0562C39.6894 41.0562 42.6055 38.14 42.6055 34.5428C42.6055 30.9455 39.6894 28.0294 36.0921 28.0294C32.4948 28.0294 29.5787 30.9455 29.5787 34.5428C29.5787 38.14 32.4948 41.0562 36.0921 41.0562Z" fill="#DAF1DE"/>
<path d="M36.0921 41.5119C32.246 41.5119 29.123 38.3828 29.123 34.5428C29.123 30.7028 32.2521 27.5737 36.0921 27.5737C39.9321 27.5737 43.0612 30.7028 43.0612 34.5428C43.0612 38.3828 39.9382 41.5119 36.0921 41.5119ZM36.0921 28.4851C32.7503 28.4851 30.0344 31.201 30.0344 34.5428C30.0344 37.8846 32.7503 40.6005 36.0921 40.6005C39.4339 40.6005 42.1498 37.8846 42.1498 34.5428C42.1498 31.201 39.4339 28.4851 36.0921 28.4851Z" fill="#235347"/>
<path d="M39.7802 32.5803C39.6769 32.4101 39.4764 32.3251 39.2759 32.3615C39.1423 32.3858 39.0511 32.4648 38.9782 32.5377L38.0061 33.5099C37.0521 34.4577 36.1043 35.4117 35.1443 36.3656C34.9134 36.1104 34.6764 35.8552 34.4395 35.6L34.2268 35.3691C34.0871 35.2172 33.9473 35.0653 33.8076 34.9134C33.6557 34.7554 33.4491 34.7129 33.2547 34.798C33.0724 34.877 32.9752 35.0349 32.9691 35.2355C32.963 35.4056 33.0542 35.521 33.121 35.5939L34.7311 37.3377C34.8526 37.4714 34.9802 37.5382 35.12 37.5382H35.1261C35.2597 37.5382 35.3934 37.4775 35.5149 37.3499L39.6587 33.2122C39.683 33.1879 39.7134 33.1636 39.7316 33.1332C39.8714 32.9813 39.8896 32.7625 39.7802 32.5803Z" fill="#235347"/>
<defs>
<linearGradient id="paint0_linear_1185_3008" x1="26.5" y1="0" x2="26.5" y2="52" gradientUnits="userSpaceOnUse">
<stop stop-color="#E1FFED"/>
<stop offset="1" stop-color="#E1FFED" stop-opacity="0"/>
</linearGradient>
</defs>
</svg>
