<svg width="360" height="174" viewBox="0 0 360 174" fill="none" xmlns="http://www.w3.org/2000/svg">
<path d="M359.661 -6H0V174H359.661V-6Z" fill="#F2F9F3"/>
<mask id="mask0_2986_10526" style="mask-type:luminance" maskUnits="userSpaceOnUse" x="0" y="-6" width="360" height="180">
<path d="M359.981 -6H0.319336V174H359.981V-6Z" fill="white"/>
</mask>
<g mask="url(#mask0_2986_10526)">
<g opacity="0.7">
<path d="M70.6448 100.57C76.9448 120.31 90.5319 141.95 110.516 148.99C140.709 159.64 143.409 185.23 198.213 185.05C206.758 185.02 214.693 184.1 222.009 182.41C225.938 181.5 229.703 180.37 233.274 179.03C265.742 166.93 283.519 138.15 286.054 107.4C289.393 66.95 262.761 46.55 245.4 34.53C228.038 22.51 208.248 -22.16 154.374 -22.43C146.158 -22.47 137.932 -21.64 129.919 -19.73C111.629 -15.39 92.8061 -4.93 81.4932 11.02C80.6415 12.22 79.8286 13.45 79.0544 14.7C63.7932 39.22 62.0512 73.66 70.6448 100.57Z" fill="#DAF1DE"/>
<path opacity="0.7" d="M70.6448 100.57C76.9448 120.31 90.5319 141.95 110.516 148.99C140.709 159.64 143.409 185.23 198.213 185.05C206.758 185.02 214.693 184.1 222.009 182.41C225.938 181.5 229.703 180.37 233.274 179.03C265.742 166.93 283.519 138.15 286.054 107.4C289.393 66.95 262.761 46.55 245.4 34.53C228.038 22.51 208.248 -22.16 154.374 -22.43C146.158 -22.47 137.932 -21.64 129.919 -19.73C111.629 -15.39 92.8061 -4.93 81.4932 11.02C80.6415 12.22 79.8286 13.45 79.0544 14.7C63.7932 39.22 62.0512 73.66 70.6448 100.57Z" fill="#DAF1DE"/>
</g>
</g>
<path d="M289.49 157.42C289.49 157.47 238.974 157.52 176.681 157.52C114.368 157.52 63.8613 157.48 63.8613 157.42C63.8613 157.37 114.358 157.32 176.681 157.32C238.984 157.32 289.49 157.37 289.49 157.42Z" stroke="#235347" stroke-miterlimit="10" stroke-linecap="round" stroke-linejoin="round"/>
<path d="M211.152 19.0501V144.16C211.152 147.59 208.461 150.38 205.132 150.38H152.816C149.497 150.38 146.797 147.6 146.797 144.16V19.0501C146.797 15.6201 149.487 12.8401 152.807 12.8401H175.258L175.278 12.9101C175.839 14.9901 177.126 16.3401 178.558 16.3401H179.381C180.813 16.3401 182.1 14.9901 182.661 12.9101L182.681 12.8401H205.132C208.461 12.8401 211.152 15.6201 211.152 19.0501Z" fill="white" stroke="#1A2E35" stroke-miterlimit="10"/>
<path d="M211.152 24.8701V19.0501C211.152 15.6201 208.461 12.8301 205.132 12.8301H182.681L182.661 12.9001C182.1 14.9801 180.813 16.3301 179.381 16.3301H178.558C177.126 16.3301 175.839 14.9801 175.278 12.9001L175.258 12.8301H152.807C149.487 12.8301 146.797 15.6101 146.797 19.0401V24.8601H211.152V24.8701Z" fill="#DAF1DE" stroke="#235347" stroke-miterlimit="10"/>
<path d="M215.245 48.9301V36.4301H214.152V16.2301C214.152 13.1001 211.704 10.5701 208.674 10.5701H149.294C146.265 10.5701 143.816 13.1001 143.816 16.2301V151.75C143.816 154.88 146.265 157.41 149.294 157.41H208.674C211.704 157.41 214.152 154.88 214.152 151.75V59.5801H215.245V52.2001H214.152V48.9301H215.245ZM211.152 144.71C211.152 147.84 208.694 150.37 205.674 150.37H152.284C149.255 150.37 146.807 147.83 146.807 144.71V18.5001C146.807 15.3701 149.255 12.8401 152.284 12.8401H175.278L175.297 12.9101C175.858 14.9901 177.145 16.3401 178.578 16.3401H179.4C180.833 16.3401 182.12 14.9901 182.681 12.9101L182.7 12.8401H205.684C208.713 12.8401 211.162 15.3801 211.162 18.5001V144.71H211.152Z" fill="#45CE7C" stroke="#235347" stroke-miterlimit="10" stroke-linecap="round" stroke-linejoin="round"/>
<path d="M207.223 11.9401H150.736C147.523 11.9401 144.91 14.6301 144.91 17.9601V150.04C144.91 153.36 147.513 156.06 150.736 156.06H207.223C210.436 156.06 213.049 153.37 213.049 150.04V17.9601C213.049 14.6301 210.446 11.9401 207.223 11.9401ZM211.152 144.36C211.152 147.68 208.539 150.38 205.326 150.38H152.633C149.42 150.38 146.807 147.68 146.807 144.36V18.8501C146.807 15.5301 149.41 12.8301 152.633 12.8301H175.278L175.297 12.9001C175.859 14.9801 177.146 16.3301 178.578 16.3301H179.4C180.833 16.3301 182.12 14.9801 182.681 12.9001L182.7 12.8301H205.336C208.549 12.8301 211.162 15.5301 211.162 18.8501V144.36H211.152Z" fill="#235347"/>
<path d="M179.681 13.3101C179.681 12.8001 179.284 12.3801 178.781 12.3801C178.287 12.3801 177.881 12.7901 177.881 13.3101C177.881 13.8201 178.278 14.2401 178.781 14.2401C179.284 14.2301 179.681 13.8201 179.681 13.3101Z" fill="white"/>
<path d="M152.884 17.6201C152.884 18.5601 151.868 18.8901 151.858 19.6101V19.6601H152.845V19.9801H151.529V19.7001C151.529 18.7001 152.545 18.5001 152.545 17.6301C152.545 17.3101 152.439 17.1401 152.197 17.1401C151.955 17.1401 151.849 17.3201 151.849 17.6001V17.8801H151.539V17.6301C151.539 17.1601 151.752 16.8401 152.216 16.8401C152.671 16.8301 152.884 17.1401 152.884 17.6201Z" fill="#1A2E35"/>
<path d="M154.53 17.6101V17.6901C154.53 18.0101 154.404 18.2401 154.162 18.3301C154.413 18.4301 154.53 18.6601 154.53 18.9701V19.2101C154.53 19.6801 154.317 20.0001 153.852 20.0001C153.397 20.0001 153.175 19.6901 153.175 19.2101V19.0001H153.484V19.2401C153.484 19.5201 153.601 19.6901 153.833 19.6901C154.075 19.6901 154.181 19.5301 154.181 19.2101V18.9701C154.181 18.6601 154.055 18.5201 153.804 18.5101H153.62V18.2001H153.813C154.036 18.1901 154.171 18.0401 154.171 17.7701V17.6301C154.171 17.3101 154.065 17.1501 153.823 17.1501C153.581 17.1501 153.475 17.3201 153.475 17.6001V17.7601H153.165V17.6201C153.165 17.1501 153.378 16.8401 153.842 16.8401C154.317 16.8301 154.53 17.1401 154.53 17.6101Z" fill="#1A2E35"/>
<path d="M155.178 17.8501V18.2801H154.858V17.8501H155.178ZM155.178 19.5401V19.9701H154.858V19.5401H155.178Z" fill="#1A2E35"/>
<path d="M155.855 18.1301C155.952 17.9601 156.097 17.8701 156.3 17.8701C156.687 17.8701 156.862 18.1601 156.862 18.6101V19.2201C156.862 19.6901 156.639 20.0101 156.184 20.0101C155.72 20.0101 155.507 19.7001 155.507 19.2201V19.0101H155.817V19.2401C155.817 19.5201 155.933 19.6901 156.165 19.6901C156.397 19.6901 156.513 19.5201 156.513 19.2401V18.6401C156.513 18.3601 156.397 18.1901 156.165 18.1901C155.981 18.1901 155.855 18.3001 155.826 18.5201V18.5901H155.517L155.594 16.8601H156.775V17.1701H155.894L155.855 18.1301Z" fill="#1A2E35"/>
<path d="M158.535 17.6101V17.6701H158.226V17.5901C158.226 17.3101 158.11 17.1501 157.868 17.1501C157.616 17.1501 157.5 17.3201 157.5 17.6501V18.3501C157.577 18.1401 157.742 18.0201 157.984 18.0201C158.371 18.0201 158.545 18.3101 158.545 18.7601V19.2301C158.545 19.7001 158.313 20.0201 157.858 20.0201C157.393 20.0201 157.171 19.7101 157.171 19.2301V17.6501C157.171 17.1601 157.384 16.8501 157.858 16.8501C158.323 16.8301 158.535 17.1301 158.535 17.6101ZM157.5 18.7701V19.2401C157.5 19.5201 157.616 19.6901 157.858 19.6901C158.1 19.6901 158.216 19.5201 158.216 19.2401V18.7701C158.216 18.4901 158.1 18.3201 157.858 18.3201C157.606 18.3201 157.5 18.4901 157.5 18.7701Z" fill="#1A2E35"/>
<path d="M191.361 17.7501H190.51V19.9401H191.361V17.7501Z" fill="#1A2E35"/>
<path d="M192.493 17.3101H191.642V19.9401H192.493V17.3101Z" fill="#1A2E35"/>
<path d="M193.626 16.9901H192.774V19.9301H193.626V16.9901Z" fill="#1A2E35"/>
<path d="M194.758 16.4501H193.906V19.9401H194.758V16.4501Z" fill="#1A2E35"/>
<path d="M205.258 19.8801H200.168V16.6601H205.258V19.8801ZM200.449 19.5901H204.978V16.9601H200.449V19.5901Z" fill="#1A2E35"/>
<path d="M203.564 17.2701H200.874V19.2701H203.564V17.2701Z" fill="#1A2E35"/>
<path d="M205.723 17.8901H205.084V18.6501H205.723V17.8901Z" fill="#1A2E35"/>
<path d="M198.3 19.1801C198.271 19.1801 198.233 19.1701 198.204 19.1501C197.168 18.5101 196.481 19.1001 196.452 19.1301C196.375 19.2001 196.249 19.1901 196.181 19.1101C196.113 19.0301 196.123 18.9101 196.2 18.8301C196.239 18.8001 197.11 18.0201 198.397 18.8101C198.484 18.8701 198.513 18.9901 198.465 19.0801C198.426 19.1401 198.368 19.1801 198.3 19.1801Z" fill="#1A2E35"/>
<path d="M198.687 18.5201C198.658 18.5201 198.619 18.5101 198.59 18.4901C197.09 17.5701 196.084 18.4601 196.074 18.4701C195.997 18.5401 195.871 18.5301 195.803 18.4501C195.735 18.3701 195.745 18.2401 195.822 18.1701C195.832 18.1601 197.051 17.0801 198.784 18.1501C198.871 18.2101 198.9 18.3301 198.851 18.4201C198.813 18.4801 198.745 18.5201 198.687 18.5201Z" fill="#1A2E35"/>
<path d="M199.035 17.7501C199.006 17.7501 198.967 17.7401 198.938 17.7201C197.042 16.5501 195.774 17.6501 195.725 17.7001C195.648 17.7701 195.522 17.7601 195.454 17.6801C195.387 17.6001 195.396 17.4701 195.474 17.4001C195.493 17.3901 196.984 16.0601 199.132 17.3801C199.219 17.4401 199.248 17.5601 199.2 17.6501C199.161 17.7201 199.093 17.7501 199.035 17.7501Z" fill="#1A2E35"/>
<path d="M197.729 19.5101C197.729 19.7801 197.516 20.0001 197.254 20.0001C196.993 20.0001 196.78 19.7801 196.78 19.5101C196.78 19.2401 196.993 19.0201 197.254 19.0201C197.516 19.0201 197.729 19.2401 197.729 19.5101Z" fill="#1A2E35"/>
<path d="M157.314 40.9626H158.434V41.6226H156.459V38.1126H157.314V40.9626ZM161.472 40.1826C161.472 40.2626 161.467 40.3459 161.457 40.4326H159.522C159.536 40.6059 159.591 40.7392 159.687 40.8326C159.787 40.9226 159.909 40.9676 160.052 40.9676C160.266 40.9676 160.414 40.8776 160.497 40.6976H161.407C161.361 40.8809 161.276 41.0459 161.152 41.1926C161.032 41.3392 160.881 41.4542 160.697 41.5376C160.514 41.6209 160.309 41.6626 160.082 41.6626C159.809 41.6626 159.566 41.6042 159.352 41.4876C159.139 41.3709 158.972 41.2042 158.852 40.9876C158.732 40.7709 158.672 40.5176 158.672 40.2276C158.672 39.9376 158.731 39.6842 158.847 39.4676C158.967 39.2509 159.134 39.0842 159.347 38.9676C159.561 38.8509 159.806 38.7926 160.082 38.7926C160.352 38.7926 160.592 38.8492 160.802 38.9626C161.012 39.0759 161.176 39.2376 161.292 39.4476C161.412 39.6576 161.472 39.9026 161.472 40.1826ZM160.597 39.9576C160.597 39.8109 160.547 39.6942 160.447 39.6076C160.347 39.5209 160.222 39.4776 160.072 39.4776C159.929 39.4776 159.807 39.5192 159.707 39.6026C159.611 39.6859 159.551 39.8042 159.527 39.9576H160.597ZM163.623 38.8026C163.95 38.8026 164.21 38.9092 164.403 39.1226C164.6 39.3326 164.698 39.6226 164.698 39.9926V41.6226H163.848V40.1076C163.848 39.9209 163.8 39.7759 163.703 39.6726C163.607 39.5692 163.477 39.5176 163.313 39.5176C163.15 39.5176 163.02 39.5692 162.923 39.6726C162.827 39.7759 162.778 39.9209 162.778 40.1076V41.6226H161.923V38.8326H162.778V39.2026C162.865 39.0792 162.982 38.9826 163.128 38.9126C163.275 38.8392 163.44 38.8026 163.623 38.8026ZM166.352 38.7926C166.549 38.7926 166.721 38.8326 166.867 38.9126C167.017 38.9926 167.132 39.0976 167.212 39.2276V38.8326H168.067V41.6176C168.067 41.8742 168.016 42.1059 167.912 42.3126C167.812 42.5226 167.657 42.6892 167.447 42.8126C167.241 42.9359 166.982 42.9976 166.672 42.9976C166.259 42.9976 165.924 42.8992 165.667 42.7026C165.411 42.5092 165.264 42.2459 165.227 41.9126H166.072C166.099 42.0192 166.162 42.1026 166.262 42.1626C166.362 42.2259 166.486 42.2576 166.632 42.2576C166.809 42.2576 166.949 42.2059 167.052 42.1026C167.159 42.0026 167.212 41.8409 167.212 41.6176V41.2226C167.129 41.3526 167.014 41.4592 166.867 41.5426C166.721 41.6226 166.549 41.6626 166.352 41.6626C166.122 41.6626 165.914 41.6042 165.727 41.4876C165.541 41.3676 165.392 41.1992 165.282 40.9826C165.176 40.7626 165.122 40.5092 165.122 40.2226C165.122 39.9359 165.176 39.6842 165.282 39.4676C165.392 39.2509 165.541 39.0842 165.727 38.9676C165.914 38.8509 166.122 38.7926 166.352 38.7926ZM167.212 40.2276C167.212 40.0142 167.152 39.8459 167.032 39.7226C166.916 39.5992 166.772 39.5376 166.602 39.5376C166.432 39.5376 166.287 39.5992 166.167 39.7226C166.051 39.8426 165.992 40.0092 165.992 40.2226C165.992 40.4359 166.051 40.6059 166.167 40.7326C166.287 40.8559 166.432 40.9176 166.602 40.9176C166.772 40.9176 166.916 40.8559 167.032 40.7326C167.152 40.6092 167.212 40.4409 167.212 40.2276ZM170.391 41.6226L169.541 40.4526V41.6226H168.686V37.9226H169.541V39.9676L170.386 38.8326H171.441L170.281 40.2326L171.451 41.6226H170.391ZM171.607 40.2226C171.607 39.9359 171.66 39.6842 171.767 39.4676C171.877 39.2509 172.025 39.0842 172.212 38.9676C172.398 38.8509 172.607 38.7926 172.837 38.7926C173.033 38.7926 173.205 38.8326 173.352 38.9126C173.502 38.9926 173.617 39.0976 173.697 39.2276V38.8326H174.552V41.6226H173.697V41.2276C173.613 41.3576 173.497 41.4626 173.347 41.5426C173.2 41.6226 173.028 41.6626 172.832 41.6626C172.605 41.6626 172.398 41.6042 172.212 41.4876C172.025 41.3676 171.877 41.1992 171.767 40.9826C171.66 40.7626 171.607 40.5092 171.607 40.2226ZM173.697 40.2276C173.697 40.0142 173.637 39.8459 173.517 39.7226C173.4 39.5992 173.257 39.5376 173.087 39.5376C172.917 39.5376 172.772 39.5992 172.652 39.7226C172.535 39.8426 172.477 40.0092 172.477 40.2226C172.477 40.4359 172.535 40.6059 172.652 40.7326C172.772 40.8559 172.917 40.9176 173.087 40.9176C173.257 40.9176 173.4 40.8559 173.517 40.7326C173.637 40.6092 173.697 40.4409 173.697 40.2276ZM176.025 39.2276C176.109 39.0976 176.224 38.9926 176.37 38.9126C176.517 38.8326 176.689 38.7926 176.885 38.7926C177.115 38.7926 177.324 38.8509 177.51 38.9676C177.697 39.0842 177.844 39.2509 177.95 39.4676C178.06 39.6842 178.115 39.9359 178.115 40.2226C178.115 40.5092 178.06 40.7626 177.95 40.9826C177.844 41.1992 177.697 41.3676 177.51 41.4876C177.324 41.6042 177.115 41.6626 176.885 41.6626C176.692 41.6626 176.52 41.6226 176.37 41.5426C176.224 41.4626 176.109 41.3592 176.025 41.2326V42.9526H175.17V38.8326H176.025V39.2276ZM177.245 40.2226C177.245 40.0092 177.185 39.8426 177.065 39.7226C176.949 39.5992 176.804 39.5376 176.63 39.5376C176.46 39.5376 176.315 39.5992 176.195 39.7226C176.079 39.8459 176.02 40.0142 176.02 40.2276C176.02 40.4409 176.079 40.6092 176.195 40.7326C176.315 40.8559 176.46 40.9176 176.63 40.9176C176.8 40.9176 176.945 40.8559 177.065 40.7326C177.185 40.6059 177.245 40.4359 177.245 40.2226ZM178.994 38.5426C178.844 38.5426 178.721 38.4992 178.624 38.4126C178.531 38.3226 178.484 38.2126 178.484 38.0826C178.484 37.9492 178.531 37.8392 178.624 37.7526C178.721 37.6626 178.844 37.6176 178.994 37.6176C179.141 37.6176 179.261 37.6626 179.354 37.7526C179.451 37.8392 179.499 37.9492 179.499 38.0826C179.499 38.2126 179.451 38.3226 179.354 38.4126C179.261 38.4992 179.141 38.5426 178.994 38.5426ZM179.419 38.8326V41.6226H178.564V38.8326H179.419ZM182.413 38.1126C182.783 38.1126 183.106 38.1859 183.383 38.3326C183.66 38.4792 183.873 38.6859 184.023 38.9526C184.176 39.2159 184.253 39.5209 184.253 39.8676C184.253 40.2109 184.176 40.5159 184.023 40.7826C183.873 41.0492 183.658 41.2559 183.378 41.4026C183.101 41.5492 182.78 41.6226 182.413 41.6226H181.098V38.1126H182.413ZM182.358 40.8826C182.681 40.8826 182.933 40.7942 183.113 40.6176C183.293 40.4409 183.383 40.1909 183.383 39.8676C183.383 39.5442 183.293 39.2926 183.113 39.1126C182.933 38.9326 182.681 38.8426 182.358 38.8426H181.953V40.8826H182.358ZM184.561 40.2226C184.561 39.9359 184.614 39.6842 184.721 39.4676C184.831 39.2509 184.979 39.0842 185.166 38.9676C185.353 38.8509 185.561 38.7926 185.791 38.7926C185.988 38.7926 186.159 38.8326 186.306 38.9126C186.456 38.9926 186.571 39.0976 186.651 39.2276V38.8326H187.506V41.6226H186.651V41.2276C186.568 41.3576 186.451 41.4626 186.301 41.5426C186.154 41.6226 185.983 41.6626 185.786 41.6626C185.559 41.6626 185.353 41.6042 185.166 41.4876C184.979 41.3676 184.831 41.1992 184.721 40.9826C184.614 40.7626 184.561 40.5092 184.561 40.2226ZM186.651 40.2276C186.651 40.0142 186.591 39.8459 186.471 39.7226C186.354 39.5992 186.211 39.5376 186.041 39.5376C185.871 39.5376 185.726 39.5992 185.606 39.7226C185.489 39.8426 185.431 40.0092 185.431 40.2226C185.431 40.4359 185.489 40.6059 185.606 40.7326C185.726 40.8559 185.871 40.9176 186.041 40.9176C186.211 40.9176 186.354 40.8559 186.471 40.7326C186.591 40.6092 186.651 40.4409 186.651 40.2276ZM189.679 40.8976V41.6226H189.244C188.934 41.6226 188.693 41.5476 188.519 41.3976C188.346 41.2442 188.259 40.9959 188.259 40.6526V39.5426H187.919V38.8326H188.259V38.1526H189.114V38.8326H189.674V39.5426H189.114V40.6626C189.114 40.7459 189.134 40.8059 189.174 40.8426C189.214 40.8792 189.281 40.8976 189.374 40.8976H189.679ZM189.986 40.2226C189.986 39.9359 190.039 39.6842 190.146 39.4676C190.256 39.2509 190.404 39.0842 190.591 38.9676C190.777 38.8509 190.986 38.7926 191.216 38.7926C191.412 38.7926 191.584 38.8326 191.731 38.9126C191.881 38.9926 191.996 39.0976 192.076 39.2276V38.8326H192.931V41.6226H192.076V41.2276C191.992 41.3576 191.876 41.4626 191.726 41.5426C191.579 41.6226 191.407 41.6626 191.211 41.6626C190.984 41.6626 190.777 41.6042 190.591 41.4876C190.404 41.3676 190.256 41.1992 190.146 40.9826C190.039 40.7626 189.986 40.5092 189.986 40.2226ZM192.076 40.2276C192.076 40.0142 192.016 39.8459 191.896 39.7226C191.779 39.5992 191.636 39.5376 191.466 39.5376C191.296 39.5376 191.151 39.5992 191.031 39.7226C190.914 39.8426 190.856 40.0092 190.856 40.2226C190.856 40.4359 190.914 40.6059 191.031 40.7326C191.151 40.8559 191.296 40.9176 191.466 40.9176C191.636 40.9176 191.779 40.8559 191.896 40.7326C192.016 40.6092 192.076 40.4409 192.076 40.2276ZM195.924 38.1126C196.294 38.1126 196.617 38.1859 196.894 38.3326C197.17 38.4792 197.384 38.6859 197.534 38.9526C197.687 39.2159 197.764 39.5209 197.764 39.8676C197.764 40.2109 197.687 40.5159 197.534 40.7826C197.384 41.0492 197.169 41.2559 196.889 41.4026C196.612 41.5492 196.29 41.6226 195.924 41.6226H194.609V38.1126H195.924ZM195.869 40.8826C196.192 40.8826 196.444 40.7942 196.624 40.6176C196.804 40.4409 196.894 40.1909 196.894 39.8676C196.894 39.5442 196.804 39.2926 196.624 39.1126C196.444 38.9326 196.192 38.8426 195.869 38.8426H195.464V40.8826H195.869ZM198.672 38.5426C198.522 38.5426 198.398 38.4992 198.302 38.4126C198.208 38.3226 198.162 38.2126 198.162 38.0826C198.162 37.9492 198.208 37.8392 198.302 37.7526C198.398 37.6626 198.522 37.6176 198.672 37.6176C198.818 37.6176 198.938 37.6626 199.032 37.7526C199.128 37.8392 199.177 37.9492 199.177 38.0826C199.177 38.2126 199.128 38.3226 199.032 38.4126C198.938 38.4992 198.818 38.5426 198.672 38.5426ZM199.097 38.8326V41.6226H198.242V38.8326H199.097ZM200.571 39.2976C200.671 39.1442 200.796 39.0242 200.946 38.9376C201.096 38.8476 201.263 38.8026 201.446 38.8026V39.7076H201.211C200.998 39.7076 200.838 39.7542 200.731 39.8476C200.625 39.9376 200.571 40.0976 200.571 40.3276V41.6226H199.716V38.8326H200.571V39.2976ZM202.285 38.5426C202.135 38.5426 202.012 38.4992 201.915 38.4126C201.822 38.3226 201.775 38.2126 201.775 38.0826C201.775 37.9492 201.822 37.8392 201.915 37.7526C202.012 37.6626 202.135 37.6176 202.285 37.6176C202.432 37.6176 202.552 37.6626 202.645 37.7526C202.742 37.8392 202.79 37.9492 202.79 38.0826C202.79 38.2126 202.742 38.3226 202.645 38.4126C202.552 38.4992 202.432 38.5426 202.285 38.5426ZM202.71 38.8326V41.6226H201.855V38.8326H202.71Z" fill="#235347"/>
<path d="M178.839 59.6201C182.837 59.6201 186.078 56.2712 186.078 52.1401C186.078 48.009 182.837 44.6601 178.839 44.6601C174.841 44.6601 171.601 48.009 171.601 52.1401C171.601 56.2712 174.841 59.6201 178.839 59.6201Z" fill="#45CE7C"/>
<path d="M179.759 52.3001C180.659 51.9301 181.307 51.0301 181.307 49.9601C181.317 48.5601 180.223 47.4301 178.878 47.4201C177.533 47.4101 176.43 48.5401 176.43 49.9401C176.43 51.0101 177.069 51.9301 177.988 52.3001C174.233 52.8501 174.398 56.8101 174.398 56.8101L183.281 56.8501C183.281 56.8501 183.485 52.8501 179.759 52.3001Z" fill="#DAF1DE" stroke="#235347" stroke-width="0.5" stroke-miterlimit="10"/>
<path d="M196.355 73.9301H152.313C151.704 73.9301 151.21 73.4201 151.21 72.7901C151.21 72.1601 151.704 71.6501 152.313 71.6501H196.355C196.965 71.6501 197.458 72.1601 197.458 72.7901C197.458 73.4201 196.965 73.9301 196.355 73.9301Z" fill="#A9B7AD"/>
<path d="M196.355 88.3001H152.313C151.704 88.3001 151.21 87.7901 151.21 87.1601C151.21 86.5301 151.704 86.0201 152.313 86.0201H196.355C196.965 86.0201 197.458 86.5301 197.458 87.1601C197.458 87.7901 196.965 88.3001 196.355 88.3001Z" fill="#A9B7AD"/>
<path d="M196.355 102.68H152.313C151.704 102.68 151.21 102.17 151.21 101.54C151.21 100.91 151.704 100.4 152.313 100.4H196.355C196.965 100.4 197.458 100.91 197.458 101.54C197.458 102.17 196.965 102.68 196.355 102.68Z" fill="#A9B7AD"/>
<path d="M196.355 117.06H152.313C151.704 117.06 151.21 116.55 151.21 115.92C151.21 115.29 151.704 114.78 152.313 114.78H196.355C196.965 114.78 197.458 115.29 197.458 115.92C197.458 116.55 196.965 117.06 196.355 117.06Z" fill="#A9B7AD"/>
<path d="M196.355 131.43H152.313C151.704 131.43 151.21 130.92 151.21 130.29C151.21 129.66 151.704 129.15 152.313 129.15H196.355C196.965 129.15 197.458 129.66 197.458 130.29C197.458 130.92 196.965 131.43 196.355 131.43Z" fill="#A9B7AD"/>
<path d="M170.498 69.1401H152.372C151.762 69.1401 151.269 68.6301 151.269 68.0001C151.269 67.3701 151.762 66.8601 152.372 66.8601H170.498C171.107 66.8601 171.601 67.3701 171.601 68.0001C171.591 68.6301 171.098 69.1401 170.498 69.1401Z" fill="#9AEFBC"/>
<path d="M170.498 83.7401H152.372C151.762 83.7401 151.269 83.2301 151.269 82.6001C151.269 81.9701 151.762 81.4601 152.372 81.4601H170.498C171.107 81.4601 171.601 81.9701 171.601 82.6001C171.591 83.2301 171.098 83.7401 170.498 83.7401Z" fill="#9AEFBC"/>
<path d="M170.498 98.3401H152.372C151.762 98.3401 151.269 97.8301 151.269 97.2001C151.269 96.5701 151.762 96.0601 152.372 96.0601H170.498C171.107 96.0601 171.601 96.5701 171.601 97.2001C171.591 97.8401 171.098 98.3401 170.498 98.3401Z" fill="#9AEFBC"/>
<path d="M170.498 112.95H152.372C151.762 112.95 151.269 112.44 151.269 111.81C151.269 111.18 151.762 110.67 152.372 110.67H170.498C171.107 110.67 171.601 111.18 171.601 111.81C171.591 112.44 171.098 112.95 170.498 112.95Z" fill="#9AEFBC"/>
<path d="M170.498 127.55H152.372C151.762 127.55 151.269 127.04 151.269 126.41C151.269 125.78 151.762 125.27 152.372 125.27H170.498C171.107 125.27 171.601 125.78 171.601 126.41C171.591 127.04 171.098 127.55 170.498 127.55Z" fill="#9AEFBC"/>
<path d="M205.2 88.1701C203.719 88.1701 202.51 86.9201 202.51 85.3901C202.51 83.8601 203.719 82.6101 205.2 82.6101C206.681 82.6101 207.89 83.8601 207.89 85.3901C207.89 86.9301 206.681 88.1701 205.2 88.1701ZM205.2 83.0601C203.952 83.0601 202.945 84.1101 202.945 85.3901C202.945 86.6801 203.961 87.7201 205.2 87.7201C206.448 87.7201 207.455 86.6701 207.455 85.3901C207.455 84.1101 206.439 83.0601 205.2 83.0601Z" fill="#45CE7C"/>
<path d="M205.016 73.7301C203.623 73.6301 202.577 72.3801 202.674 70.9401C202.771 69.5001 203.981 68.4201 205.374 68.5201C206.768 68.6201 207.813 69.8701 207.716 71.3101C207.619 72.7501 206.41 73.8401 205.016 73.7301Z" fill="#45CE7C"/>
<path d="M205.045 72.5001L203.525 71.2801L203.932 70.7301L204.958 71.5501L206.409 69.8301L206.912 70.2901L205.045 72.5001Z" fill="white"/>
<path d="M205.2 103.47C203.719 103.47 202.51 102.22 202.51 100.69C202.51 99.1601 203.719 97.9101 205.2 97.9101C206.681 97.9101 207.89 99.1601 207.89 100.69C207.89 102.22 206.681 103.47 205.2 103.47ZM205.2 98.3501C203.952 98.3501 202.945 99.4001 202.945 100.68C202.945 101.97 203.961 103.01 205.2 103.01C206.448 103.01 207.455 101.96 207.455 100.68C207.455 99.4001 206.439 98.3501 205.2 98.3501Z" fill="#45CE7C"/>
<path d="M205.2 117.56C203.719 117.56 202.51 116.31 202.51 114.78C202.51 113.25 203.719 112 205.2 112C206.681 112 207.89 113.25 207.89 114.78C207.89 116.32 206.681 117.56 205.2 117.56ZM205.2 112.45C203.952 112.45 202.945 113.5 202.945 114.78C202.945 116.07 203.961 117.11 205.2 117.11C206.448 117.11 207.455 116.06 207.455 114.78C207.455 113.5 206.439 112.45 205.2 112.45Z" fill="#45CE7C"/>
<path d="M205.2 131.94C203.719 131.94 202.51 130.69 202.51 129.16C202.51 127.63 203.719 126.38 205.2 126.38C206.681 126.38 207.89 127.63 207.89 129.16C207.89 130.69 206.681 131.94 205.2 131.94ZM205.2 126.83C203.952 126.83 202.945 127.88 202.945 129.16C202.945 130.45 203.961 131.49 205.2 131.49C206.448 131.49 207.455 130.44 207.455 129.16C207.455 127.87 206.439 126.83 205.2 126.83Z" fill="#45CE7C"/>
<path d="M187.741 144.92H170.225C168.967 144.92 167.951 143.87 167.951 142.57V140.17C167.951 138.87 168.967 137.82 170.225 137.82H187.741C189 137.82 190.016 138.87 190.016 140.17V142.57C190.016 143.87 189 144.92 187.741 144.92Z" fill="#235347"/>
<path d="M177.671 143.891C177.348 143.891 177.055 143.816 176.791 143.666C176.528 143.513 176.32 143.301 176.166 143.031C176.016 142.758 175.941 142.45 175.941 142.106C175.941 141.763 176.016 141.456 176.166 141.186C176.32 140.913 176.528 140.701 176.791 140.551C177.055 140.398 177.348 140.321 177.671 140.321C177.998 140.321 178.293 140.398 178.556 140.551C178.82 140.701 179.026 140.913 179.176 141.186C179.326 141.456 179.401 141.763 179.401 142.106C179.401 142.45 179.326 142.758 179.176 143.031C179.026 143.301 178.82 143.513 178.556 143.666C178.293 143.816 177.998 143.891 177.671 143.891ZM177.671 143.586C177.931 143.586 178.165 143.526 178.371 143.406C178.578 143.286 178.741 143.115 178.861 142.891C178.981 142.665 179.041 142.403 179.041 142.106C179.041 141.81 178.981 141.55 178.861 141.326C178.741 141.103 178.578 140.931 178.371 140.811C178.165 140.691 177.931 140.631 177.671 140.631C177.411 140.631 177.178 140.691 176.971 140.811C176.765 140.931 176.601 141.103 176.481 141.326C176.361 141.55 176.301 141.81 176.301 142.106C176.301 142.403 176.361 142.665 176.481 142.891C176.601 143.115 176.765 143.286 176.971 143.406C177.178 143.526 177.411 143.586 177.671 143.586ZM181.907 143.856L180.392 142.241V143.856H180.042V140.361H180.392V141.996L181.907 140.361H182.352L180.717 142.106L182.367 143.856H181.907Z" fill="white"/>
</svg>
