<svg width="14" height="14" viewBox="0 0 14 14" fill="none" xmlns="http://www.w3.org/2000/svg">
<path d="M13.0784 6.61511L11.9934 5.37261L12.145 3.72761C12.1742 3.43594 11.9759 3.16761 11.6959 3.10344L10.0859 2.74178L9.24586 1.31844C9.09419 1.06761 8.78503 0.962609 8.51086 1.07928L7.00003 1.72678L5.48919 1.07928C5.22086 0.962609 4.90586 1.06761 4.76003 1.31844L3.91419 2.73594L2.31003 3.09761C2.02419 3.16178 1.82586 3.42428 1.85503 3.71594L2.00669 5.36678L0.915859 6.61511C0.723359 6.83678 0.723359 7.16344 0.915859 7.38511L2.00669 8.62761L1.85503 10.2784C1.82586 10.5701 2.02419 10.8384 2.30419 10.9026L3.91419 11.2701L4.75419 12.6876C4.90586 12.9384 5.22086 13.0434 5.48919 12.9268L7.00003 12.2676L8.51086 12.9151C8.77919 13.0318 9.09419 12.9268 9.24003 12.6759L10.08 11.2584L11.69 10.8909C11.9759 10.8268 12.1684 10.5584 12.1392 10.2668L11.9875 8.62178L13.0725 7.37928C13.1676 7.27507 13.2208 7.13938 13.2219 6.99831C13.223 6.85724 13.1718 6.72076 13.0784 6.61511ZM5.96753 8.65094L4.73086 7.41428C4.67685 7.36027 4.63401 7.29615 4.60479 7.22559C4.57556 7.15503 4.56051 7.0794 4.56051 7.00303C4.56051 6.92665 4.57556 6.85102 4.60479 6.78046C4.63401 6.7099 4.67685 6.64578 4.73086 6.59178C4.78486 6.53777 4.84898 6.49493 4.91954 6.4657C4.9901 6.43647 5.06573 6.42143 5.14211 6.42143C5.21848 6.42143 5.29411 6.43647 5.36468 6.4657C5.43524 6.49493 5.49935 6.53777 5.55336 6.59178L6.37586 7.41428L8.44086 5.34928C8.49487 5.29527 8.55898 5.25243 8.62954 5.2232C8.7001 5.19397 8.77573 5.17893 8.85211 5.17893C8.92848 5.17893 9.00411 5.19397 9.07468 5.2232C9.14524 5.25243 9.20935 5.29527 9.26336 5.34928C9.31737 5.40328 9.3602 5.4674 9.38943 5.53796C9.41866 5.60852 9.4337 5.68415 9.4337 5.76053C9.4337 5.8369 9.41866 5.91253 9.38943 5.98309C9.3602 6.05365 9.31737 6.11777 9.26336 6.17178L6.79003 8.64511C6.56836 8.87844 6.19503 8.87844 5.96753 8.65094Z" fill="#EB5757"/>
</svg>
