<svg width="313" height="128" viewBox="0 0 313 128" fill="none" xmlns="http://www.w3.org/2000/svg">
<g clip-path="url(#clip0_1014_34730)">
<path d="M312.5 0H0.5V129.471H312.5V0Z" fill="#F2F9F3"/>
<g opacity="0.7">
<path d="M212.05 53.481C210.922 48.5399 209.679 43.6203 207.962 38.8154C202.982 24.8598 193.056 10.7463 176.025 5.99883C163.45 2.49916 149.877 4.91594 139.248 12.0515C122.585 23.239 110.451 38.4999 92.2177 48.1957C76.9852 56.2922 69.0133 69.3658 74.1317 87.8466C79.25 106.327 96.3467 117.092 115.054 115.772C130.614 114.675 146.868 115.844 160.318 122.47C172.329 128.387 193.571 123.252 211.134 107.073C221.363 97.65 220.373 85.6737 217.037 74.4719C214.985 67.5729 213.644 60.4947 212.05 53.481Z" fill="#DAF1DE"/>
<path opacity="0.7" d="M212.05 53.481C210.922 48.5399 209.679 43.6203 207.962 38.8154C202.982 24.8598 193.056 10.7463 176.025 5.99883C163.45 2.49916 149.877 4.91594 139.248 12.0515C122.585 23.239 110.451 38.4999 92.2177 48.1957C76.9852 56.2922 69.0133 69.3658 74.1317 87.8466C79.25 106.327 96.3467 117.092 115.054 115.772C130.614 114.675 146.868 115.844 160.318 122.47C172.329 128.387 193.571 123.252 211.134 107.073C221.363 97.65 220.373 85.6737 217.037 74.4719C214.985 67.5729 213.644 60.4947 212.05 53.481Z" fill="#DAF1DE"/>
</g>
<path d="M21.4678 114.919H292.161" stroke="#235347" stroke-width="0.974869" stroke-miterlimit="10" stroke-linecap="round" stroke-linejoin="round"/>
<path d="M116.576 57.8806L76.1318 68.7074L88.2179 103.44L128.662 92.6135L116.576 57.8806Z" fill="#235347"/>
<path d="M115.925 59.2745L77.5605 69.5444L88.9402 102.247L127.304 91.9771L115.925 59.2745Z" fill="white"/>
<mask id="mask0_1014_34730" style="mask-type:luminance" maskUnits="userSpaceOnUse" x="77" y="59" width="51" height="44">
<path d="M115.973 59.4253L77.6084 69.6952L88.988 102.398L127.352 92.1279L115.973 59.4253Z" fill="white"/>
</mask>
<g mask="url(#mask0_1014_34730)">
<path d="M98.816 84.1319C98.816 84.1319 90.6233 86.606 90.5661 87.1941C90.5007 87.7821 91.6699 94.3369 92.4058 96.5098C93.1416 98.6828 93.6322 100.103 93.9838 100.282C94.3354 100.461 99.0777 101.336 99.0777 101.336C99.0777 101.336 99.372 107.611 100.026 107.64C100.68 107.661 104.564 107.432 106.886 106.794C109.2 106.163 111.465 105.503 111.653 105.453C111.833 105.402 117.793 103.889 119.682 102.885C121.571 101.874 122.184 101.666 121.914 100.956C121.652 100.253 120.81 99.5362 120.712 99.3856C120.614 99.235 117.474 86.6706 115.553 83.9239C113.632 81.1772 112.135 80.3238 111.26 80.3669C110.386 80.4099 104.695 82.1956 104.695 82.1956L98.816 84.1319Z" fill="#24663F" stroke="#235347" stroke-width="0.974869" stroke-miterlimit="10" stroke-linecap="round" stroke-linejoin="round"/>
<path d="M104.163 85.4514C103.943 85.6666 103.706 85.8746 103.452 86.0754" stroke="#235347" stroke-width="0.974869" stroke-miterlimit="10" stroke-linecap="round" stroke-linejoin="round"/>
<path d="M106.297 82.1454C106.297 82.1454 105.774 83.6944 104.466 85.1287" stroke="#235347" stroke-width="0.974869" stroke-miterlimit="10" stroke-linecap="round" stroke-linejoin="round"/>
<path d="M106.297 83.5725C106.297 83.5725 105.896 84.7271 105.349 85.2291" stroke="#235347" stroke-width="0.974869" stroke-miterlimit="10" stroke-linecap="round" stroke-linejoin="round"/>
<path d="M104.924 95.3552L104.49 94.8317" stroke="#235347" stroke-width="0.974869" stroke-miterlimit="10" stroke-linecap="round" stroke-linejoin="round"/>
<path d="M107.304 98.2094L105.374 95.8931" stroke="#235347" stroke-width="0.974869" stroke-miterlimit="10" stroke-linecap="round" stroke-linejoin="round"/>
<path d="M107.614 98.188L108.072 96.6031" stroke="#235347" stroke-width="0.974869" stroke-miterlimit="10" stroke-linecap="round" stroke-linejoin="round"/>
<path d="M109.486 96.7967L110.934 93.8564" stroke="#235347" stroke-width="0.974869" stroke-miterlimit="10" stroke-linecap="round" stroke-linejoin="round"/>
<path d="M93.4036 69.8894C93.4036 69.8894 90.6236 70.1188 90.3538 70.836C90.084 71.5603 91.2696 71.8256 91.1714 71.9906C91.0815 72.1555 88.5795 74.3715 89.3236 75.6122C90.0595 76.86 92.5941 77.6202 92.7985 77.9644C93.0029 78.3086 90.64 79.1334 90.5337 79.7716C90.4274 80.417 90.9507 83.1494 93.8942 83.2498C96.8376 83.3502 99.5767 80.9621 100.484 80.7039C101.392 80.4386 102.888 81.7438 103.902 81.3493C104.916 80.9549 105.251 80.1087 105.251 80.1087C105.251 80.1087 106.829 81.1127 108.195 80.1087C109.56 79.1047 110.647 76.652 109.666 76.2935C108.677 75.9349 107.737 75.9994 108.105 75.3181C108.464 74.6369 109.102 72.9229 108.481 71.7826C107.859 70.6424 106.216 71.0081 105.447 70.8288C104.679 70.6424 105.774 69.6455 105.366 68.6487C104.949 67.6519 103.477 66.2032 98.7999 66.3036C94.1149 66.404 92.2262 67.5586 92.3734 68.5698C92.5124 69.5738 93.4036 69.8894 93.4036 69.8894Z" fill="#15332A" stroke="#235347" stroke-width="0.974869" stroke-miterlimit="10"/>
<path d="M97.5566 79.578C97.5566 79.578 98.4806 84.6052 98.4969 84.7702C98.5214 84.9351 100.606 85.8602 102.642 84.9996C104.678 84.1391 105.291 82.5685 105.291 82.5685L102.847 78.0146C102.847 78.0146 101.318 79.3055 100.189 79.5995C99.0693 79.8864 97.5566 79.578 97.5566 79.578Z" fill="#F9EDCF" stroke="#235347" stroke-width="0.974869" stroke-miterlimit="10"/>
<path d="M98.1617 82.2458L101.604 80.5605L97.5566 79.578L98.1617 82.2458Z" fill="#1A2E35" stroke="#1A2E35" stroke-width="0.974869" stroke-miterlimit="10" stroke-linecap="round" stroke-linejoin="round"/>
<path d="M94.0336 75.9277C94.0336 75.9277 93.1587 75.4257 93.1996 76.3652C93.2405 77.3118 94.8594 78.0003 94.8594 78.0003L94.0336 75.9277Z" fill="white" stroke="#1A2E35" stroke-width="0.974869" stroke-miterlimit="10" stroke-linecap="round" stroke-linejoin="round"/>
<path d="M102.848 73.3819C102.848 73.3819 103.207 72.5213 103.821 73.303C104.434 74.0847 103.592 75.4831 103.592 75.4831L102.848 73.3819Z" fill="white" stroke="#1A2E35" stroke-width="0.974869" stroke-miterlimit="10" stroke-linecap="round" stroke-linejoin="round"/>
<path d="M94.3442 71.0511C94.3442 71.0511 93.1505 73.0592 93.0605 73.5827C92.9706 74.1062 94.9983 79.1979 95.4644 79.6067C95.9304 80.0155 99.4626 81.1342 99.9777 81.1557C100.493 81.1772 101.597 81.0338 102.283 80.4386C102.962 79.8433 104.238 77.4409 104.27 76.9102C104.295 76.3795 102.022 71.087 101.703 70.6065C101.384 70.126 97.6066 69.1866 96.2738 69.4734C94.9411 69.7675 94.3442 71.0511 94.3442 71.0511Z" fill="#F9EDCF" stroke="#235347" stroke-width="0.974869" stroke-miterlimit="10"/>
<path d="M95.3911 69.7316C95.3911 69.7316 98.817 71.0798 100.747 70.6137C102.676 70.1475 102.676 70.1475 102.676 70.1475C102.676 70.1475 98.3264 70.8647 96.1024 68.7634C96.1024 68.7634 94.2709 68.1252 95.3911 69.7316Z" fill="#1A2E35" stroke="#1A2E35" stroke-width="0.974869" stroke-miterlimit="10" stroke-linecap="round" stroke-linejoin="round"/>
<path d="M98.4326 73.4894L99.4874 75.691" stroke="#235347" stroke-width="0.974869" stroke-miterlimit="10" stroke-linecap="round" stroke-linejoin="round"/>
<path d="M99.8631 76.107C99.8631 76.107 99.6342 76.8457 99.299 76.9389C98.9637 77.0321 98.5059 76.7955 98.5059 76.7955" stroke="#235347" stroke-width="0.974869" stroke-miterlimit="10" stroke-linecap="round" stroke-linejoin="round"/>
<path d="M97.3613 77.6489C97.3613 77.6489 98.2689 78.3302 99.0456 78.1509C99.8306 77.9716 100.566 77.5341 100.566 77.5341" stroke="#235347" stroke-width="0.974869" stroke-miterlimit="10" stroke-linecap="round" stroke-linejoin="round"/>
<path d="M98.6044 73.0448C98.6044 73.0448 99.2749 72.2057 99.561 71.8974C99.839 71.5962 101.131 71.6392 101.131 71.6392C101.131 71.6392 100.101 71.4671 99.6183 71.5316C99.1359 71.5962 98.4082 72.4496 98.4327 72.7436C98.4572 73.0376 98.2038 73.0376 98.6044 73.0448Z" stroke="#235347" stroke-width="0.974869" stroke-miterlimit="10" stroke-linecap="round" stroke-linejoin="round"/>
<path d="M96.8049 73.6831C96.8049 73.6831 96.5597 73.4034 96.1181 73.511C95.6766 73.6114 93.9269 74.6154 94.2621 74.515C94.5973 74.4217 95.9628 73.9986 96.3225 73.8982C96.6823 73.7978 96.8049 73.6831 96.8049 73.6831Z" stroke="#235347" stroke-width="0.974869" stroke-miterlimit="10" stroke-linecap="round" stroke-linejoin="round"/>
<path d="M101.678 73.6974C101.678 73.6974 101.065 74.0201 100.55 74.1492C100.035 74.2711 99.5198 74.2711 99.7978 74.4146C100.076 74.558 100.55 74.6154 101.147 74.3213C101.744 74.0273 101.932 73.848 101.678 73.6974Z" fill="#235347"/>
<path d="M97.0592 75.0313C97.0592 75.0313 96.446 75.354 95.9308 75.4831C95.4157 75.605 94.9006 75.605 95.1786 75.7485C95.4566 75.8919 95.9308 75.9493 96.5277 75.6552C97.1246 75.3612 97.3126 75.1819 97.0592 75.0313Z" fill="#235347"/>
<path d="M93.4121 90.3782C93.4121 90.3782 92.7907 86.4483 93.0033 85.9821C93.2159 85.516 95.9958 81.6864 96.1348 81.4426C96.2738 81.1988 97.026 78.7748 97.1896 78.9971C97.3531 79.2194 97.5084 80.3669 97.2713 81.0768C97.0342 81.7868 96.6745 82.6761 96.6745 82.6761C96.6745 82.6761 99.2091 82.5183 99.3972 82.6044C99.5852 82.6832 100.951 83.9813 101.065 84.1606C101.261 84.4689 101.286 84.849 100.983 84.9638C100.705 85.0713 98.506 84.763 98.506 84.763L97.0751 85.3797C97.0751 85.3797 96.4292 86.857 95.7751 87.2801C95.121 87.7033 94.8511 87.818 94.8511 87.818L95.7342 90.077L93.4121 90.3782Z" fill="#F9EDCF" stroke="#235347" stroke-width="0.974869" stroke-miterlimit="10"/>
<path d="M97.0508 83.3502C97.0508 83.3502 99.1766 82.9988 99.332 83.049C99.4873 83.0992 101.057 84.1606 101.057 84.1606" stroke="#1A2E35" stroke-width="0.974869" stroke-miterlimit="10" stroke-linecap="round" stroke-linejoin="round"/>
<path d="M97.4922 84.1247C97.4922 84.1247 99.6671 83.9454 99.8551 84.01C100.043 84.0745 101.147 84.6554 101.147 84.6554" stroke="#1A2E35" stroke-width="0.974869" stroke-miterlimit="10" stroke-linecap="round" stroke-linejoin="round"/>
<path d="M106.518 98.8262C106.518 98.8262 103.607 99.1704 103.484 99.1704C103.362 99.1704 101.236 99.2134 100.942 99.1919C100.647 99.1704 97.3604 99.5863 97.2868 99.823C97.2132 100.06 97.4912 101.221 97.4912 101.329C97.4912 101.437 97.3686 101.967 97.5403 102.204C97.712 102.441 97.8019 102.907 97.8019 102.907C97.8019 102.907 98.3334 104.427 98.7831 104.327C99.2328 104.233 99.0938 102.67 99.0938 102.67C99.0938 102.67 99.8378 102.814 101.138 102.505C102.438 102.197 103.476 101.293 103.476 101.293L107.139 101.013L106.518 98.8262Z" fill="#F9EDCF" stroke="#235347" stroke-width="0.974869" stroke-miterlimit="10"/>
<path d="M92.6436 89.8762L96.5437 89.4029L97.1569 91.4611C97.1569 91.4611 98.0972 91.5687 99.0947 93.4835C100.092 95.3982 102.529 99.8087 102.48 100.203C102.431 100.598 101.891 102.405 99.3808 103.229C96.8707 104.061 94.7203 102.412 94.2216 101.831C93.731 101.25 93.4367 96.603 93.3631 96.2086C93.2895 95.8142 92.6926 93.1679 92.848 92.6444C93.0033 92.1209 93.2895 91.7264 93.2895 91.7264L92.6436 89.8762Z" fill="#24663F" stroke="#235347" stroke-width="0.974869" stroke-miterlimit="10" stroke-linecap="round" stroke-linejoin="round"/>
<path d="M95.8076 91.54C96.0284 91.5041 96.241 91.4539 96.4372 91.3965" stroke="#235347" stroke-width="0.974869" stroke-miterlimit="10" stroke-linecap="round" stroke-linejoin="round"/>
<path d="M93.2979 91.7193C93.2979 91.7193 94.0337 91.7408 94.9004 91.6619" stroke="#235347" stroke-width="0.974869" stroke-miterlimit="10" stroke-linecap="round" stroke-linejoin="round"/>
<path d="M113.256 85.0426L115.995 93.4189C115.995 93.4189 115.602 93.5695 115.521 93.7703C115.431 93.9711 115.398 94.1934 115.398 94.1934C115.398 94.1934 111.751 95.391 110.165 96.3448C108.579 97.2986 107.614 98.1807 107.614 98.1807L105.995 98.611L107.066 102.426L109.249 101.867C109.249 101.867 110.517 102.104 115.488 101.092C120.459 100.081 122.724 99.5361 123.043 98.8764C123.362 98.2166 123.28 97.3489 123.198 96.9114C123.116 96.4739 123.026 93.6555 121.628 89.9336C120.23 86.2116 114.22 81.9804 112.888 81.0123C111.555 80.0441 110.672 80.4099 110.1 80.7183" fill="#24663F"/>
<path d="M113.256 85.0426L115.995 93.4189C115.995 93.4189 115.602 93.5695 115.521 93.7703C115.431 93.9711 115.398 94.1934 115.398 94.1934C115.398 94.1934 111.751 95.391 110.165 96.3448C108.579 97.2986 107.614 98.1807 107.614 98.1807L105.995 98.611L107.066 102.426L109.249 101.867C109.249 101.867 110.517 102.104 115.488 101.092C120.459 100.081 122.724 99.5361 123.043 98.8764C123.362 98.2166 123.28 97.3488 123.198 96.9114C123.116 96.4739 123.026 93.6555 121.628 89.9336C120.23 86.2116 114.22 81.9804 112.888 81.0123C111.555 80.0441 110.672 80.4099 110.1 80.7183" stroke="#235347" stroke-width="0.974869" stroke-miterlimit="10" stroke-linecap="round" stroke-linejoin="round"/>
<path d="M118.031 92.2069L116.003 93.4261L117.466 91.081" stroke="#235347" stroke-width="0.974869" stroke-miterlimit="10" stroke-linecap="round" stroke-linejoin="round"/>
<path d="M119.306 91.4396L118.66 91.8197" stroke="#235347" stroke-width="0.974869" stroke-miterlimit="10" stroke-linecap="round" stroke-linejoin="round"/>
<path d="M115.397 94.2006C115.397 94.2006 117.801 93.6842 118.872 93.7273" stroke="#235347" stroke-width="0.974869" stroke-miterlimit="10" stroke-linecap="round" stroke-linejoin="round"/>
<path d="M119.715 94.9751C119.862 95.0468 120.009 95.1185 120.156 95.2046" stroke="#235347" stroke-width="0.974869" stroke-miterlimit="10" stroke-linecap="round" stroke-linejoin="round"/>
<path d="M116.518 94.3727C116.518 94.3727 117.777 94.2795 119.134 94.7456" stroke="#235347" stroke-width="0.974869" stroke-miterlimit="10" stroke-linecap="round" stroke-linejoin="round"/>
<path d="M107.712 98.5536L108.922 101.652" stroke="#235347" stroke-width="0.974869" stroke-miterlimit="10" stroke-linecap="round" stroke-linejoin="round"/>
<path d="M106.837 101.401L108.374 100.956" stroke="#235347" stroke-width="0.974869" stroke-miterlimit="10" stroke-linecap="round" stroke-linejoin="round"/>
<path d="M106.519 99.4716L107.124 99.2565" stroke="#235347" stroke-width="0.974869" stroke-miterlimit="10" stroke-linecap="round" stroke-linejoin="round"/>
</g>
<path opacity="0.43" d="M116.658 57.8809L76.2139 68.7077L88.3 103.441L128.744 92.6138L116.658 57.8809Z" fill="#8EB69B"/>
<path d="M193.065 29.6722L173.92 64.5216L214.499 81.6718L233.645 46.8225L193.065 29.6722Z" fill="#45CE7C"/>
<path d="M193.5 31.2258L175.742 63.549L214.237 79.8182L231.995 47.495L193.5 31.2258Z" fill="white"/>
<mask id="mask1_1014_34730" style="mask-type:luminance" maskUnits="userSpaceOnUse" x="175" y="31" width="57" height="49">
<path d="M193.5 31.2258L175.742 63.549L214.237 79.8182L231.995 47.495L193.5 31.2258Z" fill="white"/>
</mask>
<g mask="url(#mask1_1014_34730)">
<path d="M187.136 56.8301C187.136 56.8301 184.184 57.4541 182.181 59.2182C180.178 60.9896 171.674 66.9347 171.674 66.9347C171.674 66.9347 163.645 71.1946 161.544 74.8735L166.981 76.8457C166.981 76.8457 174.994 71.8615 176.768 70.8503C178.543 69.8391 183.473 66.5618 183.473 66.5618L186.899 61.4916L187.136 56.8301Z" fill="#F9EDCF" stroke="#235347" stroke-width="0.974869" stroke-miterlimit="10"/>
<path d="M211.395 64.4534L215.426 81.6649L207.47 82.1812L205.549 75.1532L211.395 64.4534Z" fill="#F9EDCF" stroke="#235347" stroke-width="0.974869" stroke-miterlimit="10"/>
<path d="M205.419 78.1796L215.467 75.6839C215.467 75.6839 212.769 64.4319 211.78 64.0303L210.97 64.059L204.307 75.1819L205.419 78.1796Z" fill="#45CE7C" stroke="#235347" stroke-width="0.974869" stroke-miterlimit="10" stroke-linecap="round" stroke-linejoin="round"/>
<path d="M182.565 69.2009L177.594 61.1474C177.594 61.1474 188.664 54.9871 189.687 55.3313L190.226 55.862L185.795 67.8096L182.565 69.2009Z" fill="#45CE7C" stroke="#235347" stroke-width="0.974869" stroke-miterlimit="10" stroke-linecap="round" stroke-linejoin="round"/>
<path d="M189.441 55.5321C189.441 55.5321 188.877 54.7648 195.009 56.1704L196.17 56.1417L205.426 57.9274L205.638 58.8956L211.991 64.2096L200.545 84.3255L199.841 89.0013L176.85 80.496L180.594 73.6114L183.472 66.569L189.441 55.5321Z" fill="#45CE7C" stroke="#235347" stroke-width="0.974869" stroke-miterlimit="10" stroke-linecap="round" stroke-linejoin="round"/>
<path d="M206.065 59.2111C206.065 59.2111 206.056 59.2183 206.04 59.2326C206.024 59.2541 205.999 59.2756 205.966 59.3043C205.901 59.3617 205.819 59.4549 205.68 59.5553C205.427 59.7705 205.026 60.0501 204.478 60.3227C204.2 60.4517 203.89 60.588 203.538 60.6956C203.366 60.7529 203.178 60.796 202.99 60.8462C202.794 60.882 202.598 60.9322 202.393 60.9609C201.576 61.09 200.635 61.0828 199.703 60.8892C198.771 60.6884 197.929 60.3083 197.316 59.7991C196.703 59.2971 196.343 58.6804 196.204 58.1497C196.049 57.6118 196.098 57.1529 196.171 56.8517C196.253 56.5505 196.343 56.3999 196.343 56.3999C196.343 56.3999 196.343 56.4142 196.335 56.4286C196.327 56.4501 196.318 56.4788 196.302 56.5146C196.286 56.5505 196.269 56.6007 196.253 56.658C196.237 56.7154 196.212 56.78 196.204 56.8588C196.138 57.16 196.098 57.6118 196.261 58.1425C196.408 58.6732 196.768 59.2685 197.373 59.7633C197.97 60.2581 198.804 60.6382 199.728 60.8318C200.652 61.0255 201.576 61.0326 202.393 60.9035C202.598 60.882 202.794 60.8318 202.982 60.796C203.17 60.7458 203.35 60.7099 203.522 60.6454C203.873 60.545 204.176 60.4087 204.454 60.2868C205.002 60.0286 205.402 59.7489 205.664 59.541C205.803 59.4406 205.885 59.3545 205.958 59.2971C205.991 59.2684 206.015 59.2469 206.032 59.2326C206.056 59.2183 206.065 59.2111 206.065 59.2111Z" stroke="#235347" stroke-width="0.974869" stroke-miterlimit="10" stroke-linecap="round" stroke-linejoin="round"/>
<path d="M209.849 67.2718C209.849 67.2718 209.841 67.2861 209.833 67.322C209.817 67.3578 209.8 67.4008 209.776 67.4582C209.727 67.573 209.653 67.7522 209.547 67.9746C209.342 68.4192 209.04 69.0575 208.647 69.8391C207.862 71.4097 206.718 73.554 205.426 75.9062C204.126 78.2584 202.924 80.3812 202.041 81.9015C201.599 82.6617 201.231 83.2784 200.978 83.7016C200.847 83.9095 200.749 84.0745 200.675 84.182C200.643 84.2394 200.61 84.2753 200.585 84.304C200.577 84.3183 200.569 84.3255 200.561 84.3326C200.561 84.3398 200.553 84.3398 200.553 84.3326C200.553 84.3326 200.553 84.3398 200.561 84.3326C200.569 84.3255 200.577 84.3183 200.585 84.304C200.602 84.2753 200.634 84.2322 200.667 84.182C200.733 84.0673 200.831 83.9024 200.962 83.6944C201.215 83.2713 201.567 82.6473 202.008 81.8872C202.883 80.3525 204.077 78.2369 205.377 75.8847C206.669 73.5324 207.822 71.3882 208.615 69.8248C209.015 69.0431 209.326 68.4048 209.539 67.9674C209.645 67.7522 209.718 67.5801 209.776 67.4582C209.8 67.4008 209.825 67.3578 209.841 67.3291C209.841 67.2861 209.849 67.2718 209.849 67.2718Z" fill="#1A2E35"/>
<path d="M215.189 74.5723C215.197 74.5867 212.924 75.1747 210.111 75.8775C207.299 76.5803 205.018 77.1325 205.018 77.1182C205.009 77.1039 207.282 76.5158 210.095 75.813C212.9 75.1102 215.181 74.558 215.189 74.5723Z" stroke="#235347" stroke-width="0.974869" stroke-miterlimit="10" stroke-linecap="round" stroke-linejoin="round"/>
<path d="M178.697 60.5378C178.681 60.545 179.785 62.3809 181.175 64.6327C182.565 66.8845 182.998 67.5228 183.023 67.5085C183.039 67.5013 182.63 66.8559 181.248 64.5968C179.85 62.3522 178.714 60.5306 178.697 60.5378Z" stroke="#235347" stroke-width="0.974869" stroke-miterlimit="10" stroke-linecap="round" stroke-linejoin="round"/>
<g opacity="0.3">
<path d="M204.707 60.172C204.257 60.6167 203.644 60.9179 202.998 61.1043C202.352 61.2908 201.673 61.3625 200.995 61.3912C200.259 61.4199 199.507 61.3983 198.828 61.1545C197.798 60.7888 197.07 59.9569 196.514 59.1107C196.228 58.666 195.966 58.164 196.097 57.6692C196.097 57.6692 196.244 58.5585 196.678 59.0605C197.111 59.5625 198.19 60.7099 200.382 60.9609C202.581 61.2119 204.707 60.172 204.707 60.172Z" fill="black"/>
</g>
<path d="M209.187 64.6399C209.187 64.6399 207.65 64.396 207.069 65.7586C206.489 67.1212 206.53 67.5586 206.53 67.5586L203.406 66.404C203.406 66.404 202.204 66.153 201.976 66.777C201.747 67.4009 201.918 67.4367 201.918 67.4367C201.918 67.4367 201.207 67.1499 200.815 67.8455C200.586 68.2471 200.913 68.7778 200.913 68.7778C200.913 68.7778 200.299 69.3587 200.316 69.5595C200.332 69.7603 200.847 70.3699 200.847 70.3699C200.847 70.3699 200.414 70.7284 200.577 71.0798C200.741 71.4312 202.082 72.5428 202.082 72.5428C202.082 72.5428 203.644 73.8767 204.355 74.2424C205.066 74.601 205.917 75.0385 205.917 75.0385L209.277 72.2057C209.277 72.2057 208.86 70.4631 208.909 69.9683C208.966 69.4734 208.492 67.8455 208.492 67.8455C208.492 67.8455 208.32 66.7483 208.557 66.0957C208.803 65.4287 209.391 64.6542 209.187 64.6399Z" fill="#F9EDCF" stroke="#235347" stroke-width="0.974869" stroke-miterlimit="10"/>
<path d="M205.549 74.6655C205.549 74.6655 207.16 81.3637 207.732 82.9557C208.296 84.5549 210.667 88.5494 213.889 87.5096C217.11 86.4769 215.925 83.3645 215.614 82.1382C215.262 80.7541 209.097 71.3882 209.097 71.3882" fill="#F9EDCF"/>
<path d="M205.549 74.6655C205.549 74.6655 207.16 81.3637 207.732 82.9557C208.296 84.5549 210.667 88.5494 213.889 87.5096C217.11 86.4769 215.925 83.3645 215.614 82.1382C215.262 80.7541 209.097 71.3882 209.097 71.3882" stroke="#235347" stroke-width="0.974869" stroke-miterlimit="10"/>
<path d="M203.627 68.2973C203.619 68.3116 203.218 68.1323 202.744 67.8885C202.27 67.6447 201.886 67.4367 201.894 67.4224C201.902 67.408 202.303 67.5873 202.777 67.8311C203.259 68.075 203.643 68.2829 203.627 68.2973Z" stroke="#235347" stroke-width="0.974869" stroke-miterlimit="10" stroke-linecap="round" stroke-linejoin="round"/>
<path d="M202.892 69.9898C202.884 69.9969 202.769 69.9467 202.573 69.8463C202.385 69.7459 202.123 69.6097 201.845 69.4447C201.567 69.2798 201.322 69.122 201.15 69.0073C200.978 68.8925 200.872 68.8137 200.88 68.8065C200.888 68.7993 201.003 68.8639 201.183 68.9714C201.387 69.0933 201.624 69.2368 201.886 69.3945C202.148 69.5523 202.393 69.6886 202.597 69.8105C202.785 69.9109 202.9 69.9826 202.892 69.9898Z" stroke="#235347" stroke-width="0.974869" stroke-miterlimit="10" stroke-linecap="round" stroke-linejoin="round"/>
<path d="M201.837 71.1659C201.82 71.1802 201.591 71.0224 201.313 70.8073C201.044 70.5993 200.831 70.4129 200.839 70.3985C200.855 70.3842 201.084 70.5419 201.362 70.7571C201.64 70.9722 201.853 71.1515 201.837 71.1659Z" stroke="#235347" stroke-width="0.974869" stroke-miterlimit="10" stroke-linecap="round" stroke-linejoin="round"/>
<path d="M208.394 40.1422C208.272 39.5542 207.675 39.0665 207.004 39.002C206.432 38.2777 205.255 37.9836 204.339 38.335C203.873 37.8904 203.137 37.6753 202.458 37.7972C201.78 37.9191 201.199 38.3637 200.962 38.9374C200.333 38.6721 199.515 38.794 199.033 39.2315C198.542 39.6689 198.419 40.3861 198.738 40.9311C197.953 40.9454 197.226 41.5335 197.16 42.222C197.095 42.9104 197.692 43.5989 198.468 43.728L207.552 41.6482C208.157 41.3685 208.517 40.7303 208.394 40.1422Z" fill="#15332A" stroke="#235347" stroke-width="0.974869" stroke-miterlimit="10"/>
<path d="M195.345 50.9209C195.844 49.4292 196.956 46.5534 198.174 43.8498C199.482 40.9454 203.121 39.4179 206.522 40.3286L206.865 40.4219C210.446 41.5908 211.321 44.904 209.891 48.0164L205.312 58.6302C201.354 61.2621 196.956 59.082 196.996 56.6078L197.462 55.5464C197.462 55.5464 194.315 54.0046 195.345 50.9209Z" fill="#F9EDCF" stroke="#235347" stroke-width="0.974869" stroke-miterlimit="10"/>
<path d="M197.438 55.5321C197.438 55.5321 199.637 56.2493 202.441 55.5823C202.441 55.5823 200.553 57.4613 197.151 56.2493L197.438 55.5321Z" fill="#D8C8A4"/>
<path d="M198.804 46.5033C198.714 46.7328 198.861 46.991 199.131 47.077C199.401 47.1631 199.695 47.0483 199.785 46.8188C199.875 46.5894 199.728 46.3312 199.458 46.2451C199.188 46.1591 198.894 46.2738 198.804 46.5033Z" fill="#235347"/>
<path d="M198.411 45.5567C198.452 45.6284 198.918 45.485 199.458 45.6356C199.997 45.7718 200.308 46.1232 200.39 46.0802C200.431 46.0587 200.398 45.9439 200.267 45.7862C200.136 45.6284 199.883 45.4491 199.548 45.3559C199.212 45.2698 198.894 45.2985 198.689 45.3702C198.477 45.4348 198.387 45.528 198.411 45.5567Z" fill="#235347"/>
<path d="M203.726 48.0308C203.636 48.2603 203.783 48.5185 204.053 48.6045C204.323 48.6906 204.617 48.5759 204.707 48.3464C204.797 48.1169 204.65 47.8587 204.38 47.7727C204.11 47.6866 203.816 47.8013 203.726 48.0308Z" fill="#235347"/>
<path d="M203.668 47.0698C203.709 47.1415 204.175 46.9981 204.714 47.1487C205.254 47.285 205.565 47.6364 205.647 47.5933C205.687 47.579 205.655 47.4571 205.524 47.2993C205.393 47.1415 205.14 46.9623 204.804 46.869C204.469 46.783 204.15 46.8116 203.946 46.8834C203.741 46.9479 203.652 47.034 203.668 47.0698Z" fill="#235347"/>
<path d="M200.782 50.1535C200.79 50.1249 200.48 49.9886 199.956 49.7806C199.825 49.7304 199.703 49.6731 199.703 49.587C199.703 49.4938 199.801 49.379 199.915 49.2571C200.144 48.9989 200.39 48.7336 200.643 48.4467C201.665 47.2921 202.45 46.324 202.393 46.2881C202.336 46.2523 201.469 47.1631 200.447 48.3177C200.202 48.6045 199.964 48.877 199.735 49.1352C199.637 49.2571 199.49 49.3934 199.498 49.587C199.507 49.6874 199.58 49.7806 199.662 49.8237C199.744 49.8739 199.817 49.8954 199.883 49.9169C200.43 50.089 200.766 50.1822 200.782 50.1535Z" fill="#235347"/>
<path d="M201.967 50.7989C201.877 50.7703 201.697 51.2866 201.076 51.5161C200.446 51.7456 199.85 51.5233 199.817 51.595C199.801 51.6237 199.923 51.7312 200.185 51.8101C200.438 51.889 200.839 51.9177 201.223 51.7743C201.607 51.6308 201.845 51.3727 201.935 51.1647C202.024 50.9495 202.008 50.8061 201.967 50.7989Z" fill="#1A2E35"/>
<path d="M204.175 45.1766C204.183 45.32 204.739 45.4061 205.352 45.6427C205.965 45.865 206.423 46.1662 206.546 46.073C206.603 46.03 206.554 45.8865 206.391 45.7001C206.227 45.5208 205.941 45.3128 205.581 45.1766C205.213 45.0403 204.845 44.9973 204.592 45.0188C204.33 45.0403 204.175 45.112 204.175 45.1766Z" fill="#235347"/>
<path d="M199.081 44.2443C199.138 44.3805 199.547 44.3662 199.997 44.4809C200.447 44.5813 200.798 44.7749 200.921 44.6889C200.978 44.6459 200.953 44.5239 200.823 44.3733C200.692 44.2299 200.455 44.0721 200.144 44.0004C199.833 43.9287 199.531 43.9502 199.343 44.0219C199.147 44.0865 199.057 44.1797 199.081 44.2443Z" fill="#235347"/>
<path d="M199.008 42.5303C199.008 42.5303 200.602 40.8522 201.82 40.6872C203.292 40.4864 203.415 41.8705 204.739 41.8992C206.064 41.9279 207.47 41.7342 208.427 42.896C209.474 44.1725 208.615 44.6315 208.223 46.0228C206.636 51.6452 207.241 53.5169 208.476 50.9998C208.615 50.7272 209.596 50.7416 210.152 49.5726C210.872 48.0523 211.599 46.1734 211.591 44.9614C211.583 43.9359 211.199 43.1255 210.357 42.1215C209.024 40.5366 206.669 39.8768 205.017 39.59C203.366 39.2959 199.703 40.0848 199.008 42.5303Z" fill="#15332A" stroke="#235347" stroke-width="0.974869" stroke-miterlimit="10"/>
<path d="M208.288 50.8563C208.476 50.3902 209.072 50.1392 209.596 50.3257C210.233 50.5551 210.847 51.0787 210.389 52.2476C209.579 54.3273 207.364 53.1871 207.38 53.1225C207.388 53.0867 207.936 51.7241 208.288 50.8563Z" fill="#F9EDCF" stroke="#235347" stroke-width="0.974869" stroke-miterlimit="10"/>
<path d="M208.198 52.4986C208.214 52.4986 208.23 52.5344 208.288 52.5846C208.345 52.6348 208.451 52.685 208.598 52.685C208.884 52.6779 209.228 52.391 209.383 52.0252C209.465 51.8388 209.489 51.6452 209.473 51.473C209.457 51.3009 209.391 51.1575 209.269 51.1001C209.154 51.0356 209.04 51.0786 208.983 51.1288C208.925 51.179 208.925 51.222 208.917 51.222C208.909 51.222 208.876 51.1718 208.933 51.093C208.958 51.0571 209.007 51.0141 209.081 50.9926C209.154 50.971 209.244 50.971 209.326 51.0069C209.506 51.0714 209.612 51.2722 209.628 51.4587C209.661 51.6523 209.637 51.8675 209.547 52.0826C209.367 52.4986 208.974 52.8141 208.59 52.7998C208.41 52.7854 208.288 52.6994 208.23 52.6348C208.181 52.5559 208.189 52.5057 208.198 52.4986Z" fill="#D8C8A4"/>
<path d="M209.661 46.7687C209.285 46.8691 208.892 46.9767 208.5 46.9049C208.116 46.8404 207.748 46.532 207.805 46.1878C207.829 46.0372 207.928 45.8723 207.854 45.736C207.772 45.5639 207.511 45.5424 207.306 45.5065C206.587 45.3846 206.023 44.7607 206.055 44.1152C205.794 44.3017 205.385 44.1798 205.172 43.9575C204.96 43.7352 204.87 43.4411 204.731 43.1686C204.592 42.9033 204.363 42.6308 204.036 42.5877C203.848 42.559 203.651 42.6092 203.48 42.5519C203.177 42.4443 203.136 42.0786 203.177 41.7917C203.226 41.5048 203.3 41.175 203.087 40.9526C202.891 40.7518 202.539 40.7447 202.237 40.7016C201.934 40.6586 201.583 40.5008 201.591 40.2355C201.599 40.0921 201.705 39.9773 201.828 39.8841C202.384 39.4682 203.275 39.461 203.839 39.8626C204.314 39.2315 205.246 38.8873 206.096 39.0307C206.946 39.1741 207.658 39.798 207.829 40.5367C208.475 40.2714 209.269 40.3 209.89 40.6084C210.511 40.924 210.936 41.512 211.002 42.1359C211.631 42.1574 212.228 42.5375 212.449 43.0539C212.67 43.5702 212.515 44.2013 212.057 44.5814C212.408 44.9113 212.654 45.3846 212.506 45.8221C212.367 46.2595 211.73 46.5607 211.288 46.3169C211.362 46.7041 211.043 47.1273 210.601 47.2133C210.16 47.2994 209.669 47.0484 209.538 46.6683" fill="#15332A"/>
<path d="M209.661 46.7687C209.285 46.8691 208.892 46.9767 208.5 46.9049C208.116 46.8404 207.748 46.532 207.805 46.1878C207.829 46.0372 207.928 45.8723 207.854 45.736C207.772 45.5639 207.511 45.5424 207.306 45.5065C206.587 45.3846 206.023 44.7607 206.055 44.1152C205.794 44.3017 205.385 44.1798 205.172 43.9575C204.96 43.7352 204.87 43.4411 204.731 43.1686C204.592 42.9033 204.363 42.6308 204.036 42.5877C203.848 42.559 203.651 42.6092 203.48 42.5519C203.177 42.4443 203.136 42.0786 203.177 41.7917C203.226 41.5048 203.3 41.175 203.087 40.9526C202.891 40.7518 202.539 40.7447 202.237 40.7016C201.934 40.6586 201.583 40.5008 201.591 40.2355C201.599 40.0921 201.705 39.9773 201.828 39.8841C202.384 39.4682 203.275 39.461 203.839 39.8626C204.314 39.2315 205.246 38.8873 206.096 39.0307C206.946 39.1741 207.658 39.798 207.829 40.5367C208.475 40.2714 209.269 40.3 209.89 40.6084C210.511 40.924 210.936 41.512 211.002 42.1359C211.631 42.1574 212.228 42.5375 212.449 43.0539C212.67 43.5702 212.515 44.2013 212.057 44.5814C212.408 44.9113 212.654 45.3846 212.506 45.8221C212.367 46.2595 211.73 46.5607 211.288 46.3169C211.362 46.7041 211.043 47.1273 210.601 47.2133C210.16 47.2994 209.669 47.0484 209.538 46.6683" stroke="#235347" stroke-width="0.974869" stroke-miterlimit="10"/>
<path d="M211.477 46.3671C211.485 46.3671 211.46 46.5535 211.19 46.7328C211.06 46.8117 210.855 46.8834 210.626 46.8547C210.397 46.826 210.152 46.7113 210.005 46.4962L210.111 46.5105C209.931 46.6611 209.711 46.8045 209.449 46.9049C209.285 46.9695 209.105 47.0197 208.926 47.0269C208.746 47.0412 208.566 46.9982 208.427 46.9336C208.133 46.826 207.92 46.6109 207.855 46.4029C207.789 46.195 207.805 46.03 207.814 45.9153C207.83 45.8005 207.846 45.7432 207.855 45.7432C207.863 45.7432 207.863 45.8077 207.871 45.9225C207.879 46.0372 207.879 46.2021 207.953 46.3814C208.075 46.7472 208.762 47.0986 209.383 46.7974C209.621 46.7041 209.833 46.5679 210.013 46.4316L210.078 46.3814L210.119 46.446C210.234 46.6252 210.446 46.7328 210.643 46.7615C210.839 46.7902 211.019 46.74 211.15 46.6754C211.395 46.532 211.46 46.3599 211.477 46.3671Z" fill="#375A64"/>
<path d="M202.319 37.8187C202.311 37.7971 202.025 37.876 201.722 38.1772C201.575 38.3278 201.411 38.5286 201.305 38.7796C201.191 39.0306 201.174 39.3533 201.305 39.6546C201.436 39.9486 201.673 40.1781 201.902 40.343C202.131 40.5151 202.352 40.6442 202.54 40.7518C202.916 40.9598 203.153 41.0817 203.169 41.0602C203.186 41.0458 202.973 40.888 202.613 40.6586C202.433 40.5438 202.221 40.4076 202.008 40.2354C201.796 40.0705 201.583 39.8554 201.469 39.5972C201.354 39.3318 201.362 39.0593 201.46 38.8298C201.55 38.5932 201.689 38.3995 201.82 38.2489C202.082 37.9477 202.335 37.8402 202.319 37.8187Z" fill="#E1E1E1"/>
<path d="M200.569 40.0203C200.773 40.3071 201.06 40.5079 201.289 40.6011C201.517 40.7015 201.673 40.7087 201.681 40.6944C201.689 40.6729 201.55 40.6227 201.354 40.5079C201.158 40.3932 200.912 40.2067 200.724 39.9414C200.536 39.676 200.446 39.4035 200.414 39.1955C200.381 38.9947 200.389 38.8585 200.365 38.8585C200.348 38.8513 200.291 38.9876 200.291 39.2099" fill="#E1E1E1"/>
<path d="M202.36 47.0412C202.368 47.0484 202.45 46.8763 202.711 46.6468C202.842 46.532 203.014 46.4101 203.251 46.3097C203.48 46.2093 203.774 46.1304 204.093 46.1233C204.257 46.1161 204.428 46.1304 204.6 46.1663C204.772 46.2021 204.943 46.2595 205.115 46.3384C205.45 46.4962 205.761 46.7543 205.949 47.0914C206.047 47.2563 206.113 47.4428 206.145 47.6364C206.178 47.8301 206.17 48.0309 206.121 48.2317C206.031 48.6333 205.769 49.0134 205.377 49.2787C204.984 49.544 204.494 49.666 204.028 49.6373C203.562 49.6086 203.128 49.4365 202.818 49.1855C202.662 49.0564 202.531 48.9129 202.425 48.7623C202.327 48.6046 202.253 48.4468 202.212 48.2819C202.131 47.9591 202.147 47.6364 202.253 47.3639C202.278 47.2994 202.302 47.2277 202.335 47.1703C202.351 47.1416 202.376 47.1129 202.392 47.0771C202.401 47.0555 202.392 47.0269 202.384 47.0125C202.376 46.9982 202.36 46.9838 202.351 46.9695C202.253 46.8691 202.147 46.783 202.033 46.7185C201.804 46.5894 201.575 46.5464 201.387 46.5535C201.199 46.5607 201.06 46.6109 200.97 46.6468C200.929 46.6683 200.896 46.6826 200.872 46.6898C200.847 46.7041 200.839 46.7041 200.839 46.7113C200.839 46.7113 200.888 46.697 200.978 46.6611C201.068 46.6324 201.207 46.5822 201.387 46.5822C201.567 46.5822 201.795 46.6324 202.008 46.7543C202.114 46.8189 202.212 46.8978 202.311 46.9982C202.335 47.0269 202.351 47.0484 202.343 47.0627C202.335 47.0842 202.311 47.1129 202.294 47.1488C202.27 47.2133 202.237 47.285 202.212 47.3496C202.106 47.6293 202.082 47.9591 202.163 48.2962C202.212 48.4611 202.278 48.6333 202.384 48.7982C202.49 48.956 202.629 49.1066 202.785 49.2428C203.112 49.5082 203.562 49.6875 204.044 49.7162C204.526 49.7448 205.042 49.6229 205.45 49.3432C205.859 49.0707 206.137 48.6691 206.227 48.2532C206.276 48.0452 206.284 47.8301 206.252 47.6293C206.219 47.4285 206.145 47.2348 206.039 47.0627C205.843 46.7113 205.516 46.446 205.172 46.281C205.001 46.2021 204.821 46.1448 204.641 46.1089C204.461 46.073 204.289 46.0587 204.118 46.0659C203.782 46.0731 203.488 46.1591 203.251 46.2667C203.014 46.3743 202.834 46.5033 202.711 46.6253C202.58 46.7472 202.507 46.8476 202.45 46.9265C202.376 46.9982 202.351 47.0412 202.36 47.0412Z" stroke="#235347" stroke-width="0.974869" stroke-miterlimit="10" stroke-linecap="round" stroke-linejoin="round"/>
<path d="M196.825 46.0085C196.833 46.0157 196.874 45.8508 197.029 45.6069C197.185 45.3631 197.504 45.0332 198.035 44.8396C198.297 44.7463 198.616 44.689 198.951 44.7177C199.286 44.7463 199.638 44.8396 199.94 45.0332C200.096 45.1264 200.235 45.2412 200.357 45.3774C200.48 45.5137 200.586 45.6643 200.652 45.8364C200.807 46.1663 200.831 46.5607 200.717 46.9265C200.603 47.2922 200.357 47.6149 200.038 47.8372C199.883 47.952 199.703 48.038 199.523 48.1026C199.343 48.1671 199.155 48.2102 198.967 48.2173C198.591 48.2532 198.231 48.1743 197.929 48.0524C197.626 47.9305 197.381 47.744 197.209 47.5432C196.858 47.1416 196.776 46.7185 196.776 46.4388C196.776 46.1663 196.833 46.0157 196.825 46.0085ZM196.825 46.0085C196.825 46.0085 196.809 46.0444 196.792 46.1161C196.784 46.152 196.768 46.195 196.76 46.2524C196.751 46.3097 196.743 46.3671 196.743 46.4388C196.727 46.7185 196.801 47.1631 197.16 47.5791C197.34 47.7799 197.585 47.9807 197.896 48.1098C198.207 48.2388 198.583 48.3177 198.975 48.289C199.172 48.2747 199.368 48.2388 199.556 48.1671C199.744 48.1026 199.932 48.0094 200.096 47.8946C200.431 47.6651 200.684 47.3209 200.807 46.9408C200.921 46.5536 200.897 46.152 200.733 45.8005C200.66 45.6284 200.553 45.4635 200.423 45.3272C200.292 45.1838 200.145 45.0619 199.981 44.9687C199.662 44.7679 199.294 44.6746 198.943 44.6459C198.591 44.6244 198.272 44.6818 198.002 44.7822C197.455 44.983 197.136 45.3344 196.989 45.5854C196.948 45.65 196.923 45.7073 196.899 45.7575C196.874 45.8077 196.858 45.8508 196.85 45.8866C196.833 45.9727 196.817 46.0085 196.825 46.0085Z" stroke="#235347" stroke-width="0.974869" stroke-miterlimit="10" stroke-linecap="round" stroke-linejoin="round"/>
<path d="M205.843 48.8986C205.827 48.9129 206.383 49.3432 207.086 49.8595C207.789 50.3759 208.37 50.7775 208.386 50.7631C208.402 50.7488 207.846 50.3185 207.143 49.8022C206.44 49.2858 205.859 48.8842 205.843 48.8986Z" stroke="#235347" stroke-width="0.974869" stroke-miterlimit="10" stroke-linecap="round" stroke-linejoin="round"/>
<path d="M195.803 49.5153C195.852 49.4006 195.999 49.0922 196.04 49.1209C196.49 49.4365 196.882 49.4293 197.544 49.1998C198.436 48.8986 198.893 48.6261 199.965 49.0492C200.521 49.2715 201.019 49.6014 201.42 50.003C202.467 51.0715 203.955 51.7887 205.541 52.0038L206.162 54.0118C206.162 54.0118 202.933 57.6191 197.479 55.5967C193.742 54.2198 195.32 50.6413 195.803 49.5153Z" fill="#24663F" stroke="#235347" stroke-width="0.974869" stroke-miterlimit="10" stroke-linecap="round" stroke-linejoin="round"/>
<path d="M195.795 49.6659C196.4 50.0102 196.727 49.9313 197.496 49.6731C198.264 49.4149 198.591 49.3145 199.376 49.5225C200.047 49.7018 201.134 50.5624 201.625 50.9998C202.647 51.9249 204.257 52.3266 205.713 52.5274L205.68 52.4413L205.541 51.9823C203.955 51.7672 202.467 51.05 201.42 49.9815C201.02 49.5727 200.521 49.25 199.965 49.0277C198.894 48.6046 198.436 48.8771 197.545 49.1783C196.882 49.4006 196.563 49.3145 196.04 49.1209C196.04 49.1209 195.991 49.1209 195.918 49.2859C195.852 49.4149 195.795 49.6659 195.795 49.6659Z" fill="#DAF1DE"/>
<path d="M195.55 51.2293C195.55 51.2293 195.574 51.2365 195.632 51.2652C195.689 51.2939 195.762 51.3297 195.844 51.3799C195.934 51.4301 196.049 51.4947 196.188 51.5592C196.327 51.6238 196.474 51.7027 196.654 51.7815C196.825 51.8604 197.022 51.9465 197.226 52.0254C197.43 52.1114 197.659 52.1903 197.896 52.2764C198.379 52.4413 198.918 52.5991 199.491 52.7282C200.071 52.8573 200.627 52.9433 201.142 53.0007C201.396 53.0222 201.641 53.0509 201.87 53.0581C202.099 53.0724 202.312 53.0796 202.508 53.0796C202.704 53.0867 202.884 53.0796 203.039 53.0796C203.195 53.0796 203.325 53.0724 203.44 53.0652C203.546 53.0581 203.628 53.0581 203.693 53.0581C203.751 53.0581 203.783 53.0581 203.783 53.0581C203.783 53.0581 203.751 53.0652 203.693 53.0724C203.628 53.0796 203.546 53.0868 203.44 53.0939C203.334 53.1011 203.195 53.1154 203.039 53.1154C202.884 53.1226 202.704 53.1298 202.508 53.1298C202.312 53.1298 202.099 53.1298 201.862 53.1154C201.633 53.1083 201.388 53.0867 201.126 53.0652C200.611 53.0079 200.047 52.929 199.466 52.7999C198.886 52.6708 198.346 52.5059 197.864 52.3409C197.627 52.2549 197.398 52.1688 197.185 52.0827C196.972 51.9967 196.784 51.9106 196.613 51.8246C196.441 51.7457 196.286 51.6596 196.155 51.5951C196.016 51.5234 195.91 51.4588 195.82 51.4086C195.738 51.3584 195.664 51.3154 195.607 51.2867C195.566 51.2437 195.55 51.2293 195.55 51.2293Z" fill="#1A2E35"/>
<path d="M196.604 52.8214C196.604 52.8142 196.67 52.8501 196.776 52.9218C196.833 52.9577 196.899 53.0007 196.981 53.0437C197.062 53.0867 197.152 53.1441 197.25 53.1943C197.455 53.3019 197.708 53.4238 197.994 53.5385C198.281 53.6533 198.608 53.7609 198.959 53.8469C199.311 53.933 199.654 53.9903 199.965 54.0334C200.276 54.0692 200.562 54.0836 200.799 54.0836C200.922 54.0907 201.028 54.0836 201.118 54.0836C201.216 54.0836 201.298 54.0764 201.363 54.0764C201.494 54.0692 201.568 54.0692 201.576 54.0692C201.584 54.0692 201.502 54.0836 201.371 54.0979C201.306 54.1051 201.224 54.1123 201.126 54.1194C201.028 54.1266 200.922 54.1338 200.799 54.1338C200.562 54.1409 200.267 54.1266 199.957 54.0907C199.638 54.0549 199.295 53.9975 198.943 53.9115C198.591 53.8182 198.264 53.7107 197.97 53.5959C197.684 53.474 197.43 53.3521 197.226 53.2373C197.12 53.18 197.038 53.1226 196.956 53.0796C196.874 53.0294 196.809 52.9863 196.76 52.9505C196.662 52.8644 196.604 52.8214 196.604 52.8214Z" fill="#1A2E35"/>
<path d="M205.958 54.0549C205.958 54.0477 205.983 54.0549 206.032 54.0549C206.081 54.0549 206.138 54.0405 206.22 54.019C206.375 53.976 206.588 53.8971 206.817 53.7967C207.274 53.5959 207.626 53.4094 207.642 53.431C207.651 53.4453 207.315 53.6533 206.849 53.8612C206.62 53.9616 206.4 54.0405 206.236 54.0692C206.154 54.0836 206.081 54.0907 206.032 54.0836C205.983 54.0764 205.958 54.0549 205.958 54.0549Z" stroke="#235347" stroke-width="0.974869" stroke-miterlimit="10" stroke-linecap="round" stroke-linejoin="round"/>
<path d="M208.109 50.964C208.117 50.9711 207.994 51.0716 207.782 51.2222C207.569 51.3728 207.266 51.5592 206.915 51.7385C206.563 51.9178 206.22 52.0612 205.975 52.1473C205.729 52.2333 205.566 52.2764 205.566 52.2692C205.558 52.262 205.713 52.2046 205.958 52.1042C206.203 52.0038 206.531 51.8604 206.882 51.6811C207.234 51.5018 207.536 51.3154 207.757 51.1791C207.97 51.0429 208.1 50.9568 208.109 50.964Z" stroke="#235347" stroke-width="0.974869" stroke-miterlimit="10" stroke-linecap="round" stroke-linejoin="round"/>
<g opacity="0.3">
<path d="M196.048 51.5377C196.048 51.5377 198.206 52.8931 199.482 53.1799C200.757 53.4668 202.017 53.3807 203.292 53.0939C203.218 53.2014 198.901 53.1727 196.048 51.5377Z" fill="black"/>
</g>
<path d="M197.422 50.6054C197.43 50.5982 197.626 50.713 197.953 50.8779C198.28 51.0428 198.755 51.258 199.286 51.4516C199.826 51.6453 200.333 51.7743 200.701 51.8604C201.069 51.9393 201.306 51.9823 201.297 51.9895C201.297 51.9967 201.24 51.9895 201.134 51.9751C201.028 51.9608 200.872 51.9393 200.684 51.9034C200.308 51.8317 199.793 51.7098 199.253 51.5162C198.714 51.3225 198.24 51.1002 197.921 50.9209C197.757 50.8349 197.626 50.756 197.545 50.6986C197.463 50.6412 197.422 50.6126 197.422 50.6054Z" fill="#1A2E35"/>
</g>
<path opacity="0.43" d="M192.99 29.4911L173.845 64.3405L214.424 81.4907L233.569 46.6413L192.99 29.4911Z" fill="#8EB69B"/>
<path d="M178.437 14.0023V103.724C178.437 106.184 176.164 108.185 173.351 108.185H129.15C126.346 108.185 124.064 106.191 124.064 103.724V14.0023C124.064 11.5424 126.337 9.54878 129.142 9.54878H148.111L148.127 9.59898C148.602 11.0906 149.689 12.0588 150.899 12.0588H151.594C152.804 12.0588 153.892 11.0906 154.366 9.59898L154.382 9.54878H173.351C176.156 9.54878 178.437 11.5424 178.437 14.0023Z" fill="white" stroke="#1A2E35" stroke-width="0.974869" stroke-miterlimit="10"/>
<path d="M178.437 18.1832V14.0094C178.437 11.5496 176.164 9.54878 173.351 9.54878H154.382L154.366 9.59898C153.892 11.0906 152.804 12.0588 151.594 12.0588H150.899C149.689 12.0588 148.602 11.0906 148.127 9.59898L148.111 9.54878H129.142C126.337 9.54878 124.064 11.5424 124.064 14.0023V18.176H178.437V18.1832Z" fill="#DAF1DE" stroke="#235347" stroke-width="0.974869" stroke-miterlimit="10"/>
<path d="M181.896 35.4377V26.4734H180.972V11.9871C180.972 9.74239 178.903 7.92801 176.344 7.92801H126.166C123.607 7.92801 121.538 9.74239 121.538 11.9871V109.175C121.538 111.419 123.607 113.234 126.166 113.234H176.336C178.895 113.234 180.964 111.419 180.964 109.175V43.0681H181.888V37.7756H180.964V35.4305H181.896V35.4377ZM178.437 104.126C178.437 106.371 176.36 108.185 173.809 108.185H128.701C126.141 108.185 124.073 106.363 124.073 104.126V13.6078C124.073 11.3631 126.141 9.54876 128.701 9.54876H148.127L148.144 9.59896C148.618 11.0906 149.706 12.0588 150.916 12.0588H151.611C152.821 12.0588 153.908 11.0906 154.382 9.59896L154.399 9.54876H173.818C176.377 9.54876 178.445 11.3703 178.445 13.6078V104.126H178.437Z" fill="#45CE7C" stroke="#235347" stroke-width="0.974869" stroke-miterlimit="10" stroke-linecap="round" stroke-linejoin="round"/>
<path d="M175.109 8.90334H127.392C124.677 8.90334 122.47 10.8325 122.47 13.2206V107.941C122.47 110.322 124.669 112.258 127.392 112.258H175.117C177.832 112.258 180.039 110.329 180.039 107.941V13.2206C180.031 10.8396 177.832 8.90334 175.109 8.90334ZM178.437 103.868C178.437 106.249 176.229 108.185 173.515 108.185H128.994C126.28 108.185 124.072 106.249 124.072 103.868V13.8588C124.072 11.4779 126.272 9.5416 128.994 9.5416H148.127L148.143 9.5918C148.618 11.0835 149.705 12.0516 150.915 12.0516H151.61C152.82 12.0516 153.908 11.0835 154.382 9.5918L154.398 9.5416H173.523C176.237 9.5416 178.445 11.4779 178.445 13.8588V103.868H178.437Z" fill="#235347"/>
<path d="M151.839 9.88586C151.839 9.52012 151.504 9.21892 151.079 9.21892C150.662 9.21892 150.318 9.51295 150.318 9.88586C150.318 10.2516 150.654 10.5528 151.079 10.5528C151.504 10.5456 151.839 10.2516 151.839 9.88586Z" fill="white"/>
<path d="M129.199 12.9767C129.199 13.6508 128.341 13.8875 128.333 14.4038V14.4397H129.167V14.6691H128.055V14.4755C128.055 13.7584 128.913 13.6149 128.913 12.991C128.913 12.7615 128.823 12.6396 128.619 12.6396C128.414 12.6396 128.325 12.7687 128.325 12.9695V13.1703H128.063V12.991C128.063 12.654 128.243 12.4245 128.635 12.4245C129.028 12.4101 129.199 12.6325 129.199 12.9767Z" fill="#1A2E35"/>
<path d="M130.589 12.9767V13.0269C130.589 13.2564 130.483 13.4214 130.279 13.4859C130.491 13.5576 130.589 13.7226 130.589 13.9449V14.117C130.589 14.4541 130.409 14.6836 130.017 14.6836C129.633 14.6836 129.445 14.4612 129.445 14.117V13.9664H129.706V14.1385C129.706 14.3393 129.804 14.4612 130.001 14.4612C130.205 14.4612 130.295 14.3465 130.295 14.117V13.9449C130.295 13.7226 130.189 13.6222 129.976 13.615H129.821V13.3927H129.984C130.172 13.3855 130.287 13.2779 130.287 13.0843V12.9839C130.287 12.7544 130.197 12.6397 129.993 12.6397C129.788 12.6397 129.698 12.7616 129.698 12.9624V13.0771H129.437V12.9767C129.437 12.6397 129.616 12.4174 130.009 12.4174C130.41 12.4102 130.589 12.6325 130.589 12.9767Z" fill="#1A2E35"/>
<path d="M131.146 13.1417V13.4501H130.876V13.1417H131.146ZM131.146 14.3537V14.6621H130.876V14.3537H131.146Z" fill="#1A2E35"/>
<path d="M131.717 13.3425C131.799 13.2206 131.922 13.156 132.093 13.156C132.42 13.156 132.568 13.364 132.568 13.6867V14.1242C132.568 14.4613 132.379 14.6907 131.995 14.6907C131.603 14.6907 131.423 14.4684 131.423 14.1242V13.9736H131.685V14.1385C131.685 14.3393 131.783 14.4613 131.979 14.4613C132.183 14.4613 132.273 14.3393 132.273 14.1385V13.7083C132.273 13.5075 132.175 13.3855 131.979 13.3855C131.824 13.3855 131.717 13.4644 131.693 13.6222V13.6724H131.431L131.496 12.4317H132.494V12.654H131.75L131.717 13.3425Z" fill="#1A2E35"/>
<path d="M133.974 12.9695V13.0126H133.713V12.9552C133.713 12.7544 133.614 12.6397 133.41 12.6397C133.197 12.6397 133.099 12.7616 133.099 12.9982V13.5002C133.165 13.3496 133.304 13.2636 133.508 13.2636C133.835 13.2636 133.982 13.4715 133.982 13.7943V14.1313C133.982 14.4684 133.786 14.6979 133.402 14.6979C133.009 14.6979 132.821 14.4756 132.821 14.1313V12.9982C132.821 12.6468 133.001 12.4245 133.402 12.4245C133.794 12.4102 133.974 12.6325 133.974 12.9695ZM133.099 13.8014V14.1385C133.099 14.3393 133.197 14.4612 133.402 14.4612C133.606 14.4612 133.704 14.3393 133.704 14.1385V13.8014C133.704 13.6006 133.606 13.4787 133.402 13.4787C133.197 13.4859 133.099 13.6006 133.099 13.8014Z" fill="#1A2E35"/>
<path d="M161.709 13.0699H160.989V14.6405H161.709V13.0699Z" fill="#1A2E35"/>
<path d="M162.666 12.7543H161.946V14.6404H162.666V12.7543Z" fill="#1A2E35"/>
<path d="M163.622 12.5321H162.902V14.6405H163.622V12.5321Z" fill="#1A2E35"/>
<path d="M164.579 12.1376H163.859V14.6404H164.579V12.1376Z" fill="#1A2E35"/>
<path d="M173.458 14.5974H169.157V12.2882H173.458V14.5974ZM169.394 14.3894H173.221V12.5033H169.394V14.3894Z" fill="#1A2E35"/>
<path d="M172.019 12.7257H169.746V14.16H172.019V12.7257Z" fill="#1A2E35"/>
<path d="M173.842 13.1703H173.303V13.7153H173.842V13.1703Z" fill="#1A2E35"/>
<path d="M167.571 14.0954C167.547 14.0954 167.514 14.0883 167.489 14.0739C166.614 13.615 166.034 14.0381 166.009 14.0596C165.944 14.1098 165.838 14.1026 165.78 14.0452C165.723 13.9879 165.731 13.9018 165.797 13.8444C165.83 13.8229 166.565 13.2636 167.653 13.8301C167.726 13.8731 167.751 13.9592 167.71 14.0237C167.686 14.0739 167.628 14.0954 167.571 14.0954Z" fill="#1A2E35"/>
<path d="M167.899 13.6221C167.874 13.6221 167.841 13.615 167.817 13.6006C166.55 12.9408 165.699 13.5791 165.691 13.5863C165.626 13.6365 165.519 13.6293 165.462 13.5719C165.405 13.5146 165.413 13.4213 165.478 13.3711C165.487 13.364 166.517 12.5894 167.98 13.3568C168.054 13.3998 168.079 13.4859 168.038 13.5504C168.005 13.6006 167.956 13.6221 167.899 13.6221Z" fill="#1A2E35"/>
<path d="M168.192 13.0699C168.168 13.0699 168.135 13.0628 168.111 13.0484C166.508 12.2094 165.437 12.9982 165.396 13.0341C165.331 13.0843 165.224 13.0771 165.167 13.0197C165.11 12.9624 165.118 12.8691 165.184 12.8189C165.2 12.8118 166.459 11.858 168.274 12.8046C168.348 12.8476 168.372 12.9337 168.331 12.9982C168.299 13.0484 168.25 13.0699 168.192 13.0699Z" fill="#1A2E35"/>
<path d="M167.088 14.332C167.088 14.5257 166.909 14.6834 166.688 14.6834C166.467 14.6834 166.287 14.5257 166.287 14.332C166.287 14.1384 166.467 13.9806 166.688 13.9806C166.909 13.9806 167.088 14.1384 167.088 14.332Z" fill="#1A2E35"/>
<path d="M144.083 30.9223C143.833 30.9223 143.609 30.8817 143.411 30.8004C143.212 30.7192 143.053 30.5989 142.933 30.4397C142.816 30.2805 142.754 30.0888 142.748 29.8645H143.635C143.648 29.9913 143.692 30.0888 143.766 30.157C143.841 30.222 143.939 30.2545 144.059 30.2545C144.182 30.2545 144.28 30.2269 144.351 30.1716C144.423 30.1131 144.459 30.0335 144.459 29.9328C144.459 29.8483 144.429 29.7784 144.371 29.7232C144.316 29.6679 144.246 29.6224 144.161 29.5867C144.08 29.551 143.963 29.5103 143.81 29.4648C143.589 29.3966 143.409 29.3284 143.269 29.2601C143.13 29.1919 143.009 29.0911 142.909 28.9579C142.808 28.8247 142.757 28.6508 142.757 28.4364C142.757 28.1179 142.873 27.8693 143.104 27.6906C143.334 27.5086 143.635 27.4176 144.005 27.4176C144.382 27.4176 144.686 27.5086 144.917 27.6906C145.147 27.8693 145.271 28.1195 145.287 28.4412H144.385C144.379 28.3307 144.338 28.2446 144.264 28.1829C144.189 28.1179 144.093 28.0854 143.976 28.0854C143.875 28.0854 143.794 28.113 143.732 28.1683C143.671 28.2203 143.64 28.2966 143.64 28.3974C143.64 28.5078 143.692 28.594 143.796 28.6557C143.9 28.7174 144.062 28.7841 144.283 28.8556C144.504 28.9303 144.683 29.0018 144.819 29.07C144.959 29.1383 145.079 29.2374 145.18 29.3674C145.281 29.4973 145.331 29.6647 145.331 29.8694C145.331 30.0644 145.281 30.2415 145.18 30.4007C145.083 30.5599 144.94 30.6867 144.751 30.7809C144.563 30.8752 144.34 30.9223 144.083 30.9223ZM149.748 28.1683L149.012 30.8882H148.091L147.662 29.1236L147.219 30.8882H146.302L145.561 28.1683H146.395L146.78 30.1131L147.238 28.1683H148.12L148.583 30.1034L148.964 28.1683H149.748ZM149.901 29.5233C149.901 29.2439 149.953 28.9985 150.057 28.7873C150.164 28.5761 150.308 28.4136 150.49 28.2999C150.672 28.1861 150.875 28.1293 151.1 28.1293C151.291 28.1293 151.459 28.1683 151.602 28.2463C151.748 28.3242 151.86 28.4266 151.938 28.5533V28.1683H152.772V30.8882H151.938V30.5031C151.857 30.6298 151.743 30.7322 151.597 30.8102C151.454 30.8882 151.286 30.9271 151.095 30.9271C150.874 30.9271 150.672 30.8703 150.49 30.7565C150.308 30.6396 150.164 30.4755 150.057 30.2642C149.953 30.0498 149.901 29.8028 149.901 29.5233ZM151.938 29.5282C151.938 29.3202 151.88 29.1561 151.763 29.0359C151.649 28.9157 151.509 28.8556 151.343 28.8556C151.178 28.8556 151.036 28.9157 150.919 29.0359C150.806 29.1529 150.749 29.3154 150.749 29.5233C150.749 29.7313 150.806 29.897 150.919 30.0205C151.036 30.1408 151.178 30.2009 151.343 30.2009C151.509 30.2009 151.649 30.1408 151.763 30.0205C151.88 29.9003 151.938 29.7362 151.938 29.5282ZM154.739 28.8604H154.291V30.8882H153.457V28.8604H153.155V28.1683H153.457V28.0903C153.457 27.7556 153.553 27.5021 153.745 27.3299C153.937 27.1544 154.218 27.0667 154.588 27.0667C154.65 27.0667 154.695 27.0683 154.725 27.0715V27.7783C154.565 27.7686 154.453 27.7913 154.388 27.8466C154.323 27.9018 154.291 28.0009 154.291 28.1439V28.1683H154.739V28.8604ZM156.369 30.9271C156.103 30.9271 155.862 30.8703 155.648 30.7565C155.436 30.6428 155.269 30.4803 155.146 30.2691C155.025 30.0579 154.965 29.8109 154.965 29.5282C154.965 29.2487 155.027 29.0034 155.151 28.7922C155.274 28.5777 155.443 28.4136 155.657 28.2999C155.872 28.1861 156.112 28.1293 156.379 28.1293C156.645 28.1293 156.886 28.1861 157.1 28.2999C157.315 28.4136 157.484 28.5777 157.607 28.7922C157.731 29.0034 157.792 29.2487 157.792 29.5282C157.792 29.8077 157.729 30.0546 157.602 30.2691C157.479 30.4803 157.308 30.6428 157.09 30.7565C156.876 30.8703 156.636 30.9271 156.369 30.9271ZM156.369 30.2057C156.528 30.2057 156.663 30.1473 156.774 30.0303C156.887 29.9133 156.944 29.7459 156.944 29.5282C156.944 29.3105 156.889 29.1431 156.779 29.0262C156.671 28.9092 156.538 28.8507 156.379 28.8507C156.216 28.8507 156.082 28.9092 155.974 29.0262C155.867 29.1399 155.813 29.3072 155.813 29.5282C155.813 29.7459 155.865 29.9133 155.969 30.0303C156.077 30.1473 156.21 30.2057 156.369 30.2057ZM159.751 30.1814V30.8882H159.326C159.024 30.8882 158.789 30.815 158.62 30.6688C158.451 30.5193 158.366 30.2772 158.366 29.9425V28.8604H158.035V28.1683H158.366V27.5054H159.2V28.1683H159.746V28.8604H159.2V29.9523C159.2 30.0335 159.219 30.092 159.258 30.1278C159.297 30.1635 159.362 30.1814 159.453 30.1814H159.751ZM161.453 30.9271C161.186 30.9271 160.946 30.8703 160.731 30.7565C160.52 30.6428 160.353 30.4803 160.229 30.2691C160.109 30.0579 160.049 29.8109 160.049 29.5282C160.049 29.2487 160.111 29.0034 160.234 28.7922C160.358 28.5777 160.527 28.4136 160.741 28.2999C160.956 28.1861 161.196 28.1293 161.463 28.1293C161.729 28.1293 161.97 28.1861 162.184 28.2999C162.399 28.4136 162.567 28.5777 162.691 28.7922C162.814 29.0034 162.876 29.2487 162.876 29.5282C162.876 29.8077 162.813 30.0546 162.686 30.2691C162.563 30.4803 162.392 30.6428 162.174 30.7565C161.96 30.8703 161.719 30.9271 161.453 30.9271ZM161.453 30.2057C161.612 30.2057 161.747 30.1473 161.857 30.0303C161.971 29.9133 162.028 29.7459 162.028 29.5282C162.028 29.3105 161.973 29.1431 161.862 29.0262C161.755 28.9092 161.622 28.8507 161.463 28.8507C161.3 28.8507 161.165 28.9092 161.058 29.0262C160.951 29.1399 160.897 29.3072 160.897 29.5282C160.897 29.7459 160.949 29.9133 161.053 30.0303C161.16 30.1473 161.294 30.2057 161.453 30.2057Z" fill="#235347"/>
<path d="M158.274 94.7815H143.475C142.412 94.7815 141.554 94.0285 141.554 93.0962V91.375C141.554 90.4428 142.412 89.6898 143.475 89.6898H158.274C159.337 89.6898 160.196 90.4428 160.196 91.375V93.0962C160.196 94.0213 159.337 94.7815 158.274 94.7815Z" fill="#235347"/>
<path d="M150.019 94.7465C149.704 94.7465 149.418 94.6733 149.161 94.5271C148.905 94.3776 148.701 94.1713 148.552 93.9081C148.406 93.6416 148.333 93.341 148.333 93.0063C148.333 92.6716 148.406 92.3727 148.552 92.1094C148.701 91.843 148.905 91.6366 149.161 91.4904C149.418 91.3409 149.704 91.2662 150.019 91.2662C150.338 91.2662 150.625 91.3409 150.882 91.4904C151.139 91.6366 151.34 91.843 151.486 92.1094C151.633 92.3727 151.706 92.6716 151.706 93.0063C151.706 93.341 151.633 93.6416 151.486 93.9081C151.34 94.1713 151.139 94.3776 150.882 94.5271C150.625 94.6733 150.338 94.7465 150.019 94.7465ZM150.019 94.4491C150.273 94.4491 150.5 94.3906 150.702 94.2737C150.903 94.1567 151.062 93.9893 151.179 93.7716C151.296 93.5506 151.355 93.2955 151.355 93.0063C151.355 92.7171 151.296 92.4636 151.179 92.2459C151.062 92.0282 150.903 91.8608 150.702 91.7439C150.5 91.6269 150.273 91.5684 150.019 91.5684C149.766 91.5684 149.538 91.6269 149.337 91.7439C149.135 91.8608 148.976 92.0282 148.859 92.2459C148.742 92.4636 148.684 92.7171 148.684 93.0063C148.684 93.2955 148.742 93.5506 148.859 93.7716C148.976 93.9893 149.135 94.1567 149.337 94.2737C149.538 94.3906 149.766 94.4491 150.019 94.4491ZM154.148 94.7123L152.671 93.1379V94.7123H152.33V91.3052H152.671V92.8991L154.148 91.3052H154.582L152.988 93.0063L154.597 94.7123H154.148Z" fill="white"/>
<path d="M167.634 69.6764C175.06 61.6494 173.661 49.8619 164.51 43.3483C155.358 36.8347 141.919 38.0616 134.492 46.0886C127.066 54.1156 128.465 65.903 137.617 72.4166C146.768 78.9302 160.207 77.7033 167.634 69.6764Z" fill="#45CE7C"/>
<mask id="mask2_1014_34730" style="mask-type:luminance" maskUnits="userSpaceOnUse" x="129" y="39" width="44" height="38">
<path d="M167.634 69.6765C175.061 61.6494 173.662 49.8618 164.51 43.3481C155.358 36.8345 141.919 38.0614 134.493 46.0884C127.066 54.1155 128.465 65.9031 137.617 72.4167C146.769 78.9304 160.208 77.7035 167.634 69.6765Z" fill="white"/>
</mask>
<g mask="url(#mask2_1014_34730)">
<path d="M145.135 61.5131C145.135 61.5131 146.435 64.4176 146.084 66.4901C145.732 68.5627 144.432 69.7029 141.587 70.9508C138.749 72.1986 134.252 73.9556 133.778 75.2034C133.304 76.4513 133.778 82.2745 133.778 82.2745H168.552C168.552 82.2745 167.726 76.2433 165.952 74.1707C164.178 72.0982 157.081 70.4344 155.069 69.2941C153.058 68.1539 153.884 61.6207 153.884 61.6207C153.884 61.6207 148.561 63.0693 145.135 61.5131Z" fill="#F9EDCF" stroke="#235347" stroke-width="0.974869" stroke-miterlimit="10"/>
<path d="M141.031 71.1874C140.385 71.4671 139.682 71.7683 138.97 72.0767C140.205 75.354 139.068 79.5422 138.014 82.2673H162.641C162.289 81.6004 161.995 80.8402 161.856 79.9868C161.455 77.5198 161.725 73.7907 161.905 71.8687C161.071 71.5388 160.196 71.2305 159.354 70.9364C158.119 73.4966 155.037 78.4665 149.861 77.8569C144.751 77.2473 142.085 73.2528 141.031 71.1874Z" fill="#24663F" stroke="#235347" stroke-width="0.974869" stroke-miterlimit="10" stroke-linecap="round" stroke-linejoin="round"/>
<path d="M139.224 63.1697C139.224 63.1697 139.935 64.7259 142.535 65.0343C145.135 65.3427 143.86 62.0008 151.611 61.7713C157.065 61.6063 151.635 65.5506 152.821 65.7586C154.007 65.9666 156.958 65.6582 158.618 62.2302C160.278 58.8095 160.629 50.0961 157.195 47.2921C153.77 44.4881 143.713 44.5956 142.175 47.0841C140.638 49.5726 141.701 53.9329 140.287 56.3138C138.864 58.7091 138.275 61.9219 139.224 63.1697Z" fill="#15332A" stroke="#235347" stroke-width="0.974869" stroke-miterlimit="10"/>
<path d="M142.535 55.1807C142.535 55.1807 141.587 53.0006 141.235 54.5568C140.884 56.113 141.235 57.6692 142.061 58.2931C142.887 58.9171 143.361 58.8095 143.361 58.8095L142.535 55.1807Z" fill="white" stroke="#1A2E35" stroke-width="0.974869" stroke-miterlimit="10" stroke-linecap="round" stroke-linejoin="round"/>
<path d="M146.272 44.0721C146.272 44.0721 144.269 44.5096 142.936 47.7224C141.604 50.9352 142.642 59.3903 143.476 60.2653C144.31 61.1402 147.082 64.7904 149.747 64.9339C151.44 65.0271 155.708 61.6063 156.37 59.8493C157.032 58.0923 157.269 50.2037 156.771 48.3033C156.272 46.41 152.102 42.0211 146.272 44.0721Z" fill="#F9EDCF" stroke="#235347" stroke-width="0.974869" stroke-miterlimit="10"/>
<path d="M147.491 54.4563C147.491 54.7216 147.246 54.9368 146.943 54.9368C146.641 54.9368 146.396 54.7216 146.396 54.4563C146.396 54.1909 146.641 53.9758 146.943 53.9758C147.246 53.9758 147.491 54.1909 147.491 54.4563Z" fill="#235347"/>
<path d="M152.928 54.4563C152.928 54.7216 152.682 54.9368 152.38 54.9368C152.077 54.9368 151.832 54.7216 151.832 54.4563C151.832 54.1909 152.077 53.9758 152.38 53.9758C152.682 53.9758 152.928 54.1909 152.928 54.4563Z" fill="#235347"/>
<path d="M147.63 59.383C147.63 59.383 149.396 60.2579 151.947 59.383" stroke="#235347" stroke-width="0.974869" stroke-miterlimit="10" stroke-linecap="round" stroke-linejoin="round"/>
<path d="M150.835 56.1846C150.835 56.1846 151.611 57.0595 150.835 57.54C150.058 58.0276 149.175 57.9272 148.512 57.6404C147.85 57.3463 148.627 56.0913 148.627 56.0913" stroke="#235347" stroke-width="0.974869" stroke-miterlimit="10" stroke-linecap="round" stroke-linejoin="round"/>
<path d="M147.899 52.2547C147.899 52.2547 146.886 51.1861 145.209 51.6809C143.525 52.1758 143.443 53.4021 143.443 53.4021C143.443 53.4021 144.465 52.2618 145.381 52.2475C146.289 52.2331 147.589 53.1296 147.899 52.2547Z" fill="#235347"/>
<path d="M150.941 52.3694C150.941 52.3694 151.882 51.2578 153.599 51.6666C155.308 52.0825 155.471 53.3017 155.471 53.3017C155.471 53.3017 154.375 52.2116 153.468 52.2403C152.56 52.269 151.309 53.2228 150.941 52.3694Z" fill="#235347"/>
<path d="M147.972 46.6754C147.972 46.6754 145.013 45.9511 143.835 47.6077C142.658 49.2643 143.246 52.4843 141.472 55.3887C139.698 58.2932 140.761 62.7538 140.998 63.3777C141.235 64.0016 139.461 64.8335 138.512 61.7211C137.564 58.6087 140.287 55.6039 140.524 52.3839C140.761 49.1711 139.935 45.6427 143.598 43.771C147.261 41.8992 147.972 43.0467 147.972 43.0467V46.6754Z" fill="#15332A" stroke="#235347" stroke-width="0.974869" stroke-miterlimit="10"/>
<path d="M162.518 51.552C161.806 49.6874 161.929 46.2594 159.092 43.4626C157.309 41.7056 153.908 40.6872 151.12 40.6299C150.719 40.5581 150.261 40.5223 149.755 40.5581C145.258 40.8665 142.42 42.9462 143.246 44.5024C144.072 46.0586 147.98 46.6826 147.98 46.6826L148.569 46.8905C148.544 46.6969 148.544 46.5248 148.553 46.3598C149.19 46.1017 150.278 45.9296 151.406 46.9909C153.18 48.6475 154.562 51.4444 154.48 54.0476C154.366 57.9919 156.606 59.4406 156.606 61.1043C156.606 62.7681 153.295 64.8407 152.584 65.357C151.799 65.9379 155.56 66.2176 155.813 66.2032C159.623 65.9953 162.158 63.8152 163.752 60.9035C165.625 57.4612 163.744 54.7648 162.518 51.552Z" fill="#15332A" stroke="#235347" stroke-width="0.974869" stroke-miterlimit="10"/>
</g>
<path d="M168.895 72.0408C171.627 72.0408 173.842 70.0983 173.842 67.702C173.842 65.3058 171.627 63.3633 168.895 63.3633C166.163 63.3633 163.948 65.3058 163.948 67.702C163.948 70.0983 166.163 72.0408 168.895 72.0408Z" fill="#235347"/>
<path d="M166.393 68.204L168.428 69.6096L171.405 65.8016" stroke="white" stroke-width="0.974869" stroke-miterlimit="10" stroke-linecap="round" stroke-linejoin="round"/>
<path d="M76.3637 74.9954C79.0956 74.9954 81.3103 73.0529 81.3103 70.6567C81.3103 68.2604 79.0956 66.3179 76.3637 66.3179C73.6317 66.3179 71.417 68.2604 71.417 70.6567C71.417 73.0529 73.6317 74.9954 76.3637 74.9954Z" fill="#45CE7C"/>
<path d="M73.7964 69.9467C73.4857 69.7674 73.4039 69.5164 73.5429 69.2797C73.7882 68.8494 74.3769 68.9499 74.7448 69.1291C75.121 69.2869 75.4971 69.4662 75.9222 69.6383C76.1348 69.165 76.3556 68.7634 76.5763 68.3474C76.7072 68.161 76.8952 68.0319 77.1896 68.0247C77.6147 68.0032 77.9418 68.2972 77.86 68.62C77.8437 68.706 77.7864 68.7849 77.7537 68.8638C77.5166 69.3371 77.2795 69.7746 77.1078 70.2407C77.7456 70.5563 78.2934 70.8575 78.8739 71.0941C79.1928 71.2519 79.3072 71.4814 79.2009 71.7252C79.0619 71.9905 78.7512 72.1411 78.3833 72.0766C78.2361 72.0551 78.0726 71.9977 77.9336 71.926C77.5493 71.7467 77.165 71.5603 76.7235 71.3666C76.6745 71.5172 76.6172 71.6535 76.5845 71.7969C76.4537 72.1411 76.3474 72.4997 76.2084 72.8655C76.1185 73.1021 75.9141 73.2455 75.6115 73.2814C75.1864 73.3316 74.8593 73.0949 74.8593 72.7579C74.8838 72.6718 74.9002 72.5643 74.9329 72.4925C75.1373 71.9117 75.3417 71.3308 75.5461 70.7355C74.9165 70.4559 74.3115 70.2479 73.7964 69.9467Z" fill="white"/>
<path d="M231.992 51.5447C234.724 51.5447 236.938 49.6022 236.938 47.206C236.938 44.8098 234.724 42.8673 231.992 42.8673C229.26 42.8673 227.045 44.8098 227.045 47.206C227.045 49.6022 229.26 51.5447 231.992 51.5447Z" fill="#45CE7C"/>
<path d="M232.81 47.2777C233.014 47.8801 233.218 48.4538 233.423 49.0347C233.456 49.1064 233.472 49.214 233.496 49.3001C233.496 49.6371 233.169 49.8666 232.744 49.8236C232.442 49.7877 232.229 49.6443 232.147 49.4076C232.017 49.0491 231.91 48.6833 231.771 48.3391C231.73 48.2028 231.681 48.0666 231.632 47.9088C231.191 48.1024 230.806 48.2889 230.422 48.4682C230.283 48.5399 230.12 48.5901 229.972 48.6188C229.605 48.6833 229.294 48.5327 229.155 48.2674C229.049 48.0235 229.163 47.7941 229.482 47.6363C230.062 47.3996 230.618 47.0984 231.248 46.7829C231.076 46.3167 230.839 45.8793 230.602 45.406C230.577 45.3271 230.512 45.2482 230.496 45.1621C230.414 44.8394 230.741 44.5454 231.166 44.5669C231.461 44.5813 231.649 44.7032 231.788 44.8896C232.008 45.3056 232.229 45.7072 232.442 46.1805C232.867 46.0012 233.243 45.8291 233.619 45.6713C233.987 45.492 234.568 45.3845 234.821 45.8219C234.96 46.0586 234.878 46.3096 234.568 46.4889C234.036 46.7972 233.439 47.0052 232.81 47.2777Z" fill="white"/>
</g>
<defs>
<clipPath id="clip0_1014_34730">
<rect x="0.5" width="312" height="128" rx="8" fill="white"/>
</clipPath>
</defs>
</svg>
