<svg width="14" height="12" viewBox="0 0 14 12" fill="none" xmlns="http://www.w3.org/2000/svg">
<path d="M13.0784 5.61511L11.9934 4.37261L12.145 2.72761C12.1742 2.43594 11.9759 2.16761 11.6959 2.10344L10.0859 1.74178L9.24586 0.318442C9.09419 0.0676089 8.78503 -0.037391 8.51086 0.0792756L7.00003 0.726776L5.48919 0.0792756C5.22086 -0.037391 4.90586 0.0676089 4.76003 0.318442L3.91419 1.73594L2.31003 2.09761C2.02419 2.16178 1.82586 2.42428 1.85503 2.71594L2.00669 4.36678L0.915859 5.61511C0.723359 5.83678 0.723359 6.16344 0.915859 6.38511L2.00669 7.62761L1.85503 9.27844C1.82586 9.57011 2.02419 9.83844 2.30419 9.90261L3.91419 10.2701L4.75419 11.6876C4.90586 11.9384 5.22086 12.0434 5.48919 11.9268L7.00003 11.2676L8.51086 11.9151C8.77919 12.0318 9.09419 11.9268 9.24003 11.6759L10.08 10.2584L11.69 9.89094C11.9759 9.82678 12.1684 9.55844 12.1392 9.26678L11.9875 7.62178L13.0725 6.37928C13.1676 6.27507 13.2208 6.13938 13.2219 5.99831C13.223 5.85724 13.1718 5.72076 13.0784 5.61511ZM5.96753 7.65094L4.73086 6.41428C4.67685 6.36027 4.63401 6.29615 4.60479 6.22559C4.57556 6.15503 4.56051 6.0794 4.56051 6.00303C4.56051 5.92665 4.57556 5.85102 4.60479 5.78046C4.63401 5.7099 4.67685 5.64578 4.73086 5.59178C4.78486 5.53777 4.84898 5.49493 4.91954 5.4657C4.9901 5.43647 5.06573 5.42143 5.14211 5.42143C5.21848 5.42143 5.29411 5.43647 5.36468 5.4657C5.43524 5.49493 5.49935 5.53777 5.55336 5.59178L6.37586 6.41428L8.44086 4.34928C8.49487 4.29527 8.55898 4.25243 8.62954 4.2232C8.7001 4.19397 8.77573 4.17893 8.85211 4.17893C8.92848 4.17893 9.00411 4.19397 9.07468 4.2232C9.14524 4.25243 9.20935 4.29527 9.26336 4.34928C9.31737 4.40328 9.3602 4.4674 9.38943 4.53796C9.41866 4.60852 9.4337 4.68415 9.4337 4.76053C9.4337 4.8369 9.41866 4.91253 9.38943 4.98309C9.3602 5.05365 9.31737 5.11777 9.26336 5.17178L6.79003 7.64511C6.56836 7.87844 6.19503 7.87844 5.96753 7.65094Z" fill="#27AE60"/>
</svg>
