<svg width="361" height="174" viewBox="0 0 361 174" fill="none" xmlns="http://www.w3.org/2000/svg">
<g clip-path="url(#clip0_3327_7506)">
<g opacity="0.7">
<path d="M310.493 67.5148C310.493 67.5148 289.873 28.0951 248.373 18.9813C206.874 9.86749 186.347 31.9901 158.578 37.7366C130.819 43.4735 116.652 10.7117 83.9718 36.24C51.292 61.7683 40.1419 125.853 70.7142 144.186C101.286 162.519 131.998 163.277 172.04 158.087C212.082 152.887 233.797 165.282 262.216 165.426C290.644 165.551 331.029 123.301 310.493 67.5148Z" fill="#DAF1DE"/>
<path opacity="0.7" d="M310.493 67.5148C310.493 67.5148 289.873 28.0951 248.373 18.9813C206.874 9.86749 186.347 31.9901 158.578 37.7366C130.819 43.4735 116.652 10.7117 83.9718 36.24C51.292 61.7683 40.1419 125.853 70.7142 144.186C101.286 162.519 131.998 163.277 172.04 158.087C212.082 152.887 233.797 165.282 262.216 165.426C290.644 165.551 331.029 123.301 310.493 67.5148Z" fill="#DAF1DE"/>
</g>
<path d="M291.238 158.183C291.238 158.231 242.776 158.279 183.014 158.279C123.235 158.279 74.7812 158.24 74.7812 158.183C74.7812 158.135 123.225 158.087 183.014 158.087C242.776 158.087 291.238 158.125 291.238 158.183Z" stroke="#235347" stroke-width="0.959349" stroke-miterlimit="10" stroke-linecap="round" stroke-linejoin="round"/>
<path d="M205.872 23.1257V143.15C205.872 146.44 203.291 149.117 200.097 149.117H149.907C146.723 149.117 144.133 146.45 144.133 143.15V23.1257C144.133 19.8351 146.714 17.1681 149.898 17.1681H171.437L171.456 17.2353C171.994 19.2307 173.229 20.5258 174.603 20.5258H175.392C176.766 20.5258 178.001 19.2307 178.539 17.2353L178.558 17.1681H200.097C203.291 17.1681 205.872 19.8351 205.872 23.1257Z" fill="white" stroke="#1A2E35" stroke-width="0.959349" stroke-miterlimit="10"/>
<path d="M205.872 28.7187V23.1353C205.872 19.8447 203.291 17.1681 200.097 17.1681H178.558L178.539 17.2353C178.001 19.2307 176.766 20.5258 175.392 20.5258H174.603C173.229 20.5258 171.994 19.2307 171.456 17.2353L171.437 17.1681H149.898C146.714 17.1681 144.133 19.8351 144.133 23.1257V28.7091H205.872V28.7187Z" fill="#DAF1DE" stroke="#235347" stroke-width="0.959349" stroke-miterlimit="10"/>
<path d="M209.799 51.791V39.8088H208.75V20.4299C208.75 17.4271 206.401 15 203.495 15H146.528C143.622 15 141.273 17.4271 141.273 20.4299V150.441C141.273 153.444 143.622 155.871 146.528 155.871H203.495C206.401 155.871 208.75 153.444 208.75 150.441V62.0081H209.799V54.9281H208.75V51.791H209.799ZM205.872 143.678C205.872 146.68 203.514 149.107 200.617 149.107H149.397C146.491 149.107 144.142 146.671 144.142 143.678V22.598C144.142 19.5953 146.491 17.1681 149.397 17.1681H171.456L171.474 17.2353C172.013 19.2307 173.248 20.5258 174.622 20.5258H175.411C176.785 20.5258 178.02 19.2307 178.558 17.2353L178.577 17.1681H200.626C203.532 17.1681 205.881 19.6049 205.881 22.598V143.678H205.872Z" fill="#45CE7C" stroke="#235347" stroke-width="0.959349" stroke-miterlimit="10" stroke-linecap="round" stroke-linejoin="round"/>
<path d="M202.102 16.3047H147.911C144.829 16.3047 142.322 18.8853 142.322 22.08V148.791C142.322 151.976 144.82 154.566 147.911 154.566H202.102C205.184 154.566 207.691 151.985 207.691 148.791V22.08C207.691 18.8853 205.184 16.3047 202.102 16.3047ZM205.871 143.342C205.871 146.527 203.365 149.117 200.282 149.117H149.731C146.649 149.117 144.142 146.527 144.142 143.342V22.9338C144.142 19.7488 146.639 17.1585 149.731 17.1585H171.456L171.474 17.2257C172.013 19.2211 173.247 20.5162 174.621 20.5162H175.411C176.785 20.5162 178.019 19.2211 178.558 17.2257L178.576 17.1585H200.292C203.374 17.1585 205.881 19.7488 205.881 22.9338V143.342H205.871Z" fill="#235347"/>
<path d="M175.68 17.6191C175.68 17.1298 175.299 16.7269 174.817 16.7269C174.343 16.7269 173.953 17.1202 173.953 17.6191C173.953 18.1083 174.334 18.5113 174.817 18.5113C175.29 18.5017 175.68 18.1083 175.68 17.6191Z" fill="white"/>
<path d="M149.972 21.7539C149.972 22.6557 148.997 22.9723 148.988 23.663V23.711H149.934V24.018H148.672V23.759C148.672 22.7996 149.647 22.6078 149.647 21.7731C149.647 21.4661 149.545 21.303 149.312 21.303C149.08 21.303 148.978 21.4757 148.978 21.7443V22.013H148.681V21.7731C148.681 21.3222 148.885 21.0152 149.331 21.0152C149.767 20.996 149.972 21.2934 149.972 21.7539Z" fill="#1A2E35"/>
<path d="M151.549 21.7443V21.821C151.549 22.128 151.429 22.3487 151.196 22.435C151.438 22.531 151.549 22.7516 151.549 23.049V23.2793C151.549 23.7302 151.345 24.0371 150.899 24.0371C150.463 24.0371 150.25 23.7397 150.25 23.2793V23.0778H150.547V23.308C150.547 23.5767 150.658 23.7397 150.881 23.7397C151.113 23.7397 151.215 23.5862 151.215 23.2793V23.049C151.215 22.7516 151.094 22.6173 150.853 22.6077H150.677V22.3103H150.862C151.076 22.3007 151.206 22.1568 151.206 21.8978V21.7635C151.206 21.4565 151.104 21.303 150.872 21.303C150.639 21.303 150.537 21.4661 150.537 21.7347V21.8882H150.24V21.7539C150.24 21.303 150.444 21.0056 150.89 21.0056C151.345 20.996 151.549 21.2934 151.549 21.7443Z" fill="#1A2E35"/>
<path d="M152.172 21.9746V22.3871H151.865V21.9746H152.172ZM152.172 23.5959V24.0084H151.865V23.5959H152.172Z" fill="#1A2E35"/>
<path d="M152.823 22.2432C152.915 22.0801 153.055 21.9938 153.25 21.9938C153.621 21.9938 153.788 22.272 153.788 22.7037V23.2889C153.788 23.7398 153.575 24.0468 153.138 24.0468C152.693 24.0468 152.488 23.7494 152.488 23.2889V23.0874H152.785V23.3081C152.785 23.5767 152.897 23.7398 153.12 23.7398C153.342 23.7398 153.454 23.5767 153.454 23.3081V22.7325C153.454 22.4638 153.342 22.3007 153.12 22.3007C152.943 22.3007 152.823 22.4063 152.795 22.6173V22.6845H152.498L152.572 21.0248H153.705V21.3222H152.86L152.823 22.2432Z" fill="#1A2E35"/>
<path d="M155.393 21.7443V21.8018H155.096V21.7251C155.096 21.4565 154.985 21.303 154.752 21.303C154.511 21.303 154.4 21.4661 154.4 21.7826V22.4542C154.474 22.2527 154.632 22.1376 154.864 22.1376C155.235 22.1376 155.402 22.4158 155.402 22.8475V23.2984C155.402 23.7493 155.18 24.0563 154.743 24.0563C154.298 24.0563 154.084 23.7589 154.084 23.2984V21.7826C154.084 21.3126 154.288 21.0152 154.743 21.0152C155.18 20.996 155.393 21.2934 155.393 21.7443ZM154.4 22.8571V23.308C154.4 23.5766 154.511 23.7397 154.743 23.7397C154.975 23.7397 155.087 23.5766 155.087 23.308V22.8571C155.087 22.5885 154.975 22.4254 154.743 22.4254C154.502 22.4254 154.4 22.5885 154.4 22.8571Z" fill="#1A2E35"/>
<path d="M186.885 21.8786H186.068V23.9796H186.885V21.8786Z" fill="#1A2E35"/>
<path d="M187.971 21.4565H187.154V23.9795H187.971V21.4565Z" fill="#1A2E35"/>
<path d="M189.057 21.1591H188.24V23.9796H189.057V21.1591Z" fill="#1A2E35"/>
<path d="M190.145 20.6314H189.328V23.9796H190.145V20.6314Z" fill="#1A2E35"/>
<path d="M200.217 23.922H195.334V20.8329H200.217V23.922ZM195.603 23.6437H199.948V21.1207H195.603V23.6437Z" fill="#1A2E35"/>
<path d="M198.593 21.4181H196.012V23.3368H198.593V21.4181Z" fill="#1A2E35"/>
<path d="M200.664 22.0129H200.051V22.742H200.664V22.0129Z" fill="#1A2E35"/>
<path d="M193.542 23.2505C193.514 23.2505 193.477 23.2409 193.449 23.2217C192.455 22.6077 191.796 23.1737 191.768 23.2025C191.694 23.2697 191.573 23.2601 191.508 23.1833C191.443 23.1066 191.453 22.9915 191.527 22.9147C191.564 22.8859 192.4 22.1376 193.634 22.8955C193.718 22.9531 193.746 23.0682 193.699 23.1545C193.662 23.2217 193.597 23.2505 193.542 23.2505Z" fill="#1A2E35"/>
<path d="M193.904 22.6173C193.876 22.6173 193.839 22.6077 193.811 22.5885C192.372 21.7059 191.406 22.5597 191.397 22.5693C191.323 22.6365 191.202 22.6269 191.137 22.5502C191.072 22.4734 191.082 22.3487 191.156 22.2815C191.165 22.2719 192.335 21.2358 193.997 22.2623C194.08 22.3199 194.108 22.435 194.062 22.5214C194.034 22.5789 193.969 22.6173 193.904 22.6173Z" fill="#1A2E35"/>
<path d="M194.238 21.8786C194.21 21.8786 194.173 21.869 194.145 21.8498C192.326 20.7274 191.11 21.7827 191.063 21.8306C190.989 21.8978 190.868 21.8882 190.803 21.8114C190.738 21.7347 190.748 21.61 190.822 21.5428C190.84 21.5332 192.27 20.2573 194.331 21.5236C194.415 21.5812 194.443 21.6963 194.396 21.7827C194.368 21.8498 194.303 21.8786 194.238 21.8786Z" fill="#1A2E35"/>
<path d="M192.994 23.567C192.994 23.826 192.79 24.0371 192.539 24.0371C192.288 24.0371 192.084 23.826 192.084 23.567C192.084 23.308 192.288 23.0969 192.539 23.0969C192.78 23.0969 192.994 23.308 192.994 23.567Z" fill="#1A2E35"/>
<path d="M184.008 74.6427C184.008 76.4463 182.597 77.9141 180.852 77.9141C179.106 77.9141 177.695 76.4463 177.695 74.6427C177.695 72.8392 179.106 71.3714 180.852 71.3714C182.597 71.3714 184.008 72.8392 184.008 74.6427Z" fill="#FF735D"/>
<path d="M171.474 78.1252C173.33 78.1252 174.835 76.5661 174.835 74.6428C174.835 72.7195 173.33 71.1603 171.474 71.1603C169.618 71.1603 168.113 72.7195 168.113 74.6428C168.113 76.5661 169.618 78.1252 171.474 78.1252Z" fill="#FF735D"/>
<path d="M164.27 72.1772C166.239 72.1772 167.835 70.5236 167.835 68.4837C167.835 66.4439 166.239 64.7902 164.27 64.7902C162.301 64.7902 160.705 66.4439 160.705 68.4837C160.705 70.5236 162.301 72.1772 164.27 72.1772Z" fill="#FF735D"/>
<path d="M162.812 62.8715C164.873 62.8715 166.544 61.1449 166.544 59.0149C166.544 56.885 164.873 55.1583 162.812 55.1583C160.751 55.1583 159.08 56.885 159.08 59.0149C159.08 61.1449 160.751 62.8715 162.812 62.8715Z" fill="#FF735D"/>
<path d="M167.37 54.7075C169.498 54.7075 171.223 52.9207 171.223 50.7166C171.223 48.5125 169.498 46.7257 167.37 46.7257C165.243 46.7257 163.518 48.5125 163.518 50.7166C163.518 52.9207 165.243 54.7075 167.37 54.7075Z" fill="#FF735D"/>
<path d="M176.153 51.7911C178.471 51.7911 180.35 49.8454 180.35 47.4452C180.35 45.0451 178.471 43.0994 176.153 43.0994C173.836 43.0994 171.957 45.0451 171.957 47.4452C171.957 49.8454 173.836 51.7911 176.153 51.7911Z" fill="#FF735D"/>
<path d="M190.86 68.407C190.86 70.153 189.495 71.5632 187.815 71.5632C186.134 71.5632 184.77 70.153 184.77 68.407C184.77 66.661 186.134 65.2507 187.815 65.2507C189.495 65.2507 190.86 66.661 190.86 68.407Z" fill="#FF735D"/>
<path d="M189.449 61.8355C191.013 61.8355 192.28 60.5255 192.28 58.9095C192.28 57.2935 191.013 55.9835 189.449 55.9835C187.885 55.9835 186.617 57.2935 186.617 58.9095C186.617 60.5255 187.885 61.8355 189.449 61.8355Z" fill="#FF735D"/>
<path d="M184.741 53.2877C186.167 53.2877 187.322 52.0893 187.322 50.6111C187.322 49.1329 186.167 47.9345 184.741 47.9345C183.316 47.9345 182.16 49.1329 182.16 50.6111C182.16 52.0893 183.316 53.2877 184.741 53.2877Z" fill="#FF735D"/>
<path d="M184.008 74.6427C184.008 76.4463 182.597 77.9141 180.852 77.9141C179.106 77.9141 177.695 76.4463 177.695 74.6427C177.695 72.8392 179.106 71.3714 180.852 71.3714C182.597 71.3714 184.008 72.8392 184.008 74.6427Z" fill="#87C195"/>
<path d="M171.474 78.1252C173.33 78.1252 174.835 76.5661 174.835 74.6428C174.835 72.7195 173.33 71.1603 171.474 71.1603C169.618 71.1603 168.113 72.7195 168.113 74.6428C168.113 76.5661 169.618 78.1252 171.474 78.1252Z" fill="#4AAF73"/>
<path d="M164.27 72.1772C166.239 72.1772 167.835 70.5236 167.835 68.4837C167.835 66.4439 166.239 64.7902 164.27 64.7902C162.301 64.7902 160.705 66.4439 160.705 68.4837C160.705 70.5236 162.301 72.1772 164.27 72.1772Z" fill="#288C50"/>
<path d="M162.812 62.8715C164.873 62.8715 166.544 61.1449 166.544 59.0149C166.544 56.885 164.873 55.1583 162.812 55.1583C160.751 55.1583 159.08 56.885 159.08 59.0149C159.08 61.1449 160.751 62.8715 162.812 62.8715Z" fill="#175B32"/>
<path d="M167.37 54.7075C169.498 54.7075 171.223 52.9207 171.223 50.7166C171.223 48.5125 169.498 46.7257 167.37 46.7257C165.243 46.7257 163.518 48.5125 163.518 50.7166C163.518 52.9207 165.243 54.7075 167.37 54.7075Z" fill="#235347"/>
<path d="M176.153 51.7911C178.471 51.7911 180.35 49.8454 180.35 47.4452C180.35 45.0451 178.471 43.0994 176.153 43.0994C173.836 43.0994 171.957 45.0451 171.957 47.4452C171.957 49.8454 173.836 51.7911 176.153 51.7911Z" fill="#163832"/>
<path d="M190.86 68.407C190.86 70.153 189.495 71.5632 187.815 71.5632C186.134 71.5632 184.77 70.153 184.77 68.407C184.77 66.661 186.134 65.2507 187.815 65.2507C189.495 65.2507 190.86 66.661 190.86 68.407Z" fill="#B8D3BF"/>
<path d="M189.449 61.8355C191.013 61.8355 192.28 60.5255 192.28 58.9095C192.28 57.2935 191.013 55.9835 189.449 55.9835C187.885 55.9835 186.617 57.2935 186.617 58.9095C186.617 60.5255 187.885 61.8355 189.449 61.8355Z" fill="#DAF1DE"/>
<path d="M184.741 53.2877C186.167 53.2877 187.322 52.0893 187.322 50.6111C187.322 49.1329 186.167 47.9345 184.741 47.9345C183.316 47.9345 182.16 49.1329 182.16 50.6111C182.16 52.0893 183.316 53.2877 184.741 53.2877Z" fill="#E9F6EB"/>
<path d="M192.818 100.286H158.578C156.229 100.286 154.326 98.3195 154.326 95.8923C154.326 93.4652 156.229 91.4985 158.578 91.4985H192.818C195.167 91.4985 197.07 93.4652 197.07 95.8923C197.07 98.3195 195.167 100.286 192.818 100.286Z" fill="#F5F5F5"/>
<path d="M173.832 100.286H158.578C156.229 100.286 154.326 98.3195 154.326 95.8923C154.326 93.4652 156.229 91.4985 158.578 91.4985H173.832C176.181 91.4985 178.084 93.4652 178.084 95.8923C178.084 98.3195 176.181 100.286 173.832 100.286Z" fill="#4AAF73"/>
<path d="M188.306 96.5353C188.306 96.9862 188 97.3412 187.387 97.3412C187.007 97.3412 186.645 97.1973 186.459 96.9766L186.561 96.8231C186.719 97.015 187.035 97.1589 187.387 97.1589C187.87 97.1589 188.121 96.9095 188.121 96.5449C188.121 96.1516 187.889 95.9213 187.174 95.9213H186.645L186.784 94.5974H188.177V94.7797H186.942L186.84 95.7391H187.211C188.019 95.7391 188.306 96.0461 188.306 96.5353Z" fill="#4AAF73"/>
<path d="M190.387 96.5351C190.387 96.986 190.08 97.341 189.467 97.341C189.087 97.341 188.725 97.1971 188.539 96.9764L188.641 96.8229C188.799 97.0148 189.115 97.1587 189.467 97.1587C189.95 97.1587 190.201 96.9093 190.201 96.5447C190.201 96.1514 189.969 95.9211 189.254 95.9211H188.725L188.864 94.5972H190.257V94.7795H189.022L188.92 95.7389H189.291C190.099 95.7389 190.387 96.0458 190.387 96.5351Z" fill="#4AAF73"/>
<path d="M190.674 95.3167C190.674 94.8754 190.906 94.578 191.249 94.578C191.593 94.578 191.834 94.8658 191.834 95.3167C191.834 95.758 191.593 96.0554 191.249 96.0554C190.915 96.0458 190.674 95.758 190.674 95.3167ZM191.695 95.3167C191.695 94.9426 191.519 94.7123 191.259 94.7123C190.999 94.7123 190.822 94.9426 190.822 95.3167C190.822 95.6909 190.999 95.9211 191.259 95.9211C191.519 95.9211 191.695 95.6909 191.695 95.3167ZM192.856 94.5972H193.013L191.222 97.3217H191.064L192.856 94.5972ZM192.243 96.6022C192.243 96.1609 192.484 95.8635 192.828 95.8635C193.171 95.8635 193.403 96.1513 193.403 96.6022C193.403 97.0435 193.171 97.3409 192.828 97.3409C192.484 97.3313 192.243 97.0435 192.243 96.6022ZM193.264 96.6022C193.264 96.2281 193.088 95.9978 192.828 95.9978C192.568 95.9978 192.391 96.2281 192.391 96.6022C192.391 96.9764 192.568 97.2066 192.828 97.2066C193.088 97.2066 193.264 96.9764 193.264 96.6022Z" fill="#4AAF73"/>
<g opacity="0.2">
<path d="M164.659 91.4985L161.465 100.181H163.814L166.785 91.4985H164.659Z" fill="white"/>
</g>
<g opacity="0.2">
<path d="M170.424 91.4985L167.221 100.181H169.57L172.55 91.4985H170.424Z" fill="white"/>
</g>
<g opacity="0.2">
<path d="M176.07 92.1509L173.09 100.238H174.492C174.882 100.19 175.569 99.864 175.569 99.864L177.62 93.8873C177.231 93.1582 176.711 92.5826 176.07 92.1509Z" fill="white"/>
</g>
<g opacity="0.2">
<path d="M159.06 91.4985L156.117 99.4899C156.711 99.9024 157.408 100.133 158.206 100.19L161.186 91.4985H159.06Z" fill="white"/>
</g>
<path d="M193.069 100.286C193.069 100.267 193.413 100.296 194.026 100.142C194.629 99.9888 195.548 99.5762 196.263 98.5689C196.616 98.0701 196.894 97.4177 196.987 96.6694C197.034 96.2953 197.024 95.9019 197.015 95.4894C197.006 95.0769 196.922 94.6644 196.774 94.2519C196.495 93.4268 195.901 92.6401 195.075 92.1317C194.666 91.8823 194.193 91.7 193.691 91.6136C193.19 91.5273 192.661 91.5657 192.122 91.5561C183.47 91.5657 171.521 91.5753 158.329 91.5849C157.929 91.5945 157.521 91.652 157.14 91.7767C156.76 91.9014 156.397 92.0933 156.072 92.3236C155.423 92.8032 154.912 93.4748 154.652 94.2423C154.179 95.7676 154.336 97.6 155.367 98.7896C155.868 99.3844 156.527 99.8161 157.242 100.027C157.957 100.257 158.718 100.171 159.47 100.19C160.965 100.19 162.432 100.19 163.862 100.19C169.581 100.2 174.733 100.209 179.06 100.209C183.377 100.219 186.877 100.229 189.3 100.238C190.507 100.248 191.445 100.248 192.085 100.257C192.401 100.257 192.642 100.267 192.809 100.267C192.986 100.277 193.069 100.286 193.069 100.286C193.069 100.286 192.986 100.296 192.819 100.296C192.652 100.296 192.41 100.305 192.095 100.305C191.454 100.305 190.516 100.315 189.309 100.325C186.886 100.334 183.386 100.344 179.069 100.353C174.743 100.363 169.59 100.363 163.871 100.372C162.441 100.372 160.974 100.372 159.48 100.372C159.108 100.372 158.728 100.372 158.347 100.372C157.966 100.363 157.567 100.325 157.196 100.209C156.444 99.9888 155.748 99.5379 155.228 98.9143C154.708 98.2907 154.355 97.504 154.262 96.6694C154.216 96.2473 154.216 95.8444 154.234 95.4223C154.253 95.0001 154.336 94.578 154.476 94.1847C154.754 93.3788 155.283 92.6689 155.961 92.1701C156.305 91.9206 156.676 91.7288 157.075 91.5945C157.474 91.4697 157.892 91.4026 158.319 91.393C171.512 91.4026 183.46 91.4122 192.113 91.4218C192.652 91.4314 193.181 91.393 193.701 91.4793C194.221 91.5657 194.703 91.7575 195.121 92.0166C195.975 92.5442 196.569 93.3501 196.857 94.2039C197.368 95.9211 197.071 97.6096 196.3 98.6073C195.557 99.6338 194.62 100.027 194.007 100.181C193.849 100.229 193.71 100.238 193.589 100.257C193.469 100.277 193.366 100.286 193.283 100.286C193.153 100.286 193.069 100.286 193.069 100.286Z" fill="#235347"/>
<path d="M256.739 37.8229C256.739 40.8544 255.384 43.5598 253.267 45.3154C251.893 46.457 250.194 47.1957 248.337 47.3684C248.096 47.3876 247.855 47.4068 247.604 47.4068C247.576 47.4068 247.539 47.4068 247.511 47.4068C247.474 47.4068 247.446 47.4068 247.409 47.4068C247.168 47.4068 246.926 47.3876 246.685 47.3684C244.828 47.1957 243.12 46.457 241.746 45.3154C239.629 43.5598 238.273 40.8544 238.273 37.8229C238.273 32.5273 242.414 28.239 247.511 28.239C252.608 28.239 256.739 32.5273 256.739 37.8229Z" fill="#288C50"/>
<path d="M241.689 39.0413L245.932 42.495L252.134 33.1509" stroke="white" stroke-width="0.959349" stroke-miterlimit="10" stroke-linecap="round" stroke-linejoin="round"/>
<path d="M223.102 121.526C232.747 121.526 240.565 113.447 240.565 103.481C240.565 93.5146 232.747 85.4354 223.102 85.4354C213.457 85.4354 205.639 93.5146 205.639 103.481C205.639 113.447 213.457 121.526 223.102 121.526Z" fill="#288C50"/>
<path d="M237.148 110.215L213.771 113.966C213.233 114.053 212.731 113.669 212.648 113.122L210.373 97.9165C210.29 97.3601 210.661 96.8421 211.19 96.7557L234.567 93.0047C235.106 92.9183 235.607 93.3021 235.691 93.8489L237.965 109.055C238.049 109.611 237.687 110.129 237.148 110.215Z" stroke="#E9F6EB" stroke-width="0.959349" stroke-miterlimit="10"/>
<path d="M210.801 100.766L236.118 96.7078" stroke="#E9F6EB" stroke-width="0.959349" stroke-miterlimit="10"/>
<path d="M234.431 99.8153L228.898 100.702L230.137 108.95L235.669 108.063L234.431 99.8153Z" stroke="#E9F6EB" stroke-width="0.959349" stroke-miterlimit="10"/>
<path d="M231.234 102.042C232.097 100.986 233.517 101.696 233.183 104.987L234.446 105.639L234.567 106.474L230.482 107.126L230.314 106.013L231.856 105.39C231.865 105.39 230.426 103.03 231.234 102.042Z" stroke="#E9F6EB" stroke-width="0.959349" stroke-miterlimit="10"/>
<path d="M222.842 110.426C222.842 110.426 225.794 110.446 224.949 109.841C224.104 109.227 223.974 108.613 224.699 108.604C225.413 108.594 226.62 110.004 226.528 109.151C226.435 108.287 226.955 108.844 227.047 108.901C227.15 108.959 228.004 108.604 228.041 108.709C228.078 108.805 228.022 109.103 230.807 108.661" stroke="#E9F6EB" stroke-width="0.959349" stroke-miterlimit="10"/>
<path d="M212.955 103.49L225.349 101.495" stroke="#E9F6EB" stroke-width="0.959349" stroke-miterlimit="10"/>
<path d="M213.168 104.949L220.475 103.769" stroke="#E9F6EB" stroke-width="0.959349" stroke-miterlimit="10"/>
<path d="M213.557 107.51L223.741 105.879" stroke="#E9F6EB" stroke-width="0.959349" stroke-miterlimit="10"/>
<path d="M216.715 97.907L229.146 95.9211" stroke="#E9F6EB" stroke-width="0.959349" stroke-miterlimit="10"/>
<path d="M149.629 55.9739C149.629 64.7519 145.702 72.5706 139.565 77.6552C135.583 80.9553 130.662 83.1043 125.287 83.5935C124.59 83.6607 123.885 83.6991 123.17 83.6991C123.077 83.6991 122.984 83.6991 122.891 83.6991H122.882C122.789 83.6991 122.687 83.6991 122.594 83.6991C121.889 83.6895 121.192 83.6607 120.496 83.5935C115.111 83.1043 110.191 80.9553 106.199 77.6456C100.062 72.561 96.1348 64.7423 96.1348 55.9643C96.1348 40.6435 108.111 28.2295 122.882 28.2295C137.653 28.2391 149.629 40.653 149.629 55.9739Z" fill="#288C50"/>
<path d="M127.087 58.1612C130.624 56.7221 133.14 53.1821 133.159 49.009C133.177 43.5503 128.916 39.0989 123.643 39.0797C118.36 39.0605 114.062 43.4639 114.043 48.9322C114.025 53.1438 116.559 56.7221 120.133 58.1708C105.418 60.3197 106.087 75.8324 106.087 75.8324L140.874 75.9859C140.874 75.9763 141.672 60.3005 127.087 58.1612Z" fill="#E9F6EB"/>
<path d="M110.247 53.6138H108.762V65.3659H119.949V63.8309H110.247V53.6138ZM108.762 34.9353V46.294H110.247V36.4702H119.949V34.9353H108.762ZM136.716 63.8213H127.023V65.3563H138.201V53.6138H136.716V63.8213ZM127.033 34.9353V36.4702H136.725V46.294H138.211V34.9353H127.033Z" fill="#45CE7C"/>
<path d="M139.935 134.746C139.935 138.929 138.06 142.651 135.145 145.078C133.251 146.652 130.902 147.668 128.34 147.908C128.005 147.937 127.671 147.956 127.328 147.956C127.281 147.956 127.235 147.956 127.198 147.956H127.188C127.142 147.956 127.096 147.956 127.049 147.956C126.715 147.956 126.381 147.937 126.046 147.908C123.484 147.668 121.135 146.652 119.232 145.078C116.307 142.661 114.441 138.929 114.441 134.746C114.441 127.445 120.151 121.536 127.188 121.536C134.235 121.536 139.935 127.445 139.935 134.746Z" fill="#288C50"/>
<path d="M129.019 128.366L129.168 128.395L129.047 128.299C129.01 128.27 128.982 128.242 128.945 128.222L128.936 128.213H128.927C128.147 128.059 127.209 127.771 126.123 127.369H126.113H126.104C126.067 127.378 126.03 127.378 125.993 127.388L125.854 127.417L125.993 127.464C127.181 127.906 128.202 128.203 129.019 128.366Z" fill="#E9F6EB"/>
<path d="M129.586 128.875L129.707 128.903L129.614 128.808C129.595 128.779 129.568 128.76 129.54 128.731L129.53 128.721H129.521C128.435 128.453 127.07 128.069 125.445 127.56H125.427L125.418 127.57C125.39 127.58 125.371 127.589 125.343 127.608L125.26 127.656L125.362 127.685C127.052 128.203 128.472 128.606 129.586 128.875Z" fill="#E9F6EB"/>
<path d="M130.097 129.489L130.218 129.537L130.134 129.431C130.125 129.412 130.106 129.402 130.097 129.383L130.079 129.364V129.345L130.051 129.335C129.113 128.99 127.47 128.462 124.926 127.887H124.907L124.898 127.896C124.879 127.906 124.861 127.925 124.842 127.935L124.777 127.992L124.861 128.011C127.47 128.597 129.15 129.134 130.097 129.489Z" fill="#E9F6EB"/>
<path d="M130.569 130.189L130.69 130.256L130.615 130.131C130.597 130.103 130.578 130.074 130.56 130.045L130.55 130.036L130.541 130.026C129.418 129.441 127.449 128.654 124.497 128.261H124.479L124.469 128.27C124.451 128.29 124.441 128.299 124.423 128.318L124.367 128.376L124.451 128.385C127.459 128.788 129.436 129.594 130.569 130.189Z" fill="#E9F6EB"/>
<path d="M129.771 130.227C130.198 130.448 130.606 130.688 130.987 130.957L131.108 131.043L131.043 130.909C131.033 130.88 131.015 130.861 131.006 130.832L130.996 130.822V130.813L130.978 130.803C130.616 130.563 130.235 130.333 129.826 130.122C128.666 129.527 126.726 128.798 124.117 128.721H124.098L124.089 128.74C124.08 128.76 124.061 128.779 124.052 128.788L123.996 128.856H124.08C126.679 128.913 128.61 129.633 129.771 130.227Z" fill="#E9F6EB"/>
<path d="M124.341 129.959H124.378V129.824H124.341C123.951 129.786 123.607 129.853 123.394 129.911H123.375L123.366 129.93C123.356 129.949 123.347 129.978 123.338 129.997L123.301 130.084L123.384 130.055C123.607 129.988 123.951 129.92 124.341 129.959Z" fill="#E9F6EB"/>
<path d="M129.817 130.669C130.356 130.976 130.867 131.34 131.34 131.734L131.451 131.83L131.396 131.695C131.386 131.657 131.368 131.628 131.349 131.59V131.58L131.34 131.571C130.885 131.196 130.393 130.851 129.873 130.554C128.583 129.805 126.466 128.961 123.764 129.182H123.746L123.736 129.201C123.727 129.22 123.718 129.239 123.699 129.259L123.736 129.287L123.699 129.268L123.662 129.335L123.746 129.326C126.438 129.095 128.527 129.93 129.817 130.669Z" fill="#E9F6EB"/>
<path d="M125.733 129.7C127.135 129.863 129.28 130.429 131.536 132.232L131.638 132.319L131.591 132.194C131.582 132.175 131.573 132.146 131.563 132.127L131.554 132.108V132.098L131.536 132.089C129.28 130.295 127.135 129.729 125.724 129.575C124.786 129.47 124.025 129.518 123.542 129.585H123.523L123.449 129.729L123.533 129.719C124.025 129.642 124.795 129.585 125.733 129.7Z" fill="#E9F6EB"/>
<path d="M123.181 134.938L123.051 134.88L123.041 134.919C123.041 134.928 122.781 135.724 122.67 136.818V136.828V136.837C122.679 136.895 122.698 136.952 122.707 137.01L122.763 137.259L122.781 137.01C122.874 135.849 123.162 134.986 123.162 134.976L123.181 134.938Z" fill="#E9F6EB"/>
<path d="M122.975 132.645V132.607L122.845 132.597V132.635C122.864 133.489 122.771 134.525 122.539 135.993V136.003V136.012C122.548 136.079 122.558 136.137 122.567 136.195L122.604 136.454L122.641 136.204C122.892 134.64 122.994 133.537 122.975 132.645Z" fill="#E9F6EB"/>
<path d="M123.337 134.516L123.504 133.959L123.374 133.911L123.207 134.458L123.337 134.516Z" fill="#E9F6EB"/>
<path d="M122.995 132.29C123.041 131.868 123.32 131.599 123.32 131.599L123.348 131.57L123.255 131.465L123.227 131.494C123.227 131.494 122.92 131.791 122.865 132.261L122.855 132.3L122.985 132.328L122.995 132.29Z" fill="#E9F6EB"/>
<path d="M123.049 133.403L123.179 133.422V133.384C123.188 133.019 123.55 132.501 123.569 132.482L123.587 132.453L123.476 132.367L123.457 132.396C123.439 132.415 123.067 132.952 123.049 133.374V133.403Z" fill="#E9F6EB"/>
<path d="M123.82 132.76L123.848 132.731L123.746 132.635L123.718 132.664C123.671 132.712 123.254 133.201 123.031 134.199L123.021 134.237L123.151 134.276L123.161 134.237C123.384 133.221 123.811 132.76 123.82 132.76Z" fill="#E9F6EB"/>
<path d="M123.895 133.269L123.784 133.192L123.496 133.681L123.608 133.758L123.895 133.269Z" fill="#E9F6EB"/>
<path d="M123.969 131.609L124.007 131.599L123.96 131.465L123.923 131.475C123.895 131.484 123.236 131.705 123.05 132.415L123.041 132.453L123.171 132.501L123.18 132.463C123.338 131.82 123.942 131.609 123.969 131.609Z" fill="#E9F6EB"/>
<path d="M124.164 130.717L124.201 130.707L124.173 130.573L124.136 130.582C123.514 130.678 123.161 130.909 122.966 131.091L122.957 131.1V131.11L122.883 131.388L123.004 131.254C123.133 131.1 123.477 130.822 124.164 130.717Z" fill="#E9F6EB"/>
<path d="M125.919 130.199C127.321 130.256 129.466 130.745 131.722 132.779L131.824 132.875L131.777 132.741C131.768 132.712 131.759 132.683 131.749 132.645V132.635L131.74 132.626C129.466 130.611 127.312 130.122 125.91 130.064C124.471 130.007 123.44 130.371 123.162 130.486L123.143 130.496L123.134 130.515C123.125 130.534 123.125 130.554 123.115 130.573L123.078 130.678L123.162 130.64C123.366 130.544 124.406 130.141 125.919 130.199Z" fill="#E9F6EB"/>
<path d="M126.085 130.563C124.489 130.63 123.412 131.292 123.365 131.321L123.328 131.34L123.402 131.455L123.43 131.436C123.477 131.407 124.526 130.755 126.095 130.697C127.487 130.64 129.613 131.052 131.888 133.336L131.99 133.441L131.953 133.297C131.944 133.259 131.934 133.23 131.925 133.192V133.182L131.916 133.173C129.632 130.918 127.487 130.506 126.085 130.563Z" fill="#E9F6EB"/>
<path d="M129.047 131.475C128.128 131.091 127.191 130.957 126.262 131.072C124.675 131.264 123.635 132.137 123.626 132.146L123.598 132.175L123.681 132.28L123.709 132.252C123.718 132.242 124.74 131.398 126.281 131.206C127.655 131.033 129.772 131.369 132.037 133.902L132.139 134.017L132.102 133.863C132.093 133.825 132.083 133.787 132.074 133.758V133.748L132.065 133.739C131.108 132.674 130.087 131.906 129.047 131.475Z" fill="#E9F6EB"/>
<path d="M127.774 131.494C125.509 131.283 123.912 132.933 123.903 132.952L123.875 132.981L123.977 133.077L124.005 133.048C124.024 133.029 125.574 131.417 127.784 131.628C129.306 131.772 130.792 132.722 132.193 134.449L132.296 134.583L132.258 134.42C132.249 134.381 132.24 134.343 132.231 134.314V134.305L132.221 134.295C130.801 132.578 129.306 131.638 127.774 131.494Z" fill="#E9F6EB"/>
<path d="M123.978 134.046C125.073 132.424 127.273 131.359 129.734 132.645C131.015 133.307 131.544 134.094 132.166 135.015C132.222 135.101 132.287 135.187 132.342 135.274L132.445 135.418L132.417 135.245C132.407 135.206 132.398 135.168 132.398 135.13V135.12L132.389 135.111C132.352 135.053 132.315 134.995 132.277 134.938C131.646 134.007 131.098 133.201 129.789 132.52C127.264 131.206 124.999 132.3 123.875 133.959C122.854 135.475 122.919 137.231 123.058 138.132V138.142C123.086 138.228 123.123 138.315 123.151 138.401L123.226 138.382C122.919 136.78 123.198 135.197 123.978 134.046Z" fill="#E9F6EB"/>
<path d="M129.345 138.391C129.113 137.777 129.001 137.71 128.918 137.73C128.704 137.787 128.899 138.593 128.909 138.593C129.02 139.025 130.765 140.032 131.508 140.435L131.545 140.454L131.61 140.339L131.573 140.32C130.403 139.677 129.122 138.871 129.048 138.564C128.964 138.219 128.955 137.95 128.974 137.873C129.011 137.912 129.085 138.037 129.234 138.42C129.577 139.341 130.923 139.878 131.685 140.118L131.712 140.128L131.722 140.099C131.731 140.08 131.74 140.061 131.75 140.051L131.768 140.003L131.722 139.984C130.97 139.763 129.67 139.245 129.345 138.391Z" fill="#E9F6EB"/>
<path d="M129.522 138.171C129.289 137.614 129.104 137.365 128.927 137.375C128.742 137.384 128.621 137.662 128.528 138.267C128.407 139.082 130.636 140.368 131.323 140.751L131.351 140.771L131.369 140.742C131.378 140.723 131.388 140.713 131.397 140.694L131.415 140.656L131.378 140.636C130.004 139.878 128.575 138.871 128.658 138.305C128.76 137.605 128.89 137.518 128.946 137.518C128.983 137.518 129.132 137.566 129.401 138.219C129.679 138.881 130.478 139.447 131.778 139.907L131.815 139.917L131.824 139.888C131.824 139.878 131.833 139.869 131.833 139.869C131.833 139.859 131.843 139.85 131.843 139.84L131.861 139.802L131.815 139.783C130.571 139.341 129.782 138.785 129.522 138.171Z" fill="#E9F6EB"/>
<path d="M129.707 137.96C129.41 137.317 129.141 137 128.871 137C128.602 137 128.37 137.317 128.166 137.96C127.794 139.14 130.338 140.627 131.127 141.049L131.155 141.068L131.229 140.963L131.183 140.943C130.635 140.646 127.934 139.111 128.286 138.017C128.472 137.442 128.676 137.135 128.881 137.135C129.085 137.135 129.326 137.442 129.586 138.008C129.874 138.641 130.626 139.188 131.879 139.687L131.916 139.696L131.935 139.667C131.944 139.648 131.954 139.629 131.954 139.619L131.972 139.581L131.935 139.562C130.7 139.073 129.976 138.545 129.707 137.96Z" fill="#E9F6EB"/>
<path d="M129.883 137.739C129.502 136.991 129.121 136.607 128.769 136.597C128.416 136.588 128.082 136.943 127.794 137.662C127.506 138.372 127.97 139.255 129.149 140.195C129.883 140.78 130.69 141.231 130.913 141.356L130.941 141.375L130.96 141.356C130.969 141.346 130.978 141.327 130.997 141.317L131.025 141.279L130.978 141.25C130.365 140.915 127.32 139.188 127.915 137.739C128.184 137.077 128.472 136.741 128.778 136.751C129.084 136.761 129.419 137.116 129.771 137.816C130.18 138.612 131.22 139.14 131.972 139.476L132.009 139.495L132.027 139.437C132.027 139.428 132.037 139.418 132.037 139.408L132.046 139.37L132.009 139.351C131.275 139.005 130.263 138.487 129.883 137.739Z" fill="#E9F6EB"/>
<path d="M130.058 137.519C129.557 136.626 129.093 136.185 128.638 136.175C128.201 136.166 127.784 136.559 127.412 137.355C127.227 137.749 127.217 138.18 127.384 138.631C127.923 140.09 130.216 141.375 130.671 141.615L130.699 141.625L130.717 141.605C130.727 141.596 130.736 141.577 130.754 141.567L130.792 141.529L130.745 141.5C130.3 141.26 128.044 140.003 127.514 138.583C127.357 138.171 127.366 137.778 127.542 137.413C127.886 136.674 128.257 136.3 128.638 136.3C128.647 136.3 128.647 136.3 128.656 136.3C129.055 136.31 129.483 136.732 129.956 137.566C130.374 138.305 131.293 138.833 132.054 139.207L132.091 139.226L132.101 139.188C132.11 139.169 132.11 139.159 132.119 139.14L132.129 139.101L132.091 139.082C131.349 138.737 130.448 138.219 130.058 137.519Z" fill="#E9F6EB"/>
<path d="M130.236 137.307C129.8 136.598 129.206 135.772 128.491 135.753H128.472C127.962 135.753 127.479 136.195 127.043 137.058C126.783 137.566 126.755 138.104 126.959 138.66C127.544 140.291 129.939 141.634 130.413 141.893L130.441 141.903L130.459 141.884C130.468 141.874 130.487 141.855 130.496 141.845L130.533 141.807L130.478 141.778C130.013 141.529 127.646 140.205 127.08 138.622C126.894 138.104 126.922 137.595 127.163 137.125C127.59 136.291 128.036 135.868 128.509 135.888C129.15 135.907 129.707 136.693 130.134 137.375C130.561 138.065 131.378 138.583 132.13 138.986L132.167 139.005L132.177 138.967C132.186 138.948 132.186 138.929 132.195 138.919L132.204 138.89L132.177 138.871C131.443 138.459 130.645 137.96 130.236 137.307Z" fill="#E9F6EB"/>
<path d="M130.411 137.087L130.402 137.068C129.966 136.415 129.232 135.322 128.332 135.312H128.322C127.738 135.312 127.181 135.792 126.67 136.751C126.336 137.365 126.289 138.008 126.521 138.679C127.125 140.406 129.427 141.768 130.124 142.143L130.142 142.152L130.17 142.133C130.179 142.123 130.198 142.114 130.207 142.104L130.254 142.066L130.198 142.037C129.706 141.778 127.246 140.377 126.642 138.65C126.429 138.027 126.475 137.413 126.781 136.828C127.273 135.907 127.803 135.446 128.341 135.456C129.158 135.465 129.873 136.521 130.291 137.144L130.3 137.163C130.746 137.825 131.535 138.353 132.185 138.746L132.231 138.775L132.268 138.641L132.24 138.622C131.609 138.238 130.838 137.72 130.411 137.087Z" fill="#E9F6EB"/>
<path d="M130.589 136.866C130.571 136.837 130.543 136.809 130.515 136.77L130.459 136.693C129.967 136.022 129.159 134.89 128.175 134.89C127.507 134.89 126.876 135.417 126.3 136.454C125.891 137.183 125.826 137.941 126.086 138.718C126.718 140.56 129.094 141.989 129.809 142.382L129.828 142.392L129.949 142.306L129.884 142.277C129.178 141.893 126.82 140.492 126.207 138.679C125.956 137.941 126.021 137.221 126.411 136.53C126.968 135.533 127.572 135.024 128.185 135.024C129.094 135.024 129.884 136.118 130.357 136.77C130.404 136.837 130.45 136.895 130.487 136.943C130.951 137.576 131.675 138.104 132.251 138.487L132.297 138.516L132.307 138.468C132.307 138.449 132.316 138.43 132.316 138.411L132.325 138.382L132.297 138.363C131.74 137.989 131.044 137.48 130.589 136.866Z" fill="#E9F6EB"/>
<path d="M130.996 136.732C129.827 134.919 128.778 134.535 128.109 134.535C127.32 134.535 126.624 135.043 126.15 135.983C125.593 137.096 125.528 138.19 125.937 139.226C126.642 141.02 128.62 142.181 129.427 142.603L129.446 142.613L129.465 142.603C129.483 142.593 129.502 142.584 129.52 142.574L129.585 142.536L129.511 142.497C128.88 142.181 126.772 141.001 126.057 139.188C125.658 138.19 125.732 137.135 126.271 136.06C126.717 135.168 127.366 134.679 128.109 134.679H128.118C128.759 134.688 129.752 135.053 130.885 136.809C131.229 137.346 131.851 137.835 132.315 138.142L132.361 138.171L132.371 138.113C132.371 138.094 132.38 138.075 132.38 138.065L132.389 138.037L132.361 138.017C131.934 137.71 131.331 137.24 130.996 136.732Z" fill="#E9F6EB"/>
<path d="M131.163 136.444C130.68 135.705 130.216 135.187 129.696 134.804C128.991 134.286 128.276 134.084 127.617 134.209C126.902 134.343 126.271 134.871 125.834 135.696C124.878 137.509 125.37 139.034 125.955 139.984C126.855 141.471 128.508 142.392 129.176 142.718L129.195 142.728L129.214 142.718C129.232 142.709 129.26 142.699 129.279 142.689L129.353 142.651L129.269 142.613C128.601 142.296 126.967 141.394 126.066 139.907C125.5 138.986 125.026 137.518 125.955 135.753C126.373 134.967 126.976 134.458 127.654 134.333C128.276 134.218 128.963 134.41 129.631 134.899C130.133 135.274 130.588 135.782 131.061 136.502C131.33 136.914 131.776 137.365 132.379 137.825L132.426 137.864L132.435 137.806C132.435 137.787 132.444 137.768 132.444 137.749V137.72L132.426 137.701C131.841 137.269 131.423 136.837 131.163 136.444Z" fill="#E9F6EB"/>
<path d="M131.321 136.156C130.783 135.341 130.3 134.823 129.706 134.42C128.935 133.902 128.146 133.7 127.431 133.854C126.651 134.007 125.973 134.564 125.509 135.408C124.711 136.847 124.729 138.497 125.546 139.946C126.456 141.548 128.174 142.497 128.879 142.833L128.889 142.843H128.898C128.917 142.833 128.944 142.833 128.963 142.824L129.065 142.795L128.972 142.747C128.276 142.421 126.549 141.49 125.658 139.898C125.194 139.073 124.572 137.403 125.621 135.494C126.066 134.679 126.725 134.151 127.468 133.998C128.155 133.854 128.907 134.046 129.641 134.544C130.216 134.938 130.69 135.437 131.21 136.233C131.47 136.636 131.878 137.068 132.407 137.528L132.463 137.576L132.472 137.509C132.472 137.49 132.482 137.47 132.482 137.442V137.422L132.463 137.403C131.962 136.952 131.572 136.54 131.321 136.156Z" fill="#E9F6EB"/>
<path d="M131.479 135.868C131.052 135.226 130.542 134.564 129.715 134.046C127.589 132.712 125.937 133.787 125.166 135.12C124.321 136.578 124.303 138.372 125.12 139.907C125.983 141.529 127.608 142.488 128.508 142.92L128.518 142.929H128.527C128.555 142.92 128.583 142.92 128.62 142.91L128.741 142.891L128.629 142.833C127.729 142.411 126.104 141.471 125.24 139.859C124.451 138.363 124.461 136.626 125.287 135.206C126.03 133.921 127.617 132.885 129.66 134.17C130.458 134.679 130.959 135.322 131.377 135.955C131.637 136.348 131.999 136.761 132.445 137.183L132.501 137.24L132.51 137.163C132.51 137.144 132.51 137.116 132.51 137.096V137.077L132.491 137.058C132.073 136.626 131.73 136.233 131.479 135.868Z" fill="#E9F6EB"/>
<path d="M131.638 135.571C131.109 134.784 130.589 134.161 129.735 133.652C128.75 133.067 127.748 132.904 126.838 133.192C126.039 133.441 125.334 134.017 124.851 134.823C123.951 136.319 123.895 138.2 124.721 139.859C125.557 141.529 127.172 142.507 128.063 142.948H128.073H128.082C128.119 142.948 128.156 142.948 128.203 142.948L128.351 142.939L128.203 142.872C127.302 142.44 125.668 141.471 124.833 139.802C124.025 138.19 124.081 136.358 124.953 134.899C125.761 133.566 127.479 132.472 129.67 133.767C130.496 134.257 131.006 134.871 131.526 135.638C131.777 136.012 132.093 136.396 132.455 136.78L132.52 136.847V136.761C132.52 136.732 132.52 136.713 132.52 136.684V136.665L132.51 136.655C132.167 136.29 131.879 135.926 131.638 135.571Z" fill="#E9F6EB"/>
<path d="M131.804 135.283C131.331 134.583 130.783 133.854 129.752 133.278C128.703 132.683 127.626 132.53 126.642 132.846C125.797 133.115 125.045 133.71 124.526 134.535C123.384 136.348 123.671 138.449 124.312 139.811C125.045 141.356 126.41 142.334 127.431 142.881L127.441 142.891H127.45C127.506 142.9 127.552 142.91 127.608 142.92L127.831 142.948L127.626 142.843C126.577 142.306 125.175 141.337 124.433 139.773C123.801 138.439 123.523 136.386 124.637 134.621C125.575 133.125 127.506 132.165 129.697 133.403C130.699 133.969 131.238 134.679 131.693 135.36C131.925 135.705 132.185 136.041 132.454 136.358L132.528 136.444V136.329C132.528 136.3 132.528 136.281 132.528 136.252V136.233L132.519 136.223C132.259 135.926 132.018 135.609 131.804 135.283Z" fill="#E9F6EB"/>
<path d="M132.491 135.744V135.734L132.481 135.724C132.286 135.465 132.11 135.206 131.961 134.995C131.442 134.238 130.885 133.499 129.77 132.894C127.375 131.599 125.24 132.635 124.2 134.247C122.984 136.108 123.281 138.391 123.912 139.773C124.349 140.761 125.082 141.624 126.085 142.344L126.094 142.354C126.242 142.45 126.391 142.526 126.549 142.593L126.577 142.526C125.379 141.768 124.525 140.828 124.033 139.725C123.42 138.372 123.132 136.147 124.321 134.324C125.333 132.76 127.403 131.753 129.733 133.01C130.82 133.595 131.367 134.314 131.869 135.063C132.017 135.283 132.212 135.571 132.444 135.859L132.528 135.964L132.518 135.84C132.491 135.811 132.491 135.772 132.491 135.744Z" fill="#E9F6EB"/>
<path d="M127.135 127.369C127.052 127.359 126.968 127.359 126.885 127.378C127.358 127.551 128.166 127.8 128.426 127.848C128.175 127.656 127.451 127.397 127.135 127.369Z" fill="#E9F6EB"/>
<path d="M122.149 126.716L122.195 127.196H121.118L121.211 128.309H120.747L120.607 126.716H122.149Z" fill="#45CE7C"/>
<path d="M123.55 143.591L123.503 143.112H122.426L122.333 141.999H121.869L122.008 143.591H123.55Z" fill="#45CE7C"/>
<path d="M132.908 143.591L132.871 143.112H133.948L133.855 141.999H134.31L134.449 143.591H132.908Z" fill="#45CE7C"/>
<path d="M131.451 126.755L131.488 127.234H132.565L132.667 128.347H133.122L132.992 126.755H131.451Z" fill="#45CE7C"/>
<path d="M339.672 137.183L343.905 140.636L350.116 131.292" stroke="white" stroke-width="0.959349" stroke-miterlimit="10" stroke-linecap="round" stroke-linejoin="round"/>
<path d="M163.842 108.537L161.823 113.886H161.017L158.999 108.537H159.743L161.424 113.15L163.105 108.537H163.842ZM168.445 111.622C168.445 111.755 168.437 111.896 168.422 112.044H165.06C165.086 112.459 165.227 112.784 165.482 113.019C165.743 113.249 166.058 113.365 166.426 113.365C166.728 113.365 166.979 113.295 167.179 113.157C167.383 113.014 167.527 112.825 167.608 112.589H168.36C168.248 112.994 168.023 113.324 167.685 113.579C167.347 113.83 166.928 113.955 166.426 113.955C166.027 113.955 165.669 113.866 165.352 113.687C165.04 113.508 164.794 113.255 164.615 112.927C164.436 112.594 164.347 112.211 164.347 111.776C164.347 111.341 164.434 110.96 164.608 110.632C164.781 110.305 165.025 110.054 165.337 109.88C165.654 109.701 166.017 109.612 166.426 109.612C166.826 109.612 167.179 109.699 167.486 109.872C167.793 110.046 168.028 110.287 168.192 110.594C168.36 110.896 168.445 111.239 168.445 111.622ZM167.723 111.477C167.723 111.21 167.665 110.983 167.547 110.793C167.429 110.599 167.268 110.453 167.063 110.356C166.864 110.254 166.641 110.202 166.396 110.202C166.043 110.202 165.741 110.315 165.49 110.54C165.245 110.765 165.104 111.077 165.068 111.477H167.723ZM170.065 110.364C170.188 110.123 170.362 109.936 170.587 109.803C170.817 109.67 171.096 109.604 171.424 109.604V110.325H171.239C170.457 110.325 170.065 110.75 170.065 111.599V113.886H169.367V109.681H170.065V110.364ZM172.591 108.998C172.458 108.998 172.345 108.952 172.253 108.859C172.161 108.767 172.115 108.655 172.115 108.522C172.115 108.389 172.161 108.276 172.253 108.184C172.345 108.092 172.458 108.046 172.591 108.046C172.718 108.046 172.826 108.092 172.913 108.184C173.005 108.276 173.051 108.389 173.051 108.522C173.051 108.655 173.005 108.767 172.913 108.859C172.826 108.952 172.718 108.998 172.591 108.998ZM172.928 109.681V113.886H172.23V109.681H172.928ZM175.83 110.256H174.947V113.886H174.249V110.256H173.704V109.681H174.249V109.381C174.249 108.911 174.369 108.568 174.61 108.353C174.855 108.133 175.247 108.023 175.784 108.023V108.606C175.477 108.606 175.26 108.668 175.132 108.79C175.009 108.908 174.947 109.105 174.947 109.381V109.681H175.83V110.256ZM177.005 108.998C176.872 108.998 176.759 108.952 176.667 108.859C176.575 108.767 176.529 108.655 176.529 108.522C176.529 108.389 176.575 108.276 176.667 108.184C176.759 108.092 176.872 108.046 177.005 108.046C177.133 108.046 177.24 108.092 177.327 108.184C177.42 108.276 177.466 108.389 177.466 108.522C177.466 108.655 177.42 108.767 177.327 108.859C177.24 108.952 177.133 108.998 177.005 108.998ZM177.343 109.681V113.886H176.644V109.681H177.343ZM180.882 113.886L179.231 112.029V113.886H178.533V108.207H179.231V111.546L180.851 109.681H181.826L179.845 111.776L181.833 113.886H180.882ZM182.222 111.768C182.222 111.338 182.309 110.962 182.483 110.64C182.657 110.313 182.895 110.059 183.197 109.88C183.504 109.701 183.844 109.612 184.217 109.612C184.586 109.612 184.906 109.691 185.177 109.849C185.448 110.008 185.65 110.208 185.783 110.448V109.681H186.489V113.886H185.783V113.104C185.645 113.349 185.438 113.554 185.161 113.718C184.89 113.876 184.573 113.955 184.21 113.955C183.836 113.955 183.499 113.863 183.197 113.679C182.895 113.495 182.657 113.237 182.483 112.904C182.309 112.571 182.222 112.193 182.222 111.768ZM185.783 111.776C185.783 111.459 185.719 111.182 185.591 110.947C185.463 110.712 185.289 110.533 185.069 110.41C184.854 110.282 184.616 110.218 184.356 110.218C184.095 110.218 183.857 110.279 183.642 110.402C183.427 110.525 183.255 110.704 183.128 110.939C183 111.175 182.936 111.451 182.936 111.768C182.936 112.09 183 112.372 183.128 112.612C183.255 112.848 183.427 113.029 183.642 113.157C183.857 113.28 184.095 113.341 184.356 113.341C184.616 113.341 184.854 113.28 185.069 113.157C185.289 113.029 185.463 112.848 185.591 112.612C185.719 112.372 185.783 112.093 185.783 111.776ZM189.158 113.955C188.836 113.955 188.547 113.902 188.291 113.794C188.035 113.682 187.833 113.528 187.685 113.334C187.536 113.134 187.454 112.907 187.439 112.651H188.161C188.181 112.861 188.278 113.032 188.452 113.165C188.631 113.298 188.864 113.365 189.151 113.365C189.417 113.365 189.626 113.306 189.78 113.188C189.933 113.07 190.01 112.922 190.01 112.743C190.01 112.559 189.928 112.423 189.765 112.336C189.601 112.244 189.348 112.154 189.005 112.067C188.693 111.986 188.437 111.904 188.237 111.822C188.043 111.735 187.874 111.61 187.731 111.446C187.593 111.277 187.524 111.057 187.524 110.786C187.524 110.571 187.588 110.374 187.715 110.195C187.843 110.016 188.025 109.875 188.26 109.773C188.496 109.665 188.764 109.612 189.066 109.612C189.532 109.612 189.908 109.729 190.194 109.965C190.481 110.2 190.634 110.522 190.655 110.932H189.956C189.941 110.712 189.852 110.535 189.688 110.402C189.529 110.269 189.314 110.202 189.043 110.202C188.792 110.202 188.593 110.256 188.445 110.364C188.296 110.471 188.222 110.612 188.222 110.786C188.222 110.924 188.265 111.039 188.352 111.131C188.445 111.218 188.557 111.29 188.69 111.346C188.828 111.397 189.018 111.456 189.258 111.523C189.56 111.604 189.806 111.686 189.995 111.768C190.184 111.845 190.345 111.963 190.478 112.121C190.617 112.28 190.688 112.487 190.693 112.743C190.693 112.973 190.629 113.18 190.501 113.365C190.373 113.549 190.192 113.695 189.956 113.802C189.726 113.904 189.46 113.955 189.158 113.955ZM192.04 108.998C191.907 108.998 191.794 108.952 191.702 108.859C191.61 108.767 191.564 108.655 191.564 108.522C191.564 108.389 191.61 108.276 191.702 108.184C191.794 108.092 191.907 108.046 192.04 108.046C192.168 108.046 192.275 108.092 192.362 108.184C192.454 108.276 192.5 108.389 192.5 108.522C192.5 108.655 192.454 108.767 192.362 108.859C192.275 108.952 192.168 108.998 192.04 108.998ZM192.378 109.681V113.886H191.679V109.681H192.378Z" fill="#235347"/>
</g>
<defs>
<clipPath id="clip0_3327_7506">
<rect width="360" height="174" fill="white" transform="translate(0.5)"/>
</clipPath>
</defs>
</svg>
