<svg width="180" height="180" viewBox="0 0 180 180" fill="none" xmlns="http://www.w3.org/2000/svg">
<circle cx="90" cy="90" r="90" fill="url(#paint0_linear_1154_8811)"/>
<path d="M156.992 86.4422L143.933 97.5637L131.161 118.443L116.811 142.05L101.671 133.655L85.312 123.897L97.5097 103.95L105.761 81.276C100.81 84.1461 91.6979 87.8054 81.2939 84.8636C70.0289 81.7065 78.3521 38.9426 78.3521 38.9426L90.9086 39.4448L90.1911 69.9393L104.828 64.6297V64.7014C105.689 64.3427 106.479 64.0556 106.909 63.9121C115.017 60.1093 120.255 59.9658 128.435 63.5534L140.345 68.3607C143.287 69.9393 154.481 76.3969 156.992 86.4422Z" fill="#268C44"/>
<path d="M156.992 86.4422L143.933 97.5637L131.161 118.443L116.811 142.05L101.671 133.655L85.312 123.897L97.5097 103.95L105.761 81.276C100.81 84.1461 91.6979 87.8054 81.2939 84.8636C70.0289 81.7065 78.3521 38.9426 78.3521 38.9426L90.9086 39.4448L90.1911 69.9393L104.828 64.6297V64.7014C105.689 64.3427 106.479 64.0556 106.909 63.9121C115.017 60.1093 120.255 59.9658 128.435 63.5534L140.345 68.3607C143.287 69.9393 154.481 76.3969 156.992 86.4422Z" fill="#268C44"/>
<path d="M115.376 61.6878C115.376 61.6878 115.089 61.8313 114.587 62.1183C114.085 62.4053 113.439 62.9793 112.722 63.7686C112.004 64.5579 111.358 65.6341 110.784 66.8539C110.21 68.1455 109.708 69.5805 109.206 71.0873C108.13 74.1008 107.197 76.8992 106.551 78.9082C106.192 79.9127 105.905 80.702 105.69 81.276C105.618 81.563 105.546 81.7783 105.475 81.9218C105.403 82.0653 105.403 82.137 105.403 82.137C105.403 82.137 105.403 82.0653 105.475 81.9218C105.546 81.7783 105.618 81.563 105.69 81.276C105.905 80.702 106.12 79.9127 106.479 78.9082C107.125 76.8992 108.058 74.1008 109.134 71.0873C109.636 69.5805 110.139 68.0737 110.713 66.8539C111.287 65.5624 112.004 64.4861 112.722 63.6969C113.439 62.9076 114.157 62.4053 114.659 62.1183C114.946 61.9748 115.089 61.9031 115.305 61.8313C115.305 61.6878 115.376 61.6878 115.376 61.6878Z" fill="#263238"/>
<g opacity="0.3">
<g opacity="0.3">
<path opacity="0.3" d="M110.425 67.428C106.264 76.6839 99.5907 81.6348 90.3348 85.7964C90.3348 85.7964 98.0122 85.7964 105.474 81.3478" fill="black"/>
</g>
</g>
<path d="M115.376 61.6878C115.376 61.6878 115.089 61.8313 114.587 62.1183C114.085 62.4053 113.439 62.9793 112.722 63.7686C112.004 64.5579 111.358 65.6341 110.784 66.8539C110.21 68.1455 109.708 69.5805 109.206 71.0873C108.13 74.1008 107.197 76.8992 106.551 78.9082C106.192 79.9127 105.905 80.702 105.69 81.276C105.618 81.563 105.546 81.7783 105.475 81.9218C105.403 82.0653 105.403 82.137 105.403 82.137C105.403 82.137 105.403 82.0653 105.475 81.9218C105.546 81.7783 105.618 81.563 105.69 81.276C105.905 80.702 106.12 79.9127 106.479 78.9082C107.125 76.8992 108.058 74.1008 109.134 71.0873C109.636 69.5805 110.139 68.0737 110.713 66.8539C111.287 65.5624 112.004 64.4861 112.722 63.6969C113.439 62.9076 114.157 62.4053 114.659 62.1183C114.946 61.9748 115.089 61.9031 115.305 61.8313C115.305 61.6878 115.376 61.6878 115.376 61.6878Z" fill="#263238"/>
<g opacity="0.3">
<g opacity="0.3">
<path opacity="0.3" d="M110.425 67.428C106.264 76.6839 99.5907 81.6348 90.3348 85.7964C90.3348 85.7964 98.0122 85.7964 105.474 81.3478" fill="black"/>
</g>
</g>
<path d="M113.008 93.1151C113.008 93.1151 112.65 93.3303 112.076 93.6891C111.502 94.0478 110.712 94.5501 109.923 95.1241C109.062 95.6981 108.345 96.2721 107.842 96.6309C107.34 97.0614 106.981 97.2767 106.981 97.2767C106.981 97.2767 107.268 96.9897 107.771 96.5591C108.273 96.1286 108.99 95.5546 109.851 94.9806C110.712 94.4066 111.502 93.9043 112.076 93.6173C112.578 93.2586 113.008 93.0433 113.008 93.1151Z" fill="#FAFAFA"/>
<path d="M113.008 93.1151C113.008 93.1151 112.65 93.3303 112.076 93.6891C111.502 94.0478 110.712 94.5501 109.923 95.1241C109.062 95.6981 108.345 96.2721 107.842 96.6309C107.34 97.0614 106.981 97.2767 106.981 97.2767C106.981 97.2767 107.268 96.9897 107.771 96.5591C108.273 96.1286 108.99 95.5546 109.851 94.9806C110.712 94.4066 111.502 93.9043 112.076 93.6173C112.578 93.2586 113.008 93.0433 113.008 93.1151Z" fill="#FAFAFA"/>
<path d="M126.785 98.7365C126.785 98.7365 126.427 98.9518 125.853 99.3105C125.279 99.6693 124.489 100.172 123.7 100.746C122.839 101.32 122.122 101.894 121.619 102.252C121.117 102.683 120.758 102.898 120.758 102.898C120.758 102.898 121.045 102.611 121.548 102.181C122.05 101.75 122.767 101.176 123.628 100.602C124.489 100.028 125.279 99.5258 125.853 99.2388C126.355 98.88 126.785 98.6648 126.785 98.7365Z" fill="#FAFAFA"/>
<path d="M139.625 97.0246C139.625 97.0246 139.267 97.2399 138.693 97.5986C138.119 97.9574 137.329 98.4596 136.54 99.0337C135.679 99.6077 134.962 100.182 134.459 100.54C133.957 100.971 133.598 101.186 133.598 101.186C133.598 101.186 133.885 100.899 134.388 100.469C134.89 100.038 135.607 99.4642 136.468 98.8902C137.329 98.3161 138.119 97.8139 138.693 97.5269C139.195 97.1681 139.625 96.9529 139.625 97.0246Z" fill="#FAFAFA"/>
<path d="M112.721 90.1015C112.65 90.1015 112.147 89.097 111.358 87.949C110.569 86.8009 109.851 85.8682 109.923 85.8682C109.923 85.8682 110.138 86.0834 110.425 86.4422C110.712 86.8009 111.143 87.3032 111.502 87.8772C111.86 88.4512 112.219 89.0252 112.434 89.4557C112.65 89.8145 112.721 90.1015 112.721 90.1015Z" fill="#FAFAFA"/>
<path d="M112.721 90.1015C112.65 90.1015 112.147 89.097 111.358 87.949C110.569 86.8009 109.851 85.8682 109.923 85.8682C109.923 85.8682 110.138 86.0834 110.425 86.4422C110.712 86.8009 111.143 87.3032 111.502 87.8772C111.86 88.4512 112.219 89.0252 112.434 89.4557C112.65 89.8145 112.721 90.1015 112.721 90.1015Z" fill="#FAFAFA"/>
<path d="M126.499 95.723C126.427 95.723 125.925 94.7184 125.136 93.5704C124.347 92.4224 123.629 91.4896 123.701 91.4896C123.701 91.4896 123.916 91.7049 124.203 92.0636C124.49 92.4224 124.921 92.9247 125.279 93.4987C125.638 94.0727 125.997 94.6467 126.212 95.0772C126.427 95.436 126.499 95.723 126.499 95.723Z" fill="#FAFAFA"/>
<path d="M139.339 94.0111C139.267 94.0111 138.765 93.0065 137.975 91.8585C137.186 90.7105 136.469 89.7777 136.54 89.7777C136.54 89.7777 136.756 89.993 137.043 90.3517C137.33 90.7105 137.76 91.2127 138.119 91.7868C138.478 92.3608 138.836 92.9348 139.052 93.3653C139.267 93.7241 139.339 94.0111 139.339 94.0111Z" fill="#FAFAFA"/>
<path d="M115.735 78.6212C115.735 78.693 114.946 79.1235 113.941 79.554C112.937 80.0563 112.076 80.415 112.004 80.3433C112.004 80.2715 112.793 79.841 113.798 79.4105C114.802 78.98 115.663 78.6212 115.735 78.6212Z" fill="#FAFAFA"/>
<path d="M115.735 78.6213C115.735 78.693 114.946 79.1235 113.941 79.5541C112.937 80.0563 112.076 80.4151 112.004 80.3433C112.004 80.2716 112.793 79.8411 113.798 79.4105C114.802 78.98 115.663 78.6213 115.735 78.6213Z" fill="#FAFAFA"/>
<path d="M129.512 84.2428C129.512 84.3145 128.723 84.7451 127.719 85.1756C126.714 85.6778 125.853 86.0366 125.781 85.9648C125.781 85.8931 126.571 85.4626 127.575 85.0321C128.58 84.6016 129.441 84.2428 129.512 84.2428Z" fill="#FAFAFA"/>
<path d="M142.352 82.5308C142.352 82.6026 141.563 83.0331 140.558 83.4636C139.554 83.9659 138.693 84.3246 138.621 84.2529C138.621 84.1811 139.41 83.7506 140.415 83.3201C141.419 82.8896 142.28 82.5308 142.352 82.5308Z" fill="#FAFAFA"/>
<path d="M113.798 73.4552C113.798 73.4552 113.511 73.2399 113.224 72.9529C112.866 72.5941 112.435 72.0919 112.005 71.4461C111.574 70.8003 111.215 70.2263 111 69.7958C110.785 69.3653 110.641 69.0783 110.713 69.0783C110.785 69.0783 111.359 70.1546 112.22 71.3744C113.009 72.5224 113.87 73.3834 113.798 73.4552Z" fill="#FAFAFA"/>
<path d="M113.798 73.4552C113.798 73.4552 113.511 73.2399 113.224 72.9529C112.866 72.5941 112.435 72.0919 112.005 71.4461C111.574 70.8003 111.215 70.2263 111 69.7958C110.785 69.3653 110.641 69.0783 110.713 69.0783C110.785 69.0783 111.359 70.1546 112.22 71.3744C113.009 72.5224 113.87 73.3834 113.798 73.4552Z" fill="#FAFAFA"/>
<path d="M117.673 73.5986C117.601 73.5986 117.96 72.8811 118.462 72.0201C118.964 71.159 119.395 70.5133 119.395 70.585C119.467 70.585 119.108 71.3025 118.606 72.1636C118.103 72.9528 117.673 73.5986 117.673 73.5986Z" fill="#FAFAFA"/>
<path d="M117.673 73.5986C117.601 73.5986 117.96 72.8811 118.462 72.0201C118.964 71.159 119.395 70.5133 119.395 70.585C119.467 70.585 119.108 71.3025 118.606 72.1636C118.103 72.9528 117.673 73.5986 117.673 73.5986Z" fill="#FAFAFA"/>
<path d="M131.449 79.2201C131.378 79.2201 131.736 78.5025 132.239 77.6415C132.741 76.7805 133.171 76.1347 133.171 76.2065C133.243 76.2065 132.884 76.924 132.382 77.785C131.88 78.5743 131.449 79.2201 131.449 79.2201Z" fill="#FAFAFA"/>
<path d="M144.289 77.5081C144.217 77.5081 144.576 76.7906 145.078 75.9296C145.58 75.0686 146.011 74.4228 146.011 74.4946C146.083 74.4946 145.724 75.2121 145.222 76.0731C144.719 76.8624 144.289 77.5081 144.289 77.5081Z" fill="#FAFAFA"/>
<path d="M117.026 67.715C116.955 67.715 117.098 66.567 116.955 65.2037C116.811 63.8404 116.524 62.6924 116.524 62.6924C116.524 62.6924 116.668 62.9794 116.811 63.4099C116.955 63.8404 117.098 64.4862 117.17 65.2037C117.242 65.9212 117.242 66.567 117.17 66.9975C117.098 67.428 117.026 67.715 117.026 67.715Z" fill="#FAFAFA"/>
<path d="M117.026 67.715C116.955 67.715 117.098 66.567 116.955 65.2037C116.811 63.8404 116.524 62.6924 116.524 62.6924C116.524 62.6924 116.668 62.9794 116.811 63.4099C116.955 63.8404 117.098 64.4862 117.17 65.2037C117.242 65.9212 117.242 66.567 117.17 66.9975C117.098 67.428 117.026 67.715 117.026 67.715Z" fill="#FAFAFA"/>
<path d="M116.021 97.0614C116.021 97.0614 116.021 96.6309 116.093 95.9851C116.165 95.3394 116.237 94.4066 116.308 93.4021C116.38 92.3976 116.38 91.4648 116.308 90.819C116.308 90.1732 116.308 89.7427 116.308 89.7427C116.308 89.7427 116.38 90.1732 116.452 90.819C116.524 91.4648 116.524 92.3976 116.452 93.4021C116.38 94.4066 116.308 95.3394 116.237 95.9851C116.165 96.6309 116.021 97.0614 116.021 97.0614Z" fill="#FAFAFA"/>
<path d="M116.021 97.0615C116.021 97.0615 116.021 96.631 116.093 95.9852C116.165 95.3394 116.237 94.4067 116.308 93.4021C116.38 92.3976 116.38 91.4648 116.308 90.8191C116.308 90.1733 116.308 89.7428 116.308 89.7428C116.308 89.7428 116.38 90.1733 116.452 90.8191C116.524 91.4648 116.524 92.3976 116.452 93.4021C116.38 94.4067 116.308 95.3394 116.237 95.9852C116.165 96.631 116.021 97.0615 116.021 97.0615Z" fill="#FAFAFA"/>
<path d="M129.799 102.683C129.799 102.683 129.799 102.252 129.871 101.607C129.943 100.961 130.014 100.028 130.086 99.0236C130.158 98.0191 130.158 97.0863 130.086 96.4405C130.086 95.7948 130.086 95.3643 130.086 95.3643C130.086 95.3643 130.158 95.7948 130.23 96.4405C130.301 97.0863 130.301 98.0191 130.23 99.0236C130.158 100.028 130.086 100.961 130.014 101.607C129.943 102.252 129.799 102.683 129.799 102.683Z" fill="#FAFAFA"/>
<path d="M142.639 100.971C142.639 100.971 142.639 100.541 142.711 99.8947C142.783 99.249 142.854 98.3162 142.926 97.3117C142.998 96.3072 142.998 95.3744 142.926 94.7286C142.926 94.0829 142.926 93.6523 142.926 93.6523C142.926 93.6523 142.998 94.0829 143.07 94.7286C143.141 95.3744 143.141 96.3072 143.07 97.3117C142.998 98.3162 142.926 99.249 142.854 99.8947C142.783 100.541 142.639 100.971 142.639 100.971Z" fill="#FAFAFA"/>
<path d="M114.874 106.174C114.802 106.246 114.3 105.456 113.295 104.739C112.363 104.021 111.43 103.734 111.502 103.662C111.502 103.591 112.434 103.878 113.439 104.524C114.372 105.241 114.874 106.102 114.874 106.174Z" fill="#FAFAFA"/>
<path d="M114.874 106.174C114.802 106.246 114.3 105.456 113.295 104.739C112.363 104.021 111.43 103.734 111.502 103.663C111.502 103.591 112.434 103.878 113.439 104.524C114.372 105.241 114.874 106.102 114.874 106.174Z" fill="#FAFAFA"/>
<path d="M105.978 113.779C105.906 113.779 105.188 112.703 104.256 111.268C103.394 109.833 102.677 108.685 102.749 108.685C102.82 108.685 103.538 109.761 104.471 111.196C105.332 112.56 106.049 113.708 105.978 113.779Z" fill="#FAFAFA"/>
<path d="M102.676 103.017C102.676 103.017 102.605 102.73 102.676 102.228C102.676 101.725 102.748 101.079 102.82 100.434C102.892 99.7162 103.035 99.0705 103.107 98.6399C103.179 98.2094 103.25 97.9224 103.322 97.9224C103.394 97.9224 103.179 99.0704 103.035 100.505C102.82 101.869 102.748 103.017 102.676 103.017Z" fill="#FAFAFA"/>
<path d="M97.2234 120.596C97.1517 120.668 96.2907 119.807 95.2144 118.802C94.1381 117.798 93.2771 116.865 93.2771 116.865C93.3489 116.793 94.2099 117.654 95.2861 118.659C96.3624 119.663 97.2234 120.524 97.2234 120.596Z" fill="#FAFAFA"/>
<path d="M99.8059 120.237C99.7341 120.237 99.7341 118.946 99.8059 117.367C99.8776 115.789 99.9494 114.497 100.021 114.497C100.093 114.497 100.093 115.789 100.021 117.367C99.9494 118.946 99.8776 120.237 99.8059 120.237Z" fill="#FAFAFA"/>
<path d="M104.183 131.646C104.183 131.646 103.752 131.43 103.035 131.143C102.317 130.856 101.312 130.498 100.164 130.282C99.0164 130.067 97.9402 129.924 97.1509 129.924C96.3616 129.924 95.8594 129.924 95.8594 129.924C95.8594 129.924 96.0029 129.924 96.2181 129.852C96.4334 129.852 96.7204 129.78 97.1509 129.78C97.9402 129.78 99.0164 129.852 100.164 130.067C101.312 130.282 102.389 130.641 103.106 131C103.465 131.143 103.752 131.287 103.967 131.43C104.111 131.574 104.183 131.574 104.183 131.646Z" fill="#FAFAFA"/>
<path d="M108.273 133.942C108.273 133.942 108.632 134.157 109.062 134.588C109.493 135.018 110.138 135.592 110.784 136.31C111.43 137.027 111.932 137.745 112.291 138.247C112.65 138.749 112.865 139.108 112.793 139.108C112.793 139.108 112.506 138.821 112.148 138.319C111.789 137.816 111.215 137.171 110.641 136.453C109.995 135.736 109.421 135.162 108.99 134.659C108.56 134.229 108.273 133.942 108.273 133.942Z" fill="#FAFAFA"/>
<path d="M111.358 114.928C111.286 114.928 110.928 113.923 110.569 112.703C110.138 111.483 109.923 110.479 109.923 110.407C109.995 110.407 110.354 111.412 110.712 112.632C111.143 113.851 111.43 114.856 111.358 114.928Z" fill="#FAFAFA"/>
<path d="M99.0893 76.6839C99.0893 76.6839 98.8741 76.8992 98.5153 77.2579C98.0848 77.6167 97.5108 77.9754 96.865 78.4059C96.1475 78.7647 95.5018 79.0517 95.0713 79.267C94.569 79.4105 94.282 79.554 94.282 79.4822C94.282 79.4105 95.43 78.98 96.7933 78.1907C98.0848 77.4732 99.0176 76.6839 99.0893 76.6839Z" fill="#FAFAFA"/>
<path d="M100.237 72.8811C100.165 72.8811 100.237 72.1636 100.308 71.2308C100.38 70.298 100.524 69.5805 100.596 69.5805C100.667 69.5805 100.596 70.298 100.524 71.2308C100.452 72.1636 100.309 72.8811 100.237 72.8811Z" fill="#FAFAFA"/>
<path d="M92.7038 75.6794C92.7038 75.7511 91.8428 75.3206 90.8383 74.8184C89.8338 74.2444 89.0445 73.8139 89.0445 73.7421C89.0445 73.6704 89.9055 74.1009 90.91 74.6031C91.9863 75.1054 92.7756 75.6076 92.7038 75.6794Z" fill="#FAFAFA"/>
<path d="M106.121 71.5178C106.049 71.5178 106.121 70.5851 106.336 69.5088C106.479 68.3608 106.695 67.4998 106.695 67.4998C106.766 67.4998 106.695 68.4325 106.479 69.5088C106.336 70.6568 106.192 71.5178 106.121 71.5178Z" fill="#FAFAFA"/>
<path d="M88.3258 83.2133C88.3258 83.285 87.3213 82.8545 86.3168 82.137C85.2405 81.4195 84.5947 80.6302 84.5947 80.6302C84.6665 80.5585 85.384 81.276 86.3885 81.9935C87.393 82.711 88.3258 83.1415 88.3258 83.2133Z" fill="#FAFAFA"/>
<path d="M83.3757 75.3206C83.4475 75.3924 82.6582 76.1099 81.6537 77.0427C80.7209 77.9754 79.8599 78.6929 79.8599 78.6212C79.7881 78.5494 80.5774 77.8319 81.5819 76.8992C82.5147 76.0381 83.304 75.3206 83.3757 75.3206Z" fill="#FAFAFA"/>
<path d="M83.3028 68.6478C83.3028 68.7195 82.5136 68.289 81.6525 67.5715C80.7915 66.854 80.2893 66.1364 80.361 66.1364C80.4328 66.0647 81.0068 66.7822 81.7961 67.428C82.6571 68.0737 83.3746 68.576 83.3028 68.6478Z" fill="#FAFAFA"/>
<path d="M79.788 69.7958C79.8598 69.8675 79.4293 70.298 78.927 70.8003C78.4247 71.3026 77.9942 71.7331 77.9225 71.6613C77.8507 71.5896 78.2812 71.1591 78.7835 70.6568C79.3575 70.1545 79.788 69.7958 79.788 69.7958Z" fill="#FAFAFA"/>
<path d="M87.9676 57.885C88.0394 57.9567 87.3219 58.746 86.3891 59.6788C85.4563 60.6115 84.7388 61.4008 84.6671 61.329C84.5953 61.2573 85.3128 60.468 86.2456 59.5353C87.1784 58.6025 87.9676 57.8132 87.9676 57.885Z" fill="#FAFAFA"/>
<path d="M81.5818 58.8895C81.5101 58.8895 80.8643 58.172 80.1468 57.1675C79.3575 56.163 78.7835 55.3737 78.8552 55.3019C78.927 55.3019 79.5728 56.0195 80.2903 57.024C81.0795 57.9567 81.6536 58.8178 81.5818 58.8895Z" fill="#FAFAFA"/>
<path d="M85.2409 51.0686C85.1691 51.0686 84.7386 50.2794 84.2363 49.2748C83.7341 48.2703 83.3753 47.4093 83.4471 47.4093C83.5188 47.4093 83.9493 48.1986 84.4516 49.2031C84.9539 50.2076 85.3126 51.0686 85.2409 51.0686Z" fill="#FAFAFA"/>
<path d="M85.4561 45.9025C85.3844 45.8307 86.0301 45.1849 86.5324 44.2522C87.0347 43.3194 87.2499 42.4584 87.3217 42.4584C87.3934 42.4584 87.2499 43.3911 86.7476 44.3239C86.1736 45.3284 85.4561 45.9742 85.4561 45.9025Z" fill="#FAFAFA"/>
<path d="M79.4288 45.2567C79.357 45.2567 79.4288 44.1804 80.0028 43.0324C80.2898 42.4584 80.7203 42.0279 81.0073 41.7409C81.2943 41.4539 81.5096 41.3104 81.5813 41.3104C81.6531 41.3821 80.7921 42.0279 80.218 43.1042C79.5723 44.1804 79.4288 45.2567 79.4288 45.2567Z" fill="#FAFAFA"/>
<path d="M132.954 39.9471C132.954 38.4403 132.882 36.8618 133.169 35.355C133.456 33.8482 134.03 32.3414 135.106 31.2652C136.183 30.1889 137.761 29.5431 139.268 29.8301C140.201 30.0454 141.062 30.5476 141.995 30.5476C143.071 30.6194 144.075 29.9736 145.08 29.6149C146.658 29.0409 148.452 28.9691 150.103 29.3996C150.964 29.6866 151.825 30.0454 152.399 30.7629C152.973 31.4087 153.26 32.4132 152.973 33.2742C154.049 33.346 155.197 33.4177 156.273 33.7765C157.349 34.1352 158.282 34.781 158.784 35.7855C159.287 36.79 159.143 38.0816 158.282 38.7991C159.287 38.6556 160.363 39.5166 160.507 40.5211C160.65 41.5256 160.076 42.6019 159.215 43.1759C158.354 43.7499 156.775 43.8935 155.771 43.6064C154.766 43.3194 153.618 42.9607 152.829 42.3149" fill="#313131"/>
<path d="M129.869 74.5314C134.031 75.8947 138.48 73.6704 139.843 69.5088C140.632 67.2128 141.278 65.2755 141.278 65.2755C141.278 65.2755 147.377 66.7105 149.745 61.0421C152.184 55.3738 156.561 41.8844 156.561 41.8844C151.108 36.3596 143.072 34.1353 135.609 36.2161L134.461 36.5031L124.775 64.4145C123.412 68.5761 125.636 73.1682 129.869 74.5314Z" fill="#FCDEBE"/>
<path d="M141.349 65.2037C141.349 65.2037 137.618 63.9839 134.748 60.0376C134.748 60.0376 134.82 64.845 140.704 66.7105L141.349 65.2037Z" fill="#E0B392"/>
<path d="M132.811 42.6738C132.739 42.602 129.366 39.8754 127.86 43.8218C126.353 47.7681 130.658 48.4139 130.73 48.3421C130.73 48.2704 132.811 42.6738 132.811 42.6738Z" fill="#FCDEBE"/>
<path d="M130.085 46.4049C130.085 46.4049 130.013 46.4049 129.869 46.4049C129.726 46.4049 129.511 46.4049 129.367 46.1896C129.008 45.9026 128.937 45.1133 129.152 44.3958C129.295 44.0371 129.511 43.7501 129.726 43.4631C129.941 43.2478 130.228 43.1043 130.443 43.1043C130.659 43.1043 130.802 43.3195 130.802 43.4631C130.802 43.6066 130.73 43.6783 130.802 43.6783C130.802 43.6783 130.946 43.6783 130.946 43.4631C130.946 43.3913 130.946 43.2478 130.874 43.176C130.802 43.0325 130.659 42.9608 130.515 42.9608C130.228 42.889 129.798 43.0325 129.582 43.3195C129.295 43.6066 129.08 43.8936 128.937 44.3241C128.65 45.1133 128.793 46.0461 129.295 46.4049C129.511 46.5484 129.798 46.5484 129.941 46.5484C130.013 46.5484 130.085 46.4049 130.085 46.4049Z" fill="#E8B792"/>
<path d="M151.036 49.9207C150.893 50.3512 150.39 50.5664 149.888 50.4229C149.458 50.2794 149.171 49.7772 149.386 49.3466C149.529 48.9161 150.032 48.7009 150.534 48.8444C150.964 48.9879 151.251 49.4901 151.036 49.9207Z" fill="#313131"/>
<path d="M142.425 46.4048C142.282 46.8353 141.779 47.0506 141.277 46.9071C140.847 46.7635 140.56 46.2613 140.703 45.8308C140.847 45.4003 141.349 45.185 141.851 45.3285C142.354 45.472 142.641 45.9743 142.425 46.4048Z" fill="#313131"/>
<path d="M144.004 53.867C144.004 53.7952 144.578 53.9387 145.511 54.2257C145.726 54.2975 145.941 54.3692 146.085 54.2257C146.228 54.0822 146.228 53.7952 146.228 53.5082C146.228 52.8624 146.228 52.2167 146.3 51.4992C146.372 48.7008 146.515 46.4048 146.659 46.4048C146.802 46.4048 146.802 48.7008 146.731 51.4992C146.731 52.2167 146.659 52.8624 146.659 53.5082C146.659 53.7952 146.659 54.154 146.444 54.441C146.3 54.5845 146.085 54.6562 145.941 54.5845C145.798 54.5845 145.654 54.5127 145.511 54.5127C144.578 54.154 144.004 53.9387 144.004 53.867Z" fill="#E8B792"/>
<path d="M141.206 53.4364C141.35 53.5082 140.991 54.441 141.493 55.4455C141.996 56.45 143.072 56.737 143.072 56.8805C143.072 56.9523 142.785 56.9523 142.354 56.8088C141.924 56.6653 141.35 56.2348 141.063 55.6608C140.704 55.015 140.776 54.3692 140.848 54.0105C140.919 53.58 141.135 53.3647 141.206 53.4364Z" fill="#E8B792"/>
<path d="M152.47 47.7681C152.255 47.9116 151.681 47.4811 150.964 47.1223C150.246 46.7635 149.6 46.6918 149.529 46.4048C149.529 46.2613 149.672 46.1178 150.031 46.046C150.39 45.9743 150.892 45.9743 151.394 46.1895C151.896 46.4048 152.255 46.7635 152.399 47.0505C152.614 47.4811 152.614 47.6963 152.47 47.7681Z" fill="#313131"/>
<path d="M143.646 42.4584C143.502 42.5302 143.287 42.3867 143 42.2432C142.713 42.0279 142.354 41.8127 141.996 41.6692C141.565 41.4539 141.206 41.3822 140.848 41.3104C140.561 41.2387 140.274 41.1669 140.274 41.0234C140.202 40.8799 140.417 40.6646 140.848 40.5211C141.278 40.3776 141.852 40.3776 142.426 40.6646C143 40.9516 143.431 41.3822 143.574 41.7409C143.861 42.0997 143.789 42.3867 143.646 42.4584Z" fill="#313131"/>
<path d="M156.13 43.7499C156.13 43.7499 151.753 43.4629 147.95 39.8753C145.439 37.5075 142.282 35.7855 141.349 36.1442C140.416 36.503 139.34 39.5166 136.183 39.5166C136.183 39.5166 134.676 45.3285 132.452 44.4674C130.228 43.6064 134.318 35.068 134.318 35.068L140.775 33.9917L147.233 34.6375L152.973 36.3595L157.852 39.5883L156.13 43.7499Z" fill="#313131"/>
<path d="M110.119 164.571L59.0673 164.34C52.9284 164.315 47.9743 159.324 48.0001 153.204L48.541 25.6135C48.5668 19.4848 53.5723 14.5458 59.7112 14.5715L110.763 14.8026C116.902 14.8283 121.856 19.8186 121.83 25.9388L121.289 153.529C121.263 159.65 116.258 164.597 110.119 164.571Z" fill="#313131"/>
<path d="M110.265 18.3891L100.365 18.3463C99.0346 18.3378 97.9614 19.4591 97.9528 20.8372L97.9442 22.6262C97.9356 24.0129 96.8538 25.1256 95.5316 25.1171L76.2392 25.0315C74.9084 25.0229 73.8437 23.9016 73.8437 22.5149L73.8523 20.7259C73.8609 19.3393 72.7877 18.218 71.4568 18.2094L67.9796 18.1923L59.3165 18.1495C55.0149 18.1324 51.5119 21.5905 51.4947 25.8789L50.9624 150.422C50.9452 154.711 54.4139 158.203 58.7154 158.22L109.664 158.451C113.965 158.468 117.468 155.01 117.486 150.722L118.018 26.1785C118.035 21.8986 114.566 18.4063 110.265 18.3891Z" fill="#FAFAFA"/>
<path d="M118.122 130.574L122.498 128.781L120.633 121.677L115.539 120.17C115.036 120.027 114.534 119.883 113.96 119.668C113.242 119.453 112.668 119.094 112.094 118.592C111.377 118.018 110.516 117.3 110.157 116.726C109.727 116.009 108.65 116.224 108.579 116.942C108.507 117.659 109.727 119.596 111.951 121.103C114.175 122.538 110.014 122.969 108.507 123.112C107 123.256 102.408 123.973 102.049 124.476C101.619 125.193 102.336 125.839 103.843 125.624C105.35 125.408 109.87 125.121 109.942 125.982C109.153 127.059 109.081 128.637 109.87 129.713C110.659 130.79 111.807 132.225 112.74 132.081C114.534 131.866 118.122 130.574 118.122 130.574Z" fill="#FCDEBE"/>
<path d="M118.696 118.377L121.781 132.153L153.496 124.763C160.312 123.184 164.474 116.296 162.752 109.479L156.653 85.2274L139.791 88.241L147.468 110.771L118.696 118.377Z" fill="#268C44"/>
<path d="M134.364 119.013C134.364 119.013 134.006 119.229 133.432 119.587C132.858 119.946 132.068 120.448 131.279 121.022C130.418 121.596 129.701 122.17 129.198 122.529C128.696 122.96 128.337 123.175 128.337 123.175C128.337 123.175 128.624 122.888 129.127 122.457C129.629 122.027 130.346 121.453 131.207 120.879C132.068 120.305 132.858 119.803 133.432 119.516C133.934 119.157 134.364 118.942 134.364 119.013Z" fill="#FAFAFA"/>
<path d="M142.925 119.013C142.925 119.013 142.566 119.229 141.992 119.587C141.418 119.946 140.629 120.448 139.84 121.022C138.979 121.596 138.261 122.17 137.759 122.529C137.257 122.96 136.898 123.175 136.898 123.175C136.898 123.175 137.185 122.888 137.687 122.457C138.189 122.027 138.907 121.453 139.768 120.879C140.629 120.305 141.418 119.803 141.992 119.516C142.494 119.157 142.925 118.942 142.925 119.013Z" fill="#FAFAFA"/>
<path d="M150.341 100.859C150.27 100.859 149.767 99.8542 148.978 98.7062C148.189 97.5582 147.471 96.6254 147.543 96.6254C147.543 96.6254 147.758 96.8407 148.045 97.1994C148.332 97.5582 148.763 98.0605 149.122 98.6345C149.48 99.2085 149.839 99.7825 150.054 100.213C150.27 100.572 150.341 100.859 150.341 100.859Z" fill="#FAFAFA"/>
<path d="M153.354 89.3785C153.354 89.4503 152.565 89.8808 151.56 90.3113C150.556 90.8136 149.695 91.1723 149.623 91.1006C149.623 91.0288 150.412 90.5983 151.417 90.1678C152.421 89.7373 153.283 89.3785 153.354 89.3785Z" fill="#FAFAFA"/>
<path d="M153.641 107.819C153.641 107.819 153.641 107.388 153.713 106.742C153.785 106.097 153.857 105.164 153.928 104.159C154 103.155 154 102.222 153.928 101.576C153.928 100.931 153.928 100.5 153.928 100.5C153.928 100.5 154 100.931 154.072 101.576C154.144 102.222 154.144 103.155 154.072 104.159C154 105.164 153.928 106.097 153.857 106.742C153.785 107.388 153.641 107.819 153.641 107.819Z" fill="#FAFAFA"/>
<path d="M154.285 124.547C154.285 124.547 154.213 124.547 154.141 124.619C153.998 124.619 153.854 124.691 153.711 124.763C153.28 124.834 152.706 124.978 151.917 125.193C150.339 125.552 148.114 126.126 145.244 126.772C139.504 128.135 131.468 130 122.14 132.153H122.068V132.081C120.92 127.848 119.916 123.184 118.696 118.448V118.377H118.768C119.055 118.305 119.27 118.233 119.557 118.161C130.176 115.435 139.935 112.852 147.612 110.843L147.54 110.914C145.675 105.461 144.168 100.941 143.163 97.8557C142.661 96.2771 142.231 95.0574 141.944 94.2681C141.8 93.8376 141.728 93.5506 141.657 93.3353C141.585 93.1201 141.585 92.9766 141.585 92.9766C141.585 92.9766 141.657 93.0483 141.728 93.2636C141.8 93.4788 141.944 93.7658 142.087 94.1963C142.374 95.0574 142.805 96.2054 143.307 97.7839C144.383 100.869 145.89 105.39 147.755 110.843V110.914H147.684C140.006 112.924 130.248 115.507 119.629 118.233C119.342 118.305 119.055 118.377 118.84 118.448L118.911 118.305C120.131 123.112 121.207 127.704 122.284 131.938L122.14 131.866C131.468 129.713 139.576 127.848 145.244 126.556C148.114 125.911 150.339 125.408 151.917 125.05C152.706 124.906 153.28 124.763 153.711 124.619C153.926 124.547 154.07 124.547 154.141 124.547C154.213 124.547 154.285 124.547 154.285 124.547Z" fill="white"/>
<path d="M153.065 115.148C153.065 115.148 152.85 114.789 152.491 114.215C152.133 113.641 151.487 112.995 150.698 112.35C149.908 111.704 149.047 111.345 148.402 111.13C147.756 110.914 147.397 110.843 147.397 110.771C147.397 110.771 147.469 110.771 147.684 110.771C147.899 110.771 148.114 110.843 148.473 110.986C149.119 111.202 149.98 111.56 150.841 112.206C151.63 112.852 152.276 113.569 152.635 114.143C152.85 114.43 152.922 114.646 152.994 114.861C152.994 115.004 153.065 115.148 153.065 115.148Z" fill="white"/>
<g opacity="0.2">
<g opacity="0.2">
<path opacity="0.2" d="M147.325 110.197C148.975 110.484 150.626 110.771 152.276 111.058C152.85 111.202 153.424 111.273 153.926 111.56C154.428 111.847 154.931 112.278 155.074 112.852C155.218 113.426 155.002 114.072 154.5 114.359C154.07 114.574 153.424 114.502 152.993 114.215C152.563 113.928 152.204 113.498 151.845 113.139C151.128 112.493 150.267 111.991 149.406 111.632C148.975 111.489 148.545 111.345 148.186 111.13C147.827 110.843 147.612 110.412 147.755 109.982" fill="black"/>
</g>
</g>
<path d="M58.0972 31.6224C58.0457 31.6224 57.9942 31.6053 57.9513 31.5625L57.1786 30.7579C57.1442 30.7151 57.1185 30.6637 57.1185 30.6123C57.1185 30.561 57.1442 30.5096 57.1786 30.4668L57.9513 29.7307C58.0286 29.6537 58.1573 29.6537 58.2346 29.7393C58.3119 29.8163 58.3119 29.9447 58.226 30.0217L57.5993 30.6209L58.2346 31.28C58.3119 31.357 58.3119 31.4854 58.226 31.5625C58.1917 31.6053 58.1487 31.6224 58.0972 31.6224Z" fill="#1A2E35"/>
<path d="M105.482 86.4557C105.164 85.3429 103.714 85.4542 103.714 85.4542L103.756 86.2246C104.598 86.0791 105.113 87.0634 105.113 87.0634L105.482 86.4557Z" fill="#F6921E"/>
<path d="M70.5213 73.4108C70.2036 72.298 68.7526 72.4093 68.7526 72.4093L68.7956 73.1796C69.637 73.0341 70.1521 74.0185 70.1521 74.0185L70.5213 73.4108Z" fill="#E1E1E1"/>
<path d="M92.7499 54.7592C94.4327 55.2642 95.4802 53.3297 95.4802 53.3297L94.4584 52.7562C93.9605 53.9375 92.2776 53.8005 92.2776 53.8005L92.7499 54.7592Z" fill="#E1E1E1"/>
<path d="M66.9406 87.7396C66.1593 87.8252 66.0649 88.801 66.0649 88.801L66.5886 88.8609C66.5886 88.2874 67.3012 88.0478 67.3012 88.0478L66.9406 87.7396Z" fill="#F6921E"/>
<path d="M110.823 70.8514C110.935 70.0724 110.007 69.7386 110.007 69.7386L109.818 70.2265C110.377 70.372 110.428 71.1167 110.428 71.1167L110.823 70.8514Z" fill="#E1E1E1"/>
<path d="M80.9616 54.9048C81.0732 54.1258 80.1459 53.792 80.1459 53.792L79.957 54.2799C80.5151 54.4254 80.5666 55.1701 80.5666 55.1701L80.9616 54.9048Z" fill="#F6921E"/>
<path d="M56.234 72.7089C56.0966 73.9244 57.7108 74.2239 57.7108 74.2239L58.0027 73.4279C57.0325 73.3423 56.8951 72.2039 56.8951 72.2039L56.234 72.7089Z" fill="#F6921E"/>
<path d="M96.1756 68.857C96.9655 68.8998 97.2145 67.9497 97.2145 67.9497L96.7079 67.8041C96.6135 68.3691 95.8665 68.4889 95.8665 68.4889L96.1756 68.857Z" fill="#F6921E"/>
<path d="M102.915 61.7353C102.915 61.7696 102.623 61.7953 102.263 61.7953C101.902 61.7953 101.61 61.7696 101.61 61.7353C101.61 61.7011 101.902 61.6754 102.263 61.6754C102.632 61.6754 102.915 61.7011 102.915 61.7353Z" fill="#E1E1E1"/>
<path d="M103.611 59.9806C103.646 59.9806 103.671 60.2716 103.671 60.6397C103.671 60.9992 103.646 61.2988 103.611 61.2988C103.577 61.2988 103.551 61.0078 103.551 60.6397C103.543 60.2716 103.577 59.9806 103.611 59.9806Z" fill="#E1E1E1"/>
<path d="M104.341 61.6925C104.341 61.6583 104.633 61.6326 104.993 61.6326C105.354 61.6326 105.646 61.6583 105.646 61.6925C105.646 61.7268 105.354 61.7525 104.993 61.7525C104.633 61.761 104.341 61.7268 104.341 61.6925Z" fill="#E1E1E1"/>
<path d="M103.654 63.4558C103.619 63.4558 103.594 63.1648 103.594 62.7967C103.594 62.4372 103.619 62.1376 103.654 62.1376C103.688 62.1376 103.714 62.4287 103.714 62.7967C103.714 63.1648 103.688 63.4558 103.654 63.4558Z" fill="#E1E1E1"/>
<path d="M104.701 62.7025C104.675 62.7282 104.546 62.6169 104.417 62.4714C104.289 62.3173 104.211 62.1804 104.237 62.1547C104.263 62.129 104.392 62.2403 104.52 62.3858C104.649 62.5399 104.726 62.6768 104.701 62.7025Z" fill="#E1E1E1"/>
<path d="M104.641 60.7082C104.667 60.7338 104.581 60.8622 104.443 60.9906C104.315 61.1276 104.186 61.2132 104.16 61.1875C104.134 61.1618 104.22 61.0334 104.357 60.905C104.486 60.7681 104.615 60.6825 104.641 60.7082Z" fill="#E1E1E1"/>
<path d="M103.156 61.2132C103.13 61.2389 103.01 61.1789 102.89 61.0762C102.761 60.9735 102.684 60.8622 102.701 60.8366C102.727 60.8109 102.847 60.8708 102.967 60.9735C103.096 61.0762 103.173 61.1875 103.156 61.2132Z" fill="#E1E1E1"/>
<path d="M103.096 62.0949C103.122 62.1206 103.044 62.2404 102.924 62.3773C102.804 62.5057 102.684 62.5999 102.658 62.5742C102.632 62.5485 102.709 62.4287 102.83 62.2917C102.95 62.1548 103.07 62.0692 103.096 62.0949Z" fill="#E1E1E1"/>
<path d="M68.1599 59.3815C68.1599 59.4157 67.8679 59.4414 67.5073 59.4414C67.1467 59.4414 66.8548 59.4157 66.8548 59.3815C66.8548 59.3473 67.1467 59.3216 67.5073 59.3216C67.8679 59.3216 68.1599 59.3473 68.1599 59.3815Z" fill="#F6921E"/>
<path d="M68.8465 57.6268C68.8808 57.6268 68.9066 57.9178 68.9066 58.2859C68.9066 58.6454 68.8808 58.945 68.8465 58.945C68.8121 58.945 68.7864 58.6539 68.7864 58.2859C68.7778 57.9178 68.8121 57.6268 68.8465 57.6268Z" fill="#F6921E"/>
<path d="M69.577 59.3387C69.577 59.3045 69.8689 59.2788 70.2295 59.2788C70.5901 59.2788 70.882 59.3045 70.882 59.3387C70.882 59.373 70.5901 59.3986 70.2295 59.3986C69.8689 59.4072 69.577 59.373 69.577 59.3387Z" fill="#F6921E"/>
<path d="M68.89 61.102C68.8557 61.102 68.8299 60.811 68.8299 60.4429C68.8299 60.0834 68.8557 59.7838 68.89 59.7838C68.9243 59.7838 68.9501 60.0748 68.9501 60.4429C68.9501 60.811 68.9243 61.102 68.89 61.102Z" fill="#F6921E"/>
<path d="M69.9375 60.3487C69.9118 60.3744 69.783 60.2631 69.6542 60.1176C69.5254 59.9635 69.4481 59.8266 69.4739 59.8009C69.4996 59.7752 69.6284 59.8865 69.7572 60.032C69.886 60.1861 69.9633 60.323 69.9375 60.3487Z" fill="#F6921E"/>
<path d="M69.8773 58.3543C69.903 58.38 69.8172 58.5084 69.6798 58.6368C69.551 58.7738 69.4222 58.8594 69.3965 58.8337C69.3707 58.808 69.4566 58.6796 69.5939 58.5512C69.7227 58.4143 69.8515 58.3287 69.8773 58.3543Z" fill="#F6921E"/>
<path d="M68.3924 58.8594C68.3667 58.885 68.2465 58.8251 68.1263 58.7224C67.9975 58.6197 67.9202 58.5084 67.9374 58.4827C67.9631 58.4571 68.0833 58.517 68.2035 58.6197C68.3323 58.7224 68.4096 58.8337 68.3924 58.8594Z" fill="#F6921E"/>
<path d="M68.3314 59.741C68.3571 59.7667 68.2799 59.8865 68.1597 60.0235C68.0395 60.1519 67.9193 60.246 67.8935 60.2203C67.8677 60.1947 67.945 60.0748 68.0652 59.9379C68.1854 59.8009 68.3056 59.7153 68.3314 59.741Z" fill="#F6921E"/>
<path d="M112.532 29.4568C112.532 29.5167 111.252 29.5595 109.664 29.5595C108.084 29.5595 106.796 29.5081 106.796 29.4568C106.796 29.3969 108.075 29.3541 109.664 29.3541C111.244 29.3541 112.532 29.3969 112.532 29.4568Z" fill="#1A2E35"/>
<path d="M112.531 30.6466C112.531 30.7065 111.252 30.7493 109.663 30.7493C108.084 30.7493 106.796 30.698 106.796 30.6466C106.796 30.5867 108.075 30.5439 109.663 30.5439C111.243 30.5439 112.531 30.5867 112.531 30.6466Z" fill="#1A2E35"/>
<path d="M112.531 31.8364C112.531 31.8963 111.252 31.9391 109.663 31.9391C108.084 31.9391 106.796 31.8878 106.796 31.8364C106.796 31.7765 108.075 31.7337 109.663 31.7337C111.243 31.7337 112.531 31.7765 112.531 31.8364Z" fill="#1A2E35"/>
<path d="M93.9367 71.3506H73.9641C72.3883 71.3506 71.1109 72.628 71.1109 74.2038V84.1901C71.1109 85.7659 72.3883 87.0433 73.9641 87.0433H93.9367C95.5125 87.0433 96.7899 85.7659 96.7899 84.1901V74.2038C96.7899 72.628 95.5125 71.3506 93.9367 71.3506Z" stroke="#27AE60" stroke-width="3" stroke-linecap="round" stroke-linejoin="round"/>
<path d="M76.8172 71.3506V65.6441C76.8172 63.7523 77.5687 61.938 78.9064 60.6003C80.2441 59.2626 82.0585 58.511 83.9503 58.511C85.8421 58.511 87.6564 59.2626 88.9941 60.6003C90.3318 61.938 91.0833 63.7523 91.0833 65.6441V71.3506" stroke="#27AE60" stroke-width="3" stroke-linecap="round" stroke-linejoin="round"/>
<ellipse cx="76.9961" cy="78.6619" rx="1.60494" ry="1.60494" fill="#F6921E"/>
<circle cx="83.4159" cy="78.6619" r="1.60494" fill="#F6921E"/>
<ellipse cx="89.8357" cy="78.6619" rx="1.60494" ry="1.60494" fill="#F6921E"/>
<path d="M78.4431 113.763C78.4431 114.585 78.2451 115.355 77.8491 116.073C77.4677 116.792 76.8591 117.371 76.0231 117.811C75.2017 118.251 74.1604 118.471 72.8991 118.471H70.3251V124.367H67.2451V109.011H72.8991C74.0871 109.011 75.0991 109.217 75.9351 109.627C76.7711 110.038 77.3944 110.603 77.8051 111.321C78.2304 112.04 78.4431 112.854 78.4431 113.763ZM72.7671 115.985C73.6177 115.985 74.2484 115.795 74.6591 115.413C75.0697 115.017 75.2751 114.467 75.2751 113.763C75.2751 112.267 74.4391 111.519 72.7671 111.519H70.3251V115.985H72.7671ZM83.7098 109.011V124.367H80.6298V109.011H83.7098ZM99.8869 124.367H96.8069L89.8329 113.829V124.367H86.7529V108.989H89.8329L96.8069 119.549V108.989H99.8869V124.367Z" fill="black"/>
<defs>
<linearGradient id="paint0_linear_1154_8811" x1="90" y1="0" x2="90" y2="180" gradientUnits="userSpaceOnUse">
<stop stop-color="#E3FAE8"/>
<stop offset="1" stop-color="#E3FAE8" stop-opacity="0"/>
</linearGradient>
</defs>
</svg>
