<svg width="80" height="80" viewBox="0 0 80 80" fill="none" xmlns="http://www.w3.org/2000/svg">
<circle cx="40" cy="40" r="40" fill="url(#paint0_linear_1154_8797)"/>
<path d="M47 44.7375H33C31.8954 44.7375 31 45.6243 31 46.7181V53.6501C31 54.7439 31.8954 55.6306 33 55.6306H47C48.1046 55.6306 49 54.7439 49 53.6501V46.7181C49 45.6243 48.1046 44.7375 47 44.7375Z" stroke="#F7941D" stroke-linecap="round" stroke-linejoin="round"/>
<path d="M35 44.7378V40.7767C35 39.4635 35.5268 38.2041 36.4645 37.2755C37.4021 36.3469 38.6739 35.8253 40 35.8253C41.3261 35.8253 42.5978 36.3469 43.5355 37.2755C44.4732 38.2041 45 39.4635 45 40.7767V44.7378" stroke="#F7941D" stroke-linecap="round" stroke-linejoin="round"/>
<rect x="36" y="49.8447" width="8" height="1" fill="#208E44"/>
<path d="M36.3264 78.533L39.5023 79.9035C39.7991 80.0316 40.137 80.0323 40.4345 79.9048L44.013 78.3744C56.5777 73.1487 64.7519 60.9703 64.7533 47.4751V31.5774C64.7533 31.1489 64.5146 30.7546 64.1329 30.5533L40.6018 18.1366C40.2527 17.9521 39.8344 17.9547 39.4879 18.1431L16.608 30.5598C16.2327 30.7637 16 31.1534 16 31.5774V47.7968C16.0137 61.1295 23.9905 73.1915 36.3264 78.533ZM18.343 32.2643L40.0586 20.4782L62.4103 32.2727V47.4751C62.4077 60.04 54.795 71.3775 43.0958 76.24L43.0873 76.2438L39.9716 77.5761L37.2639 76.4063C25.7811 71.4345 18.3554 60.2077 18.3423 47.7968L18.343 32.2643Z" fill="#208E44"/>
<defs>
<linearGradient id="paint0_linear_1154_8797" x1="40" y1="0" x2="40" y2="80" gradientUnits="userSpaceOnUse">
<stop stop-color="#E3FAE8"/>
<stop offset="1" stop-color="#E3FAE8" stop-opacity="0"/>
</linearGradient>
</defs>
</svg>
