<svg width="40" height="40" viewBox="0 0 40 40" fill="none" xmlns="http://www.w3.org/2000/svg">
<circle cx="20" cy="20" r="20" fill="url(#paint0_linear_2423_11114)"/>
<path fill-rule="evenodd" clip-rule="evenodd" d="M7.99998 12.8333C6.80336 12.8333 5.83331 13.8033 5.83331 14.9999V30.9999C5.83331 32.1965 6.80336 33.1666 7.99998 33.1666H32C33.1966 33.1666 34.1666 32.1965 34.1666 30.9999V14.9999C34.1666 13.8033 33.1966 12.8333 32 12.8333H7.99998ZM4.83331 14.9999C4.83331 13.251 6.25108 11.8333 7.99998 11.8333H32C33.7489 11.8333 35.1666 13.251 35.1666 14.9999V30.9999C35.1666 32.7488 33.7489 34.1666 32 34.1666H7.99998C6.25108 34.1666 4.83331 32.7488 4.83331 30.9999V14.9999Z" fill="#208E44"/>
<path fill-rule="evenodd" clip-rule="evenodd" d="M4.83331 20.3333C4.83331 20.0571 5.05717 19.8333 5.33331 19.8333H34.6666C34.9428 19.8333 35.1666 20.0571 35.1666 20.3333C35.1666 20.6094 34.9428 20.8333 34.6666 20.8333H5.33331C5.05717 20.8333 4.83331 20.6094 4.83331 20.3333Z" fill="#208E44"/>
<rect x="7" y="25" width="20" height="1" fill="#F7941D"/>
<rect x="7" y="28" width="11" height="1" fill="#F7941D"/>
<defs>
<linearGradient id="paint0_linear_2423_11114" x1="20" y1="0" x2="20" y2="40" gradientUnits="userSpaceOnUse">
<stop stop-color="#E3FAE8"/>
<stop offset="1" stop-color="#E3FAE8" stop-opacity="0"/>
</linearGradient>
</defs>
</svg>
