<svg width="360" height="237" viewBox="0 0 360 237" fill="none" xmlns="http://www.w3.org/2000/svg">
<path d="M0 0H360V177C360 210.137 333.137 237 300 237H60C26.8629 237 0 210.137 0 177V0Z" fill="#C9EDD1"/>
<path d="M137 196.236C79.4 193.202 22 151.048 0.5 130.35L0 129.876L0.318792 84.846L0.5 59.25L0 0H0.5H360V116.13C358.833 115.182 348.9 116.699 318.5 130.35C280.5 147.414 209 200.028 137 196.236Z" fill="url(#paint0_linear_61_6943)"/>
<path d="M223 196.041C280.6 193.01 338 150.883 359.5 130.198L360 129.724L359.681 84.7234L359.5 59.144L360 0H359.5H0V115.987C1.16666 115.04 11.1 116.556 41.5 130.198C79.5 147.251 151 199.831 223 196.041Z" fill="url(#paint1_linear_61_6943)"/>
<defs>
<linearGradient id="paint0_linear_61_6943" x1="180" y1="0" x2="180" y2="237.474" gradientUnits="userSpaceOnUse">
<stop stop-color="#27AE60"/>
<stop offset="1" stop-color="#27AE60" stop-opacity="0"/>
</linearGradient>
<linearGradient id="paint1_linear_61_6943" x1="180" y1="-5.68801" x2="180" y2="232.042" gradientUnits="userSpaceOnUse">
<stop offset="0.364463" stop-color="#27AE60"/>
<stop offset="1" stop-color="#27AE60" stop-opacity="0"/>
</linearGradient>
</defs>
</svg>
