<svg width="48" height="48" viewBox="0 0 48 48" fill="none" xmlns="http://www.w3.org/2000/svg">
<circle cx="24" cy="24" r="24" fill="url(#paint0_linear_1953_13508)"/>
<path d="M23.7099 16.0765L23.3063 15.4443L22.4993 14.1799L22.1894 13.6945C21.4691 12.566 19.9702 12.2351 18.8417 12.9555L18.7807 12.9944C17.7021 13.6829 17.3725 15.1077 18.0391 16.2V16.2" stroke="#F89521" stroke-width="1.5"/>
<path d="M23.549 16.0847L24.8351 15.0278L28.192 12.2692C29.1794 11.4578 30.6376 11.6005 31.449 12.5879V12.5879C32.3018 13.6256 32.0948 15.169 30.9987 15.9454L30.6391 16.2" stroke="#F89521" stroke-width="1.5"/>
<path d="M15.6 38.4001C14.4 34.8001 15 27.0001 18 21.6001H12V35.289C12 37.2801 14.2667 38.1927 15.6 38.4001Z" fill="#C9F2D2"/>
<path d="M36 21.8251V23.1001V28.2001V35.4001C36 37.0569 34.6569 38.4001 33 38.4001H15C13.3431 38.4001 12 37.0569 12 35.4001V28.2001V23.1001V21.8251" stroke="#208E44" stroke-width="1.5"/>
<path d="M10.95 18.6001C10.95 17.3575 11.9574 16.3501 13.2 16.3501H34.8C36.0427 16.3501 37.05 17.3575 37.05 18.6001V21.7501H10.95V18.6001Z" stroke="#208E44" stroke-width="1.5"/>
<rect x="21.75" y="16.75" width="4.5" height="21.5" stroke="#208E44" stroke-width="1.5"/>
<defs>
<linearGradient id="paint0_linear_1953_13508" x1="24" y1="0" x2="24" y2="48" gradientUnits="userSpaceOnUse">
<stop stop-color="#E3FAE8"/>
<stop offset="1" stop-color="#E3FAE8" stop-opacity="0"/>
</linearGradient>
</defs>
</svg>
