<svg width="40" height="40" viewBox="0 0 40 40" fill="none" xmlns="http://www.w3.org/2000/svg">
<circle cx="20" cy="20" r="20" fill="url(#paint0_linear_1227_30776)"/>
<path d="M16.5811 27.2589C19.2609 29.9387 25.7664 27.766 31.1198 22.4126C31.0584 23.0665 31.1425 23.7259 31.3659 24.3435C31.5894 24.9611 31.9468 25.5215 32.4124 25.9848C32.878 26.448 33.4403 26.8024 34.059 27.0227C34.6778 27.243 35.3376 27.3236 35.9911 27.2589C34.7175 28.5349 33.2047 29.5472 31.5394 30.2379C29.8741 30.9286 28.089 31.2841 26.2861 31.2841C24.4832 31.2841 22.6981 30.9286 21.0328 30.2379C19.3674 29.5472 17.8547 28.5349 16.5811 27.2589Z" fill="#C9F2D2"/>
<path d="M21.4336 12.7141C21.3635 13.3717 21.4432 14.0365 21.6665 14.659C21.8899 15.2814 22.2512 15.8452 22.7234 16.3081C23.1857 16.7683 23.7448 17.1196 24.3601 17.3362C24.9753 17.5529 25.6312 17.6294 26.2798 17.5604L16.5811 27.2591C13.9012 24.5793 16.0739 18.0738 21.4273 12.7204L21.4336 12.7141Z" fill="#C9F2D2"/>
<path d="M11.9981 11.4431C12.315 11.1261 12.5309 10.7222 12.6183 10.2826C12.7057 9.84292 12.6608 9.38721 12.4892 8.97307C12.3176 8.55893 12.0271 8.20497 11.6544 7.95593C11.2817 7.7069 10.8435 7.57397 10.3952 7.57397C9.94692 7.57397 9.50872 7.7069 9.13599 7.95593C8.76326 8.20497 8.47274 8.55893 8.30118 8.97307C8.12961 9.38721 8.08469 9.84292 8.17211 10.2826C8.25953 10.7222 8.47535 11.1261 8.7923 11.4431C8.82272 11.4735 8.85884 11.4977 8.89859 11.5141C8.93834 11.5306 8.98094 11.5391 9.02396 11.5391C9.06699 11.5391 9.10959 11.5306 9.14934 11.5141C9.18909 11.4977 9.22521 11.4735 9.25563 11.4431C9.28606 11.4127 9.31019 11.3766 9.32665 11.3368C9.34312 11.2971 9.35159 11.2545 9.35159 11.2115C9.35159 11.1684 9.34312 11.1258 9.32665 11.0861C9.31019 11.0463 9.28606 11.0102 9.25563 10.9798C9.02894 10.7542 8.87433 10.4663 8.81138 10.1528C8.74842 9.83921 8.77996 9.51401 8.90201 9.21838C9.02405 8.92276 9.2311 8.67001 9.49692 8.49217C9.76274 8.31432 10.0754 8.21939 10.3952 8.21939C10.715 8.21939 11.0276 8.31432 11.2935 8.49217C11.5593 8.67001 11.7663 8.92276 11.8884 9.21838C12.0104 9.51401 12.042 9.83921 11.979 10.1528C11.9161 10.4663 11.7614 10.7542 11.5348 10.9798L5.51137 17.0032C5.4807 17.0335 5.45635 17.0695 5.43973 17.1093C5.42311 17.1491 5.41455 17.1917 5.41455 17.2348C5.41455 17.2779 5.42311 17.3206 5.43973 17.3604C5.45635 17.4002 5.4807 17.4362 5.51137 17.4665C5.57334 17.5269 5.65647 17.5608 5.74303 17.5608C5.82959 17.5608 5.91273 17.5269 5.9747 17.4665L11.9981 11.4431Z" fill="#F7941D"/>
<path d="M10.3199 22.075C10.6368 21.758 10.8526 21.3541 10.9401 20.9144C11.0275 20.4748 10.9826 20.019 10.811 19.6049C10.6394 19.1908 10.3489 18.8368 9.97619 18.5878C9.60346 18.3387 9.16525 18.2058 8.71698 18.2058C8.26871 18.2058 7.83051 18.3387 7.45778 18.5878C7.08505 18.8368 6.79454 19.1908 6.62297 19.6049C6.4514 20.019 6.40649 20.4748 6.4939 20.9144C6.58132 21.3541 6.79715 21.758 7.11409 22.075C7.17606 22.1354 7.2592 22.1692 7.34576 22.1692C7.43231 22.1692 7.51545 22.1354 7.57742 22.075C7.60809 22.0447 7.63244 22.0086 7.64906 21.9688C7.66568 21.9291 7.67424 21.8864 7.67424 21.8433C7.67424 21.8002 7.66568 21.7575 7.64906 21.7178C7.63244 21.678 7.60809 21.6419 7.57742 21.6116C7.35074 21.386 7.19612 21.0982 7.13317 20.7846C7.07021 20.471 7.10176 20.1458 7.2238 19.8502C7.34584 19.5546 7.55289 19.3018 7.81871 19.124C8.08453 18.9462 8.39716 18.8512 8.71698 18.8512C9.03681 18.8512 9.34944 18.9462 9.61526 19.124C9.88108 19.3018 10.0881 19.5546 10.2102 19.8502C10.3322 20.1458 10.3638 20.471 10.3008 20.7846C10.2378 21.0982 10.0832 21.386 9.85654 21.6116L5.39222 26.0509C5.36156 26.0812 5.33721 26.1173 5.32059 26.157C5.30397 26.1968 5.29541 26.2395 5.29541 26.2826C5.29541 26.3257 5.30397 26.3683 5.32059 26.4081C5.33721 26.4479 5.36156 26.4839 5.39222 26.5142C5.45494 26.5732 5.53779 26.6061 5.62389 26.6061C5.70999 26.6061 5.79285 26.5732 5.85556 26.5142L10.3199 22.075Z" fill="#F7941D"/>
<path d="M19.054 35.6367C19.4261 35.6356 19.7922 35.5429 20.1199 35.3669C20.4477 35.1908 20.7271 34.9367 20.9335 34.6271C21.1398 34.3175 21.2668 33.9619 21.3031 33.5916C21.3395 33.2213 21.2841 32.8477 21.1419 32.5039C20.9997 32.16 20.775 31.8565 20.4878 31.6201C20.2005 31.3836 19.8594 31.2215 19.4946 31.1481C19.1299 31.0747 18.7526 31.0922 18.3963 31.199C18.0399 31.3059 17.7153 31.4989 17.4511 31.7609L11.027 38.1851C10.9963 38.2153 10.972 38.2514 10.9554 38.2912C10.9387 38.331 10.9302 38.3736 10.9302 38.4167C10.9302 38.4598 10.9387 38.5025 10.9554 38.5423C10.972 38.582 10.9963 38.6181 11.027 38.6484C11.0897 38.7074 11.1726 38.7402 11.2587 38.7402C11.3448 38.7402 11.4276 38.7074 11.4903 38.6484L17.9144 32.2243C18.1404 31.9985 18.4282 31.8447 18.7416 31.7825C19.0549 31.7203 19.3797 31.7523 19.6748 31.8746C19.9699 31.9969 20.2221 32.204 20.3996 32.4696C20.577 32.7352 20.6717 33.0475 20.6717 33.367C20.6717 33.6864 20.577 33.9987 20.3996 34.2643C20.2221 34.53 19.9699 34.737 19.6748 34.8593C19.3797 34.9816 19.0549 35.0137 18.7416 34.9514C18.4282 34.8892 18.1404 34.7355 17.9144 34.5097C17.853 34.4482 17.7697 34.4137 17.6828 34.4137C17.5959 34.4137 17.5125 34.4482 17.4511 34.5097C17.3897 34.5711 17.3551 34.6544 17.3551 34.7413C17.3551 34.8282 17.3897 34.9116 17.4511 34.973C17.6612 35.184 17.911 35.3513 18.1861 35.4652C18.4613 35.5792 18.7562 35.6374 19.054 35.6367Z" fill="#F7941D"/>
<path d="M34.0128 35.6367C34.3849 35.6356 34.751 35.5429 35.0788 35.3669C35.4065 35.1908 35.6859 34.9367 35.8923 34.6271C36.0986 34.3175 36.2256 33.9619 36.2619 33.5916C36.2983 33.2213 36.2429 32.8477 36.1007 32.5039C35.9585 32.16 35.7339 31.8565 35.4466 31.6201C35.1593 31.3836 34.8182 31.2215 34.4534 31.1481C34.0887 31.0747 33.7115 31.0922 33.3551 31.199C32.9987 31.3059 32.6741 31.4989 32.4099 31.7609L25.9733 38.1851C25.9426 38.2153 25.9183 38.2514 25.9016 38.2912C25.885 38.331 25.8765 38.3736 25.8765 38.4167C25.8765 38.4598 25.885 38.5025 25.9016 38.5423C25.9183 38.582 25.9426 38.6181 25.9733 38.6484C26.036 38.7074 26.1188 38.7402 26.2049 38.7402C26.291 38.7402 26.3739 38.7074 26.4366 38.6484L32.8607 32.2243C33.0867 31.9985 33.3745 31.8447 33.6879 31.7825C34.0012 31.7203 34.3259 31.7523 34.6211 31.8746C34.9162 31.9969 35.1684 32.204 35.3458 32.4696C35.5233 32.7352 35.618 33.0475 35.618 33.367C35.618 33.6864 35.5233 33.9987 35.3458 34.2643C35.1684 34.53 34.9162 34.737 34.6211 34.8593C34.3259 34.9816 34.0012 35.0137 33.6879 34.9514C33.3745 34.8892 33.0867 34.7355 32.8607 34.5097C32.7993 34.4482 32.716 34.4137 32.6291 34.4137C32.5422 34.4137 32.4588 34.4482 32.3974 34.5097C32.3359 34.5711 32.3014 34.6544 32.3014 34.7413C32.3014 34.8282 32.3359 34.9116 32.3974 34.973C32.609 35.1855 32.8608 35.3537 33.1382 35.4677C33.4156 35.5816 33.7129 35.6391 34.0128 35.6367Z" fill="#F7941D"/>
<path d="M32.5604 30.0203C32.6407 30.053 32.7306 30.053 32.8109 30.0203C34.064 29.3616 35.2103 28.5172 36.2108 27.5157C36.2443 27.4825 36.2702 27.4424 36.2867 27.3982C36.3032 27.354 36.3099 27.3068 36.3063 27.2597C36.3028 27.2127 36.289 27.167 36.266 27.1258C36.243 27.0846 36.2114 27.0488 36.1732 27.0211C36.1068 26.9715 36.0239 26.9491 35.9416 26.9585C35.3391 27.0133 34.732 26.935 34.1632 26.729C33.5943 26.5231 33.0778 26.1947 32.65 25.7669C32.2223 25.3392 31.8938 24.8226 31.6879 24.2538C31.482 23.685 31.4036 23.0778 31.4585 22.4754C31.4645 22.4262 31.4593 22.3763 31.4432 22.3295C31.4271 22.2827 31.4006 22.2401 31.3656 22.2051C31.3305 22.1701 31.288 22.1435 31.2412 22.1274C31.1943 22.1113 31.1444 22.1061 31.0953 22.1122C30.4896 22.1696 29.8786 22.0922 29.3063 21.8858C28.7339 21.6793 28.2143 21.3488 27.7847 20.918C27.355 20.4872 27.026 19.9666 26.8211 19.3937C26.6163 18.8208 26.5406 18.2097 26.5997 17.6041C26.6055 17.555 26.6 17.5053 26.5837 17.4586C26.5675 17.412 26.5408 17.3696 26.5057 17.3348C26.4707 17.3002 26.4283 17.2737 26.3817 17.2575C26.3352 17.2412 26.2855 17.2356 26.2365 17.2409C25.6341 17.2957 25.0269 17.2174 24.4581 17.0115C23.8893 16.8056 23.3727 16.4771 22.945 16.0493C22.5172 15.6216 22.1888 15.105 21.9828 14.5362C21.7769 13.9674 21.6986 13.3603 21.7534 12.7578C21.7595 12.7087 21.7543 12.6588 21.7382 12.6119C21.7221 12.5651 21.6955 12.5226 21.6605 12.4875C21.6255 12.4525 21.583 12.426 21.5361 12.4099C21.4893 12.3938 21.4394 12.3886 21.3903 12.3947C20.7874 12.4535 20.179 12.3773 19.6093 12.1715C19.0396 11.9657 18.5229 11.6356 18.0968 11.205C17.6654 10.7785 17.3352 10.2606 17.1304 9.68955C16.9256 9.1185 16.8514 8.50878 16.9134 7.90529C16.9226 7.83726 16.91 7.76808 16.8775 7.70763C16.845 7.64717 16.7942 7.59854 16.7324 7.56868C16.6706 7.53882 16.6009 7.52925 16.5333 7.54135C16.4658 7.55346 16.4038 7.5866 16.3562 7.63606C15.0494 8.93659 14.0136 10.4833 13.3086 12.1868C12.6035 13.8903 12.2433 15.7166 12.2487 17.5602C12.2326 20.8409 13.382 24.0207 15.4921 26.5327L15.586 26.6454L15.3731 26.8583C15.2129 27.0193 15.1041 27.2243 15.0606 27.4473C15.0171 27.6703 15.0409 27.9011 15.1289 28.1106L15.1728 28.2107L12.2362 31.1473L12.136 31.1035C11.9216 31.0089 11.6835 30.9816 11.4532 31.0252C11.2229 31.0688 11.0112 31.1812 10.8462 31.3477L8.29158 33.9085C8.07128 34.1217 7.77787 34.2426 7.47135 34.2467C7.32776 34.2465 7.18565 34.2176 7.05339 34.1616C6.92113 34.1057 6.80139 34.0239 6.70121 33.9211C6.54919 33.7639 6.44769 33.5648 6.40975 33.3494C6.37181 33.1341 6.39917 32.9123 6.48832 32.7126C6.56111 32.5353 6.58924 32.3428 6.57024 32.152C6.55124 31.9613 6.4857 31.7781 6.37936 31.6186C6.27302 31.4591 6.12915 31.3281 5.96037 31.2372C5.79159 31.1463 5.60308 31.0982 5.41138 31.0972C5.33849 31.0904 5.26512 31.0904 5.19223 31.0972C5.00271 31.1325 4.82499 31.2146 4.6752 31.3359C4.52541 31.4573 4.40828 31.6141 4.33443 31.7922C4.0617 32.4326 3.98871 33.1405 4.12501 33.8231C4.26131 34.5057 4.60055 35.1313 5.09831 35.6179C5.73463 36.2329 6.58638 36.5745 7.47135 36.5696C7.93579 36.5752 8.39664 36.4877 8.82677 36.3125C9.2569 36.1372 9.64761 35.8776 9.97588 35.549L12.5242 33.0006C12.6906 32.8356 12.8031 32.624 12.8467 32.3937C12.8903 32.1634 12.863 31.9253 12.7684 31.7108L12.7246 31.6106L15.6549 28.6803L15.7551 28.7242C15.9649 28.8097 16.1952 28.8322 16.4176 28.7888C16.64 28.7454 16.845 28.6381 17.0073 28.48L17.2077 28.2671L17.3204 28.361C19.8482 30.4564 23.0283 31.6036 26.3116 31.6044C28.0032 31.6085 29.6814 31.3051 31.2644 30.709C31.3055 30.6938 31.3432 30.6706 31.3753 30.6408C31.4075 30.6111 31.4335 30.5752 31.4518 30.5354C31.4701 30.4956 31.4804 30.4525 31.4821 30.4087C31.4838 30.3649 31.4768 30.3212 31.4616 30.2801C31.4464 30.239 31.4232 30.2013 31.3934 30.1691C31.3636 30.137 31.3278 30.111 31.288 30.0927C31.2482 30.0743 31.2051 30.0641 31.1613 30.0624C31.1175 30.0607 31.0738 30.0677 31.0327 30.0829C29.1332 30.793 27.0982 31.066 25.0788 30.8817C23.0594 30.6975 21.1074 30.0606 19.3679 29.0185L18.8419 28.6991H19.468C20.6618 28.725 21.8502 28.5319 22.9744 28.1293C25.8073 27.0865 28.3949 25.4708 30.5756 23.3833L30.7948 23.1829L30.8386 23.4772C30.9776 24.4922 31.436 25.4367 32.1474 26.174C32.8588 26.9113 33.7863 27.4031 34.7957 27.5783L35.1338 27.6347L34.8709 27.8538C34.1407 28.4666 33.3473 28.9997 32.5041 29.4442C32.4369 29.469 32.3798 29.5152 32.3416 29.5757C32.3034 29.6362 32.2861 29.7076 32.2925 29.7789C32.2989 29.8501 32.3287 29.9173 32.3771 29.97C32.4255 30.0227 32.49 30.058 32.5604 30.0704V30.0203ZM12.0358 32.5248L9.48749 35.0919C8.95446 35.625 8.23149 35.9246 7.47761 35.9247C6.76301 35.9274 6.07557 35.6511 5.56165 35.1545C5.15702 34.7613 4.88071 34.2549 4.76897 33.7018C4.65723 33.1487 4.71529 32.5747 4.93552 32.0552C4.96788 31.9776 5.01926 31.9094 5.08491 31.8569C5.15057 31.8043 5.22838 31.7692 5.3112 31.7546C5.40115 31.7374 5.4941 31.7444 5.5804 31.7752C5.66669 31.8059 5.74319 31.8592 5.80196 31.9295C5.86073 31.9997 5.89963 32.0844 5.91463 32.1748C5.92962 32.2652 5.92016 32.3579 5.88724 32.4434C5.74532 32.7624 5.70228 33.1167 5.76366 33.4604C5.82505 33.8042 5.98804 34.1217 6.23161 34.3719C6.39377 34.5399 6.58841 34.6731 6.80369 34.7635C7.01897 34.854 7.25039 34.8996 7.48387 34.8978C7.96651 34.9003 8.43039 34.7111 8.7737 34.3719L11.3346 31.8173C11.4324 31.7239 11.5625 31.6718 11.6977 31.6718C11.833 31.6718 11.9631 31.7239 12.0609 31.8173C12.1086 31.8649 12.1464 31.9216 12.1723 31.9839C12.1981 32.0462 12.2114 32.113 12.2114 32.1804C12.2114 32.2479 12.1981 32.3147 12.1723 32.377C12.1464 32.4393 12.1086 32.4959 12.0609 32.5436L12.0358 32.5248ZM16.5315 28.0041C16.4881 28.0587 16.4337 28.1035 16.3718 28.1355C16.3099 28.1676 16.242 28.1862 16.1724 28.1902C16.1028 28.1941 16.0332 28.1834 15.968 28.1585C15.9029 28.1337 15.8438 28.0954 15.7945 28.0461C15.7452 27.9968 15.7069 27.9377 15.6821 27.8726C15.6572 27.8074 15.6464 27.7378 15.6504 27.6682C15.6544 27.5986 15.673 27.5307 15.7051 27.4688C15.7371 27.4069 15.7819 27.3525 15.8365 27.3091L16.018 27.1275L16.1307 27.2465L16.3624 27.4844L16.6003 27.7161L16.7193 27.8288L16.5315 28.0041ZM16.6003 26.7519L16.4939 26.6016C15.561 25.2992 15.5359 23.2267 16.4125 20.7723C16.4269 20.7312 16.433 20.6876 16.4306 20.6442C16.4282 20.6007 16.4172 20.5581 16.3983 20.5188C16.3794 20.4796 16.353 20.4444 16.3205 20.4154C16.288 20.3864 16.2501 20.364 16.209 20.3497C16.1679 20.3353 16.1244 20.3291 16.0809 20.3316C16.0374 20.334 15.9948 20.345 15.9556 20.3639C15.9163 20.3828 15.8812 20.4092 15.8521 20.4417C15.8231 20.4742 15.8008 20.512 15.7864 20.5532C15.3168 21.7686 15.0872 23.0635 15.1102 24.3663V24.9924L14.7908 24.4665C13.3602 22.0771 12.7097 19.3014 12.9296 16.5252C13.1496 13.749 14.2291 11.1103 16.018 8.97598L16.2372 8.713L16.2935 9.05111C16.4605 10.04 16.931 10.9525 17.6397 11.6621C18.3702 12.3928 19.3163 12.8692 20.3384 13.0208L20.6326 13.0646L20.4323 13.2838C18.8582 14.9639 17.5339 16.8618 16.5002 18.9189C16.481 18.9575 16.4696 18.9996 16.4668 19.0426C16.464 19.0856 16.4697 19.1287 16.4837 19.1695C16.4977 19.2103 16.5196 19.2479 16.5483 19.2801C16.5769 19.3123 16.6116 19.3385 16.6504 19.3572C16.7289 19.3927 16.8179 19.3969 16.8994 19.369C16.9808 19.3411 17.0485 19.2831 17.0887 19.207C18.0785 17.2349 19.3434 15.4135 20.8455 13.7972L21.0647 13.5593L21.1148 13.8786C21.2773 14.8852 21.7544 15.8145 22.4776 16.5333C23.2009 17.252 24.1332 17.7233 25.1408 17.8796L25.4476 17.9234L16.6003 26.7519ZM30.0684 22.945C27.9677 24.948 25.4788 26.4994 22.7552 27.5032C21.7932 27.8449 20.7829 28.0309 19.7623 28.0542C18.8587 28.0986 17.9643 27.8553 17.2077 27.3592L17.0574 27.2528L25.936 18.3742L25.9798 18.681C26.136 19.6886 26.6073 20.6209 27.3261 21.3442C28.0448 22.0674 28.9742 22.5445 29.9808 22.707L30.3001 22.7571L30.0684 22.945Z" fill="#208E44"/>
<path d="M9.86904 24.5856L5.35463 29.1062C5.32396 29.1365 5.29961 29.1726 5.28299 29.2124C5.26637 29.2521 5.25781 29.2948 5.25781 29.3379C5.25781 29.381 5.26637 29.4237 5.28299 29.4634C5.29961 29.5032 5.32396 29.5393 5.35463 29.5696C5.41734 29.6286 5.5002 29.6614 5.5863 29.6614C5.6724 29.6614 5.75525 29.6286 5.81796 29.5696L10.3199 25.0739C10.3813 25.0125 10.4158 24.9292 10.4158 24.8423C10.4158 24.7554 10.3813 24.6721 10.3199 24.6106C10.2584 24.5492 10.1751 24.5146 10.0882 24.5146C10.0013 24.5146 9.91796 24.5492 9.85651 24.6106L9.86904 24.5856Z" fill="#F7941D"/>
<path d="M25.8856 33.5016C25.916 33.4711 25.9402 33.435 25.9566 33.3953C25.9731 33.3555 25.9816 33.3129 25.9816 33.2699C25.9816 33.2269 25.9731 33.1843 25.9566 33.1445C25.9402 33.1048 25.916 33.0686 25.8856 33.0382C25.8552 33.0078 25.8191 32.9837 25.7793 32.9672C25.7396 32.9507 25.697 32.9423 25.6539 32.9423C25.6109 32.9423 25.5683 32.9507 25.5285 32.9672C25.4888 32.9837 25.4527 33.0078 25.4223 33.0382L20.9078 37.5526C20.8772 37.5829 20.8528 37.619 20.8362 37.6588C20.8196 37.6985 20.811 37.7412 20.811 37.7843C20.811 37.8274 20.8196 37.8701 20.8362 37.9098C20.8528 37.9496 20.8772 37.9857 20.9078 38.016C20.9706 38.075 21.0534 38.1078 21.1395 38.1078C21.2256 38.1078 21.3085 38.075 21.3712 38.016L25.8856 33.5016Z" fill="#F7941D"/>
<defs>
<linearGradient id="paint0_linear_1227_30776" x1="20" y1="0" x2="20" y2="40" gradientUnits="userSpaceOnUse">
<stop stop-color="#E3FAE8"/>
<stop offset="1" stop-color="#E3FAE8" stop-opacity="0"/>
</linearGradient>
</defs>
</svg>
