<svg width="48" height="48" viewBox="0 0 48 48" fill="none" xmlns="http://www.w3.org/2000/svg">
<circle cx="24" cy="24" r="24" fill="url(#paint0_linear_1953_16090)"/>
<path d="M15 12.6C10.68 13.56 10.4 17.4 10.8 19.2L12.6 15.6L36 15V13.2C36 11.28 34 9.99998 33 9.59998C28.8 10.2 19.32 11.64 15 12.6Z" fill="#C9F2D2" stroke="#C9F2D2" stroke-width="1.5"/>
<path d="M17.5311 35.0758H36.277C38.1123 35.0758 39.6 33.588 39.6 31.7527V18.4604C39.6 16.6251 38.1123 15.1373 36.277 15.1373H14.1231C12.2878 15.1373 10.8 16.6251 10.8 18.4604V26.9408" stroke="#208E44" stroke-width="1.5" stroke-linejoin="round"/>
<path d="M35.9557 15.1373V13.0604C35.9556 12.551 35.843 12.0479 35.626 11.5871C35.409 11.1262 35.093 10.7189 34.7005 10.3942C34.308 10.0695 33.8486 9.83549 33.3552 9.70878C32.8619 9.58207 32.3466 9.56581 31.8462 9.66117L13.6136 12.7731C12.8218 12.924 12.1075 13.3464 11.5939 13.9676C11.0803 14.5888 10.7995 15.3698 10.8 16.1758V19.5681" stroke="#208E44" stroke-width="1.5" stroke-linejoin="round"/>
<path d="M32.9538 27.322C32.5156 27.322 32.0873 27.1921 31.723 26.9486C31.3587 26.7052 31.0747 26.3592 30.907 25.9544C30.7394 25.5496 30.6955 25.1042 30.781 24.6744C30.8665 24.2447 31.0774 23.8499 31.3873 23.5401C31.6971 23.2303 32.0918 23.0193 32.5216 22.9338C32.9513 22.8483 33.3968 22.8922 33.8016 23.0599C34.2064 23.2275 34.5524 23.5115 34.7958 23.8758C35.0392 24.2401 35.1692 24.6685 35.1692 25.1066C35.1692 25.6942 34.9358 26.2577 34.5203 26.6731C34.1048 27.0886 33.5413 27.322 32.9538 27.322Z" fill="#F7951D"/>
<circle cx="12.6462" cy="32.4911" r="5.89615" stroke="#F7951D" stroke-width="1.5"/>
<rect x="8.95386" y="31.7527" width="7.38462" height="1.47692" rx="0.738462" fill="#F7951D"/>
<rect x="11.9077" y="36.1835" width="7.38462" height="1.47692" rx="0.738462" transform="rotate(-90 11.9077 36.1835)" fill="#F7951D"/>
<defs>
<linearGradient id="paint0_linear_1953_16090" x1="24" y1="0" x2="24" y2="48" gradientUnits="userSpaceOnUse">
<stop stop-color="#E3FAE8"/>
<stop offset="1" stop-color="#E3FAE8" stop-opacity="0"/>
</linearGradient>
</defs>
</svg>
