<svg width="40" height="40" viewBox="0 0 40 40" fill="none" xmlns="http://www.w3.org/2000/svg">
<circle cx="20" cy="20" r="20" fill="url(#paint0_linear_2390_2725)"/>
<path fill-rule="evenodd" clip-rule="evenodd" d="M19.6667 9.5C14.0518 9.5 9.5 14.0518 9.5 19.6667C9.5 25.2816 14.0518 29.8333 19.6667 29.8333C25.2816 29.8333 29.8333 25.2816 29.8333 19.6667C29.8333 14.0518 25.2816 9.5 19.6667 9.5ZM8.5 19.6667C8.5 13.4995 13.4995 8.5 19.6667 8.5C25.8338 8.5 30.8333 13.4995 30.8333 19.6667C30.8333 25.8338 25.8338 30.8333 19.6667 30.8333C13.4995 30.8333 8.5 25.8338 8.5 19.6667Z" fill="#208E44"/>
<path fill-rule="evenodd" clip-rule="evenodd" d="M26.8464 26.8465C27.0417 26.6512 27.3582 26.6512 27.5535 26.8465L33.3535 32.6465C33.5488 32.8417 33.5488 33.1583 33.3535 33.3536C33.1582 33.5488 32.8417 33.5488 32.6464 33.3536L26.8464 27.5536C26.6511 27.3583 26.6511 27.0417 26.8464 26.8465Z" fill="#208E44"/>
<path d="M17.68 23.0741C17.5088 23.0744 17.3456 22.9988 17.2345 22.8677L14.1404 19.2237C13.9302 18.9761 13.9593 18.6043 14.2055 18.393C14.4516 18.1819 14.8213 18.2112 15.0314 18.4584L17.7539 21.6648L24.5158 16.1323C24.7668 15.9268 25.1358 15.9649 25.3398 16.2174C25.5441 16.4699 25.5062 16.841 25.2551 17.0461L18.0491 22.942C17.9451 23.0274 17.8147 23.0741 17.68 23.0741Z" fill="#F7941D"/>
<defs>
<linearGradient id="paint0_linear_2390_2725" x1="20" y1="0" x2="20" y2="40" gradientUnits="userSpaceOnUse">
<stop stop-color="#E3FAE8"/>
<stop offset="1" stop-color="#E3FAE8" stop-opacity="0"/>
</linearGradient>
</defs>
</svg>
