<svg width="118" height="89" viewBox="0 0 118 89" fill="none" xmlns="http://www.w3.org/2000/svg">
<g clip-path="url(#clip0_3189_23506)">
<path d="M69.6389 88.2058C87.3229 88.2058 101.659 87.3896 101.659 86.3829C101.659 85.3762 87.3229 84.5601 69.6389 84.5601C51.9549 84.5601 37.6191 85.3762 37.6191 86.3829C37.6191 87.3896 51.9549 88.2058 69.6389 88.2058Z" fill="#D5EAD5"/>
<path d="M84.313 85.1029H54.6604C52.0884 85.1029 50 83.0057 50 80.4229V16.68C50 14.0971 52.0884 12 54.6604 12H84.313C86.885 12 88.9734 14.0971 88.9734 16.68V80.4229C88.9734 83.0114 86.885 85.1029 84.313 85.1029Z" fill="url(#paint0_linear_3189_23506)"/>
<path d="M77.8767 14.6055V15.5998C77.8767 16.4169 77.2167 17.0741 76.4086 17.0741H62.5696C61.7559 17.0741 61.1015 16.4112 61.1015 15.5998V14.6055C61.1015 14.3426 60.8853 14.1255 60.6235 14.1255H54.899C53.465 14.1255 52.3042 15.2912 52.3042 16.7312V80.3712C52.3042 81.8112 53.465 82.9769 54.899 82.9769H84.0793C85.5132 82.9769 86.6741 81.8112 86.6741 80.3712V16.7312C86.6741 15.2912 85.5132 14.1255 84.0793 14.1255H78.3547C78.093 14.1255 77.8767 14.3426 77.8767 14.6055Z" fill="white"/>
<path d="M80.1248 79.1545H59.6338C57.6592 79.1545 56.0659 77.5488 56.0659 75.5716C56.0659 73.5888 57.6649 71.9888 59.6338 71.9888H80.1248C82.0994 71.9888 83.6927 73.5945 83.6927 75.5716C83.6927 77.5488 82.0937 79.1545 80.1248 79.1545Z" fill="#288C50"/>
<path d="M63.6443 76.7344C63.4591 76.7344 63.2927 76.7031 63.1451 76.6404C63.0002 76.5751 62.8861 76.4863 62.8029 76.374C62.7197 76.259 62.6768 76.1272 62.6741 75.9783H63.0646C63.078 76.1063 63.1317 76.2146 63.2256 76.3035C63.3222 76.3896 63.4618 76.4327 63.6443 76.4327C63.8188 76.4327 63.9557 76.3909 64.055 76.3074C64.157 76.2212 64.208 76.1115 64.208 75.9783C64.208 75.8738 64.1784 75.7889 64.1194 75.7236C64.0603 75.6583 63.9865 75.6087 63.898 75.5748C63.8094 75.5408 63.6899 75.5042 63.5396 75.4651C63.3545 75.418 63.2055 75.371 63.0928 75.324C62.9827 75.277 62.8874 75.2039 62.8069 75.1046C62.7291 75.0028 62.6902 74.867 62.6902 74.6972C62.6902 74.5483 62.7291 74.4164 62.8069 74.3015C62.8848 74.1866 62.9935 74.0978 63.133 74.0351C63.2753 73.9724 63.4377 73.9411 63.6202 73.9411C63.8832 73.9411 64.0979 74.0051 64.2643 74.133C64.4334 74.261 64.5287 74.4308 64.5502 74.6423H64.1476C64.1341 74.5379 64.0778 74.4464 63.9785 74.3681C63.8792 74.2871 63.7477 74.2466 63.5839 74.2466C63.4309 74.2466 63.3061 74.2858 63.2095 74.3642C63.1129 74.4399 63.0646 74.547 63.0646 74.6854C63.0646 74.7847 63.0928 74.8656 63.1491 74.9283C63.2082 74.991 63.2793 75.0393 63.3625 75.0733C63.4484 75.1046 63.5678 75.1412 63.7208 75.183C63.906 75.2326 64.055 75.2822 64.1677 75.3319C64.2804 75.3789 64.377 75.4533 64.4576 75.5552C64.5381 75.6544 64.5783 75.7902 64.5783 75.9626C64.5783 76.0958 64.5421 76.2212 64.4696 76.3387C64.3972 76.4562 64.2898 76.5516 64.1476 76.6247C64.0053 76.6978 63.8376 76.7344 63.6443 76.7344Z" fill="white"/>
<path d="M65.3067 74.2114C65.2369 74.2114 65.1779 74.1879 65.1295 74.1409C65.0812 74.0939 65.0571 74.0364 65.0571 73.9685C65.0571 73.9006 65.0812 73.8431 65.1295 73.7961C65.1779 73.7491 65.2369 73.7256 65.3067 73.7256C65.3738 73.7256 65.4301 73.7491 65.4758 73.7961C65.5241 73.8431 65.5482 73.9006 65.5482 73.9685C65.5482 74.0364 65.5241 74.0939 65.4758 74.1409C65.4301 74.1879 65.3738 74.2114 65.3067 74.2114ZM65.4838 74.5601V76.707H65.1175V74.5601H65.4838Z" fill="white"/>
<path d="M68.7613 74.5209C68.9331 74.5209 69.0861 74.5561 69.2203 74.6267C69.3545 74.6946 69.4605 74.7977 69.5383 74.9362C69.6162 75.0746 69.6551 75.2431 69.6551 75.4416V76.707H69.2927V75.4925C69.2927 75.2783 69.2377 75.1151 69.1277 75.0028C69.0203 74.8878 68.874 74.8304 68.6888 74.8304C68.4983 74.8304 68.3466 74.8905 68.2339 75.0106C68.1212 75.1281 68.0648 75.2992 68.0648 75.5238V76.707H67.7025V75.4925C67.7025 75.2783 67.6475 75.1151 67.5374 75.0028C67.4301 74.8878 67.2838 74.8304 67.0986 74.8304C66.908 74.8304 66.7564 74.8905 66.6437 75.0106C66.5309 75.1281 66.4746 75.2992 66.4746 75.5238V76.707H66.1082V74.5601H66.4746V74.8696C66.5471 74.7573 66.6437 74.6711 66.7645 74.611C66.8879 74.5509 67.0235 74.5209 67.1711 74.5209C67.3563 74.5209 67.52 74.5614 67.6622 74.6423C67.8045 74.7233 67.9105 74.8421 67.9803 74.9988C68.042 74.8474 68.144 74.7298 68.2863 74.6463C68.4285 74.5627 68.5869 74.5209 68.7613 74.5209Z" fill="white"/>
<path d="M70.6224 74.9558C70.6949 74.833 70.8022 74.7311 70.9445 74.6502C71.0894 74.5666 71.2572 74.5248 71.4477 74.5248C71.6436 74.5248 71.8208 74.5705 71.9791 74.6619C72.1402 74.7533 72.2663 74.8826 72.3576 75.0498C72.4488 75.2143 72.4945 75.4063 72.4945 75.6257C72.4945 75.8425 72.4488 76.0357 72.3576 76.2055C72.2663 76.3753 72.1402 76.5072 71.9791 76.6012C71.8208 76.6952 71.6436 76.7422 71.4477 76.7422C71.2598 76.7422 71.0934 76.7018 70.9485 76.6208C70.8062 76.5372 70.6975 76.434 70.6224 76.3113V77.7256H70.256V74.5601H70.6224V74.9558ZM72.12 75.6257C72.12 75.4638 72.0865 75.3227 72.0194 75.2026C71.9523 75.0824 71.861 74.991 71.7456 74.9283C71.6329 74.8656 71.5081 74.8343 71.3712 74.8343C71.237 74.8343 71.1122 74.867 70.9968 74.9322C70.8841 74.9949 70.7928 75.0876 70.723 75.2104C70.6559 75.3305 70.6224 75.4703 70.6224 75.6296C70.6224 75.7915 70.6559 75.9339 70.723 76.0566C70.7928 76.1768 70.8841 76.2695 70.9968 76.3348C71.1122 76.3975 71.237 76.4288 71.3712 76.4288C71.5081 76.4288 71.6329 76.3975 71.7456 76.3348C71.861 76.2695 71.9523 76.1768 72.0194 76.0566C72.0865 75.9339 72.12 75.7902 72.12 75.6257Z" fill="white"/>
<path d="M72.8398 75.6257C72.8398 75.4063 72.8854 75.2143 72.9767 75.0498C73.0679 74.8826 73.1927 74.7533 73.3511 74.6619C73.5121 74.5705 73.6906 74.5248 73.8865 74.5248C74.0798 74.5248 74.2475 74.5653 74.3898 74.6463C74.532 74.7272 74.6381 74.8291 74.7078 74.9518V74.5601H75.0782V76.707H74.7078V76.3074C74.6354 76.4327 74.5267 76.5372 74.3817 76.6208C74.2395 76.7018 74.0731 76.7422 73.8825 76.7422C73.6866 76.7422 73.5095 76.6952 73.3511 76.6012C73.1927 76.5072 73.0679 76.3753 72.9767 76.2055C72.8854 76.0357 72.8398 75.8425 72.8398 75.6257ZM74.7078 75.6296C74.7078 75.4677 74.6743 75.3266 74.6072 75.2065C74.5401 75.0863 74.4488 74.9949 74.3334 74.9322C74.2207 74.867 74.0959 74.8343 73.959 74.8343C73.8221 74.8343 73.6973 74.8656 73.5846 74.9283C73.4719 74.991 73.382 75.0824 73.3149 75.2026C73.2478 75.3227 73.2142 75.4638 73.2142 75.6257C73.2142 75.7902 73.2478 75.9339 73.3149 76.0566C73.382 76.1768 73.4719 76.2695 73.5846 76.3348C73.6973 76.3975 73.8221 76.4288 73.959 76.4288C74.0959 76.4288 74.2207 76.3975 74.3334 76.3348C74.4488 76.2695 74.5401 76.1768 74.6072 76.0566C74.6743 75.9339 74.7078 75.7915 74.7078 75.6296Z" fill="white"/>
<path d="M76.7723 74.5209C77.0407 74.5209 77.2581 74.6005 77.4245 74.7599C77.5909 74.9166 77.6741 75.1438 77.6741 75.4416V76.707H77.3117V75.4925C77.3117 75.2783 77.2567 75.1151 77.1467 75.0028C77.0366 74.8878 76.8863 74.8304 76.6958 74.8304C76.5025 74.8304 76.3482 74.8892 76.2328 75.0067C76.1201 75.1242 76.0637 75.2953 76.0637 75.5199V76.707H75.6973V74.5601H76.0637V74.8656C76.1362 74.7559 76.2341 74.6711 76.3576 74.611C76.4837 74.5509 76.622 74.5209 76.7723 74.5209Z" fill="white"/>
<rect x="55.6741" y="20.7256" width="28" height="27.7" rx="2" fill="#E8F3F7"/>
<path d="M80.8942 25.814H70.7151C70.5232 25.814 70.3706 25.5686 70.3706 25.2698C70.3706 24.971 70.5276 24.7256 70.7151 24.7256H80.8942C81.0861 24.7256 81.2387 24.971 81.2387 25.2698C81.2387 25.5793 81.0861 25.814 80.8942 25.814Z" fill="#8EB69B"/>
<path d="M80.8495 28.1124H70.6705C70.4786 28.1124 70.3259 27.8669 70.3259 27.5682C70.3259 27.2694 70.4829 27.0239 70.6705 27.0239H80.8495C81.0414 27.0239 81.1941 27.2694 81.1941 27.5682C81.1941 27.8776 81.0414 28.1124 80.8495 28.1124Z" fill="#8EB69B"/>
<path d="M74.8485 30.4109H70.6749C70.483 30.4109 70.3303 30.1655 70.3303 29.8667C70.3303 29.5679 70.4873 29.3225 70.6749 29.3225H74.8485C75.0404 29.3225 75.1931 29.5679 75.1931 29.8667C75.1931 30.1762 75.0404 30.4109 74.8485 30.4109Z" fill="#8EB69B"/>
<path d="M80.8058 30.4859H76.6321C76.4402 30.4859 76.2876 30.2405 76.2876 29.9417C76.2876 29.6429 76.4446 29.3975 76.6321 29.3975H80.8058C80.9977 29.3975 81.1503 29.6429 81.1503 29.9417C81.1547 30.2405 80.9977 30.4859 80.8058 30.4859Z" fill="#8EB69B"/>
<path d="M80.2738 32.8094H58.8204C58.4159 32.8094 58.0942 32.564 58.0942 32.2652C58.0942 31.9664 58.4251 31.7209 58.8204 31.7209H80.2738C80.6783 31.7209 81 31.9664 81 32.2652C81 32.5746 80.6783 32.8094 80.2738 32.8094Z" fill="#8EB69B"/>
<path d="M80.2557 35.1077H58.7261C58.3217 35.1077 58 34.8623 58 34.5635C58 34.2647 58.3309 34.0193 58.7261 34.0193H80.2557C80.6601 34.0193 80.9818 34.2647 80.9818 34.5635C80.9818 34.873 80.6601 35.1077 80.2557 35.1077Z" fill="#8EB69B"/>
<path d="M80.2556 37.4063H58.7354C58.331 37.4063 58.0093 37.1609 58.0093 36.8621C58.0093 36.5633 58.3402 36.3179 58.7354 36.3179H80.2556C80.6601 36.3179 80.9818 36.5633 80.9818 36.8621C80.9818 37.1715 80.6601 37.4063 80.2556 37.4063Z" fill="#8EB69B"/>
<path d="M80.2738 39.8048H58.8204C58.4159 39.8048 58.0942 39.5593 58.0942 39.2605C58.0942 38.9617 58.4251 38.7163 58.8204 38.7163H80.2738C80.6783 38.7163 81 38.9617 81 39.2605C81 39.57 80.6783 39.8048 80.2738 39.8048Z" fill="#8EB69B"/>
<path d="M80.2557 42.1031H58.7261C58.3217 42.1031 58 41.8577 58 41.5589C58 41.2601 58.3309 41.0146 58.7261 41.0146H80.2557C80.6601 41.0146 80.9818 41.2601 80.9818 41.5589C80.9818 41.8683 80.6601 42.1031 80.2557 42.1031Z" fill="#8EB69B"/>
<path d="M80.2556 44.4016H58.7354C58.331 44.4016 58.0093 44.1562 58.0093 43.8574C58.0093 43.5587 58.3402 43.3132 58.7354 43.3132H80.2556C80.6601 43.3132 80.9818 43.5587 80.9818 43.8574C80.9818 44.1669 80.6601 44.4016 80.2556 44.4016Z" fill="#8EB69B"/>
<path d="M58.5519 25.0181V26.2786H58.3259V25.0181H58.5519Z" fill="#8EB69B"/>
<path d="M59.7389 26.2786H59.5129L59.0012 25.4135V26.2786H58.7752V25.0163H59.0012L59.5129 25.8831V25.0163H59.7389V26.2786Z" fill="#8EB69B"/>
<path d="M60.6579 25.0181V25.2221H60.1882V25.5454H60.5482V25.7458H60.1882V26.2786H59.9622V25.0181H60.6579Z" fill="#8EB69B"/>
<path d="M61.3412 26.2912C61.2357 26.2912 61.1389 26.2635 61.0506 26.2081C60.9624 26.1527 60.8924 26.0763 60.8408 25.9788C60.7891 25.8801 60.7633 25.7687 60.7633 25.6447C60.7633 25.5219 60.7891 25.4117 60.8408 25.3142C60.8924 25.2155 60.9624 25.1384 61.0506 25.0831C61.1389 25.0277 61.2357 25 61.3412 25C61.4477 25 61.5446 25.0277 61.6317 25.0831C61.72 25.1384 61.7894 25.2155 61.84 25.3142C61.8916 25.4117 61.9174 25.5219 61.9174 25.6447C61.9174 25.7687 61.8916 25.8801 61.84 25.9788C61.7894 26.0763 61.72 26.1527 61.6317 26.2081C61.5435 26.2635 61.4466 26.2912 61.3412 26.2912ZM61.3412 26.0655C61.409 26.0655 61.4687 26.0486 61.5203 26.0149C61.572 25.98 61.6124 25.9306 61.6414 25.8668C61.6705 25.803 61.685 25.729 61.685 25.6447C61.685 25.5604 61.6705 25.487 61.6414 25.4244C61.6124 25.3606 61.572 25.3118 61.5203 25.2781C61.4687 25.2444 61.409 25.2275 61.3412 25.2275C61.2734 25.2275 61.2131 25.2444 61.1604 25.2781C61.1087 25.3118 61.0684 25.3606 61.0393 25.4244C61.0103 25.487 60.9957 25.5604 60.9957 25.6447C60.9957 25.729 61.0103 25.803 61.0393 25.8668C61.0684 25.9306 61.1087 25.98 61.1604 26.0149C61.2131 26.0486 61.2734 26.0655 61.3412 26.0655Z" fill="#8EB69B"/>
<path d="M62.6667 26.2786L62.4181 25.7874H62.3116V26.2786H62.0856V25.0181H62.5085C62.5957 25.0181 62.6699 25.0355 62.7312 25.0704C62.7926 25.1041 62.8383 25.1505 62.8685 25.2095C62.8997 25.2673 62.9153 25.3323 62.9153 25.4045C62.9153 25.4876 62.8937 25.5628 62.8507 25.6302C62.8077 25.6965 62.7436 25.7422 62.6586 25.7675L62.9282 26.2786H62.6667ZM62.3116 25.5977H62.5004C62.5618 25.5977 62.6075 25.5815 62.6376 25.549C62.6678 25.5153 62.6828 25.4689 62.6828 25.4099C62.6828 25.3521 62.6678 25.3076 62.6376 25.2763C62.6075 25.2438 62.5618 25.2275 62.5004 25.2275H62.3116V25.5977Z" fill="#8EB69B"/>
<path d="M64.3481 25.0181V26.2786H64.1221V25.4587L63.8202 26.2786H63.6491L63.3456 25.4587V26.2786H63.1197V25.0181H63.3763L63.7347 25.9553L64.093 25.0181H64.3481Z" fill="#8EB69B"/>
<path d="M65.2624 26.0384H64.8136L64.7394 26.2786H64.5021L64.9073 25.0163H65.1704L65.5755 26.2786H65.3366L65.2624 26.0384ZM65.201 25.8361L65.038 25.3088L64.875 25.8361H65.201Z" fill="#8EB69B"/>
<path d="M66.116 26.2912C66.0374 26.2912 65.9664 26.2761 65.9029 26.246C65.8405 26.216 65.791 26.1726 65.7544 26.116C65.7178 26.0594 65.699 25.9926 65.6979 25.9156H65.94C65.9433 25.9673 65.9594 26.0083 65.9885 26.0384C66.0186 26.0685 66.0595 26.0835 66.1112 26.0835C66.1639 26.0835 66.2053 26.0697 66.2354 26.042C66.2656 26.0131 66.2806 25.9758 66.2806 25.93C66.2806 25.8927 66.2704 25.862 66.25 25.8379C66.2295 25.8138 66.2037 25.7952 66.1725 25.7819C66.1424 25.7675 66.1004 25.7518 66.0466 25.735C65.9734 25.7109 65.9137 25.6874 65.8674 25.6646C65.8222 25.6405 65.7829 25.605 65.7496 25.558C65.7173 25.5099 65.7011 25.446 65.7011 25.3666C65.7011 25.2919 65.7178 25.2269 65.7512 25.1716C65.7845 25.1162 65.8314 25.074 65.8916 25.0451C65.9519 25.015 66.0208 25 66.0982 25C66.2145 25 66.3086 25.0319 66.3807 25.0957C66.4539 25.1583 66.4943 25.2462 66.5018 25.3594H66.2532C66.2511 25.316 66.2344 25.2805 66.2032 25.2528C66.173 25.2239 66.1327 25.2095 66.0821 25.2095C66.038 25.2095 66.0025 25.2221 65.9756 25.2474C65.9497 25.2727 65.9368 25.3094 65.9368 25.3576C65.9368 25.3913 65.9465 25.4196 65.9659 25.4424C65.9863 25.4641 66.0111 25.4822 66.0401 25.4966C66.0703 25.5099 66.1122 25.5255 66.166 25.5436C66.2392 25.5676 66.2989 25.5917 66.3452 25.6158C66.3915 25.6399 66.4313 25.676 66.4647 25.7242C66.498 25.7723 66.5147 25.8355 66.5147 25.9138C66.5147 25.9812 66.4991 26.0438 66.4679 26.1016C66.4367 26.1594 66.3909 26.2057 66.3307 26.2406C66.2704 26.2743 66.1989 26.2912 66.116 26.2912Z" fill="#8EB69B"/>
<path d="M66.9366 25.0181V26.2786H66.7106V25.0181H66.9366Z" fill="#8EB69B"/>
<path d="M59.1476 28.1169C59.1476 28.1843 59.133 28.2476 59.104 28.3065C59.076 28.3655 59.0313 28.4131 58.97 28.4492C58.9097 28.4853 58.8333 28.5034 58.7408 28.5034H58.5519V28.9874H58.3259V27.7269H58.7408C58.8279 27.7269 58.9022 27.7437 58.9635 27.7774C59.0249 27.8111 59.0706 27.8575 59.1007 27.9165C59.132 27.9755 59.1476 28.0423 59.1476 28.1169ZM58.7311 28.2993C58.7935 28.2993 58.8398 28.2837 58.8699 28.2524C58.9 28.2199 58.9151 28.1747 58.9151 28.1169C58.9151 27.9941 58.8538 27.9327 58.7311 27.9327H58.5519V28.2993H58.7311Z" fill="#8EB69B"/>
<path d="M59.534 27.9309V28.247H59.9133V28.4474H59.534V28.7815H59.9618V28.9874H59.308V27.7251H59.9618V27.9309H59.534Z" fill="#8EB69B"/>
<path d="M60.8031 28.9874L60.3931 28.4257V28.9874H60.1671V27.7269H60.3931V28.2921L60.8031 27.7269H61.0759L60.611 28.3517L61.0888 28.9874H60.8031Z" fill="#8EB69B"/>
<path d="M61.4635 27.9309V28.247H61.8428V28.4474H61.4635V28.7815H61.8912V28.9874H61.2375V27.7251H61.8912V27.9309H61.4635Z" fill="#8EB69B"/>
<path d="M62.6777 28.9874L62.4291 28.4962H62.3226V28.9874H62.0966V27.7269H62.5195C62.6067 27.7269 62.6809 27.7443 62.7423 27.7792C62.8036 27.8129 62.8494 27.8593 62.8795 27.9183C62.9107 27.9761 62.9263 28.0411 62.9263 28.1133C62.9263 28.1964 62.9048 28.2716 62.8617 28.3391C62.8187 28.4053 62.7547 28.451 62.6696 28.4763L62.9392 28.9874H62.6777ZM62.3226 28.3065H62.5114C62.5728 28.3065 62.6185 28.2903 62.6487 28.2578C62.6788 28.2241 62.6939 28.1777 62.6939 28.1187C62.6939 28.0609 62.6788 28.0164 62.6487 27.9851C62.6185 27.9526 62.5728 27.9363 62.5114 27.9363H62.3226V28.3065Z" fill="#8EB69B"/>
<path d="M63.7877 27.7269V28.6117C63.7877 28.7345 63.7559 28.8302 63.6924 28.8989C63.6289 28.9663 63.5439 29 63.4374 29C63.3298 29 63.2426 28.9651 63.1759 28.8953C63.1102 28.8254 63.0774 28.7279 63.0774 28.6027H63.3034C63.3045 28.6569 63.3158 28.699 63.3373 28.7291C63.3599 28.7592 63.3922 28.7743 63.4342 28.7743C63.4751 28.7743 63.5063 28.7598 63.5278 28.7309C63.5493 28.702 63.5601 28.6623 63.5601 28.6117V27.7269H63.7877Z" fill="#8EB69B"/>
<path d="M64.7422 28.7472H64.2934L64.2192 28.9874H63.9819L64.387 27.7251H64.6502L65.0553 28.9874H64.8164L64.7422 28.7472ZM64.6808 28.5449L64.5178 28.0176L64.3548 28.5449H64.6808Z" fill="#8EB69B"/>
<path d="M65.8977 28.7472H65.4489L65.3746 28.9874H65.1374L65.5425 27.7251H65.8056L66.2108 28.9874H65.9719L65.8977 28.7472ZM65.8363 28.5449L65.6733 28.0176L65.5102 28.5449H65.8363Z" fill="#8EB69B"/>
<path d="M67.3259 28.9874H67.0999L66.5882 28.1223V28.9874H66.3623V27.7251H66.5882L67.0999 28.5919V27.7251H67.3259V28.9874Z" fill="#8EB69B"/>
<rect x="55.6741" y="51.7256" width="28" height="17" rx="2" fill="#E8F3F7"/>
<path d="M81.6303 56.0884H73.2825C73.1252 56.0884 73 55.843 73 55.5442C73 55.2454 73.1288 55 73.2825 55H81.6303C81.7876 55 81.9128 55.2454 81.9128 55.5442C81.9128 55.8537 81.7876 56.0884 81.6303 56.0884Z" fill="#8EB69B"/>
<path d="M65.4529 65.6055H58.8952C58.7721 65.6055 58.6741 65.3601 58.6741 65.0613C58.6741 64.7625 58.7749 64.5171 58.8952 64.5171H65.4529C65.5761 64.5171 65.674 64.7625 65.674 65.0613C65.674 65.3708 65.5761 65.6055 65.4529 65.6055Z" fill="#8EB69B"/>
<path d="M73.4528 65.6055H66.8953C66.7721 65.6055 66.6741 65.3601 66.6741 65.0613C66.6741 64.7625 66.7749 64.5171 66.8953 64.5171H73.4528C73.576 64.5171 73.674 64.7625 73.674 65.0613C73.674 65.3708 73.576 65.6055 73.4528 65.6055Z" fill="#8EB69B"/>
<path d="M81.4528 65.6055H74.8953C74.7721 65.6055 74.6741 65.3601 74.6741 65.0613C74.6741 64.7625 74.7749 64.5171 74.8953 64.5171H81.4528C81.576 64.5171 81.674 64.7625 81.674 65.0613C81.674 65.3708 81.576 65.6055 81.4528 65.6055Z" fill="#8EB69B"/>
<rect x="58" y="55" width="9" height="5" rx="1" fill="#8EB69B"/>
<rect x="39.0747" y="27.2696" width="15" height="15" rx="2.5" transform="rotate(-12.2981 39.0747 27.2696)" fill="url(#paint1_linear_3189_23506)"/>
<g clip-path="url(#clip1_3189_23506)">
<path d="M50.7244 29.8473L49.5031 30.1136L49.3256 29.2994C49.2277 28.8503 48.7829 28.5648 48.3339 28.6627L45.8912 29.1952C45.4422 29.2931 45.1566 29.7378 45.2545 30.1869L45.432 31.0011L44.2107 31.2673C43.7617 31.3652 43.4761 31.81 43.574 32.259L43.6627 32.6661L51.8049 30.8912L51.7161 30.4841C51.6182 30.035 51.1734 29.7494 50.7244 29.8473ZM46.0687 30.0094L48.5114 29.4769L48.6889 30.2911L46.2462 30.8236L46.0687 30.0094ZM48.6545 32.0897L47.0261 32.4447L46.964 32.1597L43.7071 32.8697L44.5502 36.7372C44.6481 37.1862 45.0929 37.4718 45.542 37.3739L52.0556 35.9539C52.5047 35.856 52.7902 35.4112 52.6923 34.9622L51.8492 31.0947L48.5924 31.8047L48.6545 32.0897Z" fill="white"/>
<g clip-path="url(#clip2_3189_23506)">
<path d="M47.2536 33.8556C47.3051 34.0918 47.4483 34.2979 47.6517 34.4285C47.8551 34.5591 48.1021 34.6035 48.3383 34.552C48.5744 34.5005 48.7805 34.3573 48.9111 34.1539C49.0417 33.9505 49.0862 33.7035 49.0347 33.4674C48.9832 33.2312 48.84 33.0251 48.6366 32.8945C48.4331 32.7639 48.1862 32.7195 47.95 32.7709C47.7138 32.8224 47.5077 32.9656 47.3771 33.1691C47.2465 33.3725 47.2021 33.6194 47.2536 33.8556ZM49.9433 35.8013L47.2716 36.3838C47.2379 36.3911 47.2026 36.3848 47.1736 36.3661C47.1445 36.3474 47.124 36.318 47.1167 36.2843L47.0335 35.9026C46.9967 35.7339 47.0285 35.5575 47.1217 35.4122C47.215 35.2669 47.3622 35.1646 47.5309 35.1278L49.312 34.7396C49.4807 34.7028 49.6571 34.7345 49.8024 34.8278C49.9477 34.9211 50.05 35.0683 50.0868 35.237L50.17 35.6186C50.1773 35.6524 50.171 35.6877 50.1523 35.7167C50.1337 35.7458 50.1042 35.7662 50.0705 35.7736L49.9433 35.8013Z" fill="url(#paint2_linear_3189_23506)"/>
</g>
</g>
<rect x="39.0747" y="27.2696" width="15" height="15" rx="2.5" transform="rotate(-12.2981 39.0747 27.2696)" stroke="white"/>
<g opacity="0.27">
<g opacity="0.27">
<path opacity="0.27" d="M103.083 19.3486C103.083 19.0172 103.339 18.7829 103.663 18.68C103.367 18.5657 103.151 18.36 103.151 18.0629C103.151 17.6286 103.584 17.3657 104.039 17.3657C104.505 17.3657 104.926 17.6343 104.926 18.0629C104.926 18.3829 104.687 18.5772 104.414 18.68C104.733 18.7886 104.989 19.0229 104.989 19.3486C104.989 19.7943 104.568 20.08 104.033 20.08C103.498 20.0857 103.083 19.7943 103.083 19.3486ZM104.693 19.3314C104.693 19.0114 104.312 18.8286 104.039 18.8229C103.771 18.8286 103.384 19.0114 103.384 19.3314C103.384 19.6172 103.675 19.8114 104.039 19.8114C104.397 19.8114 104.693 19.6172 104.693 19.3314ZM104.625 18.0914C104.625 17.8286 104.363 17.6343 104.033 17.6343C103.703 17.6343 103.447 17.8229 103.447 18.0914C103.447 18.3943 103.788 18.5486 104.033 18.56C104.295 18.5486 104.625 18.3886 104.625 18.0914Z" fill="#868687"/>
<path opacity="0.27" d="M104.344 25.56H103.041L103.001 25.3143L104.299 23.5771H104.64V25.2914H105.033V25.56H104.64V26.2H104.344V25.56ZM104.344 25.2857V23.9314L103.343 25.2857H104.344Z" fill="#868687"/>
<path opacity="0.27" d="M103.11 31.983L103.303 31.7658C103.502 31.9887 103.753 32.1315 104.043 32.1315C104.407 32.1315 104.657 31.8801 104.657 31.5487C104.657 31.2115 104.401 30.983 104.031 30.983C103.81 30.983 103.61 31.063 103.451 31.183L103.235 31.0744L103.275 29.7258H104.822V30.0058H103.565L103.536 30.8858C103.679 30.7887 103.855 30.7087 104.094 30.7087C104.566 30.7087 104.959 31.0058 104.959 31.5258C104.959 32.0458 104.566 32.3887 104.031 32.3887C103.627 32.4001 103.32 32.2287 103.11 31.983Z" fill="#868687"/>
<path opacity="0.27" d="M103.11 38.1429L103.303 37.9257C103.502 38.1486 103.753 38.2915 104.043 38.2915C104.407 38.2915 104.657 38.04 104.657 37.7086C104.657 37.3715 104.401 37.1429 104.031 37.1429C103.81 37.1429 103.61 37.2229 103.451 37.3429L103.235 37.2343L103.275 35.8857H104.822V36.1715H103.565L103.536 37.0515C103.679 36.9543 103.855 36.8743 104.094 36.8743C104.566 36.8743 104.959 37.1715 104.959 37.6915C104.959 38.2115 104.566 38.5543 104.031 38.5543C103.627 38.5543 103.32 38.3829 103.11 38.1429Z" fill="#868687"/>
<path opacity="0.27" d="M102.95 43.3543C102.95 42.56 103.4 42 104.037 42C104.674 42 105.124 42.56 105.124 43.3543C105.124 44.1543 104.674 44.7143 104.037 44.7143C103.4 44.7143 102.95 44.1543 102.95 43.3543ZM104.822 43.3543C104.822 42.72 104.498 42.2743 104.037 42.2743C103.576 42.2743 103.252 42.72 103.252 43.3543C103.252 43.9886 103.582 44.44 104.037 44.44C104.498 44.44 104.822 43.9886 104.822 43.3543Z" fill="#868687"/>
<path opacity="0.27" d="M103.076 50.423L103.281 50.2287C103.451 50.4516 103.708 50.6059 104.026 50.6059C104.39 50.6059 104.635 50.4059 104.635 50.103C104.635 49.7944 104.373 49.6344 103.964 49.6344H103.685V49.3601L103.964 49.3659C104.316 49.3716 104.578 49.2002 104.578 48.903C104.578 48.6287 104.328 48.4287 103.998 48.4287C103.708 48.4287 103.503 48.5716 103.315 48.8002L103.116 48.623C103.315 48.3602 103.605 48.1602 104.009 48.1602C104.51 48.1602 104.874 48.4516 104.874 48.8687C104.874 49.2059 104.641 49.4059 104.368 49.4859C104.635 49.5487 104.931 49.743 104.931 50.1201C104.931 50.5601 104.567 50.8744 104.021 50.8744C103.594 50.8744 103.264 50.6744 103.076 50.423Z" fill="#868687"/>
<path opacity="0.27" d="M103.11 56.6114L103.303 56.3943C103.502 56.6171 103.753 56.76 104.043 56.76C104.407 56.76 104.657 56.5085 104.657 56.1771C104.657 55.84 104.401 55.6114 104.031 55.6114C103.81 55.6114 103.61 55.6914 103.451 55.8114L103.235 55.7028L103.275 54.3542H104.822V54.6342H103.565L103.536 55.5143C103.679 55.4171 103.855 55.3371 104.094 55.3371C104.566 55.3371 104.959 55.6343 104.959 56.1543C104.959 56.6743 104.566 57.0171 104.031 57.0171C103.627 57.0285 103.32 56.8571 103.11 56.6114Z" fill="#868687"/>
<path opacity="0.27" d="M104.532 60.8001H103.115V60.5144H104.885V60.7373L103.758 63.1373H103.417L104.532 60.8001Z" fill="#868687"/>
</g>
</g>
<g opacity="0.27">
<g opacity="0.27">
<path opacity="0.27" d="M108.153 6.88008C108.153 6.54865 108.409 6.31436 108.733 6.2115C108.438 6.09722 108.221 5.8915 108.221 5.59436C108.221 5.16007 108.654 4.89722 109.109 4.89722C109.576 4.89722 109.997 5.16579 109.997 5.59436C109.997 5.91436 109.758 6.10865 109.485 6.2115C109.803 6.32007 110.059 6.55436 110.059 6.88008C110.059 7.32579 109.638 7.6115 109.103 7.6115C108.568 7.6115 108.153 7.32008 108.153 6.88008ZM109.763 6.86293C109.763 6.54293 109.382 6.36007 109.109 6.35436C108.842 6.36007 108.455 6.54293 108.455 6.86293C108.455 7.14865 108.745 7.34293 109.109 7.34293C109.468 7.34293 109.763 7.14865 109.763 6.86293ZM109.701 5.62293C109.701 5.36007 109.439 5.16579 109.109 5.16579C108.779 5.16579 108.523 5.35436 108.523 5.62293C108.523 5.92579 108.864 6.08007 109.109 6.0915C109.365 6.07436 109.701 5.92007 109.701 5.62293Z" fill="#868687"/>
<path opacity="0.27" d="M109.415 13.0859H108.112L108.072 12.8402L109.369 11.103H109.711V12.8173H110.103V13.0859H109.711V13.7259H109.415V13.0859ZM109.415 12.8173V11.4573L108.408 12.8116H109.415V12.8173Z" fill="#868687"/>
<path opacity="0.27" d="M108.18 19.5086L108.373 19.2915C108.573 19.5143 108.823 19.6572 109.113 19.6572C109.477 19.6572 109.728 19.4057 109.728 19.0743C109.728 18.7372 109.472 18.5086 109.102 18.5086C108.88 18.5086 108.681 18.5886 108.521 18.7086L108.305 18.6L108.345 17.2515H109.893V17.5372H108.635L108.607 18.4172C108.749 18.32 108.925 18.24 109.164 18.24C109.637 18.24 110.029 18.5372 110.029 19.0572C110.029 19.5772 109.637 19.92 109.102 19.92C108.698 19.9257 108.396 19.7543 108.18 19.5086Z" fill="#868687"/>
<path opacity="0.27" d="M108.18 25.6688L108.373 25.4516C108.573 25.6745 108.823 25.8173 109.113 25.8173C109.477 25.8173 109.728 25.5659 109.728 25.2345C109.728 24.8973 109.472 24.6688 109.102 24.6688C108.88 24.6688 108.681 24.7488 108.521 24.8688L108.305 24.7602L108.345 23.4116H109.893V23.6916H108.635L108.607 24.5716C108.749 24.4745 108.925 24.3945 109.164 24.3945C109.637 24.3945 110.029 24.6916 110.029 25.2116C110.029 25.7316 109.637 26.0745 109.102 26.0745C108.698 26.0859 108.396 25.9145 108.18 25.6688Z" fill="#868687"/>
<path opacity="0.27" d="M108.021 30.8802C108.021 30.0859 108.47 29.5259 109.107 29.5259C109.745 29.5259 110.194 30.0859 110.194 30.8802C110.194 31.6802 109.745 32.2402 109.107 32.2402C108.47 32.2402 108.021 31.6802 108.021 30.8802ZM109.893 30.8802C109.893 30.2459 109.568 29.8002 109.107 29.8002C108.646 29.8002 108.322 30.2459 108.322 30.8802C108.322 31.5145 108.652 31.9659 109.107 31.9659C109.568 31.9659 109.893 31.5145 109.893 30.8802Z" fill="#868687"/>
<path opacity="0.27" d="M108.146 37.9488L108.351 37.7545C108.522 37.9773 108.778 38.1316 109.097 38.1316C109.461 38.1316 109.705 37.9316 109.705 37.6287C109.705 37.3202 109.444 37.1602 109.034 37.1602H108.755V36.8859L109.04 36.8916C109.392 36.8973 109.654 36.7259 109.654 36.4287C109.654 36.1545 109.404 35.9545 109.074 35.9545C108.784 35.9545 108.579 36.0973 108.391 36.3259L108.192 36.143C108.391 35.8802 108.681 35.6802 109.085 35.6802C109.586 35.6802 109.95 35.9716 109.95 36.3887C109.95 36.7259 109.717 36.9259 109.444 37.0059C109.711 37.0687 110.007 37.263 110.007 37.6402C110.007 38.0802 109.643 38.3945 109.097 38.3945C108.664 38.4002 108.334 38.2002 108.146 37.9488Z" fill="#868687"/>
<path opacity="0.27" d="M108.18 44.1429L108.373 43.9257C108.573 44.1486 108.823 44.2915 109.113 44.2915C109.477 44.2915 109.728 44.04 109.728 43.7086C109.728 43.3715 109.472 43.1429 109.102 43.1429C108.88 43.1429 108.681 43.2229 108.521 43.3429L108.305 43.2343L108.345 41.8857H109.893V42.1715H108.635L108.607 43.0515C108.749 42.9543 108.925 42.8743 109.164 42.8743C109.637 42.8743 110.029 43.1715 110.029 43.6915C110.029 44.2115 109.637 44.5543 109.102 44.5543C108.698 44.56 108.396 44.3829 108.18 44.1429Z" fill="#868687"/>
<path opacity="0.27" d="M109.609 48.3259H108.192V48.0459H109.961V48.2688L108.835 50.6688H108.493L109.609 48.3259Z" fill="#868687"/>
</g>
</g>
<g opacity="0.27">
<g opacity="0.27">
<path opacity="0.27" d="M97.9827 24.8057C97.9827 24.0114 98.4322 23.4514 99.0695 23.4514C99.7069 23.4514 100.156 24.0114 100.156 24.8057C100.156 25.6057 99.7069 26.1657 99.0695 26.1657C98.4322 26.1657 97.9827 25.6057 97.9827 24.8057ZM99.8548 24.8057C99.8548 24.1714 99.5305 23.7257 99.0695 23.7257C98.6086 23.7257 98.2843 24.1714 98.2843 24.8057C98.2843 25.44 98.6143 25.8914 99.0695 25.8914C99.5305 25.8914 99.8548 25.44 99.8548 24.8057Z" fill="#868687"/>
<path opacity="0.27" d="M98.1421 31.9028L98.3356 31.6857C98.5347 31.9085 98.7851 32.0514 99.0753 32.0514C99.4395 32.0514 99.6899 31.7999 99.6899 31.4685C99.6899 31.1314 99.4338 30.9028 99.0639 30.9028C98.842 30.9028 98.6429 30.9828 98.4835 31.1028L98.2673 30.9999L98.3071 29.6514H99.8549V29.9314H98.5973L98.5689 30.8114C98.7111 30.7142 98.8875 30.6342 99.1265 30.6342C99.5988 30.6342 99.9915 30.9314 99.9915 31.4514C99.9915 31.9714 99.5988 32.3142 99.0639 32.3142C98.6599 32.3199 98.3526 32.1485 98.1421 31.9028Z" fill="#868687"/>
<path opacity="0.27" d="M99.5646 36.0914H98.1477V35.8057H99.9174V36.0285L98.7907 38.4285H98.4493L99.5646 36.0914Z" fill="#868687"/>
<path opacity="0.27" d="M98.1143 43.9028C98.1143 43.5714 98.3703 43.3371 98.6947 43.2342C98.3988 43.1199 98.1825 42.9142 98.1825 42.6171C98.1825 42.1828 98.615 41.9199 99.0702 41.9199C99.5368 41.9199 99.9579 42.1885 99.9579 42.6171C99.9579 42.9371 99.7189 43.1314 99.4458 43.2342C99.7645 43.3428 100.021 43.5771 100.021 43.9028C100.021 44.3485 99.5994 44.6342 99.0645 44.6342C98.5297 44.6399 98.1143 44.3485 98.1143 43.9028ZM99.7246 43.8856C99.7246 43.5656 99.3434 43.3828 99.0702 43.3771C98.8028 43.3828 98.4158 43.5656 98.4158 43.8856C98.4158 44.1714 98.7061 44.3656 99.0702 44.3656C99.4287 44.3656 99.7246 44.1714 99.7246 43.8856ZM99.6563 42.6456C99.6563 42.3828 99.3946 42.1885 99.0645 42.1885C98.7345 42.1885 98.4784 42.3771 98.4784 42.6456C98.4784 42.9485 98.8199 43.1028 99.0645 43.1142C99.3263 43.1028 99.6563 42.9428 99.6563 42.6456Z" fill="#868687"/>
<path opacity="0.27" d="M99.3769 50.1086H98.0738L98.0339 49.8629L99.3313 48.1257H99.6728V49.84H100.065V50.1086H99.6728V50.7486H99.3769V50.1086ZM99.3769 49.84V48.4857L98.3697 49.84H99.3769Z" fill="#868687"/>
<path opacity="0.27" d="M98.1421 56.5372L98.3356 56.32C98.5347 56.5429 98.7851 56.6857 99.0753 56.6857C99.4395 56.6857 99.6899 56.4343 99.6899 56.1029C99.6899 55.7657 99.4338 55.5372 99.0639 55.5372C98.842 55.5372 98.6429 55.6172 98.4835 55.7372L98.2673 55.6286L98.3071 54.28H99.8549V54.56H98.5973L98.5689 55.44C98.7111 55.3429 98.8875 55.2629 99.1265 55.2629C99.5988 55.2629 99.9915 55.56 99.9915 56.08C99.9915 56.6 99.5988 56.9429 99.0639 56.9429C98.6599 56.9543 98.3526 56.7829 98.1421 56.5372Z" fill="#868687"/>
<path opacity="0.27" d="M98.1421 62.6915L98.3356 62.4743C98.5347 62.6972 98.7851 62.84 99.0753 62.84C99.4395 62.84 99.6899 62.5886 99.6899 62.2572C99.6899 61.92 99.4338 61.6915 99.0639 61.6915C98.842 61.6915 98.6429 61.7715 98.4835 61.8915L98.2673 61.7829L98.3071 60.4343H99.8549V60.7143H98.5973L98.5689 61.5943C98.7111 61.4972 98.8875 61.4172 99.1265 61.4172C99.5988 61.4172 99.9915 61.7143 99.9915 62.2343C99.9915 62.7543 99.5988 63.0972 99.0639 63.0972C98.6599 63.1086 98.3526 62.9372 98.1421 62.6915Z" fill="#868687"/>
<path opacity="0.27" d="M97.9827 67.9087C97.9827 67.1144 98.4322 66.5544 99.0695 66.5544C99.7069 66.5544 100.156 67.1144 100.156 67.9087C100.156 68.7087 99.7069 69.2687 99.0695 69.2687C98.4322 69.2687 97.9827 68.703 97.9827 67.9087ZM99.8548 67.9087C99.8548 67.2744 99.5305 66.8287 99.0695 66.8287C98.6086 66.8287 98.2843 67.2744 98.2843 67.9087C98.2843 68.543 98.6143 68.9944 99.0695 68.9944C99.5305 68.9944 99.8548 68.543 99.8548 67.9087Z" fill="#868687"/>
<path opacity="0.27" d="M98.1084 74.9716L98.3133 74.7773C98.484 75.0002 98.74 75.1544 99.0587 75.1544C99.4229 75.1544 99.6676 74.9544 99.6676 74.6516C99.6676 74.343 99.4058 74.183 98.9961 74.183H98.7173V73.9087L99.0018 73.9145C99.3546 73.9202 99.6164 73.7487 99.6164 73.4516C99.6164 73.1773 99.366 72.9773 99.0359 72.9773C98.7457 72.9773 98.5409 73.1202 98.3531 73.3487L98.1539 73.1716C98.3531 72.9087 98.6433 72.7087 99.0473 72.7087C99.5481 72.7087 99.9123 73.0002 99.9123 73.4173C99.9123 73.7544 99.6789 73.9544 99.4058 74.0344C99.6733 74.0973 99.9692 74.2916 99.9692 74.6687C99.9692 75.1087 99.605 75.423 99.0587 75.423C98.6262 75.423 98.2962 75.223 98.1084 74.9716Z" fill="#868687"/>
<path opacity="0.27" d="M98.1421 81.1658L98.3356 80.9487C98.5347 81.1716 98.7851 81.3144 99.0753 81.3144C99.4395 81.3144 99.6899 81.063 99.6899 80.7316C99.6899 80.3944 99.4338 80.1658 99.0639 80.1658C98.842 80.1658 98.6429 80.2458 98.4835 80.3658L98.2673 80.2573L98.3071 78.9087H99.8549V79.1887H98.5973L98.5689 80.0687C98.7111 79.9716 98.8875 79.8916 99.1265 79.8916C99.5988 79.8916 99.9915 80.1887 99.9915 80.7087C99.9915 81.2287 99.5988 81.5716 99.0639 81.5716C98.6599 81.583 98.3526 81.4116 98.1421 81.1658Z" fill="#868687"/>
<path opacity="0.27" d="M99.5646 85.3486H98.1477V85.0686H99.9174V85.2915L98.7907 87.6915H98.4493L99.5646 85.3486Z" fill="#868687"/>
</g>
</g>
<g opacity="0.27">
<g opacity="0.27">
<path opacity="0.27" d="M28.4805 34.3087L28.6739 34.0915C28.8731 34.3144 29.1235 34.4572 29.4137 34.4572C29.7779 34.4572 30.0282 34.2058 30.0282 33.8744C30.0282 33.5372 29.7722 33.3087 29.4023 33.3087C29.1804 33.3087 28.9812 33.3887 28.8219 33.5087L28.6057 33.4001L28.6455 32.0515H30.1933V32.3315H28.9357L28.9072 33.2115C29.0495 33.1144 29.2259 33.0344 29.4649 33.0344C29.9372 33.0344 30.3298 33.3315 30.3298 33.8515C30.3298 34.3715 29.9372 34.7144 29.4023 34.7144C28.9983 34.7258 28.6967 34.5544 28.4805 34.3087Z" fill="#868687"/>
<path opacity="0.27" d="M29.9091 38.4915H28.4922V38.2058H30.2619V38.4287L29.1352 40.8287H28.7938L29.9091 38.4915Z" fill="#868687"/>
<path opacity="0.27" d="M28.4526 46.3085C28.4526 45.9771 28.7087 45.7428 29.0331 45.64C28.7372 45.5257 28.5209 45.32 28.5209 45.0228C28.5209 44.5885 28.9534 44.3257 29.4086 44.3257C29.8752 44.3257 30.2963 44.5943 30.2963 45.0228C30.2963 45.3428 30.0573 45.5371 29.7842 45.64C30.1028 45.7485 30.3589 45.9828 30.3589 46.3085C30.3589 46.7543 29.9378 47.04 29.4029 47.04C28.868 47.04 28.4526 46.7485 28.4526 46.3085ZM30.063 46.2857C30.063 45.9657 29.6818 45.7828 29.4086 45.7771C29.1412 45.7828 28.7542 45.9657 28.7542 46.2857C28.7542 46.5714 29.0444 46.7657 29.4086 46.7657C29.7728 46.7657 30.063 46.5714 30.063 46.2857ZM30.0004 45.0457C30.0004 44.7828 29.7387 44.5885 29.4086 44.5885C29.0786 44.5885 28.8225 44.7771 28.8225 45.0457C28.8225 45.3485 29.1639 45.5028 29.4086 45.5143C29.6647 45.5028 30.0004 45.3485 30.0004 45.0457Z" fill="#868687"/>
<path opacity="0.27" d="M29.7209 52.5144H28.4178L28.3779 52.2686L29.6753 50.5315H30.0168V52.2458H30.4094V52.5144H30.0168V53.1543H29.7209V52.5144ZM29.7209 52.2401V50.8858L28.7137 52.2401H29.7209Z" fill="#868687"/>
<path opacity="0.27" d="M28.4805 58.9373L28.6739 58.7202C28.8731 58.943 29.1235 59.0859 29.4137 59.0859C29.7779 59.0859 30.0282 58.8345 30.0282 58.503C30.0282 58.1659 29.7722 57.9373 29.4023 57.9373C29.1804 57.9373 28.9812 58.0173 28.8219 58.1373L28.6057 58.0287L28.6455 56.6802H30.1933V56.9602H28.9357L28.9072 57.8402C29.0495 57.743 29.2259 57.663 29.4649 57.663C29.9372 57.663 30.3298 57.9602 30.3298 58.4802C30.3298 59.0002 29.9372 59.343 29.4023 59.343C28.9983 59.3545 28.6967 59.183 28.4805 58.9373Z" fill="#868687"/>
<path opacity="0.27" d="M28.4805 65.0972L28.6739 64.8801C28.8731 65.1029 29.1235 65.2458 29.4137 65.2458C29.7779 65.2458 30.0282 64.9944 30.0282 64.6629C30.0282 64.3258 29.7722 64.0972 29.4023 64.0972C29.1804 64.0972 28.9812 64.1772 28.8219 64.2972L28.6057 64.1887L28.6455 62.8401H30.1933V63.1201H28.9357L28.9072 64.0001C29.0495 63.9029 29.2259 63.8229 29.4649 63.8229C29.9372 63.8229 30.3298 64.1201 30.3298 64.6401C30.3298 65.1601 29.9372 65.5029 29.4023 65.5029C28.9983 65.5144 28.6967 65.3372 28.4805 65.0972Z" fill="#868687"/>
<path opacity="0.27" d="M28.321 70.3086C28.321 69.5143 28.7706 68.9543 29.4079 68.9543C30.0452 68.9543 30.4948 69.5143 30.4948 70.3086C30.4948 71.1086 30.0452 71.6686 29.4079 71.6686C28.7706 71.6686 28.321 71.1086 28.321 70.3086ZM30.1932 70.3086C30.1932 69.6743 29.8688 69.2286 29.4079 69.2286C28.947 69.2286 28.6226 69.6743 28.6226 70.3086C28.6226 70.9429 28.9527 71.3944 29.4079 71.3944C29.8688 71.3944 30.1932 70.9429 30.1932 70.3086Z" fill="#868687"/>
<path opacity="0.27" d="M28.4468 77.3772L28.6516 77.1829C28.8223 77.4058 29.0784 77.5601 29.3971 77.5601C29.7613 77.5601 30.0059 77.3601 30.0059 77.0572C30.0059 76.7486 29.7442 76.5886 29.3345 76.5886H29.0556V76.3144L29.3345 76.3201C29.6873 76.3258 29.949 76.1544 29.949 75.8572C29.949 75.5829 29.6987 75.3829 29.3686 75.3829C29.0784 75.3829 28.8736 75.5258 28.6858 75.7544L28.4923 75.5715C28.6915 75.3086 28.9817 75.1086 29.3857 75.1086C29.8864 75.1086 30.2506 75.4001 30.2506 75.8172C30.2506 76.1544 30.0173 76.3544 29.7442 76.4344C30.0116 76.4972 30.3075 76.6915 30.3075 77.0686C30.3075 77.5086 29.9433 77.8229 29.3971 77.8229C28.9703 77.8286 28.6346 77.6286 28.4468 77.3772Z" fill="#868687"/>
<path opacity="0.27" d="M28.4805 83.566L28.6739 83.3488C28.8731 83.5717 29.1235 83.7146 29.4137 83.7146C29.7779 83.7146 30.0282 83.4631 30.0282 83.1317C30.0282 82.7946 29.7722 82.566 29.4023 82.566C29.1804 82.566 28.9812 82.646 28.8219 82.766L28.6057 82.6574L28.6455 81.3088H30.1933V81.5888H28.9357L28.9072 82.4688C29.0495 82.3717 29.2259 82.2917 29.4649 82.2917C29.9372 82.2917 30.3298 82.5888 30.3298 83.1088C30.3298 83.6289 29.9372 83.9717 29.4023 83.9717C28.9983 83.9831 28.6967 83.8117 28.4805 83.566Z" fill="#868687"/>
<path opacity="0.27" d="M29.9091 87.7546H28.4922V87.4746H30.2619V87.6975L29.1352 90.0975H28.7938L29.9091 87.7546Z" fill="#868687"/>
</g>
</g>
<g opacity="0.27">
<g opacity="0.27">
<path opacity="0.27" d="M42.536 13.7602H41.1191V13.4802H42.8888V13.7031L41.7621 16.1031H41.4207L42.536 13.7602Z" fill="#868687"/>
<path opacity="0.27" d="M41.0796 21.5715C41.0796 21.24 41.3357 21.0058 41.66 20.9029C41.3641 20.7886 41.1479 20.5829 41.1479 20.2858C41.1479 19.8515 41.5803 19.5886 42.0356 19.5886C42.5022 19.5886 42.9233 19.8572 42.9233 20.2858C42.9233 20.6058 42.6843 20.8001 42.4111 20.9029C42.7298 21.0115 42.9859 21.2458 42.9859 21.5715C42.9859 22.0172 42.5648 22.3029 42.0299 22.3029C41.495 22.3029 41.0796 22.0115 41.0796 21.5715ZM42.69 21.5543C42.69 21.2343 42.3087 21.0515 42.0356 21.0458C41.7681 21.0515 41.3812 21.2343 41.3812 21.5543C41.3812 21.84 41.6714 22.0343 42.0356 22.0343C42.3998 22.0343 42.69 21.84 42.69 21.5543ZM42.6274 20.3143C42.6274 20.0515 42.3656 19.8572 42.0356 19.8572C41.7055 19.8572 41.4495 20.0458 41.4495 20.3143C41.4495 20.6172 41.7909 20.7715 42.0356 20.7829C42.2916 20.7658 42.6274 20.6115 42.6274 20.3143Z" fill="#868687"/>
<path opacity="0.27" d="M42.3478 27.7773H41.0447L41.0049 27.5316L42.3023 25.7944H42.6437V27.5087H43.0364V27.7773H42.6437V28.4173H42.3478V27.7773ZM42.3478 27.5087V26.1544L41.3406 27.5087H42.3478Z" fill="#868687"/>
<path opacity="0.27" d="M41.1074 34.2059L41.3009 33.9887C41.5001 34.2116 41.7504 34.3544 42.0406 34.3544C42.4048 34.3544 42.6552 34.103 42.6552 33.7716C42.6552 33.4344 42.3991 33.2059 42.0293 33.2059C41.8073 33.2059 41.6082 33.2859 41.4488 33.4059L41.2326 33.2973L41.2724 31.9487H42.8202V32.2344H41.5627L41.5342 33.1144C41.6765 33.0173 41.8529 32.9373 42.0919 32.9373C42.5642 32.9373 42.9568 33.2344 42.9568 33.7544C42.9568 34.2744 42.5642 34.6173 42.0293 34.6173C41.6252 34.6173 41.3237 34.4459 41.1074 34.2059Z" fill="#868687"/>
<path opacity="0.27" d="M41.1074 40.3602L41.3009 40.143C41.5001 40.3659 41.7504 40.5087 42.0406 40.5087C42.4048 40.5087 42.6552 40.2573 42.6552 39.9259C42.6552 39.5887 42.3991 39.3602 42.0293 39.3602C41.8073 39.3602 41.6082 39.4402 41.4488 39.5602L41.2326 39.4516L41.2724 38.103H42.8202V38.383H41.5627L41.5342 39.263C41.6765 39.1659 41.8529 39.0859 42.0919 39.0859C42.5642 39.0859 42.9568 39.383 42.9568 39.903C42.9568 40.423 42.5642 40.7659 42.0293 40.7659C41.6252 40.7773 41.3237 40.6059 41.1074 40.3602Z" fill="#868687"/>
<path opacity="0.27" d="M40.948 45.5716C40.948 44.7773 41.3975 44.2173 42.0349 44.2173C42.6722 44.2173 43.1217 44.7773 43.1217 45.5716C43.1217 46.3716 42.6722 46.9316 42.0349 46.9316C41.3975 46.9373 40.948 46.3716 40.948 45.5716ZM42.8201 45.5716C42.8201 44.9373 42.4958 44.4916 42.0349 44.4916C41.5739 44.4916 41.2496 44.9373 41.2496 45.5716C41.2496 46.2059 41.5796 46.6573 42.0349 46.6573C42.4958 46.6573 42.8201 46.2059 42.8201 45.5716Z" fill="#868687"/>
<path opacity="0.27" d="M41.0737 52.6403L41.2786 52.446C41.4493 52.6689 41.7054 52.8232 42.024 52.8232C42.3882 52.8232 42.6329 52.6231 42.6329 52.3203C42.6329 52.0117 42.3711 51.8517 41.9614 51.8517H41.6826V51.5774L41.9671 51.5832C42.3199 51.5889 42.5817 51.4174 42.5817 51.1203C42.5817 50.846 42.3313 50.646 42.0013 50.646C41.7111 50.646 41.5062 50.7889 41.3184 51.0174L41.1193 50.8403C41.3184 50.5774 41.6086 50.3774 42.0126 50.3774C42.5134 50.3774 42.8776 50.6689 42.8776 51.086C42.8776 51.4232 42.6443 51.6232 42.3711 51.7032C42.6386 51.766 42.9345 51.9603 42.9345 52.3374C42.9345 52.7774 42.5703 53.0917 42.024 53.0917C41.5916 53.0917 41.2615 52.8917 41.0737 52.6403Z" fill="#868687"/>
<path opacity="0.27" d="M41.1074 58.8345L41.3009 58.6174C41.5001 58.8402 41.7504 58.9831 42.0406 58.9831C42.4048 58.9831 42.6552 58.7317 42.6552 58.4002C42.6552 58.0631 42.3991 57.8345 42.0293 57.8345C41.8073 57.8345 41.6082 57.9145 41.4488 58.0345L41.2326 57.926L41.2724 56.5774H42.8202V56.8631H41.5627L41.5342 57.7431C41.6765 57.646 41.8529 57.566 42.0919 57.566C42.5642 57.566 42.9568 57.8631 42.9568 58.3831C42.9568 58.9031 42.5642 59.246 42.0293 59.246C41.6252 59.2517 41.3237 59.0802 41.1074 58.8345Z" fill="#868687"/>
<path opacity="0.27" d="M42.536 63.0175H41.1191V62.7375H42.8888V62.9604L41.7621 65.3604H41.4207L42.536 63.0175Z" fill="#868687"/>
</g>
</g>
<g opacity="0.27">
<g opacity="0.27">
<path opacity="0.27" d="M35.0017 15.7029L35.1952 15.4858C35.3943 15.7087 35.6447 15.8515 35.9349 15.8515C36.2991 15.8515 36.5495 15.6001 36.5495 15.2687C36.5495 14.9315 36.2934 14.7029 35.9236 14.7029C35.7016 14.7029 35.5025 14.7829 35.3431 14.9029L35.1269 14.7944L35.1667 13.4458H36.7145V13.7315H35.4569L35.4285 14.6115C35.5707 14.5144 35.7472 14.4344 35.9861 14.4344C36.4584 14.4344 36.8511 14.7315 36.8511 15.2515C36.8511 15.7715 36.4584 16.1144 35.9236 16.1144C35.5195 16.1201 35.2179 15.9487 35.0017 15.7029Z" fill="#868687"/>
<path opacity="0.27" d="M36.4303 19.8916H35.0134V19.6116H36.7831V19.8344L35.6564 22.2344H35.315L36.4303 19.8916Z" fill="#868687"/>
<path opacity="0.27" d="M34.9739 27.7028C34.9739 27.3714 35.2299 27.1371 35.5543 27.0343C35.2584 26.92 35.0422 26.7143 35.0422 26.4171C35.0422 25.9828 35.4746 25.72 35.9299 25.72C36.3965 25.72 36.8176 25.9885 36.8176 26.4171C36.8176 26.7371 36.5786 26.9314 36.3054 27.0343C36.6241 27.1428 36.8801 27.3771 36.8801 27.7028C36.8801 28.1485 36.4591 28.4343 35.9242 28.4343C35.3893 28.4343 34.9739 28.1485 34.9739 27.7028ZM36.5843 27.6857C36.5843 27.3657 36.203 27.1828 35.9299 27.1771C35.6624 27.1828 35.2755 27.3657 35.2755 27.6857C35.2755 27.9714 35.5657 28.1657 35.9299 28.1657C36.294 28.1657 36.5843 27.9714 36.5843 27.6857ZM36.5217 26.4457C36.5217 26.1828 36.2599 25.9885 35.9299 25.9885C35.5998 25.9885 35.3438 26.1771 35.3438 26.4457C35.3438 26.7485 35.6852 26.9028 35.9299 26.9143C36.1859 26.9028 36.5217 26.7428 36.5217 26.4457Z" fill="#868687"/>
<path opacity="0.27" d="M36.2421 33.9086H34.939L34.8992 33.6629L36.1966 31.9258H36.538V33.6401H36.9306V33.9086H36.538V34.5486H36.2421V33.9086ZM36.2421 33.6401V32.2858L35.2349 33.6401H36.2421Z" fill="#868687"/>
<path opacity="0.27" d="M35.0017 40.3372L35.1952 40.1201C35.3943 40.3429 35.6447 40.4858 35.9349 40.4858C36.2991 40.4858 36.5495 40.2344 36.5495 39.9029C36.5495 39.5658 36.2934 39.3372 35.9236 39.3372C35.7016 39.3372 35.5025 39.4172 35.3431 39.5372L35.1269 39.4286L35.1667 38.0801H36.7145V38.3658H35.4569L35.4285 39.2458C35.5707 39.1486 35.7472 39.0687 35.9861 39.0687C36.4584 39.0687 36.8511 39.3658 36.8511 39.8858C36.8511 40.4058 36.4584 40.7486 35.9236 40.7486C35.5195 40.7486 35.2179 40.5772 35.0017 40.3372Z" fill="#868687"/>
<path opacity="0.27" d="M35.0017 46.4915L35.1952 46.2744C35.3943 46.4972 35.6447 46.6401 35.9349 46.6401C36.2991 46.6401 36.5495 46.3887 36.5495 46.0572C36.5495 45.7201 36.2934 45.4915 35.9236 45.4915C35.7016 45.4915 35.5025 45.5715 35.3431 45.6915L35.1269 45.5829L35.1667 44.2344H36.7145V44.5144H35.4569L35.4285 45.3944C35.5707 45.2972 35.7472 45.2172 35.9861 45.2172C36.4584 45.2172 36.8511 45.5144 36.8511 46.0344C36.8511 46.5544 36.4584 46.8972 35.9236 46.8972C35.5195 46.9087 35.2179 46.7372 35.0017 46.4915Z" fill="#868687"/>
<path opacity="0.27" d="M34.8423 51.7029C34.8423 50.9086 35.2918 50.3486 35.9292 50.3486C36.5665 50.3486 37.016 50.9086 37.016 51.7029C37.016 52.5029 36.5665 53.0629 35.9292 53.0629C35.2918 53.0686 34.8423 52.5029 34.8423 51.7029ZM36.7144 51.7029C36.7144 51.0686 36.3901 50.6229 35.9292 50.6229C35.4682 50.6229 35.1439 51.0686 35.1439 51.7029C35.1439 52.3372 35.4739 52.7886 35.9292 52.7886C36.3901 52.7886 36.7144 52.3429 36.7144 51.7029Z" fill="#868687"/>
<path opacity="0.27" d="M34.9683 58.7716L35.1731 58.5774C35.3438 58.8002 35.5999 58.9545 35.9186 58.9545C36.2827 58.9545 36.5274 58.7545 36.5274 58.4516C36.5274 58.1431 36.2657 57.9831 35.856 57.9831H35.5771V57.7088L35.8616 57.7145C36.2145 57.7202 36.4762 57.5488 36.4762 57.2516C36.4762 56.9774 36.2258 56.7774 35.8958 56.7774C35.6056 56.7774 35.4007 56.9202 35.2129 57.1488L35.0138 56.9716C35.2129 56.7088 35.5032 56.5088 35.9072 56.5088C36.4079 56.5088 36.7721 56.8002 36.7721 57.2174C36.7721 57.5545 36.5388 57.7545 36.2657 57.8345C36.5331 57.8974 36.829 58.0916 36.829 58.4688C36.829 58.9088 36.4648 59.2231 35.9186 59.2231C35.4861 59.2231 35.156 59.0231 34.9683 58.7716Z" fill="#868687"/>
<path opacity="0.27" d="M35.0017 64.9659L35.1952 64.7487C35.3943 64.9716 35.6447 65.1144 35.9349 65.1144C36.2991 65.1144 36.5495 64.863 36.5495 64.5316C36.5495 64.1945 36.2934 63.9659 35.9236 63.9659C35.7016 63.9659 35.5025 64.0459 35.3431 64.1659L35.1269 64.0573L35.1667 62.7087H36.7145V62.9945H35.4569L35.4285 63.8745C35.5707 63.7773 35.7472 63.6973 35.9861 63.6973C36.4584 63.6973 36.8511 63.9945 36.8511 64.5145C36.8511 65.0345 36.4584 65.3773 35.9236 65.3773C35.5195 65.383 35.2179 65.2116 35.0017 64.9659Z" fill="#868687"/>
<path opacity="0.27" d="M36.4303 69.1489H35.0134V68.8689H36.7831V69.0918L35.6564 71.4918H35.315L36.4303 69.1489Z" fill="#868687"/>
</g>
</g>
<path d="M29.2132 62.2464L28.2296 59L27.2454 62.2464L24 63.2086L27.2454 64.1689L28.2296 67.4154L29.2132 64.1689L32.46 63.2086L29.2132 62.2464Z" fill="#6AB85E"/>
<path d="M41.4938 77.3079L40.8484 75.1792L40.2038 77.3079L38.0754 77.9385L40.2038 78.5682L40.8484 80.6966L41.4938 78.5682L43.6222 77.9385L41.4938 77.3079Z" fill="#6AB85E"/>
<path d="M41.4557 48.0569L41.1351 47L40.8155 48.0569L39.7585 48.3701L40.8155 48.683L41.1351 49.7399L41.4557 48.683L42.5127 48.3701L41.4557 48.0569Z" fill="#6AB85E"/>
<path d="M96.3559 10.3093L95.7227 8.21948L95.0892 10.3093L93 10.9287L95.0892 11.5468L95.7227 13.6366L96.3559 11.5468L98.4459 10.9287L96.3559 10.3093Z" fill="#6AB85E"/>
<path d="M101.686 20.3601L101.271 18.9897L100.856 20.3601L99.4858 20.766L100.856 21.1713L101.271 22.5414L101.686 21.1713L103.056 20.766L101.686 20.3601Z" fill="#6AB85E"/>
<path d="M102.232 6.77152L102 6L101.768 6.77152L101 7.00007L101.768 7.22848L102 8L102.232 7.22848L103 7.00007L102.232 6.77152Z" fill="#6AB85E"/>
<g clip-path="url(#clip3_3189_23506)">
<mask id="mask0_3189_23506" style="mask-type:luminance" maskUnits="userSpaceOnUse" x="71" y="44" width="38" height="26">
<path d="M107.508 49.5354L75.1613 44.1457C74.6785 44.0652 74.2221 44.3904 74.1418 44.872L71.1452 62.8561C71.065 63.3376 71.3913 63.7932 71.8742 63.8737L104.221 69.2634C104.704 69.3439 105.16 69.0187 105.24 68.5372L108.237 50.5531C108.317 50.0715 107.991 49.6159 107.508 49.5354Z" fill="white"/>
</mask>
<g mask="url(#mask0_3189_23506)">
<path d="M107.508 49.5354L75.1613 44.1457C74.6785 44.0652 74.2221 44.3904 74.1418 44.872L71.1452 62.8561C71.065 63.3376 71.3913 63.7932 71.8742 63.8737L104.221 69.2634C104.704 69.3439 105.16 69.0187 105.24 68.5372L108.237 50.5531C108.317 50.0715 107.991 49.6159 107.508 49.5354Z" fill="url(#paint3_linear_3189_23506)"/>
<path d="M102.183 73.4047C109.908 74.6919 117.211 69.4892 118.495 61.7841C119.779 54.079 114.557 46.7893 106.832 45.5021C99.107 44.2149 91.8037 49.4176 90.5198 57.1227C89.236 64.8278 94.4577 72.1175 102.183 73.4047Z" fill="white" fill-opacity="0.1"/>
<path d="M97.4678 76.7636C107.426 78.4229 116.841 71.7163 118.496 61.784C120.15 51.8516 113.419 42.4547 103.461 40.7954C93.5027 39.1361 84.0883 45.8428 82.4333 55.7751C80.7784 65.7075 87.5095 75.1043 97.4678 76.7636Z" fill="white" fill-opacity="0.1"/>
<path d="M76.3995 50.3076L76.7324 48.3094C76.7657 48.1095 76.9569 47.9734 77.1572 48.0067L79.8892 48.462C80.0896 48.4953 80.2262 48.6861 80.1929 48.886L79.86 50.8842C79.8267 51.084 79.6355 51.2202 79.4352 51.1868L76.7032 50.7316C76.5029 50.6982 76.3662 50.5074 76.3995 50.3076Z" fill="white"/>
<path d="M80.0721 49.6126L80.1024 49.4309L79.0096 49.2488C78.9094 49.2321 78.8411 49.1367 78.8577 49.0368C78.8744 48.9369 78.9699 48.8688 79.0701 48.8855L79.1612 48.9007L79.1915 48.719L79.1004 48.7038C78.9 48.6705 78.7089 48.8066 78.6756 49.0065C78.6423 49.2063 78.779 49.3971 78.9793 49.4305L79.2525 49.476L79.1617 50.021L78.8885 49.9755C78.6335 49.933 78.3999 50.0994 78.3575 50.3537C78.3151 50.608 78.4822 50.8413 78.7372 50.8837L78.9193 50.9141L78.9496 50.7324L78.7674 50.7021C78.6126 50.6763 78.5139 50.5385 78.5396 50.3841C78.5654 50.2297 78.7034 50.1313 78.8582 50.1571L79.951 50.3392L79.9813 50.1575L79.3438 50.0513L79.4346 49.5063L80.0721 49.6126ZM77.6136 49.763L77.3404 49.7175L77.4312 49.1725L77.7044 49.218C77.9047 49.2514 78.0959 49.1153 78.1292 48.9154C78.1625 48.7156 78.0258 48.5248 77.8255 48.4914L77.5523 48.4459L77.522 48.6276L77.7952 48.6731C77.8954 48.6898 77.9637 48.7852 77.9471 48.8851C77.9304 48.985 77.8348 49.0531 77.7347 49.0364L76.6419 48.8543L76.6116 49.036L77.249 49.1422L77.1582 49.6871L76.5208 49.5809L76.4905 49.7626L77.5833 49.9447C77.7381 49.9705 77.8368 50.1083 77.8111 50.2627C77.7854 50.4171 77.6473 50.5154 77.4925 50.4896L77.3104 50.4593L77.2801 50.641L77.4622 50.6713C77.7172 50.7138 77.9509 50.5474 77.9932 50.293C78.0356 50.0387 77.8686 49.8055 77.6136 49.763Z" fill="#288C50"/>
<path d="M82.379 50.2835C82.4539 50.3108 82.5111 50.3599 82.5505 50.431C82.5899 50.5021 82.6028 50.5782 82.5893 50.6593C82.5771 50.7325 82.5479 50.7942 82.5018 50.8443C82.4573 50.8934 82.3983 50.9279 82.3249 50.9479C82.2514 50.968 82.1682 50.9702 82.0751 50.9547L81.483 50.8561L81.7112 49.4867L82.2777 49.581C82.3708 49.5966 82.4483 49.6249 82.5101 49.6662C82.5733 49.7076 82.6175 49.758 82.6426 49.8173C82.6691 49.8768 82.6767 49.9406 82.6653 50.0086C82.6521 50.0884 82.6193 50.1515 82.5671 50.1979C82.5162 50.2445 82.4535 50.2731 82.379 50.2835ZM81.8924 50.0976L82.1442 50.1395C82.2098 50.1504 82.2626 50.1445 82.3028 50.1216C82.3433 50.0974 82.368 50.0579 82.3772 50.0029C82.3864 49.948 82.3757 49.9025 82.3453 49.8665C82.3149 49.8306 82.267 49.8071 82.2014 49.7962L81.9496 49.7542L81.8924 50.0976ZM82.073 50.7245C82.1399 50.7356 82.1943 50.7286 82.2362 50.7033C82.2795 50.6783 82.3059 50.637 82.3155 50.5794C82.3253 50.5205 82.3133 50.4715 82.2794 50.4322C82.2457 50.3917 82.1954 50.3658 82.1286 50.3547L81.8571 50.3095L81.7956 50.6783L82.073 50.7245ZM82.7945 50.3689C82.8169 50.2341 82.8672 50.1188 82.9451 50.0229C83.0246 49.926 83.1217 49.8568 83.2365 49.8154C83.3527 49.7729 83.4764 49.7626 83.6075 49.7845C83.761 49.81 83.8888 49.8717 83.9912 49.9694C84.0935 50.0671 84.156 50.1891 84.1788 50.3354L83.8621 50.2826C83.8416 50.212 83.8052 50.1555 83.7529 50.1132C83.702 50.0711 83.6391 50.0438 83.5644 50.0314C83.4844 50.018 83.4098 50.0251 83.3405 50.0525C83.2728 50.0789 83.2155 50.1231 83.1688 50.1852C83.1233 50.2476 83.093 50.3245 83.0777 50.4161C83.0627 50.5063 83.0665 50.5889 83.089 50.6639C83.1131 50.7378 83.1528 50.7989 83.2081 50.8471C83.2649 50.8942 83.3334 50.9244 83.4133 50.9378C83.4881 50.9502 83.5564 50.9448 83.6182 50.9215C83.6816 50.8971 83.7345 50.8548 83.7768 50.7947L84.0935 50.8474C84.0243 50.9797 83.9255 51.0755 83.797 51.1348C83.67 51.1929 83.5292 51.2091 83.3744 51.1833C83.2433 51.1615 83.1295 51.1123 83.0331 51.0357C82.9382 50.9581 82.8688 50.8611 82.8248 50.7449C82.7822 50.6289 82.7721 50.5036 82.7945 50.3689ZM85.1422 51.1976L84.5954 51.1065L84.4614 51.3523L84.1722 51.3042L84.8945 50.0151L85.2151 50.0685L85.4803 51.5221L85.1892 51.4736L85.1422 51.1976ZM85.1041 50.9654L85.0008 50.3594L84.7067 50.8992L85.1041 50.9654Z" fill="white"/>
<path d="M75.726 55.5808L75.5951 56.3667C75.5805 56.4542 75.5418 56.5199 75.4789 56.5638C75.4162 56.6066 75.3405 56.6207 75.2518 56.6059C75.162 56.5909 75.0945 56.5525 75.0493 56.4906C75.0042 56.4276 74.9894 56.3499 75.0048 56.2573L75.144 56.2805C75.1364 56.3326 75.1426 56.377 75.1627 56.4138C75.1838 56.4508 75.2203 56.4736 75.2724 56.4823C75.3244 56.491 75.3657 56.4822 75.3963 56.4559C75.427 56.4286 75.4464 56.3911 75.4543 56.3432L75.5853 55.5574L75.726 55.5808ZM76.8219 55.7634L76.6446 56.827L76.5054 56.8038L76.5858 56.3216L76.0426 56.2311L75.9623 56.7133L75.8231 56.6901L76.0003 55.6265L76.1395 55.6497L76.0617 56.1167L76.6048 56.2072L76.6826 55.7402L76.8219 55.7634ZM77.364 56.9578C77.2651 56.9414 77.1787 56.9034 77.1047 56.8441C77.0309 56.7837 76.9769 56.7083 76.9427 56.6179C76.9097 56.5267 76.9018 56.4292 76.9191 56.3254C76.9364 56.2216 76.9753 56.1325 77.036 56.0579C77.0978 55.9825 77.1734 55.9286 77.2626 55.8965C77.352 55.8633 77.4461 55.8549 77.5451 55.8714C77.645 55.888 77.7319 55.9266 77.8057 55.987C77.8797 56.0463 77.9332 56.1211 77.9664 56.2113C77.9996 56.3016 78.0075 56.3991 77.99 56.5038C77.9726 56.6086 77.9335 56.6983 77.8729 56.7729C77.8122 56.8475 77.7372 56.9014 77.6478 56.9346C77.5586 56.9667 77.464 56.9745 77.364 56.9578ZM77.3841 56.8373C77.4586 56.8497 77.5283 56.8435 77.5932 56.8188C77.6591 56.7943 77.7143 56.7527 77.7586 56.6942C77.804 56.6359 77.8337 56.5646 77.8477 56.4801C77.862 56.3947 77.857 56.3176 77.8328 56.2487C77.8099 56.179 77.7717 56.1219 77.7183 56.0775C77.6649 56.0331 77.6005 56.0045 77.525 55.9919C77.4495 55.9794 77.3793 55.9855 77.3144 56.0102C77.2495 56.0349 77.1943 56.0764 77.149 56.1347C77.1048 56.1922 77.0756 56.2636 77.0614 56.3491C77.0473 56.4336 77.0518 56.5106 77.0747 56.5803C77.0987 56.6502 77.1374 56.7074 77.1908 56.7518C77.2452 56.7963 77.3097 56.8249 77.3841 56.8373ZM78.9235 57.2067L78.7842 57.1835L78.3654 56.2433L78.2243 57.0902L78.0851 57.067L78.2625 56.0019L78.4018 56.0251L78.8209 56.9638L78.9617 56.1184L79.1009 56.1416L78.9235 57.2067ZM80.0779 56.306C80.1942 56.3253 80.291 56.364 80.3683 56.4218C80.4469 56.4788 80.5019 56.5513 80.5334 56.6391C80.5659 56.727 80.5731 56.8255 80.555 56.9344C80.5368 57.0432 80.4981 57.134 80.4388 57.2067C80.3807 57.2786 80.3053 57.3287 80.2125 57.3572C80.1209 57.3848 80.0169 57.3889 79.9007 57.3695L79.5687 57.3142L79.7459 56.2506L80.0779 56.306ZM79.9197 57.2551C80.0574 57.278 80.1685 57.2595 80.2529 57.1993C80.3376 57.1381 80.3908 57.0419 80.4127 56.9106C80.4347 56.7784 80.4152 56.669 80.3541 56.5825C80.2941 56.4962 80.1957 56.4417 80.0591 56.4189L79.8663 56.3868L79.727 57.223L79.9197 57.2551ZM81.6492 56.5678L81.4719 57.6313L81.3327 57.6081L81.4131 57.126L80.8699 57.0355L80.7896 57.5176L80.6504 57.4944L80.8276 56.4309L80.9668 56.4541L80.889 56.921L81.4321 57.0115L81.5099 56.5446L81.6492 56.5678ZM82.1913 57.7622C82.0924 57.7457 82.0059 57.7078 81.932 57.6484C81.8582 57.588 81.8042 57.5126 81.77 57.4222C81.7369 57.331 81.7291 57.2335 81.7464 57.1297C81.7637 57.026 81.8026 56.9368 81.8633 56.8622C81.9251 56.7868 82.0006 56.733 82.0899 56.7008C82.1793 56.6676 82.2734 56.6592 82.3724 56.6757C82.4723 56.6924 82.5592 56.7309 82.633 56.7913C82.707 56.8507 82.7605 56.9255 82.7937 57.0157C82.8269 57.1059 82.8348 57.2034 82.8173 57.3082C82.7999 57.4129 82.7608 57.5026 82.7001 57.5772C82.6395 57.6518 82.5645 57.7057 82.4751 57.7389C82.3859 57.7711 82.2913 57.7788 82.1913 57.7622ZM82.2114 57.6416C82.2859 57.654 82.3556 57.6478 82.4205 57.6232C82.4864 57.5986 82.5416 57.5571 82.5859 57.4986C82.6312 57.4403 82.661 57.3689 82.675 57.2845C82.6893 57.199 82.6843 57.1219 82.6601 57.053C82.6372 56.9833 82.599 56.9262 82.5456 56.8818C82.4922 56.8374 82.4277 56.8089 82.3523 56.7963C82.2768 56.7837 82.2066 56.7898 82.1417 56.8145C82.0768 56.8392 82.0216 56.8808 81.9763 56.9391C81.9321 56.9966 81.9029 57.068 81.8887 57.1534C81.8746 57.2379 81.879 57.3149 81.902 57.3846C81.926 57.4545 81.9647 57.5117 82.0181 57.5561C82.0725 57.6007 82.137 57.6292 82.2114 57.6416ZM83.21 56.9439L83.1508 57.2994L83.5394 57.3642L83.5203 57.4786L83.1317 57.4139L83.0707 57.7801L83.5052 57.8525L83.4861 57.967L82.9124 57.8714L83.0898 56.8063L83.6636 56.9019L83.6445 57.0163L83.21 56.9439Z" fill="white"/>
<path d="M74.596 58.9054L74.6523 58.5679L75.2843 58.6732L74.9666 60.5802L74.5889 60.5173L74.8504 58.9477L74.596 58.9054ZM75.5136 60.2466C75.7047 60.135 75.8578 60.0413 75.9728 59.9655C76.0882 59.8879 76.1875 59.8041 76.2708 59.714C76.3541 59.624 76.4039 59.5301 76.4201 59.4324C76.435 59.3435 76.4256 59.2703 76.3921 59.2127C76.3585 59.1551 76.2981 59.1191 76.2106 59.1045C76.1232 59.0899 76.051 59.1084 75.9939 59.1598C75.9371 59.2095 75.8994 59.2847 75.8808 59.3856L75.5241 59.3262C75.5659 59.118 75.6545 58.9697 75.7896 58.8811C75.9265 58.7928 76.0859 58.7638 76.2677 58.7941C76.4671 58.8273 76.6112 58.906 76.7001 59.0301C76.7894 59.1525 76.8196 59.3001 76.7908 59.4727C76.7681 59.6087 76.7098 59.7325 76.6157 59.8441C76.5216 59.9557 76.4197 60.0498 76.3099 60.1265C76.2004 60.2015 76.0588 60.2908 75.8852 60.3945L76.6589 60.5234L76.6083 60.8269L75.3127 60.611L75.358 60.3389L75.5136 60.2466ZM77.0746 59.4877C77.1124 59.3148 77.196 59.1907 77.3253 59.1155C77.4567 59.0388 77.616 59.016 77.803 59.0472C77.9307 59.0685 78.0362 59.1094 78.1195 59.1698C78.2032 59.2286 78.2614 59.3001 78.294 59.3844C78.3288 59.4673 78.3381 59.5567 78.3221 59.6526C78.3038 59.7624 78.2594 59.8509 78.189 59.9181C78.1205 59.9837 78.0448 60.0231 77.9617 60.0361L77.96 60.0466C78.0562 60.0949 78.1255 60.1638 78.1681 60.2533C78.2125 60.3432 78.2242 60.4509 78.2032 60.5764C78.1858 60.6811 78.1458 60.7703 78.0832 60.8441C78.0223 60.9182 77.9407 60.9709 77.8385 61.0023C77.7383 61.0322 77.6226 61.0362 77.4914 61.0143C77.2939 60.9814 77.1413 60.9049 77.0337 60.7848C76.9261 60.6647 76.885 60.5073 76.9102 60.3126L77.2669 60.372C77.2562 60.4581 77.2736 60.5317 77.319 60.5931C77.3666 60.653 77.4384 60.691 77.5346 60.707C77.6237 60.7218 77.696 60.7088 77.7513 60.6678C77.8087 60.6254 77.844 60.565 77.857 60.4865C77.8745 60.3818 77.8537 60.3013 77.7949 60.2449C77.736 60.1885 77.6366 60.1486 77.4967 60.1253L77.4207 60.1127L77.4708 59.8118L77.5468 59.8245C77.7951 59.8659 77.9331 59.8037 77.9607 59.6381C77.9732 59.5631 77.9602 59.5009 77.9217 59.4514C77.8849 59.4023 77.8246 59.3707 77.7407 59.3567C77.6585 59.3431 77.5909 59.3551 77.5379 59.3929C77.4869 59.4292 77.4523 59.4807 77.4339 59.5476L77.0746 59.4877ZM78.4515 60.7791L78.4995 60.4914L79.5611 59.41L79.9886 59.4813L79.7898 60.6741L80.0206 60.7126L79.9674 61.0317L79.7366 60.9932L79.6747 61.3647L79.3076 61.3035L79.3695 60.9321L78.4515 60.7791ZM79.5796 59.8164L78.9086 60.5273L79.4462 60.6169L79.5796 59.8164ZM82.3144 60.1699L81.4646 60.0283L81.3901 60.4756C81.4344 60.4364 81.4929 60.4085 81.5658 60.392C81.6389 60.3737 81.7139 60.371 81.7909 60.3838C81.9307 60.4071 82.0402 60.4567 82.1192 60.5326C82.1982 60.6085 82.2498 60.6978 82.274 60.8004C82.2986 60.9012 82.3018 61.0057 82.2838 61.1139C82.2504 61.3144 82.1658 61.4661 82.0301 61.569C81.8961 61.6721 81.7233 61.706 81.5117 61.6708C81.3124 61.6376 81.1616 61.5614 81.0592 61.4421C80.9569 61.3229 80.9112 61.1818 80.9222 61.0187L81.2789 61.0782C81.283 61.1505 81.3087 61.2122 81.3559 61.2631C81.4049 61.3142 81.4722 61.347 81.5579 61.3612C81.6611 61.3784 81.7443 61.3591 81.8075 61.3033C81.8707 61.2476 81.9111 61.1665 81.9289 61.0601C81.9469 60.952 81.9334 60.8655 81.8885 60.8007C81.8457 60.7344 81.7726 60.6926 81.6695 60.6754C81.5961 60.6632 81.5318 60.6713 81.4767 60.6998C81.4217 60.7282 81.3786 60.7712 81.3474 60.8288L80.996 60.7702L81.1825 59.6506L82.368 59.8482L82.3144 60.1699ZM83.6819 60.5618C83.6766 60.4856 83.6552 60.4256 83.6176 60.3817C83.5817 60.3381 83.5236 60.3096 83.4431 60.2962C83.3225 60.2761 83.2252 60.31 83.1512 60.3981C83.0793 60.4847 83.0243 60.6368 82.9862 60.8545C83.0398 60.7917 83.11 60.7479 83.1968 60.7229C83.2839 60.6962 83.3747 60.6907 83.4691 60.7065C83.5828 60.7254 83.6792 60.7666 83.7585 60.83C83.8378 60.8933 83.8941 60.9762 83.9274 61.0785C83.9609 61.1791 83.9668 61.2948 83.945 61.4256C83.9244 61.5494 83.8806 61.6559 83.8136 61.7452C83.7486 61.8329 83.6636 61.8958 83.5584 61.9338C83.4532 61.9719 83.3342 61.9798 83.2013 61.9577C83.0195 61.9274 82.8828 61.8634 82.7913 61.7657C82.7015 61.6683 82.6475 61.5446 82.6294 61.3946C82.6133 61.2431 82.6228 61.0619 82.658 60.8509C82.7111 60.5318 82.8063 60.3003 82.9435 60.1564C83.081 60.0109 83.2686 59.9579 83.5064 59.9975C83.69 60.0281 83.8242 60.1016 83.909 60.2179C83.9939 60.3342 84.0318 60.4677 84.0229 60.6186L83.6819 60.5618ZM83.3351 60.9933C83.2424 60.9779 83.1601 60.9919 83.0881 61.0355C83.0162 61.0791 82.9716 61.1523 82.9545 61.2552C82.9373 61.3581 82.9527 61.444 83.0005 61.5129C83.0501 61.5821 83.1282 61.6256 83.2348 61.6433C83.3293 61.6591 83.4084 61.6427 83.4722 61.5942C83.5377 61.5459 83.5786 61.473 83.5949 61.3753C83.6117 61.2742 83.598 61.1895 83.5537 61.1211C83.5111 61.0531 83.4382 61.0105 83.3351 60.9933ZM85.6182 60.6801L84.6491 62.1935L84.2766 62.1315L85.2441 60.6608L84.3471 60.5113L84.3994 60.1974L85.6636 60.408L85.6182 60.6801ZM86.0548 61.39C85.895 61.2702 85.831 61.1152 85.8627 60.9252C85.8784 60.831 85.9162 60.7495 85.9762 60.6806C86.0382 60.6103 86.1211 60.5605 86.2248 60.5311C86.3306 60.5004 86.4534 60.4966 86.5933 60.5199C86.7332 60.5433 86.8473 60.5865 86.9356 60.6496C87.026 60.7112 87.0882 60.7852 87.1223 60.8716C87.1585 60.9565 87.1687 61.046 87.1531 61.1402C87.1371 61.2361 87.0994 61.3167 87.04 61.3821C86.9808 61.4457 86.9086 61.4911 86.8232 61.5181C86.9124 61.5759 86.9774 61.6495 87.0183 61.7387C87.0591 61.828 87.0704 61.9276 87.0521 62.0374C87.0323 62.156 86.9844 62.2547 86.9084 62.3334C86.8344 62.4107 86.7411 62.4642 86.6283 62.4938C86.5156 62.5234 86.3936 62.5272 86.2625 62.5054C86.1313 62.4835 86.0172 62.4403 85.9202 62.3758C85.8249 62.3115 85.7539 62.2307 85.7072 62.1333C85.6626 62.0344 85.6501 61.9257 85.6699 61.8071C85.6882 61.6973 85.7311 61.6067 85.7987 61.5355C85.8666 61.4626 85.9519 61.4141 86.0548 61.39ZM86.7877 61.133C86.8019 61.0476 86.7867 60.977 86.7421 60.9211C86.6992 60.8656 86.6332 60.8304 86.544 60.8155C86.4566 60.801 86.3828 60.8129 86.3225 60.8512C86.2639 60.8898 86.2274 60.9528 86.2128 61.04C86.1998 61.1184 86.2155 61.1856 86.2601 61.2414C86.3065 61.2975 86.3716 61.3326 86.4556 61.3466C86.5395 61.3605 86.6125 61.3485 86.6745 61.3105C86.7369 61.2707 86.7746 61.2115 86.7877 61.133ZM86.4111 61.6134C86.3114 61.5968 86.2259 61.6085 86.1546 61.6486C86.0849 61.689 86.0423 61.7562 86.0266 61.8504C86.0121 61.9376 86.0299 62.0141 86.08 62.0798C86.1322 62.144 86.2099 62.1848 86.313 62.2019C86.4162 62.2191 86.5022 62.2048 86.5709 62.1589C86.6396 62.113 86.6811 62.0473 86.6954 61.9619C86.7108 61.8694 86.6921 61.7928 86.6393 61.7321C86.5868 61.6695 86.5108 61.63 86.4111 61.6134ZM88.3911 62.2659C88.3923 62.345 88.4139 62.4095 88.4558 62.4595C88.4999 62.5081 88.5638 62.5394 88.6478 62.5533C88.7562 62.5714 88.8423 62.54 88.906 62.4593C88.9701 62.3767 89.0199 62.2291 89.0553 62.0163C89.0058 62.0654 88.9417 62.0996 88.8631 62.1187C88.7861 62.1382 88.7057 62.1409 88.6218 62.1269C88.5099 62.1083 88.4123 62.0687 88.3289 62.0082C88.2476 61.9463 88.1882 61.8656 88.1509 61.7662C88.1138 61.665 88.1062 61.549 88.128 61.4182C88.1602 61.2246 88.2435 61.0808 88.3778 60.9867C88.5124 60.8908 88.6793 60.8595 88.8787 60.8927C89.1269 60.934 89.2886 61.0425 89.3635 61.2181C89.4402 61.394 89.452 61.6415 89.3988 61.9607C89.3611 62.1874 89.31 62.3697 89.2457 62.5078C89.1831 62.6461 89.0975 62.7448 88.9888 62.8037C88.8819 62.863 88.7463 62.8789 88.5819 62.8515C88.4525 62.83 88.3464 62.7872 88.2637 62.7232C88.1812 62.6575 88.1221 62.5805 88.0865 62.4921C88.053 62.4023 88.0408 62.3079 88.0501 62.2091L88.3911 62.2659ZM88.7475 61.8414C88.8385 61.8565 88.9148 61.8406 88.9765 61.7935C89.0383 61.7464 89.077 61.6758 89.0927 61.5816C89.1099 61.4788 89.0951 61.3947 89.0484 61.3296C89.0038 61.263 88.9343 61.2219 88.8399 61.2062C88.7455 61.1904 88.6654 61.2075 88.5995 61.2575C88.5357 61.306 88.4959 61.3782 88.4799 61.4742C88.4645 61.5666 88.4781 61.6468 88.5206 61.7148C88.5652 61.7814 88.6409 61.8236 88.7475 61.8414ZM90.0068 62.0485C89.847 61.9287 89.783 61.7737 89.8147 61.5836C89.8304 61.4895 89.8682 61.408 89.9282 61.3391C89.9902 61.2688 90.0731 61.219 90.1768 61.1896C90.2826 61.1589 90.4054 61.1551 90.5453 61.1784C90.6852 61.2018 90.7993 61.245 90.8876 61.3081C90.9779 61.3697 91.0402 61.4437 91.0743 61.5301C91.1105 61.615 91.1207 61.7045 91.105 61.7987C91.0891 61.8946 91.0514 61.9752 90.9919 62.0406C90.9328 62.1042 90.8606 62.1495 90.7752 62.1765C90.8644 62.2344 90.9294 62.308 90.9703 62.3972C91.0111 62.4865 91.0224 62.5861 91.004 62.6959C90.9843 62.8145 90.9364 62.9132 90.8604 62.9919C90.7864 63.0692 90.693 63.1226 90.5803 63.1523C90.4675 63.1819 90.3456 63.1857 90.2145 63.1639C90.0833 63.142 89.9692 63.0988 89.8722 63.0343C89.7768 62.97 89.7059 62.8892 89.6592 62.7918C89.6146 62.6929 89.6021 62.5842 89.6219 62.4656C89.6402 62.3557 89.6831 62.2652 89.7507 62.194C89.8186 62.1211 89.9039 62.0726 90.0068 62.0485ZM90.7396 61.7915C90.7539 61.7061 90.7387 61.6355 90.6941 61.5796C90.6512 61.5241 90.5852 61.4889 90.496 61.474C90.4086 61.4595 90.3347 61.4714 90.2744 61.5097C90.2159 61.5483 90.1794 61.6113 90.1648 61.6985C90.1517 61.7769 90.1675 61.8441 90.2121 61.8999C90.2585 61.956 90.3236 61.9911 90.4075 62.0051C90.4915 62.019 90.5645 62.007 90.6265 61.969C90.6888 61.9292 90.7266 61.87 90.7396 61.7915ZM90.3631 62.2719C90.2634 62.2553 90.1779 62.267 90.1065 62.3071C90.0369 62.3475 89.9943 62.4147 89.9786 62.5089C89.964 62.5961 89.9818 62.6726 90.032 62.7383C90.0842 62.8025 90.1619 62.8433 90.265 62.8604C90.3682 62.8776 90.4541 62.8633 90.5229 62.8174C90.5916 62.7715 90.6331 62.7058 90.6474 62.6204C90.6628 62.5279 90.6441 62.4513 90.5913 62.3906C90.5388 62.328 90.4627 62.2885 90.3631 62.2719ZM92.6923 61.8588L91.7231 63.3723L91.3507 63.3102L92.3182 61.8395L91.4212 61.69L91.4735 61.3761L92.7377 61.5868L92.6923 61.8588ZM93.8705 62.2594C93.8652 62.1833 93.8437 62.1233 93.8061 62.0794C93.7703 62.0357 93.7121 62.0072 93.6317 61.9938C93.511 61.9737 93.4137 62.0077 93.3398 62.0957C93.2678 62.1823 93.2128 62.3345 93.1748 62.5522C93.2283 62.4894 93.2985 62.4455 93.3854 62.4206C93.4725 62.3939 93.5632 62.3884 93.6577 62.4041C93.7713 62.4231 93.8678 62.4642 93.9471 62.5276C94.0264 62.591 94.0826 62.6739 94.1159 62.7762C94.1495 62.8768 94.1553 62.9925 94.1335 63.1233C94.1129 63.2471 94.0691 63.3536 94.0021 63.4428C93.9372 63.5306 93.8521 63.5935 93.747 63.6315C93.6418 63.6695 93.5228 63.6775 93.3899 63.6554C93.208 63.6251 93.0713 63.5611 92.9798 63.4634C92.89 63.3659 92.836 63.2422 92.8179 63.0923C92.8018 62.9408 92.8113 62.7596 92.8465 62.5486C92.8997 62.2294 92.9949 61.9979 93.132 61.8541C93.2695 61.7085 93.4571 61.6556 93.6949 61.6952C93.8785 61.7258 94.0127 61.7992 94.0976 61.9155C94.1824 62.0318 94.2204 62.1654 94.2114 62.3163L93.8705 62.2594ZM93.5236 62.691C93.4309 62.6755 93.3486 62.6896 93.2767 62.7332C93.2047 62.7767 93.1602 62.85 93.143 62.9529C93.1259 63.0557 93.1412 63.1416 93.189 63.2106C93.2386 63.2798 93.3167 63.3232 93.4234 63.341C93.5178 63.3567 93.5969 63.3403 93.6607 63.2918C93.7262 63.2436 93.7671 63.1707 93.7834 63.073C93.8003 62.9719 93.7865 62.8871 93.7422 62.8188C93.6996 62.7508 93.6268 62.7081 93.5236 62.691ZM96.4934 62.5325L95.6437 62.3909L95.5691 62.8382C95.6134 62.799 95.672 62.7711 95.7448 62.7546C95.8179 62.7363 95.893 62.7336 95.9699 62.7464C96.1098 62.7697 96.2192 62.8193 96.2982 62.8952C96.3772 62.9711 96.4288 63.0603 96.4531 63.1629C96.4776 63.2638 96.4808 63.3683 96.4628 63.4764C96.4294 63.677 96.3448 63.8287 96.2091 63.9315C96.0751 64.0347 95.9023 64.0686 95.6908 64.0334C95.4914 64.0001 95.3406 63.9239 95.2383 63.8047C95.1359 63.6855 95.0903 63.5444 95.1013 63.3813L95.4579 63.4407C95.4621 63.5131 95.4877 63.5747 95.535 63.6256C95.5839 63.6768 95.6513 63.7095 95.7369 63.7238C95.8401 63.741 95.9233 63.7217 95.9865 63.6659C96.0497 63.6101 96.0902 63.5291 96.1079 63.4227C96.1259 63.3146 96.1125 63.2281 96.0675 63.1632C96.0247 63.0969 95.9517 63.0552 95.8485 63.038C95.7751 63.0258 95.7108 63.0339 95.6558 63.0624C95.6007 63.0908 95.5576 63.1338 95.5265 63.1914L95.175 63.1328L95.3616 62.0132L96.547 62.2107L96.4934 62.5325ZM96.6773 63.816L96.7252 63.5282L97.7868 62.4469L98.2143 62.5181L98.0156 63.711L98.2464 63.7494L98.1932 64.0686L97.9624 64.0301L97.9005 64.4016L97.5333 64.3404L97.5952 63.9689L96.6773 63.816ZM97.8054 62.8533L97.1343 63.5641L97.672 63.6537L97.8054 62.8533ZM98.6043 63.0751C98.6421 62.9022 98.7257 62.7781 98.8551 62.7029C98.9864 62.6262 99.1457 62.6034 99.3328 62.6346C99.4604 62.6559 99.5659 62.6967 99.6493 62.7572C99.7329 62.816 99.7911 62.8875 99.8238 62.9718C99.8585 63.0547 99.8678 63.1441 99.8519 63.24C99.8335 63.3498 99.7891 63.4383 99.7187 63.5054C99.6502 63.5711 99.5745 63.6105 99.4914 63.6235L99.4897 63.634C99.5859 63.6823 99.6553 63.7512 99.6978 63.8407C99.7422 63.9306 99.7539 64.0383 99.733 64.1638C99.7155 64.2685 99.6755 64.3577 99.6129 64.4315C99.552 64.5056 99.4705 64.5583 99.3682 64.5897C99.268 64.6196 99.1523 64.6236 99.0212 64.6017C98.8236 64.5688 98.671 64.4923 98.5634 64.3722C98.4558 64.2521 98.4147 64.0947 98.4399 63.9L98.7966 63.9594C98.7859 64.0454 98.8033 64.1191 98.8487 64.1805C98.8963 64.2404 98.9681 64.2783 99.0643 64.2944C99.1535 64.3092 99.2257 64.2962 99.2811 64.2552C99.3384 64.2128 99.3737 64.1523 99.3867 64.0739C99.4042 63.9692 99.3835 63.8887 99.3246 63.8323C99.2657 63.7759 99.1663 63.736 99.0264 63.7127L98.9504 63.7L99.0005 63.3992L99.0765 63.4119C99.3248 63.4533 99.4628 63.3911 99.4904 63.2254C99.5029 63.1505 99.4899 63.0882 99.4514 63.0388C99.4147 62.9897 99.3543 62.9581 99.2704 62.9441C99.1882 62.9304 99.1206 62.9425 99.0676 62.9802C99.0166 63.0166 98.982 63.0681 98.9637 63.135L98.6043 63.0751ZM100.152 63.1636L100.208 62.8262L100.84 62.9315L100.523 64.8385L100.145 64.7755L100.406 63.206L100.152 63.1636Z" fill="white"/>
<path opacity="0.5" d="M103.167 54.9972C102.925 54.9569 102.7 54.8458 102.521 54.6779C102.342 54.5101 102.216 54.293 102.161 54.0543C102.105 53.8155 102.122 53.5657 102.209 53.3365C102.295 53.1073 102.448 52.9089 102.648 52.7665C102.848 52.6241 103.086 52.5441 103.331 52.5365C103.577 52.5289 103.819 52.5941 104.028 52.7239C104.236 52.8537 104.402 53.0422 104.503 53.2656C104.604 53.489 104.637 53.7373 104.596 53.979L104.596 53.9792C104.542 54.3032 104.361 54.5923 104.093 54.7831C103.825 54.974 103.492 55.051 103.167 54.9972Z" fill="white"/>
<path d="M101.975 54.7985C101.733 54.7581 101.508 54.6469 101.329 54.4791C101.149 54.3112 101.024 54.0941 100.969 53.8554C100.913 53.6166 100.93 53.3668 101.017 53.1376C101.103 52.9084 101.256 52.7101 101.456 52.5677C101.656 52.4253 101.894 52.3453 102.139 52.3377C102.385 52.3302 102.627 52.3954 102.836 52.5253C103.044 52.6551 103.21 52.8436 103.311 53.067C103.412 53.2905 103.444 53.5387 103.404 53.7804C103.35 54.1044 103.169 54.3936 102.901 54.5844C102.633 54.7753 102.3 54.8523 101.975 54.7985Z" fill="white"/>
</g>
</g>
<rect x="74.6159" y="44.4603" width="33.7652" height="19.2" rx="1.6" transform="rotate(9.46 74.6159 44.4603)" stroke="white" stroke-width="0.8"/>
</g>
<defs>
<linearGradient id="paint0_linear_3189_23506" x1="69.4867" y1="12" x2="69.4867" y2="85.1029" gradientUnits="userSpaceOnUse">
<stop stop-color="#288C50"/>
<stop offset="1" stop-color="#24663F"/>
</linearGradient>
<linearGradient id="paint1_linear_3189_23506" x1="46.6697" y1="27.6516" x2="46.6697" y2="41.6516" gradientUnits="userSpaceOnUse">
<stop stop-color="#288C50"/>
<stop offset="1" stop-color="#24663F"/>
</linearGradient>
<linearGradient id="paint2_linear_3189_23506" x1="47.95" y1="32.7709" x2="48.6711" y2="36.0787" gradientUnits="userSpaceOnUse">
<stop stop-color="#288C50"/>
<stop offset="1" stop-color="#24663F"/>
</linearGradient>
<linearGradient id="paint3_linear_3189_23506" x1="91.3347" y1="46.8406" x2="88.0475" y2="66.5686" gradientUnits="userSpaceOnUse">
<stop stop-color="#288C50"/>
<stop offset="1" stop-color="#24663F"/>
</linearGradient>
<clipPath id="clip0_3189_23506">
<rect width="118" height="89" fill="white"/>
</clipPath>
<clipPath id="clip1_3189_23506">
<rect width="10" height="10" fill="white" transform="translate(42.0498 29.1797) rotate(-12.2981)"/>
</clipPath>
<clipPath id="clip2_3189_23506">
<rect width="4.16667" height="4.16667" fill="white" transform="translate(45.8313 32.833) rotate(-12.2981)"/>
</clipPath>
<clipPath id="clip3_3189_23506">
<rect x="74.2871" y="44" width="34.5652" height="20" rx="2" transform="rotate(9.46 74.2871 44)" fill="white"/>
</clipPath>
</defs>
</svg>
