<svg width="360" height="180" viewBox="0 0 360 180" fill="none" xmlns="http://www.w3.org/2000/svg">
<rect width="360" height="180" fill="white"/>
<path d="M169.171 44.192C169.171 44.7573 169.038 45.2907 168.771 45.792C168.505 46.2933 168.078 46.704 167.491 47.024C166.905 47.3333 166.153 47.488 165.235 47.488H163.219V52H161.395V40.88H165.235C166.089 40.88 166.809 41.0293 167.395 41.328C167.993 41.616 168.435 42.0107 168.723 42.512C169.022 43.0133 169.171 43.5733 169.171 44.192ZM165.235 46C165.929 46 166.446 45.8453 166.787 45.536C167.129 45.216 167.299 44.768 167.299 44.192C167.299 42.976 166.611 42.368 165.235 42.368H163.219V46H165.235ZM172.735 44.464C173.002 44.016 173.354 43.6693 173.791 43.424C174.239 43.168 174.767 43.04 175.375 43.04V44.928H174.911C174.196 44.928 173.652 45.1093 173.279 45.472C172.916 45.8347 172.735 46.464 172.735 47.36V52H170.911V43.184H172.735V44.464ZM180.876 52.144C180.044 52.144 179.292 51.9573 178.62 51.584C177.948 51.2 177.42 50.6667 177.036 49.984C176.652 49.2907 176.46 48.4907 176.46 47.584C176.46 46.688 176.657 45.8933 177.052 45.2C177.446 44.5067 177.985 43.9733 178.668 43.6C179.35 43.2267 180.113 43.04 180.956 43.04C181.798 43.04 182.561 43.2267 183.244 43.6C183.926 43.9733 184.465 44.5067 184.86 45.2C185.254 45.8933 185.452 46.688 185.452 47.584C185.452 48.48 185.249 49.2747 184.844 49.968C184.438 50.6613 183.884 51.2 183.18 51.584C182.486 51.9573 181.718 52.144 180.876 52.144ZM180.876 50.56C181.345 50.56 181.782 50.448 182.188 50.224C182.604 50 182.94 49.664 183.196 49.216C183.452 48.768 183.58 48.224 183.58 47.584C183.58 46.944 183.457 46.4053 183.212 45.968C182.966 45.52 182.641 45.184 182.236 44.96C181.83 44.736 181.393 44.624 180.924 44.624C180.454 44.624 180.017 44.736 179.612 44.96C179.217 45.184 178.902 45.52 178.668 45.968C178.433 46.4053 178.316 46.944 178.316 47.584C178.316 48.5333 178.556 49.2693 179.036 49.792C179.526 50.304 180.14 50.56 180.876 50.56ZM190.951 44.672H189.319V52H187.479V44.672H186.439V43.184H187.479V42.56C187.479 41.5467 187.745 40.8107 188.279 40.352C188.823 39.8827 189.671 39.648 190.823 39.648V41.168C190.268 41.168 189.879 41.2747 189.655 41.488C189.431 41.6907 189.319 42.048 189.319 42.56V43.184H190.951V44.672ZM193.495 42.016C193.165 42.016 192.887 41.904 192.663 41.68C192.439 41.456 192.327 41.1787 192.327 40.848C192.327 40.5173 192.439 40.24 192.663 40.016C192.887 39.792 193.165 39.68 193.495 39.68C193.815 39.68 194.087 39.792 194.311 40.016C194.535 40.24 194.647 40.5173 194.647 40.848C194.647 41.1787 194.535 41.456 194.311 41.68C194.087 41.904 193.815 42.016 193.495 42.016ZM194.391 43.184V52H192.567V43.184H194.391ZM198.61 40.16V52H196.786V40.16H198.61Z" fill="#333333"/>
</svg>
