<svg width="28" height="29" viewBox="0 0 28 29" fill="none" xmlns="http://www.w3.org/2000/svg">
<path d="M3.74177 28.1585H17.8368C17.8552 28.1584 17.8736 28.1569 17.8918 28.1543C17.9471 28.1569 18.0028 28.1585 18.0588 28.1585C18.9951 28.1575 19.8927 27.7851 20.5547 27.123C21.2167 26.461 21.5891 25.5634 21.5902 24.6272V19.048C21.5902 18.943 21.5484 18.8422 21.4742 18.768C21.3999 18.6937 21.2992 18.652 21.1941 18.652C21.0891 18.652 20.9884 18.6937 20.9141 18.768C20.8398 18.8422 20.7981 18.943 20.7981 19.048V24.6272C20.7981 25.3537 20.5095 26.0504 19.9958 26.5641C19.4821 27.0778 18.7853 27.3664 18.0588 27.3664C17.3323 27.3664 16.6356 27.0778 16.1219 26.5641C15.6081 26.0504 15.3195 25.3537 15.3195 24.6272V22.6017C15.3195 22.4966 15.2778 22.3959 15.2035 22.3216C15.1293 22.2474 15.0285 22.2056 14.9235 22.2056H4.86131L4.97022 2.9647C4.97448 2.48489 5.16887 2.02635 5.51076 1.68968C5.85264 1.353 6.3141 1.16568 6.79392 1.16879H21.6058C21.3499 1.42176 21.1467 1.72304 21.0081 2.05514C20.8695 2.38725 20.7982 2.74358 20.7984 3.10344V13.4013C20.7984 13.5063 20.8402 13.607 20.9144 13.6813C20.9887 13.7556 21.0894 13.7973 21.1945 13.7973C21.2995 13.7973 21.4002 13.7556 21.4745 13.6813C21.5488 13.607 21.5905 13.5063 21.5905 13.4013V7.21744H25.8559C25.9609 7.21744 26.0616 7.17572 26.1359 7.10145C26.2102 7.02717 26.2519 6.92644 26.2519 6.8214V3.10344C26.2511 2.38052 25.9635 1.68744 25.4523 1.17626C24.9412 0.665074 24.2481 0.37753 23.5252 0.376709H6.79392C5.35161 0.376709 4.17814 1.5377 4.17814 2.96245L4.06923 22.2056H0.772993C0.667957 22.2056 0.567222 22.2474 0.492951 22.3216C0.418679 22.3959 0.376953 22.4966 0.376953 22.6017V24.6272C0.378129 25.5192 0.716491 26.3778 1.32419 27.0309C1.93189 27.6839 2.764 28.083 3.65366 28.1483C3.68255 28.155 3.71211 28.1584 3.74177 28.1585ZM25.4595 3.10344V6.42536H21.5902V3.10344C21.5902 2.84938 21.6402 2.59781 21.7374 2.36308C21.8347 2.12836 21.9772 1.91509 22.1568 1.73544C22.3365 1.55579 22.5497 1.41328 22.7845 1.31606C23.0192 1.21883 23.2708 1.16879 23.5248 1.16879C23.7789 1.16879 24.0305 1.21883 24.2652 1.31606C24.4999 1.41328 24.7132 1.55579 24.8928 1.73544C25.0725 1.91509 25.215 2.12836 25.3122 2.36308C25.4094 2.59781 25.4595 2.84938 25.4595 3.10344ZM1.16903 24.6272V22.9977H14.5275V24.6272C14.5274 25.1522 14.6447 25.6706 14.8706 26.1445C15.0965 26.6184 15.4254 27.0359 15.8333 27.3664H3.90831C3.18206 27.3656 2.48579 27.0768 1.97226 26.5632C1.45872 26.0497 1.16985 25.3534 1.16903 24.6272Z" fill="#208E44"/>
<path d="M8.01469 5.80185H12.3154C12.4204 5.80185 12.5211 5.76012 12.5954 5.68585C12.6697 5.61158 12.7114 5.51084 12.7114 5.40581C12.7114 5.30077 12.6697 5.20004 12.5954 5.12576C12.5211 5.05149 12.4204 5.00977 12.3154 5.00977H8.01469C7.90966 5.00977 7.80892 5.05149 7.73465 5.12576C7.66038 5.20004 7.61865 5.30077 7.61865 5.40581C7.61865 5.51084 7.66038 5.61158 7.73465 5.68585C7.80892 5.76012 7.90966 5.80185 8.01469 5.80185Z" fill="#208E44"/>
<path d="M17.3097 8.3396H8.01469C7.90966 8.3396 7.80892 8.38132 7.73465 8.4556C7.66038 8.52987 7.61865 8.6306 7.61865 8.73564C7.61865 8.84068 7.66038 8.94141 7.73465 9.01568C7.80892 9.08995 7.90966 9.13168 8.01469 9.13168H17.3097C17.4147 9.13168 17.5154 9.08995 17.5897 9.01568C17.664 8.94141 17.7057 8.84068 17.7057 8.73564C17.7057 8.6306 17.664 8.52987 17.5897 8.4556C17.5154 8.38132 17.4147 8.3396 17.3097 8.3396Z" fill="#208E44"/>
<path d="M17.3097 11.6594H8.01469C7.90966 11.6594 7.80892 11.7011 7.73465 11.7754C7.66038 11.8497 7.61865 11.9504 7.61865 12.0555C7.61865 12.1605 7.66038 12.2612 7.73465 12.3355C7.80892 12.4098 7.90966 12.4515 8.01469 12.4515H17.3097C17.4147 12.4515 17.5154 12.4098 17.5897 12.3355C17.664 12.2612 17.7057 12.1605 17.7057 12.0555C17.7057 11.9504 17.664 11.8497 17.5897 11.7754C17.5154 11.7011 17.4147 11.6594 17.3097 11.6594Z" fill="#208E44"/>
<path d="M17.7057 15.3753C17.7057 15.2703 17.664 15.1695 17.5897 15.0952C17.5154 15.021 17.4147 14.9792 17.3097 14.9792H8.01469C7.90966 14.9792 7.80892 15.021 7.73465 15.0952C7.66038 15.1695 7.61865 15.2703 7.61865 15.3753C7.61865 15.4803 7.66038 15.5811 7.73465 15.6553C7.80892 15.7296 7.90966 15.7713 8.01469 15.7713H17.3097C17.4147 15.7713 17.5154 15.7296 17.5897 15.6553C17.664 15.5811 17.7057 15.4803 17.7057 15.3753Z" fill="#208E44"/>
<path d="M8.01469 18.2988C7.90966 18.2988 7.80892 18.3406 7.73465 18.4148C7.66038 18.4891 7.61865 18.5898 7.61865 18.6949C7.61865 18.7999 7.66038 18.9006 7.73465 18.9749C7.80892 19.0492 7.90966 19.0909 8.01469 19.0909H14.9994C15.1045 19.0909 15.2052 19.0492 15.2795 18.9749C15.3538 18.9006 15.3955 18.7999 15.3955 18.6949C15.3955 18.5898 15.3538 18.4891 15.2795 18.4148C15.2052 18.3406 15.1045 18.2988 14.9994 18.2988H8.01469Z" fill="#208E44"/>
<path d="M25.4029 10.094C25.2099 9.90136 24.9483 9.79312 24.6756 9.79297C24.4029 9.79282 24.1412 9.90078 23.948 10.0932L17.3011 16.7269C17.2064 16.8213 17.1403 16.9404 17.1102 17.0707L16.2803 20.6604C16.2651 20.7259 16.2668 20.7942 16.2853 20.8588C16.3038 20.9235 16.3385 20.9823 16.386 21.0299C16.4336 21.0774 16.4924 21.1121 16.5571 21.1306C16.6217 21.1491 16.69 21.1508 16.7555 21.1356L20.3452 20.3057C20.4756 20.2757 20.5948 20.2095 20.6893 20.1148L27.323 13.468C27.5153 13.2747 27.6232 13.0131 27.6231 12.7404C27.623 12.4677 27.5148 12.2062 27.3222 12.0131L25.4029 10.094ZM17.7451 17.8406L19.575 19.6705L17.1947 20.2208L17.7451 17.8406ZM20.3538 19.3292L18.0865 17.0618L23.3305 11.8284L25.5872 14.0851L20.3538 19.3292ZM26.7618 12.9081L26.1467 13.5245L23.8912 11.2689L24.5075 10.6538C24.5521 10.6094 24.6123 10.5846 24.6752 10.5846C24.738 10.5846 24.7983 10.6094 24.8428 10.6538L26.7616 12.5725C26.806 12.617 26.831 12.6774 26.831 12.7403C26.8311 12.8032 26.8062 12.8635 26.7618 12.9081Z" fill="#F7941D"/>
</svg>
