<svg width="40" height="40" viewBox="0 0 40 40" fill="none" xmlns="http://www.w3.org/2000/svg">
<circle cx="20" cy="20" r="20" fill="url(#paint0_linear_2898_11238)"/>
<path d="M9.74177 34.1585H23.8368C23.8552 34.1584 23.8736 34.1569 23.8918 34.1543C23.9471 34.1569 24.0028 34.1585 24.0588 34.1585C24.9951 34.1575 25.8927 33.7851 26.5547 33.123C27.2167 32.461 27.5891 31.5634 27.5902 30.6272V25.048C27.5902 24.943 27.5484 24.8422 27.4742 24.768C27.3999 24.6937 27.2992 24.652 27.1941 24.652C27.0891 24.652 26.9884 24.6937 26.9141 24.768C26.8398 24.8422 26.7981 24.943 26.7981 25.048V30.6272C26.7981 31.3537 26.5095 32.0504 25.9958 32.5641C25.4821 33.0778 24.7853 33.3664 24.0588 33.3664C23.3323 33.3664 22.6356 33.0778 22.1219 32.5641C21.6081 32.0504 21.3195 31.3537 21.3195 30.6272V28.6017C21.3195 28.4966 21.2778 28.3959 21.2035 28.3216C21.1293 28.2474 21.0285 28.2056 20.9235 28.2056H10.8613L10.9702 8.9647C10.9745 8.48489 11.1689 8.02635 11.5108 7.68968C11.8526 7.353 12.3141 7.16568 12.7939 7.16879H27.6058C27.3499 7.42176 27.1467 7.72304 27.0081 8.05514C26.8695 8.38725 26.7982 8.74358 26.7984 9.10344V19.4013C26.7984 19.5063 26.8402 19.607 26.9144 19.6813C26.9887 19.7556 27.0894 19.7973 27.1945 19.7973C27.2995 19.7973 27.4002 19.7556 27.4745 19.6813C27.5488 19.607 27.5905 19.5063 27.5905 19.4013V13.2174H31.8559C31.9609 13.2174 32.0616 13.1757 32.1359 13.1014C32.2102 13.0272 32.2519 12.9264 32.2519 12.8214V9.10344C32.2511 8.38052 31.9635 7.68744 31.4523 7.17626C30.9412 6.66507 30.2481 6.37753 29.5252 6.37671H12.7939C11.3516 6.37671 10.1781 7.5377 10.1781 8.96245L10.0692 28.2056H6.77299C6.66796 28.2056 6.56722 28.2474 6.49295 28.3216C6.41868 28.3959 6.37695 28.4966 6.37695 28.6017V30.6272C6.37813 31.5192 6.71649 32.3778 7.32419 33.0309C7.93189 33.6839 8.764 34.083 9.65366 34.1483C9.68255 34.155 9.71211 34.1584 9.74177 34.1585ZM31.4595 9.10344V12.4254H27.5902V9.10344C27.5902 8.84938 27.6402 8.59781 27.7374 8.36308C27.8347 8.12836 27.9772 7.91509 28.1568 7.73544C28.3365 7.55579 28.5497 7.41328 28.7845 7.31606C29.0192 7.21883 29.2708 7.16879 29.5248 7.16879C29.7789 7.16879 30.0305 7.21883 30.2652 7.31606C30.4999 7.41328 30.7132 7.55579 30.8928 7.73544C31.0725 7.91509 31.215 8.12836 31.3122 8.36308C31.4094 8.59781 31.4595 8.84938 31.4595 9.10344ZM7.16903 30.6272V28.9977H20.5275V30.6272C20.5274 31.1522 20.6447 31.6706 20.8706 32.1445C21.0965 32.6184 21.4254 33.0359 21.8333 33.3664H9.90831C9.18206 33.3656 8.48579 33.0768 7.97226 32.5632C7.45872 32.0497 7.16985 31.3534 7.16903 30.6272Z" fill="#24663F"/>
<path d="M14.0142 11.8018H18.3149C18.4199 11.8018 18.5206 11.7601 18.5949 11.6858C18.6692 11.6116 18.7109 11.5108 18.7109 11.4058C18.7109 11.3008 18.6692 11.2 18.5949 11.1258C18.5206 11.0515 18.4199 11.0098 18.3149 11.0098H14.0142C13.9092 11.0098 13.8084 11.0515 13.7342 11.1258C13.6599 11.2 13.6182 11.3008 13.6182 11.4058C13.6182 11.5108 13.6599 11.6116 13.7342 11.6858C13.8084 11.7601 13.9092 11.8018 14.0142 11.8018Z" fill="#24663F"/>
<path d="M23.3092 14.3396H14.0142C13.9092 14.3396 13.8084 14.3813 13.7342 14.4556C13.6599 14.5299 13.6182 14.6306 13.6182 14.7356C13.6182 14.8407 13.6599 14.9414 13.7342 15.0157C13.8084 15.09 13.9092 15.1317 14.0142 15.1317H23.3092C23.4142 15.1317 23.515 15.09 23.5892 15.0157C23.6635 14.9414 23.7052 14.8407 23.7052 14.7356C23.7052 14.6306 23.6635 14.5299 23.5892 14.4556C23.515 14.3813 23.4142 14.3396 23.3092 14.3396Z" fill="#24663F"/>
<path d="M23.3092 17.6594H14.0142C13.9092 17.6594 13.8084 17.7011 13.7342 17.7754C13.6599 17.8497 13.6182 17.9504 13.6182 18.0555C13.6182 18.1605 13.6599 18.2612 13.7342 18.3355C13.8084 18.4098 13.9092 18.4515 14.0142 18.4515H23.3092C23.4142 18.4515 23.515 18.4098 23.5892 18.3355C23.6635 18.2612 23.7052 18.1605 23.7052 18.0555C23.7052 17.9504 23.6635 17.8497 23.5892 17.7754C23.515 17.7011 23.4142 17.6594 23.3092 17.6594Z" fill="#24663F"/>
<path d="M23.7052 21.3753C23.7052 21.2703 23.6635 21.1695 23.5892 21.0952C23.515 21.021 23.4142 20.9792 23.3092 20.9792H14.0142C13.9092 20.9792 13.8084 21.021 13.7342 21.0952C13.6599 21.1695 13.6182 21.2703 13.6182 21.3753C13.6182 21.4803 13.6599 21.5811 13.7342 21.6553C13.8084 21.7296 13.9092 21.7713 14.0142 21.7713H23.3092C23.4142 21.7713 23.515 21.7296 23.5892 21.6553C23.6635 21.5811 23.7052 21.4803 23.7052 21.3753Z" fill="#24663F"/>
<path d="M14.0142 24.2988C13.9092 24.2988 13.8084 24.3406 13.7342 24.4148C13.6599 24.4891 13.6182 24.5898 13.6182 24.6949C13.6182 24.7999 13.6599 24.9006 13.7342 24.9749C13.8084 25.0492 13.9092 25.0909 14.0142 25.0909H20.999C21.104 25.0909 21.2047 25.0492 21.279 24.9749C21.3533 24.9006 21.395 24.7999 21.395 24.6949C21.395 24.5898 21.3533 24.4891 21.279 24.4148C21.2047 24.3406 21.104 24.2988 20.999 24.2988H14.0142Z" fill="#24663F"/>
<path d="M31.4034 16.094C31.2103 15.9014 30.9488 15.7931 30.6761 15.793C30.4034 15.7928 30.1417 15.9008 29.9485 16.0932L23.3016 22.7269C23.2069 22.8213 23.1408 22.9404 23.1107 23.0707L22.2807 26.6604C22.2656 26.7259 22.2673 26.7942 22.2858 26.8588C22.3043 26.9235 22.339 26.9823 22.3865 27.0299C22.434 27.0774 22.4929 27.1121 22.5576 27.1306C22.6222 27.1491 22.6905 27.1508 22.756 27.1356L26.3457 26.3057C26.4761 26.2757 26.5953 26.2095 26.6898 26.1148L33.3235 19.468C33.5158 19.2747 33.6237 19.0131 33.6236 18.7404C33.6235 18.4677 33.5153 18.2062 33.3227 18.0131L31.4034 16.094ZM23.7456 23.8406L25.5755 25.6705L23.1952 26.2208L23.7456 23.8406ZM26.3543 25.3292L24.087 23.0618L29.331 17.8284L31.5877 20.0851L26.3543 25.3292ZM32.7623 18.9081L32.1472 19.5245L29.8917 17.2689L30.508 16.6538C30.5525 16.6094 30.6128 16.5846 30.6757 16.5846C30.7385 16.5846 30.7988 16.6094 30.8433 16.6538L32.7621 18.5725C32.8065 18.617 32.8315 18.6774 32.8315 18.7403C32.8316 18.8032 32.8067 18.8635 32.7623 18.9081Z" fill="#24663F"/>
<defs>
<linearGradient id="paint0_linear_2898_11238" x1="20" y1="0" x2="20" y2="40" gradientUnits="userSpaceOnUse">
<stop stop-color="#E1FFED"/>
<stop offset="1" stop-color="#E1FFED" stop-opacity="0"/>
</linearGradient>
</defs>
</svg>
