<svg width="40" height="40" viewBox="0 0 40 40" fill="none" xmlns="http://www.w3.org/2000/svg">
<circle cx="20" cy="20" r="20" fill="url(#paint0_linear_2487_2708)"/>
<path d="M9.74177 34.1586H23.8368C23.8552 34.1584 23.8736 34.157 23.8918 34.1544C23.9471 34.157 24.0028 34.1586 24.0588 34.1586C24.9951 34.1575 25.8927 33.7851 26.5547 33.1231C27.2167 32.4611 27.5891 31.5635 27.5902 30.6273V25.0481C27.5902 24.9431 27.5484 24.8423 27.4742 24.7681C27.3999 24.6938 27.2992 24.6521 27.1941 24.6521C27.0891 24.6521 26.9884 24.6938 26.9141 24.7681C26.8398 24.8423 26.7981 24.9431 26.7981 25.0481V30.6273C26.7981 31.3538 26.5095 32.0505 25.9958 32.5642C25.4821 33.0779 24.7853 33.3665 24.0588 33.3665C23.3323 33.3665 22.6356 33.0779 22.1219 32.5642C21.6081 32.0505 21.3195 31.3538 21.3195 30.6273V28.6018C21.3195 28.4967 21.2778 28.396 21.2035 28.3217C21.1293 28.2475 21.0285 28.2057 20.9235 28.2057H10.8613L10.9702 8.96479C10.9745 8.48498 11.1689 8.02645 11.5108 7.68977C11.8526 7.35309 12.3141 7.16577 12.7939 7.16888H27.6058C27.3499 7.42185 27.1467 7.72313 27.0081 8.05524C26.8695 8.38734 26.7982 8.74367 26.7984 9.10354V19.4014C26.7984 19.5064 26.8402 19.6071 26.9144 19.6814C26.9887 19.7557 27.0894 19.7974 27.1945 19.7974C27.2995 19.7974 27.4002 19.7557 27.4745 19.6814C27.5488 19.6071 27.5905 19.5064 27.5905 19.4014V13.2175H31.8559C31.9609 13.2175 32.0616 13.1758 32.1359 13.1015C32.2102 13.0273 32.2519 12.9265 32.2519 12.8215V9.10354C32.2511 8.38061 31.9635 7.68753 31.4523 7.17635C30.9412 6.66517 30.2481 6.37762 29.5252 6.3768H12.7939C11.3516 6.3768 10.1781 7.53779 10.1781 8.96255L10.0692 28.2057H6.77299C6.66796 28.2057 6.56722 28.2475 6.49295 28.3217C6.41868 28.396 6.37695 28.4967 6.37695 28.6018V30.6273C6.37813 31.5193 6.71649 32.3779 7.32419 33.031C7.93189 33.684 8.764 34.0831 9.65366 34.1484C9.68255 34.1551 9.71211 34.1585 9.74177 34.1586ZM31.4595 9.10354V12.4255H27.5902V9.10354C27.5902 8.84947 27.6402 8.5979 27.7374 8.36318C27.8347 8.12845 27.9772 7.91518 28.1568 7.73553C28.3365 7.55588 28.5497 7.41337 28.7845 7.31615C29.0192 7.21892 29.2708 7.16888 29.5248 7.16888C29.7789 7.16888 30.0305 7.21892 30.2652 7.31615C30.4999 7.41337 30.7132 7.55588 30.8928 7.73553C31.0725 7.91518 31.215 8.12845 31.3122 8.36318C31.4094 8.5979 31.4595 8.84947 31.4595 9.10354ZM7.16903 30.6273V28.9978H20.5275V30.6273C20.5274 31.1523 20.6447 31.6707 20.8706 32.1446C21.0965 32.6185 21.4254 33.036 21.8333 33.3665H9.90831C9.18206 33.3657 8.48579 33.0768 7.97226 32.5633C7.45872 32.0498 7.16985 31.3535 7.16903 30.6273Z" fill="#24663F"/>
<path d="M14.0142 11.8019H18.3149C18.4199 11.8019 18.5206 11.7602 18.5949 11.6859C18.6692 11.6116 18.7109 11.5109 18.7109 11.4059C18.7109 11.3008 18.6692 11.2001 18.5949 11.1258C18.5206 11.0516 18.4199 11.0098 18.3149 11.0098H14.0142C13.9092 11.0098 13.8084 11.0516 13.7342 11.1258C13.6599 11.2001 13.6182 11.3008 13.6182 11.4059C13.6182 11.5109 13.6599 11.6116 13.7342 11.6859C13.8084 11.7602 13.9092 11.8019 14.0142 11.8019Z" fill="#24663F"/>
<path d="M23.3092 14.3398H14.0142C13.9092 14.3398 13.8084 14.3815 13.7342 14.4557C13.6599 14.53 13.6182 14.6308 13.6182 14.7358C13.6182 14.8408 13.6599 14.9416 13.7342 15.0158C13.8084 15.0901 13.9092 15.1318 14.0142 15.1318H23.3092C23.4142 15.1318 23.515 15.0901 23.5892 15.0158C23.6635 14.9416 23.7052 14.8408 23.7052 14.7358C23.7052 14.6308 23.6635 14.53 23.5892 14.4557C23.515 14.3815 23.4142 14.3398 23.3092 14.3398Z" fill="#24663F"/>
<path d="M23.3092 17.6595H14.0142C13.9092 17.6595 13.8084 17.7012 13.7342 17.7755C13.6599 17.8498 13.6182 17.9505 13.6182 18.0555C13.6182 18.1606 13.6599 18.2613 13.7342 18.3356C13.8084 18.4098 13.9092 18.4516 14.0142 18.4516H23.3092C23.4142 18.4516 23.515 18.4098 23.5892 18.3356C23.6635 18.2613 23.7052 18.1606 23.7052 18.0555C23.7052 17.9505 23.6635 17.8498 23.5892 17.7755C23.515 17.7012 23.4142 17.6595 23.3092 17.6595Z" fill="#24663F"/>
<path d="M23.7052 21.3753C23.7052 21.2703 23.6635 21.1695 23.5892 21.0952C23.515 21.021 23.4142 20.9792 23.3092 20.9792H14.0142C13.9092 20.9792 13.8084 21.021 13.7342 21.0952C13.6599 21.1695 13.6182 21.2703 13.6182 21.3753C13.6182 21.4803 13.6599 21.5811 13.7342 21.6553C13.8084 21.7296 13.9092 21.7713 14.0142 21.7713H23.3092C23.4142 21.7713 23.515 21.7296 23.5892 21.6553C23.6635 21.5811 23.7052 21.4803 23.7052 21.3753Z" fill="#24663F"/>
<path d="M14.0142 24.299C13.9092 24.299 13.8084 24.3407 13.7342 24.415C13.6599 24.4893 13.6182 24.59 13.6182 24.695C13.6182 24.8001 13.6599 24.9008 13.7342 24.9751C13.8084 25.0493 13.9092 25.0911 14.0142 25.0911H20.999C21.104 25.0911 21.2047 25.0493 21.279 24.9751C21.3533 24.9008 21.395 24.8001 21.395 24.695C21.395 24.59 21.3533 24.4893 21.279 24.415C21.2047 24.3407 21.104 24.299 20.999 24.299H14.0142Z" fill="#24663F"/>
<path d="M31.4034 16.094C31.2103 15.9014 30.9488 15.7931 30.6761 15.793C30.4034 15.7929 30.1417 15.9008 29.9485 16.0932L23.3016 22.7269C23.2069 22.8213 23.1408 22.9404 23.1107 23.0707L22.2807 26.6604C22.2656 26.7259 22.2673 26.7942 22.2858 26.8588C22.3043 26.9235 22.339 26.9824 22.3865 27.0299C22.434 27.0774 22.4929 27.1121 22.5576 27.1306C22.6222 27.1491 22.6905 27.1508 22.756 27.1357L26.3457 26.3058C26.4761 26.2757 26.5953 26.2096 26.6898 26.1149L33.3235 19.468C33.5158 19.2747 33.6237 19.0131 33.6236 18.7404C33.6235 18.4677 33.5153 18.2062 33.3227 18.0131L31.4034 16.094ZM23.7456 23.8406L25.5755 25.6705L23.1952 26.2208L23.7456 23.8406ZM26.3543 25.3292L24.087 23.0619L29.331 17.8285L31.5877 20.0852L26.3543 25.3292ZM32.7623 18.9081L32.1472 19.5245L29.8917 17.2689L30.508 16.6538C30.5525 16.6095 30.6128 16.5846 30.6757 16.5846C30.7385 16.5846 30.7988 16.6095 30.8433 16.6538L32.7621 18.5726C32.8065 18.6171 32.8315 18.6774 32.8315 18.7403C32.8316 18.8032 32.8067 18.8636 32.7623 18.9081Z" fill="#24663F"/>
<defs>
<linearGradient id="paint0_linear_2487_2708" x1="20" y1="0" x2="20" y2="40" gradientUnits="userSpaceOnUse">
<stop stop-color="#E1FFED"/>
<stop offset="1" stop-color="#E1FFED" stop-opacity="0"/>
</linearGradient>
</defs>
</svg>
