<svg width="16" height="16" viewBox="0 0 16 16" fill="none" xmlns="http://www.w3.org/2000/svg">
<path d="M1.49992 7.5001C1.50083 6.70473 1.81719 5.9422 2.3796 5.37978C2.94202 4.81737 3.70455 4.50101 4.49992 4.5001H6.99886C7.03129 4.49997 10.2727 4.45697 13.3568 1.87035C13.5025 1.74789 13.6802 1.66957 13.869 1.64462C14.0577 1.61966 14.2496 1.6491 14.4222 1.72947C14.5948 1.80984 14.7408 1.9378 14.8432 2.09831C14.9455 2.25883 14.9999 2.44523 15 2.6356V12.3646C15.0011 12.5551 14.9473 12.7418 14.845 12.9025C14.7427 13.0631 14.5962 13.1908 14.4231 13.2703C14.29 13.3328 14.1448 13.3654 13.9977 13.3657C13.763 13.3652 13.536 13.2817 13.3569 13.1299C10.9895 11.1444 8.52973 10.6577 7.49992 10.5386V12.7325C7.50011 12.8972 7.45955 13.0593 7.38186 13.2045C7.30417 13.3497 7.19177 13.4734 7.05467 13.5645L6.36761 14.0227C6.23427 14.1115 6.08152 14.1671 5.92223 14.1846C5.76294 14.2021 5.60178 14.1811 5.45231 14.1233C5.30285 14.0655 5.16946 13.9726 5.06339 13.8525C4.95731 13.7324 4.88166 13.5886 4.84279 13.4331L4.10279 10.473C3.38279 10.376 2.72234 10.0213 2.24377 9.47473C1.76519 8.92813 1.50093 8.2266 1.49992 7.5001ZM5.81298 13.1905L6.49992 12.7325V10.5001H5.14029L5.81298 13.1905ZM4.49992 9.5001H6.49992V5.5001H4.49992C3.96949 5.5001 3.46078 5.71081 3.08571 6.08589C2.71063 6.46096 2.49992 6.96967 2.49992 7.5001C2.49992 8.03053 2.71063 8.53924 3.08571 8.91431C3.46078 9.28939 3.96949 9.5001 4.49992 9.5001Z" fill="#FF8829"/>
</svg>
