<svg width="360" height="180" viewBox="0 0 360 180" fill="none" xmlns="http://www.w3.org/2000/svg">
<g clip-path="url(#clip0_3192_84446)">
<rect width="360" height="180" fill="url(#paint0_linear_3192_84446)"/>
<path d="M137 85.8383C79.4 83.321 21.5 47.9476 0 30.7722L0.318792 -36.5941L0.5 -57.8339L0 -107H0.5H360V19.3657C358.833 18.5791 348.9 19.8377 318.5 31.1656C280.5 45.3254 209 88.985 137 85.8383Z" fill="url(#paint1_linear_3192_84446)"/>
<path d="M0 16.5004C22.2167 34.1207 77.0467 66.2516 136.567 68.8341C210.967 72.0623 284.85 27.2717 324.117 12.745C355.53 1.12367 359.294 0.19278 360.5 0.999817" stroke="white" stroke-opacity="0.1" stroke-linecap="round" stroke-dasharray="6 6"/>
<path d="M341.544 127.349C350.184 116.214 365.395 109.645 371.846 107.775L385.187 117.322L389.382 120.348L399.223 127.17L399.152 127.269L348.352 198.976L323.242 181.187C323.563 181.065 324.716 178.906 326.761 171.248C329.317 161.675 330.745 141.267 341.544 127.349Z" fill="url(#paint2_linear_3192_84446)"/>
<circle cx="2.5" cy="127.5" r="57.5" fill="url(#paint3_linear_3192_84446)"/>
</g>
<defs>
<linearGradient id="paint0_linear_3192_84446" x1="180" y1="0" x2="180" y2="180" gradientUnits="userSpaceOnUse">
<stop stop-color="#DEF2E1"/>
<stop offset="1" stop-color="#ACDDC0"/>
</linearGradient>
<linearGradient id="paint1_linear_3192_84446" x1="180" y1="-107" x2="180" y2="86" gradientUnits="userSpaceOnUse">
<stop stop-color="#DEF2E1"/>
<stop offset="1" stop-color="#ACDDC0"/>
</linearGradient>
<linearGradient id="paint2_linear_3192_84446" x1="373.787" y1="163.073" x2="335.436" y2="135.903" gradientUnits="userSpaceOnUse">
<stop stop-color="#DEF2E1"/>
<stop offset="1" stop-color="#ACDDC0"/>
</linearGradient>
<linearGradient id="paint3_linear_3192_84446" x1="2.5" y1="70" x2="2.5" y2="185" gradientUnits="userSpaceOnUse">
<stop stop-color="#DEF2E1"/>
<stop offset="1" stop-color="#ACDDC0"/>
</linearGradient>
<clipPath id="clip0_3192_84446">
<rect width="360" height="180" fill="white"/>
</clipPath>
</defs>
</svg>
