<svg width="24" height="24" viewBox="0 0 24 24" fill="none" xmlns="http://www.w3.org/2000/svg">
<rect width="24" height="24" rx="12" fill="white"/>
<path d="M16.6082 14.6012V14.1742H18.9974L19.3842 13.465H16.9566V13.0418H19.6101L19.9279 12.458H7.08551V15.1498H18.4729L18.7715 14.6012H16.6082Z" fill="#F6921E"/>
<path d="M3 15.9999H7.0702C9.3178 15.9999 11.1366 14.1349 11.1366 11.8388C11.1366 9.53886 9.31398 7.67774 7.0702 7.67774C4.82259 7.67382 3 9.53886 3 11.8349V15.9999Z" fill="#268C44"/>
<path d="M7.074 8.48096C8.88511 8.48096 10.3554 9.98945 10.3554 11.8388C10.3554 13.6921 8.88128 15.1967 7.074 15.1967C5.2629 15.1967 3.79257 13.6882 3.79257 11.8388C3.79257 9.98553 5.2629 8.48096 7.074 8.48096Z" fill="white"/>
<path d="M8.98472 13.5943L9.01153 13.6178C9.42888 13.1437 9.68543 12.5207 9.68543 11.8311C9.68543 10.3579 8.51759 9.15894 7.07407 9.15894V11.7449L8.98472 13.5943Z" fill="#F8BF2A"/>
<path d="M9.52072 11.8311C9.45946 11.8585 9.39819 11.882 9.33693 11.9016C9.3063 11.9134 9.27566 11.933 9.24503 11.9212C9.2144 11.9016 9.18377 11.8899 9.15314 11.835V11.8154C9.18377 11.7606 9.2144 11.7449 9.24503 11.7292C9.27566 11.7175 9.3063 11.737 9.33693 11.7488C9.39819 11.7645 9.45946 11.788 9.52072 11.8154V11.8311Z" fill="#268C44"/>
<path d="M7.08548 9.30396C7.11229 9.36665 7.13526 9.42934 7.15441 9.49203C7.16589 9.52337 7.18504 9.55472 7.17355 9.58606C7.15441 9.61741 7.14292 9.64875 7.08548 9.6801H7.06634C7.01273 9.64875 6.99742 9.61741 6.97827 9.58606C6.96679 9.55472 6.98593 9.52337 6.99742 9.49203C7.01273 9.42934 7.03571 9.36665 7.06251 9.30396H7.08548Z" fill="#268C44"/>
<path d="M8.73578 10.3892L8.91957 10.2012" stroke="#268C44" stroke-width="0.25" stroke-miterlimit="10" stroke-linecap="round"/>
<path d="M8.73578 13.3591L8.91957 13.5472" stroke="#268C44" stroke-width="0.25" stroke-miterlimit="10" stroke-linecap="round"/>
<path d="M7.85516 11.8389C7.85516 12.2816 7.50672 12.6382 7.07405 12.6382C6.64137 12.6382 6.29294 12.2816 6.29294 11.8389C6.29294 11.3961 6.64137 11.0396 7.07405 11.0396C7.50672 11.0396 7.85516 11.3961 7.85516 11.8389Z" fill="#268C44"/>
<path d="M7.07399 12.3208C7.3341 12.3208 7.54495 12.105 7.54495 11.8389C7.54495 11.5727 7.3341 11.3569 7.07399 11.3569C6.81389 11.3569 6.60303 11.5727 6.60303 11.8389C6.60303 12.105 6.81389 12.3208 7.07399 12.3208Z" fill="#F6921E"/>
<path d="M11.8067 11.8389C11.8067 11.976 11.6995 12.0857 11.5655 12.0857C11.4315 12.0857 11.3243 11.976 11.3243 11.8389C11.3243 11.7017 11.4315 11.592 11.5655 11.592C11.6957 11.592 11.8067 11.7017 11.8067 11.8389Z" fill="#F6921E"/>
<path d="M11.7148 10.9143C11.7148 11.0515 11.6075 11.1612 11.4735 11.1612C11.3395 11.1612 11.2323 11.0515 11.2323 10.9143C11.2323 10.7772 11.3395 10.6675 11.4735 10.6675C11.6037 10.6675 11.7148 10.7772 11.7148 10.9143Z" fill="#F6921E"/>
<path d="M11.4506 10.0521C11.4506 10.1893 11.3434 10.299 11.2094 10.299C11.0754 10.299 10.9681 10.1893 10.9681 10.0521C10.9681 9.91498 11.0754 9.80527 11.2094 9.80527C11.3434 9.80136 11.4506 9.91498 11.4506 10.0521Z" fill="#F6921E"/>
<path d="M11.037 9.27258C11.037 9.40971 10.9298 9.51942 10.7958 9.51942C10.6618 9.51942 10.5546 9.40971 10.5546 9.27258C10.5546 9.13544 10.6618 9.02573 10.7958 9.02573C10.9298 9.02182 11.037 9.13544 11.037 9.27258Z" fill="#F6921E"/>
<path d="M10.4895 8.59084C10.4895 8.72797 10.3823 8.83768 10.2483 8.83768C10.1143 8.83768 10.007 8.72797 10.007 8.59084C10.007 8.4537 10.1143 8.34399 10.2483 8.34399C10.3823 8.34399 10.4895 8.4537 10.4895 8.59084Z" fill="#F6921E"/>
<path d="M9.82708 8.03054C9.82708 8.16767 9.71987 8.27738 9.58586 8.27738C9.45185 8.27738 9.34464 8.16767 9.34464 8.03054C9.34464 7.8934 9.45185 7.78369 9.58586 7.78369C9.71987 7.78369 9.82708 7.8934 9.82708 8.03054Z" fill="#F6921E"/>
<path d="M9.06509 7.6072C9.06509 7.74433 8.95788 7.85404 8.82387 7.85404C8.68985 7.85404 8.58264 7.74433 8.58264 7.6072C8.58264 7.47006 8.68985 7.36035 8.82387 7.36035C8.95405 7.36035 9.06509 7.47006 9.06509 7.6072Z" fill="#F6921E"/>
<path d="M8.22272 7.34084C8.22272 7.47797 8.1155 7.58768 7.98149 7.58768C7.84748 7.58768 7.74026 7.47797 7.74026 7.34084C7.74026 7.2037 7.84748 7.09399 7.98149 7.09399C8.1155 7.09399 8.22272 7.2037 8.22272 7.34084Z" fill="#F6921E"/>
<path d="M7.31531 7.24684C7.31531 7.38398 7.20809 7.49369 7.07408 7.49369C6.94007 7.49369 6.83286 7.38398 6.83286 7.24684C6.83286 7.10971 6.94007 7 7.07408 7C7.20809 7 7.31531 7.10971 7.31531 7.24684Z" fill="#F6921E"/>
<path d="M12.3369 10H13.0645L13.2827 11.1676L13.8915 10H14.619L14.2821 11.9434H13.6886L13.8532 10.9756L13.3937 11.9434H12.8845L12.7581 10.9678L12.5935 11.9434H12L12.3369 10Z" fill="#268C44"/>
<path d="M15.8214 11.6495H15.1896L15.0441 11.9434H14.42L15.4499 10H16.1353L16.4914 11.9434H15.8635L15.8214 11.6495ZM15.6759 10.6504L15.4117 11.1911H15.7563L15.6759 10.6504Z" fill="#268C44"/>
<path d="M17.5712 11.438L17.1921 11.9434H16.5144L17.3108 10.9404L16.8246 10H17.5291L17.7818 10.4859L18.1455 10H18.8233L18.0422 10.9835L18.5399 11.9434H17.8354L17.5712 11.438Z" fill="#268C44"/>
<path d="M19.007 10H19.6043L19.2674 11.9434H18.6739L19.007 10Z" fill="#268C44"/>
<path d="M11.799 13.5396H11.5156L11.6152 12.9675H12.5226L12.1857 14.9109H11.5616L11.799 13.5396Z" fill="white"/>
<path d="M14.2342 12.9048L14.1423 13.4416H13.365L13.3229 13.6727C13.4033 13.6101 13.5182 13.5709 13.656 13.5709C14.0389 13.5709 14.1615 13.8765 14.104 14.2174C14.0274 14.6601 13.725 14.9109 13.3038 14.9109C12.8328 14.9109 12.6107 14.6405 12.6796 14.2683H13.2578C13.2502 14.3114 13.2616 14.3898 13.3612 14.3898C13.4569 14.3898 13.5067 14.3114 13.5258 14.2056C13.545 14.0959 13.499 14.045 13.4148 14.045C13.3344 14.045 13.2923 14.092 13.2846 14.1351H12.7064L12.917 12.9048H14.2342Z" fill="white"/>
<path d="M15.3216 12.9321C15.8883 12.9321 16.0568 13.3475 15.9572 13.9156C15.8615 14.4837 15.5514 14.899 14.9847 14.899C14.4142 14.899 14.2534 14.4837 14.3491 13.9156C14.4486 13.3475 14.755 12.9321 15.3216 12.9321ZM15.2221 13.5081C15.0268 13.5081 14.9694 13.7001 14.9311 13.9156C14.8928 14.1311 14.8851 14.3231 15.0804 14.3231C15.2719 14.3231 15.3293 14.1311 15.3676 13.9156C15.4097 13.7001 15.4174 13.5081 15.2221 13.5081Z" fill="white"/>
<path d="M20.7588 9.34306H12.1398L12.381 8.84546H21L20.7588 9.34306Z" fill="#F6921E"/>
</svg>
