<svg width="57" height="56" viewBox="0 0 57 56" fill="none" xmlns="http://www.w3.org/2000/svg">
<circle cx="28.5" cy="28" r="28" fill="url(#paint0_linear_2487_3882)"/>
<path d="M30.4853 29.6871V34.1671C30.4853 34.1671 28.7415 35.3721 28.6281 35.9463C28.5147 36.5205 28.6636 38.8739 29.3512 39.0653C30.0317 39.2567 30.4924 39.7387 30.4924 39.7387V44.3818C30.4924 44.3818 44.0884 44.4172 44.4286 44.3818C44.7689 44.3463 45.5699 44.1904 45.4919 42.2197C45.414 40.242 45.2651 29.6871 45.2651 29.6871L40.5512 29.3468C40.5512 29.3468 39.7643 28.0071 39.2327 27.5959C38.701 27.1848 36.8864 27.5959 36.8864 27.5959L35.6246 29.2688L30.4853 29.6871Z" fill="#DAF1DE"/>
<path d="M25.424 38.5904C24.545 38.5053 23.8574 37.7539 23.8645 36.882C23.8716 35.7478 24.9845 34.8689 26.2392 35.2871C26.2392 33.1605 26.2392 31.0339 26.2392 28.9073C24.6584 28.9073 23.0777 28.9002 21.4969 28.9073C21.3055 28.9073 21.2134 28.8719 21.1496 28.6663C20.7384 27.3762 19.5546 26.5114 18.2432 26.5256C16.9177 26.5397 15.7764 27.3762 15.3653 28.6592C15.3015 28.8577 15.2164 28.9073 15.0179 28.9073C13.7349 28.9002 12.4589 28.9002 11.1759 28.9002C10.4883 28.9002 10.2686 29.12 10.2686 29.7934C10.2686 34.2592 10.2686 38.718 10.2686 43.1838C10.2686 44.1053 11.0199 44.8638 11.9415 44.8638C14.4367 44.8709 16.9389 44.8709 19.4341 44.8709C21.6954 44.8709 23.9637 44.8709 26.225 44.8709C26.225 43.0704 26.225 41.277 26.225 39.4764C26.2463 38.8597 26.0549 38.6542 25.424 38.5904ZM19.1151 43.5382C16.7475 43.5382 14.3799 43.5382 12.0053 43.5382C11.7855 43.5382 11.6154 43.361 11.6154 43.1483C11.6083 38.9661 11.6154 34.7909 11.6083 30.6086C11.6083 30.3321 11.6508 30.2329 11.9627 30.24C13.5293 30.2683 15.103 30.24 16.6696 30.2542C16.0103 28.4111 18.307 26.8091 19.9232 28.7727C19.9658 29.9777 20.0437 30.2471 20.9015 30.2471C22.1491 30.2471 23.3967 30.2542 24.6443 30.24C24.864 30.24 24.9207 30.3038 24.9136 30.5164C24.8994 31.6506 24.9065 32.7919 24.9136 33.9261C23.4888 34.2663 22.5389 35.4714 22.5248 36.882C22.5106 38.2785 23.4746 39.4977 24.9136 39.8521C24.8994 41.0785 24.8994 42.3119 24.9136 43.5382C22.9855 43.5382 21.0503 43.5382 19.1151 43.5382Z" fill="#235347"/>
<path d="M21.426 38.4131C21.3763 37.5483 20.9297 36.9245 20.1642 36.5488C19.9799 36.4567 19.9232 36.4212 20.0579 36.2086C20.5186 35.4572 20.5044 34.6774 20.0295 33.9473C19.5404 33.203 18.8032 32.884 17.9313 33.0329C17.0948 33.1747 16.5277 33.678 16.2654 34.4931C16.0457 35.1949 16.1946 35.84 16.6199 36.4283C16.5773 36.4496 16.5419 36.4709 16.5065 36.485C15.6558 36.8607 15.1738 37.4987 15.11 38.4202C15.0746 38.8739 15.0887 39.3276 15.0887 39.7812C15.0887 40.405 15.3865 40.7028 16.0173 40.7028C17.0239 40.7028 18.0376 40.7028 19.0442 40.7028C19.5687 40.7028 20.0933 40.7099 20.6179 40.7028C21.1424 40.6957 21.4401 40.3909 21.4401 39.8663C21.4401 39.3843 21.4543 38.9023 21.426 38.4131ZM18.2644 33.8977C18.9308 33.8977 19.4695 34.4293 19.4766 35.0957C19.4837 35.7691 18.9237 36.3362 18.2573 36.322C17.5981 36.3078 17.0523 35.7549 17.0523 35.1028C17.0594 34.4435 17.6052 33.9048 18.2644 33.8977ZM20.3201 39.8096C20.1713 39.8096 20.0579 39.8167 20.0649 39.5969C20.0862 39.2496 20.072 38.9023 20.0649 38.5549C20.0579 38.2359 19.8806 38.0445 19.6113 38.0516C19.3561 38.0587 19.1789 38.243 19.1718 38.5478C19.1647 38.8952 19.1647 39.2425 19.1718 39.5899C19.1789 39.7458 19.1505 39.8167 18.9662 39.8096C18.4984 39.7954 18.0376 39.7954 17.5698 39.8096C17.3925 39.8167 17.3571 39.7529 17.3571 39.5899C17.3713 39.2638 17.3642 38.9377 17.3571 38.6116C17.35 38.2501 17.1941 38.0658 16.9176 38.0587C16.627 38.0516 16.4639 38.243 16.4568 38.6187C16.4498 38.9519 16.4427 39.2921 16.4568 39.6253C16.4639 39.8025 16.3718 39.8167 16.2371 39.8025C16.1166 39.7954 15.9748 39.8521 15.9819 39.6324C15.9961 39.2283 15.9748 38.8172 16.0103 38.4202C16.067 37.7539 16.5986 37.2648 17.272 37.2364C17.6052 37.2223 17.9454 37.2364 18.2786 37.2364C18.6047 37.2364 18.9308 37.2223 19.2568 37.2364C19.9586 37.2648 20.5044 37.8106 20.5257 38.5124C20.5399 38.881 20.5186 39.2425 20.5328 39.6111C20.5541 39.8025 20.4619 39.8096 20.3201 39.8096Z" fill="#235347"/>
<path d="M26.4869 16.5235L26.5719 16.963L25.1471 18.0617L25.0195 20.5357L27.9684 20.6207H30.3998V18.1752L29.1947 17.0764L29.294 15.4673L29.0671 14.2552L27.5573 13.844L26.3593 14.2552L26.0332 15.1696L26.4869 16.5235Z" fill="#8EB69B"/>
<path d="M41.4228 38.4131C41.3731 37.5483 40.9266 36.9245 40.161 36.5488C39.9767 36.4567 39.92 36.4212 40.0547 36.2086C40.5154 35.4572 40.5013 34.6774 40.0263 33.9473C39.5372 33.203 38.8 32.884 37.9281 33.0329C37.0916 33.1747 36.5245 33.678 36.2623 34.4931C36.0425 35.1949 36.1914 35.84 36.6167 36.4283C36.5742 36.4496 36.5387 36.4709 36.5033 36.485C35.6597 36.8537 35.1777 37.4916 35.1139 38.4202C35.0785 38.8739 35.0926 39.3276 35.0926 39.7812C35.0926 40.405 35.3904 40.7028 36.0213 40.7028C37.0278 40.7028 38.0415 40.7028 39.0481 40.7028C39.5726 40.7028 40.0972 40.7099 40.6218 40.7028C41.1463 40.6957 41.444 40.3909 41.444 39.8663C41.4369 39.3843 41.4511 38.9023 41.4228 38.4131ZM38.2613 33.8977C38.9276 33.8977 39.4663 34.4293 39.4734 35.0957C39.4805 35.7691 38.9205 36.3362 38.2542 36.322C37.5949 36.3078 37.0491 35.7549 37.0491 35.1028C37.0562 34.4435 37.602 33.9048 38.2613 33.8977ZM40.3169 39.8096C40.1681 39.8096 40.0547 39.8167 40.0618 39.5969C40.083 39.2496 40.0688 38.9023 40.0618 38.5549C40.0547 38.2359 39.8775 38.0445 39.6081 38.0516C39.3529 38.0587 39.1757 38.243 39.1686 38.5478C39.1615 38.8952 39.1615 39.2425 39.1686 39.5899C39.1757 39.7458 39.1473 39.8167 38.963 39.8096C38.4952 39.7954 38.0344 39.7954 37.5666 39.8096C37.3894 39.8167 37.3539 39.7529 37.3539 39.5899C37.3681 39.2638 37.361 38.9377 37.3539 38.6116C37.3468 38.2501 37.1909 38.0658 36.9144 38.0587C36.6238 38.0516 36.4607 38.243 36.4537 38.6187C36.4466 38.9519 36.4395 39.2921 36.4537 39.6253C36.4607 39.8025 36.3686 39.8167 36.2339 39.8025C36.1134 39.7954 35.9716 39.8521 35.9787 39.6324C35.9929 39.2283 35.9716 38.8172 36.0071 38.4202C36.0638 37.7539 36.5954 37.2648 37.2688 37.2364C37.602 37.2223 37.9423 37.2364 38.2754 37.2364C38.6015 37.2364 38.9276 37.2223 39.2537 37.2364C39.9554 37.2648 40.5013 37.8106 40.5225 38.5124C40.5367 38.881 40.5154 39.2425 40.5296 39.6111C40.5509 39.8025 40.4587 39.8096 40.3169 39.8096Z" fill="#235347"/>
<path d="M45.1447 28.9144C43.8617 28.9144 42.5857 28.9073 41.3027 28.9215C41.1042 28.9215 41.0191 28.8719 40.9553 28.6734C40.5442 27.3974 39.4029 26.561 38.0774 26.5397C36.766 26.5255 35.5822 27.3904 35.171 28.6805C35.1072 28.8861 35.008 28.9215 34.8237 28.9215C33.2429 28.9144 31.6622 28.9215 30.0814 28.9215C30.0814 30.5306 30.0814 31.9625 30.0814 33.4795C30.0814 33.4795 30.0814 33.4795 30.0743 33.4795C30.0743 33.5716 30.0743 33.6638 30.0743 33.7559C30.0743 33.9757 30.0318 34.0749 29.805 34.1529C28.5503 34.5499 27.6784 35.7549 27.6926 37.045C27.7067 38.3635 28.5574 39.5261 29.8262 39.923C30.0531 39.9939 30.0814 40.1002 30.0814 40.2987C30.0814 40.5043 30.0814 40.7028 30.0814 40.9083H30.0885C30.0885 42.2339 30.0885 43.5595 30.0885 44.885C32.3498 44.885 34.6181 44.885 36.8794 44.885C39.3746 44.885 41.8769 44.885 44.372 44.878C45.2936 44.878 46.045 44.1266 46.045 43.198C46.052 38.7321 46.045 34.2734 46.045 29.8076C46.052 29.1271 45.8323 28.9144 45.1447 28.9144ZM44.7194 43.1483C44.7194 43.3681 44.5422 43.5382 44.3295 43.5382C41.9619 43.5382 39.5943 43.5382 37.2196 43.5382C35.2845 43.5382 33.3493 43.5311 31.4141 43.5453C31.4353 42.319 31.4282 41.0855 31.4141 39.8592C31.4141 39.7742 31.4141 39.6891 31.4141 39.604C31.4141 39.0015 31.2156 38.7888 30.606 38.7321C29.8829 38.6612 29.3017 38.1863 29.1032 37.4987C28.9118 36.8253 29.1457 36.1164 29.7057 35.684C29.9751 35.4714 30.287 35.365 30.6272 35.3296C31.2014 35.28 31.4141 35.0531 31.4141 34.4719C31.4141 34.2947 31.4141 34.1174 31.4141 33.9402C31.4282 32.8061 31.4282 31.6648 31.4141 30.5306C31.4141 30.318 31.4637 30.2471 31.6905 30.2542C32.9381 30.2683 34.1857 30.2612 35.4333 30.2612C36.291 30.2612 36.369 29.9919 36.4115 28.7868C38.0277 26.8233 40.3245 28.4253 39.6652 30.2683C41.2318 30.2612 42.8055 30.2825 44.372 30.2542C44.6839 30.2471 44.7265 30.3463 44.7265 30.6228C44.7123 34.7909 44.7194 38.9661 44.7194 43.1483Z" fill="#235347"/>
<path d="M35.9864 24.321C35.9864 19.8552 35.9864 15.3964 35.9864 10.9306C35.9864 10.0091 35.235 9.25062 34.3135 9.25062C31.8183 9.24353 29.316 9.24353 26.8208 9.24353C24.5595 9.24353 22.2912 9.24353 20.0299 9.24353C20.0299 10.5691 20.0299 11.8947 20.0299 13.2202H20.0228C20.0228 13.4258 20.0228 13.6243 20.0228 13.8299C20.0228 14.0283 19.9945 14.1347 19.7676 14.2056C18.4988 14.6025 17.6481 15.7651 17.634 17.0835C17.6198 18.3737 18.4917 19.5858 19.7464 19.9757C19.9803 20.0466 20.0228 20.1529 20.0157 20.3726C20.0157 20.4648 20.0157 20.5569 20.0157 20.6491C20.0157 20.6491 20.0157 20.6491 20.0228 20.6491C20.0228 22.1732 20.0228 23.598 20.0228 25.2071C21.6036 25.2071 23.1843 25.2142 24.7651 25.2071C24.9565 25.2071 25.0486 25.2425 25.1124 25.4481C25.5236 26.7382 26.7074 27.603 28.0188 27.5888C29.3443 27.5747 30.4856 26.7382 30.8967 25.4552C30.9605 25.2567 31.0456 25.2071 31.2441 25.2071C32.5271 25.2142 33.8031 25.2142 35.0861 25.2142C35.7666 25.2213 35.9864 25.0015 35.9864 24.321ZM34.6537 23.52C34.6537 23.7964 34.6112 23.8957 34.2993 23.8886C32.7327 23.8602 31.159 23.8886 29.5924 23.8744C30.2517 25.7175 27.955 27.3195 26.3388 25.3559C26.2962 24.1509 26.2183 23.8815 25.3605 23.8815C24.1129 23.8815 22.8654 23.8744 21.6178 23.8886C21.398 23.8886 21.3413 23.8248 21.3413 23.6121C21.3555 22.478 21.3484 21.3367 21.3413 20.2025C21.3413 20.0253 21.3413 19.8481 21.3413 19.6709C21.3413 19.0896 21.1357 18.8628 20.5545 18.8132C20.2142 18.7848 19.9023 18.6714 19.6329 18.4587C19.0729 18.0263 18.839 17.3104 19.0304 16.644C19.2289 15.9564 19.8102 15.4815 20.5332 15.4106C21.1428 15.3539 21.3342 15.1413 21.3413 14.5387C21.3413 14.4537 21.3413 14.3686 21.3413 14.2835C21.3555 13.0572 21.3555 11.8238 21.3413 10.5975C23.2765 10.6116 25.2117 10.6045 27.1469 10.6045C29.5145 10.6045 31.8821 10.6045 34.2567 10.6045C34.4765 10.6045 34.6466 10.7818 34.6466 10.9944C34.6537 15.1625 34.6466 19.3448 34.6537 23.52Z" fill="#235347"/>
<path d="M30.8534 18.7706C30.8038 17.9058 30.3572 17.282 29.5917 16.9063C29.4074 16.8142 29.3507 16.7787 29.4853 16.5661C29.9461 15.8147 29.9319 15.0349 29.457 14.3048C28.9679 13.5605 28.2307 13.2415 27.3588 13.3904C26.5223 13.5321 25.9552 14.0354 25.6929 14.8506C25.4732 15.5524 25.622 16.1975 26.0474 16.7858C26.0048 16.8071 25.9694 16.8283 25.9339 16.8425C25.0904 17.2111 24.6084 17.8491 24.5446 18.7777C24.5091 19.2314 24.5233 19.6851 24.5233 20.1387C24.5233 20.7625 24.821 21.0602 25.4519 21.0602C26.4585 21.0602 27.4722 21.0602 28.4788 21.0602C29.0033 21.0602 29.5279 21.0673 30.0524 21.0602C30.577 21.0532 30.8747 20.7483 30.8747 20.2238C30.8747 19.7418 30.8889 19.2527 30.8534 18.7706ZM27.699 14.2552C28.3653 14.2552 28.9041 14.7868 28.9112 15.4532C28.9182 16.1266 28.3582 16.6937 27.6919 16.6795C27.0327 16.6653 26.4869 16.1124 26.4869 15.4602C26.4869 14.801 27.0327 14.2552 27.699 14.2552ZM29.7476 20.16C29.5988 20.16 29.4853 20.1671 29.4924 19.9473C29.5137 19.6 29.4995 19.2527 29.4924 18.9053C29.4853 18.5863 29.3081 18.3949 29.0388 18.402C28.7836 18.4091 28.6063 18.5934 28.5993 18.8982C28.5922 19.2456 28.5922 19.5929 28.5993 19.9402C28.6063 20.0962 28.578 20.1671 28.3937 20.16C27.9258 20.1458 27.4651 20.1458 26.9972 20.16C26.82 20.1671 26.7846 20.1033 26.7846 19.9402C26.7988 19.6142 26.7917 19.2881 26.7846 18.962C26.7775 18.6005 26.6215 18.4162 26.3451 18.4091C26.0544 18.402 25.8914 18.5934 25.8843 18.9691C25.8772 19.3023 25.8701 19.6425 25.8843 19.9757C25.8914 20.1529 25.7993 20.1671 25.6646 20.1529C25.5441 20.1458 25.4023 20.2025 25.4094 19.9828C25.4236 19.5787 25.4023 19.1676 25.4377 18.7706C25.4944 18.1043 26.0261 17.6152 26.6995 17.5868C27.0327 17.5727 27.3729 17.5868 27.7061 17.5868C28.0322 17.5868 28.3582 17.5727 28.6843 17.5868C29.3861 17.6152 29.9319 18.161 29.9532 18.8628C29.9674 19.2314 29.9461 19.5929 29.9603 19.9615C29.9815 20.16 29.8965 20.1671 29.7476 20.16Z" fill="#235347"/>
<defs>
<linearGradient id="paint0_linear_2487_3882" x1="28.5" y1="0" x2="28.5" y2="56" gradientUnits="userSpaceOnUse">
<stop stop-color="#E1FFED"/>
<stop offset="1" stop-color="#E1FFED" stop-opacity="0"/>
</linearGradient>
</defs>
</svg>
