<svg width="312" height="105" viewBox="0 0 312 105" fill="none" xmlns="http://www.w3.org/2000/svg">
<g clip-path="url(#clip0_667_37763)">
<g clip-path="url(#clip1_667_37763)">
<path d="M312 0H0V105H312V0Z" fill="#F2F9F3"/>
<path opacity="0.7" d="M160.96 62.64C160.96 62.64 172.58 84.1 195.98 89.07C219.37 94.03 230.95 81.99 246.6 78.86C262.25 75.73 270.23 93.57 288.66 79.67C307.09 65.77 313.37 30.88 296.13 20.9C278.89 10.92 261.58 10.51 239.01 13.33C216.44 16.16 204.2 9.40999 188.18 9.32999C172.16 9.25999 149.39 32.27 160.96 62.64Z" fill="#DAF1DE"/>
<path d="M237.96 101.2V60.2701C237.96 58.7701 236.77 57.55 235.3 57.55H189.67C188.2 57.55 187.01 58.7701 187.01 60.2701V101.21H237.96V101.2Z" fill="#A3CEA8" stroke="#235347" stroke-miterlimit="10"/>
<path d="M243.04 101.2V60.2701C243.04 58.7701 241.85 57.55 240.38 57.55H194.75C193.28 57.55 192.09 58.7701 192.09 60.2701V101.21H243.04V101.2Z" fill="#A3CEA8" stroke="#235347" stroke-miterlimit="10"/>
<path d="M268.549 101.2V81.36C268.549 80.21 267.639 79.27 266.509 79.27H240.729C239.599 79.27 238.689 80.21 238.689 81.36V101.2H268.549Z" fill="#A3CEA8" stroke="#235347" stroke-miterlimit="10"/>
<path d="M268.55 101.2V81.43C268.55 80.24 267.66 79.27 266.57 79.27H256.15C255.06 79.27 254.17 80.24 254.17 81.43V101.2H268.55Z" fill="#A3CEA8" stroke="#235347" stroke-miterlimit="10"/>
<path d="M263.56 101.2C258.98 98.27 248.07 91.18 245.83 88.56C242.97 85.23 242.38 84.15 240.11 84.27C237.85 84.39 214.75 87.6 214.75 87.6C214.75 87.6 213.2 89.51 212.84 91.89C212.54 93.87 214.96 99.4 215.79 101.2H263.56Z" fill="#15332A" stroke="#235347" stroke-miterlimit="10"/>
<path d="M223.91 39.74C224.27 39.76 231.05 40.45 233.79 41.65C236.53 42.84 242.36 44.39 244.27 45.22C246.18 46.05 247.25 47.01 247.49 49.51C247.73 52.01 249.99 61.3 250.35 62.85C250.71 64.4 251.3 70.95 250.59 72.97C249.88 74.99 241.42 75.23 241.42 75.23C241.42 75.23 241.3 78.45 241.78 80.23C242.26 82.02 243.45 84.87 239.52 85.59C235.59 86.3 215.35 90.59 213.92 89.64C212.49 88.69 213.09 81.3 213.09 79.52C213.09 77.73 211.3 74.04 211.3 74.04C211.3 74.04 208.32 74.75 206.3 75.71C204.28 76.66 201.66 76.19 198.32 75.11C194.99 74.04 194.75 70.94 193.79 69.04C192.83 67.14 197.01 64.4 197.84 62.97C198.67 61.54 204.39 48.44 204.63 47.01C204.87 45.58 208.08 45.22 212.37 43.91C212.36 43.91 221.65 39.62 223.91 39.74Z" fill="#45CE7C" stroke="#235347" stroke-miterlimit="10" stroke-linecap="round" stroke-linejoin="round"/>
<path d="M219.16 85.5801C222.26 82.1801 229.84 74.2601 235.32 71.6901" stroke="#235347" stroke-miterlimit="10" stroke-linecap="round" stroke-linejoin="round"/>
<path d="M217.75 87.1601C217.75 87.1601 218.05 86.8101 218.59 86.2101" stroke="#235347" stroke-miterlimit="10" stroke-linecap="round" stroke-linejoin="round"/>
<path d="M224.32 78.24C224.64 78 224.95 77.77 225.26 77.55" stroke="#235347" stroke-miterlimit="10" stroke-linecap="round" stroke-linejoin="round"/>
<path d="M218.35 83.5601C218.35 83.5601 220.44 81.4301 222.89 79.3901" stroke="#235347" stroke-miterlimit="10" stroke-linecap="round" stroke-linejoin="round"/>
<path d="M206.92 55.83C207.99 59.81 209.47 65.19 210.05 66.61C211 68.94 211.61 72.92 211.61 72.92" stroke="#235347" stroke-miterlimit="10" stroke-linecap="round" stroke-linejoin="round"/>
<path d="M205.72 51.32C205.72 51.32 206.06 52.64 206.56 54.52" stroke="#235347" stroke-miterlimit="10" stroke-linecap="round" stroke-linejoin="round"/>
<path d="M205.079 60.49C204.509 60.08 203.939 59.85 203.399 59.7" stroke="#235347" stroke-miterlimit="10" stroke-linecap="round" stroke-linejoin="round"/>
<path d="M202.42 62.4001C203.72 62.6801 205.29 63.2401 206.15 64.3701C207.79 66.5301 208.4 67.5701 208.4 67.5701C208.4 67.5701 208.57 65.9301 207.36 63.4201C206.96 62.5901 206.53 61.9401 206.09 61.4301" stroke="#235347" stroke-miterlimit="10" stroke-linecap="round" stroke-linejoin="round"/>
<path d="M200.28 62.1201C200.28 62.1201 200.61 62.1301 201.13 62.1801" stroke="#235347" stroke-miterlimit="10" stroke-linecap="round" stroke-linejoin="round"/>
<path d="M198.21 64.28C198.21 64.28 201.32 62.81 204.34 64.02" stroke="#235347" stroke-miterlimit="10" stroke-linecap="round" stroke-linejoin="round"/>
<path d="M243.47 54.67L240.8 73.61" stroke="#235347" stroke-miterlimit="10" stroke-linecap="round" stroke-linejoin="round"/>
<path d="M243.99 50.98L243.71 53.01" stroke="#235347" stroke-miterlimit="10" stroke-linecap="round" stroke-linejoin="round"/>
<path d="M247.859 62.76C248.899 62.19 249.609 62.04 249.609 62.04" stroke="#235347" stroke-miterlimit="10" stroke-linecap="round" stroke-linejoin="round"/>
<path d="M241.319 71.37C241.319 71.37 241.579 69.38 244.169 66.01C245.169 64.71 246.199 63.83 247.099 63.22" stroke="#235347" stroke-miterlimit="10" stroke-linecap="round" stroke-linejoin="round"/>
<path d="M241.66 71.54C241.66 71.54 244.51 67.83 247.79 67.48" stroke="#235347" stroke-miterlimit="10" stroke-linecap="round" stroke-linejoin="round"/>
<path d="M222.49 38.79C222.49 38.79 220.47 38.91 219.99 39.98C219.51 41.05 219.51 50.22 219.51 50.22C219.51 50.22 226.42 47.6 227.37 47.6C228.32 47.6 235.71 50.46 235.71 50.46C235.71 50.46 234.76 43.79 233.09 41.17C231.42 38.55 228.56 38.67 227.61 38.67C226.65 38.67 222.49 38.79 222.49 38.79Z" fill="#BFE2C4" stroke="#235347" stroke-miterlimit="10"/>
<path d="M220.7 37.95L221.18 40.45C221.18 40.45 227.25 52.12 227.97 51.29C228.68 50.46 232.26 40.93 232.26 40.93L232.5 37.6C232.5 37.6 229.64 39.51 227.97 39.51C226.3 39.51 221.18 36.77 221.18 36.77L220.7 37.95Z" fill="#F9EDCF" stroke="#235347" stroke-miterlimit="10"/>
<path d="M232.489 37.6C232.489 37.6 229.629 39.51 227.959 39.51C226.289 39.51 221.169 36.77 221.169 36.77L220.689 37.96L221.169 40.46C221.169 40.46 222.539 43.09 224.059 45.77C224.289 45.68 224.519 45.58 224.749 45.44C231.389 41.72 232.489 37.6 232.489 37.6Z" fill="#24663F" stroke="#235347" stroke-miterlimit="10" stroke-linecap="round" stroke-linejoin="round"/>
<path d="M218.04 28.84C218.04 28.84 216.67 26.1 215.71 28.43C214.75 30.76 218.86 33.91 218.86 33.91L218.04 28.84Z" fill="#F9EDCF" stroke="#235347" stroke-miterlimit="10"/>
<path d="M234.14 28.23C234.14 28.23 235.44 25.55 236.12 28.02C236.8 30.49 234.01 33.64 234.01 33.64L234.14 28.23Z" fill="#F9EDCF" stroke="#235347" stroke-miterlimit="10"/>
<path d="M217.76 28.16C217.76 28.16 218.72 35.42 219.27 36.65C219.74 37.7 224.03 41.4 225.29 42.47C225.51 42.66 225.79 42.76 226.08 42.76C226.78 42.76 228.08 42.74 228.47 42.64C229.02 42.5 232.69 39.11 233.52 37.19C234.34 35.27 234.07 24.17 234.07 24.17C234.07 24.17 233.66 16.91 232.84 15.95C232.02 14.99 221.74 14.99 219.14 16.36C216.54 17.73 216.54 20.06 216.95 21.43C217.35 22.82 217.76 28.16 217.76 28.16Z" fill="#F9EDCF" stroke="#235347" stroke-miterlimit="10"/>
<path d="M229.45 13.65C225.09 12.96 223.42 14.22 220.92 15.82C220.17 15.97 219.56 16.16 219.14 16.38C216.54 17.75 216.54 20.08 216.95 21.45C217.36 22.82 217.77 28.16 217.77 28.16L218.73 28.3C218.73 28.3 218.87 25.15 219 24.74C219.14 24.33 220.78 22.41 220.92 21.45C221.06 20.49 221.36 19.68 221.36 19.68C221.36 19.68 222.29 22.54 228.04 24.19C229.55 24.62 230.97 24.81 232.25 24.81C232.33 25.6 232.46 26.34 232.7 26.52C233.25 26.93 233.25 26.93 233.25 26.93C233.25 26.93 233.11 28.85 233.52 29.26C233.68 29.42 233.89 29.51 234.11 29.55C234.13 27.47 234.1 25.56 234.08 24.69C236.68 24.32 236.29 23.36 236.37 22.2C236.51 20.27 234.66 14.47 229.45 13.65Z" fill="#15332A" stroke="#235347" stroke-miterlimit="10"/>
<path d="M224.6 33.89C224.6 33.89 225.17 34.84 226.13 35.1C227.08 35.35 228.1 35.42 229.18 33.76" stroke="#235347" stroke-miterlimit="10" stroke-linecap="round" stroke-linejoin="round"/>
<path d="M223.069 36.25C223.069 36.25 224.279 37.71 226.889 37.59C229.499 37.46 230.449 36.38 230.449 36.38" stroke="#235347" stroke-miterlimit="10" stroke-linecap="round" stroke-linejoin="round"/>
<path d="M221.359 30.59C221.359 30.59 222.889 31.48 224.669 30.84" stroke="#235347" stroke-miterlimit="10" stroke-linecap="round" stroke-linejoin="round"/>
<path d="M228.8 30.84C228.8 30.84 230.45 31.67 232.68 30.78" stroke="#235347" stroke-miterlimit="10" stroke-linecap="round" stroke-linejoin="round"/>
<path d="M220.91 28.49C220.91 28.49 221.93 26.96 224.66 27.92" stroke="#235347" stroke-miterlimit="10" stroke-linecap="round" stroke-linejoin="round"/>
<path d="M228.859 28.23C228.859 28.23 230.699 26.96 232.489 28.48" stroke="#235347" stroke-miterlimit="10" stroke-linecap="round" stroke-linejoin="round"/>
<path d="M240.28 73.01C240.28 73.01 242.01 71.71 244.77 69.99C247.53 68.26 250.21 68.78 251.68 70.42C253.15 72.06 253.32 76.64 251.08 78.63C248.83 80.62 245.81 80.1 243.91 79.58C242.01 79.06 239.68 77.07 239.5 76.64C239.33 76.2 240.28 73.01 240.28 73.01Z" fill="#45CE7C" stroke="#235347" stroke-miterlimit="10" stroke-linecap="round" stroke-linejoin="round"/>
<path d="M241.4 72.06C241.4 72.06 242.26 71.02 243.47 70.94C244.68 70.85 246.84 71.98 247.36 74.74C247.88 77.5 246.67 79.75 245.2 80.44C243.73 81.13 241.4 80.7 240.88 79.92C240.36 79.14 239.84 77.67 239.84 77.67L241.4 72.06Z" fill="#BFE2C4" stroke="#235347" stroke-miterlimit="10"/>
<path d="M239.76 69.12C239.76 69.12 235.01 65.23 234.49 65.06C233.97 64.89 230.34 66.01 230.34 66.01L231.29 69.55C231.29 69.55 230.86 69.9 229.48 68.69C228.1 67.48 227.23 65.84 226.72 66.36C226.2 66.88 225.94 67.91 227.15 69.21C228.36 70.51 230 72.23 230.86 73.44C231.72 74.65 234.23 75.25 234.23 75.25C234.23 75.25 234.83 76.37 237.17 77.5C239.5 78.62 243.13 79.31 243.13 79.31C243.13 79.31 245.64 76.55 244.69 74.13C243.74 71.71 241.41 72.06 241.41 72.06L240.29 71.8L239.76 69.12Z" fill="#F9EDCF" stroke="#235347" stroke-miterlimit="10"/>
<path d="M233.339 64.29C233.339 64.29 230.509 62 229.779 62.1C229.049 62.2 227.419 63 226.779 63.45C226.139 63.9 226.709 64.77 227.489 64.74C228.259 64.71 229.299 64.44 229.299 64.44L229.749 64.19L231.799 67.4" fill="#F9EDCF"/>
<path d="M233.339 64.29C233.339 64.29 230.509 62 229.779 62.1C229.049 62.2 227.419 63 226.779 63.45C226.139 63.9 226.709 64.77 227.489 64.74C228.259 64.71 229.299 64.44 229.299 64.44L229.749 64.19L231.799 67.4" stroke="#235347" stroke-miterlimit="10"/>
<path d="M229.739 64.2L230.839 63.69" stroke="#1A2E35" stroke-miterlimit="10"/>
<path d="M236.579 64.13C236.579 64.13 233.749 61.84 233.019 61.94C232.289 62.04 230.659 62.84 230.019 63.29C229.379 63.74 229.949 64.61 230.729 64.58C231.499 64.55 232.539 64.28 232.539 64.28L232.989 64.03L235.039 67.24" fill="#F9EDCF"/>
<path d="M236.579 64.13C236.579 64.13 233.749 61.84 233.019 61.94C232.289 62.04 230.659 62.84 230.019 63.29C229.379 63.74 229.949 64.61 230.729 64.58C231.499 64.55 232.539 64.28 232.539 64.28L232.989 64.03L235.039 67.24" stroke="#235347" stroke-miterlimit="10"/>
<path d="M232.979 64.03L234.079 63.52" stroke="#1A2E35" stroke-miterlimit="10"/>
<path d="M239.16 66.44C239.16 66.44 237.78 63.07 237.09 62.81C236.4 62.55 234.58 62.46 233.81 62.55C233.03 62.64 233.12 63.67 233.81 64.02C234.5 64.37 235.54 64.62 235.54 64.62H236.06L236.32 68.42" fill="#F9EDCF"/>
<path d="M239.16 66.44C239.16 66.44 237.78 63.07 237.09 62.81C236.4 62.55 234.58 62.46 233.81 62.55C233.03 62.64 233.12 63.67 233.81 64.02C234.5 64.37 235.54 64.62 235.54 64.62H236.06L236.32 68.42" stroke="#235347" stroke-miterlimit="10"/>
<path d="M236.05 64.63L237.26 64.71" stroke="#235347" stroke-miterlimit="10" stroke-linecap="round" stroke-linejoin="round"/>
<path d="M239.93 72.49C239.93 72.49 240.71 68.34 240.53 67.91C240.36 67.48 238.89 65.58 238.46 65.58C238.03 65.58 237.16 66.44 237.51 67.31C237.86 68.17 238.55 68.26 238.55 68.26V70.68L237.77 71.72" fill="#F9EDCF"/>
<path d="M239.93 72.49C239.93 72.49 240.71 68.34 240.53 67.91C240.36 67.48 238.89 65.58 238.46 65.58C238.03 65.58 237.16 66.44 237.51 67.31C237.86 68.17 238.55 68.26 238.55 68.26V70.68L237.77 71.72" stroke="#235347" stroke-miterlimit="10"/>
<path d="M231.3 77.3H215.82L214.96 58.71H232.16L231.3 77.3Z" fill="#15332A" stroke="#235347" stroke-miterlimit="10"/>
<path d="M207.84 69.15C207.84 69.15 201.77 64.74 201.17 64.51C200.57 64.27 197.24 65.7 195.33 67.13C193.42 68.56 193.54 69.99 194.26 71.77C194.97 73.56 197.83 75.82 198.9 76.65C199.97 77.48 205.09 77.01 205.09 77.01L207.84 69.15Z" fill="#45CE7C" stroke="#235347" stroke-miterlimit="10" stroke-linecap="round" stroke-linejoin="round"/>
<path d="M209.03 69.75C209.03 69.75 207.72 67.84 207.12 67.73C206.52 67.61 204.74 68.92 203.79 70.11C202.84 71.3 201.88 74.52 201.88 76.18C201.88 77.85 204.74 78.32 205.21 78.32C205.69 78.32 206.4 76.89 207.23 76.41C208.08 75.94 209.03 69.75 209.03 69.75Z" fill="#BFE2C4" stroke="#235347" stroke-miterlimit="10"/>
<path d="M226.89 75.6901C226.89 75.6901 229.05 75.6901 229.57 75.3401C230.09 74.9901 231.73 72.5801 231.99 72.0601C232.25 71.5401 231.21 71.5401 230.61 72.6601C230.01 73.7801 227.67 74.6501 227.07 74.9901C226.47 75.3401 225.08 75.5901 225.08 75.5901L226.89 75.6901Z" fill="white" stroke="#1A2E35" stroke-miterlimit="10"/>
<path d="M207.84 69.15L216.53 70.1C216.53 70.1 217.96 66.05 218.55 65.93C219.14 65.81 221.77 64.62 222.24 64.26C222.72 63.9 223.55 63.43 223.07 64.74C222.59 66.05 219.97 67.36 219.97 67.36C219.97 67.36 222.35 68.91 223.07 69.03C223.78 69.15 228.79 68.08 228.79 68.08C228.79 68.08 232.48 66.65 232.84 66.89C233.2 67.13 232.24 68.08 232.24 68.08C232.24 68.08 232.95 67.6 233.19 68.2C233.43 68.8 232.59 69.99 232.59 69.99C232.59 69.99 232.95 70.23 232.71 71.18C232.47 72.13 229.26 74.75 228.54 75.23C227.83 75.71 224.01 75.83 221.51 75.83C219.01 75.83 216.03 75.35 216.03 75.35C216.03 75.35 206.03 77.02 205.55 77.02C205.07 77.02 202.72 72.13 207.84 69.15Z" fill="#F9EDCF" stroke="#235347" stroke-miterlimit="10"/>
<path d="M232.25 68.08C232.25 68.08 227.61 71.65 227.01 71.65C226.41 71.65 222.84 72.6 222.84 72.6" fill="#F9EDCF"/>
<path d="M232.25 68.08C232.25 68.08 227.61 71.65 227.01 71.65C226.41 71.65 222.84 72.6 222.84 72.6" stroke="#235347" stroke-miterlimit="10"/>
<path d="M232.61 69.9901C232.61 69.9901 228.92 73.2101 228.56 73.4401C228.2 73.6801 224.75 74.2701 224.75 74.2701" fill="#F9EDCF"/>
<path d="M232.61 69.9901C232.61 69.9901 228.92 73.2101 228.56 73.4401C228.2 73.6801 224.75 74.2701 224.75 74.2701" stroke="#235347" stroke-miterlimit="10"/>
<path d="M265.489 101.2C262.289 95.9501 252.499 80.8201 246.299 81.4201C238.799 82.1301 214.859 91.9001 214.859 91.9001L258.289 101.21H265.489V101.2Z" fill="#15332A" stroke="#235347" stroke-miterlimit="10"/>
<path d="M212.24 101.2V81.36C212.24 80.21 211.33 79.27 210.2 79.27H194.89C193.76 79.27 192.85 80.21 192.85 81.36V101.2H212.24Z" fill="#A3CEA8" stroke="#235347" stroke-miterlimit="10"/>
<path d="M217.239 101.2V81.43C217.239 80.24 216.349 79.27 215.259 79.27H204.839C203.749 79.27 202.859 80.24 202.859 81.43V101.2H217.239Z" fill="#A3CEA8" stroke="#235347" stroke-miterlimit="10"/>
<path d="M157.72 101.2H148.61" stroke="#235347" stroke-miterlimit="10" stroke-linecap="round" stroke-linejoin="round"/>
<path d="M306.96 101.2H161.67" stroke="#235347" stroke-miterlimit="10" stroke-linecap="round" stroke-linejoin="round"/>
<g opacity="0.57">
<path d="M171.64 89.75H163.64C162.55 89.75 161.67 88.86 161.67 87.77L161.7 69.51C161.7 68.42 162.59 67.53 163.68 67.53H171.68C172.77 67.53 173.65 68.42 173.65 69.51L173.62 87.77C173.62 88.86 172.73 89.75 171.64 89.75Z" stroke="#235347" stroke-miterlimit="10" stroke-linecap="round" stroke-linejoin="round"/>
<path opacity="0.58" d="M172.79 76.32H162.36L162.37 69.31C162.37 68.75 162.83 68.29 163.39 68.29H171.79C172.35 68.29 172.81 68.75 172.8 69.31L172.79 76.32Z" fill="#DAF1DE"/>
<path opacity="0.46" d="M167.57 73.1101C167.2 73.1101 166.82 73.1101 166.45 73.1101C166.41 73.1101 166.4 73.1001 166.39 73.0701C166.16 72.3501 165.93 71.6401 165.7 70.9301C165.69 70.9001 165.7 70.8801 165.72 70.8701C166.33 70.4301 166.93 69.9901 167.54 69.5501C167.57 69.5301 167.59 69.5201 167.63 69.5501C168.24 69.9901 168.84 70.4301 169.45 70.8701C169.47 70.8901 169.48 70.9001 169.47 70.9301C169.24 71.6301 169.01 72.3301 168.78 73.0301C168.75 73.1201 168.75 73.1201 168.66 73.1201C168.29 73.1101 167.93 73.1101 167.57 73.1101Z" stroke="#235347" stroke-miterlimit="10" stroke-linecap="round" stroke-linejoin="round"/>
<path d="M165.93 76.88H166.65V77.03H166.1V77.48H166.61V77.62H166.1V78.23H165.92L165.93 76.88Z" fill="#235347"/>
<path d="M167.08 76.88V78.23H166.9V76.88H167.08Z" fill="#235347"/>
<path d="M167.38 78.23V76.88H167.57L168 77.56C168.1 77.72 168.18 77.86 168.24 78H168.25C168.23 77.82 168.23 77.66 168.23 77.45V76.89H168.39V78.24H168.21L167.78 77.56C167.69 77.41 167.6 77.26 167.53 77.11H167.52C167.53 77.28 167.53 77.44 167.53 77.67V78.25L167.38 78.23Z" fill="#235347"/>
<path d="M169.389 77.6H168.869V78.09H169.449V78.24H168.689V76.89H169.419V77.04H168.869V77.47H169.389V77.6Z" fill="#235347"/>
<path d="M165.91 80.48C165.8 80.52 165.59 80.58 165.34 80.58C165.06 80.58 164.83 80.51 164.65 80.33C164.49 80.18 164.39 79.93 164.39 79.64C164.39 79.09 164.77 78.68 165.4 78.68C165.61 78.68 165.79 78.73 165.87 78.77L165.81 78.97C165.71 78.92 165.59 78.89 165.4 78.89C164.95 78.89 164.65 79.17 164.65 79.64C164.65 80.11 164.93 80.39 165.36 80.39C165.52 80.39 165.62 80.37 165.68 80.34V79.79H165.31V79.6H165.92L165.91 80.48Z" fill="#235347"/>
<path d="M167.86 79.62C167.86 80.26 167.47 80.6 167 80.6C166.51 80.6 166.17 80.22 166.17 79.65C166.17 79.06 166.54 78.67 167.03 78.67C167.53 78.67 167.86 79.06 167.86 79.62ZM166.42 79.64C166.42 80.04 166.63 80.4 167.01 80.4C167.39 80.4 167.61 80.05 167.61 79.63C167.61 79.26 167.42 78.87 167.02 78.87C166.62 78.87 166.42 79.24 166.42 79.64Z" fill="#235347"/>
<path d="M168.169 78.71H168.409V80.37H169.199V80.57H168.159L168.169 78.71Z" fill="#235347"/>
<path d="M169.47 78.73C169.62 78.71 169.79 78.69 169.98 78.69C170.32 78.69 170.57 78.77 170.73 78.92C170.9 79.07 170.99 79.29 170.99 79.59C170.99 79.89 170.89 80.14 170.72 80.31C170.54 80.48 170.26 80.58 169.9 80.58C169.73 80.58 169.59 80.57 169.46 80.56L169.47 78.73ZM169.71 80.38C169.77 80.39 169.86 80.39 169.95 80.39C170.46 80.39 170.74 80.1 170.74 79.6C170.74 79.16 170.5 78.88 169.99 78.88C169.87 78.88 169.77 78.89 169.71 78.9V80.38Z" fill="#235347"/>
<path d="M165.59 82.67C165.63 82.67 165.67 82.67 165.73 82.66C165.83 82.65 165.93 82.61 166 82.53C166.09 82.45 166.15 82.34 166.17 82.18H166.16C166.09 82.27 165.98 82.32 165.85 82.32C165.62 82.32 165.47 82.14 165.47 81.92C165.47 81.67 165.65 81.45 165.92 81.45C166.19 81.45 166.35 81.67 166.35 82C166.35 82.29 166.25 82.49 166.12 82.61C166.02 82.71 165.88 82.77 165.74 82.79C165.68 82.8 165.62 82.8 165.58 82.8L165.59 82.67ZM165.65 81.92C165.65 82.08 165.75 82.2 165.9 82.2C166.02 82.2 166.11 82.14 166.16 82.06C166.17 82.04 166.18 82.02 166.18 81.99C166.18 81.77 166.1 81.6 165.91 81.6C165.76 81.6 165.65 81.74 165.65 81.92Z" fill="#235347"/>
<path d="M166.62 82.67C166.66 82.67 166.7 82.67 166.76 82.66C166.86 82.65 166.96 82.61 167.03 82.53C167.12 82.45 167.18 82.34 167.2 82.18H167.19C167.12 82.27 167.01 82.32 166.88 82.32C166.65 82.32 166.5 82.14 166.5 81.92C166.5 81.67 166.68 81.45 166.95 81.45C167.22 81.45 167.38 81.67 167.38 82C167.38 82.29 167.28 82.49 167.15 82.61C167.05 82.71 166.91 82.77 166.77 82.79C166.71 82.8 166.65 82.8 166.61 82.8L166.62 82.67ZM166.68 81.92C166.68 82.08 166.78 82.2 166.93 82.2C167.05 82.2 167.14 82.14 167.19 82.06C167.2 82.04 167.21 82.02 167.21 81.99C167.21 81.77 167.13 81.6 166.94 81.6C166.79 81.6 166.68 81.74 166.68 81.92Z" fill="#235347"/>
<path d="M167.649 82.67C167.689 82.67 167.729 82.67 167.789 82.66C167.889 82.65 167.989 82.61 168.059 82.53C168.149 82.45 168.209 82.34 168.229 82.18H168.219C168.149 82.27 168.039 82.32 167.909 82.32C167.679 82.32 167.529 82.14 167.529 81.92C167.529 81.67 167.709 81.45 167.979 81.45C168.249 81.45 168.409 81.67 168.409 82C168.409 82.29 168.309 82.49 168.179 82.61C168.079 82.71 167.939 82.77 167.799 82.79C167.739 82.8 167.679 82.8 167.639 82.8L167.649 82.67ZM167.719 81.92C167.719 82.08 167.819 82.2 167.969 82.2C168.089 82.2 168.179 82.14 168.229 82.06C168.239 82.04 168.249 82.02 168.249 81.99C168.249 81.77 168.169 81.6 167.979 81.6C167.819 81.6 167.719 81.74 167.719 81.92Z" fill="#235347"/>
<path d="M168.52 83.05C168.56 82.93 168.62 82.71 168.64 82.57L168.84 82.55C168.79 82.72 168.7 82.94 168.65 83.04L168.52 83.05Z" fill="#235347"/>
<path d="M169.1 82.67C169.14 82.67 169.18 82.67 169.24 82.66C169.34 82.65 169.439 82.61 169.509 82.53C169.599 82.45 169.659 82.34 169.679 82.18H169.669C169.599 82.27 169.489 82.32 169.359 82.32C169.129 82.32 168.979 82.14 168.979 81.92C168.979 81.67 169.159 81.45 169.429 81.45C169.699 81.45 169.859 81.67 169.859 82C169.859 82.29 169.76 82.49 169.63 82.61C169.53 82.71 169.389 82.77 169.249 82.79C169.189 82.8 169.129 82.8 169.089 82.8L169.1 82.67ZM169.16 81.92C169.16 82.08 169.26 82.2 169.41 82.2C169.53 82.2 169.619 82.14 169.669 82.06C169.679 82.04 169.689 82.02 169.689 81.99C169.689 81.77 169.609 81.6 169.419 81.6C169.269 81.6 169.17 81.74 169.16 81.92Z" fill="#235347"/>
<path d="M165.609 86.35L165.319 86.5L165.279 86.33L165.639 86.14H165.829V87.78H165.619L165.609 86.35Z" fill="#235347"/>
<path d="M167.21 86.95C167.21 87.51 167 87.81 166.64 87.81C166.32 87.81 166.1 87.51 166.1 86.97C166.1 86.42 166.34 86.12 166.67 86.12C167.01 86.12 167.21 86.42 167.21 86.95ZM166.32 86.97C166.32 87.4 166.45 87.64 166.65 87.64C166.87 87.64 166.98 87.38 166.98 86.96C166.98 86.56 166.88 86.29 166.65 86.29C166.46 86.29 166.32 86.52 166.32 86.97Z" fill="#235347"/>
<path d="M168.5 86.95C168.5 87.51 168.29 87.81 167.93 87.81C167.61 87.81 167.39 87.51 167.39 86.97C167.39 86.42 167.63 86.12 167.96 86.12C168.3 86.12 168.5 86.42 168.5 86.95ZM167.61 86.97C167.61 87.4 167.74 87.64 167.94 87.64C168.16 87.64 168.27 87.38 168.27 86.96C168.27 86.56 168.17 86.29 167.94 86.29C167.76 86.29 167.61 86.53 167.61 86.97Z" fill="#235347"/>
<path d="M169.879 87.6C169.879 87.88 169.819 88.05 169.709 88.16C169.589 88.27 169.419 88.31 169.259 88.31C169.109 88.31 168.949 88.27 168.859 88.21L168.919 88.04C168.999 88.09 169.129 88.14 169.279 88.14C169.509 88.14 169.669 88.02 169.669 87.71V87.58H169.659C169.589 87.69 169.459 87.78 169.269 87.78C168.969 87.78 168.749 87.52 168.749 87.19C168.749 86.78 169.019 86.55 169.299 86.55C169.509 86.55 169.619 86.66 169.679 86.76L169.689 86.58H169.889C169.879 86.67 169.879 86.77 169.879 86.91V87.6ZM169.659 87.04C169.659 87 169.659 86.97 169.649 86.94C169.609 86.81 169.499 86.7 169.339 86.7C169.129 86.7 168.979 86.88 168.979 87.16C168.979 87.4 169.099 87.6 169.339 87.6C169.479 87.6 169.599 87.51 169.649 87.37C169.659 87.33 169.669 87.29 169.669 87.25L169.659 87.04Z" fill="#235347"/>
</g>
<g opacity="0.57">
<path d="M193.24 36.73H185.24C184.15 36.73 183.27 35.84 183.27 34.75L183.3 16.49C183.3 15.4 184.19 14.51 185.28 14.51H193.28C194.37 14.51 195.25 15.4 195.25 16.49L195.22 34.75C195.22 35.84 194.33 36.73 193.24 36.73Z" stroke="#235347" stroke-miterlimit="10" stroke-linecap="round" stroke-linejoin="round"/>
<path opacity="0.58" d="M194.379 23.3H183.949L183.959 16.29C183.959 15.73 184.419 15.27 184.979 15.27H193.379C193.939 15.27 194.399 15.73 194.389 16.29L194.379 23.3Z" fill="#DAF1DE"/>
<path opacity="0.46" d="M189.17 20.1C188.8 20.1 188.42 20.1 188.05 20.1C188.01 20.1 188 20.09 187.99 20.06C187.76 19.34 187.53 18.63 187.3 17.92C187.29 17.89 187.3 17.87 187.32 17.86C187.93 17.42 188.53 16.98 189.14 16.54C189.17 16.52 189.19 16.51 189.23 16.54C189.84 16.98 190.44 17.42 191.05 17.86C191.07 17.88 191.08 17.89 191.07 17.92C190.84 18.62 190.61 19.32 190.38 20.02C190.35 20.11 190.35 20.11 190.26 20.11C189.89 20.1 189.53 20.1 189.17 20.1Z" stroke="#235347" stroke-miterlimit="10" stroke-linecap="round" stroke-linejoin="round"/>
<path d="M187.53 23.86H188.25V24.01H187.7V24.46H188.21V24.6H187.7V25.21H187.52L187.53 23.86Z" fill="#235347"/>
<path d="M188.68 23.86V25.21H188.5V23.86H188.68Z" fill="#235347"/>
<path d="M188.979 25.21V23.86H189.169L189.6 24.54C189.7 24.7 189.779 24.84 189.839 24.98H189.85C189.83 24.8 189.829 24.64 189.829 24.43V23.87H189.99V25.22H189.809L189.38 24.54C189.29 24.39 189.2 24.24 189.13 24.09H189.119C189.129 24.26 189.13 24.42 189.13 24.65V25.23L188.979 25.21Z" fill="#235347"/>
<path d="M190.989 24.58H190.469V25.07H191.049V25.22H190.289V23.87H191.019V24.02H190.469V24.45H190.989V24.58Z" fill="#235347"/>
<path d="M187.499 27.46C187.389 27.5 187.179 27.56 186.929 27.56C186.649 27.56 186.42 27.49 186.24 27.31C186.08 27.16 185.979 26.91 185.979 26.62C185.979 26.07 186.36 25.66 186.99 25.66C187.2 25.66 187.38 25.71 187.46 25.75L187.399 25.95C187.299 25.9 187.18 25.87 186.99 25.87C186.54 25.87 186.24 26.15 186.24 26.62C186.24 27.09 186.519 27.37 186.949 27.37C187.109 27.37 187.21 27.35 187.27 27.32V26.77H186.899V26.58H187.509L187.499 27.46Z" fill="#235347"/>
<path d="M189.46 26.6C189.46 27.24 189.07 27.58 188.6 27.58C188.11 27.58 187.77 27.2 187.77 26.63C187.77 26.04 188.14 25.65 188.63 25.65C189.13 25.66 189.46 26.04 189.46 26.6ZM188.01 26.63C188.01 27.03 188.22 27.39 188.6 27.39C188.98 27.39 189.2 27.04 189.2 26.62C189.2 26.25 189.01 25.86 188.61 25.86C188.21 25.85 188.01 26.22 188.01 26.63Z" fill="#235347"/>
<path d="M189.77 25.69H190.01V27.35H190.8V27.55H189.76L189.77 25.69Z" fill="#235347"/>
<path d="M191.07 25.7201C191.22 25.7001 191.39 25.6801 191.58 25.6801C191.92 25.6801 192.17 25.7601 192.33 25.9101C192.5 26.0601 192.59 26.2801 192.59 26.5801C192.59 26.8801 192.49 27.1301 192.32 27.3001C192.14 27.4701 191.86 27.5701 191.5 27.5701C191.33 27.5701 191.19 27.5601 191.06 27.5501L191.07 25.7201ZM191.31 27.3601C191.37 27.3701 191.46 27.3701 191.55 27.3701C192.06 27.3701 192.34 27.0801 192.34 26.5801C192.34 26.1401 192.1 25.8601 191.59 25.8601C191.47 25.8601 191.37 25.8701 191.31 25.8801V27.3601Z" fill="#235347"/>
<path d="M187.18 29.66C187.22 29.66 187.26 29.66 187.32 29.65C187.42 29.64 187.52 29.6 187.59 29.52C187.68 29.44 187.74 29.33 187.76 29.17H187.75C187.68 29.26 187.57 29.31 187.44 29.31C187.21 29.31 187.06 29.13 187.06 28.91C187.06 28.66 187.24 28.44 187.51 28.44C187.78 28.44 187.94 28.66 187.94 28.99C187.94 29.28 187.84 29.48 187.71 29.6C187.61 29.7 187.47 29.76 187.33 29.78C187.27 29.79 187.21 29.79 187.17 29.79L187.18 29.66ZM187.25 28.91C187.25 29.07 187.35 29.19 187.5 29.19C187.62 29.19 187.71 29.13 187.76 29.05C187.77 29.03 187.78 29.01 187.78 28.98C187.78 28.76 187.7 28.59 187.51 28.59C187.35 28.59 187.25 28.72 187.25 28.91Z" fill="#235347"/>
<path d="M188.21 29.66C188.25 29.66 188.29 29.66 188.35 29.65C188.45 29.64 188.55 29.6 188.62 29.52C188.71 29.44 188.77 29.33 188.79 29.17H188.78C188.71 29.26 188.6 29.31 188.47 29.31C188.24 29.31 188.09 29.13 188.09 28.91C188.09 28.66 188.27 28.44 188.54 28.44C188.81 28.44 188.97 28.66 188.97 28.99C188.97 29.28 188.87 29.48 188.74 29.6C188.64 29.7 188.5 29.76 188.36 29.78C188.3 29.79 188.24 29.79 188.2 29.79L188.21 29.66ZM188.28 28.91C188.28 29.07 188.38 29.19 188.53 29.19C188.65 29.19 188.74 29.13 188.79 29.05C188.8 29.03 188.81 29.01 188.81 28.98C188.81 28.76 188.73 28.59 188.54 28.59C188.39 28.59 188.28 28.72 188.28 28.91Z" fill="#235347"/>
<path d="M189.25 29.66C189.29 29.66 189.33 29.66 189.39 29.65C189.49 29.64 189.59 29.6 189.66 29.52C189.75 29.44 189.81 29.33 189.83 29.17H189.82C189.75 29.26 189.64 29.31 189.51 29.31C189.28 29.31 189.13 29.13 189.13 28.91C189.13 28.66 189.31 28.44 189.58 28.44C189.85 28.44 190.01 28.66 190.01 28.99C190.01 29.28 189.91 29.48 189.78 29.6C189.68 29.7 189.54 29.76 189.4 29.78C189.34 29.79 189.28 29.79 189.24 29.79L189.25 29.66ZM189.31 28.91C189.31 29.07 189.41 29.19 189.56 29.19C189.68 29.19 189.77 29.13 189.82 29.05C189.83 29.03 189.84 29.01 189.84 28.98C189.84 28.76 189.76 28.59 189.57 28.59C189.42 28.59 189.31 28.72 189.31 28.91Z" fill="#235347"/>
<path d="M190.119 30.03C190.159 29.91 190.219 29.69 190.239 29.55L190.439 29.53C190.389 29.7 190.299 29.92 190.249 30.02L190.119 30.03Z" fill="#235347"/>
<path d="M190.699 29.66C190.739 29.66 190.779 29.66 190.839 29.65C190.939 29.64 191.039 29.6 191.109 29.52C191.199 29.44 191.259 29.33 191.279 29.17H191.269C191.199 29.26 191.089 29.31 190.959 29.31C190.729 29.31 190.579 29.13 190.579 28.91C190.579 28.66 190.759 28.44 191.029 28.44C191.299 28.44 191.459 28.66 191.459 28.99C191.459 29.28 191.359 29.48 191.229 29.6C191.129 29.7 190.989 29.76 190.849 29.78C190.789 29.79 190.729 29.79 190.689 29.79L190.699 29.66ZM190.759 28.91C190.759 29.07 190.859 29.19 191.009 29.19C191.129 29.19 191.219 29.13 191.269 29.05C191.279 29.03 191.289 29.01 191.289 28.98C191.289 28.76 191.209 28.59 191.019 28.59C190.869 28.59 190.759 28.72 190.759 28.91Z" fill="#235347"/>
<path d="M187.85 33.33L187.56 33.48L187.52 33.31L187.88 33.12H188.07V34.76H187.86L187.85 33.33Z" fill="#235347"/>
<path d="M189.45 33.93C189.45 34.49 189.24 34.79 188.88 34.79C188.56 34.79 188.34 34.49 188.34 33.95C188.34 33.4 188.58 33.1 188.91 33.1C189.25 33.1 189.45 33.41 189.45 33.93ZM188.56 33.95C188.56 34.38 188.69 34.62 188.89 34.62C189.11 34.62 189.22 34.36 189.22 33.94C189.22 33.54 189.12 33.27 188.89 33.27C188.7 33.27 188.56 33.51 188.56 33.95Z" fill="#235347"/>
<path d="M190.84 34.59C190.84 34.87 190.78 35.04 190.67 35.15C190.55 35.26 190.38 35.3 190.22 35.3C190.07 35.3 189.91 35.26 189.82 35.2L189.88 35.03C189.96 35.08 190.09 35.13 190.24 35.13C190.47 35.13 190.63 35.01 190.63 34.7V34.57H190.62C190.55 34.68 190.42 34.77 190.23 34.77C189.93 34.77 189.71 34.51 189.71 34.18C189.71 33.77 189.98 33.54 190.26 33.54C190.47 33.54 190.58 33.65 190.64 33.75L190.65 33.57H190.85C190.84 33.66 190.84 33.76 190.84 33.9V34.59ZM190.62 34.03C190.62 33.99 190.62 33.96 190.61 33.93C190.57 33.8 190.46 33.69 190.3 33.69C190.09 33.69 189.94 33.87 189.94 34.15C189.94 34.39 190.06 34.59 190.3 34.59C190.44 34.59 190.56 34.5 190.61 34.36C190.62 34.32 190.63 34.28 190.63 34.24L190.62 34.03Z" fill="#235347"/>
</g>
<g opacity="0.57">
<path d="M295.85 90.29C295.95 90.21 296.07 90.17 296.22 90.17C296.32 90.17 296.41 90.19 296.49 90.23C296.57 90.27 296.62 90.32 296.66 90.38C296.7 90.44 296.72 90.52 296.72 90.6C296.72 90.69 296.7 90.77 296.65 90.84C296.6 90.91 296.54 90.95 296.47 90.97V90.98C296.56 91.01 296.63 91.06 296.67 91.13C296.72 91.2 296.74 91.29 296.74 91.4C296.74 91.49 296.72 91.56 296.68 91.63C296.64 91.7 296.58 91.75 296.5 91.79C296.42 91.83 296.33 91.85 296.22 91.85C296.06 91.85 295.93 91.81 295.83 91.73C295.73 91.65 295.67 91.53 295.66 91.38H295.9C295.91 91.46 295.94 91.52 295.99 91.57C296.04 91.62 296.12 91.64 296.21 91.64C296.3 91.64 296.37 91.62 296.42 91.57C296.47 91.52 296.49 91.46 296.49 91.38C296.49 91.28 296.46 91.2 296.39 91.16C296.32 91.12 296.22 91.09 296.09 91.09H296.03V90.88H296.09C296.21 90.88 296.3 90.86 296.36 90.82C296.42 90.78 296.45 90.72 296.45 90.64C296.45 90.57 296.43 90.51 296.38 90.47C296.33 90.43 296.27 90.41 296.18 90.41C296.1 90.41 296.03 90.43 295.99 90.47C295.94 90.51 295.92 90.56 295.91 90.63H295.66C295.7 90.47 295.76 90.36 295.85 90.29Z" fill="#235347"/>
<path d="M300.79 93.76H292.79C291.7 93.76 290.82 92.87 290.82 91.78L290.85 73.52C290.85 72.43 291.74 71.54 292.83 71.54H300.83C301.92 71.54 302.8 72.43 302.8 73.52L302.77 91.78C302.76 92.88 301.88 93.76 300.79 93.76Z" stroke="#235347" stroke-miterlimit="10" stroke-linecap="round" stroke-linejoin="round"/>
<path opacity="0.58" d="M301.93 80.34H291.5L291.51 73.33C291.51 72.77 291.97 72.31 292.53 72.31H300.93C301.49 72.31 301.95 72.77 301.94 73.33L301.93 80.34Z" fill="#DAF1DE"/>
<path opacity="0.46" d="M296.721 77.13C296.351 77.13 295.971 77.13 295.601 77.13C295.561 77.13 295.551 77.12 295.541 77.09C295.311 76.37 295.081 75.66 294.851 74.95C294.841 74.92 294.851 74.9 294.871 74.89C295.481 74.45 296.081 74.01 296.691 73.57C296.721 73.55 296.741 73.54 296.781 73.57C297.391 74.01 297.991 74.45 298.601 74.89C298.621 74.91 298.631 74.92 298.621 74.95C298.391 75.65 298.161 76.35 297.931 77.05C297.901 77.14 297.901 77.14 297.811 77.14C297.441 77.13 297.081 77.13 296.721 77.13Z" stroke="#235347" stroke-miterlimit="10" stroke-linecap="round" stroke-linejoin="round"/>
<path d="M295.08 80.9H295.8V81.05H295.25V81.5H295.76V81.64H295.25V82.25H295.07L295.08 80.9Z" fill="#235347"/>
<path d="M296.231 80.9V82.25H296.051V80.9H296.231Z" fill="#235347"/>
<path d="M296.53 82.24V80.89H296.72L297.15 81.57C297.25 81.73 297.33 81.87 297.39 82.01H297.4C297.38 81.83 297.38 81.67 297.38 81.46V80.9H297.54V82.25H297.36L296.93 81.57C296.84 81.42 296.75 81.27 296.68 81.12H296.67C296.68 81.29 296.68 81.45 296.68 81.68V82.26L296.53 82.24Z" fill="#235347"/>
<path d="M298.54 81.61H298.02V82.1H298.6V82.25H297.84V80.9H298.57V81.05H298.02V81.48H298.54V81.61Z" fill="#235347"/>
<path d="M295.05 84.5C294.94 84.54 294.73 84.6 294.48 84.6C294.2 84.6 293.97 84.53 293.79 84.35C293.63 84.2 293.53 83.95 293.53 83.66C293.53 83.11 293.91 82.7 294.54 82.7C294.75 82.7 294.93 82.75 295.01 82.79L294.95 82.99C294.85 82.94 294.73 82.91 294.54 82.91C294.09 82.91 293.79 83.19 293.79 83.66C293.79 84.13 294.07 84.41 294.5 84.41C294.66 84.41 294.76 84.39 294.82 84.36V83.81H294.45V83.62H295.06L295.05 84.5Z" fill="#235347"/>
<path d="M297.001 83.63C297.001 84.27 296.611 84.61 296.141 84.61C295.651 84.61 295.311 84.23 295.311 83.66C295.311 83.07 295.681 82.68 296.171 82.68C296.681 82.69 297.011 83.08 297.001 83.63ZM295.561 83.66C295.561 84.06 295.771 84.42 296.151 84.42C296.531 84.42 296.751 84.07 296.751 83.65C296.751 83.28 296.561 82.89 296.161 82.89C295.761 82.89 295.561 83.25 295.561 83.66Z" fill="#235347"/>
<path d="M297.321 82.72H297.561V84.38H298.351V84.58H297.311L297.321 82.72Z" fill="#235347"/>
<path d="M298.62 82.75C298.77 82.73 298.94 82.71 299.13 82.71C299.47 82.71 299.72 82.79 299.88 82.94C300.05 83.09 300.14 83.31 300.14 83.61C300.14 83.91 300.04 84.16 299.87 84.33C299.69 84.5 299.41 84.6 299.05 84.6C298.88 84.6 298.74 84.59 298.61 84.58L298.62 82.75ZM298.86 84.39C298.92 84.4 299.01 84.4 299.1 84.4C299.61 84.4 299.89 84.11 299.89 83.61C299.89 83.17 299.65 82.89 299.14 82.89C299.02 82.89 298.92 82.9 298.86 82.91V84.39Z" fill="#235347"/>
<path d="M294.73 86.69C294.77 86.69 294.81 86.69 294.87 86.68C294.97 86.67 295.07 86.63 295.14 86.55C295.23 86.47 295.29 86.36 295.31 86.2H295.3C295.23 86.29 295.12 86.34 294.99 86.34C294.76 86.34 294.61 86.16 294.61 85.94C294.61 85.69 294.79 85.47 295.06 85.47C295.33 85.47 295.49 85.69 295.49 86.02C295.49 86.31 295.39 86.51 295.26 86.63C295.16 86.73 295.02 86.79 294.88 86.81C294.82 86.82 294.76 86.82 294.72 86.82L294.73 86.69ZM294.8 85.94C294.8 86.1 294.9 86.22 295.05 86.22C295.17 86.22 295.26 86.16 295.31 86.08C295.32 86.06 295.33 86.04 295.33 86.01C295.33 85.79 295.25 85.62 295.06 85.62C294.9 85.62 294.8 85.75 294.8 85.94Z" fill="#235347"/>
<path d="M295.761 86.69C295.801 86.69 295.841 86.69 295.901 86.68C296.001 86.67 296.101 86.63 296.171 86.55C296.261 86.47 296.321 86.36 296.341 86.2H296.331C296.261 86.29 296.151 86.34 296.021 86.34C295.791 86.34 295.641 86.16 295.641 85.94C295.641 85.69 295.821 85.47 296.091 85.47C296.361 85.47 296.521 85.69 296.521 86.02C296.521 86.31 296.421 86.51 296.291 86.63C296.191 86.73 296.051 86.79 295.911 86.81C295.851 86.82 295.791 86.82 295.751 86.82L295.761 86.69ZM295.831 85.94C295.831 86.1 295.931 86.22 296.081 86.22C296.201 86.22 296.291 86.16 296.341 86.08C296.351 86.06 296.361 86.04 296.361 86.01C296.361 85.79 296.281 85.62 296.091 85.62C295.941 85.62 295.831 85.75 295.831 85.94Z" fill="#235347"/>
<path d="M296.79 86.69C296.83 86.69 296.87 86.69 296.93 86.68C297.03 86.67 297.13 86.63 297.2 86.55C297.29 86.47 297.35 86.36 297.37 86.2H297.36C297.29 86.29 297.18 86.34 297.05 86.34C296.82 86.34 296.67 86.16 296.67 85.94C296.67 85.69 296.85 85.47 297.12 85.47C297.39 85.47 297.55 85.69 297.55 86.02C297.55 86.31 297.45 86.51 297.32 86.63C297.22 86.73 297.08 86.79 296.94 86.81C296.88 86.82 296.82 86.82 296.78 86.82L296.79 86.69ZM296.86 85.94C296.86 86.1 296.96 86.22 297.11 86.22C297.23 86.22 297.32 86.16 297.37 86.08C297.38 86.06 297.39 86.04 297.39 86.01C297.39 85.79 297.31 85.62 297.12 85.62C296.97 85.62 296.86 85.75 296.86 85.94Z" fill="#235347"/>
<path d="M297.67 87.0699C297.71 86.9499 297.77 86.7299 297.79 86.5899L297.99 86.5699C297.94 86.7399 297.85 86.9599 297.8 87.0599L297.67 87.0699Z" fill="#235347"/>
<path d="M298.24 86.69C298.28 86.69 298.32 86.69 298.38 86.68C298.48 86.67 298.58 86.63 298.65 86.55C298.74 86.47 298.8 86.36 298.82 86.2H298.81C298.74 86.29 298.63 86.34 298.5 86.34C298.27 86.34 298.12 86.16 298.12 85.94C298.12 85.69 298.3 85.47 298.57 85.47C298.84 85.47 299 85.69 299 86.02C299 86.31 298.9 86.51 298.77 86.63C298.67 86.73 298.53 86.79 298.39 86.81C298.33 86.82 298.27 86.82 298.23 86.82L298.24 86.69ZM298.31 85.94C298.31 86.1 298.41 86.22 298.56 86.22C298.68 86.22 298.77 86.16 298.82 86.08C298.83 86.06 298.84 86.04 298.84 86.01C298.84 85.79 298.76 85.62 298.57 85.62C298.42 85.62 298.31 85.75 298.31 85.94Z" fill="#235347"/>
<path d="M298.07 91.6199C298.07 91.8999 298.01 92.0699 297.9 92.1799C297.78 92.2899 297.61 92.3299 297.45 92.3299C297.3 92.3299 297.14 92.2899 297.05 92.2299L297.11 92.0599C297.19 92.1099 297.32 92.16 297.47 92.16C297.7 92.16 297.86 92.0399 297.86 91.7299V91.5999H297.85C297.78 91.7099 297.65 91.7999 297.46 91.7999C297.16 91.7999 296.94 91.5399 296.94 91.2099C296.94 90.7999 297.21 90.5699 297.49 90.5699C297.7 90.5699 297.81 90.6799 297.87 90.7799L297.88 90.5999H298.08C298.07 90.6899 298.07 90.7899 298.07 90.9299V91.6199ZM297.85 91.0599C297.85 91.0199 297.85 90.9899 297.84 90.9599C297.8 90.8299 297.69 90.7199 297.53 90.7199C297.32 90.7199 297.17 90.8999 297.17 91.1799C297.17 91.4199 297.29 91.6199 297.53 91.6199C297.67 91.6199 297.79 91.5299 297.84 91.3899C297.85 91.3499 297.86 91.3099 297.86 91.2699L297.85 91.0599Z" fill="#235347"/>
</g>
<g opacity="0.57">
<path d="M268.4 51.22H267.67V51.65C267.7 51.61 267.75 51.58 267.81 51.55C267.87 51.52 267.93 51.51 268 51.51C268.12 51.51 268.22 51.54 268.3 51.59C268.38 51.64 268.43 51.71 268.46 51.79C268.49 51.87 268.51 51.95 268.51 52.04C268.51 52.15 268.49 52.24 268.45 52.33C268.41 52.41 268.35 52.48 268.27 52.53C268.19 52.58 268.09 52.6 267.97 52.6C267.81 52.6 267.69 52.56 267.59 52.48C267.49 52.4 267.44 52.3 267.42 52.17H267.66C267.68 52.24 267.71 52.29 267.77 52.33C267.83 52.37 267.89 52.39 267.98 52.39C268.08 52.39 268.16 52.36 268.21 52.3C268.26 52.24 268.29 52.16 268.29 52.05C268.29 51.95 268.26 51.87 268.21 51.81C268.16 51.75 268.08 51.73 267.98 51.73C267.91 51.73 267.85 51.75 267.8 51.78C267.75 51.82 267.72 51.86 267.69 51.92H267.46V51H268.42V51.22H268.4Z" fill="#235347"/>
<path d="M272.53 54.55H264.53C263.44 54.55 262.56 53.66 262.56 52.57L262.59 34.31C262.59 33.22 263.48 32.33 264.57 32.33H272.57C273.66 32.33 274.54 33.22 274.54 34.31L274.51 52.57C274.51 53.67 273.62 54.55 272.53 54.55Z" stroke="#235347" stroke-miterlimit="10" stroke-linecap="round" stroke-linejoin="round"/>
<path opacity="0.58" d="M273.669 41.13H263.239L263.249 34.12C263.249 33.56 263.709 33.1 264.269 33.1H272.669C273.229 33.1 273.689 33.56 273.679 34.12L273.669 41.13Z" fill="#DAF1DE"/>
<path opacity="0.46" d="M268.46 37.92C268.09 37.92 267.71 37.92 267.34 37.92C267.3 37.92 267.29 37.91 267.28 37.88C267.05 37.16 266.82 36.45 266.59 35.74C266.58 35.71 266.59 35.69 266.61 35.68C267.22 35.24 267.82 34.8 268.43 34.36C268.46 34.34 268.48 34.33 268.52 34.36C269.13 34.8 269.73 35.24 270.34 35.68C270.36 35.7 270.37 35.71 270.36 35.74C270.13 36.44 269.9 37.14 269.67 37.84C269.64 37.93 269.64 37.93 269.55 37.93C269.18 37.92 268.82 37.92 268.46 37.92Z" stroke="#235347" stroke-miterlimit="10" stroke-linecap="round" stroke-linejoin="round"/>
<path d="M266.82 41.69H267.54V41.84H266.99V42.29H267.5V42.43H266.99V43.04H266.81L266.82 41.69Z" fill="#235347"/>
<path d="M267.97 41.69V43.04H267.79V41.69H267.97Z" fill="#235347"/>
<path d="M268.27 43.04V41.69H268.46L268.89 42.37C268.99 42.53 269.07 42.67 269.13 42.81H269.14C269.12 42.63 269.12 42.47 269.12 42.26V41.7H269.28V43.05H269.1L268.67 42.37C268.58 42.22 268.49 42.07 268.42 41.92H268.41C268.42 42.09 268.42 42.25 268.42 42.48V43.06L268.27 43.04Z" fill="#235347"/>
<path d="M270.279 42.4H269.759V42.89H270.339V43.04H269.579V41.69H270.309V41.84H269.759V42.27H270.279V42.4Z" fill="#235347"/>
<path d="M266.79 45.2901C266.68 45.3301 266.47 45.39 266.22 45.39C265.94 45.39 265.71 45.32 265.53 45.14C265.37 44.99 265.27 44.7401 265.27 44.4501C265.27 43.9001 265.65 43.4901 266.28 43.4901C266.49 43.4901 266.67 43.5401 266.75 43.5801L266.69 43.78C266.59 43.73 266.47 43.7001 266.28 43.7001C265.83 43.7001 265.53 43.9801 265.53 44.4501C265.53 44.9201 265.81 45.2001 266.24 45.2001C266.4 45.2001 266.5 45.1801 266.56 45.1501V44.6H266.19V44.41H266.8L266.79 45.2901Z" fill="#235347"/>
<path d="M268.75 44.42C268.75 45.06 268.36 45.4 267.89 45.4C267.4 45.4 267.06 45.02 267.06 44.45C267.06 43.86 267.43 43.47 267.92 43.47C268.42 43.48 268.75 43.87 268.75 44.42ZM267.3 44.45C267.3 44.85 267.51 45.21 267.89 45.21C268.27 45.21 268.49 44.86 268.49 44.44C268.49 44.07 268.3 43.68 267.9 43.68C267.5 43.68 267.3 44.05 267.3 44.45Z" fill="#235347"/>
<path d="M269.06 43.51H269.3V45.17H270.09V45.37H269.05L269.06 43.51Z" fill="#235347"/>
<path d="M270.36 43.54C270.51 43.52 270.68 43.5 270.87 43.5C271.21 43.5 271.46 43.58 271.62 43.73C271.79 43.88 271.88 44.1 271.88 44.4C271.88 44.7 271.78 44.95 271.61 45.12C271.43 45.29 271.15 45.39 270.79 45.39C270.62 45.39 270.48 45.38 270.35 45.37L270.36 43.54ZM270.6 45.19C270.66 45.2 270.75 45.2 270.84 45.2C271.35 45.2 271.63 44.91 271.63 44.41C271.63 43.97 271.39 43.69 270.88 43.69C270.76 43.69 270.66 43.7 270.6 43.71V45.19Z" fill="#235347"/>
<path d="M266.47 47.48C266.51 47.48 266.55 47.48 266.61 47.47C266.71 47.46 266.81 47.42 266.88 47.34C266.97 47.26 267.03 47.15 267.05 46.99H267.04C266.97 47.08 266.86 47.13 266.73 47.13C266.5 47.13 266.35 46.95 266.35 46.73C266.35 46.48 266.53 46.26 266.8 46.26C267.07 46.26 267.23 46.48 267.23 46.81C267.23 47.1 267.13 47.3 267 47.42C266.9 47.52 266.76 47.58 266.62 47.6C266.56 47.61 266.5 47.61 266.46 47.61L266.47 47.48ZM266.54 46.73C266.54 46.89 266.64 47.01 266.79 47.01C266.91 47.01 267 46.95 267.05 46.87C267.06 46.85 267.07 46.83 267.07 46.8C267.07 46.58 266.99 46.41 266.8 46.41C266.64 46.41 266.54 46.54 266.54 46.73Z" fill="#235347"/>
<path d="M267.5 47.48C267.54 47.48 267.58 47.48 267.64 47.47C267.74 47.46 267.84 47.42 267.91 47.34C268 47.26 268.06 47.15 268.08 46.99H268.07C268 47.08 267.89 47.13 267.76 47.13C267.53 47.13 267.38 46.95 267.38 46.73C267.38 46.48 267.56 46.26 267.83 46.26C268.1 46.26 268.26 46.48 268.26 46.81C268.26 47.1 268.16 47.3 268.03 47.42C267.93 47.52 267.79 47.58 267.65 47.6C267.59 47.61 267.53 47.61 267.49 47.61L267.5 47.48ZM267.57 46.73C267.57 46.89 267.67 47.01 267.82 47.01C267.94 47.01 268.03 46.95 268.08 46.87C268.09 46.85 268.1 46.83 268.1 46.8C268.1 46.58 268.02 46.41 267.83 46.41C267.68 46.41 267.57 46.54 267.57 46.73Z" fill="#235347"/>
<path d="M268.54 47.48C268.58 47.48 268.62 47.48 268.68 47.47C268.78 47.46 268.88 47.42 268.95 47.34C269.04 47.26 269.1 47.15 269.12 46.99H269.11C269.04 47.08 268.93 47.13 268.8 47.13C268.57 47.13 268.42 46.95 268.42 46.73C268.42 46.48 268.6 46.26 268.87 46.26C269.14 46.26 269.3 46.48 269.3 46.81C269.3 47.1 269.2 47.3 269.07 47.42C268.97 47.52 268.83 47.58 268.69 47.6C268.63 47.61 268.57 47.61 268.53 47.61L268.54 47.48ZM268.6 46.73C268.6 46.89 268.7 47.01 268.85 47.01C268.97 47.01 269.06 46.95 269.11 46.87C269.12 46.85 269.13 46.83 269.13 46.8C269.13 46.58 269.05 46.41 268.86 46.41C268.71 46.41 268.6 46.55 268.6 46.73Z" fill="#235347"/>
<path d="M269.409 47.86C269.449 47.74 269.509 47.52 269.529 47.38L269.729 47.36C269.679 47.53 269.589 47.75 269.539 47.85L269.409 47.86Z" fill="#235347"/>
<path d="M269.989 47.48C270.029 47.48 270.069 47.48 270.129 47.47C270.229 47.46 270.329 47.42 270.399 47.34C270.489 47.26 270.549 47.15 270.569 46.99H270.559C270.489 47.08 270.379 47.13 270.249 47.13C270.019 47.13 269.869 46.95 269.869 46.73C269.869 46.48 270.049 46.26 270.319 46.26C270.589 46.26 270.749 46.48 270.749 46.81C270.749 47.1 270.649 47.3 270.519 47.42C270.419 47.52 270.279 47.58 270.139 47.6C270.079 47.61 270.019 47.61 269.979 47.61L269.989 47.48ZM270.049 46.73C270.049 46.89 270.149 47.01 270.299 47.01C270.419 47.01 270.509 46.95 270.559 46.87C270.569 46.85 270.579 46.83 270.579 46.8C270.579 46.58 270.499 46.41 270.309 46.41C270.159 46.41 270.049 46.55 270.049 46.73Z" fill="#235347"/>
<path d="M269.81 52.41C269.81 52.69 269.75 52.86 269.64 52.97C269.52 53.08 269.35 53.12 269.19 53.12C269.04 53.12 268.88 53.08 268.79 53.02L268.85 52.85C268.93 52.9 269.06 52.95 269.21 52.95C269.44 52.95 269.6 52.83 269.6 52.52V52.39H269.59C269.52 52.5 269.39 52.59 269.2 52.59C268.9 52.59 268.68 52.33 268.68 52C268.68 51.59 268.95 51.36 269.23 51.36C269.44 51.36 269.55 51.47 269.61 51.57L269.62 51.39H269.82C269.81 51.48 269.81 51.58 269.81 51.72V52.41ZM269.59 51.85C269.59 51.81 269.59 51.78 269.58 51.75C269.54 51.62 269.43 51.51 269.27 51.51C269.06 51.51 268.91 51.69 268.91 51.97C268.91 52.21 269.03 52.41 269.27 52.41C269.41 52.41 269.53 52.32 269.58 52.18C269.59 52.14 269.6 52.1 269.6 52.06L269.59 51.85Z" fill="#235347"/>
</g>
<path opacity="0.57" d="M292.89 15.18H285.74C285.63 15.18 285.55 15.07 285.58 14.97L286.53 11.82C286.55 11.75 286.61 11.7 286.69 11.7H291.94C292.01 11.7 292.08 11.75 292.1 11.82L293.05 14.97C293.08 15.07 293 15.18 292.89 15.18Z" stroke="#235347" stroke-miterlimit="10"/>
<path opacity="0.57" d="M289.04 18.9H281.89C281.78 18.9 281.7 18.79 281.73 18.69L282.68 15.54C282.7 15.47 282.76 15.42 282.84 15.42H288.09C288.16 15.42 288.23 15.47 288.25 15.54L289.2 18.69C289.23 18.79 289.15 18.9 289.04 18.9Z" stroke="#235347" stroke-miterlimit="10"/>
<g opacity="0.57">
<path d="M296.63 18.9H289.48C289.37 18.9 289.29 18.79 289.32 18.69L290.27 15.54C290.29 15.47 290.35 15.42 290.43 15.42H295.68C295.75 15.42 295.82 15.47 295.84 15.54L296.79 18.69C296.82 18.79 296.74 18.9 296.63 18.9Z" stroke="#235347" stroke-miterlimit="10"/>
<path d="M300.37 15.22H293.22C293.11 15.22 293.03 15.11 293.06 15.01L294.01 11.86C294.03 11.79 294.09 11.74 294.17 11.74H299.42C299.49 11.74 299.56 11.79 299.58 11.86L300.53 15.01C300.56 15.12 300.48 15.22 300.37 15.22Z" stroke="#235347" stroke-miterlimit="10"/>
<path d="M304.109 18.9H296.959C296.849 18.9 296.769 18.79 296.799 18.69L297.749 15.54C297.769 15.47 297.829 15.42 297.909 15.42H303.159C303.229 15.42 303.299 15.47 303.319 15.54L304.269 18.69C304.289 18.79 304.219 18.9 304.109 18.9Z" stroke="#235347" stroke-miterlimit="10"/>
</g>
<path opacity="0.57" d="M296.64 11.5H289.49C289.38 11.5 289.3 11.39 289.33 11.29L290.28 8.14002C290.3 8.07002 290.36 8.02002 290.44 8.02002H295.69C295.76 8.02002 295.83 8.07002 295.85 8.14002L296.8 11.29C296.83 11.39 296.75 11.5 296.64 11.5Z" stroke="#235347" stroke-miterlimit="10"/>
<g opacity="0.57">
<path d="M157.64 47.43H150.49C150.38 47.43 150.3 47.32 150.33 47.22L151.28 44.07C151.3 44 151.36 43.95 151.44 43.95H156.69C156.76 43.95 156.83 44 156.85 44.07L157.8 47.22C157.83 47.32 157.75 47.43 157.64 47.43Z" stroke="#235347" stroke-miterlimit="10"/>
<path d="M161.38 43.76H154.23C154.12 43.76 154.04 43.65 154.07 43.55L155.02 40.4C155.04 40.33 155.1 40.28 155.18 40.28H160.43C160.5 40.28 160.57 40.33 160.59 40.4L161.54 43.55C161.57 43.65 161.49 43.76 161.38 43.76Z" stroke="#235347" stroke-miterlimit="10"/>
<path d="M165.12 47.43H157.97C157.86 47.43 157.78 47.32 157.81 47.22L158.76 44.07C158.78 44 158.84 43.95 158.92 43.95H164.17C164.24 43.95 164.31 44 164.33 44.07L165.28 47.22C165.31 47.32 165.23 47.43 165.12 47.43Z" stroke="#235347" stroke-miterlimit="10"/>
</g>
<path d="M28.4659 56.2827H25.3879L20.2399 48.4887V56.2827H17.1619V43.6467H20.2399L25.3879 51.4767V43.6467H28.4659V56.2827ZM41.5331 43.6467L37.1591 52.1067V56.2827H34.0811V52.1067L29.7071 43.6467H33.1991L35.6471 48.9387L38.0771 43.6467H41.5331ZM45.8512 43.6467V56.2827H42.7732V43.6467H45.8512ZM47.5598 49.9467C47.5598 48.6987 47.8298 47.5887 48.3698 46.6167C48.9098 45.6327 49.6598 44.8707 50.6198 44.3307C51.5918 43.7787 52.6898 43.5027 53.9138 43.5027C55.4138 43.5027 56.6978 43.8987 57.7658 44.6907C58.8338 45.4827 59.5478 46.5627 59.9078 47.9307H56.5238C56.2718 47.4027 55.9118 47.0007 55.4438 46.7247C54.9878 46.4487 54.4658 46.3107 53.8778 46.3107C52.9298 46.3107 52.1618 46.6407 51.5738 47.3007C50.9858 47.9607 50.6918 48.8427 50.6918 49.9467C50.6918 51.0507 50.9858 51.9327 51.5738 52.5927C52.1618 53.2527 52.9298 53.5827 53.8778 53.5827C54.4658 53.5827 54.9878 53.4447 55.4438 53.1687C55.9118 52.8927 56.2718 52.4907 56.5238 51.9627H59.9078C59.5478 53.3307 58.8338 54.4107 57.7658 55.2027C56.6978 55.9827 55.4138 56.3727 53.9138 56.3727C52.6898 56.3727 51.5918 56.1027 50.6198 55.5627C49.6598 55.0107 48.9098 54.2487 48.3698 53.2767C47.8298 52.3047 47.5598 51.1947 47.5598 49.9467ZM64.8708 43.6467V56.2827H61.7928V43.6467H64.8708ZM70.1794 53.9067H74.2114V56.2827H67.1014V43.6467H70.1794V53.9067ZM82.5719 46.1127V48.6687H86.6939V51.0447H82.5719V53.8167H87.2339V56.2827H79.4939V43.6467H87.2339V46.1127H82.5719ZM103.542 43.6467V56.2827H100.464V48.7047L97.6382 56.2827H95.1542L92.3102 48.6867V56.2827H89.2322V43.6467H92.8682L96.4142 52.3947L99.9242 43.6467H103.542ZM113.622 54.0507H108.906L108.15 56.2827H104.928L109.5 43.6467H113.064L117.636 56.2827H114.378L113.622 54.0507ZM112.83 51.6747L111.264 47.0487L109.716 51.6747H112.83ZM123.599 56.4087C122.675 56.4087 121.847 56.2587 121.115 55.9587C120.383 55.6587 119.795 55.2147 119.351 54.6267C118.919 54.0387 118.691 53.3307 118.667 52.5027H121.943C121.991 52.9707 122.153 53.3307 122.429 53.5827C122.705 53.8227 123.065 53.9427 123.509 53.9427C123.965 53.9427 124.325 53.8407 124.589 53.6367C124.853 53.4207 124.985 53.1267 124.985 52.7547C124.985 52.4427 124.877 52.1847 124.661 51.9807C124.457 51.7767 124.199 51.6087 123.887 51.4767C123.587 51.3447 123.155 51.1947 122.591 51.0267C121.775 50.7747 121.109 50.5227 120.593 50.2707C120.077 50.0187 119.633 49.6467 119.261 49.1547C118.889 48.6627 118.703 48.0207 118.703 47.2287C118.703 46.0527 119.129 45.1347 119.981 44.4747C120.833 43.8027 121.943 43.4667 123.311 43.4667C124.703 43.4667 125.825 43.8027 126.677 44.4747C127.529 45.1347 127.985 46.0587 128.045 47.2467H124.715C124.691 46.8387 124.541 46.5207 124.265 46.2927C123.989 46.0527 123.635 45.9327 123.203 45.9327C122.831 45.9327 122.531 46.0347 122.303 46.2387C122.075 46.4307 121.961 46.7127 121.961 47.0847C121.961 47.4927 122.153 47.8107 122.537 48.0387C122.921 48.2667 123.521 48.5127 124.337 48.7767C125.153 49.0527 125.813 49.3167 126.317 49.5687C126.833 49.8207 127.277 50.1867 127.649 50.6667C128.021 51.1467 128.207 51.7647 128.207 52.5207C128.207 53.2407 128.021 53.8947 127.649 54.4827C127.289 55.0707 126.761 55.5387 126.065 55.8867C125.369 56.2347 124.547 56.4087 123.599 56.4087Z" fill="#235347"/>
</g>
</g>
<defs>
<clipPath id="clip0_667_37763">
<rect width="312" height="105" rx="8" fill="white"/>
</clipPath>
<clipPath id="clip1_667_37763">
<rect width="312" height="105" fill="white"/>
</clipPath>
</defs>
</svg>
