<svg width="57" height="56" viewBox="0 0 57 56" fill="none" xmlns="http://www.w3.org/2000/svg">
<circle cx="28.5" cy="28" r="28" fill="url(#paint0_linear_2487_4585)"/>
<path d="M45.5202 27.844C45.506 27.7235 45.4777 27.603 45.584 27.5038C45.584 27.6172 45.584 27.7235 45.584 27.8369C45.5627 27.8369 45.5415 27.8369 45.5202 27.844Z" fill="#2F2F2F"/>
<path d="M15.623 33.7792C15.623 33.7792 17.8961 33.1915 19.9354 33.85C21.6278 34.3953 23.1077 35.7477 23.1077 35.7477C23.1077 35.7477 27.2926 37.2064 28.2131 37.6101C29.3815 38.1199 29.2541 39.7556 27.6679 39.614C25.1895 39.3945 22.4846 39.0333 22.4846 39.0333" stroke="#235347" stroke-width="1.24609" stroke-miterlimit="10" stroke-linecap="round" stroke-linejoin="round"/>
<path d="M28.8583 38.0137C28.8583 38.0137 31.7615 37.6455 33.284 37.5959C33.9708 37.5747 34.5302 37.7163 34.8984 38.1907C35.21 38.5944 35.3021 39.0688 35.3021 39.0688C35.3021 39.0688 25.5444 41.5755 24.6097 41.7667C23.9157 41.9154 23.2006 41.9225 22.2729 41.618C21.0338 41.2144 18.7891 40.3859 17.6773 40.0106C16.7993 39.7202 15.1494 39.7203 15.1494 39.7203" stroke="#235347" stroke-width="1.24609" stroke-miterlimit="10" stroke-linecap="round" stroke-linejoin="round"/>
<path d="M10.6318 41.7312L14.6822 40.9594L15.5886 32.8162H12.2038L10.6318 41.7312Z" stroke="#235347" stroke-width="1.24609" stroke-miterlimit="10"/>
<path d="M8.57081 31.1381L8.5 43.3175L11.9626 42.6943L13.2514 32.0019L8.57081 31.1381Z" fill="#DAF1DE" stroke="#235347" stroke-width="1.24609" stroke-miterlimit="10" stroke-linecap="round" stroke-linejoin="round"/>
<path d="M27.4802 30.931L25.6533 34.7264H34.2497L32.5007 30.931H27.4802Z" fill="#DAF1DE" stroke="#235347" stroke-width="1.24609" stroke-miterlimit="10" stroke-linecap="round" stroke-linejoin="round"/>
<path d="M35.9636 30.931L34.1367 34.7264H42.7402L40.9841 30.931H35.9636Z" fill="#DAF1DE" stroke="#235347" stroke-width="1.24609" stroke-miterlimit="10" stroke-linecap="round" stroke-linejoin="round"/>
<path d="M31.24 26.8948L29.4131 30.6902H38.0095L36.2605 26.8948H31.24Z" fill="#DAF1DE" stroke="#235347" stroke-width="1.24609" stroke-miterlimit="10" stroke-linecap="round" stroke-linejoin="round"/>
<path d="M40.6019 31.5258L41.7915 34.1316H40.7081C40.7081 34.1316 39.6672 31.7595 39.6318 31.717C39.5964 31.6745 39.6247 31.5683 39.0653 31.5754C38.5059 31.5754 36.332 31.5683 36.332 31.5683V31.5329H40.6019V31.5258Z" fill="#8EB69B"/>
<path d="M32.1117 31.5258L33.3013 34.1316H32.2179C32.2179 34.1316 31.177 31.7595 31.1416 31.717C31.1062 31.6674 31.1345 31.5683 30.5751 31.5754C30.0157 31.5754 27.8418 31.5683 27.8418 31.5683V31.5329H32.1117V31.5258Z" fill="#8EB69B"/>
<path d="M35.8646 27.4967L37.0542 30.1025H35.9708C35.9708 30.1025 34.9299 27.7303 34.8945 27.6879C34.8591 27.6383 34.8874 27.5392 34.328 27.5462C33.7686 27.5462 31.5947 27.5392 31.5947 27.5392V27.5038H35.8646V27.4967Z" fill="#8EB69B"/>
<path d="M26.638 18.668C26.9889 20.9848 29.9852 19.5323 29.9025 20.6159C29.7172 23.0168 28.2619 25.2474 25.9079 26.2972C22.4933 27.8201 18.491 26.2866 16.9682 22.872C15.4453 19.4574 16.9788 15.455 20.3935 13.9322C23.7111 12.4527 27.5859 13.8569 29.1969 17.0694C29.2467 17.1635 26.4343 17.3245 26.638 18.668Z" fill="#DAF1DE"/>
<path d="M48.5002 23.1146L44.1913 13.4528L41.3922 13.887L42.0146 23.2623L48.5002 23.1146Z" fill="#8EB69B" stroke="#235347" stroke-width="1.24609" stroke-miterlimit="10"/>
<path d="M26.6821 14.4228C26.6821 14.4228 30.4363 12.5314 31.8246 11.9588C32.4088 11.7215 33.091 11.6343 33.9758 11.9841C36.6611 13.0505 41.1289 14.8106 41.1289 14.8106" stroke="#235347" stroke-width="1.24609" stroke-miterlimit="10"/>
<path d="M30.1023 18.0227C29.6892 17.1137 29.0763 16.2783 28.2701 15.5834C25.2629 12.9781 20.7123 13.3096 18.107 16.3167C15.5017 19.3239 15.8332 23.8746 18.8403 26.4799C21.8475 29.0852 26.3982 28.7537 29.0035 25.7465C30.1256 24.4553 30.6995 22.8735 30.76 21.2881" stroke="#235347" stroke-width="1.24609" stroke-miterlimit="10"/>
<path d="M41.8467 21.4609C41.8467 21.4609 40.3979 22.5412 38.3322 22.5165C36.3141 22.4939 34.0176 21.3084 34.0176 21.3084C34.0176 21.3084 30.1107 21.2752 28.5511 21.2032C26.7133 21.1157 26.3702 18.7643 28.4103 18.436C30.2203 18.1483 33.989 17.5065 33.989 17.5065" stroke="#235347" stroke-width="1.24609" stroke-miterlimit="10"/>
<path d="M22.4237 22.0669L21.1165 21.3784L20.8521 21.5506L21.543 22.6303L20.9884 22.9862L19.2155 20.2103L20.2593 19.5432C20.4777 19.4071 20.681 19.3241 20.8816 19.3045C21.0822 19.2848 21.2584 19.3148 21.4166 19.3915C21.5749 19.4682 21.7059 19.5881 21.8096 19.7512C21.9285 19.9308 21.9798 20.1328 21.9671 20.3477C21.9545 20.5627 21.8598 20.7678 21.6868 20.9535L23.0695 21.6549L22.4237 22.0669ZM20.5855 21.1267L21.0489 20.827C21.199 20.7291 21.2895 20.6189 21.3167 20.506C21.3474 20.3838 21.3149 20.2587 21.2349 20.1315C21.155 20.0044 21.0506 19.9269 20.9341 19.909C20.8148 19.8848 20.6768 19.923 20.5266 20.021L20.0633 20.3207L20.5855 21.1267Z" fill="#235347" stroke="#235347" stroke-width="0.383412" stroke-miterlimit="10"/>
<path d="M23.0267 18.6733C23.1092 18.528 23.2291 18.397 23.3922 18.2932C23.5782 18.1715 23.7838 18.1108 23.9901 18.1041C24.2058 18.1009 24.4065 18.151 24.6072 18.2708C24.8051 18.3842 24.975 18.5565 25.1205 18.7785C25.266 19.0004 25.3475 19.2354 25.3723 19.4648C25.397 19.6941 25.3592 19.9048 25.2681 20.1005C25.1771 20.2961 25.0371 20.4516 24.8481 20.5669C24.685 20.6706 24.5241 20.7269 24.3587 20.7386C24.1934 20.7504 24.0388 20.734 23.8985 20.6803L24.7702 22.0438L24.2156 22.3996L22.1343 19.141L22.6889 18.7852L22.8935 19.1048C22.9027 18.9689 22.9442 18.8186 23.0267 18.6733ZM24.2549 18.8543C24.1405 18.7891 24.0212 18.7648 23.9004 18.7721C23.7796 18.7795 23.6639 18.8156 23.5626 18.884C23.4613 18.9524 23.3816 19.0345 23.3293 19.1431C23.2769 19.2517 23.2526 19.3711 23.2593 19.5077C23.2659 19.6443 23.3143 19.7701 23.3971 19.9037C23.48 20.0373 23.5836 20.1307 23.698 20.1959C23.8124 20.2612 23.9347 20.292 24.0554 20.2846C24.1762 20.2773 24.2855 20.2441 24.3896 20.1821C24.4909 20.1137 24.5706 20.0316 24.6294 19.9201C24.6818 19.8115 24.7061 19.6921 24.6994 19.5555C24.6928 19.4189 24.6416 19.2867 24.5587 19.1531C24.473 19.013 24.3665 18.9132 24.2549 18.8543Z" fill="#235347" stroke="#235347" stroke-width="0.383412" stroke-miterlimit="10"/>
<defs>
<linearGradient id="paint0_linear_2487_4585" x1="28.5" y1="0" x2="28.5" y2="56" gradientUnits="userSpaceOnUse">
<stop stop-color="#E1FFED"/>
<stop offset="1" stop-color="#E1FFED" stop-opacity="0"/>
</linearGradient>
</defs>
</svg>
