<svg width="312" height="105" viewBox="0 0 312 105" fill="none" xmlns="http://www.w3.org/2000/svg">
<g clip-path="url(#clip0_667_37581)">
<g clip-path="url(#clip1_667_37581)">
<path d="M312 0.5H0.610352V105.5H312V0.5Z" fill="#F2F9F3"/>
<g opacity="0.7">
<path d="M303.02 39.51C303.02 39.51 291.69 18.55 268.88 13.7C246.07 8.84999 234.79 20.62 219.53 23.67C204.27 26.72 196.49 9.29999 178.53 22.88C160.57 36.46 154.44 70.54 171.25 80.29C188.06 90.04 204.93 90.44 226.94 87.68C248.94 84.92 260.88 91.51 276.5 91.58C292.1 91.66 314.3 69.18 303.02 39.51Z" fill="#DAF1DE"/>
<path opacity="0.7" d="M303.02 39.51C303.02 39.51 291.69 18.55 268.88 13.7C246.07 8.84999 234.79 20.62 219.53 23.67C204.27 26.72 196.49 9.29999 178.53 22.88C160.57 36.46 154.44 70.54 171.25 80.29C188.06 90.04 204.93 90.44 226.94 87.68C248.94 84.92 260.88 91.51 276.5 91.58C292.1 91.66 314.3 69.18 303.02 39.51Z" fill="#DAF1DE"/>
</g>
<path d="M233.44 68.91C232.45 67.28 227.72 67.31 227.29 68.03C227.29 68.03 229.64 75.63 232.25 74.84C234.87 74.05 233.44 68.91 233.44 68.91Z" fill="#45CE7C"/>
<mask id="mask0_667_37581" style="mask-type:luminance" maskUnits="userSpaceOnUse" x="227" y="67" width="7" height="8">
<path d="M233.44 68.91C232.45 67.28 227.72 67.31 227.29 68.03C227.29 68.03 229.64 75.63 232.25 74.84C234.87 74.05 233.44 68.91 233.44 68.91Z" fill="white"/>
</mask>
<g mask="url(#mask0_667_37581)">
<path opacity="0.3" d="M233.44 68.91C232.45 67.28 227.72 67.31 227.29 68.03C227.29 68.03 229.64 75.63 232.25 74.84C234.87 74.05 233.44 68.91 233.44 68.91Z" fill="black" fill-opacity="0.7"/>
</g>
<path d="M233.44 68.91C232.45 67.28 227.72 67.31 227.29 68.03C227.29 68.03 229.64 75.63 232.25 74.84C234.87 74.05 233.44 68.91 233.44 68.91Z" stroke="#235347" stroke-miterlimit="10" stroke-linecap="round" stroke-linejoin="round"/>
<path d="M227.79 72.78C227.79 72.78 227.29 73.35 227.29 74.21C227.29 74.92 228.641 89.07 232.801 94C233.671 95.03 234.671 95.66 235.801 95.67C239.321 95.71 241.031 92.91 243.271 86.41C243.551 85.6 243.841 84.73 244.141 83.8C246.321 77.09 249.001 63.1 249.001 63.1C249.001 63.1 244.25 64.2 241.43 67.01C240.2 68.23 238.91 71.71 238.09 74.26C237.691 75.51 237.391 76.54 237.271 76.98C237.231 77.12 237.211 77.2 237.211 77.2C237.101 76.78 236.921 76.35 236.711 75.93C236.711 75.92 236.711 75.92 236.701 75.92C236.691 75.91 236.69 75.9 236.68 75.89C235.83 74.25 234.441 72.81 234.441 72.81L233.411 68.91C233.411 68.91 233.051 69.62 231.411 69.87C229.771 70.12 227.271 68.03 227.271 68.03L227.79 72.78Z" fill="#45CE7C"/>
<mask id="mask1_667_37581" style="mask-type:luminance" maskUnits="userSpaceOnUse" x="227" y="63" width="23" height="33">
<path d="M227.79 72.78C227.79 72.78 227.29 73.35 227.29 74.21C227.29 74.92 228.641 89.07 232.801 94C233.671 95.03 234.671 95.66 235.801 95.67C239.321 95.71 241.031 92.91 243.271 86.41C243.551 85.6 243.841 84.73 244.141 83.8C246.321 77.09 249.001 63.1 249.001 63.1C249.001 63.1 244.25 64.2 241.43 67.01C240.2 68.23 238.91 71.71 238.09 74.26C237.691 75.51 237.391 76.54 237.271 76.98C237.231 77.12 237.211 77.2 237.211 77.2C237.101 76.78 236.921 76.35 236.711 75.93C236.711 75.92 236.711 75.92 236.701 75.92C236.691 75.91 236.69 75.9 236.68 75.89C235.83 74.25 234.441 72.81 234.441 72.81L233.411 68.91C233.411 68.91 233.051 69.62 231.411 69.87C229.771 70.12 227.271 68.03 227.271 68.03L227.79 72.78Z" fill="white"/>
</mask>
<g mask="url(#mask1_667_37581)">
<path opacity="0.3" d="M232.811 94.0001C233.681 95.0301 234.681 95.6601 235.811 95.6701C239.331 95.7101 241.041 92.9101 243.281 86.4101L243.231 71.3101C243.231 71.3101 240.581 71.8301 238.101 74.2701C237.701 75.5201 237.401 76.5501 237.281 76.9901C238.271 79.0601 240.001 83.8101 238.021 88.8801C236.731 92.1601 234.631 93.5001 232.811 94.0001Z" fill="black" fill-opacity="0.7"/>
</g>
<path d="M227.79 72.78C227.79 72.78 227.29 73.35 227.29 74.21C227.29 74.92 228.641 89.07 232.801 94C233.671 95.03 234.671 95.66 235.801 95.67C239.321 95.71 241.031 92.91 243.271 86.41C243.551 85.6 243.841 84.73 244.141 83.8C246.321 77.09 249.001 63.1 249.001 63.1C249.001 63.1 244.25 64.2 241.43 67.01C240.2 68.23 238.91 71.71 238.09 74.26C237.69 75.51 237.391 76.54 237.271 76.98C237.231 77.12 237.211 77.2 237.211 77.2C237.101 76.78 236.921 76.35 236.711 75.93C236.711 75.92 236.711 75.92 236.701 75.92C236.691 75.91 236.69 75.9 236.68 75.89C235.83 74.25 234.441 72.81 234.441 72.81L233.411 68.91C233.411 68.91 233.051 69.62 231.411 69.87C229.771 70.12 227.271 68.03 227.271 68.03L227.79 72.78Z" stroke="#235347" stroke-miterlimit="10" stroke-linecap="round" stroke-linejoin="round"/>
<path d="M239 81.8101C239.25 83.1401 239.26 84.5701 238.65 85.8101L239 81.8101Z" fill="#45CE7C"/>
<path d="M239 81.8101C239.25 83.1401 239.26 84.5701 238.65 85.8101" stroke="#235347" stroke-miterlimit="10" stroke-linecap="round" stroke-linejoin="round"/>
<path d="M237.23 77.2C237.93 78.38 238.47 79.67 238.82 80.99" stroke="#235347" stroke-miterlimit="10" stroke-linecap="round" stroke-linejoin="round"/>
<path d="M239.471 78.87C239.471 78.87 238.971 77.5 237.631 77.2L239.471 78.87Z" fill="#45CE7C"/>
<path d="M239.471 78.87C239.471 78.87 238.971 77.5 237.631 77.2" stroke="#235347" stroke-miterlimit="10" stroke-linecap="round" stroke-linejoin="round"/>
<path d="M232.631 73.8801C232.951 73.7101 233.251 73.4901 233.531 73.2501L232.631 73.8801Z" fill="#45CE7C"/>
<path d="M232.631 73.8801C232.951 73.7101 233.251 73.4901 233.531 73.2501" stroke="#235347" stroke-miterlimit="10" stroke-linecap="round" stroke-linejoin="round"/>
<path d="M227.79 72.78C228.84 73.9 230.48 74.64 232 74.15L227.79 72.78Z" fill="#45CE7C"/>
<path d="M227.79 72.78C228.84 73.9 230.48 74.64 232 74.15" stroke="#235347" stroke-miterlimit="10" stroke-linecap="round" stroke-linejoin="round"/>
<path d="M236.7 75.9C236.7 75.9 236.71 75.91 236.72 75.93C236.71 75.91 236.71 75.9 236.7 75.9Z" fill="#45CE7C" stroke="#235347" stroke-miterlimit="10" stroke-linecap="round" stroke-linejoin="round"/>
<path d="M267.8 105.38C267.8 105.38 268.36 100.01 268.72 98.46C270.37 91.49 276.16 75.34 275.23 70.56C274.27 65.65 268.39 61.35 258.91 60.88C250.11 60.44 242.86 63.56 241.13 67.2C239.47 70.67 239.54 94.59 239.96 105.39C239.96 105.39 258.08 105.39 264.12 105.39C266.03 105.38 267.8 105.38 267.8 105.38Z" fill="#45CE7C"/>
<mask id="mask2_667_37581" style="mask-type:luminance" maskUnits="userSpaceOnUse" x="239" y="60" width="37" height="46">
<path d="M267.8 105.38C267.8 105.38 268.36 100.01 268.72 98.46C270.37 91.49 276.16 75.34 275.23 70.56C274.27 65.65 268.39 61.35 258.91 60.88C250.11 60.44 242.86 63.56 241.13 67.2C239.47 70.67 239.54 94.59 239.96 105.39C239.96 105.39 258.08 105.39 264.12 105.39C266.03 105.38 267.8 105.38 267.8 105.38Z" fill="white"/>
</mask>
<g mask="url(#mask2_667_37581)">
<path opacity="0.3" d="M265.87 75.93C261.31 82.19 256.35 91.55 256.35 91.55L242.78 74.6C242.78 74.6 245.89 96.12 247.58 98.45C249.28 100.78 249.2 101.85 249.2 101.85C249.2 101.85 253.5 106.49 256.73 105.86C259.47 105.33 269.31 94.32 272.38 81.57L265.87 75.93Z" fill="black" fill-opacity="0.7"/>
</g>
<path d="M267.8 105.38C267.8 105.38 268.36 100.01 268.72 98.46C270.37 91.49 276.16 75.34 275.23 70.56C274.27 65.65 268.39 61.35 258.91 60.88C250.11 60.44 242.86 63.56 241.13 67.2C239.47 70.67 239.54 94.59 239.96 105.39C239.96 105.39 258.08 105.39 264.12 105.39C266.03 105.38 267.8 105.38 267.8 105.38Z" stroke="#235347" stroke-miterlimit="10" stroke-linecap="round" stroke-linejoin="round"/>
<path d="M262.741 61.83C262.741 61.83 258.011 63.86 252.891 62.18C252.891 62.18 253.551 60.58 253.551 59.25C253.551 58.59 253.391 57.99 252.891 57.71C252.891 57.71 253.121 57.46 253.511 57.05C255.451 55.07 261.341 49.51 263.251 52.83C263.261 52.83 261.251 53.02 262.741 61.83Z" fill="#F9EDCF" stroke="#235347" stroke-miterlimit="10"/>
<path d="M257.391 55.69C257.391 55.69 256.611 58.55 253.551 59.25C253.551 58.59 253.391 57.99 252.891 57.71C252.891 57.71 253.121 57.46 253.511 57.05C255.391 56.32 257.391 55.69 257.391 55.69Z" fill="#1A2E35"/>
<path d="M264.591 48.16C266.621 40.05 262.251 37.27 259.491 36.21C255.071 34.51 249.501 36.44 248.191 40.95C246.881 45.46 248.061 46.48 248.001 48.33C247.961 49.62 247.101 50.26 248.041 53.5C248.661 55.64 249.821 58.1 251.171 58.17C254.821 58.38 258.271 56.3 258.081 55.32" fill="#F9EDCF"/>
<path d="M264.591 48.16C266.621 40.05 262.251 37.27 259.491 36.21C255.071 34.51 249.501 36.44 248.191 40.95C246.881 45.46 248.061 46.48 248.001 48.33C247.961 49.62 247.101 50.26 248.041 53.5C248.661 55.64 249.821 58.1 251.171 58.17C254.821 58.38 258.271 56.3 258.081 55.32" stroke="#235347" stroke-miterlimit="10"/>
<path d="M253.131 44.19C253.131 44.19 254.761 43.62 255.641 45.41" stroke="#235347" stroke-miterlimit="10" stroke-linecap="round" stroke-linejoin="round"/>
<path d="M247.581 43.92C247.581 43.92 248.791 42.89 250.011 44.35" stroke="#235347" stroke-miterlimit="10" stroke-linecap="round" stroke-linejoin="round"/>
<path d="M253.86 48.31C254.087 48.31 254.27 48.0056 254.27 47.63C254.27 47.2545 254.087 46.95 253.86 46.95C253.634 46.95 253.45 47.2545 253.45 47.63C253.45 48.0056 253.634 48.31 253.86 48.31Z" fill="#235347"/>
<path d="M248.791 47.25C248.791 47.63 248.971 47.93 249.191 47.93C249.411 47.93 249.591 47.62 249.591 47.25C249.591 46.87 249.411 46.57 249.191 46.57C248.971 46.57 248.791 46.87 248.791 47.25Z" fill="#235347"/>
<path d="M250.01 45.69C250.01 45.69 250.26 47.57 250.15 47.94C250.04 48.31 248.77 49.45 248.72 49.96C248.67 50.47 249.78 50.98 249.78 50.98" stroke="#235347" stroke-miterlimit="10" stroke-linecap="round" stroke-linejoin="round"/>
<path d="M249.19 52.06C249.19 52.06 251.72 52.7 253.85 52.06C253.85 52.06 252.85 55.21 250.86 54.89C249.55 54.68 249.88 52.61 249.88 52.61L249.19 52.06Z" fill="#235347"/>
<path d="M256.181 39.65C256.181 39.65 255.131 38.93 253.681 39.27C252.221 39.61 251.991 42.68 251.991 42.68C251.991 42.68 251.211 41.99 251.071 41.14L250.611 42.46L249.401 41.31L248.991 42.68L248.511 41.69L247.581 43.51C247.581 43.51 246.181 41.7 246.391 40.29C246.981 36.47 250.011 33.33 256.351 33.66C259.541 33.83 260.731 36.02 260.731 36.02C260.731 36.02 263.851 35.6 265.231 37.22C269.941 42.74 266.991 48.73 262.511 54.41L260.981 49L259.501 48.83C259.501 48.83 259.561 48.01 259.511 47.16C259.461 46.31 258.961 45.07 258.961 45.07L258.411 45.32L258.641 44.28L257.381 44.92C257.381 44.92 257.911 40.66 257.381 39.94C256.841 39.22 256.181 39.65 256.181 39.65Z" fill="#15332A" stroke="#235347" stroke-miterlimit="10"/>
<path d="M260.041 49.58C260.041 49.58 261.521 46.81 263.081 47.48C264.631 48.16 263.551 51.47 262.201 52.55C260.851 53.63 260.041 52.55 260.041 52.55" fill="#F9EDCF"/>
<path d="M260.041 49.58C260.041 49.58 261.521 46.81 263.081 47.48C264.631 48.16 263.551 51.47 262.201 52.55C260.851 53.63 260.041 52.55 260.041 52.55" stroke="#235347" stroke-miterlimit="10"/>
<g opacity="0.2">
<path d="M257.52 38.51C257.52 38.51 256.97 36.96 255.15 36.84C253.33 36.72 252.03 38.69 251.99 40.07" stroke="#235347" stroke-miterlimit="10" stroke-linecap="round" stroke-linejoin="round"/>
<path d="M258.75 38.44C258.75 38.44 259.99 37.48 260.72 38.44C261.94 40.06 260.93 43.96 260.93 43.96" stroke="#235347" stroke-miterlimit="10" stroke-linecap="round" stroke-linejoin="round"/>
<path d="M260.45 37.3C260.45 37.3 261.75 36.5 262.85 38.04C263.96 39.58 263.84 43.31 263.84 43.31" stroke="#235347" stroke-miterlimit="10" stroke-linecap="round" stroke-linejoin="round"/>
<path d="M264.11 37.1C264.11 37.1 266.35 38.05 266.48 42.57" stroke="#235347" stroke-miterlimit="10" stroke-linecap="round" stroke-linejoin="round"/>
<path d="M258.901 37.3001C258.901 37.3001 257.641 35.1601 253.901 35.8701C250.171 36.5901 249.601 40.4101 249.601 40.4101" stroke="#235347" stroke-miterlimit="10" stroke-linecap="round" stroke-linejoin="round"/>
<path d="M259.83 36.65C259.83 36.65 258.33 34.56 253.76 34.98C249.19 35.4 247.35 39.4 247.82 41.31" stroke="#235347" stroke-miterlimit="10" stroke-linecap="round" stroke-linejoin="round"/>
</g>
<path d="M246.28 65.07C245.83 64.25 244.54 64.65 243.04 67.01C241.54 69.37 240.93 72.13 241.29 73.13C241.65 74.13 246.51 75.35 246.51 75.35L247.51 72.81L246.28 65.07Z" fill="#45CE7C"/>
<mask id="mask3_667_37581" style="mask-type:luminance" maskUnits="userSpaceOnUse" x="241" y="64" width="7" height="12">
<path d="M246.28 65.07C245.83 64.25 244.54 64.65 243.04 67.01C241.54 69.37 240.93 72.13 241.29 73.13C241.65 74.13 246.51 75.35 246.51 75.35L247.51 72.81L246.28 65.07Z" fill="white"/>
</mask>
<g mask="url(#mask3_667_37581)">
<path opacity="0.5" d="M246.28 65.07C245.83 64.25 244.54 64.65 243.04 67.01C241.54 69.37 240.93 72.13 241.29 73.13C241.65 74.13 246.51 75.35 246.51 75.35L247.51 72.81L246.28 65.07Z" fill="black" fill-opacity="0.7"/>
</g>
<path d="M246.28 65.07C245.83 64.25 244.54 64.65 243.04 67.01C241.54 69.37 240.93 72.13 241.29 73.13C241.65 74.13 246.51 75.35 246.51 75.35L247.51 72.81L246.28 65.07Z" stroke="#235347" stroke-miterlimit="10" stroke-linecap="round" stroke-linejoin="round"/>
<path d="M218.95 58.06C218.95 58.06 224.39 53.87 226.76 53.44C229.13 53.02 237.28 54.8 237.28 54.8V64.48C237.28 64.48 232.18 65.04 229.89 66.72C227.6 68.4 219.71 68.67 219.71 68.67L218.95 58.06Z" fill="#BFE2C4" stroke="#235347" stroke-miterlimit="10"/>
<path d="M228.601 43.47L235.781 44.94C235.781 44.94 233.711 52.64 233.261 53.61L232.781 60.25C232.781 60.25 228.251 60.3 226.141 59.79C226.141 59.79 227.071 52.85 227.091 51.93C227.101 51.02 228.601 43.47 228.601 43.47Z" fill="#45CE7C" stroke="#235347" stroke-miterlimit="10" stroke-linecap="round" stroke-linejoin="round"/>
<path opacity="0.13" d="M227.651 51.5501L228.861 44.8701C228.861 44.8701 229.361 44.5001 229.601 44.1801L234.711 45.3201C234.711 45.3201 234.671 45.6701 234.981 45.9701L232.951 53.5401L232.451 59.0101C232.451 59.0101 231.791 58.9501 231.751 59.5701C231.751 59.5701 229.141 59.8501 227.321 59.4801C227.321 59.4801 227.231 59.0401 226.881 58.6501L227.651 51.5501Z" fill="black" fill-opacity="0.7"/>
<path d="M228.881 51.85C228.881 51.85 229.241 50.08 230.881 50.31C232.521 50.53 231.721 52.73 231.721 52.73C231.721 52.73 231.831 54.46 230.501 54.29C229.351 54.15 228.711 53.56 228.881 51.85Z" stroke="#235347" stroke-width="0.5" stroke-miterlimit="10" stroke-linecap="round" stroke-linejoin="round"/>
<path d="M229.401 45.41C229.401 45.41 229.021 47.43 228.911 47.82" stroke="#235347" stroke-width="0.5" stroke-miterlimit="10" stroke-linecap="round" stroke-linejoin="round"/>
<path d="M229.83 45.5601L229.61 46.6701" stroke="#235347" stroke-width="0.5" stroke-miterlimit="10" stroke-linecap="round" stroke-linejoin="round"/>
<path d="M233.452 46.13L234.452 46.42L234.362 46.73L234.052 46.75L233.392 46.63L233.452 46.13Z" stroke="#235347" stroke-width="0.25" stroke-miterlimit="10" stroke-linecap="round" stroke-linejoin="round"/>
<path d="M233.331 46.79L234.061 46.98L234.231 47.12L234.101 47.53L233.241 47.29L233.331 46.79Z" stroke="#235347" stroke-width="0.25" stroke-miterlimit="10" stroke-linecap="round" stroke-linejoin="round"/>
<path d="M233.252 47.48L234.102 47.67L234.002 47.98L233.562 48L233.142 47.85L233.252 47.48Z" stroke="#235347" stroke-width="0.25" stroke-miterlimit="10" stroke-linecap="round" stroke-linejoin="round"/>
<path d="M233.151 48.02L233.811 48.26L233.821 48.45L233.671 48.61L233.051 48.47L233.041 48.15L233.151 48.02Z" stroke="#235347" stroke-width="0.25" stroke-miterlimit="10" stroke-linecap="round" stroke-linejoin="round"/>
<path d="M233.751 48.86C233.761 48.96 233.761 49.06 233.771 49.16C233.771 49.23 233.771 49.3 233.721 49.34C233.681 49.37 233.611 49.37 233.561 49.35C233.511 49.33 233.461 49.3 233.411 49.28C233.261 49.23 233.071 49.31 232.931 49.24C232.921 49.06 232.841 48.77 233.071 48.75C233.101 48.75 233.751 48.93 233.751 48.86Z" stroke="#235347" stroke-width="0.25" stroke-miterlimit="10" stroke-linecap="round" stroke-linejoin="round"/>
<path d="M233.521 49.62C233.521 49.69 233.511 49.76 233.491 49.82C233.471 49.91 233.441 50.01 233.351 50.03C233.311 50.04 233.261 50.04 233.211 50.03C233.031 49.99 232.841 49.96 232.661 49.92C232.661 49.92 232.731 49.64 232.741 49.61C232.811 49.5 232.781 49.5 232.911 49.49C233.131 49.47 233.311 49.66 233.521 49.62Z" stroke="#235347" stroke-width="0.25" stroke-miterlimit="10" stroke-linecap="round" stroke-linejoin="round"/>
<path d="M231.461 45.61L231.211 46.91L231.371 46.97L231.701 45.69L231.461 45.61Z" fill="#5AE4A7" stroke="#235347" stroke-width="0.5" stroke-miterlimit="10" stroke-linecap="round" stroke-linejoin="round"/>
<path d="M227.871 54.4401L228.881 54.6401L228.821 54.9601L228.521 55.0001L227.851 54.9401L227.871 54.4401Z" stroke="#235347" stroke-width="0.25" stroke-miterlimit="10" stroke-linecap="round" stroke-linejoin="round"/>
<path d="M227.801 55.11L228.551 55.23L228.721 55.36L228.631 55.78L227.751 55.61L227.801 55.11Z" stroke="#235347" stroke-width="0.25" stroke-miterlimit="10" stroke-linecap="round" stroke-linejoin="round"/>
<path d="M227.781 55.8L228.651 55.92L228.571 56.23L228.131 56.3L227.701 56.18L227.781 55.8Z" stroke="#235347" stroke-width="0.25" stroke-miterlimit="10" stroke-linecap="round" stroke-linejoin="round"/>
<path d="M227.721 56.35L228.401 56.53L228.431 56.72L228.291 56.89L227.671 56.81L227.621 56.48L227.721 56.35Z" stroke="#235347" stroke-width="0.25" stroke-miterlimit="10" stroke-linecap="round" stroke-linejoin="round"/>
<path d="M228.391 57.1301C228.401 57.2301 228.421 57.3301 228.431 57.4301C228.441 57.5001 228.451 57.5701 228.401 57.6201C228.361 57.6601 228.301 57.6601 228.251 57.6401C228.201 57.6201 228.151 57.6001 228.101 57.5801C227.941 57.5401 227.771 57.6401 227.621 57.5801C227.591 57.4001 227.491 57.1201 227.711 57.0801C227.741 57.0801 228.401 57.2001 228.391 57.1301Z" stroke="#235347" stroke-width="0.25" stroke-miterlimit="10" stroke-linecap="round" stroke-linejoin="round"/>
<path d="M228.231 57.9101C228.231 57.9801 228.231 58.0501 228.221 58.1201C228.211 58.2101 228.181 58.3101 228.101 58.3401C228.061 58.3601 228.011 58.3501 227.961 58.3501C227.771 58.3301 227.591 58.3101 227.401 58.2901C227.391 58.2901 227.441 58.0101 227.461 57.9801C227.521 57.8601 227.491 57.8701 227.621 57.8401C227.831 57.7901 228.021 57.9601 228.231 57.9101Z" stroke="#235347" stroke-width="0.25" stroke-miterlimit="10" stroke-linecap="round" stroke-linejoin="round"/>
<path d="M232.28 58.62C232.28 58.62 232.37 56.04 232.35 55.78" stroke="#235347" stroke-width="0.5" stroke-miterlimit="10" stroke-linecap="round" stroke-linejoin="round"/>
<path d="M231.82 58.53C231.82 58.53 231.84 57.19 231.85 56.96" stroke="#235347" stroke-width="0.5" stroke-miterlimit="10" stroke-linecap="round" stroke-linejoin="round"/>
<path d="M229.971 57.67L229.751 59.21L230.061 59.19L230.201 57.66L229.971 57.67Z" stroke="#235347" stroke-width="0.5" stroke-miterlimit="10" stroke-linecap="round" stroke-linejoin="round"/>
<path d="M224.051 55.06C224.051 55.06 224.171 53.83 224.371 53.15C224.561 52.47 225.881 52.54 226.171 52.78C226.471 53.02 226.751 53.44 226.751 53.44C226.751 53.44 226.291 53.57 226.171 53.62C226.041 53.66 225.921 56.12 224.051 55.06Z" fill="#F9EDCF" stroke="#235347" stroke-miterlimit="10"/>
<path d="M218.95 58.06C218.95 58.06 226.84 55.4 228.96 55.01C231.08 54.63 237.28 54.8 237.28 54.8V64.48C237.28 64.48 230.8 66.45 229.8 67.24C228.8 68.03 219.71 68.67 219.71 68.67L218.95 58.06Z" fill="#BFE2C4" stroke="#235347" stroke-miterlimit="10"/>
<path d="M229.71 59.21C229.29 61.45 229.59 64.45 228.11 66.27" stroke="#235347" stroke-miterlimit="10" stroke-linecap="round" stroke-linejoin="round"/>
<path d="M230.4 55.82C230.24 56.55 230.09 57.28 229.94 58.02" stroke="#235347" stroke-miterlimit="10" stroke-linecap="round" stroke-linejoin="round"/>
<path d="M227.43 13.76C229.242 13.76 230.71 12.287 230.71 10.47C230.71 8.65298 229.242 7.17999 227.43 7.17999C225.619 7.17999 224.15 8.65298 224.15 10.47C224.15 12.287 225.619 13.76 227.43 13.76Z" fill="#DAF1DE" stroke="#235347" stroke-width="0.75" stroke-miterlimit="10"/>
<path d="M226.78 11.28L226.41 10.44L226.16 10.41L226.08 11.21L225.75 11.18L225.96 9.19L226.65 9.26C226.8 9.28 226.93 9.32 227.03 9.38C227.13 9.44 227.2 9.52 227.24 9.62C227.28 9.72 227.3 9.82 227.29 9.93C227.28 10.06 227.23 10.17 227.14 10.27C227.05 10.37 226.93 10.43 226.77 10.45L227.17 11.33L226.78 11.28ZM226.18 10.15L226.54 10.19C226.66 10.2 226.76 10.18 226.83 10.13C226.9 10.08 226.94 10 226.95 9.89C226.96 9.79 226.94 9.7 226.88 9.64C226.83 9.58 226.74 9.54 226.61 9.52L226.25 9.48L226.18 10.15Z" fill="#235347"/>
<path d="M228.27 9.89001C228.37 9.85001 228.48 9.84001 228.6 9.85001C228.74 9.86001 228.86 9.91001 228.97 9.99001C229.08 10.07 229.16 10.17 229.21 10.3C229.26 10.43 229.28 10.57 229.26 10.73C229.24 10.89 229.2 11.03 229.12 11.14C229.04 11.26 228.94 11.35 228.82 11.4C228.7 11.46 228.57 11.48 228.43 11.46C228.31 11.45 228.21 11.41 228.12 11.35C228.03 11.29 227.96 11.22 227.91 11.14L227.81 12.12L227.48 12.09L227.72 9.76001L228.05 9.79001L228.03 10.02C228.08 9.98001 228.16 9.93001 228.27 9.89001ZM228.88 10.41C228.84 10.33 228.79 10.26 228.72 10.21C228.65 10.16 228.57 10.13 228.49 10.12C228.41 10.11 228.33 10.12 228.25 10.16C228.17 10.19 228.11 10.25 228.05 10.32C228 10.4 227.96 10.49 227.95 10.6C227.94 10.71 227.95 10.81 227.99 10.89C228.03 10.98 228.08 11.04 228.15 11.09C228.22 11.14 228.29 11.17 228.38 11.18C228.46 11.19 228.54 11.18 228.62 11.14C228.7 11.1 228.76 11.05 228.82 10.97C228.87 10.89 228.91 10.8 228.92 10.69C228.93 10.59 228.92 10.5 228.88 10.41Z" fill="#235347"/>
<path d="M237.713 34.6092C238.625 33.7171 238.575 32.1874 237.602 31.1925C236.628 30.1977 235.1 30.1145 234.188 31.0066C233.276 31.8988 233.326 33.4285 234.299 34.4233C235.273 35.4181 236.801 35.5014 237.713 34.6092Z" fill="#235347"/>
<path d="M237.847 34.4488C238.684 33.6217 238.569 32.1489 237.59 31.1592C236.612 30.1695 235.14 30.0377 234.304 30.8648C233.467 31.6919 233.582 33.1647 234.561 34.1544C235.539 35.1441 237.011 35.2759 237.847 34.4488Z" fill="#DAF1DE" stroke="#235347" stroke-width="0.75" stroke-miterlimit="10"/>
<path d="M236.07 33.2101L235.53 32.9401L235.41 33.0301L235.72 33.4601L235.56 33.5801L234.78 32.5001L235.12 32.2601C235.2 32.2101 235.27 32.1701 235.34 32.1701C235.41 32.1601 235.48 32.1701 235.54 32.2001C235.6 32.2301 235.65 32.2801 235.7 32.3401C235.75 32.4101 235.78 32.4901 235.78 32.5701C235.78 32.6501 235.75 32.7301 235.69 32.8101L236.25 33.0801L236.07 33.2101ZM235.31 32.8901L235.49 32.7601C235.55 32.7201 235.58 32.6701 235.59 32.6101C235.6 32.5501 235.58 32.5001 235.54 32.4401C235.5 32.3801 235.45 32.3501 235.4 32.3401C235.35 32.3301 235.29 32.3501 235.23 32.3901L235.05 32.5201L235.31 32.8901Z" fill="#235347"/>
<path d="M236.13 31.91C236.16 31.85 236.2 31.8 236.26 31.75C236.33 31.7 236.4 31.67 236.49 31.67C236.57 31.67 236.65 31.69 236.73 31.73C236.81 31.77 236.88 31.84 236.94 31.92C237 32 237.04 32.09 237.06 32.19C237.08 32.28 237.07 32.37 237.04 32.44C237.01 32.51 236.96 32.58 236.89 32.63C236.83 32.67 236.77 32.7 236.7 32.7C236.63 32.71 236.57 32.7 236.52 32.68L236.9 33.21L236.74 33.33L235.83 32.07L235.99 31.95L236.08 32.08C236.09 32.03 236.1 31.97 236.13 31.91ZM236.63 31.92C236.58 31.89 236.52 31.88 236.47 31.89C236.42 31.89 236.37 31.91 236.33 31.94C236.29 31.97 236.26 32.01 236.24 32.06C236.22 32.11 236.21 32.16 236.22 32.22C236.23 32.28 236.25 32.34 236.3 32.4C236.35 32.46 236.39 32.5 236.44 32.53C236.49 32.56 236.55 32.57 236.6 32.57C236.65 32.57 236.7 32.55 236.74 32.52C236.78 32.49 236.81 32.45 236.83 32.4C236.85 32.35 236.85 32.3 236.84 32.23C236.83 32.17 236.8 32.11 236.76 32.05C236.74 31.99 236.69 31.94 236.63 31.92Z" fill="#235347"/>
<path d="M225.26 30.2001C225.74 31.5201 225.41 32.7601 221.91 34.1601C218.53 35.5101 216.67 35.0501 216.08 33.5701C215.58 32.3101 217.29 30.5101 219.83 29.5801C222.36 28.6501 224.8 28.9201 225.26 30.2001Z" fill="#235347"/>
<path d="M221.247 33.4979C223.616 32.6268 225.224 31.0719 224.839 30.0248C224.454 28.9777 222.222 28.8349 219.853 29.7059C217.484 30.5769 215.876 32.1319 216.261 33.179C216.646 34.2261 218.878 34.3689 221.247 33.4979Z" fill="#DAF1DE" stroke="#235347" stroke-width="0.75" stroke-miterlimit="10"/>
<path d="M220.04 31.55L220.37 31.15L220.32 31.03L219.9 31.22L219.83 31.07L220.88 30.6L221.02 30.92C221.05 30.99 221.06 31.06 221.06 31.12C221.05 31.18 221.03 31.24 221 31.28C220.97 31.32 220.92 31.36 220.86 31.39C220.79 31.42 220.72 31.43 220.65 31.42C220.58 31.41 220.52 31.37 220.46 31.31L220.13 31.74L220.04 31.55ZM220.45 30.97L220.53 31.14C220.56 31.2 220.59 31.23 220.64 31.25C220.69 31.26 220.74 31.26 220.79 31.24C220.84 31.22 220.88 31.18 220.9 31.14C220.92 31.1 220.91 31.05 220.89 30.99L220.81 30.82L220.45 30.97Z" fill="#235347"/>
<path d="M221.121 31.81C221.171 31.84 221.201 31.89 221.231 31.94C221.261 32 221.271 32.07 221.261 32.14C221.251 32.21 221.221 32.27 221.171 32.33C221.121 32.39 221.051 32.44 220.971 32.48C220.891 32.52 220.801 32.54 220.721 32.54C220.641 32.54 220.571 32.52 220.511 32.48C220.451 32.44 220.401 32.39 220.381 32.33C220.351 32.27 220.351 32.22 220.351 32.16C220.361 32.1 220.371 32.05 220.401 32.01L219.881 32.24L219.811 32.09L221.041 31.54L221.111 31.69L220.991 31.75C221.031 31.75 221.081 31.77 221.121 31.81ZM221.031 32.23C221.061 32.19 221.081 32.15 221.091 32.1C221.101 32.06 221.091 32.01 221.071 31.97C221.051 31.93 221.031 31.9 220.991 31.88C220.951 31.86 220.911 31.84 220.861 31.84C220.811 31.84 220.751 31.85 220.701 31.88C220.641 31.91 220.601 31.94 220.561 31.98C220.531 32.02 220.511 32.06 220.501 32.11C220.491 32.15 220.501 32.2 220.521 32.23C220.541 32.27 220.571 32.3 220.601 32.33C220.641 32.35 220.681 32.37 220.741 32.37C220.791 32.37 220.851 32.36 220.911 32.33C220.951 32.3 220.991 32.27 221.031 32.23Z" fill="#235347"/>
<path d="M248.341 70.02L245.561 63.92C245.561 63.92 243.751 61.32 243.391 60.33C243.031 59.34 239.041 58.57 238.141 58.57C237.241 58.57 237.451 60.18 237.451 60.18H238.161C238.161 60.18 238.861 60.92 238.951 61.36C239.041 61.8 236.471 63.99 236.111 64.2C235.741 64.41 234.781 64.73 233.761 65.49C232.741 66.25 230.441 66.84 230.021 67.52C229.591 68.2 229.891 68.33 230.201 68.48C230.511 68.64 231.021 68.67 231.021 68.67C231.021 68.67 230.841 69.44 231.021 69.85C231.201 70.25 232.271 70.22 232.271 70.22C232.271 70.22 232.321 70.78 232.841 70.87C233.361 70.96 233.761 71.11 233.761 71.11C233.761 71.11 235.971 71.48 236.961 71.27C237.951 71.06 240.951 69.46 241.691 69.52C242.421 69.59 244.451 74.31 244.451 74.31C244.451 74.31 247.901 73.71 248.341 70.02Z" fill="#F9EDCF" stroke="#235347" stroke-miterlimit="10"/>
<path d="M231.001 68.66C231.001 68.66 233.881 68.04 234.071 67.82C234.261 67.6 236.281 66.97 236.281 66.97" stroke="#235347" stroke-miterlimit="10" stroke-linecap="round" stroke-linejoin="round"/>
<path d="M232.251 70.2C232.251 70.2 233.871 69.87 234.431 69.8C234.991 69.73 237.301 68.66 237.301 68.66" stroke="#235347" stroke-miterlimit="10" stroke-linecap="round" stroke-linejoin="round"/>
<path d="M233.741 71.1C233.741 71.1 236.021 70.91 236.501 70.69C236.981 70.47 238.371 70.03 238.371 70.03" stroke="#235347" stroke-miterlimit="10" stroke-linecap="round" stroke-linejoin="round"/>
<path d="M267.431 67.33C264.051 69.56 262.001 74.96 262.001 74.96L256.721 84.8C256.721 84.8 252.281 73.85 251.021 73.71L246.281 65.08C246.281 65.08 246.841 70.14 244.871 72.29C242.891 74.44 241.301 73.14 241.301 73.14L242.771 77.22L243.141 79.16C243.141 79.16 249.371 97.88 251.411 99.04C253.451 100.2 258.081 100.72 262.011 97.84C265.941 94.96 272.661 84.06 273.301 80.49" fill="#45CE7C"/>
<path d="M267.431 67.33C264.051 69.56 262.001 74.96 262.001 74.96L256.721 84.8C256.721 84.8 252.281 73.85 251.021 73.71L246.281 65.08C246.281 65.08 246.841 70.14 244.871 72.29C242.891 74.44 241.301 73.14 241.301 73.14L242.771 77.22L243.141 79.16C243.141 79.16 249.371 97.88 251.411 99.04C253.451 100.2 258.081 100.72 262.011 97.84C265.941 94.96 272.661 84.06 273.301 80.49" stroke="#235347" stroke-miterlimit="10" stroke-linecap="round" stroke-linejoin="round"/>
<path d="M249.12 75C249.29 74.74 249.45 74.48 249.59 74.21" stroke="#235347" stroke-miterlimit="10" stroke-linecap="round" stroke-linejoin="round"/>
<path d="M245.131 77.56C246.491 77.42 247.751 76.71 248.621 75.67" stroke="#235347" stroke-miterlimit="10" stroke-linecap="round" stroke-linejoin="round"/>
<path d="M242.771 77.22C243.301 77.44 243.86 77.57 244.43 77.59" stroke="#235347" stroke-miterlimit="10" stroke-linecap="round" stroke-linejoin="round"/>
<path d="M258.11 89.14C258.13 89.59 258.1 90.04 258 90.48" stroke="#235347" stroke-miterlimit="10" stroke-linecap="round" stroke-linejoin="round"/>
<path d="M256.721 84.8C257.341 85.88 257.811 87.1 258.021 88.33" stroke="#235347" stroke-miterlimit="10" stroke-linecap="round" stroke-linejoin="round"/>
<path d="M259.641 86.56C259.641 86.56 258.681 85.35 257.591 84.8" stroke="#235347" stroke-miterlimit="10" stroke-linecap="round" stroke-linejoin="round"/>
<path d="M267.99 72.28C267.99 72.28 265.02 71.88 262.66 74.6" stroke="#235347" stroke-miterlimit="10" stroke-linecap="round" stroke-linejoin="round"/>
<path d="M271.13 80.61C270.56 80.69 269.98 80.6 269.46 80.34" stroke="#235347" stroke-miterlimit="10" stroke-linecap="round" stroke-linejoin="round"/>
<path d="M274.701 76.61C274.231 78.87 272.971 80.02 271.881 80.41" stroke="#235347" stroke-miterlimit="10" stroke-linecap="round" stroke-linejoin="round"/>
<path d="M260.691 63.77C260.691 63.77 255.761 64.92 253.011 63.08" stroke="#235347" stroke-miterlimit="10" stroke-linecap="round" stroke-linejoin="round"/>
<path d="M243 94.01C243 94.01 245.69 101.61 251.9 102.9" stroke="#235347" stroke-miterlimit="10" stroke-linecap="round" stroke-linejoin="round"/>
<path d="M260.971 104.55C260.651 104.79 260.311 105.01 259.971 105.22" stroke="#235347" stroke-miterlimit="10" stroke-linecap="round" stroke-linejoin="round"/>
<path d="M218.641 11.96V18.64" stroke="#235347" stroke-miterlimit="10" stroke-linecap="round" stroke-linejoin="round"/>
<path d="M218.641 7.95001V10.62" stroke="#235347" stroke-miterlimit="10" stroke-linecap="round" stroke-linejoin="round"/>
<path d="M218.641 5.45001V6.88001" stroke="#235347" stroke-miterlimit="10" stroke-linecap="round" stroke-linejoin="round"/>
<path d="M217.381 17.86L218.641 19.42L219.901 17.86" stroke="#235347" stroke-miterlimit="10" stroke-linecap="round" stroke-linejoin="round"/>
<path d="M221.98 45.43V52.11" stroke="#235347" stroke-miterlimit="10" stroke-linecap="round" stroke-linejoin="round"/>
<path d="M221.98 41.42V44.09" stroke="#235347" stroke-miterlimit="10" stroke-linecap="round" stroke-linejoin="round"/>
<path d="M221.98 38.92V40.35" stroke="#235347" stroke-miterlimit="10" stroke-linecap="round" stroke-linejoin="round"/>
<path d="M220.721 51.33L221.981 52.89L223.241 51.33" stroke="#235347" stroke-miterlimit="10" stroke-linecap="round" stroke-linejoin="round"/>
<path d="M228.57 25.31V31.99" stroke="#235347" stroke-miterlimit="10" stroke-linecap="round" stroke-linejoin="round"/>
<path d="M228.57 21.3V23.97" stroke="#235347" stroke-miterlimit="10" stroke-linecap="round" stroke-linejoin="round"/>
<path d="M228.57 18.8V20.23" stroke="#235347" stroke-miterlimit="10" stroke-linecap="round" stroke-linejoin="round"/>
<path d="M227.311 31.21L228.571 32.78L229.831 31.21" stroke="#235347" stroke-miterlimit="10" stroke-linecap="round" stroke-linejoin="round"/>
<g opacity="0.57">
<path d="M290.45 26.77L273.64 29.38C273.06 29.47 272.52 29.07 272.43 28.5L270.83 18.16C270.74 17.58 271.14 17.04 271.71 16.95L288.52 14.34C289.1 14.25 289.64 14.65 289.73 15.22L291.33 25.56C291.42 26.14 291.03 26.68 290.45 26.77Z" stroke="#235347" stroke-miterlimit="10" stroke-linecap="round" stroke-linejoin="round"/>
<path d="M271.1 19.89L290.01 16.96" stroke="#235347" stroke-miterlimit="10" stroke-linecap="round" stroke-linejoin="round"/>
<path d="M288.748 19.2028L284.617 19.8436L285.542 25.8025L289.672 25.1617L288.748 19.2028Z" stroke="#235347" stroke-width="0.5" stroke-miterlimit="10" stroke-linecap="round" stroke-linejoin="round"/>
<path d="M286.36 20.81C287 20.05 288.06 20.56 287.82 22.94L288.76 23.41L288.85 24.01L285.8 24.48L285.68 23.68L286.83 23.23C286.83 23.24 285.75 21.53 286.36 20.81Z" stroke="#235347" stroke-width="0.5" stroke-miterlimit="10" stroke-linecap="round" stroke-linejoin="round"/>
<path d="M280.09 26.87C280.09 26.87 282.3 26.89 281.66 26.45C281.03 26.01 280.93 25.56 281.47 25.56C282.01 25.55 282.91 26.58 282.84 25.95C282.77 25.33 283.16 25.73 283.23 25.77C283.3 25.81 283.94 25.56 283.97 25.63C284 25.7 283.96 25.91 286.03 25.59" stroke="#235347" stroke-miterlimit="10" stroke-linecap="round" stroke-linejoin="round"/>
<path d="M272.71 21.86L281.97 20.42" stroke="#235347" stroke-miterlimit="10" stroke-linecap="round" stroke-linejoin="round"/>
<path d="M272.87 22.91L278.32 22.07" stroke="#235347" stroke-miterlimit="10" stroke-linecap="round" stroke-linejoin="round"/>
<path d="M273.16 24.77L280.76 23.59" stroke="#235347" stroke-miterlimit="10" stroke-linecap="round" stroke-linejoin="round"/>
<path d="M275.521 17.83L284.801 16.39" stroke="#235347" stroke-miterlimit="10" stroke-linecap="round" stroke-linejoin="round"/>
</g>
<g opacity="0.57">
<path d="M296.51 97.96L279.56 95.01L284.26 66.46L302.37 69.34L296.51 97.96Z" stroke="#235347" stroke-miterlimit="10" stroke-linecap="round" stroke-linejoin="round"/>
<path d="M301.549 73.36L283.689 69.92" stroke="#235347" stroke-miterlimit="10" stroke-linecap="round" stroke-linejoin="round"/>
<path d="M284.8 72.9301L293.34 74.5501" stroke="#235347" stroke-miterlimit="10" stroke-linecap="round" stroke-linejoin="round"/>
<path d="M285.47 74.72L287.94 75.28" stroke="#235347" stroke-miterlimit="10" stroke-linecap="round" stroke-linejoin="round"/>
<path d="M284.079 77.28L296.839 79.65" stroke="#235347" stroke-miterlimit="10" stroke-linecap="round" stroke-linejoin="round"/>
<path d="M299.19 84.88L281.79 81.46" stroke="#235347" stroke-miterlimit="10" stroke-linecap="round" stroke-linejoin="round" stroke-dasharray="1 1"/>
<path d="M285.8 68.04L296.49 69.79" stroke="#235347" stroke-miterlimit="10" stroke-linecap="round" stroke-linejoin="round"/>
<path d="M285.77 68.98L290.75 69.95" stroke="#235347" stroke-miterlimit="10" stroke-linecap="round" stroke-linejoin="round"/>
<path d="M282.909 83.89L291.689 85.43" stroke="#235347" stroke-miterlimit="10" stroke-linecap="round" stroke-linejoin="round"/>
<path d="M282.859 85.96L285.649 86.45" stroke="#235347" stroke-miterlimit="10" stroke-linecap="round" stroke-linejoin="round"/>
<path d="M282.52 87.28L295.29 89.59" stroke="#235347" stroke-miterlimit="10" stroke-linecap="round" stroke-linejoin="round"/>
<path d="M281.239 93.83L284.699 94.41" stroke="#235347" stroke-miterlimit="10" stroke-linecap="round" stroke-linejoin="round"/>
<path d="M292.92 95.73L295.9 96.26" stroke="#235347" stroke-miterlimit="10" stroke-linecap="round" stroke-linejoin="round"/>
<path d="M295.479 94.34C295.209 94.69 294.799 94.91 294.359 94.95" stroke="#235347" stroke-miterlimit="10" stroke-linecap="round" stroke-linejoin="round"/>
<path d="M294.93 92.08C295.59 92.44 295.95 93.25 295.68 93.97" stroke="#235347" stroke-miterlimit="10" stroke-linecap="round" stroke-linejoin="round"/>
<path d="M293.729 92C293.999 91.9 294.279 91.88 294.559 91.95" stroke="#235347" stroke-miterlimit="10" stroke-linecap="round" stroke-linejoin="round"/>
<path d="M293.709 94.85C292.639 94.43 292.419 92.91 293.339 92.21" stroke="#235347" stroke-miterlimit="10" stroke-linecap="round" stroke-linejoin="round"/>
<path d="M291.02 93.39C291.25 93.57 291.47 93.77 291.71 93.93" stroke="#235347" stroke-miterlimit="10" stroke-linecap="round" stroke-linejoin="round"/>
<path d="M288.89 92.35C289.31 91.91 290.35 92.86 290.67 93.11" stroke="#235347" stroke-miterlimit="10" stroke-linecap="round" stroke-linejoin="round"/>
<path d="M290.46 94.55C289.77 94.07 289.07 93.59 288.38 93.12C288.48 92.98 288.56 92.84 288.65 92.69" stroke="#235347" stroke-miterlimit="10" stroke-linecap="round" stroke-linejoin="round"/>
<path d="M291.81 94.44C291.34 94.94 291.36 95.16 290.81 94.78" stroke="#235347" stroke-miterlimit="10" stroke-linecap="round" stroke-linejoin="round"/>
</g>
<g opacity="0.57">
<path d="M184.01 25.07H176.58C176.47 25.07 176.38 24.96 176.42 24.85L177.4 21.58C177.42 21.51 177.49 21.46 177.56 21.46H183.02C183.1 21.46 183.16 21.51 183.18 21.58L184.16 24.85C184.21 24.96 184.13 25.07 184.01 25.07Z" stroke="#235347" stroke-miterlimit="10"/>
<path d="M180.01 28.93H172.58C172.47 28.93 172.38 28.82 172.42 28.71L173.4 25.44C173.42 25.37 173.49 25.32 173.56 25.32H179.02C179.1 25.32 179.16 25.37 179.18 25.44L180.16 28.71C180.21 28.82 180.13 28.93 180.01 28.93Z" stroke="#235347" stroke-miterlimit="10"/>
<path d="M187.899 28.93H180.469C180.359 28.93 180.269 28.82 180.309 28.71L181.289 25.44C181.309 25.37 181.379 25.32 181.449 25.32H186.909C186.989 25.32 187.049 25.37 187.069 25.44L188.049 28.71C188.089 28.82 188.009 28.93 187.899 28.93Z" stroke="#235347" stroke-miterlimit="10"/>
<path d="M191.779 25.11H184.349C184.239 25.11 184.149 25 184.189 24.89L185.169 21.62C185.189 21.55 185.259 21.5 185.329 21.5H190.789C190.869 21.5 190.929 21.55 190.949 21.62L191.929 24.89C191.979 25 191.899 25.11 191.779 25.11Z" stroke="#235347" stroke-miterlimit="10"/>
<path d="M195.67 28.93H188.24C188.13 28.93 188.04 28.82 188.08 28.71L189.06 25.44C189.08 25.37 189.15 25.32 189.22 25.32H194.68C194.76 25.32 194.82 25.37 194.84 25.44L195.82 28.71C195.86 28.82 195.78 28.93 195.67 28.93Z" stroke="#235347" stroke-miterlimit="10"/>
<path d="M187.91 21.24H180.48C180.37 21.24 180.28 21.13 180.32 21.02L181.3 17.75C181.32 17.68 181.39 17.63 181.46 17.63H186.92C187 17.63 187.06 17.68 187.08 17.75L188.06 21.02C188.11 21.13 188.03 21.24 187.91 21.24Z" stroke="#235347" stroke-miterlimit="10"/>
</g>
<g opacity="0.57">
<path d="M208.55 99.37L201.77 102.62C200.85 103.06 199.74 102.67 199.29 101.74L191.89 86.24C191.45 85.31 191.84 84.2 192.76 83.76L199.54 80.51C200.46 80.07 201.57 80.46 202.02 81.39L209.42 96.89C209.87 97.82 209.48 98.93 208.55 99.37Z" stroke="#235347" stroke-miterlimit="10" stroke-linecap="round" stroke-linejoin="round"/>
<path opacity="0.58" d="M204.06 87.52L195.22 91.76L192.38 85.81C192.15 85.33 192.35 84.76 192.83 84.53L199.95 81.12C200.43 80.89 201 81.09 201.22 81.57L204.06 87.52Z" fill="#DAF1DE"/>
<path opacity="0.46" d="M198.33 86.93C198.01 87.08 197.69 87.23 197.38 87.39C197.35 87.4 197.33 87.4 197.31 87.38C196.82 86.87 196.34 86.35 195.85 85.84C195.83 85.82 195.83 85.8 195.84 85.78C196.18 85.16 196.51 84.54 196.85 83.92C196.87 83.89 196.88 83.88 196.92 83.88C197.61 84.01 198.31 84.14 199 84.26C199.02 84.26 199.04 84.27 199.04 84.3C199.13 84.99 199.22 85.67 199.31 86.36C199.32 86.45 199.32 86.45 199.24 86.49C198.95 86.63 198.64 86.78 198.33 86.93Z" stroke="#235347" stroke-miterlimit="10" stroke-linecap="round" stroke-linejoin="round"/>
<path d="M198.48 90.79L199.09 90.5L199.15 90.62L198.68 90.84L198.86 91.22L199.29 91.01L199.35 91.13L198.92 91.34L199.17 91.86L199.02 91.93L198.48 90.79Z" fill="#235347"/>
<path d="M199.451 90.32L200.001 91.46L199.851 91.53L199.301 90.39L199.451 90.32Z" fill="#235347"/>
<path d="M200.25 91.34L199.7 90.2L199.86 90.12L200.5 90.52C200.65 90.61 200.77 90.7 200.88 90.79C200.79 90.64 200.72 90.51 200.64 90.33L200.41 89.85L200.55 89.78L201.1 90.92L200.95 90.99L200.31 90.58C200.17 90.49 200.03 90.4 199.92 90.3C200 90.44 200.06 90.58 200.16 90.77L200.39 91.26L200.25 91.34Z" fill="#235347"/>
<path d="M201.7 89.99L201.26 90.2L201.46 90.61L201.95 90.37L202.01 90.49L201.37 90.8L200.82 89.66L201.44 89.36L201.5 89.48L201.03 89.7L201.2 90.06L201.64 89.85L201.7 89.99Z" fill="#235347"/>
<path d="M199.92 93.85C199.85 93.93 199.69 94.07 199.48 94.17C199.24 94.28 199.02 94.32 198.79 94.24C198.59 94.17 198.41 94 198.29 93.76C198.07 93.29 198.23 92.79 198.75 92.54C198.93 92.45 199.1 92.42 199.18 92.42L199.21 92.61C199.11 92.61 198.99 92.63 198.83 92.71C198.45 92.89 198.31 93.25 198.5 93.65C198.69 94.05 199.04 94.17 199.41 94C199.54 93.94 199.63 93.87 199.66 93.83L199.44 93.36L199.12 93.5L199.04 93.34L199.56 93.09L199.92 93.85Z" fill="#235347"/>
<path d="M201.22 92.32C201.48 92.86 201.29 93.31 200.89 93.5C200.47 93.7 200.03 93.51 199.8 93.04C199.56 92.54 199.71 92.06 200.13 91.86C200.56 91.66 201 91.85 201.22 92.32ZM200.01 92.93C200.17 93.27 200.5 93.48 200.82 93.33C201.14 93.18 201.18 92.79 201.01 92.43C200.86 92.11 200.54 91.86 200.2 92.03C199.86 92.19 199.85 92.59 200.01 92.93Z" fill="#235347"/>
<path d="M201.12 91.42L201.33 91.32L202 92.73L202.67 92.41L202.75 92.58L201.87 93L201.12 91.42Z" fill="#235347"/>
<path d="M202.23 90.92C202.34 90.84 202.48 90.75 202.65 90.68C202.94 90.54 203.18 90.51 203.38 90.57C203.58 90.63 203.75 90.77 203.87 91.03C203.99 91.29 204.01 91.54 203.94 91.75C203.86 91.97 203.66 92.17 203.35 92.31C203.2 92.38 203.08 92.43 202.97 92.47L202.23 90.92ZM203.1 92.22C203.15 92.2 203.23 92.17 203.31 92.13C203.75 91.92 203.86 91.57 203.66 91.14C203.48 90.77 203.16 90.63 202.73 90.84C202.62 90.89 202.55 90.94 202.5 90.98L203.1 92.22Z" fill="#235347"/>
<path d="M200.54 95.84C200.57 95.83 200.61 95.81 200.66 95.78C200.74 95.73 200.81 95.65 200.84 95.56C200.88 95.46 200.89 95.34 200.85 95.2C200.82 95.3 200.76 95.39 200.64 95.44C200.44 95.53 200.24 95.45 200.15 95.26C200.05 95.05 200.11 94.79 200.34 94.68C200.57 94.57 200.79 94.69 200.93 94.97C201.05 95.21 201.05 95.42 200.99 95.58C200.94 95.7 200.85 95.81 200.74 95.88C200.69 95.91 200.64 95.94 200.61 95.95L200.54 95.84ZM200.29 95.18C200.36 95.32 200.49 95.38 200.62 95.31C200.72 95.26 200.78 95.17 200.78 95.09C200.78 95.07 200.78 95.05 200.77 95.03C200.68 94.84 200.54 94.73 200.38 94.8C200.25 94.86 200.21 95.02 200.29 95.18Z" fill="#235347"/>
<path d="M201.41 95.42C201.44 95.41 201.48 95.39 201.53 95.36C201.61 95.31 201.68 95.23 201.71 95.14C201.75 95.04 201.76 94.92 201.72 94.78C201.69 94.88 201.63 94.97 201.51 95.02C201.31 95.11 201.11 95.03 201.02 94.84C200.92 94.63 200.98 94.37 201.21 94.26C201.44 94.15 201.66 94.27 201.8 94.55C201.92 94.79 201.92 95 201.86 95.16C201.81 95.28 201.72 95.39 201.61 95.46C201.56 95.49 201.51 95.52 201.48 95.53L201.41 95.42ZM201.16 94.76C201.23 94.9 201.36 94.96 201.49 94.89C201.59 94.84 201.65 94.75 201.65 94.67C201.65 94.65 201.65 94.63 201.64 94.61C201.55 94.42 201.41 94.31 201.25 94.38C201.12 94.44 201.09 94.6 201.16 94.76Z" fill="#235347"/>
<path d="M202.29 95C202.32 94.99 202.36 94.97 202.41 94.94C202.49 94.89 202.56 94.81 202.59 94.72C202.63 94.62 202.64 94.5 202.6 94.36C202.57 94.46 202.51 94.55 202.39 94.6C202.19 94.69 201.99 94.61 201.9 94.42C201.8 94.21 201.86 93.95 202.09 93.84C202.32 93.73 202.54 93.85 202.68 94.13C202.8 94.37 202.8 94.58 202.74 94.74C202.69 94.86 202.6 94.97 202.49 95.04C202.44 95.07 202.39 95.1 202.36 95.11L202.29 95ZM202.04 94.34C202.11 94.48 202.24 94.54 202.37 94.47C202.47 94.42 202.53 94.33 202.53 94.25C202.53 94.23 202.53 94.21 202.52 94.19C202.43 94 202.29 93.89 202.13 93.96C202 94.02 201.96 94.18 202.04 94.34Z" fill="#235347"/>
<path d="M203.18 94.96C203.17 94.84 203.13 94.63 203.09 94.5L203.25 94.4C203.28 94.56 203.29 94.79 203.28 94.89L203.18 94.96Z" fill="#235347"/>
<path d="M203.52 94.41C203.55 94.4 203.59 94.38 203.64 94.35C203.72 94.3 203.79 94.22 203.82 94.13C203.86 94.03 203.87 93.91 203.83 93.77H203.82C203.79 93.87 203.73 93.96 203.61 94.01C203.41 94.1 203.21 94.02 203.12 93.83C203.02 93.62 203.08 93.36 203.31 93.25C203.54 93.14 203.76 93.26 203.9 93.54C204.02 93.78 204.02 93.99 203.96 94.15C203.91 94.27 203.82 94.38 203.71 94.45C203.66 94.48 203.61 94.51 203.58 94.52L203.52 94.41ZM203.27 93.75C203.34 93.89 203.47 93.95 203.6 93.88C203.7 93.83 203.76 93.74 203.76 93.66C203.76 93.64 203.76 93.62 203.75 93.6C203.66 93.41 203.52 93.3 203.36 93.37C203.23 93.43 203.19 93.59 203.27 93.75Z" fill="#235347"/>
<path d="M202.06 98.95L201.88 99.2L201.78 99.07L202.01 98.76L202.17 98.68L202.83 100.07L202.65 100.16L202.06 98.95Z" fill="#235347"/>
<path d="M203.65 98.8C203.88 99.27 203.82 99.62 203.52 99.76C203.25 99.89 202.94 99.72 202.72 99.27C202.5 98.8 202.58 98.45 202.86 98.32C203.15 98.18 203.44 98.36 203.65 98.8ZM202.91 99.18C203.08 99.54 203.29 99.69 203.46 99.61C203.65 99.52 203.63 99.25 203.47 98.9C203.31 98.56 203.11 98.37 202.92 98.47C202.75 98.55 202.73 98.81 202.91 99.18Z" fill="#235347"/>
<path d="M204.75 98.28C204.98 98.75 204.92 99.1 204.62 99.24C204.35 99.37 204.04 99.2 203.82 98.75C203.6 98.28 203.68 97.93 203.96 97.8C204.24 97.65 204.54 97.83 204.75 98.28ZM204.01 98.66C204.18 99.02 204.39 99.17 204.56 99.09C204.75 99 204.73 98.73 204.57 98.38C204.41 98.04 204.21 97.85 204.02 97.95C203.85 98.02 203.83 98.28 204.01 98.66Z" fill="#235347"/>
<path d="M206.19 98.27C206.3 98.51 206.32 98.68 206.27 98.82C206.21 98.96 206.08 99.06 205.95 99.12C205.83 99.18 205.68 99.21 205.57 99.2L205.55 99.03C205.64 99.04 205.76 99.03 205.89 98.97C206.08 98.88 206.17 98.71 206.05 98.45L206 98.34C205.99 98.46 205.91 98.59 205.75 98.67C205.49 98.79 205.21 98.66 205.07 98.38C204.9 98.03 205.04 97.72 205.28 97.61C205.46 97.52 205.6 97.57 205.69 97.63L205.62 97.47L205.79 97.39C205.82 97.47 205.86 97.55 205.92 97.68L206.19 98.27ZM205.77 97.89C205.75 97.86 205.74 97.83 205.72 97.81C205.63 97.72 205.5 97.67 205.36 97.73C205.18 97.82 205.13 98.03 205.24 98.27C205.34 98.47 205.52 98.59 205.72 98.5C205.84 98.44 205.91 98.32 205.89 98.18C205.89 98.14 205.87 98.1 205.86 98.07L205.77 97.89Z" fill="#235347"/>
</g>
<path d="M31.746 43.432C31.746 44.164 31.578 44.836 31.242 45.448C30.906 46.048 30.39 46.534 29.694 46.906C28.998 47.278 28.134 47.464 27.102 47.464H25.194V52H22.116V39.364H27.102C28.11 39.364 28.962 39.538 29.658 39.886C30.354 40.234 30.876 40.714 31.224 41.326C31.572 41.938 31.746 42.64 31.746 43.432ZM26.868 45.016C27.456 45.016 27.894 44.878 28.182 44.602C28.47 44.326 28.614 43.936 28.614 43.432C28.614 42.928 28.47 42.538 28.182 42.262C27.894 41.986 27.456 41.848 26.868 41.848H25.194V45.016H26.868ZM36.4264 39.364V52H33.3484V39.364H36.4264ZM49.961 52H46.883L41.735 44.206V52H38.657V39.364H41.735L46.883 47.194V39.364H49.961V52ZM60.1122 39.364V47.968C60.1122 49.3 59.7342 50.326 58.9782 51.046C58.2342 51.766 57.2262 52.126 55.9542 52.126C54.6222 52.126 53.5542 51.748 52.7502 50.992C51.9462 50.236 51.5442 49.162 51.5442 47.77H54.6042C54.6042 48.298 54.7122 48.7 54.9282 48.976C55.1442 49.24 55.4562 49.372 55.8642 49.372C56.2362 49.372 56.5242 49.252 56.7282 49.012C56.9322 48.772 57.0342 48.424 57.0342 47.968V39.364H60.1122ZM70.4644 49.768H65.7484L64.9924 52H61.7704L66.3424 39.364H69.9064L74.4784 52H71.2204L70.4644 49.768ZM69.6724 47.392L68.1064 42.766L66.5584 47.392H69.6724ZM90.1799 39.364V52H87.1019V44.422L84.2759 52H81.7919L78.9479 44.404V52H75.8699V39.364H79.5059L83.0519 48.112L86.5619 39.364H90.1799ZM100.259 49.768H95.5433L94.7873 52H91.5653L96.1373 39.364H99.7013L104.273 52H101.015L100.259 49.768ZM99.4673 47.392L97.9013 42.766L96.3533 47.392H99.4673ZM116.969 52H113.891L108.743 44.206V52H105.665V39.364H108.743L113.891 47.194V39.364H116.969V52ZM127.748 39.364C129.08 39.364 130.244 39.628 131.24 40.156C132.236 40.684 133.004 41.428 133.544 42.388C134.096 43.336 134.372 44.434 134.372 45.682C134.372 46.918 134.096 48.016 133.544 48.976C133.004 49.936 132.23 50.68 131.222 51.208C130.226 51.736 129.068 52 127.748 52H123.014V39.364H127.748ZM127.55 49.336C128.714 49.336 129.62 49.018 130.268 48.382C130.916 47.746 131.24 46.846 131.24 45.682C131.24 44.518 130.916 43.612 130.268 42.964C129.62 42.316 128.714 41.992 127.55 41.992H126.092V49.336H127.55ZM143.959 49.768H139.243L138.487 52H135.265L139.837 39.364H143.401L147.973 52H144.715L143.959 49.768ZM143.167 47.392L141.601 42.766L140.053 47.392H143.167ZM160.668 52H157.59L152.442 44.206V52H149.364V39.364H152.442L157.59 47.194V39.364H160.668V52ZM170.765 49.768H166.049L165.293 52H162.071L166.643 39.364H170.207L174.779 52H171.521L170.765 49.768ZM169.973 47.392L168.407 42.766L166.859 47.392H169.973Z" fill="#235347"/>
<path d="M26.811 64.177C27.2963 64.2637 27.708 64.5193 28.046 64.944C28.384 65.3687 28.553 65.8497 28.553 66.387C28.553 66.8463 28.4317 67.2623 28.189 67.635C27.955 67.999 27.6127 68.2893 27.162 68.506C26.7113 68.714 26.187 68.818 25.589 68.818H21.975V59.783H25.42C26.0353 59.783 26.564 59.887 27.006 60.095C27.448 60.303 27.7817 60.5847 28.007 60.94C28.2323 61.2867 28.345 61.6767 28.345 62.11C28.345 62.63 28.2063 63.0633 27.929 63.41C27.6517 63.7567 27.279 64.0123 26.811 64.177ZM23.457 63.579H25.29C25.7753 63.579 26.1523 63.4707 26.421 63.254C26.6983 63.0287 26.837 62.708 26.837 62.292C26.837 61.8847 26.6983 61.5683 26.421 61.343C26.1523 61.109 25.7753 60.992 25.29 60.992H23.457V63.579ZM25.459 67.609C25.9617 67.609 26.356 67.4877 26.642 67.245C26.928 67.0023 27.071 66.6643 27.071 66.231C27.071 65.789 26.9193 65.438 26.616 65.178C26.3127 64.918 25.9097 64.788 25.407 64.788H23.457V67.609H25.459ZM36.7285 65.061C36.7285 65.3297 36.7111 65.5723 36.6765 65.789H31.2035C31.2468 66.361 31.4591 66.8203 31.8405 67.167C32.2218 67.5137 32.6898 67.687 33.2445 67.687C34.0418 67.687 34.6051 67.3533 34.9345 66.686H36.5335C36.3168 67.3447 35.9225 67.8863 35.3505 68.311C34.7871 68.727 34.0851 68.935 33.2445 68.935C32.5598 68.935 31.9445 68.7833 31.3985 68.48C30.8611 68.168 30.4365 67.7347 30.1245 67.18C29.8211 66.6167 29.6695 65.9667 29.6695 65.23C29.6695 64.4933 29.8168 63.8477 30.1115 63.293C30.4148 62.7297 30.8351 62.2963 31.3725 61.993C31.9185 61.6897 32.5425 61.538 33.2445 61.538C33.9205 61.538 34.5228 61.6853 35.0515 61.98C35.5801 62.2747 35.9918 62.6907 36.2865 63.228C36.5811 63.7567 36.7285 64.3677 36.7285 65.061ZM35.1815 64.593C35.1728 64.047 34.9778 63.6093 34.5965 63.28C34.2151 62.9507 33.7428 62.786 33.1795 62.786C32.6681 62.786 32.2305 62.9507 31.8665 63.28C31.5025 63.6007 31.2858 64.0383 31.2165 64.593H35.1815ZM39.6689 62.695C39.8856 62.331 40.1716 62.0493 40.5269 61.85C40.8909 61.642 41.3199 61.538 41.8139 61.538V63.072H41.4369C40.8562 63.072 40.4142 63.2193 40.1109 63.514C39.8162 63.8087 39.6689 64.32 39.6689 65.048V68.818H38.1869V61.655H39.6689V62.695ZM42.6822 65.204C42.6822 64.4847 42.8295 63.8477 43.1242 63.293C43.4275 62.7383 43.8348 62.3093 44.3462 62.006C44.8662 61.694 45.4382 61.538 46.0622 61.538C46.6255 61.538 47.1152 61.6507 47.5312 61.876C47.9558 62.0927 48.2938 62.3657 48.5452 62.695V61.655H50.0402V68.818H48.5452V67.752C48.2938 68.09 47.9515 68.3717 47.5182 68.597C47.0848 68.8223 46.5908 68.935 46.0362 68.935C45.4208 68.935 44.8575 68.779 44.3462 68.467C43.8348 68.1463 43.4275 67.7043 43.1242 67.141C42.8295 66.569 42.6822 65.9233 42.6822 65.204ZM48.5452 65.23C48.5452 64.736 48.4412 64.307 48.2332 63.943C48.0338 63.579 47.7695 63.3017 47.4402 63.111C47.1108 62.9203 46.7555 62.825 46.3742 62.825C45.9928 62.825 45.6375 62.9203 45.3082 63.111C44.9788 63.293 44.7102 63.566 44.5022 63.93C44.3028 64.2853 44.2032 64.71 44.2032 65.204C44.2032 65.698 44.3028 66.1313 44.5022 66.504C44.7102 66.8767 44.9788 67.1627 45.3082 67.362C45.6462 67.5527 46.0015 67.648 46.3742 67.648C46.7555 67.648 47.1108 67.5527 47.4402 67.362C47.7695 67.1713 48.0338 66.894 48.2332 66.53C48.4412 66.1573 48.5452 65.724 48.5452 65.23ZM54.8727 61.538C55.4274 61.538 55.9171 61.6507 56.3417 61.876C56.7751 62.0927 57.1131 62.3657 57.3557 62.695V61.655H58.8507V68.935C58.8507 69.5937 58.7121 70.1787 58.4347 70.69C58.1574 71.21 57.7544 71.6173 57.2257 71.912C56.7057 72.2067 56.0817 72.354 55.3537 72.354C54.3831 72.354 53.5771 72.1243 52.9357 71.665C52.2944 71.2143 51.9304 70.599 51.8437 69.819H53.3127C53.4254 70.1917 53.6637 70.4907 54.0277 70.716C54.4004 70.95 54.8424 71.067 55.3537 71.067C55.9517 71.067 56.4327 70.885 56.7967 70.521C57.1694 70.157 57.3557 69.6283 57.3557 68.935V67.739C57.1044 68.077 56.7621 68.363 56.3287 68.597C55.9041 68.8223 55.4187 68.935 54.8727 68.935C54.2487 68.935 53.6767 68.779 53.1567 68.467C52.6454 68.1463 52.2381 67.7043 51.9347 67.141C51.6401 66.569 51.4927 65.9233 51.4927 65.204C51.4927 64.4847 51.6401 63.8477 51.9347 63.293C52.2381 62.7383 52.6454 62.3093 53.1567 62.006C53.6767 61.694 54.2487 61.538 54.8727 61.538ZM57.3557 65.23C57.3557 64.736 57.2517 64.307 57.0437 63.943C56.8444 63.579 56.5801 63.3017 56.2507 63.111C55.9214 62.9203 55.5661 62.825 55.1847 62.825C54.8034 62.825 54.4481 62.9203 54.1187 63.111C53.7894 63.293 53.5207 63.566 53.3127 63.93C53.1134 64.2853 53.0137 64.71 53.0137 65.204C53.0137 65.698 53.1134 66.1313 53.3127 66.504C53.5207 66.8767 53.7894 67.1627 54.1187 67.362C54.4567 67.5527 54.8121 67.648 55.1847 67.648C55.5661 67.648 55.9214 67.5527 56.2507 67.362C56.5801 67.1713 56.8444 66.894 57.0437 66.53C57.2517 66.1573 57.3557 65.724 57.3557 65.23ZM67.2843 61.655V68.818H65.8023V67.973C65.5683 68.2677 65.2606 68.5017 64.8793 68.675C64.5066 68.8397 64.1079 68.922 63.6833 68.922C63.1199 68.922 62.6129 68.805 62.1623 68.571C61.7203 68.337 61.3693 67.9903 61.1093 67.531C60.8579 67.0717 60.7323 66.517 60.7323 65.867V61.655H62.2013V65.646C62.2013 66.2873 62.3616 66.7813 62.6823 67.128C63.0029 67.466 63.4406 67.635 63.9953 67.635C64.5499 67.635 64.9876 67.466 65.3083 67.128C65.6376 66.7813 65.8023 66.2873 65.8023 65.646V61.655H67.2843ZM72.8536 61.538C73.417 61.538 73.9196 61.655 74.3616 61.889C74.8123 62.123 75.1633 62.4697 75.4146 62.929C75.666 63.3883 75.7916 63.943 75.7916 64.593V68.818H74.3226V64.814C74.3226 64.1727 74.1623 63.683 73.8416 63.345C73.521 62.9983 73.0833 62.825 72.5286 62.825C71.974 62.825 71.532 62.9983 71.2026 63.345C70.882 63.683 70.7216 64.1727 70.7216 64.814V68.818H69.2396V61.655H70.7216V62.474C70.9643 62.1793 71.272 61.9497 71.6446 61.785C72.026 61.6203 72.429 61.538 72.8536 61.538ZM77.188 65.204C77.188 64.4847 77.3354 63.8477 77.63 63.293C77.9334 62.7383 78.3407 62.3093 78.852 62.006C79.372 61.694 79.944 61.538 80.568 61.538C81.1314 61.538 81.621 61.6507 82.037 61.876C82.4617 62.0927 82.7997 62.3657 83.051 62.695V61.655H84.546V68.818H83.051V67.752C82.7997 68.09 82.4574 68.3717 82.024 68.597C81.5907 68.8223 81.0967 68.935 80.542 68.935C79.9267 68.935 79.3634 68.779 78.852 68.467C78.3407 68.1463 77.9334 67.7043 77.63 67.141C77.3354 66.569 77.188 65.9233 77.188 65.204ZM83.051 65.23C83.051 64.736 82.947 64.307 82.739 63.943C82.5397 63.579 82.2754 63.3017 81.946 63.111C81.6167 62.9203 81.2614 62.825 80.88 62.825C80.4987 62.825 80.1434 62.9203 79.814 63.111C79.4847 63.293 79.216 63.566 79.008 63.93C78.8087 64.2853 78.709 64.71 78.709 65.204C78.709 65.698 78.8087 66.1313 79.008 66.504C79.216 66.8767 79.4847 67.1627 79.814 67.362C80.152 67.5527 80.5074 67.648 80.88 67.648C81.2614 67.648 81.6167 67.5527 81.946 67.362C82.2754 67.1713 82.5397 66.894 82.739 66.53C82.947 66.1573 83.051 65.724 83.051 65.23ZM90.1066 61.538C90.6699 61.538 91.1726 61.655 91.6146 61.889C92.0652 62.123 92.4162 62.4697 92.6676 62.929C92.9189 63.3883 93.0446 63.943 93.0446 64.593V68.818H91.5756V64.814C91.5756 64.1727 91.4152 63.683 91.0946 63.345C90.7739 62.9983 90.3362 62.825 89.7816 62.825C89.2269 62.825 88.7849 62.9983 88.4556 63.345C88.1349 63.683 87.9746 64.1727 87.9746 64.814V68.818H86.4926V61.655H87.9746V62.474C88.2172 62.1793 88.5249 61.9497 88.8976 61.785C89.2789 61.6203 89.6819 61.538 90.1066 61.538ZM99.7939 60.979V63.631H102.914V64.84H99.7939V67.609H103.304V68.818H98.3119V59.77H103.304V60.979H99.7939ZM113.8 61.538C114.364 61.538 114.866 61.655 115.308 61.889C115.759 62.123 116.11 62.4697 116.361 62.929C116.621 63.3883 116.751 63.943 116.751 64.593V68.818H115.282V64.814C115.282 64.1727 115.122 63.683 114.801 63.345C114.481 62.9983 114.043 62.825 113.488 62.825C112.934 62.825 112.492 62.9983 112.162 63.345C111.842 63.683 111.681 64.1727 111.681 64.814V68.818H110.212V64.814C110.212 64.1727 110.052 63.683 109.731 63.345C109.411 62.9983 108.973 62.825 108.418 62.825C107.864 62.825 107.422 62.9983 107.092 63.345C106.772 63.683 106.611 64.1727 106.611 64.814V68.818H105.129V61.655H106.611V62.474C106.854 62.1793 107.162 61.9497 107.534 61.785C107.907 61.6203 108.306 61.538 108.73 61.538C109.302 61.538 109.814 61.6593 110.264 61.902C110.715 62.1447 111.062 62.4957 111.304 62.955C111.521 62.5217 111.859 62.1793 112.318 61.928C112.778 61.668 113.272 61.538 113.8 61.538ZM118.143 65.204C118.143 64.4847 118.29 63.8477 118.585 63.293C118.888 62.7383 119.296 62.3093 119.807 62.006C120.327 61.694 120.899 61.538 121.523 61.538C122.086 61.538 122.576 61.6507 122.992 61.876C123.417 62.0927 123.755 62.3657 124.006 62.695V61.655H125.501V68.818H124.006V67.752C123.755 68.09 123.412 68.3717 122.979 68.597C122.546 68.8223 122.052 68.935 121.497 68.935C120.882 68.935 120.318 68.779 119.807 68.467C119.296 68.1463 118.888 67.7043 118.585 67.141C118.29 66.569 118.143 65.9233 118.143 65.204ZM124.006 65.23C124.006 64.736 123.902 64.307 123.694 63.943C123.495 63.579 123.23 63.3017 122.901 63.111C122.572 62.9203 122.216 62.825 121.835 62.825C121.454 62.825 121.098 62.9203 120.769 63.111C120.44 63.293 120.171 63.566 119.963 63.93C119.764 64.2853 119.664 64.71 119.664 65.204C119.664 65.698 119.764 66.1313 119.963 66.504C120.171 66.8767 120.44 67.1627 120.769 67.362C121.107 67.5527 121.462 67.648 121.835 67.648C122.216 67.648 122.572 67.5527 122.901 67.362C123.23 67.1713 123.495 66.894 123.694 66.53C123.902 66.1573 124.006 65.724 124.006 65.23ZM130.048 68.935C129.484 68.935 128.977 68.8353 128.527 68.636C128.085 68.428 127.734 68.1507 127.474 67.804C127.214 67.4487 127.075 67.0543 127.058 66.621H128.592C128.618 66.9243 128.761 67.18 129.021 67.388C129.289 67.5873 129.623 67.687 130.022 67.687C130.438 67.687 130.758 67.609 130.984 67.453C131.218 67.2883 131.335 67.0803 131.335 66.829C131.335 66.5603 131.205 66.361 130.945 66.231C130.693 66.101 130.29 65.958 129.736 65.802C129.198 65.6547 128.761 65.5117 128.423 65.373C128.085 65.2343 127.79 65.022 127.539 64.736C127.296 64.45 127.175 64.073 127.175 63.605C127.175 63.2237 127.287 62.877 127.513 62.565C127.738 62.2443 128.059 61.993 128.475 61.811C128.899 61.629 129.385 61.538 129.931 61.538C130.745 61.538 131.4 61.746 131.894 62.162C132.396 62.5693 132.665 63.1283 132.7 63.839H131.218C131.192 63.5183 131.062 63.2627 130.828 63.072C130.594 62.8813 130.277 62.786 129.879 62.786C129.489 62.786 129.19 62.8597 128.982 63.007C128.774 63.1543 128.67 63.3493 128.67 63.592C128.67 63.7827 128.739 63.943 128.878 64.073C129.016 64.203 129.185 64.307 129.385 64.385C129.584 64.4543 129.879 64.5453 130.269 64.658C130.789 64.7967 131.213 64.9397 131.543 65.087C131.881 65.2257 132.171 65.4337 132.414 65.711C132.656 65.9883 132.782 66.3567 132.791 66.816C132.791 67.2233 132.678 67.5873 132.453 67.908C132.227 68.2287 131.907 68.48 131.491 68.662C131.083 68.844 130.602 68.935 130.048 68.935Z" fill="#24663F"/>
</g>
</g>
<defs>
<clipPath id="clip0_667_37581">
<rect width="312" height="105" rx="8" fill="white"/>
</clipPath>
<clipPath id="clip1_667_37581">
<rect width="312" height="105" fill="white" transform="translate(0 0.5)"/>
</clipPath>
</defs>
</svg>
