<svg width="62" height="62" viewBox="0 0 62 62" fill="none" xmlns="http://www.w3.org/2000/svg">
<circle cx="31" cy="31" r="30.5" fill="#DAF1DE" stroke="white"/>
<mask id="mask0_3174_22391" style="mask-type:alpha" maskUnits="userSpaceOnUse" x="1" y="1" width="60" height="60">
<circle cx="31" cy="31" r="30" fill="#F1FCF4"/>
</mask>
<g mask="url(#mask0_3174_22391)">
<path d="M46.9822 41.9513L42.4579 51.5057L40.5572 66.4696L38.4585 83.365L27.8411 82.482L16.1949 81.142L18.0087 66.8475L16.9191 52.0204C14.8641 54.8864 10.6721 59.2494 4.0892 60.231C-3.03135 61.3096 -9.15055 35.1777 -9.15055 35.1777L-1.97493 32.2806L5.31763 49.5938L12.1947 42.9048L12.2128 42.9451C12.6056 42.5255 12.9763 42.1645 13.1817 41.9748C16.7736 37.7855 19.6778 36.3787 25.175 36.3231L33.0745 36.0081C35.1243 36.15 43.0375 36.9438 46.9822 41.9513Z" fill="#24663F"/>
<path d="M17.371 38.5755C17.371 38.5755 17.2461 38.7288 17.0365 39.0173C16.827 39.3057 16.6093 39.7917 16.4056 40.4169C16.2019 41.042 16.111 41.8103 16.0966 42.6409C16.1003 43.5119 16.1804 44.4454 16.2787 45.4192C16.435 47.3849 16.6176 49.1933 16.7621 50.4856C16.8142 51.1409 16.8522 51.657 16.8762 52.034C16.9084 52.2134 16.9224 52.3526 16.9184 52.4514C16.9143 52.5501 16.9324 52.5905 16.9324 52.5905C16.9324 52.5905 16.9143 52.5501 16.9184 52.4514C16.9224 52.3526 16.9084 52.2134 16.8762 52.034C16.8522 51.657 16.7739 51.159 16.7218 50.5038C16.5773 49.2115 16.3947 47.4031 16.2384 45.4373C16.1401 44.4636 16.0419 43.4898 16.0563 42.6591C16.0526 41.7881 16.1838 41.0017 16.3875 40.3766C16.5911 39.7514 16.8672 39.2875 17.0768 38.9991C17.2017 38.8458 17.2642 38.7691 17.3669 38.6743C17.3307 38.5937 17.371 38.5755 17.371 38.5755Z" fill="#263238"/>
<g opacity="0.3">
<g opacity="0.3">
<path opacity="0.3" d="M16.0436 43.0539C16.043 49.3069 13.5465 53.7774 9.40088 58.4585C9.40088 58.4585 13.7105 56.5147 16.7768 52.1265" fill="black"/>
</g>
</g>
<path d="M8.17889 52.1733C8.197 52.2136 7.60512 52.1898 6.9146 52.1619C6.20597 52.0938 5.65436 52.0518 5.63626 52.0115C5.61815 51.9712 6.21003 51.995 6.90056 52.0229C7.63135 52.0326 8.20106 52.1149 8.17889 52.1733Z" fill="#FAFAFA"/>
<path d="M7.62592 57.5143C7.64403 57.5546 6.97157 57.5671 6.22669 57.4184C5.44153 57.2878 4.87992 57.0079 4.87992 57.0079C4.90208 56.9495 5.48587 57.1708 6.23075 57.3196C6.97563 57.4683 7.60782 57.474 7.62592 57.5143Z" fill="#FAFAFA"/>
<path d="M2.85525 54.3319C2.91363 54.3541 2.65165 54.9569 2.32317 55.7352C2.03496 56.4953 1.73271 57.1164 1.7146 57.0761C1.65622 57.0539 1.9182 56.4511 2.24668 55.6728C2.553 54.953 2.81497 54.3501 2.85525 54.3319Z" fill="#FAFAFA"/>
<path d="M1.12894 50.5994C1.14705 50.6397 0.595376 50.5977 -0.0689923 50.4126C-0.733361 50.2275 -1.19635 49.9516 -1.15607 49.9335C-1.1339 49.875 -0.630636 50.1327 -0.0246489 50.2957C0.621613 50.4404 1.15111 50.5409 1.12894 50.5994Z" fill="#FAFAFA"/>
<path d="M1.02832 43.3718C1.08671 43.3939 0.883113 44.0189 0.594895 44.7791C0.306678 45.5392 0.103082 46.1642 0.044697 46.1421C-0.0136879 46.1199 0.189909 45.4949 0.478127 44.7348C0.766344 43.9746 1.01022 43.3315 1.02832 43.3718Z" fill="#FAFAFA"/>
<path d="M21.7378 21.9111C21.3576 21.0649 20.9191 20.1964 20.7 19.2775C20.4809 18.3586 20.4228 17.367 20.7553 16.4901C21.0878 15.6132 21.8109 14.851 22.729 14.6308C23.3068 14.5156 23.9168 14.5797 24.4403 14.3436C25.0625 14.1115 25.4633 13.4946 25.9366 13.0388C26.6777 12.3169 27.6664 11.8225 28.7012 11.6466C29.2569 11.5899 29.8307 11.5735 30.3339 11.8312C30.819 12.0486 31.2335 12.5401 31.2897 13.0963C31.9119 12.8642 32.5743 12.6139 33.2689 12.543C33.9635 12.4721 34.6499 12.5987 35.1853 13.0357C35.7206 13.4728 35.966 14.2345 35.6638 14.8554C36.1914 14.5206 37.0127 14.7318 37.3467 15.2596C37.6807 15.7875 37.6301 16.5373 37.2917 17.0776C36.9532 17.6179 36.1035 18.0981 35.4673 18.1911C34.8311 18.2842 34.0962 18.3733 33.4903 18.2104" fill="#313131"/>
<path d="M28.7368 42.1254C31.4171 41.8375 33.3531 39.4616 33.0683 36.7785C32.932 35.2888 32.8056 34.0369 32.8056 34.0369C32.8056 34.0369 36.5916 33.2989 36.4904 29.515C36.4296 25.7129 35.4827 17.0267 35.4827 17.0267C31.0272 15.3037 25.9546 16.0889 22.2905 19.1473L21.7185 19.5992L23.324 37.7318C23.6088 40.4149 26.0163 42.4314 28.7368 42.1254Z" fill="#FCDEBE"/>
<path d="M32.8299 33.9799C32.8299 33.9799 30.4277 34.2394 27.8208 32.7493C27.8208 32.7493 29.0741 35.4316 32.8476 34.9899L32.8299 33.9799Z" fill="#E0B392"/>
<path d="M22.3497 23.4793C22.2914 23.4572 19.7101 22.7794 19.8601 25.3779C20.01 27.9764 22.5898 27.2491 22.612 27.1906C22.5939 27.1503 22.3497 23.4793 22.3497 23.4793Z" fill="#FCDEBE"/>
<path d="M21.7598 26.2657C21.7598 26.2657 21.7196 26.2838 21.639 26.3202C21.5584 26.3565 21.4376 26.411 21.3027 26.3264C21.0288 26.256 20.7894 25.8308 20.7292 25.3731C20.7192 25.1352 20.7676 24.9195 20.816 24.7037C20.8826 24.5283 21.0075 24.375 21.1283 24.3205C21.2492 24.266 21.3841 24.3506 21.4203 24.4312C21.4565 24.5118 21.4343 24.5703 21.4746 24.5521C21.4746 24.5521 21.5552 24.5158 21.5009 24.3948C21.4828 24.3545 21.4465 24.2739 21.3882 24.2518C21.3117 24.1893 21.213 24.1853 21.1324 24.2217C20.9532 24.2541 20.7477 24.4437 20.6993 24.6595C20.6105 24.8934 20.5621 25.1091 20.5902 25.3873C20.6282 25.9035 20.9442 26.3912 21.3167 26.4655C21.4738 26.4916 21.6349 26.419 21.7155 26.3826C21.7558 26.3645 21.7598 26.2657 21.7598 26.2657Z" fill="#E8B792"/>
<path d="M34.4038 22.9417C34.4318 23.2197 34.2044 23.4676 33.8865 23.5141C33.6088 23.5424 33.3212 23.3331 33.3334 23.037C33.3053 22.7591 33.5328 22.5112 33.8507 22.4647C34.1284 22.4363 34.416 22.6456 34.4038 22.9417Z" fill="#313131"/>
<path d="M28.6847 23.1438C28.7127 23.4218 28.4852 23.6697 28.1673 23.7162C27.8897 23.7446 27.6021 23.5352 27.574 23.2573C27.546 22.9793 27.7734 22.7314 28.0913 22.6849C28.4092 22.6384 28.6969 22.8477 28.6847 23.1438Z" fill="#313131"/>
<path d="M31.4549 26.9388C31.4367 26.8985 31.7953 26.8337 32.3915 26.7588C32.5305 26.7446 32.6695 26.7304 32.7138 26.6134C32.7582 26.4964 32.6857 26.3352 32.6133 26.1739C32.4503 25.811 32.2873 25.4482 32.1465 25.0269C31.4804 23.4363 30.9814 22.1099 31.062 22.0735C31.1426 22.0372 31.7222 23.3273 32.3882 24.9178C32.5693 25.321 32.692 25.702 32.855 26.0649C32.9275 26.2261 33.018 26.4277 32.9696 26.6435C32.9253 26.7605 32.8225 26.8553 32.7238 26.8513C32.6432 26.8877 32.5445 26.8837 32.4639 26.92C31.8496 26.9547 31.473 26.9791 31.4549 26.9388Z" fill="#E8B792"/>
<path d="M29.777 27.4049C29.8757 27.4089 29.9097 28.0237 30.4452 28.4609C30.9807 28.8981 31.6573 28.7868 31.6935 28.8674C31.7116 28.9077 31.5505 28.9804 31.2726 29.0088C30.9947 29.0372 30.5638 28.9407 30.2578 28.6909C29.8934 28.4189 29.7707 28.0379 29.7205 27.8182C29.6521 27.5582 29.7187 27.3827 29.777 27.4049Z" fill="#E8B792"/>
<path d="M34.6662 21.3689C34.5816 21.504 34.1508 21.4075 33.6576 21.3876C33.1644 21.3678 32.7838 21.4909 32.6712 21.3479C32.635 21.2673 32.6793 21.1504 32.8626 21.0193C33.0458 20.8881 33.3277 20.761 33.6639 20.7548C34.0001 20.7485 34.292 20.8592 34.445 20.9841C34.6744 21.1714 34.7287 21.2923 34.6662 21.3689Z" fill="#313131"/>
<path d="M28.3735 20.6173C28.311 20.6939 28.154 20.6678 27.9567 20.6598C27.7413 20.6116 27.4856 20.5815 27.2481 20.5917C26.9521 20.5797 26.7326 20.6303 26.5132 20.6808C26.334 20.7131 26.1548 20.7455 26.1186 20.6649C26.0421 20.6024 26.1086 20.427 26.314 20.2375C26.5195 20.0479 26.8416 19.9026 27.2362 19.9185C27.6308 19.9344 27.9811 20.0672 28.1521 20.2324C28.4037 20.3613 28.4359 20.5406 28.3735 20.6173Z" fill="#313131"/>
<path d="M35.7053 18.182C35.7053 18.182 33.1765 19.1285 30.1371 18.0762C28.1303 17.382 25.924 17.2139 25.491 17.6515C25.058 18.089 25.2143 20.0539 23.4425 20.8529C23.4425 20.8529 24.0632 24.4982 22.5977 24.5776C21.1321 24.657 21.2731 18.8267 21.2731 18.8267L24.6257 16.5879L28.4128 15.3162L32.0688 14.8305L35.6217 15.409L35.7053 18.182Z" fill="#313131"/>
<path d="M33.8263 70.0467L39.0345 77.0046L54.9721 64.8234C58.4001 62.2108 58.9981 57.2876 56.3114 53.8944L46.7681 41.8145L38.0634 47.7765L48.0582 58.4894L33.8263 70.0467Z" fill="#24663F"/>
<path d="M55.3631 64.5019C55.3631 64.5019 55.3229 64.52 55.3007 64.5785C55.2201 64.6149 55.1577 64.6915 55.0952 64.7681C54.8717 64.9174 54.5856 65.1434 54.1969 65.4642C53.4013 66.0654 52.2975 66.951 50.8493 68.0405C47.971 70.2597 43.9305 73.3424 39.2375 76.9133L39.1972 76.9315L39.1791 76.8912C37.4664 74.8037 35.7256 72.4381 33.8459 70.0867L33.8278 70.0463L33.8681 70.0282C34.0111 69.9152 34.1138 69.8204 34.2568 69.7074C39.5301 65.487 44.3562 61.5652 48.1591 58.4927L48.1369 58.5512C45.7136 55.9602 43.7271 53.8024 42.3847 52.3235C41.7044 51.5639 41.1549 50.9877 40.7947 50.617C40.6055 50.4115 40.4928 50.2684 40.3982 50.1656C40.3036 50.0629 40.2674 49.9823 40.2674 49.9823C40.2674 49.9823 40.3258 50.0044 40.4204 50.1072C40.5149 50.2099 40.6679 50.3348 40.8571 50.5403C41.2355 50.9513 41.7669 51.4873 42.4471 52.2468C43.8299 53.7076 45.8164 55.8654 48.2396 58.4564L48.2577 58.4967L48.2175 58.5149C44.4146 61.5874 39.5885 65.5092 34.3152 69.7296C34.1722 69.8425 34.0292 69.9555 33.9265 70.0503L33.9306 69.9515C35.8284 72.3433 37.5913 74.6504 39.2637 76.7561L39.165 76.7521C43.8581 73.1811 47.9389 70.0803 50.795 67.9195C52.2432 66.8301 53.3651 65.9848 54.1607 65.3835C54.5675 65.1031 54.8536 64.8771 55.059 64.6875C55.1618 64.5927 55.2423 64.5564 55.2826 64.5382C55.3229 64.52 55.3631 64.5019 55.3631 64.5019Z" fill="white"/>
<path d="M52.303 59.5339C52.303 59.5339 52.0916 59.3868 51.7454 59.1552C51.3992 58.9236 50.8738 58.7244 50.2678 58.5614C49.6618 58.3985 49.088 58.4149 48.6712 58.4575C48.2544 58.5 48.035 58.5506 48.0168 58.5103C48.0168 58.5103 48.0571 58.4921 48.1779 58.4376C48.2988 58.3831 48.4377 58.3689 48.6753 58.3587C49.0921 58.3162 49.6659 58.2997 50.3121 58.4445C50.9181 58.6074 51.4616 58.847 51.8079 59.0786C52.0011 59.1853 52.0957 59.2881 52.1903 59.3908C52.2265 59.4714 52.303 59.5339 52.303 59.5339Z" fill="white"/>
<g opacity="0.2">
<g opacity="0.2">
<path opacity="0.2" d="M47.8314 58.2061C48.8301 57.9496 49.8287 57.6931 50.8274 57.4365C51.1858 57.3719 51.5261 57.2669 51.8804 57.3009C52.2347 57.335 52.6252 57.4497 52.8506 57.7357C53.076 58.0218 53.1181 58.439 52.9086 58.7273C52.7213 58.9572 52.3408 59.0804 52.0267 59.0281C51.7127 58.9759 51.4027 58.8249 51.1108 58.7142C50.5451 58.5331 49.9352 58.469 49.3614 58.4854C49.0835 58.5138 48.8057 58.5422 48.55 58.5121C48.2763 58.4417 48.0468 58.2544 48.0187 57.9762" fill="black"/>
</g>
</g>
</g>
</svg>
