<svg width="57" height="56" viewBox="0 0 57 56" fill="none" xmlns="http://www.w3.org/2000/svg">
<circle cx="28.5" cy="28" r="28" fill="url(#paint0_linear_2487_3787)"/>
<path d="M48.2377 40.6242C47.4296 38.5336 46.6003 36.4594 45.7922 34.3771C45.5795 33.8218 45.2251 33.5686 44.7005 33.5768C43.8286 33.5849 42.9567 33.5686 42.0848 33.5849C41.8438 33.5931 41.7375 33.4951 41.6382 33.242C40.8656 31.2413 40.0646 29.2487 39.299 27.248C39.0438 26.5702 38.661 26.2599 38.0089 26.2926C37.137 26.3334 36.2651 26.2844 35.3932 26.3089C35.1167 26.3171 34.9891 26.2191 34.8757 25.9332C34.103 23.9325 33.2949 21.9482 32.5365 19.9393C32.2813 19.2697 31.8985 18.992 31.2747 19.0002C28.8362 19.0165 26.3906 19.0165 23.9522 19.0002C23.3284 18.992 22.9385 19.2778 22.6904 19.9393C21.9177 21.9563 21.1167 23.9652 20.337 25.9822C20.2377 26.2354 20.1243 26.3171 19.8904 26.3171C18.9334 26.3007 17.9835 26.3171 17.0266 26.3089C16.5516 26.3007 16.2256 26.5457 16.0271 27.0438C15.942 27.2562 15.857 27.4685 15.7719 27.689C15.5592 28.2524 15.5947 28.4321 15.9916 28.8322C16.5233 28.9221 16.6934 28.8404 16.899 28.2361C17.0337 27.836 17.218 27.7135 17.5866 27.7216C19.2311 27.7543 20.8757 27.7461 22.5203 27.7461C22.5841 27.7788 22.6266 27.8196 22.6691 27.8686C23.1441 27.8605 23.6261 27.8768 24.101 27.8523C24.4129 27.8441 24.6043 27.9748 24.7319 28.3096C25.3344 29.8775 25.944 31.4291 26.5608 32.9888C26.7167 33.3808 26.6884 33.4298 26.2914 33.4379C25.8094 33.4461 25.3344 33.4379 24.8595 33.4379C24.8524 33.4788 24.8453 33.5196 24.817 33.5604C21.939 33.5686 19.0539 33.5686 16.176 33.5768C15.7435 33.5768 15.3111 33.5768 14.8291 33.5768C14.9638 33.2256 15.0843 32.9153 15.2048 32.605C15.4246 32.0252 15.3891 31.8292 14.978 31.4291C14.5314 31.3147 14.2549 31.5271 14.0848 32.0007C13.9359 32.4172 13.7516 32.8173 13.6099 33.242C13.5248 33.4951 13.4043 33.5849 13.1562 33.5849C12.2063 33.5686 11.2494 33.6013 10.2995 33.5686C9.65443 33.5441 9.27165 33.8544 9.01646 34.5322C8.19418 36.6717 7.34354 38.7949 6.5 40.9181C6.5 41.106 6.5 41.2938 6.5 41.4816C6.75519 42.1267 7.20886 42.2982 7.79013 42.2982C12.341 42.2819 16.8919 42.2901 21.4357 42.2901C25.4691 42.2901 29.5025 42.2901 33.5359 42.2901C33.777 42.2901 34.0251 42.2492 34.2661 42.2574C35.6838 42.3309 37.1015 42.2737 38.5121 42.2901C38.9162 42.2982 39.1856 42.0859 39.2494 41.5959C39.1359 41.0161 38.9729 40.861 38.42 40.861C37.3425 40.8528 36.2722 40.861 35.1947 40.8528C35.0671 40.8528 34.8403 40.9345 34.9678 40.616C35.698 38.7704 36.4352 36.9249 37.1724 35.0793C37.2858 34.9977 37.4134 35.0385 37.5268 35.0385C39.1076 35.0385 40.6884 35.0467 42.262 35.0222C42.418 35.0222 42.5314 35.0548 42.6306 35.112C43.1268 35.112 43.623 35.112 44.1192 35.112C44.4524 35.112 44.6509 35.259 44.7785 35.602C45.3881 37.178 46.0048 38.7541 46.6286 40.3139C46.7562 40.6323 46.664 40.6895 46.4018 40.6895C45.8985 40.6813 45.3952 40.6813 44.8919 40.6895C44.8848 40.7385 44.8777 40.7793 44.8494 40.8283C44.1192 40.8365 43.3891 40.8447 42.659 40.8528C42.1203 40.861 41.9714 40.9835 41.8154 41.5714C41.8934 42.0369 42.1344 42.2819 42.5527 42.2819C44.1476 42.2819 45.7425 42.2982 47.3375 42.2737C48.1881 42.2656 48.5851 41.5143 48.2377 40.6242ZM22.0737 26.2599C21.9248 26.2599 21.776 26.3007 21.6342 26.2191C21.8468 25.4433 22.1871 24.7328 22.4706 23.9897C22.8818 22.9036 23.3213 21.8257 23.7466 20.7396C23.8104 20.5844 23.8529 20.4293 24.0514 20.4374C25.8094 20.4538 27.5603 20.4619 29.3182 20.4701C29.4529 20.5599 29.5238 20.7151 29.5876 20.8702C30.2256 22.43 30.8139 24.0142 31.4448 25.5821C31.4732 25.6556 31.4944 25.7291 31.5157 25.8026C31.6291 26.2109 31.5937 26.2681 31.218 26.2681C30.1122 26.2681 29.0134 26.2681 27.9076 26.2681C25.9653 26.2599 24.023 26.2599 22.0737 26.2599ZM25.9866 27.738C27.0924 27.738 28.1486 27.738 29.2403 27.738C28.7015 29.118 28.1699 30.4655 27.6099 31.8945C27.057 30.4573 26.5253 29.1099 25.9866 27.738ZM17.863 40.8283C17.303 40.8365 16.7501 40.8528 16.1901 40.8528C13.5886 40.8528 10.9871 40.8528 8.38557 40.8528C8.2438 40.8528 8.08785 40.9018 7.91772 40.7875C8.19418 40.077 8.47063 39.3666 8.75418 38.6561C9.22911 37.4639 9.70405 36.2716 10.1861 35.0793C10.2853 35.0058 10.3987 35.0385 10.5051 35.0385C12.1142 35.0385 13.7162 35.0467 15.3253 35.0303C15.6301 35.0303 15.7932 35.1447 15.9208 35.4632C16.5446 37.0311 17.1471 38.6071 17.7709 40.175C17.8489 40.371 17.9835 40.5833 17.863 40.8283ZM20.6914 39.1788C20.1314 37.7578 19.5997 36.4023 19.0468 34.9977C20.103 34.9977 21.0954 34.9977 22.0808 34.9977C22.2367 34.9977 22.3218 35.0222 22.2367 35.2345C21.7334 36.5166 21.223 37.815 20.6914 39.1788ZM31.3597 40.8283C30.9132 40.8365 30.4666 40.8528 30.0129 40.8528C27.2767 40.8528 24.5405 40.8528 21.8114 40.861C21.5137 40.861 21.379 40.8447 21.542 40.4445C22.2651 38.6643 22.9739 36.8677 23.6828 35.0793C23.782 35.0058 23.8954 35.0385 24.0018 35.0385C25.6109 35.0385 27.2129 35.0467 28.822 35.0303C29.1268 35.0303 29.2899 35.1447 29.4175 35.4632C30.0484 37.0311 30.6509 38.6071 31.2676 40.175C31.3456 40.371 31.4873 40.5833 31.3597 40.8283ZM34.181 39.1543C33.6281 37.7415 33.1035 36.4023 32.5577 35.0222C33.6423 35.0222 34.6914 35.0222 35.7972 35.0222C35.2656 36.3859 34.741 37.7333 34.181 39.1543ZM38.3137 33.5523C36.0524 33.5604 33.7911 33.5604 31.5299 33.5686C30.4808 33.5686 29.4316 33.5686 28.3825 33.5686C28.34 33.3971 28.4322 33.291 28.4818 33.1685C29.1481 31.4699 29.8073 29.7713 30.4737 28.0728C30.5446 27.8931 30.58 27.7053 30.8281 27.7135C32.5861 27.7298 34.3441 27.7298 36.102 27.738C36.3997 28.1544 36.5132 28.6771 36.7116 29.1589C37.2575 30.4818 37.7678 31.8292 38.2924 33.1603C38.342 33.2828 38.4129 33.4134 38.3137 33.5523Z" fill="#235347"/>
<path d="M21.6338 26.219C24.7811 26.219 27.9285 26.219 31.0758 26.219C31.5295 26.219 31.5508 26.2109 31.3664 25.7372C30.8064 24.2755 30.2323 22.8219 29.6652 21.3683C29.5518 21.0662 29.4313 20.764 29.3178 20.4701C29.9275 20.4619 30.5442 20.4537 31.1538 20.4456C31.3097 20.4456 31.3948 20.4946 31.4657 20.6742C32.1887 22.5279 32.9188 24.3816 33.649 26.2517C33.5214 26.3497 33.4009 26.3089 33.2875 26.3089C29.5305 26.3089 25.7664 26.317 22.0095 26.3089C21.8819 26.2925 21.733 26.3824 21.6338 26.219Z" fill="#8EB69B"/>
<path d="M44.8562 40.8283C44.4592 39.7831 44.0623 38.7378 43.6582 37.7007C43.3817 36.9902 43.0769 36.288 42.8217 35.5612C42.6871 35.1937 42.5098 35.063 42.1483 35.063C40.4896 35.0875 38.8309 35.0712 37.165 35.0712C37.2359 34.916 37.3564 34.9895 37.4557 34.9895C39.7595 34.9895 42.0633 34.9895 44.3671 34.9814C44.5939 34.9814 44.7002 35.0549 44.7924 35.2917C45.4587 37.0229 46.1392 38.7541 46.8268 40.469C46.9544 40.7957 46.8977 40.861 46.6071 40.8528C46.0258 40.8365 45.4445 40.8365 44.8562 40.8283Z" fill="#8EB69B"/>
<path d="M31.3598 40.8284C31.0905 39.8892 30.6793 39.0236 30.3391 38.1172C30.0059 37.2107 29.6089 36.337 29.2758 35.4224C29.1695 35.1284 29.0348 35.063 28.7867 35.063C27.0854 35.0712 25.3841 35.063 23.6758 35.063C23.775 34.8997 23.9239 34.9814 24.0515 34.9814C26.3127 34.9732 28.5669 34.9814 30.8282 34.9814C31.0125 34.9814 31.1826 34.9487 31.2889 35.2264C31.9765 37.0311 32.6925 38.8195 33.3943 40.616C33.4155 40.6732 33.4226 40.7304 33.4368 40.812C32.7421 40.8284 32.0474 40.8284 31.3598 40.8284Z" fill="#8EB69B"/>
<path d="M17.8635 40.8283C17.5658 39.8157 17.1192 38.8848 16.7577 37.9048C16.4458 37.0719 16.0842 36.2634 15.7865 35.4223C15.6802 35.1201 15.5384 35.063 15.2974 35.063C13.5961 35.0712 11.8949 35.063 10.1865 35.063C10.2574 34.916 10.3779 34.9813 10.4772 34.9813C12.781 34.9813 15.0848 34.9813 17.3885 34.9732C17.6154 34.9732 17.7217 35.0548 17.8139 35.2916C18.4944 37.0555 19.1891 38.8031 19.8766 40.567C19.905 40.6323 19.9192 40.714 19.9546 40.8201C19.2387 40.8283 18.5511 40.8283 17.8635 40.8283Z" fill="#8EB69B"/>
<path d="M24.8101 33.5523C24.3848 32.4499 23.9666 31.3474 23.5342 30.2532C23.201 29.412 22.8608 28.5791 22.5205 27.738C23.1443 27.7298 23.7681 27.7298 24.3919 27.7216C24.5478 27.7216 24.64 27.7788 24.7038 27.9421C25.4127 29.7632 26.1286 31.5842 26.8375 33.4135C26.8516 33.4543 26.8375 33.5033 26.8375 33.5605C26.1641 33.5523 25.4906 33.5523 24.8101 33.5523Z" fill="#8EB69B"/>
<path d="M38.3132 33.5523C37.8808 32.4254 37.4342 31.3066 37.0089 30.1797C36.7041 29.3631 36.3142 28.5954 36.1016 27.738C36.697 27.7298 37.2995 27.7298 37.895 27.7135C38.0509 27.7135 38.1431 27.7543 38.2069 27.9258C38.9157 29.755 39.6317 31.5761 40.3476 33.3971C40.3618 33.438 40.3476 33.487 40.3476 33.5441C39.6671 33.5523 38.9866 33.5523 38.3132 33.5523Z" fill="#8EB69B"/>
<path d="M24.8453 33.5523C21.9673 33.5604 19.0822 33.5604 16.2043 33.5686C15.7719 33.5686 15.3394 33.5686 14.8574 33.5686C14.9921 33.2174 15.1126 32.9071 15.2331 32.5968C15.4529 32.017 15.4174 31.821 15.0063 31.4209C15.3465 30.5471 15.6939 29.6815 16.0341 28.8077C16.5658 28.8976 16.7359 28.8159 16.9415 28.2116C17.0762 27.8115 17.2605 27.689 17.6291 27.6971C19.2736 27.7298 20.9182 27.7216 22.5627 27.7216C22.7612 27.8196 22.825 28.0319 22.903 28.2279C23.541 29.8693 24.1789 31.5107 24.8311 33.144C24.8665 33.2828 24.9445 33.4134 24.8453 33.5523Z" fill="#DAF1DE"/>
<path d="M44.8921 40.8283C44.162 40.8365 43.4319 40.8447 42.7017 40.8528C42.163 40.861 42.0142 40.9835 41.8582 41.5714C41.0005 41.5796 40.1428 41.5796 39.285 41.5878C39.1716 41.008 39.0086 40.8528 38.4557 40.8528C37.3782 40.8447 36.3078 40.8528 35.2304 40.8447C35.1028 40.8447 34.8759 40.9263 35.0035 40.6078C35.7336 38.7623 36.4709 36.9167 37.2081 35.0712C37.3215 34.9895 37.4491 35.0304 37.5625 35.0304C39.1433 35.0304 40.724 35.0385 42.2977 35.014C42.645 35.0059 42.8223 35.1528 42.9499 35.4958C43.5736 37.1291 44.24 38.746 44.8567 40.3874C44.9205 40.5262 44.9843 40.6732 44.8921 40.8283Z" fill="#DAF1DE"/>
<path d="M38.3424 33.5523C36.0812 33.5605 33.8199 33.5605 31.5586 33.5686C30.5095 33.5686 29.4604 33.5686 28.4113 33.5686C28.3688 33.3971 28.4609 33.291 28.5105 33.1685C29.1769 31.4699 29.8361 29.7714 30.5024 28.0728C30.5733 27.8931 30.6088 27.7053 30.8569 27.7135C32.6148 27.7298 34.3728 27.7298 36.1308 27.738C36.4285 28.1545 36.5419 28.6771 36.7404 29.1589C37.2862 30.4818 37.7966 31.8292 38.3212 33.1685C38.3708 33.2828 38.4417 33.4135 38.3424 33.5523Z" fill="#DAF1DE"/>
<path d="M17.8916 40.8283C17.3316 40.8365 16.7787 40.8528 16.2187 40.8528C13.6172 40.8528 11.0157 40.8528 8.41414 40.8528C8.27236 40.8528 8.11642 40.9018 7.94629 40.7875C8.22274 40.0771 8.4992 39.3666 8.78275 38.6561C9.25768 37.4639 9.73262 36.2716 10.2146 35.0794C10.3139 35.0059 10.4273 35.0385 10.5336 35.0385C12.1427 35.0385 13.7448 35.0467 15.3539 35.0304C15.6587 35.0304 15.8217 35.1447 15.9493 35.4632C16.5731 37.0311 17.1757 38.6071 17.7995 40.175C17.8774 40.371 18.0121 40.5834 17.8916 40.8283Z" fill="#DAF1DE"/>
<path d="M31.3877 40.8283C30.9412 40.8365 30.4946 40.8528 30.0409 40.8528C27.3047 40.8528 24.5685 40.8528 21.8394 40.861C21.5417 40.861 21.407 40.8447 21.57 40.4445C22.2931 38.6643 23.0019 36.8678 23.7108 35.0794C23.81 35.0059 23.9234 35.0385 24.0298 35.0385C25.6389 35.0385 27.2409 35.0467 28.85 35.0304C29.1548 35.0304 29.3179 35.1447 29.4455 35.4632C30.0763 37.0311 30.6789 38.6071 31.2956 40.175C31.3736 40.371 31.5153 40.5834 31.3877 40.8283Z" fill="#DAF1DE"/>
<path d="M21.6621 26.2191C21.8748 25.4433 22.215 24.7328 22.4986 23.9897C22.9097 22.9036 23.3492 21.8257 23.7745 20.7396C23.8383 20.5844 23.8808 20.4293 24.0793 20.4374C25.8373 20.4538 27.5882 20.4619 29.3462 20.4701C29.4808 20.5599 29.5517 20.7151 29.6155 20.8702C30.2535 22.43 30.8419 24.0142 31.4727 25.5821C31.5011 25.6556 31.5224 25.7291 31.5436 25.8026C31.657 26.2109 31.6216 26.2681 31.2459 26.2681C30.1401 26.2681 29.0414 26.2681 27.9355 26.2681C25.9862 26.2681 24.0439 26.2681 22.0945 26.2681C21.9527 26.2599 21.8039 26.3007 21.6621 26.2191Z" fill="#DAF1DE"/>
<path d="M35.8895 23.64C35.8824 23.5762 35.9249 23.4911 35.9674 23.399C36.8393 21.6765 37.7183 19.961 38.5902 18.2385C38.9234 17.5792 39.2636 16.92 39.5968 16.2608C39.7102 16.0339 39.8945 15.9347 40.1214 15.963C40.4191 15.9985 40.6176 16.3175 40.5183 16.601C40.5041 16.6435 40.49 16.679 40.4687 16.7144C39.2565 19.0962 38.0515 21.4709 36.8393 23.8527C36.6834 24.1646 36.3573 24.2567 36.095 24.0724C35.9603 23.9803 35.8895 23.8456 35.8895 23.64Z" fill="#235347"/>
<path d="M42.5464 21.5063C42.4897 21.0952 42.3196 20.7478 42.036 20.443C41.5185 19.8901 40.6325 19.7058 39.9378 20.0248C38.9312 20.4785 38.5271 21.6197 39.0233 22.6051C39.3778 23.3068 40.115 23.6967 40.8947 23.6046C41.7099 23.5053 42.3125 22.9524 42.5109 22.1585C42.5251 22.0947 42.518 22.0238 42.5606 21.9671C42.5606 21.8253 42.5606 21.6835 42.5606 21.5418C42.5464 21.5347 42.5535 21.5205 42.5464 21.5063ZM40.6892 22.6192C40.2071 22.6192 39.8031 22.2152 39.8031 21.7261C39.8102 21.244 40.2071 20.8471 40.6892 20.8471C41.1712 20.8471 41.5682 21.244 41.5752 21.7261C41.5823 22.2223 41.1712 22.6263 40.6892 22.6192Z" fill="#235347"/>
<path d="M35.7764 16.516C34.7627 16.4947 33.9121 17.3311 33.8908 18.3661C33.8766 19.3939 34.706 20.2446 35.7551 20.2587C36.7971 20.2587 37.6265 19.4223 37.6407 18.4015C37.6549 17.3808 36.8255 16.5372 35.7764 16.516ZM35.7551 19.2734C35.2731 19.2663 34.869 18.8552 34.8832 18.3803C34.8903 17.8841 35.3014 17.4942 35.7976 17.5013C36.2726 17.5084 36.6695 17.9266 36.6554 18.4086C36.6412 18.8906 36.23 19.2805 35.7551 19.2734Z" fill="#235347"/>
<path d="M38.2215 13C34.3157 13 31.14 16.2041 31.1612 20.1099C31.1825 23.9944 34.3582 27.1347 38.2428 27.1347C42.1415 27.1276 45.3172 23.9519 45.3101 20.0603C45.2888 16.1615 42.1202 13 38.2215 13ZM38.1364 25.6106C35.1309 25.5752 32.6498 23.0587 32.6782 20.0673C32.7066 16.9413 35.2088 14.4886 38.3349 14.5241C41.3263 14.5595 43.8002 17.083 43.779 20.0886C43.7648 23.1792 41.2483 25.6461 38.1364 25.6106Z" fill="#235347"/>
<defs>
<linearGradient id="paint0_linear_2487_3787" x1="28.5" y1="0" x2="28.5" y2="56" gradientUnits="userSpaceOnUse">
<stop stop-color="#E1FFED"/>
<stop offset="1" stop-color="#E1FFED" stop-opacity="0"/>
</linearGradient>
</defs>
</svg>
