<svg width="16" height="16" viewBox="0 0 16 16" fill="none" xmlns="http://www.w3.org/2000/svg">
<path d="M5.73706 4.0625L5.02555 4.29967L5.19649 4.8125H5.73706V4.0625ZM4.86206 1.4375L5.00915 0.702064C4.74699 0.649632 4.47674 0.74072 4.2998 0.941148C4.12287 1.14158 4.066 1.42104 4.15055 1.67467L4.86206 1.4375ZM10.9871 1.4375L11.6986 1.67467C11.7831 1.42104 11.7263 1.14158 11.5493 0.941148C11.3724 0.74072 11.1021 0.649632 10.84 0.702064L10.9871 1.4375ZM10.1121 4.0625V4.8125H10.6526L10.8236 4.29967L10.1121 4.0625ZM6.44857 3.82533L5.57357 1.20033L4.15055 1.67467L5.02555 4.29967L6.44857 3.82533ZM10.2755 1.20033L9.40055 3.82533L10.8236 4.29967L11.6986 1.67467L10.2755 1.20033ZM10.1121 3.3125H5.73706V4.8125H10.1121V3.3125ZM4.71497 2.17294C5.90868 2.41168 6.57392 2.31478 7.11776 2.06378C7.65397 1.8163 7.59706 1.75 7.92456 1.75V0.25C7.15831 0.25 6.6639 0.621201 6.48917 0.701843C6.32207 0.778966 6.00294 0.900824 5.00915 0.702064L4.71497 2.17294ZM7.92456 1.75C8.25206 1.75 8.19515 1.8163 8.73136 2.06378C9.2752 2.31478 9.94044 2.41168 11.1341 2.17294L10.84 0.702064C9.84618 0.900824 9.52705 0.778966 9.35995 0.701843C9.18522 0.621201 8.69081 0.25 7.92456 0.25V1.75Z" fill="#24663F"/>
<path d="M10.1121 4.0625L13.1746 9.75C14.1954 11.5 14.9246 15 9.67456 15H6.17456" stroke="#24663F" stroke-width="1.5"/>
<path d="M5.68969 4.0625L2.70666 9.75C1.71231 11.5 1.00207 15 6.11584 15H6.61206" stroke="#24663F" stroke-width="1.5"/>
<path d="M5.86799 11.02C5.81732 11.02 5.77465 11.0027 5.73999 10.968C5.70532 10.9333 5.68799 10.8907 5.68799 10.84V8.39201C5.68799 8.34134 5.70532 8.29867 5.73999 8.26401C5.77465 8.22667 5.81732 8.20801 5.86799 8.20801H6.79999C7.16266 8.20801 7.43466 8.28267 7.61599 8.43201C7.79732 8.58134 7.88799 8.77734 7.88799 9.02001C7.88799 9.18001 7.84265 9.32667 7.75199 9.46001C7.66399 9.59067 7.53466 9.68534 7.36399 9.74401C7.55599 9.79467 7.68665 9.91467 7.75599 10.104C7.82799 10.2907 7.86399 10.4747 7.86399 10.656V10.84C7.86399 10.8907 7.84666 10.9333 7.81199 10.968C7.77732 11.0027 7.73465 11.02 7.68399 11.02C7.62799 11.02 7.58266 11.004 7.54799 10.972C7.51599 10.9373 7.49999 10.8933 7.49999 10.84V10.72C7.49999 10.5867 7.48799 10.464 7.46399 10.352C7.43999 10.2373 7.38266 10.136 7.29199 10.048C7.20132 9.95734 7.06399 9.91201 6.87999 9.91201H6.05199V10.84C6.05199 10.8907 6.03332 10.9333 5.99599 10.968C5.96132 11.0027 5.91865 11.02 5.86799 11.02ZM6.77599 9.56801C7.00532 9.56801 7.18665 9.52267 7.31999 9.43201C7.45599 9.34134 7.52399 9.21334 7.52399 9.04801C7.52399 8.88801 7.46532 8.76534 7.34799 8.68001C7.23332 8.59467 7.03599 8.55201 6.75599 8.55201H6.05199V9.56801H6.77599Z" fill="#24663F"/>
<path d="M8.64364 11.94C8.59298 11.94 8.55031 11.9213 8.51564 11.884C8.48098 11.8493 8.46364 11.8067 8.46364 11.756V9.12001C8.46364 9.06934 8.48098 9.02667 8.51564 8.99201C8.55031 8.95734 8.59298 8.94001 8.64364 8.94001C8.69431 8.94001 8.73698 8.95734 8.77164 8.99201C8.80898 9.02667 8.82764 9.06934 8.82764 9.12001V9.22401C9.02231 9.02134 9.25031 8.92001 9.51164 8.92001C9.67698 8.92001 9.83298 8.96267 9.97964 9.04801C10.129 9.13067 10.249 9.25334 10.3396 9.41601C10.433 9.57601 10.4796 9.76401 10.4796 9.98001C10.4796 10.196 10.433 10.3853 10.3396 10.548C10.249 10.708 10.129 10.8307 9.97964 10.916C9.83298 10.9987 9.67698 11.04 9.51164 11.04C9.25031 11.04 9.02231 10.9387 8.82764 10.736V11.756C8.82764 11.8093 8.81031 11.8533 8.77564 11.888C8.74098 11.9227 8.69698 11.94 8.64364 11.94ZM9.45964 10.7C9.65698 10.7 9.81564 10.6373 9.93564 10.512C10.0556 10.3867 10.1156 10.2093 10.1156 9.98001C10.1156 9.75067 10.0556 9.57334 9.93564 9.44801C9.81564 9.32267 9.65698 9.26001 9.45964 9.26001C9.33698 9.26001 9.22098 9.28801 9.11164 9.34401C9.00498 9.39734 8.91031 9.46934 8.82764 9.56001V10.4C8.91031 10.4907 9.00498 10.564 9.11164 10.62C9.22098 10.6733 9.33698 10.7 9.45964 10.7Z" fill="#24663F"/>
<path fill-rule="evenodd" clip-rule="evenodd" d="M7.34804 8.68006C7.23337 8.59472 7.03604 8.55206 6.75604 8.55206H6.05204V9.56806H6.77604C7.00537 9.56806 7.1867 9.52272 7.32004 9.43206C7.45604 9.34139 7.52404 9.21339 7.52404 9.04806C7.52404 8.88806 7.46537 8.76539 7.34804 8.68006ZM7.29204 10.0481C7.20137 9.95739 7.06404 9.91206 6.88004 9.91206H6.05204V10.8401C6.05204 10.8907 6.03337 10.9334 5.99604 10.9681C5.96137 11.0027 5.9187 11.0201 5.86804 11.0201C5.81737 11.0201 5.7747 11.0027 5.74004 10.9681C5.70537 10.9334 5.68804 10.8907 5.68804 10.8401V8.39206C5.68804 8.34139 5.70537 8.29872 5.74004 8.26406C5.7747 8.22672 5.81737 8.20806 5.86804 8.20806H6.80004C7.1627 8.20806 7.4347 8.28272 7.61604 8.43206C7.79737 8.58139 7.88804 8.77739 7.88804 9.02006C7.88804 9.18006 7.8427 9.32672 7.75204 9.46006C7.71006 9.52239 7.65867 9.57653 7.59788 9.62248C7.53124 9.67285 7.45329 9.71338 7.36404 9.74406C7.4543 9.76788 7.53101 9.80702 7.59417 9.86149C7.66534 9.92288 7.7193 10.0037 7.75604 10.1041C7.82804 10.2907 7.86404 10.4747 7.86404 10.6561V10.8401C7.86404 10.8907 7.8467 10.9334 7.81204 10.9681C7.77737 11.0027 7.7347 11.0201 7.68404 11.0201C7.62804 11.0201 7.5827 11.0041 7.54804 10.9721C7.51604 10.9374 7.50004 10.8934 7.50004 10.8401V10.7201C7.50004 10.5867 7.48804 10.4641 7.46404 10.3521C7.44004 10.2374 7.3827 10.1361 7.29204 10.0481ZM7.94323 10.0336C8.02279 10.2404 8.06404 10.4482 8.06404 10.6561V10.8401C8.06404 10.9418 8.02701 11.0359 7.95346 11.1095C7.8799 11.183 7.78576 11.2201 7.68404 11.2201C7.58773 11.2201 7.49072 11.1913 7.41238 11.119L7.4065 11.1136L7.40108 11.1077C7.33047 11.0312 7.30004 10.9366 7.30004 10.8401V10.7201C7.30004 10.5986 7.28909 10.4902 7.26848 10.394C7.2533 10.3214 7.21714 10.2541 7.15274 10.1916L7.1506 10.1895C7.11116 10.1501 7.03419 10.1121 6.88004 10.1121H6.25204V10.8401C6.25204 10.9455 6.21093 11.0401 6.13482 11.1121C6.06166 11.1839 5.96855 11.2201 5.86804 11.2201C5.76631 11.2201 5.67217 11.183 5.59862 11.1095C5.52506 11.0359 5.48804 10.9418 5.48804 10.8401V8.39206C5.48804 8.29154 5.52419 8.19843 5.596 8.12527C5.66797 8.04917 5.76264 8.00806 5.86804 8.00806H6.80004C7.18511 8.00806 7.5111 8.08654 7.74318 8.27767C7.97238 8.46642 8.08804 8.71991 8.08804 9.02006C8.08804 9.22035 8.03054 9.40602 7.91767 9.57215C7.8735 9.63767 7.82179 9.69548 7.76332 9.74585C7.84099 9.82359 7.90141 9.92007 7.94323 10.0336ZM6.25204 9.36806H6.77604C6.98151 9.36806 7.1187 9.32711 7.20758 9.26667L7.20909 9.26564C7.28868 9.21258 7.32404 9.14745 7.32404 9.04806C7.32404 8.94441 7.29011 8.88523 7.2304 8.8418L7.22863 8.84051C7.16864 8.79587 7.02785 8.75206 6.75604 8.75206H6.25204V9.36806ZM8.82769 10.7361C8.89085 10.8018 8.95752 10.8569 9.02769 10.9013C9.17381 10.9938 9.33515 11.0401 9.51169 11.0401C9.67703 11.0401 9.83303 10.9987 9.97969 10.9161C10.129 10.8307 10.249 10.7081 10.3397 10.5481C10.433 10.3854 10.4797 10.1961 10.4797 9.98006C10.4797 9.76406 10.433 9.57606 10.3397 9.41606C10.249 9.25339 10.129 9.13072 9.97969 9.04806C9.83303 8.96272 9.67703 8.92006 9.51169 8.92006C9.33339 8.92006 9.1706 8.96723 9.02334 9.06157C8.99553 9.07938 8.96828 9.09888 8.94158 9.12006C8.90243 9.15111 8.86446 9.18577 8.82769 9.22406V9.12006C8.82769 9.07174 8.81072 9.03069 8.77676 8.99692C8.77511 8.99528 8.77342 8.99366 8.77169 8.99206C8.73703 8.95739 8.69436 8.94006 8.64369 8.94006C8.59303 8.94006 8.55036 8.95739 8.51569 8.99206C8.48103 9.02672 8.46369 9.06939 8.46369 9.12006V11.7561C8.46369 11.8067 8.48103 11.8494 8.51569 11.8841C8.55036 11.9214 8.59303 11.9401 8.64369 11.9401C8.69703 11.9401 8.74103 11.9227 8.77569 11.8881C8.81036 11.8534 8.82769 11.8094 8.82769 11.7561V10.7361ZM9.02769 11.1301V11.7561C9.02769 11.8573 8.99277 11.9538 8.91711 12.0295C8.84146 12.1051 8.74493 12.1401 8.64369 12.1401C8.5383 12.1401 8.44362 12.0989 8.37165 12.0228C8.29984 11.9497 8.26369 11.8566 8.26369 11.7561V9.12006C8.26369 9.01833 8.30072 8.92419 8.37427 8.85064C8.44783 8.77708 8.54197 8.74006 8.64369 8.74006C8.74421 8.74006 8.83731 8.7762 8.91047 8.84802C8.92073 8.85771 8.93035 8.86782 8.93931 8.87831C9.11092 8.7742 9.30248 8.72006 9.51169 8.72006C9.71262 8.72006 9.90259 8.77221 10.0784 8.87412C10.262 8.97619 10.4068 9.12623 10.5134 9.31699C10.6267 9.51193 10.6797 9.73531 10.6797 9.98006C10.6797 10.2254 10.6264 10.45 10.5134 10.6472C10.4063 10.836 10.2615 10.9854 10.0789 11.0897L10.0779 11.0903C9.90183 11.1895 9.71209 11.2401 9.51169 11.2401C9.33771 11.2401 9.17594 11.2026 9.02769 11.1301ZM9.20114 9.52294C9.13838 9.55432 9.08064 9.59396 9.02769 9.64243V10.3179C9.08077 10.367 9.13879 10.4081 9.202 10.4416C9.283 10.4806 9.36814 10.5001 9.45969 10.5001C9.61068 10.5001 9.71428 10.4541 9.79123 10.3737C9.86531 10.2964 9.91569 10.1749 9.91569 9.98006C9.91569 9.78519 9.86531 9.66375 9.79123 9.58637C9.71428 9.506 9.61068 9.46006 9.45969 9.46006C9.36878 9.46006 9.28402 9.4805 9.20287 9.52207L9.20114 9.52294ZM8.82769 10.4001V9.56006C8.91036 9.46939 9.00503 9.39739 9.11169 9.34406C9.22103 9.28806 9.33703 9.26006 9.45969 9.26006C9.65703 9.26006 9.81569 9.32272 9.93569 9.44806C10.0557 9.57339 10.1157 9.75072 10.1157 9.98006C10.1157 10.2094 10.0557 10.3867 9.93569 10.5121C9.81569 10.6374 9.65703 10.7001 9.45969 10.7001C9.33703 10.7001 9.22103 10.6734 9.11169 10.6201C9.00503 10.5641 8.91036 10.4907 8.82769 10.4001Z" fill="#24663F"/>
</svg>
