<svg width="16" height="16" viewBox="0 0 16 16" fill="none" xmlns="http://www.w3.org/2000/svg">
<g clip-path="url(#clip0_1046_40581)">
<path d="M2.00008 14.6667H1.25008V15.4167H2.00008V14.6667ZM14.0001 14.6667V15.4167H14.7501V14.6667H14.0001ZM10.0001 6.00004V5.25004H9.25008V6.00004H10.0001ZM5.00009 4.25005C4.58588 4.25005 4.25009 4.58583 4.25009 5.00005C4.25009 5.41426 4.58588 5.75005 5.00009 5.75005V4.25005ZM7.00009 5.75005C7.41431 5.75005 7.75009 5.41426 7.75009 5.00005C7.75009 4.58583 7.41431 4.25005 7.00009 4.25005V5.75005ZM5.00009 7.25005C4.58588 7.25005 4.25009 7.58583 4.25009 8.00005C4.25009 8.41426 4.58588 8.75005 5.00009 8.75005V7.25005ZM7.00009 8.75005C7.41431 8.75005 7.75009 8.41426 7.75009 8.00005C7.75009 7.58583 7.41431 7.25005 7.00009 7.25005V8.75005ZM5.00009 10.25C4.58588 10.25 4.25009 10.5858 4.25009 11C4.25009 11.4143 4.58588 11.75 5.00009 11.75V10.25ZM7.00009 11.75C7.41431 11.75 7.75009 11.4143 7.75009 11C7.75009 10.5858 7.41431 10.25 7.00009 10.25V11.75ZM3.00008 2.08337H9.00008V0.583374H3.00008V2.08337ZM9.25008 2.33337V14.6667H10.7501V2.33337H9.25008ZM10.0001 13.9167H2.00008V15.4167H10.0001V13.9167ZM2.75008 14.6667V2.33337H1.25008V14.6667H2.75008ZM9.00008 2.08337C9.13815 2.08337 9.25008 2.1953 9.25008 2.33337H10.7501C10.7501 1.36688 9.96658 0.583374 9.00008 0.583374V2.08337ZM3.00008 0.583374C2.03358 0.583374 1.25008 1.36688 1.25008 2.33337H2.75008C2.75008 2.1953 2.86201 2.08337 3.00008 2.08337V0.583374ZM0.666748 15.4167H15.3334V13.9167H0.666748V15.4167ZM14.0001 13.9167H10.0001V15.4167H14.0001V13.9167ZM13.2501 7.00004V14.6667H14.7501V7.00004H13.2501ZM13.0001 6.75004C13.1382 6.75004 13.2501 6.86197 13.2501 7.00004H14.7501C14.7501 6.03354 13.9666 5.25004 13.0001 5.25004V6.75004ZM10.0001 6.75004H13.0001V5.25004H10.0001V6.75004ZM9.25008 6.00004V14.6667H10.7501V6.00004H9.25008ZM5.00009 5.75005H7.00009V4.25005H5.00009V5.75005ZM5.00009 8.75005H7.00009V7.25005H5.00009V8.75005ZM5.00009 11.75H7.00009V10.25H5.00009V11.75Z" fill="#24663F"/>
</g>
<defs>
<clipPath id="clip0_1046_40581">
<rect width="16" height="16" fill="white"/>
</clipPath>
</defs>
</svg>
