<svg width="16" height="16" viewBox="0 0 16 16" fill="none" xmlns="http://www.w3.org/2000/svg">
<path d="M14 7.66666C14.0023 8.54657 13.7967 9.41458 13.4 10.2C12.9296 11.1412 12.2065 11.9328 11.3116 12.4862C10.4168 13.0396 9.3855 13.3329 8.33333 13.3333C7.45342 13.3356 6.58541 13.13 5.8 12.7333L2 14L3.26667 10.2C2.86995 9.41458 2.66437 8.54657 2.66667 7.66666C2.66707 6.61449 2.96041 5.58322 3.51381 4.68836C4.06722 3.79349 4.85884 3.07037 5.8 2.59999C6.58541 2.20328 7.45342 1.99769 8.33333 1.99999H8.66667C10.0562 2.07665 11.3687 2.66316 12.3528 3.64723C13.3368 4.63129 13.9233 5.94376 14 7.33332V7.66666Z" stroke="#288C50" stroke-width="1.5" stroke-linecap="round" stroke-linejoin="round"/>
<path d="M11.0001 8.73001V9.48001C11.0004 9.54963 10.9861 9.61855 10.9582 9.68235C10.9303 9.74614 10.8894 9.80341 10.8381 9.85047C10.7868 9.89754 10.7262 9.93338 10.6603 9.95569C10.5943 9.97799 10.5244 9.98628 10.4551 9.98001C9.68581 9.89642 8.94685 9.63354 8.29761 9.21251C7.69356 8.82867 7.18144 8.31655 6.79761 7.71251C6.3751 7.06031 6.11217 6.31776 6.03011 5.54501C6.02386 5.47588 6.03207 5.4062 6.05423 5.34042C6.07639 5.27463 6.112 5.21418 6.1588 5.16291C6.2056 5.11165 6.26256 5.07069 6.32605 5.04264C6.38955 5.01459 6.45819 5.00007 6.52761 5.00001H7.27761C7.39893 4.99881 7.51655 5.04178 7.60855 5.12089C7.70054 5.20001 7.76062 5.30987 7.77761 5.43001C7.80926 5.67003 7.86797 5.90569 7.95261 6.13251C7.98624 6.22199 7.99352 6.31924 7.97358 6.41273C7.95364 6.50622 7.90732 6.59204 7.84011 6.66001L7.52261 6.97751C7.87849 7.60339 8.39672 8.12162 9.02261 8.47751L9.3401 8.16001C9.40808 8.09279 9.49389 8.04647 9.58738 8.02653C9.68088 8.00659 9.77812 8.01387 9.8676 8.04751C10.0944 8.13215 10.3301 8.19085 10.5701 8.22251C10.6915 8.23964 10.8025 8.30081 10.8817 8.39438C10.961 8.48795 11.0031 8.6074 11.0001 8.73001Z" fill="#288C50"/>
</svg>
