<svg width="40" height="40" viewBox="0 0 40 40" fill="none" xmlns="http://www.w3.org/2000/svg">
<circle cx="20" cy="20" r="20" fill="url(#paint0_linear_5285_4765)"/>
<path fill-rule="evenodd" clip-rule="evenodd" d="M8 12.8335C6.80339 12.8335 5.83334 13.8035 5.83334 15.0002V31.0002C5.83334 32.1968 6.80339 33.1668 8 33.1668H32C33.1966 33.1668 34.1667 32.1968 34.1667 31.0002V15.0002C34.1667 13.8035 33.1966 12.8335 32 12.8335H8ZM4.83334 15.0002C4.83334 13.2513 6.2511 11.8335 8 11.8335H32C33.7489 11.8335 35.1667 13.2513 35.1667 15.0002V31.0002C35.1667 32.7491 33.7489 34.1668 32 34.1668H8C6.2511 34.1668 4.83334 32.7491 4.83334 31.0002V15.0002Z" fill="#24663F"/>
<path fill-rule="evenodd" clip-rule="evenodd" d="M4.83334 20.3335C4.83334 20.0574 5.05719 19.8335 5.33334 19.8335H34.6667C34.9428 19.8335 35.1667 20.0574 35.1667 20.3335C35.1667 20.6096 34.9428 20.8335 34.6667 20.8335H5.33334C5.05719 20.8335 4.83334 20.6096 4.83334 20.3335Z" fill="#24663F"/>
<rect x="7" y="25" width="20" height="1" fill="#24663F"/>
<rect x="7" y="28" width="11" height="1" fill="#24663F"/>
<defs>
<linearGradient id="paint0_linear_5285_4765" x1="20" y1="0" x2="20" y2="40" gradientUnits="userSpaceOnUse">
<stop stop-color="#E1FFED"/>
<stop offset="1" stop-color="#E1FFED" stop-opacity="0"/>
</linearGradient>
</defs>
</svg>
