<svg width="40" height="40" viewBox="0 0 40 40" fill="none" xmlns="http://www.w3.org/2000/svg">
<circle cx="20" cy="20" r="20" fill="url(#paint0_linear_5311_1185)"/>
<path d="M17.8929 26.2102C17.7216 26.2105 17.5585 26.1353 17.4474 26.0049L14.3533 22.3816C14.1431 22.1355 14.1722 21.7658 14.4183 21.5556C14.6645 21.3458 15.0342 21.3749 15.2443 21.6207L17.9668 24.8089L24.7287 19.3078C24.9797 19.1035 25.3487 19.1414 25.5527 19.3924C25.757 19.6435 25.7191 20.0125 25.468 20.2165L18.262 26.0788C18.158 26.1638 18.0276 26.2102 17.8929 26.2102Z" fill="#24663F"/>
<path d="M17.6994 37.52L19.2873 38.2119C19.4357 38.2767 19.6046 38.277 19.7534 38.2126L21.5426 37.4399C27.825 34.8014 31.9121 28.6524 31.9128 21.8386V13.8118C31.9128 13.5954 31.7935 13.3963 31.6026 13.2947L19.8371 7.0254C19.6625 6.93224 19.4533 6.93355 19.2801 7.02867L7.84012 13.2979C7.6525 13.4009 7.53613 13.5977 7.53613 13.8118V22.0011C7.543 28.7328 11.5314 34.823 17.6994 37.52ZM8.70762 14.1586L19.5654 8.20767L30.7413 14.1628V21.8386C30.74 28.1827 26.9336 33.9071 21.084 36.3622L21.0798 36.3642L19.522 37.0369L18.1681 36.4462C12.4267 33.9359 8.71383 28.2674 8.70729 22.0011L8.70762 14.1586Z" fill="#24663F"/>
<defs>
<linearGradient id="paint0_linear_5311_1185" x1="20" y1="0" x2="20" y2="40" gradientUnits="userSpaceOnUse">
<stop stop-color="#E1FFED"/>
<stop offset="1" stop-color="#E1FFED" stop-opacity="0"/>
</linearGradient>
</defs>
</svg>
