<svg width="40" height="40" viewBox="0 0 40 40" fill="none" xmlns="http://www.w3.org/2000/svg">
<path opacity="0.5" d="M25.4552 31.2138C23.2375 31.2141 21.0694 30.5568 19.2252 29.3249C17.381 28.0931 15.9435 26.342 15.0944 24.2931C14.2454 22.2443 14.023 19.9897 14.4554 17.8145C14.8877 15.6392 15.9554 13.641 17.5234 12.0726C19.0914 10.5042 21.0892 9.43589 23.2643 9.0029C25.4394 8.56991 27.6941 8.79163 29.7432 9.64004C31.7923 10.4884 33.5438 11.9254 34.7762 13.7693C36.0086 15.6131 36.6666 17.781 36.6669 19.9988V20.0004C36.6638 22.9732 35.4817 25.8233 33.3798 27.9255C31.2779 30.0277 28.428 31.2103 25.4552 31.2138Z" fill="white"/>
<path d="M14.5449 31.2138C12.3271 31.2138 10.1591 30.5561 8.31509 29.324C6.47106 28.0919 5.03382 26.3406 4.18511 24.2916C3.3364 22.2426 3.11434 19.988 3.54701 17.8128C3.97968 15.6377 5.04764 13.6396 6.61586 12.0714C8.18407 10.5032 10.1821 9.43524 12.3573 9.00258C14.5324 8.56991 16.7871 8.79197 18.836 9.64068C20.885 10.4894 22.6363 11.9266 23.8684 13.7707C25.1006 15.6147 25.7582 17.7827 25.7582 20.0004C25.7551 22.9735 24.5727 25.8238 22.4705 27.9261C20.3683 30.0283 17.5179 31.2107 14.5449 31.2138Z" fill="white"/>
</svg>
