<svg width="40" height="40" viewBox="0 0 40 40" fill="none" xmlns="http://www.w3.org/2000/svg">
<path d="M4.16663 29.1667V10.8333C4.16663 9 5.66663 7.5 7.49996 7.5H32.5C34.3333 7.5 35.8333 9 35.8333 10.8333V29.1667C35.8333 31 34.3333 32.5 32.5 32.5H7.49996C5.66663 32.5 4.16663 31 4.16663 29.1667Z" fill="white"/>
<path d="M35.8337 17.4997V15.833H25.8337C24.917 15.833 24.167 15.083 24.167 14.1663C24.167 13.2497 24.917 12.4997 25.8337 12.4997H26.667V10.833H25.8337C24.0003 10.833 22.5003 12.333 22.5003 14.1663C22.5003 15.9997 24.0003 17.4997 25.8337 17.4997H28.3337V22.4997H25.8337C23.5003 22.4997 21.667 24.333 21.667 26.6663C21.667 28.9997 23.5003 30.833 25.8337 30.833H27.5003V29.1663H25.8337C24.417 29.1663 23.3337 28.083 23.3337 26.6663C23.3337 25.2497 24.417 24.1663 25.8337 24.1663H35.8337V22.4997H30.0003V17.4997H35.8337ZM14.167 22.4997H11.667V17.4997H14.167C16.0003 17.4997 17.5003 15.9997 17.5003 14.1663C17.5003 12.333 16.0003 10.833 14.167 10.833H11.667V12.4997H14.167C15.0837 12.4997 15.8337 13.2497 15.8337 14.1663C15.8337 15.083 15.0837 15.833 14.167 15.833H4.16699V17.4997H10.0003V22.4997H4.16699V24.1663H14.167C15.5837 24.1663 16.667 25.2497 16.667 26.6663C16.667 28.083 15.5837 29.1663 14.167 29.1663H12.5003V30.833H14.167C16.5003 30.833 18.3337 28.9997 18.3337 26.6663C18.3337 24.333 16.5003 22.4997 14.167 22.4997Z" fill="#8EB69B"/>
</svg>
