<svg width="312" height="56" viewBox="0 0 312 56" fill="none" xmlns="http://www.w3.org/2000/svg">
<g clip-path="url(#clip0_2331_21858)">
<rect width="312" height="56" rx="8" fill="url(#paint0_linear_2331_21858)" fill-opacity="0.8"/>
<path d="M137 27.8383C79.4 25.321 21.5 -10.0524 0 -27.2278L0.318792 -94.5941L0.5 -115.834L0 -165H0.5H360V-38.6343C358.833 -39.4209 348.9 -38.1623 318.5 -26.8344C280.5 -12.6746 209 30.985 137 27.8383Z" fill="url(#paint1_linear_2331_21858)"/>
<path d="M0 -14.4999C22.2167 3.12047 77.0467 35.2514 136.567 37.8339C210.967 41.0621 284.85 -3.72854 324.117 -18.2552C355.53 -29.8766 359.294 -30.8075 360.5 -30.0004" stroke="white" stroke-opacity="0.2" stroke-linecap="round" stroke-dasharray="6 6"/>
<path d="M295.622 37.3238C312.937 38.2849 330.225 49.0921 336.631 54.3157L336.294 74.5001L336.163 80.8638L336.138 95.5977L335.987 95.5959L227.86 94.3051L228.312 56.4409C228.66 56.6808 231.652 56.3394 240.836 53.0542C252.316 48.9478 273.977 36.1224 295.622 37.3238Z" fill="url(#paint2_linear_2331_21858)" fill-opacity="0.5"/>
<circle cx="-3.5" cy="0.5" r="26.5" fill="url(#paint3_linear_2331_21858)" fill-opacity="0.7"/>
</g>
<defs>
<linearGradient id="paint0_linear_2331_21858" x1="156" y1="0" x2="156" y2="56" gradientUnits="userSpaceOnUse">
<stop stop-color="#DEF2E1"/>
<stop offset="1" stop-color="#ACDDC0"/>
</linearGradient>
<linearGradient id="paint1_linear_2331_21858" x1="180" y1="-165" x2="180" y2="28" gradientUnits="userSpaceOnUse">
<stop stop-color="#ACDDC0"/>
<stop offset="0.893939" stop-color="#DEF2E1" stop-opacity="0.4"/>
</linearGradient>
<linearGradient id="paint2_linear_2331_21858" x1="281.999" y1="94.9514" x2="282.689" y2="37.121" gradientUnits="userSpaceOnUse">
<stop stop-color="#DEF2E1"/>
<stop offset="1" stop-color="#ACDDC0"/>
</linearGradient>
<linearGradient id="paint3_linear_2331_21858" x1="-3.5" y1="-26" x2="-3.5" y2="27" gradientUnits="userSpaceOnUse">
<stop stop-color="#DEF2E1"/>
<stop offset="1" stop-color="#ACDDC0"/>
</linearGradient>
<clipPath id="clip0_2331_21858">
<rect width="312" height="56" rx="8" fill="white"/>
</clipPath>
</defs>
</svg>
