<svg width="228" height="163" viewBox="0 0 228 163" fill="none" xmlns="http://www.w3.org/2000/svg">
<g opacity="0.7">
<path d="M41.6324 63.81C41.6324 63.81 26.3324 87.65 37.2098 123.61C48.0872 159.57 79.7033 168.74 98.4582 158.74C117.213 148.74 119.952 135.76 135.107 126.33C150.252 116.9 181.529 117.23 193.568 91.29C205.607 65.35 180.639 28.98 152.361 8.03997C124.074 -12.91 62.6904 11.87 41.6324 63.81Z" fill="#DAF1DE"/>
<path opacity="0.7" d="M41.6324 63.81C41.6324 63.81 26.3324 87.65 37.2098 123.61C48.0872 159.57 79.7033 168.74 98.4582 158.74C117.213 148.74 119.952 135.76 135.107 126.33C150.252 116.9 181.529 117.23 193.568 91.29C205.607 65.35 180.639 28.98 152.361 8.03997C124.074 -12.91 62.6904 11.87 41.6324 63.81Z" fill="#DAF1DE"/>
</g>
<g opacity="0.5">
<path d="M72.8806 92.8001L76.316 102.96L74.4773 102.51L73.3451 105.19L70.7031 104.19L68.7967 108.84L62.9902 105.63L60.8902 109.59L58.5483 108.55L55.8289 113.49L53.0128 111.52L47.5354 95.3401L64.8677 89.0701L72.8806 92.8001Z" fill="#8EB69B"/>
<path d="M64.8677 89.0701L72.8806 92.8001L66.8709 94.9701L64.8677 89.0701Z" fill="#7BA386"/>
<path d="M76.9839 105.01L82.0355 119.91L58.6839 128.36L53.6807 113.56L56.4968 115.53L59.2162 110.6L61.5581 111.63L63.6581 107.67L69.4549 110.88L71.371 106.24L74.0129 107.24L75.1452 104.55L76.9839 105.01Z" fill="#8EB69B"/>
</g>
<g opacity="0.5">
<path d="M167.642 75.9701L146.148 63.32L161.865 34.8L177.823 44.2001L180.368 52.89L167.642 75.9701Z" fill="#8EB69B"/>
<path d="M177.823 44.2L180.368 52.8899L174.832 49.63L177.823 44.2Z" fill="#7BA386"/>
<path d="M160.423 58.76L160.732 58.09C161.332 56.67 162.581 55.46 164.613 54.69C166.423 54.02 167.565 53.41 168.184 52.3C168.89 51.04 168.59 49.74 167.1 48.81C166.239 48.3 165.116 48.02 164.255 48.13L164.555 46.23C165.678 46.11 167.265 46.53 168.532 47.28C171.29 48.92 171.552 51.42 170.497 53.3C169.558 54.98 167.971 55.65 166.036 56.38C164.265 57.04 163.268 57.9 162.639 59.2L162.3 59.86L160.423 58.76ZM157.955 61.91C158.468 60.99 159.426 60.71 160.268 61.21C161.11 61.71 161.323 62.7 160.81 63.61C160.326 64.48 159.407 64.82 158.516 64.29C157.674 63.79 157.471 62.78 157.955 61.91Z" fill="#7BA386"/>
</g>
<path d="M180.494 35.39L148.994 31.47C147.658 31.3 147.019 29.65 147.861 28.53L166.578 3.65996C167.371 2.59996 168.949 2.78996 169.481 4.00996L182.255 32.8C182.845 34.09 181.839 35.56 180.494 35.39Z" fill="#221F1F"/>
<path d="M180.329 36.83L148.829 32.91C148.258 32.84 147.726 32.61 147.29 32.24C146.874 31.89 146.555 31.44 146.352 30.92C146.148 30.4 146.081 29.83 146.148 29.28C146.216 28.69 146.448 28.12 146.807 27.65L165.523 2.78003C166.19 1.89003 167.236 1.43003 168.3 1.56003H168.31C169.374 1.69003 170.274 2.38003 170.729 3.40003L183.503 32.19C183.978 33.26 183.861 34.53 183.203 35.5C182.545 36.45 181.442 36.97 180.329 36.83ZM167.971 4.41003C167.874 4.40003 167.748 4.41003 167.642 4.55003L148.926 29.42C148.819 29.57 148.839 29.71 148.877 29.8C148.916 29.89 148.994 30.01 149.168 30.03L180.668 33.95C180.842 33.97 180.948 33.88 181.007 33.79C181.065 33.71 181.113 33.57 181.045 33.4L168.271 4.61003C168.184 4.47003 168.068 4.42003 167.971 4.41003Z" fill="#45CE7C"/>
<path d="M180.494 35.39L148.994 31.47C147.658 31.3 147.019 29.65 147.861 28.53L166.578 3.65996C167.371 2.59996 168.949 2.78996 169.481 4.00996L182.255 32.8C182.845 34.09 181.839 35.56 180.494 35.39Z" fill="#45CE7C"/>
<path d="M180.426 35.99L148.926 32.07C148.094 31.97 147.397 31.41 147.087 30.59C146.768 29.77 146.894 28.86 147.416 28.16L166.132 3.28998C166.636 2.62998 167.4 2.28998 168.194 2.37998H168.203C168.987 2.47998 169.665 2.98998 170.003 3.74998L182.778 32.54C183.136 33.35 183.058 34.27 182.555 35C182.061 35.72 181.268 36.1 180.426 35.99ZM168.068 3.57998C167.661 3.52998 167.274 3.69998 167.023 4.03998L148.307 28.9C148.045 29.25 147.978 29.71 148.142 30.12C148.307 30.53 148.645 30.81 149.071 30.87L180.571 34.79C180.997 34.84 181.394 34.66 181.645 34.29C181.897 33.92 181.936 33.46 181.761 33.05L168.987 4.25998C168.803 3.87998 168.474 3.62998 168.068 3.57998Z" fill="#24663F"/>
<path d="M167.594 9.03008C166.21 8.86008 165.039 10.7701 165 12.8901L164.748 25.8601C164.739 26.1801 165.107 26.4701 165.561 26.5301C166.016 26.5901 166.432 26.3901 166.5 26.0801L169.229 13.4201C169.674 11.3501 168.978 9.20008 167.594 9.03008Z" fill="#24663F"/>
<path d="M165.329 29.82C166.083 29.82 166.694 29.1887 166.694 28.41C166.694 27.6313 166.083 27 165.329 27C164.576 27 163.965 27.6313 163.965 28.41C163.965 29.1887 164.576 29.82 165.329 29.82Z" fill="#24663F"/>
<path d="M147.165 16.0799V141.19C147.165 144.62 144.474 147.41 141.145 147.41H88.8292C85.5098 147.41 82.8098 144.63 82.8098 141.19V16.0799C82.8098 12.6499 85.5001 9.8699 88.8195 9.8699H111.271L111.29 9.9399C111.852 12.0199 113.139 13.3699 114.571 13.3699H115.394C116.826 13.3699 118.113 12.0199 118.674 9.9399L118.694 9.8699H141.145C144.465 9.8599 147.165 12.6499 147.165 16.0799Z" fill="white" stroke="#1A2E35" stroke-miterlimit="10"/>
<path d="M147.165 21.8999V16.0799C147.165 12.6499 144.474 9.85986 141.145 9.85986H118.694L118.674 9.92986C118.113 12.0099 116.826 13.3599 115.394 13.3599H114.571C113.139 13.3599 111.852 12.0099 111.29 9.92986L111.271 9.85986H88.8195C85.5001 9.85986 82.8098 12.6399 82.8098 16.0699V21.8899H147.165V21.8999Z" fill="#DAF1DE" stroke="#235347" stroke-miterlimit="10"/>
<path d="M151.258 45.9599V33.4599H150.165V13.2599C150.165 10.1299 147.716 7.59985 144.687 7.59985H85.3065C82.2775 7.59985 79.8291 10.1299 79.8291 13.2599V148.78C79.8291 151.91 82.2775 154.44 85.3065 154.44H144.687C147.716 154.44 150.165 151.91 150.165 148.78V56.6099H151.258V49.2299H150.165V45.9599H151.258ZM147.165 141.74C147.165 144.87 144.707 147.4 141.687 147.4H88.2968C85.2678 147.4 82.8194 144.86 82.8194 141.74V15.5199C82.8194 12.3899 85.2678 9.85985 88.2968 9.85985H111.29L111.31 9.92985C111.871 12.0099 113.158 13.3599 114.59 13.3599H115.413C116.845 13.3599 118.132 12.0099 118.694 9.92985L118.713 9.85985H141.697C144.726 9.85985 147.174 12.3999 147.174 15.5199V141.74H147.165Z" fill="#45CE7C" stroke="#235347" stroke-miterlimit="10" stroke-linecap="round" stroke-linejoin="round"/>
<path d="M143.226 8.96997H86.7389C83.526 8.96997 80.9131 11.66 80.9131 14.99V147.07C80.9131 150.39 83.5163 153.09 86.7389 153.09H143.226C146.439 153.09 149.052 150.4 149.052 147.07V14.98C149.052 11.66 146.449 8.96997 143.226 8.96997ZM147.165 141.38C147.165 144.7 144.552 147.4 141.339 147.4H88.6453C85.4324 147.4 82.8195 144.7 82.8195 141.38V15.88C82.8195 12.56 85.4228 9.85997 88.6453 9.85997H111.291L111.31 9.92997C111.871 12.01 113.158 13.36 114.591 13.36H115.413C116.845 13.36 118.132 12.01 118.694 9.92997L118.713 9.85997H141.349C144.561 9.85997 147.174 12.56 147.174 15.88V141.38H147.165Z" fill="#235347"/>
<path d="M115.684 10.3299C115.684 9.8199 115.287 9.3999 114.784 9.3999C114.29 9.3999 113.884 9.8099 113.884 10.3299C113.884 10.8399 114.281 11.2599 114.784 11.2599C115.287 11.2599 115.684 10.8399 115.684 10.3299Z" fill="white"/>
<path d="M88.8871 14.6396C88.8871 15.5796 87.8709 15.9096 87.8613 16.6296V16.6796H88.8484V16.9996H87.5322V16.7296C87.5322 15.7296 88.5484 15.5296 88.5484 14.6596C88.5484 14.3396 88.4419 14.1696 88.2 14.1696C87.958 14.1696 87.8516 14.3496 87.8516 14.6296V14.9096H87.5419V14.6596C87.5419 14.1896 87.7548 13.8696 88.2193 13.8696C88.6838 13.8596 88.8871 14.1696 88.8871 14.6396Z" fill="#1A2E35"/>
<path d="M90.5322 14.6396V14.7196C90.5322 15.0396 90.4064 15.2696 90.1645 15.3596C90.4161 15.4596 90.5322 15.6896 90.5322 15.9996V16.2396C90.5322 16.7096 90.3193 17.0296 89.8548 17.0296C89.4 17.0296 89.1774 16.7196 89.1774 16.2396V16.0296H89.4871V16.2696C89.4871 16.5496 89.6032 16.7196 89.8355 16.7196C90.0774 16.7196 90.1839 16.5596 90.1839 16.2396V15.9996C90.1839 15.6896 90.058 15.5496 89.8064 15.5396H89.6226V15.2296H89.8161C90.0387 15.2196 90.1742 15.0696 90.1742 14.7996V14.6596C90.1742 14.3396 90.0677 14.1796 89.8258 14.1796C89.5839 14.1796 89.4774 14.3496 89.4774 14.6296V14.7896H89.1677V14.6496C89.1677 14.1796 89.3806 13.8696 89.8451 13.8696C90.3193 13.8596 90.5322 14.1596 90.5322 14.6396Z" fill="#1A2E35"/>
<path d="M91.1902 14.8796V15.3096H90.8708V14.8796H91.1902ZM91.1902 16.5696V16.9996H90.8708V16.5696H91.1902Z" fill="#1A2E35"/>
<path d="M91.8677 15.1496C91.9644 14.9796 92.1096 14.8896 92.3128 14.8896C92.6999 14.8896 92.8741 15.1796 92.8741 15.6296V16.2396C92.8741 16.7096 92.6515 17.0296 92.1967 17.0296C91.7322 17.0296 91.5193 16.7196 91.5193 16.2396V16.0296H91.829V16.2596C91.829 16.5396 91.9451 16.7096 92.1773 16.7096C92.4096 16.7096 92.5257 16.5396 92.5257 16.2596V15.6596C92.5257 15.3796 92.4096 15.2096 92.1773 15.2096C91.9935 15.2096 91.8677 15.3196 91.8386 15.5396V15.6096H91.529L91.6064 13.8796H92.787V14.1896H91.9064L91.8677 15.1496Z" fill="#1A2E35"/>
<path d="M94.5386 14.6396V14.6996H94.2289V14.6196C94.2289 14.3396 94.1128 14.1796 93.8708 14.1796C93.6192 14.1796 93.5031 14.3496 93.5031 14.6796V15.3796C93.5805 15.1696 93.7451 15.0496 93.987 15.0496C94.3741 15.0496 94.5483 15.3396 94.5483 15.7896V16.2596C94.5483 16.7296 94.316 17.0496 93.8612 17.0496C93.3967 17.0496 93.1741 16.7396 93.1741 16.2596V14.6796C93.1741 14.1896 93.387 13.8796 93.8612 13.8796C94.3257 13.8596 94.5386 14.1596 94.5386 14.6396ZM93.5031 15.7996V16.2696C93.5031 16.5496 93.6192 16.7196 93.8612 16.7196C94.1031 16.7196 94.2192 16.5496 94.2192 16.2696V15.7996C94.2192 15.5196 94.1031 15.3496 93.8612 15.3496C93.6192 15.3496 93.5031 15.5196 93.5031 15.7996Z" fill="#1A2E35"/>
<path d="M127.365 14.7698H126.513V16.9598H127.365V14.7698Z" fill="#1A2E35"/>
<path d="M128.497 14.3298H127.645V16.9598H128.497V14.3298Z" fill="#1A2E35"/>
<path d="M129.629 14.0198H128.777V16.9598H129.629V14.0198Z" fill="#1A2E35"/>
<path d="M130.761 13.4797H129.91V16.9697H130.761V13.4797Z" fill="#1A2E35"/>
<path d="M141.271 16.8997H136.181V13.6797H141.271V16.8997ZM136.461 16.6097H140.99V13.9797H136.461V16.6097Z" fill="#1A2E35"/>
<path d="M139.568 14.2998H136.877V16.2998H139.568V14.2998Z" fill="#1A2E35"/>
<path d="M141.726 14.9197H141.087V15.6797H141.726V14.9197Z" fill="#1A2E35"/>
<path d="M134.303 16.2097C134.274 16.2097 134.236 16.1997 134.207 16.1797C133.171 15.5397 132.484 16.1297 132.455 16.1597C132.378 16.2297 132.252 16.2197 132.184 16.1397C132.116 16.0597 132.126 15.9397 132.203 15.8597C132.242 15.8297 133.113 15.0497 134.4 15.8397C134.487 15.8997 134.516 16.0197 134.468 16.1097C134.439 16.1697 134.371 16.2097 134.303 16.2097Z" fill="#1A2E35"/>
<path d="M134.69 15.5396C134.661 15.5396 134.623 15.5296 134.594 15.5096C133.094 14.5896 132.087 15.4796 132.077 15.4896C132 15.5596 131.874 15.5496 131.807 15.4696C131.739 15.3896 131.748 15.2596 131.826 15.1896C131.836 15.1796 133.055 14.0996 134.787 15.1696C134.874 15.2296 134.903 15.3496 134.855 15.4396C134.816 15.5096 134.758 15.5396 134.69 15.5396Z" fill="#1A2E35"/>
<path d="M135.039 14.7796C135.01 14.7796 134.971 14.7696 134.942 14.7496C133.045 13.5796 131.778 14.6796 131.729 14.7296C131.652 14.7996 131.526 14.7896 131.458 14.7096C131.39 14.6296 131.4 14.4996 131.478 14.4296C131.497 14.4196 132.987 13.0896 135.136 14.4096C135.223 14.4696 135.252 14.5896 135.203 14.6796C135.165 14.7496 135.107 14.7796 135.039 14.7796Z" fill="#1A2E35"/>
<path d="M133.732 16.5298C133.732 16.7998 133.519 17.0198 133.258 17.0198C132.997 17.0198 132.784 16.7998 132.784 16.5298C132.784 16.2598 132.997 16.0398 133.258 16.0398C133.519 16.0398 133.732 16.2598 133.732 16.5298Z" fill="#1A2E35"/>
<path d="M125.013 38.75H90.184C89.5744 38.75 89.0808 38.24 89.0808 37.61C89.0808 36.98 89.5744 36.47 90.184 36.47H125.013C125.623 36.47 126.116 36.98 126.116 37.61C126.116 38.24 125.623 38.75 125.013 38.75Z" fill="#A9B7AD"/>
<path d="M125.013 60.1198H90.184C89.5744 60.1198 89.0808 59.6098 89.0808 58.9798C89.0808 58.3498 89.5744 57.8398 90.184 57.8398H125.013C125.623 57.8398 126.116 58.3498 126.116 58.9798C126.116 59.6198 125.623 60.1198 125.013 60.1198Z" fill="#A9B7AD"/>
<path d="M125.013 82.5H90.184C89.5744 82.5 89.0808 81.99 89.0808 81.36C89.0808 80.73 89.5744 80.22 90.184 80.22H125.013C125.623 80.22 126.116 80.73 126.116 81.36C126.116 81.99 125.623 82.5 125.013 82.5Z" fill="#A9B7AD"/>
<path d="M125.013 104.88H90.184C89.5744 104.88 89.0808 104.37 89.0808 103.74C89.0808 103.11 89.5744 102.6 90.184 102.6H125.013C125.623 102.6 126.116 103.11 126.116 103.74C126.116 104.37 125.623 104.88 125.013 104.88Z" fill="#A9B7AD"/>
<path d="M125.013 129.26H90.184C89.5744 129.26 89.0808 128.75 89.0808 128.12C89.0808 127.49 89.5744 126.98 90.184 126.98H125.013C125.623 126.98 126.116 127.49 126.116 128.12C126.116 128.75 125.623 129.26 125.013 129.26Z" fill="#A9B7AD"/>
<path d="M108.368 33.9699H90.2421C89.6325 33.9699 89.1389 33.4599 89.1389 32.8299C89.1389 32.1999 89.6325 31.6899 90.2421 31.6899H108.368C108.978 31.6899 109.471 32.1999 109.471 32.8299C109.471 33.4599 108.978 33.9699 108.368 33.9699Z" fill="#9AEFBC"/>
<path d="M108.368 55.57H90.2421C89.6325 55.57 89.1389 55.06 89.1389 54.43C89.1389 53.8 89.6325 53.29 90.2421 53.29H108.368C108.978 53.29 109.471 53.8 109.471 54.43C109.471 55.06 108.978 55.57 108.368 55.57Z" fill="#9AEFBC"/>
<path d="M108.368 78.1699H90.2421C89.6325 78.1699 89.1389 77.6599 89.1389 77.0299C89.1389 76.3999 89.6325 75.8899 90.2421 75.8899H108.368C108.978 75.8899 109.471 76.3999 109.471 77.0299C109.471 77.6599 108.978 78.1699 108.368 78.1699Z" fill="#9AEFBC"/>
<path d="M108.368 100.77H90.2421C89.6325 100.77 89.1389 100.26 89.1389 99.63C89.1389 99 89.6325 98.49 90.2421 98.49H108.368C108.978 98.49 109.471 99 109.471 99.63C109.471 100.26 108.978 100.77 108.368 100.77Z" fill="#9AEFBC"/>
<path d="M108.368 125.37H90.2421C89.6325 125.37 89.1389 124.86 89.1389 124.23C89.1389 123.6 89.6325 123.09 90.2421 123.09H108.368C108.978 123.09 109.471 123.6 109.471 124.23C109.471 124.86 108.978 125.37 108.368 125.37Z" fill="#9AEFBC"/>
<path d="M125.013 42.4699H90.184C89.5744 42.4699 89.0808 41.9599 89.0808 41.3299C89.0808 40.6999 89.5744 40.1899 90.184 40.1899H125.013C125.623 40.1899 126.116 40.6999 126.116 41.3299C126.116 41.9599 125.623 42.4699 125.013 42.4699Z" fill="#A9B7AD"/>
<path d="M125.013 63.78H90.184C89.5744 63.78 89.0808 63.27 89.0808 62.64C89.0808 62.01 89.5744 61.5 90.184 61.5H125.013C125.623 61.5 126.116 62.01 126.116 62.64C126.116 63.27 125.623 63.78 125.013 63.78Z" fill="#A9B7AD"/>
<path d="M125.013 85.9699H90.184C89.5744 85.9699 89.0808 85.4599 89.0808 84.8299C89.0808 84.1999 89.5744 83.6899 90.184 83.6899H125.013C125.623 83.6899 126.116 84.1999 126.116 84.8299C126.116 85.4599 125.623 85.9699 125.013 85.9699Z" fill="#A9B7AD"/>
<path d="M125.013 108.73H90.184C89.5744 108.73 89.0808 108.22 89.0808 107.59C89.0808 106.96 89.5744 106.45 90.184 106.45H125.013C125.623 106.45 126.116 106.96 126.116 107.59C126.116 108.22 125.623 108.73 125.013 108.73Z" fill="#A9B7AD"/>
<path d="M125.013 133.14H90.184C89.5744 133.14 89.0808 132.63 89.0808 132C89.0808 131.37 89.5744 130.86 90.184 130.86H125.013C125.623 130.86 126.116 131.37 126.116 132C126.116 132.63 125.623 133.14 125.013 133.14Z" fill="#A9B7AD"/>
<path d="M137.371 133.87C134.903 133.69 133.055 131.47 133.229 128.93C133.403 126.38 135.552 124.47 138.01 124.65C140.478 124.83 142.326 127.05 142.152 129.59C141.978 132.13 139.839 134.05 137.371 133.87Z" fill="#45CE7C"/>
<path d="M139.307 126.56C139.713 127.01 139.849 127.67 139.587 128.31C139.2 129.25 138.174 129.68 138.058 130.74C138.049 130.82 138.039 130.91 138.019 131C137.923 131.27 137.652 131.44 137.381 131.38C137.09 131.33 136.897 131.11 136.916 130.81C136.974 129.52 137.536 129.23 138.203 128.39C138.358 128.19 138.484 127.93 138.494 127.68C138.561 126.61 136.5 126.74 136.887 128.3C136.955 128.57 136.868 128.88 136.587 128.99C136.297 129.11 135.949 129 135.823 128.71C135.455 127.88 135.929 126.73 136.607 126.28C137.429 125.7 138.658 125.85 139.307 126.56ZM136.868 132.27C136.868 131.99 137.119 131.76 137.429 131.75C137.719 131.74 137.99 131.97 137.99 132.25C137.99 132.52 137.739 132.76 137.448 132.76C137.11 132.76 136.868 132.55 136.868 132.27Z" fill="white"/>
<path d="M142.178 61.6738C143.01 59.2715 141.8 56.627 139.475 55.7672C137.15 54.9073 134.591 56.1577 133.759 58.5599C132.927 60.9622 134.137 63.6067 136.461 64.4666C138.786 65.3265 141.345 64.0761 142.178 61.6738Z" fill="#45CE7C"/>
<path d="M136.045 58.6099C135.842 58.3399 135.861 58.0599 136.065 57.8599C136.423 57.4999 136.887 57.7899 137.139 58.0899C137.4 58.3699 137.661 58.6599 137.961 58.9699C138.3 58.5599 138.639 58.2299 138.968 57.8799C139.152 57.7399 139.345 57.6699 139.606 57.7499C139.974 57.8599 140.148 58.2599 139.965 58.5599C139.926 58.6399 139.839 58.6999 139.79 58.7699C139.423 59.1699 139.074 59.5299 138.765 59.9499C139.2 60.4599 139.558 60.9399 139.974 61.3599C140.197 61.6199 140.206 61.8799 140.032 62.0899C139.829 62.3099 139.51 62.3699 139.219 62.1799C139.103 62.1099 138.977 61.9999 138.89 61.8899C138.629 61.5899 138.358 61.2799 138.048 60.9499C137.952 61.0899 137.865 61.2099 137.777 61.3299C137.545 61.6299 137.332 61.9599 137.09 62.2799C136.936 62.4899 136.703 62.5699 136.432 62.5099C136.055 62.4199 135.861 62.0899 135.977 61.7499C136.026 61.6699 136.074 61.5699 136.132 61.5099C136.51 60.9899 136.877 60.4799 137.265 59.9399C136.819 59.4699 136.384 59.0699 136.045 58.6099Z" fill="white"/>
<path d="M137.371 108.35C134.903 108.17 133.055 105.95 133.229 103.41C133.403 100.86 135.552 98.9499 138.01 99.1299C140.478 99.3099 142.326 101.53 142.152 104.07C141.978 106.62 139.839 108.54 137.371 108.35Z" fill="#45CE7C"/>
<path d="M139.307 101.04C139.713 101.49 139.849 102.15 139.587 102.79C139.2 103.73 138.174 104.16 138.058 105.22C138.049 105.3 138.039 105.39 138.019 105.48C137.923 105.75 137.652 105.92 137.381 105.86C137.09 105.81 136.897 105.59 136.916 105.29C136.974 104 137.536 103.71 138.203 102.87C138.358 102.67 138.484 102.41 138.494 102.16C138.561 101.09 136.5 101.22 136.887 102.78C136.955 103.05 136.868 103.36 136.587 103.47C136.297 103.59 135.949 103.48 135.823 103.19C135.455 102.36 135.929 101.21 136.607 100.76C137.429 100.19 138.658 100.33 139.307 101.04ZM136.868 106.75C136.868 106.47 137.119 106.24 137.429 106.23C137.719 106.22 137.99 106.45 137.99 106.73C137.99 107 137.739 107.24 137.448 107.24C137.11 107.25 136.868 107.03 136.868 106.75Z" fill="white"/>
<path d="M137.39 85.9798C134.923 85.7998 133.074 83.5798 133.248 81.0398C133.423 78.4898 135.571 76.5798 138.029 76.7598C140.497 76.9398 142.345 79.1598 142.171 81.6998C141.997 84.2398 139.848 86.1598 137.39 85.9798Z" fill="#45CE7C"/>
<path d="M139.316 78.6697C139.723 79.1197 139.858 79.7797 139.597 80.4197C139.21 81.3597 138.184 81.7897 138.068 82.8497C138.058 82.9297 138.048 83.0197 138.029 83.1097C137.932 83.3797 137.661 83.5497 137.39 83.4897C137.1 83.4397 136.906 83.2197 136.926 82.9197C136.984 81.6297 137.545 81.3397 138.213 80.4997C138.368 80.2997 138.494 80.0397 138.503 79.7897C138.571 78.7197 136.51 78.8497 136.897 80.4097C136.964 80.6797 136.877 80.9897 136.597 81.0997C136.306 81.2197 135.958 81.1097 135.832 80.8197C135.464 79.9897 135.939 78.8397 136.616 78.3897C137.448 77.8097 138.677 77.9497 139.316 78.6697ZM136.877 84.3697C136.877 84.0897 137.129 83.8597 137.439 83.8497C137.729 83.8397 138 84.0697 138 84.3497C138 84.6197 137.748 84.8597 137.458 84.8597C137.129 84.8697 136.877 84.6497 136.877 84.3697Z" fill="white"/>
<path d="M141.639 39.1602C142.471 36.7579 141.261 34.1134 138.936 33.2535C136.611 32.3936 134.052 33.644 133.22 36.0463C132.388 38.4486 133.598 41.0931 135.923 41.9529C138.248 42.8128 140.807 41.5624 141.639 39.1602Z" fill="#45CE7C"/>
<path d="M135.503 36.0897C135.3 35.8197 135.319 35.5397 135.523 35.3397C135.881 34.9797 136.345 35.2697 136.597 35.5697C136.858 35.8497 137.119 36.1397 137.419 36.4497C137.758 36.0397 138.097 35.7097 138.426 35.3597C138.61 35.2197 138.803 35.1497 139.064 35.2297C139.432 35.3397 139.606 35.7397 139.423 36.0397C139.384 36.1197 139.297 36.1797 139.248 36.2497C138.881 36.6497 138.532 37.0097 138.223 37.4297C138.658 37.9397 139.016 38.4197 139.432 38.8397C139.655 39.0997 139.664 39.3597 139.49 39.5697C139.287 39.7897 138.968 39.8497 138.677 39.6597C138.561 39.5897 138.435 39.4796 138.348 39.3696C138.087 39.0696 137.816 38.7597 137.506 38.4297C137.41 38.5697 137.323 38.6897 137.235 38.8097C137.003 39.1097 136.79 39.4396 136.548 39.7596C136.394 39.9696 136.161 40.0497 135.89 39.9897C135.513 39.8997 135.319 39.5697 135.435 39.2297C135.484 39.1497 135.532 39.0497 135.59 38.9897C135.968 38.4697 136.335 37.9596 136.723 37.4197C136.277 36.9597 135.832 36.5597 135.503 36.0897Z" fill="white"/>
<path d="M86.4967 154.4H54.1741L58.8483 127.01H91.1709L86.4967 154.4Z" fill="#FFC800"/>
<path d="M69.9094 124.17H59.332L58.8481 127.01H70.161L69.9094 124.17Z" fill="#FFC800"/>
<path d="M86.4967 154.4H54.1741L58.8483 127.01H91.1709L86.4967 154.4Z" fill="#3DB26C"/>
<path d="M69.9094 124.17H59.332L58.8481 127.01H70.161L69.9094 124.17Z" fill="#3DB26C"/>
<path d="M58.1902 125.33C57.8128 125.17 57.7257 125.01 57.7063 124.85C57.716 124.69 57.8031 124.53 58.1902 124.37C58.5773 124.53 58.6644 124.69 58.674 124.85C58.6547 125.01 58.5676 125.17 58.1902 125.33Z" fill="#1A2E35"/>
<path d="M57.2515 125.61C56.845 125.67 56.6902 125.58 56.6031 125.45C56.5353 125.31 56.5353 125.12 56.7869 124.79C57.1934 124.73 57.3482 124.82 57.4353 124.95C57.5031 125.09 57.5031 125.28 57.2515 125.61Z" fill="#1A2E35"/>
<path d="M56.5741 126.34C56.2548 126.6 56.0709 126.6 55.9354 126.53C55.8096 126.44 55.7225 126.28 55.7806 125.86C56.1096 125.6 56.2838 125.6 56.4193 125.67C56.5354 125.76 56.6322 125.92 56.5741 126.34Z" fill="#1A2E35"/>
<path d="M56.3321 127.32C56.1773 127.71 56.0224 127.8 55.8676 127.82C55.7128 127.81 55.5579 127.72 55.4031 127.32C55.5579 126.92 55.7128 126.83 55.8676 126.82C56.0321 126.84 56.1773 126.93 56.3321 127.32Z" fill="#1A2E35"/>
<path d="M56.6032 128.29C56.6613 128.71 56.5742 128.87 56.4483 128.96C56.3129 129.03 56.129 129.03 55.8096 128.77C55.7516 128.35 55.8387 128.19 55.9645 128.1C56.1096 128.03 56.2838 128.03 56.6032 128.29Z" fill="#1A2E35"/>
<path d="M57.3096 128.99C57.5612 129.32 57.5612 129.51 57.4934 129.65C57.4063 129.78 57.2515 129.87 56.8451 129.81C56.5934 129.47 56.5934 129.29 56.6612 129.15C56.758 129.03 56.9031 128.93 57.3096 128.99Z" fill="#1A2E35"/>
<path d="M58.2676 129.23C58.645 129.39 58.7321 129.55 58.7514 129.71C58.7418 129.87 58.6547 130.03 58.2676 130.19C57.8805 130.03 57.7934 129.87 57.7837 129.71C57.7934 129.55 57.8805 129.39 58.2676 129.23Z" fill="#1A2E35"/>
<path d="M59.2062 128.95C59.6127 128.89 59.7675 128.98 59.8546 129.11C59.9224 129.25 59.9224 129.44 59.6707 129.77C59.2643 129.83 59.1095 129.74 59.0224 129.61C58.9546 129.47 58.9449 129.29 59.2062 128.95Z" fill="#1A2E35"/>
<path d="M59.8836 128.23C60.203 127.97 60.3868 127.97 60.5223 128.04C60.6481 128.13 60.7352 128.29 60.6772 128.71C60.3481 128.97 60.1739 128.97 60.0385 128.9C59.9127 128.8 59.8256 128.65 59.8836 128.23Z" fill="#1A2E35"/>
<path d="M60.116 127.24C60.2708 126.85 60.4256 126.76 60.5805 126.74C60.7353 126.75 60.8902 126.84 61.045 127.24C60.8902 127.64 60.7353 127.73 60.5805 127.74C60.4256 127.73 60.2708 127.64 60.116 127.24Z" fill="#1A2E35"/>
<path d="M59.845 126.27C59.787 125.85 59.8741 125.69 59.9999 125.6C60.1354 125.53 60.3192 125.53 60.6386 125.79C60.6967 126.21 60.6096 126.37 60.4838 126.46C60.3483 126.53 60.1644 126.53 59.845 126.27Z" fill="#1A2E35"/>
<path d="M59.1385 125.57C58.8869 125.24 58.8869 125.05 58.9546 124.91C59.0417 124.78 59.1966 124.69 59.603 124.75C59.8546 125.09 59.8546 125.27 59.7869 125.41C59.6998 125.54 59.545 125.63 59.1385 125.57Z" fill="#1A2E35"/>
<path d="M86.4483 154.4H54.058L49.4612 128H81.8515L86.4483 154.4Z" fill="#45CE7C"/>
<path d="M60.6772 144.14C61.4201 144.14 62.0223 143.518 62.0223 142.75C62.0223 141.982 61.4201 141.36 60.6772 141.36C59.9343 141.36 59.332 141.982 59.332 142.75C59.332 143.518 59.9343 144.14 60.6772 144.14Z" fill="#1A2E35"/>
<path d="M71.3225 144.14C72.0654 144.14 72.6676 143.518 72.6676 142.75C72.6676 141.982 72.0654 141.36 71.3225 141.36C70.5795 141.36 69.9773 141.982 69.9773 142.75C69.9773 143.518 70.5795 144.14 71.3225 144.14Z" fill="#1A2E35"/>
<path d="M67.9353 144.36L67.8579 144.21C67.8482 144.2 67.1514 142.87 65.7579 142.87C64.4805 142.87 64.1708 144.12 64.1611 144.17L64.1224 144.33L63.8127 144.25L63.8514 144.09C63.8514 144.07 64.2289 142.53 65.7579 142.53C67.3547 142.53 68.1095 143.99 68.1386 144.05L68.216 144.2L67.9353 144.36Z" fill="#1A2E35"/>
<path d="M226.645 154.98C226.645 155.03 176.129 155.08 113.835 155.08C51.5226 155.08 1.01611 155.04 1.01611 154.98C1.01611 154.93 51.5129 154.88 113.835 154.88C176.139 154.88 226.645 154.93 226.645 154.98Z" stroke="#235347" stroke-miterlimit="10" stroke-linecap="round" stroke-linejoin="round"/>
</svg>
