<svg width="16" height="17" viewBox="0 0 16 17" fill="none" xmlns="http://www.w3.org/2000/svg">
<g clip-path="url(#clip0_2342_5674)">
<circle cx="7.99996" cy="8.49971" r="4.57647" stroke="#288C50" stroke-width="1.2"/>
<path d="M7.34532 9.34232L7.34556 9.3421C7.29864 9.29128 7.27763 9.22801 7.27763 9.16039V9.05686C7.27763 8.94776 7.2678 8.84905 7.24879 8.76033L7.24869 8.75986L7.24869 8.75986C7.23239 8.682 7.19361 8.61203 7.12853 8.54886L7.12746 8.54782L7.12746 8.54781C7.07485 8.4952 6.98655 8.45977 6.84272 8.45977H6.22837V9.16039C6.22837 9.23147 6.20104 9.2943 6.14945 9.34284C6.1003 9.39133 6.03825 9.41569 5.96963 9.41569C5.90038 9.41569 5.83784 9.39089 5.78848 9.34154M7.34532 9.34232L5.78848 9.34154M7.34532 9.34232L7.35121 9.34776M7.34532 9.34232L7.35121 9.34776M5.78848 9.34154C5.73913 9.29218 5.71433 9.22964 5.71433 9.16039V7.04839C5.71433 6.97977 5.73869 6.91771 5.78717 6.86857C5.83571 6.81698 5.89855 6.78965 5.96963 6.78965H6.7737C7.0978 6.78965 7.35946 6.85598 7.54127 7.00571C7.72165 7.15426 7.81237 7.3521 7.81237 7.5902C7.81237 7.74838 7.76718 7.89442 7.67785 8.02585C7.62754 8.10051 7.5644 8.16276 7.48964 8.21302C7.58086 8.27958 7.64888 8.37263 7.69209 8.49021C7.75798 8.66129 7.79166 8.83195 7.79166 9.00165V9.16039C7.79166 9.22964 7.76686 9.29218 7.71751 9.34154C7.66816 9.39089 7.60561 9.41569 7.53637 9.41569C7.46791 9.41569 7.40295 9.39552 7.35121 9.34776M5.78848 9.34154L7.35121 9.34776M10.1036 8.90847L10.1903 8.95824C10.2808 8.80058 10.3244 8.61956 10.3244 8.41843C10.3244 8.21771 10.281 8.03782 10.1905 7.8823C10.1042 7.72793 9.98833 7.60841 9.84238 7.52738C9.70126 7.44548 9.54969 7.40392 9.38925 7.40392C9.19904 7.40392 9.02707 7.45971 8.87507 7.56816C8.86194 7.54089 8.84356 7.51599 8.82021 7.49402C8.77106 7.44554 8.70901 7.42118 8.64039 7.42118C8.57115 7.42118 8.5086 7.44598 8.45925 7.49533C8.40989 7.54468 8.38509 7.60723 8.38509 7.67647V9.95067C8.38509 10.0193 8.40946 10.0813 8.45794 10.1305C8.50648 10.1821 8.56931 10.2094 8.64039 10.2094C8.71035 10.2094 8.77458 10.1857 8.82498 10.1353C8.87538 10.0849 8.89913 10.0206 8.89913 9.95067V9.28533C9.04515 9.38285 9.20901 9.43294 9.38925 9.43294C9.54942 9.43294 9.70088 9.39268 9.84212 9.31308L9.84263 9.31279C9.98816 9.22963 10.1042 9.11033 10.1906 8.95777L10.1036 8.90847ZM10.1036 8.90847C10.0254 9.04651 9.92185 9.15234 9.79302 9.22596M10.1036 8.90847C10.1841 8.76813 10.2244 8.60479 10.2244 8.41843C10.2244 8.23208 10.1841 8.06988 10.1036 7.93184L9.79302 9.22596M9.79302 9.22596C9.66648 9.29728 9.53189 9.33294 9.38925 9.33294C9.20711 9.33294 9.04374 9.27589 8.89913 9.16178L9.79302 9.22596ZM7.16686 7.86244L7.16686 7.86244L7.1661 7.86296C7.07329 7.92606 6.93893 7.96298 6.753 7.96298H6.22837V7.28643H6.73574C6.97322 7.28643 7.1152 7.32381 7.18679 7.37709L7.18678 7.37709L7.18767 7.37774C7.26009 7.4304 7.29833 7.50449 7.29833 7.61435C7.29833 7.72402 7.25599 7.80302 7.16686 7.86244ZM9.08887 7.95917L9.08888 7.95917L9.08974 7.95873C9.16998 7.91763 9.25443 7.89726 9.34439 7.89726C9.49146 7.89726 9.60082 7.94296 9.68282 8.02861C9.76339 8.11276 9.81035 8.23781 9.81035 8.41843C9.81035 8.59905 9.76339 8.7241 9.68282 8.80826C9.60082 8.89391 9.49146 8.93961 9.34439 8.93961C9.25411 8.93961 9.16948 8.92022 9.08931 8.88135C9.01925 8.8444 8.95592 8.79765 8.89913 8.74078V8.09615C8.95587 8.03958 9.01906 7.99407 9.08887 7.95917ZM8.79913 9.20871V9.95067C8.79913 9.99668 8.78418 10.0346 8.75427 10.0645C8.72436 10.0945 8.6864 10.1094 8.64039 10.1094C8.59668 10.1094 8.55986 10.0933 8.52996 10.0611C8.50005 10.0312 8.48509 9.99438 8.48509 9.95067V7.67647C8.48509 7.63276 8.50005 7.59595 8.52996 7.56604C8.55986 7.53613 8.59668 7.52118 8.64039 7.52118L8.79913 9.20871Z" fill="#288C50" stroke="#288C50" stroke-width="0.2"/>
<path d="M14.5882 8.50016C14.5882 1.44132 5.64707 -0.441033 2.35296 5.20602" stroke="#288C50" stroke-linecap="round"/>
<path d="M1.88232 4.26855L1.88585 5.77831C1.88603 5.85337 1.96575 5.90148 2.03225 5.86666L3.29409 5.20582" stroke="#288C50" stroke-linecap="round"/>
<path d="M1.41176 8.84164C1.41175 15.9005 10.3529 17.7828 13.647 12.1358" stroke="#288C50" stroke-linecap="round"/>
<path d="M14.1177 13.0732L14.1141 11.5635C14.114 11.4884 14.0342 11.4403 13.9678 11.4751L12.7059 12.136" stroke="#288C50" stroke-linecap="round"/>
</g>
<defs>
<clipPath id="clip0_2342_5674">
<rect width="16" height="16" fill="white" transform="translate(0 0.5)"/>
</clipPath>
</defs>
</svg>
