<svg width="25" height="24" viewBox="0 0 25 24" fill="none" xmlns="http://www.w3.org/2000/svg">
<path fill-rule="evenodd" clip-rule="evenodd" d="M2.5 3.57434C2.5 3.1568 2.66587 2.75636 2.96111 2.46111C3.25636 2.16587 3.6568 2 4.07434 2H8.27259C8.69014 2 9.09058 2.16587 9.38582 2.46111C9.68107 2.75636 9.84694 3.1568 9.84694 3.57434V7.77259C9.84694 8.19014 9.68107 8.59058 9.38582 8.88582C9.09058 9.18107 8.69014 9.34694 8.27259 9.34694H4.07434C3.6568 9.34694 3.25636 9.18107 2.96111 8.88582C2.66587 8.59058 2.5 8.19014 2.5 7.77259V3.57434ZM4.07434 3.04956C3.93516 3.04956 3.80168 3.10485 3.70327 3.20327C3.60485 3.30168 3.54956 3.43516 3.54956 3.57434V7.77259C3.54956 7.91178 3.60485 8.04526 3.70327 8.14367C3.80168 8.24209 3.93516 8.29738 4.07434 8.29738H8.27259C8.41178 8.29738 8.54526 8.24209 8.64367 8.14367C8.74209 8.04526 8.79738 7.91178 8.79738 7.77259V3.57434C8.79738 3.43516 8.74209 3.30168 8.64367 3.20327C8.54526 3.10485 8.41178 3.04956 8.27259 3.04956H4.07434ZM6.69825 6.19825H5.64869V5.14869H6.69825V6.19825Z" fill="white"/>
<path fill-rule="evenodd" clip-rule="evenodd" d="M15.7246 3.57434C15.7246 3.1568 15.8905 2.75636 16.1857 2.46111C16.481 2.16587 16.8814 2 17.299 2H21.4972C21.9147 2 22.3152 2.16587 22.6104 2.46111C22.9057 2.75636 23.0715 3.1568 23.0715 3.57434V7.77259C23.0715 8.19014 22.9057 8.59058 22.6104 8.88582C22.3152 9.18107 21.9147 9.34694 21.4972 9.34694H17.299C16.8814 9.34694 16.481 9.18107 16.1857 8.88582C15.8905 8.59058 15.7246 8.19014 15.7246 7.77259V3.57434ZM17.299 3.04956C17.1598 3.04956 17.0263 3.10485 16.9279 3.20327C16.8295 3.30168 16.7742 3.43516 16.7742 3.57434V7.77259C16.7742 7.91178 16.8295 8.04526 16.9279 8.14367C17.0263 8.24209 17.1598 8.29738 17.299 8.29738H21.4972C21.6364 8.29738 21.7699 8.24209 21.8683 8.14367C21.9667 8.04526 22.022 7.91178 22.022 7.77259V3.57434C22.022 3.43516 21.9667 3.30168 21.8683 3.20327C21.7699 3.10485 21.6364 3.04956 21.4972 3.04956H17.299ZM19.9229 6.19825H18.8733V5.14869H19.9229V6.19825Z" fill="white"/>
<path fill-rule="evenodd" clip-rule="evenodd" d="M15.7246 16.799C15.7246 16.3814 15.8905 15.981 16.1857 15.6857C16.481 15.3905 16.8814 15.2246 17.299 15.2246H21.4972C21.9147 15.2246 22.3152 15.3905 22.6104 15.6857C22.9057 15.981 23.0715 16.3814 23.0715 16.799V20.9972C23.0715 21.4147 22.9057 21.8152 22.6104 22.1104C22.3152 22.4057 21.9147 22.5715 21.4972 22.5715H17.299C16.8814 22.5715 16.481 22.4057 16.1857 22.1104C15.8905 21.8152 15.7246 21.4147 15.7246 20.9972V16.799ZM17.299 16.2742C17.1598 16.2742 17.0263 16.3295 16.9279 16.4279C16.8295 16.5263 16.7742 16.6598 16.7742 16.799V20.9972C16.7742 21.1364 16.8295 21.2699 16.9279 21.3683C17.0263 21.4667 17.1598 21.522 17.299 21.522H21.4972C21.6364 21.522 21.7699 21.4667 21.8683 21.3683C21.9667 21.2699 22.022 21.1364 22.022 20.9972V16.799C22.022 16.6598 21.9667 16.5263 21.8683 16.4279C21.7699 16.3295 21.6364 16.2742 21.4972 16.2742H17.299ZM19.9229 19.4229H18.8733V18.3733H19.9229V19.4229Z" fill="white"/>
<path fill-rule="evenodd" clip-rule="evenodd" d="M2.5 16.799C2.5 16.3814 2.66587 15.981 2.96111 15.6857C3.25636 15.3905 3.6568 15.2246 4.07434 15.2246H8.27259C8.69014 15.2246 9.09058 15.3905 9.38582 15.6857C9.68107 15.981 9.84694 16.3814 9.84694 16.799V20.9972C9.84694 21.4147 9.68107 21.8152 9.38582 22.1104C9.09058 22.4057 8.69014 22.5715 8.27259 22.5715H4.07434C3.6568 22.5715 3.25636 22.4057 2.96111 22.1104C2.66587 21.8152 2.5 21.4147 2.5 20.9972V16.799ZM4.07434 16.2742C3.93516 16.2742 3.80168 16.3295 3.70327 16.4279C3.60485 16.5263 3.54956 16.6598 3.54956 16.799V20.9972C3.54956 21.1364 3.60485 21.2699 3.70327 21.3683C3.80168 21.4667 3.93516 21.522 4.07434 21.522H8.27259C8.41178 21.522 8.54526 21.4667 8.64367 21.3683C8.74209 21.2699 8.79738 21.1364 8.79738 20.9972V16.799C8.79738 16.6598 8.74209 16.5263 8.64367 16.4279C8.54526 16.3295 8.41178 16.2742 8.27259 16.2742H4.07434ZM6.69825 19.4229H5.64869V18.3733H6.69825V19.4229Z" fill="white"/>
<path fill-rule="evenodd" clip-rule="evenodd" d="M12.7856 2.09277C13.0894 2.09277 13.3356 2.33902 13.3356 2.64277V10.0815C13.3356 11.6026 12.1026 12.8356 10.5815 12.8356H3.14277C2.83902 12.8356 2.59277 12.5894 2.59277 12.2856C2.59277 11.9819 2.83902 11.7356 3.14277 11.7356H10.5815C11.4951 11.7356 12.2356 10.9951 12.2356 10.0815V2.64277C12.2356 2.33902 12.4819 2.09277 12.7856 2.09277ZM15.9091 12.2856C15.9091 11.9819 16.1553 11.7356 16.4591 11.7356H17.9285C18.2322 11.7356 18.4785 11.9819 18.4785 12.2856C18.4785 12.5894 18.2322 12.8356 17.9285 12.8356H16.4591C16.1553 12.8356 15.9091 12.5894 15.9091 12.2856ZM18.8479 12.2856C18.8479 11.9819 19.0941 11.7356 19.3979 11.7356H22.3367C22.6404 11.7356 22.8867 11.9819 22.8867 12.2856C22.8867 12.5894 22.6404 12.8356 22.3367 12.8356H19.3979C19.0941 12.8356 18.8479 12.5894 18.8479 12.2856ZM12.7856 15.4091C13.0894 15.4091 13.3356 15.6553 13.3356 15.9591V21.8367C13.3356 22.1404 13.0894 22.3867 12.7856 22.3867C12.4819 22.3867 12.2356 22.1404 12.2356 21.8367V15.9591C12.2356 15.6553 12.4819 15.4091 12.7856 15.4091Z" fill="white"/>
</svg>
