<svg width="312" height="132" viewBox="0 0 312 132" fill="none" xmlns="http://www.w3.org/2000/svg">
<rect width="82" height="36" rx="8" fill="#F5F9F6"/>
<circle cx="20" cy="18" r="8" fill="#51BD7E"/>
<path d="M24 15L18.5 20.5L16 18" stroke="white" stroke-width="1.5" stroke-linecap="round" stroke-linejoin="round"/>
<path d="M39.6078 22.132C39.0432 22.132 38.5518 22.0293 38.1338 21.824C37.7158 21.6187 37.3932 21.3327 37.1658 20.966C36.9385 20.5993 36.8248 20.174 36.8248 19.69H37.7928C37.7928 19.9907 37.8625 20.2693 38.0018 20.526C38.1412 20.7753 38.3428 20.977 38.6068 21.131C38.8782 21.2777 39.2118 21.351 39.6078 21.351C40.1285 21.351 40.5318 21.2263 40.8178 20.977C41.1038 20.7277 41.2468 20.416 41.2468 20.042C41.2468 19.734 41.1808 19.4883 41.0488 19.305C40.9168 19.1143 40.7372 18.9603 40.5098 18.843C40.2898 18.7257 40.0332 18.623 39.7398 18.535C39.4538 18.447 39.1532 18.348 38.8378 18.238C38.2438 18.0327 37.8038 17.7797 37.5178 17.479C37.2318 17.171 37.0888 16.7713 37.0888 16.28C37.0815 15.8693 37.1768 15.5063 37.3748 15.191C37.5728 14.8683 37.8515 14.619 38.2108 14.443C38.5775 14.2597 39.0102 14.168 39.5088 14.168C40.0002 14.168 40.4255 14.2597 40.7848 14.443C41.1515 14.6263 41.4338 14.8793 41.6318 15.202C41.8372 15.5247 41.9435 15.8913 41.9508 16.302H40.9828C40.9828 16.0893 40.9278 15.8803 40.8178 15.675C40.7078 15.4623 40.5392 15.29 40.3118 15.158C40.0918 15.026 39.8132 14.96 39.4758 14.96C39.0578 14.9527 38.7132 15.059 38.4418 15.279C38.1778 15.499 38.0458 15.8033 38.0458 16.192C38.0458 16.522 38.1375 16.775 38.3208 16.951C38.5115 17.127 38.7755 17.2737 39.1128 17.391C39.4502 17.501 39.8388 17.6293 40.2788 17.776C40.6455 17.908 40.9755 18.062 41.2688 18.238C41.5622 18.414 41.7895 18.6413 41.9508 18.92C42.1195 19.1987 42.2038 19.5543 42.2038 19.987C42.2038 20.3537 42.1085 20.702 41.9178 21.032C41.7272 21.3547 41.4375 21.6187 41.0488 21.824C40.6675 22.0293 40.1872 22.132 39.6078 22.132ZM45.1356 22V15.059H42.8366V14.3H48.3586V15.059H46.0596V22H45.1356ZM49.4869 22V14.3H50.4109L54.5139 20.471V14.3H55.4379V22H54.5139L50.4109 15.829V22H49.4869ZM57.0708 22V14.3H57.9948V17.787L61.2068 14.3H62.3728L59.5128 17.369L62.4168 22H61.2948L58.8528 18.084L57.9948 18.997V22H57.0708Z" fill="#333333"/>
<rect x="90" width="82" height="36" rx="8" fill="#F5F9F6"/>
<circle cx="110" cy="18" r="8" fill="#51BD7E"/>
<path d="M114 15L108.5 20.5L106 18" stroke="white" stroke-width="1.5" stroke-linecap="round" stroke-linejoin="round"/>
<path d="M127.311 22V14.3H130.017C130.559 14.3 131.007 14.388 131.359 14.564C131.718 14.7327 131.986 14.9673 132.162 15.268C132.338 15.5613 132.426 15.8913 132.426 16.258C132.426 16.7567 132.29 17.149 132.019 17.435C131.755 17.721 131.436 17.919 131.062 18.029C131.348 18.0803 131.608 18.194 131.843 18.37C132.077 18.546 132.261 18.766 132.393 19.03C132.532 19.294 132.602 19.5837 132.602 19.899C132.602 20.2877 132.506 20.6433 132.316 20.966C132.125 21.2813 131.843 21.5343 131.469 21.725C131.095 21.9083 130.64 22 130.105 22H127.311ZM128.235 17.666H129.951C130.442 17.666 130.82 17.5523 131.084 17.325C131.348 17.0903 131.48 16.7677 131.48 16.357C131.48 15.9683 131.348 15.6567 131.084 15.422C130.827 15.1873 130.438 15.07 129.918 15.07H128.235V17.666ZM128.235 21.23H130.006C130.534 21.23 130.941 21.109 131.227 20.867C131.513 20.6177 131.656 20.273 131.656 19.833C131.656 19.4003 131.505 19.0557 131.205 18.799C130.904 18.535 130.497 18.403 129.984 18.403H128.235V21.23ZM133.928 22V14.3H136.458C137.059 14.3 137.554 14.399 137.943 14.597C138.331 14.795 138.617 15.0627 138.801 15.4C138.991 15.7373 139.087 16.1187 139.087 16.544C139.087 16.962 138.995 17.3397 138.812 17.677C138.628 18.0143 138.342 18.2857 137.954 18.491C137.565 18.689 137.066 18.788 136.458 18.788H134.852V22H133.928ZM134.852 18.007H136.436C137.052 18.007 137.488 17.8787 137.745 17.622C138.009 17.358 138.141 16.9987 138.141 16.544C138.141 16.082 138.009 15.7227 137.745 15.466C137.488 15.202 137.052 15.07 136.436 15.07H134.852V18.007ZM140.298 22V14.3H141.222V17.787L144.434 14.3H145.6L142.74 17.369L145.644 22H144.522L142.08 18.084L141.222 18.997V22H140.298ZM146.7 22V14.3H149.406C149.949 14.3 150.396 14.388 150.748 14.564C151.108 14.7327 151.375 14.9673 151.551 15.268C151.727 15.5613 151.815 15.8913 151.815 16.258C151.815 16.7567 151.68 17.149 151.408 17.435C151.144 17.721 150.825 17.919 150.451 18.029C150.737 18.0803 150.998 18.194 151.232 18.37C151.467 18.546 151.65 18.766 151.782 19.03C151.922 19.294 151.991 19.5837 151.991 19.899C151.991 20.2877 151.896 20.6433 151.705 20.966C151.515 21.2813 151.232 21.5343 150.858 21.725C150.484 21.9083 150.03 22 149.494 22H146.7ZM147.624 17.666H149.34C149.832 17.666 150.209 17.5523 150.473 17.325C150.737 17.0903 150.869 16.7677 150.869 16.357C150.869 15.9683 150.737 15.6567 150.473 15.422C150.217 15.1873 149.828 15.07 149.307 15.07H147.624V17.666ZM147.624 21.23H149.395C149.923 21.23 150.33 21.109 150.616 20.867C150.902 20.6177 151.045 20.273 151.045 19.833C151.045 19.4003 150.895 19.0557 150.594 18.799C150.294 18.535 149.887 18.403 149.373 18.403H147.624V21.23Z" fill="#333333"/>
<rect x="180" width="132" height="36" rx="8" fill="#F5F9F6"/>
<circle cx="200" cy="18" r="8" fill="#51BD7E"/>
<path d="M204 15L198.5 20.5L196 18" stroke="white" stroke-width="1.5" stroke-linecap="round" stroke-linejoin="round"/>
<path d="M217.081 22V14.3H221.767V15.059H218.005V17.765H221.206V18.513H218.005V22H217.081ZM224.341 22.132C223.886 22.132 223.508 22.055 223.208 21.901C222.907 21.747 222.683 21.5417 222.537 21.285C222.39 21.0283 222.317 20.7497 222.317 20.449C222.317 19.8917 222.529 19.4627 222.955 19.162C223.38 18.8613 223.959 18.711 224.693 18.711H226.167V18.645C226.167 18.1683 226.042 17.809 225.793 17.567C225.543 17.3177 225.21 17.193 224.792 17.193C224.432 17.193 224.121 17.2847 223.857 17.468C223.6 17.644 223.439 17.9043 223.373 18.249H222.427C222.463 17.853 222.595 17.5193 222.823 17.248C223.057 16.9767 223.347 16.7713 223.692 16.632C224.036 16.4853 224.403 16.412 224.792 16.412C225.554 16.412 226.126 16.6173 226.508 17.028C226.896 17.4313 227.091 17.9703 227.091 18.645V22H226.266L226.211 21.021C226.057 21.329 225.829 21.593 225.529 21.813C225.235 22.0257 224.839 22.132 224.341 22.132ZM224.484 21.351C224.836 21.351 225.136 21.2593 225.386 21.076C225.642 20.8927 225.837 20.6543 225.969 20.361C226.101 20.0677 226.167 19.7597 226.167 19.437V19.426H224.77C224.227 19.426 223.842 19.5213 223.615 19.712C223.395 19.8953 223.285 20.1263 223.285 20.405C223.285 20.691 223.387 20.922 223.593 21.098C223.805 21.2667 224.102 21.351 224.484 21.351ZM228.477 22V14.08H229.401V18.843L231.634 16.544H232.767L230.347 19.008L233.075 22H231.898L229.401 19.173V22H228.477ZM236.176 22C235.677 22 235.285 21.879 234.999 21.637C234.713 21.395 234.57 20.9587 234.57 20.328V17.325H233.624V16.544H234.57L234.691 15.235H235.494V16.544H237.1V17.325H235.494V20.328C235.494 20.6727 235.563 20.9073 235.703 21.032C235.842 21.1493 236.088 21.208 236.44 21.208H237.012V22H236.176ZM240.265 22.132C239.619 22.132 239.106 21.9377 238.725 21.549C238.343 21.153 238.153 20.548 238.153 19.734V16.544H239.077V19.635C239.077 20.7717 239.542 21.34 240.474 21.34C240.95 21.34 241.343 21.1713 241.651 20.834C241.966 20.4893 242.124 20.0017 242.124 19.371V16.544H243.048V22H242.212L242.146 21.021C241.977 21.3657 241.724 21.637 241.387 21.835C241.057 22.033 240.683 22.132 240.265 22.132ZM244.569 22V16.544H245.405L245.482 17.589C245.65 17.2297 245.907 16.9437 246.252 16.731C246.596 16.5183 247.022 16.412 247.528 16.412V17.38H247.275C246.952 17.38 246.655 17.4387 246.384 17.556C246.112 17.666 245.896 17.8567 245.735 18.128C245.573 18.3993 245.493 18.7733 245.493 19.25V22H244.569ZM253.445 23.595C253.049 23.2137 252.682 22.759 252.345 22.231C252.007 21.7103 251.736 21.1237 251.531 20.471C251.333 19.811 251.234 19.0997 251.234 18.337C251.234 17.5743 251.333 16.8667 251.531 16.214C251.736 15.554 252.007 14.9637 252.345 14.443C252.682 13.915 253.049 13.4603 253.445 13.079H254.391V13.167C253.716 13.827 253.173 14.6007 252.763 15.488C252.359 16.368 252.158 17.3177 252.158 18.337C252.158 19.3563 252.363 20.3097 252.774 21.197C253.184 22.077 253.723 22.847 254.391 23.507V23.595H253.445ZM257.603 22.132C257.09 22.132 256.628 22.0147 256.217 21.78C255.807 21.5453 255.48 21.2153 255.238 20.79C255.004 20.3573 254.886 19.8513 254.886 19.272C254.886 18.6927 255.007 18.1903 255.249 17.765C255.491 17.3323 255.818 16.9987 256.228 16.764C256.646 16.5293 257.112 16.412 257.625 16.412C258.139 16.412 258.601 16.5293 259.011 16.764C259.422 16.9987 259.745 17.3323 259.979 17.765C260.221 18.1903 260.342 18.6927 260.342 19.272C260.342 19.8513 260.221 20.3573 259.979 20.79C259.737 21.2153 259.407 21.5453 258.989 21.78C258.579 22.0147 258.117 22.132 257.603 22.132ZM257.603 21.34C257.919 21.34 258.212 21.263 258.483 21.109C258.755 20.955 258.975 20.724 259.143 20.416C259.312 20.108 259.396 19.7267 259.396 19.272C259.396 18.8173 259.312 18.436 259.143 18.128C258.982 17.82 258.766 17.589 258.494 17.435C258.223 17.281 257.933 17.204 257.625 17.204C257.31 17.204 257.017 17.281 256.745 17.435C256.474 17.589 256.254 17.82 256.085 18.128C255.917 18.436 255.832 18.8173 255.832 19.272C255.832 19.7267 255.917 20.108 256.085 20.416C256.254 20.724 256.47 20.955 256.734 21.109C257.006 21.263 257.295 21.34 257.603 21.34ZM261.627 24.42V16.544H262.463L262.551 17.446C262.727 17.182 262.976 16.9437 263.299 16.731C263.629 16.5183 264.047 16.412 264.553 16.412C265.096 16.412 265.569 16.5367 265.972 16.786C266.375 17.0353 266.687 17.3763 266.907 17.809C267.134 18.2417 267.248 18.733 267.248 19.283C267.248 19.833 267.134 20.3243 266.907 20.757C266.687 21.1823 266.372 21.5197 265.961 21.769C265.558 22.011 265.085 22.132 264.542 22.132C264.095 22.132 263.695 22.0403 263.343 21.857C262.998 21.6737 262.734 21.417 262.551 21.087V24.42H261.627ZM264.443 21.329C264.81 21.329 265.132 21.2447 265.411 21.076C265.69 20.9 265.91 20.658 266.071 20.35C266.232 20.042 266.313 19.6827 266.313 19.272C266.313 18.8613 266.232 18.502 266.071 18.194C265.91 17.886 265.69 17.6477 265.411 17.479C265.132 17.303 264.81 17.215 264.443 17.215C264.076 17.215 263.754 17.303 263.475 17.479C263.196 17.6477 262.976 17.886 262.815 18.194C262.654 18.502 262.573 18.8613 262.573 19.272C262.573 19.6827 262.654 20.042 262.815 20.35C262.976 20.658 263.196 20.9 263.475 21.076C263.754 21.2447 264.076 21.329 264.443 21.329ZM270.476 22C269.977 22 269.585 21.879 269.299 21.637C269.013 21.395 268.87 20.9587 268.87 20.328V17.325H267.924V16.544H268.87L268.991 15.235H269.794V16.544H271.4V17.325H269.794V20.328C269.794 20.6727 269.863 20.9073 270.003 21.032C270.142 21.1493 270.388 21.208 270.74 21.208H271.312V22H270.476ZM273.134 15.334C272.951 15.334 272.797 15.2753 272.672 15.158C272.555 15.0333 272.496 14.8793 272.496 14.696C272.496 14.52 272.555 14.3733 272.672 14.256C272.797 14.1387 272.951 14.08 273.134 14.08C273.31 14.08 273.461 14.1387 273.585 14.256C273.71 14.3733 273.772 14.52 273.772 14.696C273.772 14.8793 273.71 15.0333 273.585 15.158C273.461 15.2753 273.31 15.334 273.134 15.334ZM272.672 22V16.544H273.596V22H272.672ZM277.691 22.132C277.178 22.132 276.716 22.0147 276.305 21.78C275.895 21.5453 275.568 21.2153 275.326 20.79C275.092 20.3573 274.974 19.8513 274.974 19.272C274.974 18.6927 275.095 18.1903 275.337 17.765C275.579 17.3323 275.906 16.9987 276.316 16.764C276.734 16.5293 277.2 16.412 277.713 16.412C278.227 16.412 278.689 16.5293 279.099 16.764C279.51 16.9987 279.833 17.3323 280.067 17.765C280.309 18.1903 280.43 18.6927 280.43 19.272C280.43 19.8513 280.309 20.3573 280.067 20.79C279.825 21.2153 279.495 21.5453 279.077 21.78C278.667 22.0147 278.205 22.132 277.691 22.132ZM277.691 21.34C278.007 21.34 278.3 21.263 278.571 21.109C278.843 20.955 279.063 20.724 279.231 20.416C279.4 20.108 279.484 19.7267 279.484 19.272C279.484 18.8173 279.4 18.436 279.231 18.128C279.07 17.82 278.854 17.589 278.582 17.435C278.311 17.281 278.021 17.204 277.713 17.204C277.398 17.204 277.105 17.281 276.833 17.435C276.562 17.589 276.342 17.82 276.173 18.128C276.005 18.436 275.92 18.8173 275.92 19.272C275.92 19.7267 276.005 20.108 276.173 20.416C276.342 20.724 276.558 20.955 276.822 21.109C277.094 21.263 277.383 21.34 277.691 21.34ZM281.715 22V16.544H282.551L282.606 17.523C282.782 17.1783 283.035 16.907 283.365 16.709C283.695 16.511 284.069 16.412 284.487 16.412C285.132 16.412 285.646 16.61 286.027 17.006C286.416 17.3947 286.61 17.996 286.61 18.81V22H285.686V18.909C285.686 17.7723 285.217 17.204 284.278 17.204C283.809 17.204 283.416 17.3763 283.101 17.721C282.793 18.0583 282.639 18.5423 282.639 19.173V22H281.715ZM289.825 22.132C289.37 22.132 288.993 22.055 288.692 21.901C288.391 21.747 288.168 21.5417 288.021 21.285C287.874 21.0283 287.801 20.7497 287.801 20.449C287.801 19.8917 288.014 19.4627 288.439 19.162C288.864 18.8613 289.444 18.711 290.177 18.711H291.651V18.645C291.651 18.1683 291.526 17.809 291.277 17.567C291.028 17.3177 290.694 17.193 290.276 17.193C289.917 17.193 289.605 17.2847 289.341 17.468C289.084 17.644 288.923 17.9043 288.857 18.249H287.911C287.948 17.853 288.08 17.5193 288.307 17.248C288.542 16.9767 288.831 16.7713 289.176 16.632C289.521 16.4853 289.887 16.412 290.276 16.412C291.039 16.412 291.611 16.6173 291.992 17.028C292.381 17.4313 292.575 17.9703 292.575 18.645V22H291.75L291.695 21.021C291.541 21.329 291.314 21.593 291.013 21.813C290.72 22.0257 290.324 22.132 289.825 22.132ZM289.968 21.351C290.32 21.351 290.621 21.2593 290.87 21.076C291.127 20.8927 291.321 20.6543 291.453 20.361C291.585 20.0677 291.651 19.7597 291.651 19.437V19.426H290.254C289.711 19.426 289.326 19.5213 289.099 19.712C288.879 19.8953 288.769 20.1263 288.769 20.405C288.769 20.691 288.872 20.922 289.077 21.098C289.29 21.2667 289.587 21.351 289.968 21.351ZM293.961 22V14.08H294.885V22H293.961ZM296.059 23.595V23.507C296.726 22.847 297.265 22.077 297.676 21.197C298.094 20.3097 298.303 19.3563 298.303 18.337C298.303 17.3177 298.097 16.368 297.687 15.488C297.276 14.6007 296.737 13.827 296.07 13.167V13.079H297.005C297.408 13.4603 297.775 13.915 298.105 14.443C298.442 14.9637 298.71 15.554 298.908 16.214C299.113 16.8667 299.216 17.5743 299.216 18.337C299.216 19.0997 299.113 19.811 298.908 20.471C298.71 21.1237 298.442 21.7103 298.105 22.231C297.775 22.759 297.408 23.2137 297.005 23.595H296.059Z" fill="#333333"/>
<rect y="48" width="174" height="36" rx="8" fill="#F5F9F6"/>
<circle cx="20" cy="66" r="8" fill="#51BD7E"/>
<path d="M24 63L18.5 68.5L16 66" stroke="white" stroke-width="1.5" stroke-linecap="round" stroke-linejoin="round"/>
<path d="M36.8682 70V62.3H37.7922V65.787L41.0042 62.3H42.1702L39.3102 65.369L42.2142 70H41.0922L38.6502 66.084L37.7922 66.997V70H36.8682ZM45.0745 70V63.059H42.7755V62.3H48.2975V63.059H45.9985V70H45.0745ZM49.4258 70V62.3H51.9558C52.5571 62.3 53.0521 62.399 53.4408 62.597C53.8295 62.795 54.1155 63.0627 54.2988 63.4C54.4895 63.7373 54.5848 64.1187 54.5848 64.544C54.5848 64.962 54.4932 65.3397 54.3098 65.677C54.1265 66.0143 53.8405 66.2857 53.4518 66.491C53.0632 66.689 52.5645 66.788 51.9558 66.788H50.3498V70H49.4258ZM50.3498 66.007H51.9338C52.5498 66.007 52.9861 65.8787 53.2428 65.622C53.5068 65.358 53.6388 64.9987 53.6388 64.544C53.6388 64.082 53.5068 63.7227 53.2428 63.466C52.9861 63.202 52.5498 63.07 51.9338 63.07H50.3498V66.007ZM58.7071 70V62.3H61.2371C61.8384 62.3 62.3334 62.399 62.7221 62.597C63.1107 62.795 63.3967 63.0627 63.5801 63.4C63.7707 63.7373 63.8661 64.1187 63.8661 64.544C63.8661 64.962 63.7744 65.3397 63.5911 65.677C63.4077 66.0143 63.1217 66.2857 62.7331 66.491C62.3444 66.689 61.8457 66.788 61.2371 66.788H59.6311V70H58.7071ZM59.6311 66.007H61.2151C61.8311 66.007 62.2674 65.8787 62.5241 65.622C62.7881 65.358 62.9201 64.9987 62.9201 64.544C62.9201 64.082 62.7881 63.7227 62.5241 63.466C62.2674 63.202 61.8311 63.07 61.2151 63.07H59.6311V66.007ZM66.5794 70.132C66.1247 70.132 65.747 70.055 65.4464 69.901C65.1457 69.747 64.922 69.5417 64.7754 69.285C64.6287 69.0283 64.5554 68.7497 64.5554 68.449C64.5554 67.8917 64.768 67.4627 65.1934 67.162C65.6187 66.8613 66.198 66.711 66.9314 66.711H68.4054V66.645C68.4054 66.1683 68.2807 65.809 68.0314 65.567C67.782 65.3177 67.4484 65.193 67.0304 65.193C66.671 65.193 66.3594 65.2847 66.0954 65.468C65.8387 65.644 65.6774 65.9043 65.6114 66.249H64.6654C64.702 65.853 64.834 65.5193 65.0614 65.248C65.296 64.9767 65.5857 64.7713 65.9304 64.632C66.275 64.4853 66.6417 64.412 67.0304 64.412C67.793 64.412 68.365 64.6173 68.7464 65.028C69.135 65.4313 69.3294 65.9703 69.3294 66.645V70H68.5044L68.4494 69.021C68.2954 69.329 68.068 69.593 67.7674 69.813C67.474 70.0257 67.078 70.132 66.5794 70.132ZM66.7224 69.351C67.0744 69.351 67.375 69.2593 67.6244 69.076C67.881 68.8927 68.0754 68.6543 68.2074 68.361C68.3394 68.0677 68.4054 67.7597 68.4054 67.437V67.426H67.0084C66.4657 67.426 66.0807 67.5213 65.8534 67.712C65.6334 67.8953 65.5234 68.1263 65.5234 68.405C65.5234 68.691 65.626 68.922 65.8314 69.098C66.044 69.2667 66.341 69.351 66.7224 69.351ZM72.8055 70.132C72.1529 70.132 71.6102 69.967 71.1775 69.637C70.7449 69.307 70.4919 68.8597 70.4185 68.295H71.3645C71.4232 68.581 71.5735 68.8303 71.8155 69.043C72.0649 69.2483 72.3985 69.351 72.8165 69.351C73.2052 69.351 73.4912 69.2703 73.6745 69.109C73.8579 68.9403 73.9495 68.7423 73.9495 68.515C73.9495 68.185 73.8285 67.965 73.5865 67.855C73.3519 67.745 73.0182 67.646 72.5855 67.558C72.2922 67.4993 71.9989 67.415 71.7055 67.305C71.4122 67.195 71.1665 67.041 70.9685 66.843C70.7705 66.6377 70.6715 66.37 70.6715 66.04C70.6715 65.5633 70.8475 65.1747 71.1995 64.874C71.5589 64.566 72.0429 64.412 72.6515 64.412C73.2309 64.412 73.7039 64.5587 74.0705 64.852C74.4445 65.138 74.6609 65.5487 74.7195 66.084H73.8065C73.7699 65.8053 73.6489 65.589 73.4435 65.435C73.2455 65.2737 72.9779 65.193 72.6405 65.193C72.3105 65.193 72.0539 65.2627 71.8705 65.402C71.6945 65.5413 71.6065 65.7247 71.6065 65.952C71.6065 66.172 71.7202 66.3443 71.9475 66.469C72.1822 66.5937 72.4975 66.7 72.8935 66.788C73.2309 66.8613 73.5499 66.953 73.8505 67.063C74.1585 67.1657 74.4079 67.3233 74.5985 67.536C74.7965 67.7413 74.8955 68.042 74.8955 68.438C74.9029 68.9293 74.7159 69.3363 74.3345 69.659C73.9605 69.9743 73.4509 70.132 72.8055 70.132ZM78.0305 70.132C77.5759 70.132 77.1982 70.055 76.8975 69.901C76.5969 69.747 76.3732 69.5417 76.2265 69.285C76.0799 69.0283 76.0065 68.7497 76.0065 68.449C76.0065 67.8917 76.2192 67.4627 76.6445 67.162C77.0699 66.8613 77.6492 66.711 78.3825 66.711H79.8565V66.645C79.8565 66.1683 79.7319 65.809 79.4825 65.567C79.2332 65.3177 78.8995 65.193 78.4815 65.193C78.1222 65.193 77.8105 65.2847 77.5465 65.468C77.2899 65.644 77.1285 65.9043 77.0625 66.249H76.1165C76.1532 65.853 76.2852 65.5193 76.5125 65.248C76.7472 64.9767 77.0369 64.7713 77.3815 64.632C77.7262 64.4853 78.0929 64.412 78.4815 64.412C79.2442 64.412 79.8162 64.6173 80.1975 65.028C80.5862 65.4313 80.7805 65.9703 80.7805 66.645V70H79.9555L79.9005 69.021C79.7465 69.329 79.5192 69.593 79.2185 69.813C78.9252 70.0257 78.5292 70.132 78.0305 70.132ZM78.1735 69.351C78.5255 69.351 78.8262 69.2593 79.0755 69.076C79.3322 68.8927 79.5265 68.6543 79.6585 68.361C79.7905 68.0677 79.8565 67.7597 79.8565 67.437V67.426H78.4595C77.9169 67.426 77.5319 67.5213 77.3045 67.712C77.0845 67.8953 76.9745 68.1263 76.9745 68.405C76.9745 68.691 77.0772 68.922 77.2825 69.098C77.4952 69.2667 77.7922 69.351 78.1735 69.351ZM82.1667 70V64.544H83.0027L83.0577 65.523C83.2337 65.1783 83.4867 64.907 83.8167 64.709C84.1467 64.511 84.5207 64.412 84.9387 64.412C85.584 64.412 86.0974 64.61 86.4787 65.006C86.8674 65.3947 87.0617 65.996 87.0617 66.81V70H86.1377V66.909C86.1377 65.7723 85.6684 65.204 84.7297 65.204C84.2604 65.204 83.868 65.3763 83.5527 65.721C83.2447 66.0583 83.0907 66.5423 83.0907 67.173V70H82.1667ZM90.6176 68.284C90.3096 68.284 90.0273 68.2437 89.7706 68.163L89.2206 68.68C89.3013 68.7387 89.4003 68.79 89.5176 68.834C89.6423 68.8707 89.8183 68.9073 90.0456 68.944C90.273 68.9733 90.592 69.0063 91.0026 69.043C91.736 69.0943 92.2603 69.263 92.5756 69.549C92.891 69.835 93.0486 70.209 93.0486 70.671C93.0486 70.9863 92.9606 71.287 92.7846 71.573C92.616 71.859 92.352 72.0937 91.9926 72.277C91.6406 72.4603 91.186 72.552 90.6286 72.552C90.1373 72.552 89.701 72.486 89.3196 72.354C88.9383 72.2293 88.6413 72.035 88.4286 71.771C88.216 71.5143 88.1096 71.188 88.1096 70.792C88.1096 70.5867 88.1646 70.363 88.2746 70.121C88.3846 69.8863 88.59 69.6627 88.8906 69.45C88.7293 69.384 88.59 69.3143 88.4726 69.241C88.3626 69.1603 88.26 69.0723 88.1646 68.977V68.724L89.0996 67.8C88.667 67.4333 88.4506 66.9493 88.4506 66.348C88.4506 65.9887 88.535 65.6623 88.7036 65.369C88.8723 65.0757 89.118 64.8447 89.4406 64.676C89.7633 64.5 90.1556 64.412 90.6176 64.412C90.933 64.412 91.219 64.456 91.4756 64.544H93.4886V65.237L92.4656 65.281C92.6783 65.589 92.7846 65.9447 92.7846 66.348C92.7846 66.7073 92.6966 67.0337 92.5206 67.327C92.352 67.6203 92.1063 67.855 91.7836 68.031C91.4683 68.1997 91.0796 68.284 90.6176 68.284ZM90.6176 67.525C91.0063 67.525 91.3143 67.426 91.5416 67.228C91.7763 67.0227 91.8936 66.7293 91.8936 66.348C91.8936 65.974 91.7763 65.688 91.5416 65.49C91.3143 65.2847 91.0063 65.182 90.6176 65.182C90.2216 65.182 89.9063 65.2847 89.6716 65.49C89.4443 65.688 89.3306 65.974 89.3306 66.348C89.3306 66.7293 89.4443 67.0227 89.6716 67.228C89.9063 67.426 90.2216 67.525 90.6176 67.525ZM89.0116 70.704C89.0116 71.0707 89.1656 71.342 89.4736 71.518C89.7816 71.7013 90.1666 71.793 90.6286 71.793C91.0833 71.793 91.4463 71.694 91.7176 71.496C91.9963 71.298 92.1356 71.034 92.1356 70.704C92.1356 70.4693 92.0403 70.264 91.8496 70.088C91.659 69.9193 91.307 69.8203 90.7936 69.791C90.3903 69.7617 90.042 69.725 89.7486 69.681C89.448 69.8423 89.25 70.0147 89.1546 70.198C89.0593 70.3887 89.0116 70.5573 89.0116 70.704ZM96.346 70.132C95.8913 70.132 95.5136 70.055 95.213 69.901C94.9123 69.747 94.6886 69.5417 94.542 69.285C94.3953 69.0283 94.322 68.7497 94.322 68.449C94.322 67.8917 94.5346 67.4627 94.96 67.162C95.3853 66.8613 95.9646 66.711 96.698 66.711H98.172V66.645C98.172 66.1683 98.0473 65.809 97.798 65.567C97.5486 65.3177 97.215 65.193 96.797 65.193C96.4376 65.193 96.126 65.2847 95.862 65.468C95.6053 65.644 95.444 65.9043 95.378 66.249H94.432C94.4686 65.853 94.6006 65.5193 94.828 65.248C95.0626 64.9767 95.3523 64.7713 95.697 64.632C96.0416 64.4853 96.4083 64.412 96.797 64.412C97.5596 64.412 98.1316 64.6173 98.513 65.028C98.9016 65.4313 99.096 65.9703 99.096 66.645V70H98.271L98.216 69.021C98.062 69.329 97.8346 69.593 97.534 69.813C97.2406 70.0257 96.8446 70.132 96.346 70.132ZM96.489 69.351C96.841 69.351 97.1416 69.2593 97.391 69.076C97.6476 68.8927 97.842 68.6543 97.974 68.361C98.106 68.0677 98.172 67.7597 98.172 67.437V67.426H96.775C96.2323 67.426 95.8473 67.5213 95.62 67.712C95.4 67.8953 95.29 68.1263 95.29 68.405C95.29 68.691 95.3926 68.922 95.598 69.098C95.8106 69.2667 96.1076 69.351 96.489 69.351ZM100.482 70V64.544H101.318L101.373 65.523C101.549 65.1783 101.802 64.907 102.132 64.709C102.462 64.511 102.836 64.412 103.254 64.412C103.899 64.412 104.413 64.61 104.794 65.006C105.183 65.3947 105.377 65.996 105.377 66.81V70H104.453V66.909C104.453 65.7723 103.984 65.204 103.045 65.204C102.576 65.204 102.183 65.3763 101.868 65.721C101.56 66.0583 101.406 66.5423 101.406 67.173V70H100.482ZM111.657 71.595C111.261 71.2137 110.895 70.759 110.557 70.231C110.22 69.7103 109.949 69.1237 109.743 68.471C109.545 67.811 109.446 67.0997 109.446 66.337C109.446 65.5743 109.545 64.8667 109.743 64.214C109.949 63.554 110.22 62.9637 110.557 62.443C110.895 61.915 111.261 61.4603 111.657 61.079H112.603V61.167C111.929 61.827 111.386 62.6007 110.975 63.488C110.572 64.368 110.37 65.3177 110.37 66.337C110.37 67.3563 110.576 68.3097 110.986 69.197C111.397 70.077 111.936 70.847 112.603 71.507V71.595H111.657ZM115.816 70.132C115.302 70.132 114.84 70.0147 114.43 69.78C114.019 69.5453 113.693 69.2153 113.451 68.79C113.216 68.3573 113.099 67.8513 113.099 67.272C113.099 66.6927 113.22 66.1903 113.462 65.765C113.704 65.3323 114.03 64.9987 114.441 64.764C114.859 64.5293 115.324 64.412 115.838 64.412C116.351 64.412 116.813 64.5293 117.224 64.764C117.634 64.9987 117.957 65.3323 118.192 65.765C118.434 66.1903 118.555 66.6927 118.555 67.272C118.555 67.8513 118.434 68.3573 118.192 68.79C117.95 69.2153 117.62 69.5453 117.202 69.78C116.791 70.0147 116.329 70.132 115.816 70.132ZM115.816 69.34C116.131 69.34 116.424 69.263 116.696 69.109C116.967 68.955 117.187 68.724 117.356 68.416C117.524 68.108 117.609 67.7267 117.609 67.272C117.609 66.8173 117.524 66.436 117.356 66.128C117.194 65.82 116.978 65.589 116.707 65.435C116.435 65.281 116.146 65.204 115.838 65.204C115.522 65.204 115.229 65.281 114.958 65.435C114.686 65.589 114.466 65.82 114.298 66.128C114.129 66.436 114.045 66.8173 114.045 67.272C114.045 67.7267 114.129 68.108 114.298 68.416C114.466 68.724 114.683 68.955 114.947 69.109C115.218 69.263 115.508 69.34 115.816 69.34ZM119.84 72.42V64.544H120.676L120.764 65.446C120.94 65.182 121.189 64.9437 121.512 64.731C121.842 64.5183 122.26 64.412 122.766 64.412C123.308 64.412 123.781 64.5367 124.185 64.786C124.588 65.0353 124.9 65.3763 125.12 65.809C125.347 66.2417 125.461 66.733 125.461 67.283C125.461 67.833 125.347 68.3243 125.12 68.757C124.9 69.1823 124.584 69.5197 124.174 69.769C123.77 70.011 123.297 70.132 122.755 70.132C122.307 70.132 121.908 70.0403 121.556 69.857C121.211 69.6737 120.947 69.417 120.764 69.087V72.42H119.84ZM122.656 69.329C123.022 69.329 123.345 69.2447 123.624 69.076C123.902 68.9 124.122 68.658 124.284 68.35C124.445 68.042 124.526 67.6827 124.526 67.272C124.526 66.8613 124.445 66.502 124.284 66.194C124.122 65.886 123.902 65.6477 123.624 65.479C123.345 65.303 123.022 65.215 122.656 65.215C122.289 65.215 121.966 65.303 121.688 65.479C121.409 65.6477 121.189 65.886 121.028 66.194C120.866 66.502 120.786 66.8613 120.786 67.272C120.786 67.6827 120.866 68.042 121.028 68.35C121.189 68.658 121.409 68.9 121.688 69.076C121.966 69.2447 122.289 69.329 122.656 69.329ZM128.688 70C128.189 70 127.797 69.879 127.511 69.637C127.225 69.395 127.082 68.9587 127.082 68.328V65.325H126.136V64.544H127.082L127.203 63.235H128.006V64.544H129.612V65.325H128.006V68.328C128.006 68.6727 128.076 68.9073 128.215 69.032C128.354 69.1493 128.6 69.208 128.952 69.208H129.524V70H128.688ZM131.347 63.334C131.164 63.334 131.01 63.2753 130.885 63.158C130.768 63.0333 130.709 62.8793 130.709 62.696C130.709 62.52 130.768 62.3733 130.885 62.256C131.01 62.1387 131.164 62.08 131.347 62.08C131.523 62.08 131.673 62.1387 131.798 62.256C131.923 62.3733 131.985 62.52 131.985 62.696C131.985 62.8793 131.923 63.0333 131.798 63.158C131.673 63.2753 131.523 63.334 131.347 63.334ZM130.885 70V64.544H131.809V70H130.885ZM135.904 70.132C135.39 70.132 134.928 70.0147 134.518 69.78C134.107 69.5453 133.781 69.2153 133.539 68.79C133.304 68.3573 133.187 67.8513 133.187 67.272C133.187 66.6927 133.308 66.1903 133.55 65.765C133.792 65.3323 134.118 64.9987 134.529 64.764C134.947 64.5293 135.412 64.412 135.926 64.412C136.439 64.412 136.901 64.5293 137.312 64.764C137.722 64.9987 138.045 65.3323 138.28 65.765C138.522 66.1903 138.643 66.6927 138.643 67.272C138.643 67.8513 138.522 68.3573 138.28 68.79C138.038 69.2153 137.708 69.5453 137.29 69.78C136.879 70.0147 136.417 70.132 135.904 70.132ZM135.904 69.34C136.219 69.34 136.512 69.263 136.784 69.109C137.055 68.955 137.275 68.724 137.444 68.416C137.612 68.108 137.697 67.7267 137.697 67.272C137.697 66.8173 137.612 66.436 137.444 66.128C137.282 65.82 137.066 65.589 136.795 65.435C136.523 65.281 136.234 65.204 135.926 65.204C135.61 65.204 135.317 65.281 135.046 65.435C134.774 65.589 134.554 65.82 134.386 66.128C134.217 66.436 134.133 66.8173 134.133 67.272C134.133 67.7267 134.217 68.108 134.386 68.416C134.554 68.724 134.771 68.955 135.035 69.109C135.306 69.263 135.596 69.34 135.904 69.34ZM139.927 70V64.544H140.763L140.818 65.523C140.994 65.1783 141.247 64.907 141.577 64.709C141.907 64.511 142.281 64.412 142.699 64.412C143.345 64.412 143.858 64.61 144.239 65.006C144.628 65.3947 144.822 65.996 144.822 66.81V70H143.898V66.909C143.898 65.7723 143.429 65.204 142.49 65.204C142.021 65.204 141.629 65.3763 141.313 65.721C141.005 66.0583 140.851 66.5423 140.851 67.173V70H139.927ZM148.037 70.132C147.583 70.132 147.205 70.055 146.904 69.901C146.604 69.747 146.38 69.5417 146.233 69.285C146.087 69.0283 146.013 68.7497 146.013 68.449C146.013 67.8917 146.226 67.4627 146.651 67.162C147.077 66.8613 147.656 66.711 148.389 66.711H149.863V66.645C149.863 66.1683 149.739 65.809 149.489 65.567C149.24 65.3177 148.906 65.193 148.488 65.193C148.129 65.193 147.817 65.2847 147.553 65.468C147.297 65.644 147.135 65.9043 147.069 66.249H146.123C146.16 65.853 146.292 65.5193 146.519 65.248C146.754 64.9767 147.044 64.7713 147.388 64.632C147.733 64.4853 148.1 64.412 148.488 64.412C149.251 64.412 149.823 64.6173 150.204 65.028C150.593 65.4313 150.787 65.9703 150.787 66.645V70H149.962L149.907 69.021C149.753 69.329 149.526 69.593 149.225 69.813C148.932 70.0257 148.536 70.132 148.037 70.132ZM148.18 69.351C148.532 69.351 148.833 69.2593 149.082 69.076C149.339 68.8927 149.533 68.6543 149.665 68.361C149.797 68.0677 149.863 67.7597 149.863 67.437V67.426H148.466C147.924 67.426 147.539 67.5213 147.311 67.712C147.091 67.8953 146.981 68.1263 146.981 68.405C146.981 68.691 147.084 68.922 147.289 69.098C147.502 69.2667 147.799 69.351 148.18 69.351ZM152.174 70V62.08H153.098V70H152.174ZM154.271 71.595V71.507C154.938 70.847 155.477 70.077 155.888 69.197C156.306 68.3097 156.515 67.3563 156.515 66.337C156.515 65.3177 156.31 64.368 155.899 63.488C155.488 62.6007 154.949 61.827 154.282 61.167V61.079H155.217C155.62 61.4603 155.987 61.915 156.317 62.443C156.654 62.9637 156.922 63.554 157.12 64.214C157.325 64.8667 157.428 65.5743 157.428 66.337C157.428 67.0997 157.325 67.811 157.12 68.471C156.922 69.1237 156.654 69.7103 156.317 70.231C155.987 70.759 155.62 71.2137 155.217 71.595H154.271Z" fill="#333333"/>
<rect x="182" y="48" width="130" height="36" rx="8" fill="#F5F9F6"/>
<circle cx="202" cy="66" r="8" fill="#51BD7E"/>
<path d="M206 63L200.5 68.5L198 66" stroke="white" stroke-width="1.5" stroke-linecap="round" stroke-linejoin="round"/>
<path d="M218.932 70V62.3H221.638C222.181 62.3 222.628 62.388 222.98 62.564C223.339 62.7327 223.607 62.9673 223.783 63.268C223.959 63.5613 224.047 63.8913 224.047 64.258C224.047 64.7567 223.911 65.149 223.64 65.435C223.376 65.721 223.057 65.919 222.683 66.029C222.969 66.0803 223.229 66.194 223.464 66.37C223.699 66.546 223.882 66.766 224.014 67.03C224.153 67.294 224.223 67.5837 224.223 67.899C224.223 68.2877 224.128 68.6433 223.937 68.966C223.746 69.2813 223.464 69.5343 223.09 69.725C222.716 69.9083 222.261 70 221.726 70H218.932ZM219.856 65.666H221.572C222.063 65.666 222.441 65.5523 222.705 65.325C222.969 65.0903 223.101 64.7677 223.101 64.357C223.101 63.9683 222.969 63.6567 222.705 63.422C222.448 63.1873 222.06 63.07 221.539 63.07H219.856V65.666ZM219.856 69.23H221.627C222.155 69.23 222.562 69.109 222.848 68.867C223.134 68.6177 223.277 68.273 223.277 67.833C223.277 67.4003 223.127 67.0557 222.826 66.799C222.525 66.535 222.118 66.403 221.605 66.403H219.856V69.23ZM227.485 70.132C226.84 70.132 226.327 69.9377 225.945 69.549C225.564 69.153 225.373 68.548 225.373 67.734V64.544H226.297V67.635C226.297 68.7717 226.763 69.34 227.694 69.34C228.171 69.34 228.563 69.1713 228.871 68.834C229.187 68.4893 229.344 68.0017 229.344 67.371V64.544H230.268V70H229.432L229.366 69.021C229.198 69.3657 228.945 69.637 228.607 69.835C228.277 70.033 227.903 70.132 227.485 70.132ZM231.789 70V62.08H232.713V66.843L234.946 64.544H236.079L233.659 67.008L236.387 70H235.21L232.713 67.173V70H231.789ZM239.323 70.132C238.678 70.132 238.165 69.9377 237.783 69.549C237.402 69.153 237.211 68.548 237.211 67.734V64.544H238.135V67.635C238.135 68.7717 238.601 69.34 239.532 69.34C240.009 69.34 240.401 69.1713 240.709 68.834C241.025 68.4893 241.182 68.0017 241.182 67.371V64.544H242.106V70H241.27L241.204 69.021C241.036 69.3657 240.783 69.637 240.445 69.835C240.115 70.033 239.741 70.132 239.323 70.132ZM248.397 70V63.059H246.098V62.3H251.62V63.059H249.321V70H248.397ZM253.692 70.132C253.237 70.132 252.86 70.055 252.559 69.901C252.258 69.747 252.035 69.5417 251.888 69.285C251.741 69.0283 251.668 68.7497 251.668 68.449C251.668 67.8917 251.881 67.4627 252.306 67.162C252.731 66.8613 253.311 66.711 254.044 66.711H255.518V66.645C255.518 66.1683 255.393 65.809 255.144 65.567C254.895 65.3177 254.561 65.193 254.143 65.193C253.784 65.193 253.472 65.2847 253.208 65.468C252.951 65.644 252.79 65.9043 252.724 66.249H251.778C251.815 65.853 251.947 65.5193 252.174 65.248C252.409 64.9767 252.698 64.7713 253.043 64.632C253.388 64.4853 253.754 64.412 254.143 64.412C254.906 64.412 255.478 64.6173 255.859 65.028C256.248 65.4313 256.442 65.9703 256.442 66.645V70H255.617L255.562 69.021C255.408 69.329 255.181 69.593 254.88 69.813C254.587 70.0257 254.191 70.132 253.692 70.132ZM253.835 69.351C254.187 69.351 254.488 69.2593 254.737 69.076C254.994 68.8927 255.188 68.6543 255.32 68.361C255.452 68.0677 255.518 67.7597 255.518 67.437V67.426H254.121C253.578 67.426 253.193 67.5213 252.966 67.712C252.746 67.8953 252.636 68.1263 252.636 68.405C252.636 68.691 252.739 68.922 252.944 69.098C253.157 69.2667 253.454 69.351 253.835 69.351ZM260.743 70.132C260.296 70.132 259.896 70.0403 259.544 69.857C259.2 69.6737 258.936 69.417 258.752 69.087L258.664 70H257.828V62.08H258.752V65.446C258.928 65.182 259.178 64.9437 259.5 64.731C259.83 64.5183 260.248 64.412 260.754 64.412C261.297 64.412 261.77 64.5367 262.173 64.786C262.577 65.0353 262.888 65.3763 263.108 65.809C263.336 66.2417 263.449 66.733 263.449 67.283C263.449 67.833 263.336 68.3243 263.108 68.757C262.888 69.1823 262.573 69.5197 262.162 69.769C261.759 70.011 261.286 70.132 260.743 70.132ZM260.644 69.329C261.011 69.329 261.334 69.2447 261.612 69.076C261.891 68.9 262.111 68.658 262.272 68.35C262.434 68.042 262.514 67.6827 262.514 67.272C262.514 66.8613 262.434 66.502 262.272 66.194C262.111 65.886 261.891 65.6477 261.612 65.479C261.334 65.303 261.011 65.215 260.644 65.215C260.278 65.215 259.955 65.303 259.676 65.479C259.398 65.6477 259.178 65.886 259.016 66.194C258.855 66.502 258.774 66.8613 258.774 67.272C258.774 67.6827 258.855 68.042 259.016 68.35C259.178 68.658 259.398 68.9 259.676 69.076C259.955 69.2447 260.278 69.329 260.644 69.329ZM266.727 70.132C266.081 70.132 265.568 69.9377 265.187 69.549C264.805 69.153 264.615 68.548 264.615 67.734V64.544H265.539V67.635C265.539 68.7717 266.004 69.34 266.936 69.34C267.412 69.34 267.805 69.1713 268.113 68.834C268.428 68.4893 268.586 68.0017 268.586 67.371V64.544H269.51V70H268.674L268.608 69.021C268.439 69.3657 268.186 69.637 267.849 69.835C267.519 70.033 267.145 70.132 266.727 70.132ZM271.03 70V64.544H271.866L271.921 65.523C272.097 65.1783 272.35 64.907 272.68 64.709C273.01 64.511 273.384 64.412 273.802 64.412C274.448 64.412 274.961 64.61 275.342 65.006C275.731 65.3947 275.925 65.996 275.925 66.81V70H275.001V66.909C275.001 65.7723 274.532 65.204 273.593 65.204C273.124 65.204 272.732 65.3763 272.416 65.721C272.108 66.0583 271.954 66.5423 271.954 67.173V70H271.03ZM279.481 68.284C279.173 68.284 278.891 68.2437 278.634 68.163L278.084 68.68C278.165 68.7387 278.264 68.79 278.381 68.834C278.506 68.8707 278.682 68.9073 278.909 68.944C279.137 68.9733 279.456 69.0063 279.866 69.043C280.6 69.0943 281.124 69.263 281.439 69.549C281.755 69.835 281.912 70.209 281.912 70.671C281.912 70.9863 281.824 71.287 281.648 71.573C281.48 71.859 281.216 72.0937 280.856 72.277C280.504 72.4603 280.05 72.552 279.492 72.552C279.001 72.552 278.565 72.486 278.183 72.354C277.802 72.2293 277.505 72.035 277.292 71.771C277.08 71.5143 276.973 71.188 276.973 70.792C276.973 70.5867 277.028 70.363 277.138 70.121C277.248 69.8863 277.454 69.6627 277.754 69.45C277.593 69.384 277.454 69.3143 277.336 69.241C277.226 69.1603 277.124 69.0723 277.028 68.977V68.724L277.963 67.8C277.531 67.4333 277.314 66.9493 277.314 66.348C277.314 65.9887 277.399 65.6623 277.567 65.369C277.736 65.0757 277.982 64.8447 278.304 64.676C278.627 64.5 279.019 64.412 279.481 64.412C279.797 64.412 280.083 64.456 280.339 64.544H282.352V65.237L281.329 65.281C281.542 65.589 281.648 65.9447 281.648 66.348C281.648 66.7073 281.56 67.0337 281.384 67.327C281.216 67.6203 280.97 67.855 280.647 68.031C280.332 68.1997 279.943 68.284 279.481 68.284ZM279.481 67.525C279.87 67.525 280.178 67.426 280.405 67.228C280.64 67.0227 280.757 66.7293 280.757 66.348C280.757 65.974 280.64 65.688 280.405 65.49C280.178 65.2847 279.87 65.182 279.481 65.182C279.085 65.182 278.77 65.2847 278.535 65.49C278.308 65.688 278.194 65.974 278.194 66.348C278.194 66.7293 278.308 67.0227 278.535 67.228C278.77 67.426 279.085 67.525 279.481 67.525ZM277.875 70.704C277.875 71.0707 278.029 71.342 278.337 71.518C278.645 71.7013 279.03 71.793 279.492 71.793C279.947 71.793 280.31 71.694 280.581 71.496C280.86 71.298 280.999 71.034 280.999 70.704C280.999 70.4693 280.904 70.264 280.713 70.088C280.523 69.9193 280.171 69.8203 279.657 69.791C279.254 69.7617 278.906 69.725 278.612 69.681C278.312 69.8423 278.114 70.0147 278.018 70.198C277.923 70.3887 277.875 70.5573 277.875 70.704ZM285.21 70.132C284.755 70.132 284.377 70.055 284.077 69.901C283.776 69.747 283.552 69.5417 283.406 69.285C283.259 69.0283 283.186 68.7497 283.186 68.449C283.186 67.8917 283.398 67.4627 283.824 67.162C284.249 66.8613 284.828 66.711 285.562 66.711H287.036V66.645C287.036 66.1683 286.911 65.809 286.662 65.567C286.412 65.3177 286.079 65.193 285.661 65.193C285.301 65.193 284.99 65.2847 284.726 65.468C284.469 65.644 284.308 65.9043 284.242 66.249H283.296C283.332 65.853 283.464 65.5193 283.692 65.248C283.926 64.9767 284.216 64.7713 284.561 64.632C284.905 64.4853 285.272 64.412 285.661 64.412C286.423 64.412 286.995 64.6173 287.377 65.028C287.765 65.4313 287.96 65.9703 287.96 66.645V70H287.135L287.08 69.021C286.926 69.329 286.698 69.593 286.398 69.813C286.104 70.0257 285.708 70.132 285.21 70.132ZM285.353 69.351C285.705 69.351 286.005 69.2593 286.255 69.076C286.511 68.8927 286.706 68.6543 286.838 68.361C286.97 68.0677 287.036 67.7597 287.036 67.437V67.426H285.639C285.096 67.426 284.711 67.5213 284.484 67.712C284.264 67.8953 284.154 68.1263 284.154 68.405C284.154 68.691 284.256 68.922 284.462 69.098C284.674 69.2667 284.971 69.351 285.353 69.351ZM289.346 70V64.544H290.182L290.237 65.523C290.413 65.1783 290.666 64.907 290.996 64.709C291.326 64.511 291.7 64.412 292.118 64.412C292.763 64.412 293.277 64.61 293.658 65.006C294.047 65.3947 294.241 65.996 294.241 66.81V70H293.317V66.909C293.317 65.7723 292.848 65.204 291.909 65.204C291.44 65.204 291.047 65.3763 290.732 65.721C290.424 66.0583 290.27 66.5423 290.27 67.173V70H289.346Z" fill="#333333"/>
<rect y="96" width="109" height="36" rx="8" fill="#F5F9F6"/>
<circle cx="20" cy="114" r="8" fill="#51BD7E"/>
<path d="M24 111L18.5 116.5L16 114" stroke="white" stroke-width="1.5" stroke-linecap="round" stroke-linejoin="round"/>
<path d="M37.1011 118V110.3H39.8071C40.3498 110.3 40.7971 110.388 41.1491 110.564C41.5084 110.733 41.7761 110.967 41.9521 111.268C42.1281 111.561 42.2161 111.891 42.2161 112.258C42.2161 112.757 42.0804 113.149 41.8091 113.435C41.5451 113.721 41.2261 113.919 40.8521 114.029C41.1381 114.08 41.3984 114.194 41.6331 114.37C41.8678 114.546 42.0511 114.766 42.1831 115.03C42.3224 115.294 42.3921 115.584 42.3921 115.899C42.3921 116.288 42.2968 116.643 42.1061 116.966C41.9154 117.281 41.6331 117.534 41.2591 117.725C40.8851 117.908 40.4304 118 39.8951 118H37.1011ZM38.0251 113.666H39.7411C40.2324 113.666 40.6101 113.552 40.8741 113.325C41.1381 113.09 41.2701 112.768 41.2701 112.357C41.2701 111.968 41.1381 111.657 40.8741 111.422C40.6174 111.187 40.2288 111.07 39.7081 111.07H38.0251V113.666ZM38.0251 117.23H39.7961C40.3241 117.23 40.7311 117.109 41.0171 116.867C41.3031 116.618 41.4461 116.273 41.4461 115.833C41.4461 115.4 41.2958 115.056 40.9951 114.799C40.6944 114.535 40.2874 114.403 39.7741 114.403H38.0251V117.23ZM46.1493 118.132C45.636 118.132 45.174 118.015 44.7633 117.78C44.3526 117.545 44.0263 117.215 43.7843 116.79C43.5496 116.357 43.4323 115.851 43.4323 115.272C43.4323 114.693 43.5533 114.19 43.7953 113.765C44.0373 113.332 44.3636 112.999 44.7743 112.764C45.1923 112.529 45.658 112.412 46.1713 112.412C46.6846 112.412 47.1466 112.529 47.5573 112.764C47.968 112.999 48.2906 113.332 48.5253 113.765C48.7673 114.19 48.8883 114.693 48.8883 115.272C48.8883 115.851 48.7673 116.357 48.5253 116.79C48.2833 117.215 47.9533 117.545 47.5353 117.78C47.1246 118.015 46.6626 118.132 46.1493 118.132ZM46.1493 117.34C46.4646 117.34 46.758 117.263 47.0293 117.109C47.3006 116.955 47.5206 116.724 47.6893 116.416C47.858 116.108 47.9423 115.727 47.9423 115.272C47.9423 114.817 47.858 114.436 47.6893 114.128C47.528 113.82 47.3116 113.589 47.0403 113.435C46.769 113.281 46.4793 113.204 46.1713 113.204C45.856 113.204 45.5626 113.281 45.2913 113.435C45.02 113.589 44.8 113.82 44.6313 114.128C44.4626 114.436 44.3783 114.817 44.3783 115.272C44.3783 115.727 44.4626 116.108 44.6313 116.416C44.8 116.724 45.0163 116.955 45.2803 117.109C45.5516 117.263 45.8413 117.34 46.1493 117.34ZM50.1731 118V112.544H51.0091L51.0641 113.523C51.2401 113.178 51.4931 112.907 51.8231 112.709C52.1531 112.511 52.5271 112.412 52.9451 112.412C53.5904 112.412 54.1037 112.61 54.4851 113.006C54.8737 113.395 55.0681 113.996 55.0681 114.81V118H54.1441V114.909C54.1441 113.772 53.6747 113.204 52.7361 113.204C52.2667 113.204 51.8744 113.376 51.5591 113.721C51.2511 114.058 51.0971 114.542 51.0971 115.173V118H50.1731ZM56.017 119.045L58.778 109.596H59.691L56.93 119.045H56.017ZM61.4429 118V110.3H62.3669L66.4699 116.471V110.3H67.3939V118H66.4699L62.3669 111.829V118H61.4429ZM71.4579 118.132C70.9446 118.132 70.4826 118.015 70.0719 117.78C69.6612 117.545 69.3349 117.215 69.0929 116.79C68.8582 116.357 68.7409 115.851 68.7409 115.272C68.7409 114.693 68.8619 114.19 69.1039 113.765C69.3459 113.332 69.6722 112.999 70.0829 112.764C70.5009 112.529 70.9666 112.412 71.4799 112.412C71.9932 112.412 72.4552 112.529 72.8659 112.764C73.2766 112.999 73.5992 113.332 73.8339 113.765C74.0759 114.19 74.1969 114.693 74.1969 115.272C74.1969 115.851 74.0759 116.357 73.8339 116.79C73.5919 117.215 73.2619 117.545 72.8439 117.78C72.4332 118.015 71.9712 118.132 71.4579 118.132ZM71.4579 117.34C71.7732 117.34 72.0666 117.263 72.3379 117.109C72.6092 116.955 72.8292 116.724 72.9979 116.416C73.1666 116.108 73.2509 115.727 73.2509 115.272C73.2509 114.817 73.1666 114.436 72.9979 114.128C72.8366 113.82 72.6202 113.589 72.3489 113.435C72.0776 113.281 71.7879 113.204 71.4799 113.204C71.1646 113.204 70.8712 113.281 70.5999 113.435C70.3286 113.589 70.1086 113.82 69.9399 114.128C69.7712 114.436 69.6869 114.817 69.6869 115.272C69.6869 115.727 69.7712 116.108 69.9399 116.416C70.1086 116.724 70.3249 116.955 70.5889 117.109C70.8602 117.263 71.1499 117.34 71.4579 117.34ZM77.4228 118C76.9241 118 76.5318 117.879 76.2458 117.637C75.9598 117.395 75.8168 116.959 75.8168 116.328V113.325H74.8708V112.544H75.8168L75.9378 111.235H76.7408V112.544H78.3468V113.325H76.7408V116.328C76.7408 116.673 76.8105 116.907 76.9498 117.032C77.0891 117.149 77.3348 117.208 77.6868 117.208H78.2588V118H77.4228ZM81.3357 118.132C80.8811 118.132 80.5034 118.055 80.2027 117.901C79.9021 117.747 79.6784 117.542 79.5317 117.285C79.3851 117.028 79.3117 116.75 79.3117 116.449C79.3117 115.892 79.5244 115.463 79.9497 115.162C80.3751 114.861 80.9544 114.711 81.6877 114.711H83.1617V114.645C83.1617 114.168 83.0371 113.809 82.7877 113.567C82.5384 113.318 82.2047 113.193 81.7867 113.193C81.4274 113.193 81.1157 113.285 80.8517 113.468C80.5951 113.644 80.4337 113.904 80.3677 114.249H79.4217C79.4584 113.853 79.5904 113.519 79.8177 113.248C80.0524 112.977 80.3421 112.771 80.6867 112.632C81.0314 112.485 81.3981 112.412 81.7867 112.412C82.5494 112.412 83.1214 112.617 83.5027 113.028C83.8914 113.431 84.0857 113.97 84.0857 114.645V118H83.2607L83.2057 117.021C83.0517 117.329 82.8244 117.593 82.5237 117.813C82.2304 118.026 81.8344 118.132 81.3357 118.132ZM81.4787 117.351C81.8307 117.351 82.1314 117.259 82.3807 117.076C82.6374 116.893 82.8317 116.654 82.9637 116.361C83.0957 116.068 83.1617 115.76 83.1617 115.437V115.426H81.7647C81.2221 115.426 80.8371 115.521 80.6097 115.712C80.3897 115.895 80.2797 116.126 80.2797 116.405C80.2797 116.691 80.3824 116.922 80.5877 117.098C80.8004 117.267 81.0974 117.351 81.4787 117.351Z" fill="#333333"/>
<rect x="117" y="96" width="195" height="36" rx="8" fill="#F5F9F6"/>
<circle cx="137" cy="114" r="8" fill="#51BD7E"/>
<path d="M141 111L135.5 116.5L133 114" stroke="white" stroke-width="1.5" stroke-linecap="round" stroke-linejoin="round"/>
<path d="M153.923 118V110.3H156.453C157.055 110.3 157.55 110.399 157.938 110.597C158.327 110.795 158.613 111.063 158.796 111.4C158.987 111.737 159.082 112.119 159.082 112.544C159.082 112.962 158.991 113.34 158.807 113.677C158.624 114.014 158.338 114.286 157.949 114.491C157.561 114.689 157.062 114.788 156.453 114.788H154.847V118H153.923ZM154.847 114.007H156.431C157.047 114.007 157.484 113.879 157.74 113.622C158.004 113.358 158.136 112.999 158.136 112.544C158.136 112.082 158.004 111.723 157.74 111.466C157.484 111.202 157.047 111.07 156.431 111.07H154.847V114.007ZM160.293 118V110.3H162.999C163.542 110.3 163.989 110.388 164.341 110.564C164.701 110.733 164.968 110.967 165.144 111.268C165.32 111.561 165.408 111.891 165.408 112.258C165.408 112.757 165.273 113.149 165.001 113.435C164.737 113.721 164.418 113.919 164.044 114.029C164.33 114.08 164.591 114.194 164.825 114.37C165.06 114.546 165.243 114.766 165.375 115.03C165.515 115.294 165.584 115.584 165.584 115.899C165.584 116.288 165.489 116.643 165.298 116.966C165.108 117.281 164.825 117.534 164.451 117.725C164.077 117.908 163.623 118 163.087 118H160.293ZM161.217 113.666H162.933C163.425 113.666 163.802 113.552 164.066 113.325C164.33 113.09 164.462 112.768 164.462 112.357C164.462 111.968 164.33 111.657 164.066 111.422C163.81 111.187 163.421 111.07 162.9 111.07H161.217V113.666ZM161.217 117.23H162.988C163.516 117.23 163.923 117.109 164.209 116.867C164.495 116.618 164.638 116.273 164.638 115.833C164.638 115.4 164.488 115.056 164.187 114.799C163.887 114.535 163.48 114.403 162.966 114.403H161.217V117.23ZM166.911 118V110.3H169.617C170.159 110.3 170.607 110.388 170.959 110.564C171.318 110.733 171.586 110.967 171.762 111.268C171.938 111.561 172.026 111.891 172.026 112.258C172.026 112.757 171.89 113.149 171.619 113.435C171.355 113.721 171.036 113.919 170.662 114.029C170.948 114.08 171.208 114.194 171.443 114.37C171.677 114.546 171.861 114.766 171.993 115.03C172.132 115.294 172.202 115.584 172.202 115.899C172.202 116.288 172.106 116.643 171.916 116.966C171.725 117.281 171.443 117.534 171.069 117.725C170.695 117.908 170.24 118 169.705 118H166.911ZM167.835 113.666H169.551C170.042 113.666 170.42 113.552 170.684 113.325C170.948 113.09 171.08 112.768 171.08 112.357C171.08 111.968 170.948 111.657 170.684 111.422C170.427 111.187 170.038 111.07 169.518 111.07H167.835V113.666ZM167.835 117.23H169.606C170.134 117.23 170.541 117.109 170.827 116.867C171.113 116.618 171.256 116.273 171.256 115.833C171.256 115.4 171.105 115.056 170.805 114.799C170.504 114.535 170.097 114.403 169.584 114.403H167.835V117.23ZM175.933 119.045L178.694 109.596H179.607L176.846 119.045H175.933ZM186.1 118.132C185.535 118.132 185.044 118.029 184.626 117.824C184.208 117.619 183.885 117.333 183.658 116.966C183.431 116.599 183.317 116.174 183.317 115.69H184.285C184.285 115.991 184.355 116.269 184.494 116.526C184.633 116.775 184.835 116.977 185.099 117.131C185.37 117.278 185.704 117.351 186.1 117.351C186.621 117.351 187.024 117.226 187.31 116.977C187.596 116.728 187.739 116.416 187.739 116.042C187.739 115.734 187.673 115.488 187.541 115.305C187.409 115.114 187.229 114.96 187.002 114.843C186.782 114.726 186.525 114.623 186.232 114.535C185.946 114.447 185.645 114.348 185.33 114.238C184.736 114.033 184.296 113.78 184.01 113.479C183.724 113.171 183.581 112.771 183.581 112.28C183.574 111.869 183.669 111.506 183.867 111.191C184.065 110.868 184.344 110.619 184.703 110.443C185.07 110.26 185.502 110.168 186.001 110.168C186.492 110.168 186.918 110.26 187.277 110.443C187.644 110.626 187.926 110.879 188.124 111.202C188.329 111.525 188.436 111.891 188.443 112.302H187.475C187.475 112.089 187.42 111.88 187.31 111.675C187.2 111.462 187.031 111.29 186.804 111.158C186.584 111.026 186.305 110.96 185.968 110.96C185.55 110.953 185.205 111.059 184.934 111.279C184.67 111.499 184.538 111.803 184.538 112.192C184.538 112.522 184.63 112.775 184.813 112.951C185.004 113.127 185.268 113.274 185.605 113.391C185.942 113.501 186.331 113.629 186.771 113.776C187.138 113.908 187.468 114.062 187.761 114.238C188.054 114.414 188.282 114.641 188.443 114.92C188.612 115.199 188.696 115.554 188.696 115.987C188.696 116.354 188.601 116.702 188.41 117.032C188.219 117.355 187.93 117.619 187.541 117.824C187.16 118.029 186.679 118.132 186.1 118.132ZM189.951 118V110.08H190.875V118H189.951ZM192.951 111.334C192.768 111.334 192.614 111.275 192.489 111.158C192.372 111.033 192.313 110.879 192.313 110.696C192.313 110.52 192.372 110.373 192.489 110.256C192.614 110.139 192.768 110.08 192.951 110.08C193.127 110.08 193.277 110.139 193.402 110.256C193.527 110.373 193.589 110.52 193.589 110.696C193.589 110.879 193.527 111.033 193.402 111.158C193.277 111.275 193.127 111.334 192.951 111.334ZM192.489 118V112.544H193.413V118H192.489ZM195.022 120.42V112.544H195.858L195.946 113.446C196.122 113.182 196.371 112.944 196.694 112.731C197.024 112.518 197.442 112.412 197.948 112.412C198.49 112.412 198.963 112.537 199.367 112.786C199.77 113.035 200.082 113.376 200.302 113.809C200.529 114.242 200.643 114.733 200.643 115.283C200.643 115.833 200.529 116.324 200.302 116.757C200.082 117.182 199.766 117.52 199.356 117.769C198.952 118.011 198.479 118.132 197.937 118.132C197.489 118.132 197.09 118.04 196.738 117.857C196.393 117.674 196.129 117.417 195.946 117.087V120.42H195.022ZM197.838 117.329C198.204 117.329 198.527 117.245 198.806 117.076C199.084 116.9 199.304 116.658 199.466 116.35C199.627 116.042 199.708 115.683 199.708 115.272C199.708 114.861 199.627 114.502 199.466 114.194C199.304 113.886 199.084 113.648 198.806 113.479C198.527 113.303 198.204 113.215 197.838 113.215C197.471 113.215 197.148 113.303 196.87 113.479C196.591 113.648 196.371 113.886 196.21 114.194C196.048 114.502 195.968 114.861 195.968 115.272C195.968 115.683 196.048 116.042 196.21 116.35C196.371 116.658 196.591 116.9 196.87 117.076C197.148 117.245 197.471 117.329 197.838 117.329ZM204.895 118V110.3H207.425C208.026 110.3 208.521 110.399 208.91 110.597C209.299 110.795 209.585 111.063 209.768 111.4C209.959 111.737 210.054 112.119 210.054 112.544C210.054 112.962 209.962 113.34 209.779 113.677C209.596 114.014 209.31 114.286 208.921 114.491C208.532 114.689 208.034 114.788 207.425 114.788H205.819V118H204.895ZM205.819 114.007H207.403C208.019 114.007 208.455 113.879 208.712 113.622C208.976 113.358 209.108 112.999 209.108 112.544C209.108 112.082 208.976 111.723 208.712 111.466C208.455 111.202 208.019 111.07 207.403 111.07H205.819V114.007ZM213.341 118.132C212.82 118.132 212.358 118.015 211.955 117.78C211.552 117.538 211.233 117.204 210.998 116.779C210.771 116.354 210.657 115.851 210.657 115.272C210.657 114.7 210.771 114.201 210.998 113.776C211.225 113.343 211.541 113.01 211.944 112.775C212.355 112.533 212.828 112.412 213.363 112.412C213.891 112.412 214.346 112.533 214.727 112.775C215.116 113.01 215.413 113.321 215.618 113.71C215.823 114.099 215.926 114.517 215.926 114.964C215.926 115.045 215.922 115.125 215.915 115.206C215.915 115.287 215.915 115.378 215.915 115.481H211.57C211.592 115.899 211.687 116.247 211.856 116.526C212.032 116.797 212.248 117.003 212.505 117.142C212.769 117.281 213.048 117.351 213.341 117.351C213.722 117.351 214.041 117.263 214.298 117.087C214.555 116.911 214.742 116.673 214.859 116.372H215.772C215.625 116.878 215.343 117.3 214.925 117.637C214.514 117.967 213.986 118.132 213.341 118.132ZM213.341 113.193C212.901 113.193 212.509 113.329 212.164 113.6C211.827 113.864 211.632 114.253 211.581 114.766H215.013C214.991 114.275 214.822 113.89 214.507 113.611C214.192 113.332 213.803 113.193 213.341 113.193ZM217.151 118V112.544H217.987L218.053 113.336C218.229 113.043 218.463 112.815 218.757 112.654C219.05 112.493 219.38 112.412 219.747 112.412C220.179 112.412 220.55 112.5 220.858 112.676C221.173 112.852 221.415 113.12 221.584 113.479C221.774 113.149 222.035 112.889 222.365 112.698C222.702 112.507 223.065 112.412 223.454 112.412C224.106 112.412 224.627 112.61 225.016 113.006C225.404 113.395 225.599 113.996 225.599 114.81V118H224.686V114.909C224.686 114.344 224.572 113.919 224.345 113.633C224.117 113.347 223.791 113.204 223.366 113.204C222.926 113.204 222.559 113.376 222.266 113.721C221.98 114.058 221.837 114.542 221.837 115.173V118H220.913V114.909C220.913 114.344 220.799 113.919 220.572 113.633C220.344 113.347 220.018 113.204 219.593 113.204C219.16 113.204 218.797 113.376 218.504 113.721C218.218 114.058 218.075 114.542 218.075 115.173V118H217.151ZM229.905 118.132C229.458 118.132 229.058 118.04 228.706 117.857C228.362 117.674 228.098 117.417 227.914 117.087L227.826 118H226.99V110.08H227.914V113.446C228.09 113.182 228.34 112.944 228.662 112.731C228.992 112.518 229.41 112.412 229.916 112.412C230.459 112.412 230.932 112.537 231.335 112.786C231.739 113.035 232.05 113.376 232.27 113.809C232.498 114.242 232.611 114.733 232.611 115.283C232.611 115.833 232.498 116.324 232.27 116.757C232.05 117.182 231.735 117.52 231.324 117.769C230.921 118.011 230.448 118.132 229.905 118.132ZM229.806 117.329C230.173 117.329 230.496 117.245 230.774 117.076C231.053 116.9 231.273 116.658 231.434 116.35C231.596 116.042 231.676 115.683 231.676 115.272C231.676 114.861 231.596 114.502 231.434 114.194C231.273 113.886 231.053 113.648 230.774 113.479C230.496 113.303 230.173 113.215 229.806 113.215C229.44 113.215 229.117 113.303 228.838 113.479C228.56 113.648 228.34 113.886 228.178 114.194C228.017 114.502 227.936 114.861 227.936 115.272C227.936 115.683 228.017 116.042 228.178 116.35C228.34 116.658 228.56 116.9 228.838 117.076C229.117 117.245 229.44 117.329 229.806 117.329ZM235.713 118.132C235.258 118.132 234.88 118.055 234.58 117.901C234.279 117.747 234.055 117.542 233.909 117.285C233.762 117.028 233.689 116.75 233.689 116.449C233.689 115.892 233.901 115.463 234.327 115.162C234.752 114.861 235.331 114.711 236.065 114.711H237.539V114.645C237.539 114.168 237.414 113.809 237.165 113.567C236.915 113.318 236.582 113.193 236.164 113.193C235.804 113.193 235.493 113.285 235.229 113.468C234.972 113.644 234.811 113.904 234.745 114.249H233.799C233.835 113.853 233.967 113.519 234.195 113.248C234.429 112.977 234.719 112.771 235.064 112.632C235.408 112.485 235.775 112.412 236.164 112.412C236.926 112.412 237.498 112.617 237.88 113.028C238.268 113.431 238.463 113.97 238.463 114.645V118H237.638L237.583 117.021C237.429 117.329 237.201 117.593 236.901 117.813C236.607 118.026 236.211 118.132 235.713 118.132ZM235.856 117.351C236.208 117.351 236.508 117.259 236.758 117.076C237.014 116.893 237.209 116.654 237.341 116.361C237.473 116.068 237.539 115.76 237.539 115.437V115.426H236.142C235.599 115.426 235.214 115.521 234.987 115.712C234.767 115.895 234.657 116.126 234.657 116.405C234.657 116.691 234.759 116.922 234.965 117.098C235.177 117.267 235.474 117.351 235.856 117.351ZM240.282 120.42L241.635 117.472H241.316L239.149 112.544H240.15L241.954 116.79L243.868 112.544H244.825L241.25 120.42H240.282ZM247.271 118.132C246.817 118.132 246.439 118.055 246.138 117.901C245.838 117.747 245.614 117.542 245.467 117.285C245.321 117.028 245.247 116.75 245.247 116.449C245.247 115.892 245.46 115.463 245.885 115.162C246.311 114.861 246.89 114.711 247.623 114.711H249.097V114.645C249.097 114.168 248.973 113.809 248.723 113.567C248.474 113.318 248.14 113.193 247.722 113.193C247.363 113.193 247.051 113.285 246.787 113.468C246.531 113.644 246.369 113.904 246.303 114.249H245.357C245.394 113.853 245.526 113.519 245.753 113.248C245.988 112.977 246.278 112.771 246.622 112.632C246.967 112.485 247.334 112.412 247.722 112.412C248.485 112.412 249.057 112.617 249.438 113.028C249.827 113.431 250.021 113.97 250.021 114.645V118H249.196L249.141 117.021C248.987 117.329 248.76 117.593 248.459 117.813C248.166 118.026 247.77 118.132 247.271 118.132ZM247.414 117.351C247.766 117.351 248.067 117.259 248.316 117.076C248.573 116.893 248.767 116.654 248.899 116.361C249.031 116.068 249.097 115.76 249.097 115.437V115.426H247.7C247.158 115.426 246.773 115.521 246.545 115.712C246.325 115.895 246.215 116.126 246.215 116.405C246.215 116.691 246.318 116.922 246.523 117.098C246.736 117.267 247.033 117.351 247.414 117.351ZM251.407 118V112.544H252.243L252.32 113.589C252.489 113.23 252.746 112.944 253.09 112.731C253.435 112.518 253.86 112.412 254.366 112.412V113.38H254.113C253.791 113.38 253.494 113.439 253.222 113.556C252.951 113.666 252.735 113.857 252.573 114.128C252.412 114.399 252.331 114.773 252.331 115.25V118H251.407ZM257.219 118.132C256.764 118.132 256.386 118.055 256.086 117.901C255.785 117.747 255.561 117.542 255.415 117.285C255.268 117.028 255.195 116.75 255.195 116.449C255.195 115.892 255.407 115.463 255.833 115.162C256.258 114.861 256.837 114.711 257.571 114.711H259.045V114.645C259.045 114.168 258.92 113.809 258.671 113.567C258.421 113.318 258.088 113.193 257.67 113.193C257.31 113.193 256.999 113.285 256.735 113.468C256.478 113.644 256.317 113.904 256.251 114.249H255.305C255.341 113.853 255.473 113.519 255.701 113.248C255.935 112.977 256.225 112.771 256.57 112.632C256.914 112.485 257.281 112.412 257.67 112.412C258.432 112.412 259.004 112.617 259.386 113.028C259.774 113.431 259.969 113.97 259.969 114.645V118H259.144L259.089 117.021C258.935 117.329 258.707 117.593 258.407 117.813C258.113 118.026 257.717 118.132 257.219 118.132ZM257.362 117.351C257.714 117.351 258.014 117.259 258.264 117.076C258.52 116.893 258.715 116.654 258.847 116.361C258.979 116.068 259.045 115.76 259.045 115.437V115.426H257.648C257.105 115.426 256.72 115.521 256.493 115.712C256.273 115.895 256.163 116.126 256.163 116.405C256.163 116.691 256.265 116.922 256.471 117.098C256.683 117.267 256.98 117.351 257.362 117.351ZM261.355 118V112.544H262.191L262.246 113.523C262.422 113.178 262.675 112.907 263.005 112.709C263.335 112.511 263.709 112.412 264.127 112.412C264.772 112.412 265.285 112.61 265.667 113.006C266.055 113.395 266.25 113.996 266.25 114.81V118H265.326V114.909C265.326 113.772 264.856 113.204 263.918 113.204C263.448 113.204 263.056 113.376 262.741 113.721C262.433 114.058 262.279 114.542 262.279 115.173V118H261.355ZM270.616 118V110.3H271.54V117.263H275.126V118H270.616ZM276.901 111.334C276.718 111.334 276.564 111.275 276.439 111.158C276.322 111.033 276.263 110.879 276.263 110.696C276.263 110.52 276.322 110.373 276.439 110.256C276.564 110.139 276.718 110.08 276.901 110.08C277.077 110.08 277.227 110.139 277.352 110.256C277.477 110.373 277.539 110.52 277.539 110.696C277.539 110.879 277.477 111.033 277.352 111.158C277.227 111.275 277.077 111.334 276.901 111.334ZM276.439 118V112.544H277.363V118H276.439ZM281.062 118.132C280.409 118.132 279.867 117.967 279.434 117.637C279.001 117.307 278.748 116.86 278.675 116.295H279.621C279.68 116.581 279.83 116.83 280.072 117.043C280.321 117.248 280.655 117.351 281.073 117.351C281.462 117.351 281.748 117.27 281.931 117.109C282.114 116.94 282.206 116.742 282.206 116.515C282.206 116.185 282.085 115.965 281.843 115.855C281.608 115.745 281.275 115.646 280.842 115.558C280.549 115.499 280.255 115.415 279.962 115.305C279.669 115.195 279.423 115.041 279.225 114.843C279.027 114.638 278.928 114.37 278.928 114.04C278.928 113.563 279.104 113.175 279.456 112.874C279.815 112.566 280.299 112.412 280.908 112.412C281.487 112.412 281.96 112.559 282.327 112.852C282.701 113.138 282.917 113.549 282.976 114.084H282.063C282.026 113.805 281.905 113.589 281.7 113.435C281.502 113.274 281.234 113.193 280.897 113.193C280.567 113.193 280.31 113.263 280.127 113.402C279.951 113.541 279.863 113.725 279.863 113.952C279.863 114.172 279.977 114.344 280.204 114.469C280.439 114.594 280.754 114.7 281.15 114.788C281.487 114.861 281.806 114.953 282.107 115.063C282.415 115.166 282.664 115.323 282.855 115.536C283.053 115.741 283.152 116.042 283.152 116.438C283.159 116.929 282.972 117.336 282.591 117.659C282.217 117.974 281.707 118.132 281.062 118.132ZM286.381 118C285.882 118 285.49 117.879 285.204 117.637C284.918 117.395 284.775 116.959 284.775 116.328V113.325H283.829V112.544H284.775L284.896 111.235H285.699V112.544H287.305V113.325H285.699V116.328C285.699 116.673 285.768 116.907 285.908 117.032C286.047 117.149 286.293 117.208 286.645 117.208H287.217V118H286.381ZM288.479 118V112.544H289.315L289.392 113.589C289.56 113.23 289.817 112.944 290.162 112.731C290.506 112.518 290.932 112.412 291.438 112.412V113.38H291.185C290.862 113.38 290.565 113.439 290.294 113.556C290.022 113.666 289.806 113.857 289.645 114.128C289.483 114.399 289.403 114.773 289.403 115.25V118H288.479ZM293.036 111.334C292.852 111.334 292.698 111.275 292.574 111.158C292.456 111.033 292.398 110.879 292.398 110.696C292.398 110.52 292.456 110.373 292.574 110.256C292.698 110.139 292.852 110.08 293.036 110.08C293.212 110.08 293.362 110.139 293.487 110.256C293.611 110.373 293.674 110.52 293.674 110.696C293.674 110.879 293.611 111.033 293.487 111.158C293.362 111.275 293.212 111.334 293.036 111.334ZM292.574 118V112.544H293.498V118H292.574ZM295.107 118V110.08H296.031V114.843L298.264 112.544H299.397L296.977 115.008L299.705 118H298.528L296.031 115.173V118H295.107Z" fill="#333333"/>
</svg>
