<svg width="188" height="161" viewBox="0 0 188 161" fill="none" xmlns="http://www.w3.org/2000/svg">
<g opacity="0.7">
<path d="M16.7952 62.6961C16.7952 62.6961 1.12164 86.3343 12.2648 122.005C23.408 157.663 55.8146 166.76 75.0443 156.847C94.2739 146.934 97.0749 134.061 112.602 124.696C128.13 115.343 160.183 115.672 172.52 89.9391C184.856 64.2062 159.27 28.1339 130.285 7.36984C101.289 -13.3943 38.3752 11.1817 16.7952 62.6961Z" fill="#F9FFFA"/>
<path opacity="0.7" d="M16.7952 62.6961C16.7952 62.6961 1.12164 86.3343 12.2648 122.005C23.408 157.663 55.8146 166.76 75.0443 156.847C94.2739 146.934 97.0749 134.061 112.602 124.696C128.13 115.343 160.183 115.672 172.52 89.9391C184.856 64.2062 159.27 28.1339 130.285 7.36984C101.289 -13.3943 38.3752 11.1817 16.7952 62.6961Z" fill="#DAF1DE"/>
</g>
<path d="M28.6812 79.0029C28.5716 79.0029 28.4864 78.9176 28.4742 78.808L27.3903 65.8503C27.3781 65.7406 27.4634 65.631 27.573 65.631C27.6826 65.6189 27.7922 65.7041 27.7922 65.8137L28.8761 78.7715C28.8883 78.8811 28.803 78.9907 28.6934 78.9907C28.6934 79.0029 28.6934 79.0029 28.6812 79.0029Z" fill="#E9F6EB"/>
<path d="M29.3266 86.6999C29.217 86.6999 29.1317 86.6147 29.1195 86.5051L28.7907 82.5837C28.7785 82.474 28.8638 82.3644 28.9734 82.3644C29.083 82.3523 29.1926 82.4375 29.1926 82.5471L29.5214 86.4686C29.5336 86.5782 29.4483 86.6878 29.3387 86.6878C29.3387 86.6999 29.3266 86.6999 29.3266 86.6999Z" fill="#235347"/>
<path d="M138.506 123.576H38.3024C35.7449 123.576 33.4797 121.481 33.2727 118.924L27.6341 51.0901C27.4271 48.5327 29.3391 46.438 31.8965 46.438H132.1C134.658 46.438 136.923 48.5327 137.13 51.0901L142.768 118.924C142.975 121.481 141.063 123.576 138.506 123.576Z" fill="#DAF1DE" stroke="#235347" stroke-width="1.21784" stroke-miterlimit="10"/>
<path d="M138.506 123.771H38.3024C35.6354 123.771 33.2971 121.603 33.0779 118.948L27.4393 51.1145C27.3297 49.8236 27.7438 48.6058 28.5841 47.6802C29.4244 46.7669 30.6057 46.2554 31.8966 46.2554H132.1C134.767 46.2554 137.105 48.4231 137.325 51.078L142.963 118.911C143.073 120.202 142.659 121.42 141.818 122.346C140.966 123.271 139.797 123.771 138.506 123.771ZM31.8844 46.6451C30.7031 46.6451 29.6314 47.1079 28.8642 47.9482C28.0848 48.7885 27.7194 49.9089 27.8168 51.0902L33.4554 118.924C33.6625 121.384 35.8302 123.393 38.3024 123.393H138.506C139.687 123.393 140.759 122.93 141.526 122.09C142.306 121.25 142.671 120.129 142.573 118.948L136.935 51.1145C136.728 48.6545 134.56 46.6451 132.088 46.6451H31.8844Z" fill="#235347"/>
<path d="M132.088 46.4502H31.8843C29.3269 46.4502 27.4149 48.5449 27.6219 51.1023H137.118C136.91 48.5449 134.645 46.4502 132.088 46.4502Z" fill="#24663F"/>
<path d="M34.2347 48.7762C34.2834 49.3242 33.8693 49.7748 33.3213 49.7748C32.7733 49.7748 32.2861 49.3242 32.2374 48.7762C32.1887 48.2282 32.6028 47.7776 33.1508 47.7776C33.6988 47.7654 34.186 48.216 34.2347 48.7762Z" fill="white"/>
<path d="M38.3023 48.7765C38.351 49.3245 37.9369 49.7751 37.3889 49.7751C36.8409 49.7751 36.3416 49.3245 36.305 48.7765C36.2685 48.2284 36.6704 47.7778 37.2184 47.7778C37.7664 47.7778 38.2536 48.2163 38.3023 48.7765Z" fill="white"/>
<path d="M42.382 48.7765C42.4307 49.3245 42.0167 49.7751 41.4686 49.7751C40.9206 49.7751 40.4335 49.3245 40.3848 48.7765C40.336 48.2284 40.7501 47.7778 41.2981 47.7778C41.8462 47.7778 42.3333 48.2163 42.382 48.7765Z" fill="white"/>
<path d="M129.811 114.686H45.5119C43.4781 114.686 41.6757 113.017 41.5052 110.996L37.5716 63.6827C37.4011 61.6489 38.9234 59.9927 40.9572 59.9927H125.244C127.277 59.9927 129.08 61.6611 129.25 63.6827L133.184 110.996C133.367 113.029 131.844 114.686 129.811 114.686Z" fill="#F2F9F3"/>
<path d="M108.218 62.8787L73.2298 105.004C71.6466 106.903 72.6453 109.814 75.0687 110.326L131.82 122.601C134.402 123.162 136.557 120.604 135.583 118.156L113.82 63.7556C112.883 61.4417 109.814 60.9545 108.218 62.8787Z" fill="#A4C1AD"/>
<path d="M47.2776 68.225L35.0262 101.204C34.5025 102.617 35.6351 104.078 37.133 103.932L72.9009 100.425C74.5084 100.266 75.3 98.3908 74.2892 97.1364L50.7728 67.6648C49.7742 66.4348 47.8256 66.7393 47.2776 68.225Z" fill="#A4C1AD"/>
<path d="M112.517 60.6988L88.5624 95.4802C85.1403 100.461 88.1727 107.293 94.1645 108.097L138.201 113.955C144.619 114.807 149.393 108.158 146.531 102.349L126.449 61.7096C123.697 56.1563 116.025 55.6083 112.517 60.6988Z" fill="#235347"/>
<path d="M94.8344 104.858C93.2025 104.639 91.7898 103.616 91.0347 102.105C90.2919 100.595 90.3771 98.9268 91.2661 97.6359L115.745 62.0995C116.634 60.8086 118.132 60.1753 119.763 60.3824C121.395 60.6016 122.808 61.6245 123.563 63.1347L144.071 104.651C144.814 106.161 144.729 107.829 143.84 109.12C142.951 110.411 141.453 111.044 139.821 110.837L94.8344 104.858Z" fill="white"/>
<path d="M117.681 72.9626L120.543 73.3401C122.382 73.5837 123.794 75.2521 123.697 77.0789L123.502 80.8055C123.49 80.9394 123.478 81.0734 123.453 81.2073L121.42 92.448C121.127 94.0677 119.642 95.115 117.973 94.8958C116.293 94.6766 114.941 93.2396 114.819 91.559L113.991 79.953C113.979 79.819 113.979 79.6851 113.991 79.5511L114.186 75.8123C114.271 73.9856 115.842 72.719 117.681 72.9626ZM117.449 97.9891L118.229 98.0987C119.873 98.3179 121.14 99.8159 121.054 101.436C120.969 103.067 119.569 104.2 117.924 103.981L117.145 103.871C115.501 103.652 114.234 102.154 114.32 100.534C114.405 98.9025 115.805 97.7699 117.449 97.9891Z" fill="#235347"/>
<path d="M55.2546 64.8396L48.0815 92.0217C47.2899 95.0054 49.8961 97.7821 52.9285 97.1853L80.7317 91.766C83.9711 91.1327 85.2377 87.1747 82.9603 84.7878L62.3302 63.025C60.0772 60.6503 56.0827 61.6733 55.2546 64.8396Z" fill="#235347"/>
<path d="M53.7202 94.9687C52.7703 95.1514 51.796 94.8226 51.0897 94.0797C50.3834 93.3368 50.1154 92.3504 50.359 91.4248L57.0815 65.9477C57.325 65.0221 58.0314 64.3645 58.9813 64.1818C59.9312 63.9991 60.9055 64.328 61.6118 65.0708L80.951 85.4696C81.6574 86.2125 81.9253 87.1989 81.6817 88.1245C81.4382 89.05 80.7318 89.7077 79.7819 89.8903L53.7202 94.9687Z" fill="white"/>
<path d="M60.2356 71.9273L61.8918 71.5985C62.9514 71.3915 64.0596 72.0978 64.364 73.1817L64.973 75.3982C64.9973 75.4834 65.0095 75.5565 65.0217 75.6417L66.0568 82.6078C66.203 83.6064 65.5941 84.5076 64.6198 84.7024C63.6455 84.8973 62.6225 84.3127 62.2328 83.3506L59.5414 76.7134C59.5049 76.6404 59.4805 76.5551 59.4562 76.482L58.8472 74.2656C58.555 73.1817 59.1761 72.1344 60.2356 71.9273ZM64.9243 86.6144L65.3748 86.5292C66.3248 86.3465 67.3112 86.9798 67.5791 87.9419C67.8471 88.904 67.2869 89.8417 66.3369 90.0365L65.8863 90.1218C64.9364 90.3045 63.95 89.6712 63.6821 88.7091C63.4141 87.7348 63.9743 86.8093 64.9243 86.6144Z" fill="#235347"/>
<path d="M26.5258 22.2275H1V41.5181H26.5258V22.2275Z" fill="white"/>
<path d="M26.5379 39.6914V41.5182H24.7112" stroke="#235347" stroke-width="1.21784" stroke-miterlimit="10"/>
<path d="M22.1295 41.5181H4.11768" stroke="#235347" stroke-width="1.21784" stroke-miterlimit="10" stroke-dasharray="3.86 3.86"/>
<path d="M2.82675 41.5182H1V39.6914" stroke="#235347" stroke-width="1.21784" stroke-miterlimit="10"/>
<path d="M1 37.0852V25.3574" stroke="#235347" stroke-width="1.21784" stroke-miterlimit="10" stroke-dasharray="3.91 3.91"/>
<path d="M1 24.0543V22.2275H2.82675" stroke="#235347" stroke-width="1.21784" stroke-miterlimit="10"/>
<path d="M5.40869 22.2275H23.4205" stroke="#235347" stroke-width="1.21784" stroke-miterlimit="10" stroke-dasharray="3.86 3.86"/>
<path d="M24.7112 22.2275H26.5379V24.0543" stroke="#235347" stroke-width="1.21784" stroke-miterlimit="10"/>
<path d="M26.538 26.6606V38.3884" stroke="#235347" stroke-width="1.21784" stroke-miterlimit="10" stroke-dasharray="3.91 3.91"/>
<path opacity="0.7" d="M24.9824 39.9643L24.9824 23.7793L2.54989 23.7793L2.54989 39.9643H24.9824Z" fill="#DAF1DE"/>
<g opacity="0.4">
<path d="M11.3026 34.1498L11.8993 33.3095C11.6801 32.8954 11.5583 32.3961 11.5583 31.8603C11.5583 30.3623 12.5448 29.1567 13.7748 29.1567C14.1036 29.1567 14.4203 29.2541 14.7125 29.4124L15.1266 28.84C14.7004 28.633 14.2498 28.5112 13.7748 28.5112C11.3513 28.5112 9.37842 31.8603 9.37842 31.8603C9.37842 31.8603 10.1335 33.1634 11.3026 34.1498Z" fill="#8EB69B"/>
<path d="M15.9182 29.3394L17.8545 26.648C17.9398 26.5262 17.9154 26.3557 17.7937 26.2705C17.7206 26.2096 17.6232 26.2096 17.5379 26.234C17.5623 26.307 17.5501 26.3923 17.5014 26.4654L9.75594 37.231C9.7194 37.2797 9.68287 37.3041 9.63416 37.3285C9.64633 37.3893 9.68287 37.4381 9.73158 37.4746C9.78029 37.5111 9.84119 37.5233 9.8899 37.5233C9.97515 37.5233 10.0604 37.4868 10.1091 37.4137L12.0698 34.7101C12.5935 35.0267 13.1659 35.2338 13.7748 35.2338C16.1983 35.2338 18.1712 31.8847 18.1712 31.8847C18.1712 31.8847 17.2578 30.3381 15.9182 29.3394ZM13.7626 34.5761C13.2877 34.5761 12.8614 34.3935 12.4961 34.089L12.8127 33.6384C13.0806 33.8576 13.4094 33.9794 13.7504 33.9794C14.7125 33.9794 15.4798 33.0295 15.4798 31.8604C15.4798 31.3367 15.3214 30.8617 15.0657 30.4964L15.3823 30.058C15.7355 30.5329 15.9547 31.1784 15.9547 31.8725C15.9791 33.3705 14.9926 34.5761 13.7626 34.5761Z" fill="#8EB69B"/>
<path d="M13.7625 29.7534C12.8004 29.7534 12.0332 30.7033 12.0332 31.8725C12.0332 32.2256 12.1063 32.5544 12.2281 32.8589L14.3593 29.8874C14.1766 29.8021 13.9817 29.7534 13.7625 29.7534Z" fill="#8EB69B"/>
</g>
<path d="M187 99.6211V131.528L182.299 136.448H159.587V99.6211H187Z" fill="white"/>
<path d="M185.173 99.6211H187V101.448" stroke="#235347" stroke-width="1.21784" stroke-miterlimit="10"/>
<path d="M187 104.042V131.529L184.467 134.196" stroke="#235347" stroke-width="1.21784" stroke-miterlimit="10" stroke-dasharray="3.9 3.9"/>
<path d="M183.566 135.133L182.299 136.449H180.472" stroke="#235347" stroke-width="1.21784" stroke-miterlimit="10"/>
<path d="M178.232 136.448H162.534" stroke="#235347" stroke-width="1.21784" stroke-miterlimit="10" stroke-dasharray="3.36 3.36"/>
<path d="M161.413 136.448H159.587V134.622" stroke="#235347" stroke-width="1.21784" stroke-miterlimit="10"/>
<path d="M159.587 132.174V102.678" stroke="#235347" stroke-width="1.21784" stroke-miterlimit="10" stroke-dasharray="3.69 3.69"/>
<path d="M159.587 101.448V99.6211H161.413" stroke="#235347" stroke-width="1.21784" stroke-miterlimit="10"/>
<path d="M163.569 99.6211H184.089" stroke="#235347" stroke-width="1.21784" stroke-miterlimit="10" stroke-dasharray="3.24 3.24"/>
<path d="M182.299 136.448V131.528H187" fill="#235347"/>
<mask id="mask0_3840_19114" style="mask-type:luminance" maskUnits="userSpaceOnUse" x="182" y="131" width="5" height="6">
<path d="M182.299 136.448V131.528H187" fill="white"/>
</mask>
<g mask="url(#mask0_3840_19114)">
<path opacity="0.7" d="M182.299 136.448V131.528H187" fill="#DAF1DE"/>
</g>
<path d="M182.299 136.448V131.528H187" stroke="#235347" stroke-width="1.21784" stroke-miterlimit="10"/>
<g opacity="0.4">
<path d="M169.768 121.287L170.621 120.093C170.316 119.497 170.133 118.79 170.133 118.035C170.133 115.904 171.546 114.175 173.288 114.175C173.763 114.175 174.213 114.309 174.627 114.54L175.212 113.724C174.603 113.432 173.957 113.249 173.288 113.249C169.829 113.249 167.016 118.035 167.016 118.035C167.016 118.035 168.112 119.886 169.768 121.287Z" fill="#8EB69B"/>
<path d="M176.369 114.43L179.133 110.582C179.255 110.411 179.218 110.168 179.048 110.046C178.938 109.961 178.792 109.949 178.683 109.997C178.707 110.107 178.695 110.229 178.622 110.326L167.564 125.695C167.515 125.756 167.454 125.805 167.393 125.829C167.418 125.914 167.466 125.987 167.539 126.048C167.613 126.097 167.686 126.121 167.771 126.121C167.893 126.121 168.014 126.06 168.087 125.963L170.864 122.103C171.607 122.553 172.435 122.845 173.3 122.845C176.758 122.845 179.572 118.059 179.572 118.059C179.572 118.059 178.269 115.843 176.369 114.43ZM173.288 121.895C172.618 121.895 171.997 121.64 171.485 121.201L171.936 120.568C172.326 120.873 172.788 121.055 173.275 121.055C174.639 121.055 175.748 119.703 175.748 118.035C175.748 117.292 175.528 116.61 175.163 116.086L175.614 115.453C176.125 116.135 176.43 117.049 176.43 118.035C176.454 120.166 175.041 121.895 173.288 121.895Z" fill="#8EB69B"/>
<path d="M173.287 115.015C171.923 115.015 170.815 116.366 170.815 118.035C170.815 118.546 170.925 119.009 171.095 119.435L174.14 115.197C173.884 115.076 173.592 115.015 173.287 115.015Z" fill="#8EB69B"/>
</g>
</svg>
